<?xml version="1.0" encoding="UTF-8" standalone="no"?>
<svg class="{{ class }}" width="247px" height="34px" viewBox="0 0 247 34" version="1.1" xmlns="http://www.w3.org/2000/svg" xmlns:xlink="http://www.w3.org/1999/xlink" xmlns:sketch="http://www.bohemiancoding.com/sketch/ns">
    <!-- Generator: Sketch 3.4 (15575) - http://www.bohemiancoding.com/sketch -->
    <title>hc-logo-black-col</title>
    <desc>Created with Sketch.</desc>
    <defs>
        <linearGradient x1="2.80571669%" y1="50%" x2="95.4809132%" y2="50%" id="linearGradient-1">
            <stop stop-color="#FB8F58" offset="0%"></stop>
            <stop stop-color="#DE0866" offset="56.253384%"></stop>
            <stop stop-color="#AC41EC" offset="100%"></stop>
        </linearGradient>
    </defs>
    <g id="Page-1" stroke="none" stroke-width="1" fill="none" fill-rule="evenodd" sketch:type="MSPage">
        <g id="Logo-Comp" sketch:type="MSArtboardGroup" transform="translate(-26.000000, -91.000000)">
            <g id="hc-logo-black-col" sketch:type="MSLayerGroup" transform="translate(26.000000, 91.000000)">
                <path d="M11.0956943,27.44225 L11.0956943,17.51425 C11.0956943,16.63875 11.0644644,15.9020833 11.0048437,15.2985833 C10.9423839,14.6950833 10.8203034,14.20775 10.6386023,13.8365833 C10.4540621,13.4654167 10.1985448,13.1990833 9.86353333,13.0319167 C9.53136092,12.86475 9.09414253,12.7825833 8.55187816,12.7825833 C8.18563678,12.7825833 7.79384368,12.85625 7.37649885,12.9979167 C6.9619931,13.1424167 6.5418092,13.3379167 6.11310805,13.58725 C5.68724598,13.8365833 5.25570575,14.1255833 4.82416552,14.4514167 C4.39262529,14.77725 3.97528046,15.11725 3.5778092,15.4714167 L3.5778092,27.44225 L0.000567816092,27.44225 L0.000567816092,2.72141667 L3.5778092,2.72141667 L3.5778092,12.4510833 C3.95256782,12.07425 4.3755908,11.70875 4.8412,11.3545833 C5.3068092,11.0004167 5.79797011,10.68875 6.31184368,10.41675 C6.82855632,10.1475833 7.36230345,9.92941667 7.91024598,9.77075 C8.45818851,9.60925 9.0118092,9.52991667 9.56542989,9.52991667 C10.5307172,9.52991667 11.3398552,9.66875 11.9928437,9.94358333 C12.6486713,10.22125 13.1710621,10.6264167 13.5656943,11.16475 C13.9603264,11.70025 14.2413954,12.3604167 14.4145793,13.1395833 C14.5849241,13.9215833 14.6729356,14.8140833 14.6729356,15.8199167 L14.6729356,27.44225 L11.0956943,27.44225 Z M29.7104092,18.9756833 L27.2148575,19.2080167 C26.4511448,19.2731833 25.7697655,19.38085 25.1763977,19.5225167 C24.5830299,19.6670167 24.0861908,19.86535 23.6802023,20.12035 C23.2742138,20.37535 22.9675931,20.6926833 22.7575011,21.0751833 C22.5474092,21.4576833 22.4395241,21.9251833 22.4395241,22.4776833 C22.4395241,23.3985167 22.6836851,24.04735 23.1720069,24.42985 C23.6603287,24.81235 24.3473862,25.0021833 25.2360184,25.0021833 C25.5795471,25.0021833 25.9372713,24.93985 26.3091908,24.82085 C26.6811103,24.6990167 27.055869,24.5375167 27.4391448,24.3391833 C27.8224207,24.1380167 28.2056966,23.90285 28.5861333,23.6336833 C28.9694092,23.3616833 29.3441678,23.0755167 29.7104092,22.7780167 L29.7104092,18.9756833 Z M29.8779149,27.4416833 L29.8779149,25.46685 C29.0574207,26.19785 28.1886621,26.7956833 27.2744782,27.26035 C26.3574552,27.7250167 25.363777,27.95735 24.2877655,27.95735 C23.3991333,27.95735 22.612708,27.8241833 21.9256506,27.55785 C21.2385931,27.29435 20.6594207,26.92035 20.1938115,26.4386833 C19.7282023,25.9570167 19.3733172,25.3875167 19.1291563,24.72735 C18.8849954,24.0700167 18.765754,23.34185 18.765754,22.5456833 C18.765754,21.4945167 18.9389379,20.61335 19.2881448,19.9050167 C19.6373517,19.1966833 20.1199954,18.6186833 20.7360759,18.1710167 C21.3521563,17.72335 22.0818,17.38335 22.9306851,17.1566833 C23.7795701,16.9300167 24.7079494,16.7685167 25.7186621,16.66935 L29.7104092,16.28685 L29.7104092,15.4736833 C29.7104092,14.8985167 29.6252368,14.4196833 29.4520529,14.0371833 C29.281708,13.6546833 29.031869,13.3486833 28.7053747,13.11635 C28.3760414,12.8840167 27.972892,12.7196833 27.4902483,12.6261833 C27.0076046,12.5326833 26.4596621,12.4845167 25.8520989,12.4845167 C25.2644092,12.4845167 24.7505356,12.5411833 24.3133172,12.6516833 C23.8732598,12.7621833 23.4956621,12.90385 23.1720069,13.08235 C22.8511908,13.2580167 22.5843172,13.4620167 22.3742253,13.6886833 C22.1641333,13.91535 21.9966276,14.1391833 21.8745471,14.3601833 L19.046823,12.5496833 C19.2569149,12.1756833 19.5493402,11.80735 19.9212598,11.4475167 C20.2931793,11.0876833 20.7559494,10.7675167 21.3095701,10.4841833 C21.8631908,10.20085 22.5218575,9.97135 23.279892,9.79568333 C24.0407655,9.61718333 24.9208805,9.52935 25.9173977,9.52935 C27.1382023,9.52935 28.2085356,9.62851667 29.1283977,9.82685 C30.0482598,10.0280167 30.8176506,10.3595167 31.430892,10.8241833 C32.0469724,11.28885 32.5097425,11.9121833 32.8220414,12.69135 C33.1315011,13.47335 33.2876506,14.44235 33.2876506,15.60685 L33.2876506,27.4416833 L29.8779149,27.4416833 Z M52.1513529,24.8525833 C51.8418931,25.3285833 51.487008,25.7564167 51.0866977,26.1389167 C50.6863874,26.5214167 50.2236172,26.84725 49.6983874,27.11925 C49.1703184,27.39125 48.5712724,27.5980833 47.9012494,27.7425833 C47.2312264,27.88425 46.4788701,27.9579167 45.6470195,27.9579167 C44.182054,27.9579167 42.9356977,27.7369167 41.9051115,27.2920833 C40.8716862,26.8500833 40.0284793,26.2239167 39.3754908,25.4164167 C38.7225023,24.6089167 38.2455368,23.6455833 37.9445943,22.52925 C37.6464908,21.4100833 37.4960195,20.1719167 37.4960195,18.8090833 C37.4960195,17.3924167 37.655008,16.11175 37.970146,14.9670833 C38.2852839,13.8195833 38.7707667,12.84775 39.4265943,12.0430833 C40.0795828,11.24125 40.9114333,10.6235833 41.9193069,10.1844167 C42.9300195,9.74808333 44.1281115,9.52991667 45.5135828,9.52991667 C46.9899046,9.52991667 48.2703299,9.78491667 49.3576977,10.2920833 C50.4422264,10.8020833 51.2967897,11.5755833 51.9185483,12.61825 L49.1248931,14.4939167 C48.7359391,13.8960833 48.2589736,13.4399167 47.6939966,13.1225833 C47.1261805,12.8080833 46.4135713,12.6494167 45.5476517,12.6494167 C44.0486172,12.6494167 42.9498931,13.14525 42.2458011,14.1369167 C41.5417092,15.12575 41.1896632,16.6840833 41.1896632,18.8090833 C41.1896632,19.78375 41.2663184,20.6479167 41.4224678,21.39875 C41.5757782,22.1524167 41.8284563,22.78425 42.1776632,23.2914167 C42.5268701,23.8014167 42.9896402,24.1895833 43.5688126,24.4530833 C44.145146,24.7194167 44.8492379,24.8525833 45.6810885,24.8525833 C46.0672034,24.8525833 46.4306057,24.8214167 46.7684563,24.7619167 C47.109146,24.6995833 47.427123,24.5975833 47.7252264,24.4530833 C48.026169,24.3114167 48.3072379,24.1215833 48.5741115,23.88925 C48.8409851,23.6569167 49.1021805,23.37075 49.3576977,23.0250833 L52.1513529,24.8525833 Z M66.208208,27.44225 L61.1007023,19.9225833 L59.3376333,21.8634167 L59.3376333,27.44225 L55.760392,27.44225 L55.760392,2.72141667 L59.3376333,2.72141667 L59.3376333,17.51425 L65.8078977,10.0285833 L70.0352885,10.0285833 L63.2811161,17.51425 L70.4015299,27.44225 L66.208208,27.44225 Z M75.3832644,31.9580167 L71.0962529,31.9580167 L86.5607241,0.31535 L90.8477356,0.31535 L75.3832644,31.9580167 Z" id="Fill-1" fill="url(#linearGradient-1)" sketch:type="MSShapeGroup"></path>
                <g id="Group" transform="translate(90.850575, 2.000000)" fill="#000000" sketch:type="MSShapeGroup">
                    <path d="M14.2175471,22.6534 C13.9393172,23.1747333 13.6185011,23.6394 13.2522598,24.0474 C12.8860184,24.4582333 12.4601563,24.8039 11.9718345,25.0844 C11.4835126,25.3677333 10.932731,25.5830667 10.3166506,25.7332333 C9.70057011,25.8834 9.01067356,25.9570667 8.24412184,25.9570667 C6.88136322,25.9570667 5.73721379,25.7247333 4.81167356,25.2600667 C3.88329425,24.7954 3.13661609,24.1550667 2.56596092,23.3419 C1.99246667,22.5287333 1.58363908,21.5625667 1.3338,20.4462333 C1.08396092,19.3270667 0.959041379,18.1144 0.959041379,16.8082333 C0.959041379,15.3915667 1.09531724,14.1109 1.36786897,12.9662333 C1.63758161,11.8215667 2.06628276,10.8469 2.64829425,10.0450667 C3.23030575,9.24323333 3.97982299,8.62273333 4.8940069,8.1864 C5.8081908,7.74723333 6.91543218,7.52906667 8.21289195,7.52906667 C9.5870069,7.52906667 10.7368345,7.80106667 11.6652138,8.34223333 C12.590754,8.88623333 13.3686621,9.72206667 14.001777,10.8497333 L12.238708,11.9122333 C12.0059034,11.4815667 11.7560644,11.1075667 11.4891908,10.7902333 C11.2223172,10.4757333 10.9270529,10.2150667 10.6005586,10.0110667 C10.2712253,9.80706667 9.90782299,9.65123333 9.51035172,9.5464 C9.11004138,9.44156667 8.65578851,9.38773333 8.14475402,9.38773333 C6.4043977,9.38773333 5.1410069,10.0195667 4.35174253,11.2804 C3.56531724,12.5440667 3.17068506,14.4084 3.17068506,16.8762333 C3.17068506,17.9614 3.25869655,18.9445667 3.42904138,19.8314 C3.60222529,20.7154 3.88329425,21.4775667 4.27792644,22.1150667 C4.67255862,22.7497333 5.19211034,23.2427333 5.84225977,23.5912333 C6.48957011,23.9397333 7.29302989,24.1154 8.24412184,24.1154 C8.78922529,24.1154 9.26902989,24.0559 9.68353563,23.9397333 C10.1008805,23.8235667 10.4756391,23.6564 10.8078115,23.4325667 C11.1399839,23.2115667 11.4380874,22.9452333 11.7049609,22.6279 C11.9718345,22.3134 12.2273517,21.9620667 12.4715126,21.5739 L14.2175471,22.6534 Z" id="Fill-9"></path>
                    <path d="M28.6236092,16.1288 L25.4949425,16.4263 C24.4984253,16.5283 23.6467011,16.6671333 22.9426092,16.8513 C22.2385172,17.0326333 21.665023,17.2819667 21.2221264,17.5993 C20.7763908,17.9138 20.4527356,18.3076333 20.2483218,18.7779667 C20.043908,19.2483 19.9388621,19.8149667 19.9388621,20.4779667 C19.9388621,21.7388 20.1943793,22.6568 20.7054138,23.2263 C21.2164483,23.7958 22.0142299,24.0819667 23.1015977,24.0819667 C23.5104253,24.0819667 23.9135747,24.0196333 24.3053678,23.8978 C24.7,23.7759667 25.1145057,23.5918 25.546046,23.3424667 C25.9775862,23.0931333 26.4431954,22.7729667 26.9428736,22.3791333 C27.4425517,21.9853 28.0018506,21.5234667 28.6236092,20.9936333 L28.6236092,16.1288 Z M28.6236092,25.4419667 L28.6236092,22.9174667 C28.123931,23.3509667 27.6412874,23.7504667 27.1756782,24.1216333 C26.710069,24.4928 26.2359425,24.8129667 25.7532989,25.0849667 C25.2706552,25.3569667 24.7738161,25.5694667 24.2571034,25.7253 C23.7403908,25.8783 23.1896092,25.9576333 22.6019195,25.9576333 C21.7814253,25.9576333 21.065977,25.8329667 20.4555747,25.5836333 C19.8451724,25.3343 19.336977,24.9744667 18.9338276,24.5041333 C18.5278391,24.0338 18.2268966,23.4643 18.0281609,22.7956333 C17.8265862,22.1241333 17.7272184,21.3761333 17.7272184,20.5459667 C17.7272184,19.6364667 17.8606552,18.8459667 18.1275287,18.1716333 C18.3915632,17.4944667 18.808908,16.9221333 19.3738851,16.4518 C19.9388621,15.9814667 20.6628276,15.6074667 21.5457816,15.3326333 C22.4258966,15.0549667 23.4820345,14.8566333 24.7141954,14.7348 L28.6236092,14.3523 L28.6236092,13.4739667 C28.6236092,12.7429667 28.5412759,12.1196333 28.3737701,11.6039667 C28.2091034,11.0911333 27.945069,10.6661333 27.5845057,10.3346333 C27.2239425,10.0031333 26.7640115,9.7623 26.2018736,9.61213333 C25.6425747,9.46196667 24.9753908,9.3883 24.1974828,9.3883 C23.5444943,9.3883 22.9766782,9.4478 22.4940345,9.56396667 C22.0113908,9.68013333 21.594046,9.83313333 21.2448391,10.0286333 C20.8956322,10.2213 20.606046,10.4451333 20.3732414,10.7001333 C20.1404368,10.9551333 19.9388621,11.2214667 19.7741954,11.4963 L18.0593908,10.4508 C18.3035517,10.0513 18.595977,9.6773 18.9338276,9.32313333 C19.2716782,8.96896667 19.689023,8.6573 20.1801839,8.3938 C20.6741839,8.12746667 21.2505172,7.9178 21.912023,7.76196667 C22.5706897,7.60613333 23.3457586,7.52963333 24.2315517,7.52963333 C25.406931,7.52963333 26.4091264,7.64013333 27.2352989,7.86113333 C28.0614713,8.08213333 28.7371724,8.43346667 29.2652414,8.91513333 C29.7904713,9.3968 30.1737471,10.0229667 30.4122299,10.7908 C30.6507126,11.5614667 30.769954,12.4993 30.769954,13.6043 L30.769954,25.4419667 L28.6236092,25.4419667 Z" id="Fill-11"></path>
                    <path d="M56.4545471,25.44225 L56.4545471,14.7350833 C56.4545471,13.69525 56.4204782,12.8395833 56.3551793,12.1680833 C56.2870414,11.4994167 56.1592828,10.9724167 55.9719034,10.58425 C55.7845241,10.1960833 55.5261678,9.92975 55.1996736,9.78808333 C54.8703402,9.64358333 54.4529954,9.56991667 53.9419609,9.56991667 C53.4990644,9.56991667 53.0703632,9.64925 52.6530184,9.80225 C52.2385126,9.95808333 51.8183287,10.17625 51.3981448,10.4595833 C50.9751218,10.7429167 50.5464207,11.0800833 50.1092023,11.4710833 C49.6691448,11.8649167 49.2063747,12.3040833 48.7180529,12.7914167 L48.7180529,25.44225 L46.5745471,25.44225 L46.5745471,14.6359167 C46.5745471,13.6045833 46.5348,12.76025 46.4581448,12.1029167 C46.3786506,11.4455833 46.2452138,10.9299167 46.0578345,10.55875 C45.8676161,10.1875833 45.6064207,9.92975 45.2685701,9.78808333 C44.9278805,9.64358333 44.5048575,9.56991667 43.993823,9.56991667 C43.5736391,9.56991667 43.147777,9.66058333 42.7133977,9.83625 C42.2818575,10.01475 41.8474782,10.25275 41.4159379,10.55025 C40.9843977,10.8505833 40.5500184,11.1934167 40.1184782,11.57875 C39.6869379,11.9669167 39.2582368,12.3720833 38.8380529,12.7914167 L38.8380529,25.44225 L36.691708,25.44225 L36.691708,8.02858333 L38.8380529,8.02858333 L38.8380529,10.7825833 C39.2695931,10.3179167 39.7153287,9.88725 40.1695816,9.48775 C40.6238345,9.09108333 41.0809264,8.74541667 41.5408575,8.45925 C42.0007885,8.17025 42.4692368,7.94358333 42.9462023,7.77925 C43.4231678,7.61208333 43.9058115,7.52991667 44.3941333,7.52991667 C45.5695126,7.52991667 46.497892,7.80758333 47.1792713,8.36858333 C47.8634897,8.92675 48.3092253,9.81358333 48.5193172,11.0319167 C49.0076391,10.5020833 49.4789264,10.0204167 49.9331793,9.58691667 C50.3874322,9.15625 50.8502023,8.78791667 51.3214897,8.48475 C51.792777,8.17875 52.2782598,7.94358333 52.7779379,7.77925 C53.2776161,7.61208333 53.8085241,7.52991667 54.3763402,7.52991667 C55.2621333,7.52991667 55.9804207,7.68291667 56.5283632,7.99458333 C57.0791448,8.30341667 57.507846,8.73691667 57.8173057,9.29791667 C58.1296046,9.85608333 58.3368575,10.5190833 58.4419034,11.28975 C58.5469494,12.0575833 58.600892,12.9019167 58.600892,13.8199167 L58.600892,25.44225 L56.4545471,25.44225 Z" id="Fill-13"></path>
                    <path d="M76.2835368,16.6767667 C76.2835368,15.5576 76.1955253,14.5517667 76.0166632,13.6564333 C75.8406402,12.7582667 75.5624103,11.9989333 75.1848126,11.3727667 C74.8072149,10.7466 74.3274103,10.2649333 73.7397207,9.92776667 C73.149192,9.5906 72.4394218,9.4206 71.6104103,9.4206 C70.7444908,9.4206 69.8927667,9.6586 69.0552379,10.1346 C68.2177092,10.6106 67.4227667,11.2254333 66.6675713,11.9791 L66.6675713,21.7059333 C67.434123,22.4256 68.2404218,23.0007667 69.0893069,23.4342667 C69.938192,23.8649333 70.7558471,24.0802667 71.5422724,24.0802667 C72.2293299,24.0802667 72.8652839,23.9386 73.4472954,23.6496 C74.0293069,23.3606 74.5318241,22.9157667 74.952008,22.3122667 C75.375031,21.7087667 75.7015253,20.9437667 75.9343299,20.0144333 C76.1671345,19.0851 76.2835368,17.9716 76.2835368,16.6767667 M78.4951805,16.6116 C78.4951805,17.9716 78.3617437,19.2239333 78.0977092,20.3714333 C77.8308356,21.5161 77.419169,22.5049333 76.8655483,23.3351 C76.3119276,24.1652667 75.6106747,24.8084333 74.7617897,25.2674333 C73.9129046,25.7264333 72.9078701,25.9559333 71.741008,25.9559333 C70.8779276,25.9559333 70.0034908,25.7576 69.1233759,25.3581 C68.2404218,24.9614333 67.4227667,24.4117667 66.6675713,23.7147667 L66.6675713,25.4431 L64.5212264,25.4431 L64.5212264,0.722266667 L66.6675713,0.722266667 L66.6675713,9.93626667 C67.0111,9.59343333 67.3858586,9.27326667 67.7918471,8.97293333 C68.1949966,8.67543333 68.6236977,8.42043333 69.0722724,8.21076667 C69.5208471,7.99826667 69.9892954,7.83393333 70.4776172,7.7121 C70.9659391,7.59026667 71.4599391,7.52793333 71.9596172,7.52793333 C73.1463529,7.52793333 74.1542264,7.7631 74.986077,8.23626667 C75.8179276,8.7066 76.4936287,9.34976667 77.0160195,10.1686 C77.5355713,10.9874333 77.913169,11.9479333 78.1459736,13.0501 C78.3787782,14.1494333 78.4951805,15.3366 78.4951805,16.6116" id="Fill-15"></path>
                    <path d="M92.5696379,10.1357333 C92.1806839,9.9799 91.7605,9.9034 91.3062471,9.9034 C90.7725,9.9034 90.2870172,9.96856667 89.8497989,10.1017333 C89.4125805,10.2349 88.9810402,10.4332333 88.5608563,10.6995667 C88.1378333,10.9659 87.7091322,11.2945667 87.2719138,11.6884 C86.8318563,12.0822333 86.3492126,12.5440667 85.8154655,13.0739 L85.8154655,25.4414 L83.6691207,25.4414 L83.6691207,8.02773333 L85.8154655,8.02773333 L85.8154655,11.0310667 C86.3151437,10.5352333 86.7892701,10.0819 87.2378448,9.67956667 C87.6864195,9.2744 88.1349943,8.93156667 88.586408,8.65106667 C89.0349828,8.36773333 89.4892356,8.14956667 89.9491667,7.99373333 C90.4090977,7.8379 90.8945805,7.7614 91.4056149,7.7614 C91.726431,7.7614 92.0216954,7.78973333 92.2857299,7.84356667 C92.5526034,7.90023333 92.8024425,7.98806667 93.0352471,8.1099 L92.5696379,10.1357333 Z" id="Fill-17"></path>
                    <path d="M96.929046,8.02716667 L99.0753908,8.02716667 L99.0753908,25.4408333 L96.929046,25.4408333 L96.929046,8.02716667 Z M99.5239655,3.77716667 C99.5239655,4.341 99.4047241,4.72633333 99.1662414,4.93033333 C98.9277586,5.13716667 98.5359655,5.23916667 97.9937011,5.23916667 C97.4258851,5.23916667 97.036931,5.11166667 96.8211609,4.85666667 C96.6025517,4.60166667 96.4946667,4.24183333 96.4946667,3.77716667 C96.4946667,3.2785 96.6053908,2.91583333 96.8268391,2.68916667 C97.0511264,2.4625 97.4372414,2.34916667 97.9937011,2.34916667 C98.5586782,2.34916667 98.9533103,2.45966667 99.1832759,2.68066667 C99.4104023,2.90166667 99.5239655,3.26716667 99.5239655,3.77716667 L99.5239655,3.77716667 Z" id="Fill-19"></path>
                    <path d="M116.091703,11.5303 C115.259853,10.8673 114.439359,10.3488 113.630221,9.97763333 C112.821083,9.60646667 112.014784,9.4223 111.217002,9.4223 C110.495876,9.4223 109.842887,9.58946667 109.255198,9.92946667 C108.667508,10.2666333 108.16783,10.7511333 107.756163,11.3801333 C107.347336,12.0119667 107.032198,12.7826333 106.80791,13.6978 C106.586462,14.6101333 106.475738,15.6471333 106.475738,16.8088 C106.475738,17.9053 106.56091,18.9026333 106.725577,19.7979667 C106.893083,20.6933 107.157117,21.4583 107.514841,22.0901333 C107.875405,22.7191333 108.341014,23.2093 108.905991,23.5578 C109.470968,23.9063 110.158025,24.0819667 110.967163,24.0819667 C111.444129,24.0819667 111.912577,24.0111333 112.372508,23.8723 C112.835278,23.7363 113.281014,23.5464667 113.712554,23.3084667 C114.144094,23.0704667 114.561439,22.7984667 114.961749,22.4868 C115.359221,22.1779667 115.736818,21.8464667 116.091703,21.4923 L116.091703,11.5303 Z M116.091703,25.4419667 L116.091703,23.5323 C115.736818,23.8751333 115.350703,24.1953 114.936198,24.4871333 C114.518853,24.7818 114.084474,25.0368 113.630221,25.2521333 C113.175968,25.4674667 112.70468,25.6374667 112.216359,25.7649667 C111.728037,25.8924667 111.234037,25.9576333 110.734359,25.9576333 C109.646991,25.9576333 108.698738,25.7536333 107.8896,25.3428 C107.080462,24.9319667 106.4076,24.3398 105.868175,23.5578 C105.331589,22.7786333 104.928439,21.8266333 104.664405,20.7018 C104.397531,19.5798 104.264094,18.3048 104.264094,16.8768 C104.264094,15.6698 104.394692,14.5053 104.655887,13.3804667 C104.914244,12.2584667 105.320232,11.2611333 105.868175,10.3941333 C106.418956,9.5243 107.11737,8.83013333 107.966255,8.3088 C108.81514,7.7903 109.831531,7.52963333 111.018267,7.52963333 C112.014784,7.52963333 112.920451,7.7138 113.729589,8.08496667 C114.538726,8.45613333 115.325152,8.94063333 116.091703,9.53846667 L116.091703,0.723966667 L118.238048,0.723966667 L118.238048,25.4419667 L116.091703,25.4419667 Z" id="Fill-21"></path>
                    <path d="M135.23903,11.49715 C134.429892,10.8653167 133.634949,10.3638167 132.851363,9.98698333 C132.070616,9.61015 131.264317,9.42315 130.432467,9.42315 C129.58926,9.42315 128.865294,9.59315 128.26057,9.93598333 C127.655846,10.2788167 127.156168,10.7633167 126.764375,11.3894833 C126.369743,12.01565 126.080156,12.7608167 125.898455,13.63065 C125.716754,14.5004833 125.623064,15.4524833 125.623064,16.49515 C125.623064,17.3678167 125.674168,18.22915 125.773536,19.0763167 C125.872903,19.9234833 126.082995,20.67715 126.406651,21.3429833 C126.727467,22.0059833 127.187398,22.5414833 127.786444,22.9523167 C128.38549,23.3603167 129.177593,23.56715 130.165593,23.56715 C130.676628,23.56715 131.164949,23.49065 131.636237,23.3433167 C132.107524,23.19315 132.558938,22.99765 132.9848,22.7539833 C133.410662,22.5103167 133.813811,22.2354833 134.191409,21.9323167 C134.569007,21.6263167 134.918214,21.3259833 135.23903,21.02565 L135.23903,11.49715 Z M137.385375,25.0603167 C137.385375,26.2899833 137.251938,27.3439833 136.985064,28.2223167 C136.718191,29.1034833 136.312202,29.82315 135.76426,30.3813167 C135.213478,30.9394833 134.517903,31.3503167 133.674697,31.6109833 C132.83149,31.8688167 131.829294,31.99915 130.665271,31.99915 C129.257087,31.99915 128.036283,31.83765 127.005697,31.5089833 C125.972271,31.18315 125.151777,30.78365 124.541375,30.30765 L125.458398,28.6473167 C126.023375,29.1119833 126.733145,29.4888167 127.587708,29.7749833 C128.439432,30.0639833 129.467179,30.2084833 130.665271,30.2084833 C131.497122,30.2084833 132.201214,30.11215 132.777547,29.92515 C133.35388,29.7353167 133.825168,29.44065 134.191409,29.0354833 C134.557651,28.63315 134.824524,28.1118167 134.989191,27.47715 C135.156697,26.83965 135.23903,26.07465 135.23903,25.1764833 L135.23903,23.0684833 C134.906857,23.38865 134.537777,23.69465 134.131789,23.9808167 C133.728639,24.2698167 133.29426,24.5219833 132.834329,24.7373167 C132.374398,24.95265 131.894593,25.1254833 131.394915,25.25015 C130.898076,25.37765 130.381363,25.4428167 129.850455,25.4428167 C128.729018,25.4428167 127.763731,25.2444833 126.954593,24.8449833 C126.145455,24.4454833 125.478271,23.8674833 124.95872,23.1109833 C124.436329,22.35165 124.050214,21.4223167 123.794697,20.32015 C123.539179,19.2208167 123.411421,17.96565 123.411421,16.5603167 C123.411421,15.2994833 123.544857,14.1208167 123.811731,13.0243167 C124.075766,11.9278167 124.490271,10.9729833 125.04957,10.1598167 C125.608869,9.34665 126.318639,8.70631667 127.17888,8.23598333 C128.039122,7.76565 129.066869,7.53048333 130.264961,7.53048333 C131.184823,7.53048333 132.062099,7.70898333 132.893949,8.06881667 C133.7258,8.42865 134.506547,8.91881667 135.23903,9.53931667 L135.23903,8.02631667 L137.385375,8.02631667 L137.385375,25.0603167 Z" id="Fill-22"></path>
                    <path d="M153.903713,15 C153.869644,13.0421667 153.503402,11.6056667 152.804989,10.6905 C152.106575,9.77816667 151.019207,9.322 149.545724,9.322 C148.779172,9.322 148.117667,9.4325 147.558368,9.6535 C146.99623,9.8745 146.524943,10.2201667 146.144506,10.6848333 C145.76123,11.1495 145.460287,11.7388333 145.244517,12.4528333 C145.028747,13.1668333 144.881115,14.014 144.80446,15 L153.903713,15 Z M144.770391,16.7425 C144.770391,18.0146667 144.852724,19.1168333 145.011713,20.0461667 C145.17354,20.9755 145.446092,21.7433333 145.826529,22.3468333 C146.209805,22.9503333 146.718,23.3951667 147.348276,23.6813333 C147.981391,23.9703333 148.767816,24.1148333 149.710391,24.1148333 C150.178839,24.1148333 150.604701,24.0723333 150.993655,23.9901667 C151.37977,23.908 151.743172,23.7691667 152.081023,23.5736667 C152.421713,23.381 152.745368,23.1316667 153.054828,22.8285 C153.367126,22.5225 153.670908,22.1485 153.969011,21.7065 L155.683816,22.82 C155.374356,23.3186667 155.030828,23.7606667 154.661747,24.1488333 C154.289828,24.5341667 153.861126,24.86 153.378483,25.1263333 C152.898678,25.3926667 152.347897,25.5966667 151.731816,25.7411667 C151.118575,25.8856667 150.411644,25.9565 149.611023,25.9565 C148.458356,25.9565 147.444805,25.7921667 146.567529,25.4578333 C145.690253,25.1263333 144.95777,24.5993333 144.364402,23.874 C143.771034,23.1486667 143.319621,22.2108333 143.015839,21.0605 C142.712057,19.9073333 142.558747,18.5133333 142.558747,16.8756667 C142.558747,15.4051667 142.686506,14.0905 142.942023,12.9345 C143.19754,11.7756667 143.603529,10.7981667 144.162828,9.9935 C144.724966,9.19166667 145.448931,8.57966667 146.343241,8.16033333 C147.234713,7.73816667 148.32492,7.5285 149.611023,7.5285 C150.743816,7.5285 151.714782,7.707 152.52392,8.06116667 C153.333057,8.41533333 153.994563,8.92533333 154.511276,9.59683333 C155.027989,10.2655 155.405586,11.0843333 155.649747,12.0533333 C155.893908,13.0223333 156.015989,14.1188333 156.015989,15.3485 L156.015989,16.7425 L144.770391,16.7425 Z" id="Fill-23"></path>
                </g>
            </g>
        </g>
    </g>
</svg>
