<?xml version="1.0" encoding="UTF-8"?>
<svg width="512px" height="512px" viewBox="0 0 512 512" version="1.1" xmlns="http://www.w3.org/2000/svg" xmlns:xlink="http://www.w3.org/1999/xlink">
    <!-- Generator: Sketch 52.3 (67297) - http://www.bohemiancoding.com/sketch -->
    <title>favicon</title>
    <desc>Created with Sketch.</desc>
    <g id="Favicons" stroke="none" stroke-width="1" fill="none" fill-rule="evenodd">
        <g id="Profile-picture">
            <rect id="Rectangle" fill="#FFFFFF" x="0" y="0" width="512" height="512"></rect>
            <g id="Cube-raster" transform="translate(114.000000, 92.000000)">
                <polygon id="Path" fill="#0092DB" points="142.5 0 285 82.2091183 285 246.627633 142.5 328.835917 0 246.627633 0 82.2091183"></polygon>
                <g id="Back" opacity="0.4" style="mix-blend-mode: overlay;" stroke-width="1">
                    <polygon id="Path" fill="#FFFFFF" points="142.5 0 285 82.2091183 285 246.627633 142.5 164.418515"></polygon>
                    <polygon id="Path" fill="#000000" points="285 246.627633 142.5 328.835917 0 246.627633 142.5 164.418515"></polygon>
                    <polygon id="Path" fill="#808080" points="0 82.2091183 142.5 0 142.5 164.418515 0 246.627633"></polygon>
                </g>
                <g id="Inner-cube" stroke-width="1" transform="translate(71.250000, 82.041420)">
                    <polygon id="Path" fill="#D01602" style="mix-blend-mode: color;" points="71.25 0.167698225 142.5 41.2723964 142.5 123.481515 71.25 164.586213 0 123.481515 0 41.2723964"></polygon>
                    <g id="Back" opacity="0.402390253" style="mix-blend-mode: overlay;">
                        <polygon id="Path" fill="#FFFFFF" points="71.25 0.167698225 0 41.2723964 0 123.481515 71.25 82.3770947"></polygon>
                        <polygon id="Path" fill="#000000" points="142.5 123.481515 71.25 164.586213 0 123.481515 71.25 82.3770947"></polygon>
                        <polygon id="Path" fill="#808080" points="142.5 41.2723964 142.5 123.481515 71.25 82.3770947 71.25 0.167698225"></polygon>
                    </g>
                    <g id="Front" opacity="0.4" style="mix-blend-mode: overlay;">
                        <polygon id="Path" fill="#000000" points="71.25 164.586213 0 123.481515 0 41.2723964 71.25 82.3770947"></polygon>
                        <polygon id="Path" fill="#808080" points="142.5 123.481515 142.5 41.2723964 71.25 82.3770947 71.25 164.586213"></polygon>
                        <polygon id="Path" fill="#FFFFFF" points="0 41.2723964 71.25 0.167698225 142.5 41.2723964 71.25 82.3770947"></polygon>
                    </g>
                </g>
                <g id="Front" opacity="0.4" style="mix-blend-mode: overlay;" stroke-width="1">
                    <polygon id="Path" fill="#000000" points="142.5 328.835917 0 246.627633 0 82.2091183 142.5 164.418515"></polygon>
                    <polygon id="Path" fill="#FFFFFF" points="0 82.2091183 142.5 0 285 82.2091183 142.5 164.418515"></polygon>
                    <polygon id="Path" fill="#808080" points="285 246.627633 285 82.2091183 142.5 164.418515 142.5 328.835917"></polygon>
                </g>
            </g>
        </g>
    </g>
</svg>
