<?xml version="1.0" standalone="no"?>
<!DOCTYPE svg PUBLIC "-//W3C//DTD SVG 20010904//EN"
 "http://www.w3.org/TR/2001/REC-SVG-20010904/DTD/svg10.dtd">
<svg version="1.0" xmlns="http://www.w3.org/2000/svg"
 width="700.000000pt" height="700.000000pt" viewBox="0 0 700.000000 700.000000"
 preserveAspectRatio="xMidYMid meet">
<metadata>
Created by potrace 1.11, written by Peter Selinger 2001-2013
</metadata>
<g transform="translate(0.000000,700.000000) scale(0.100000,-0.100000)"
fill="#000000" stroke="none">
<path d="M4266 4824 c-59 -102 -106 -189 -104 -193 2 -4 50 -89 108 -189 65
-113 107 -177 112 -169 4 6 51 89 106 182 54 94 102 169 107 169 5 -1 56 -83
113 -183 l105 -182 106 185 c58 102 109 186 112 186 4 0 53 -81 110 -180 57
-99 106 -180 110 -180 3 0 53 81 110 180 56 99 105 180 108 180 4 0 54 -84
113 -186 l107 -186 -101 -177 c-56 -97 -106 -181 -112 -188 -8 -8 -38 37 -116
173 -58 101 -107 184 -110 184 -3 -1 -52 -84 -110 -185 -92 -162 -107 -183
-118 -168 -7 10 -56 93 -109 186 -53 92 -100 164 -104 160 -14 -14 -209 -354
-209 -364 0 -11 188 -338 205 -357 10 -11 33 22 116 167 57 100 107 181 111
181 3 0 54 -83 113 -185 l107 -185 -107 -185 c-59 -102 -110 -185 -113 -185
-4 0 -54 81 -111 181 -83 145 -106 178 -116 167 -17 -19 -205 -346 -205 -357
0 -5 47 -91 105 -190 58 -99 105 -184 105 -188 0 -16 -208 -368 -216 -367 -5
1 -53 77 -107 170 -54 93 -101 175 -105 181 -5 8 -47 -56 -112 -169 -58 -100
-106 -185 -108 -189 -2 -4 42 -86 97 -181 55 -95 103 -181 107 -191 6 -16 -7
-17 -212 -15 l-218 3 -107 185 -106 185 -217 3 c-119 1 -216 0 -216 -3 0 -3
47 -87 105 -186 58 -100 105 -183 105 -185 0 -2 -98 -4 -218 -4 l-217 0 -108
185 c-59 102 -107 187 -107 190 0 2 97 6 215 7 l214 3 -101 175 c-55 96 -102
180 -105 187 -4 10 42 13 210 15 l215 3 -107 185 -107 185 -217 3 c-119 1
-217 1 -217 -2 0 -2 47 -86 105 -186 58 -99 105 -183 105 -185 0 -3 -97 -6
-215 -7 l-214 -3 101 -175 c55 -96 102 -180 105 -187 4 -10 -42 -13 -210 -15
l-215 -3 104 -180 c57 -99 104 -183 104 -188 0 -4 -98 -6 -217 -5 l-217 3
-107 185 -106 185 -217 3 c-119 1 -216 0 -216 -3 0 -4 47 -87 105 -187 58 -99
105 -182 105 -184 0 -2 -98 -4 -218 -4 l-218 0 -107 185 c-59 102 -107 187
-107 190 0 2 97 6 215 7 l214 3 -104 180 c-58 99 -105 183 -105 187 0 4 96 9
214 10 l214 3 -104 180 c-57 99 -108 181 -112 182 -4 1 -61 -91 -126 -205
-530 -921 -527 -916 -518 -937 6 -11 201 -351 435 -755 l425 -735 1752 0 1753
0 873 1513 874 1512 -431 748 c-237 411 -435 751 -439 755 -4 4 -50 -68 -103
-160 -53 -93 -102 -177 -110 -186 -11 -16 -23 -1 -109 150 -54 92 -103 176
-110 185 -11 16 -25 -4 -118 -167 -58 -101 -107 -184 -110 -185 -3 0 -52 83
-110 184 -58 101 -108 182 -111 180 -4 -2 -53 -85 -110 -183 -56 -99 -106
-178 -109 -176 -4 2 -54 86 -111 185 -86 150 -106 178 -115 165 -7 -9 -56 -92
-109 -186 -54 -94 -101 -167 -105 -162 -5 4 -52 85 -105 178 -54 94 -101 174
-105 178 -3 4 -55 -76 -114 -179z"/>
<path d="M3827 4064 l-107 -185 107 -185 c58 -101 109 -184 112 -184 7 1 205
345 209 364 3 12 -178 336 -202 364 -9 9 -37 -31 -119 -174z"/>
<path d="M4265 4065 l-107 -186 106 -184 c58 -101 106 -189 106 -195 0 -6 -48
-94 -106 -195 l-106 -184 107 -186 c59 -103 111 -183 115 -178 5 4 54 88 110
186 l103 178 -107 184 c-58 102 -106 189 -106 195 0 6 48 93 106 195 l107 184
-103 178 c-56 98 -105 182 -110 186 -4 5 -56 -75 -115 -178z"/>
<path d="M2193 3493 c63 -107 199 -346 203 -358 6 -14 -18 -15 -212 -13 l-218
3 -106 183 c-57 100 -107 182 -110 182 -6 0 -210 -353 -210 -363 0 -4 98 -8
217 -9 l217 -3 107 -185 106 -185 217 -3 c119 -1 216 0 216 3 0 3 -47 87 -105
186 -58 100 -105 183 -105 185 0 2 97 5 215 6 l215 3 -107 187 -108 188 -218
0 c-120 0 -216 -3 -214 -7z"/>
<path d="M3073 3488 c2 -7 50 -92 106 -188 l101 -175 222 -5 222 -5 105 -183
c81 -140 108 -179 117 -170 24 28 205 352 202 364 -5 20 -202 363 -209 364 -4
0 -53 -81 -110 -180 -57 -99 -107 -179 -111 -178 -5 2 -55 84 -112 183 l-104
180 -217 3 c-172 2 -216 0 -212 -10z"/>
<path d="M1760 2734 c0 -4 48 -89 106 -190 l106 -184 214 0 c118 0 214 3 214
6 0 4 -48 89 -106 190 l-106 184 -214 0 c-118 0 -214 -3 -214 -6z"/>
<path d="M3510 2734 c0 -4 48 -89 106 -190 l106 -184 214 0 c118 0 214 3 214
6 0 4 -48 89 -106 190 l-106 184 -214 0 c-118 0 -214 -3 -214 -6z"/>
</g>
</svg>
