<?xml version="1.0" encoding="UTF-8"?>
<svg width="16px" height="16px" viewBox="0 0 16 16" version="1.1" xmlns="http://www.w3.org/2000/svg" xmlns:xlink="http://www.w3.org/1999/xlink">
    <!-- Generator: Sketch 52.3 (67297) - http://www.bohemiancoding.com/sketch -->
    <title>Cube</title>
    <desc>Created with Sketch.</desc>
    <g id="Cube" stroke="none" stroke-width="1" fill="none" fill-rule="evenodd" stroke-linecap="round" stroke-linejoin="round">
        <polygon id="Path" stroke="#000000" style="mix-blend-mode: color;" points="7.92476754 3.99801183 11.3871513 5.99702451 11.3871513 9.99503635 7.92476754 11.994049 4.46238377 9.99503635 4.46238377 5.99702451"></polygon>
        <polygon id="Path" stroke="#000000" points="7.92476754 3.99801183 4.46238377 5.99702451 4.46238377 9.99503635 7.92476754 7.99603719"></polygon>
        <polygon id="Path" stroke="#000000" points="11.3871513 9.99503635 7.92476754 11.994049 4.46238377 9.99503635 7.92476754 7.99603719"></polygon>
        <polygon id="Path" stroke="#000000" points="11.3871513 5.99702451 11.3871513 9.99503635 7.92476754 7.99603719 7.92476754 3.99801183"></polygon>
        <polygon id="Path" stroke="#000000" points="7.92476754 0 14.8495351 3.99801183 14.8495351 11.994049 7.92476754 7.99603719"></polygon>
        <polygon id="Path" stroke="#000000" points="14.8495351 11.994049 7.92476754 15.9920203 1 11.994049 7.92476754 7.99603719"></polygon>
        <polygon id="Path" stroke="#000000" points="1 3.99801183 7.92476754 0 7.92476754 7.99603719 1 11.994049"></polygon>
        <polygon id="Path" stroke="#000000" points="7.92476754 0 14.8495351 3.99801183 14.8495351 11.994049 7.92476754 15.9920203 1 11.994049 1 3.99801183"></polygon>
        <polygon id="Path" stroke="#000000" points="7.92476754 11.994049 4.46238377 9.99503635 4.46238377 5.99702451 7.92476754 7.99603719"></polygon>
        <polygon id="Path" stroke="#000000" points="11.3871513 9.99503635 11.3871513 5.99702451 7.92476754 7.99603719 7.92476754 11.994049"></polygon>
        <polygon id="Path" stroke="#000000" points="4.46238377 5.99702451 7.92476754 3.99801183 11.3871513 5.99702451 7.92476754 7.99603719"></polygon>
        <polygon id="Path" stroke="#000000" points="7.92476754 15.9920203 1 11.994049 1 3.99801183 7.92476754 7.99603719"></polygon>
        <polygon id="Path" stroke="#000000" points="1 3.99801183 7.92476754 0 14.8495351 3.99801183 7.92476754 7.99603719"></polygon>
        <polygon id="Path" stroke="#000000" points="14.8495351 11.994049 14.8495351 3.99801183 7.92476754 7.99603719 7.92476754 15.9920203"></polygon>
    </g>
</svg>
