<svg id="Layer_1" data-name="Layer 1" xmlns="http://www.w3.org/2000/svg" viewBox="0 0 536.98 1106.32"><defs><style>.cls-1{fill:#9d61aa;stroke:#2a2b2d;}.cls-2,.cls-3,.cls-4,.cls-7,.cls-8{isolation:isolate;}.cls-3{font-size:14px;fill:#fff;}.cls-3,.cls-4,.cls-7,.cls-8,.cls-9{font-family:Clear Sans Medium;}.cls-4,.cls-8,.cls-9{font-size:16px;}.cls-5{fill:#e6e6e6;stroke:#a9a9a9;}.cls-6,.cls-8,.cls-9{fill:#499e61;}.cls-7{font-size:27px;fill:#454545;}.cls-10{fill:#f5f5f5;}.cls-11{fill:#979797;}</style></defs><title>cornex-floor</title><g id="Page-1"><g id="cornex-floor"><g id="Group-5"><g id="Group"><rect id="Rectangle-1" class="cls-1" x="141" y="646.41" width="32" height="64"/><rect id="Rectangle-1-2" data-name="Rectangle-1" class="cls-1" x="141" y="582.41" width="32" height="64"/><g id="a" class="cls-2"><text class="cls-3" transform="translate(153.18 617.41)">a</text></g><g id="b" class="cls-2"><text class="cls-3" transform="translate(153.42 681.41)">b</text></g><g id="_15" data-name="15" class="cls-2"><text class="cls-4" transform="translate(147.5 577.41)">15</text></g></g><g id="Group-2" data-name="Group"><rect id="Rectangle-1-3" data-name="Rectangle-1" class="cls-1" x="95" y="646.41" width="32" height="64"/><rect id="Rectangle-1-4" data-name="Rectangle-1" class="cls-1" x="95" y="582.41" width="32" height="64"/><g id="a-2" data-name="a" class="cls-2"><text class="cls-3" transform="translate(107.18 617.41)">a</text></g><g id="b-2" data-name="b" class="cls-2"><text class="cls-3" transform="translate(107.42 681.41)">b</text></g><g id="_14" data-name="14" class="cls-2"><text class="cls-4" transform="translate(101.5 577.41)">14</text></g></g><g id="Group-3" data-name="Group"><rect id="Rectangle-1-5" data-name="Rectangle-1" class="cls-1" x="49" y="646.41" width="32" height="64"/><rect id="Rectangle-1-6" data-name="Rectangle-1" class="cls-1" x="49" y="582.41" width="32" height="64"/><g id="a-3" data-name="a" class="cls-2"><text class="cls-3" transform="translate(61.18 617.41)">a</text></g><g id="b-3" data-name="b" class="cls-2"><text class="cls-3" transform="translate(61.42 681.41)">b</text></g><g id="_13" data-name="13" class="cls-2"><text class="cls-4" transform="translate(55.5 577.41)">13</text></g></g><g id="Group-4" data-name="Group"><rect id="Rectangle-1-7" data-name="Rectangle-1" class="cls-1" x="187" y="646.41" width="32" height="64"/><rect id="Rectangle-1-8" data-name="Rectangle-1" class="cls-1" x="187" y="582.41" width="32" height="64"/><g id="a-4" data-name="a" class="cls-2"><text class="cls-3" transform="translate(199.18 617.41)">a</text></g><g id="b-4" data-name="b" class="cls-2"><text class="cls-3" transform="translate(199.42 681.41)">b</text></g><g id="_16" data-name="16" class="cls-2"><text class="cls-4" transform="translate(193.5 577.41)">16</text></g></g></g><rect id="Rectangle-86" class="cls-5" x="20" y="27.41" width="481" height="87"/><path id="path17" class="cls-6" d="M545.77,570.5L546,571q-0.47,1-1,2t-0.95,2l-0.92,2-0.94,2-0.89,1.82-1,2q-0.48,1-.94,2,1.11,0,2.22,0a2.14,2.14,0,0,0,1.68-.52,3,3,0,0,0,.59-0.89q0.45-1,.92-2t1-2c0.3-.63.61-1.26,0.92-1.88,0.16-.33.33-0.66,0.49-1l0.92-2q0.47-1,1-2a2.08,2.08,0,0,1,.15.64q0.12,1.29.25,2.61t0.26,2.61a3.39,3.39,0,0,0,.12.64,1.32,1.32,0,0,0,.65.84l0.06,0a3.74,3.74,0,0,0,1.18.14l2.91,0h2.91l2.91,0a2.28,2.28,0,0,0,.69-0.08,2.78,2.78,0,0,1-.24-0.53l-0.18-.56a2.61,2.61,0,0,0-1.28-1.63,1.49,1.49,0,0,0-.57-0.17h-0.15q-1.2,0-2.41,0l-2.91,0a2.28,2.28,0,0,1-.69-0.08q-0.13-.91-0.21-1.87-0.12-1.32-.25-2.66-0.09-.95-0.17-1.92h-6.31ZM567,571.34V570.5h-8.91v5.81a3,3,0,0,1,2.25.65,3.73,3.73,0,0,1,.88,1.27l0,0.08,0.81,2.11a1,1,0,0,1,.06.26,2.28,2.28,0,0,1-.69.08l-2.91,0h-0.44v4.73l1.44,1.46,1.45,1.45q0.73,0.73,1.47,1.43a0.48,0.48,0,0,1,.12.18H567V571.34h0ZM536.86,573q0-1.26,0-2.51H528V590h13.39l-0.85-.87-1.45-1.45q-0.73-.73-1.47-1.43a7.75,7.75,0,0,1-.71-0.77,0.09,0.09,0,0,1,0-.05c0-.26,0-0.52,0-0.79v-8.72c0-1,0-1.94,0-2.91h0ZM528,551v19.5h8.84c0-.13,0-0.26,0-0.39a2.28,2.28,0,0,1,.08-0.69l0,0,2.36,0a5.6,5.6,0,0,0,.73,0,2.67,2.67,0,0,0,1.88-1c0.21-.28.43-0.55,0.65-0.82l1.32-1.59a7.82,7.82,0,0,1,.38.89l0,0.09q0.45,1,.86,2.06,0.3,0.76.59,1.54h6.31c0-.24,0-0.49-0.05-0.74l-0.16-.34h0q-0.24-.52-0.46-1.07l-0.81-2.08q-0.41-1-.84-2.07h3q0.41,0.77.81,1.56l1,1.9,0.07,0.12a1.31,1.31,0,0,0,.17.21l0.1,0.09,0.11,0.08,0.24,0.13,0.13,0H556v0h0a1.8,1.8,0,0,0,.37-0.19,1.53,1.53,0,0,0,.21-0.17,1.46,1.46,0,0,0,.25-0.31,2.88,2.88,0,0,1,.07-0.29,0.52,0.52,0,0,0,0-.06,1.48,1.48,0,0,0,0-.43,2.48,2.48,0,0,0-.09-0.33,2.24,2.24,0,0,0-.13-0.29q-0.51-1-1-1.9l-0.23-.42-0.51-1,0-.06a3,3,0,0,0-.25-0.48l-0.15-.21a2.56,2.56,0,0,0-.26-0.29h0a2.61,2.61,0,0,0-.41-0.32l-0.24-.13-0.12-.06a2.09,2.09,0,0,0-.55-0.15h0a11.83,11.83,0,0,0-1.77-.1l-2.91,0c-1,0-1.94,0-2.91,0l-0.33,0-0.31,0-0.15,0-0.27.09-0.13.05a4.11,4.11,0,0,0-1.44,1.1l-0.16.2h0c-0.41.56-.84,1.1-1.29,1.62l-0.34.41c-0.2.25-.4,0.51-0.59,0.78a4.31,4.31,0,0,1-.61.69l-0.1.09h-2.76v-3.64h0V554h21.22v2.91c0,1,0,1.94,0,2.91v2.9h0v7.78H567V551H528Zm15.65,34.69a3,3,0,0,0-.93-0.15l-2.91,0,1.46,1.44,1.46,1.45,1.45,1.45a0.83,0.83,0,0,1,.11.14h4.23q-0.63-.69-1.31-1.35l-1.46-1.44-0.35-.38A3.94,3.94,0,0,0,543.65,585.69Zm-0.71-24.91a3,3,0,1,0-3-3A3,3,0,0,0,542.94,560.78Z" transform="translate(-34 -25.59)"/><path id="path17-2" data-name="path17" class="cls-6" d="M51.77,423.5L52,424q-0.47,1-1,2t-0.95,2l-0.92,2-0.94,2-0.89,1.82-1,2q-0.48,1-.94,2,1.11,0,2.22,0a2.14,2.14,0,0,0,1.68-.52,3,3,0,0,0,.59-0.89q0.45-1,.92-2t1-2c0.3-.63.61-1.26,0.92-1.88,0.16-.33.33-0.66,0.49-1l0.92-2q0.47-1,1-2a2.08,2.08,0,0,1,.15.64q0.12,1.29.25,2.61t0.26,2.61a3.39,3.39,0,0,0,.12.64,1.32,1.32,0,0,0,.65.84l0.06,0a3.74,3.74,0,0,0,1.18.14l2.91,0h2.91l2.91,0a2.28,2.28,0,0,0,.69-0.08,2.77,2.77,0,0,1-.24-0.53l-0.18-.56a2.61,2.61,0,0,0-1.28-1.63,1.49,1.49,0,0,0-.57-0.17H64.72q-1.2,0-2.41,0l-2.91,0a2.28,2.28,0,0,1-.69-0.08q-0.13-.91-0.21-1.87-0.12-1.32-.25-2.66-0.09-.95-0.17-1.92H51.77ZM73,424.34V423.5H64.09v5.81a3,3,0,0,1,2.25.65,3.73,3.73,0,0,1,.88,1.27l0,0.08,0.81,2.11a1,1,0,0,1,.06.26,2.28,2.28,0,0,1-.69.08l-2.91,0H64.09v4.73l1.44,1.46L67,441.39q0.73,0.73,1.47,1.43a0.48,0.48,0,0,1,.12.18H73V424.34h0ZM42.86,426q0-1.26,0-2.51H34V443H47.39l-0.85-.87-1.45-1.45q-0.73-.73-1.47-1.43a7.76,7.76,0,0,1-.71-0.77,0.09,0.09,0,0,1,0-.05c0-.26,0-0.52,0-0.79v-8.72q0-1.45,0-2.91h0ZM34,404v19.5h8.84c0-.13,0-0.26,0-0.39a2.28,2.28,0,0,1,.08-0.69l0,0,2.36,0a5.59,5.59,0,0,0,.73,0,2.67,2.67,0,0,0,1.88-1c0.21-.28.43-0.55,0.65-0.82l1.32-1.59a7.82,7.82,0,0,1,.38.89l0,0.09q0.45,1,.86,2.06,0.3,0.76.59,1.54h6.31c0-.24,0-0.49-0.05-0.74l-0.16-.34h0q-0.24-.52-0.46-1.07l-0.81-2.08q-0.41-1-.84-2.07h3q0.41,0.77.81,1.56l1,1.9,0.07,0.12a1.31,1.31,0,0,0,.17.21l0.1,0.09L61,421.15a1.46,1.46,0,0,0,.24.13l0.13,0H62v0h0a1.8,1.8,0,0,0,.37-0.19,1.53,1.53,0,0,0,.21-0.17,1.46,1.46,0,0,0,.25-0.31,2.9,2.9,0,0,1,.07-0.29,0.53,0.53,0,0,0,0-.06,1.48,1.48,0,0,0,0-.43,2.48,2.48,0,0,0-.09-0.33,2.23,2.23,0,0,0-.13-0.29q-0.51-1-1-1.9l-0.23-.42-0.51-1,0-.06a3,3,0,0,0-.25-0.48l-0.15-.21a2.57,2.57,0,0,0-.26-0.29h0a2.61,2.61,0,0,0-.41-0.32l-0.24-.13-0.12-.06a2.1,2.1,0,0,0-.55-0.15h0a11.83,11.83,0,0,0-1.77-.1l-2.91,0c-1,0-1.94,0-2.91,0l-0.33,0-0.31,0-0.15,0-0.27.09-0.13.05a4.11,4.11,0,0,0-1.44,1.1l-0.16.2h0c-0.41.56-.84,1.1-1.29,1.62l-0.34.41c-0.2.25-.4,0.51-0.59,0.78a4.32,4.32,0,0,1-.61.69l-0.1.09H42.86v-3.64h0V407H64.09v2.91c0,1,0,1.94,0,2.91v2.9h0v7.78H73V404H34Zm15.65,34.69a3,3,0,0,0-.93-0.15l-2.91,0L47.28,440l1.46,1.45,1.45,1.45a0.83,0.83,0,0,1,.11.14h4.23q-0.63-.69-1.31-1.35l-1.46-1.44-0.35-.38A3.94,3.94,0,0,0,49.65,438.69Zm-0.71-24.91a3,3,0,1,0-3-3A3,3,0,0,0,48.94,413.78Z" transform="translate(-34 -25.59)"/><path id="path17-3" data-name="path17" class="cls-6" d="M51.77,763.5L52,764q-0.47,1-1,2t-0.95,2l-0.92,2-0.94,2-0.89,1.82-1,2q-0.48,1-.94,2,1.11,0,2.22,0a2.14,2.14,0,0,0,1.68-.52,3,3,0,0,0,.59-0.89q0.45-1,.92-2t1-2c0.3-.63.61-1.26,0.92-1.88,0.16-.33.33-0.66,0.49-1l0.92-2q0.47-1,1-2a2.08,2.08,0,0,1,.15.64q0.12,1.29.25,2.61t0.26,2.61a3.39,3.39,0,0,0,.12.64,1.32,1.32,0,0,0,.65.84l0.06,0a3.74,3.74,0,0,0,1.18.14l2.91,0h2.91l2.91,0a2.28,2.28,0,0,0,.69-0.08,2.77,2.77,0,0,1-.24-0.53l-0.18-.56a2.61,2.61,0,0,0-1.28-1.63,1.49,1.49,0,0,0-.57-0.17H64.72q-1.2,0-2.41,0l-2.91,0a2.28,2.28,0,0,1-.69-0.08q-0.13-.91-0.21-1.87-0.12-1.32-.25-2.66-0.09-.95-0.17-1.92H51.77ZM73,764.34V763.5H64.09v5.81a3,3,0,0,1,2.25.65,3.73,3.73,0,0,1,.88,1.27l0,0.08,0.81,2.11a1,1,0,0,1,.06.26,2.28,2.28,0,0,1-.69.08l-2.91,0H64.09v4.73l1.44,1.46L67,781.39q0.73,0.73,1.47,1.43a0.48,0.48,0,0,1,.12.18H73V764.34h0ZM42.86,766q0-1.26,0-2.51H34V783H47.39l-0.85-.87-1.45-1.45q-0.73-.73-1.47-1.43a7.76,7.76,0,0,1-.71-0.77,0.09,0.09,0,0,1,0-.05c0-.26,0-0.52,0-0.79v-8.72c0-1,0-1.94,0-2.91h0ZM34,744v19.5h8.84c0-.13,0-0.26,0-0.39a2.28,2.28,0,0,1,.08-0.69l0,0,2.36,0a5.6,5.6,0,0,0,.73,0,2.67,2.67,0,0,0,1.88-1c0.21-.28.43-0.55,0.65-0.82l1.32-1.59a7.82,7.82,0,0,1,.38.89l0,0.09q0.45,1,.86,2.06,0.3,0.76.59,1.54h6.31c0-.24,0-0.49-0.05-0.74l-0.16-.34h0q-0.24-.52-0.46-1.07l-0.81-2.08q-0.41-1-.84-2.07h3q0.41,0.77.81,1.56l1,1.9,0.07,0.12a1.31,1.31,0,0,0,.17.21l0.1,0.09L61,761.15l0.24,0.13,0.13,0H62v0h0a1.8,1.8,0,0,0,.37-0.19,1.53,1.53,0,0,0,.21-0.17,1.46,1.46,0,0,0,.25-0.31,2.9,2.9,0,0,1,.07-0.29,0.53,0.53,0,0,0,0-.06,1.48,1.48,0,0,0,0-.43,2.48,2.48,0,0,0-.09-0.33,2.23,2.23,0,0,0-.13-0.29q-0.51-1-1-1.9l-0.23-.42-0.51-1,0-.06a3,3,0,0,0-.25-0.48l-0.15-.21a2.56,2.56,0,0,0-.26-0.29h0a2.61,2.61,0,0,0-.41-0.32l-0.24-.13-0.12-.06a2.09,2.09,0,0,0-.55-0.15h0a11.83,11.83,0,0,0-1.77-.1l-2.91,0c-1,0-1.94,0-2.91,0l-0.33,0-0.31,0-0.15,0-0.27.09-0.13.05a4.11,4.11,0,0,0-1.44,1.1l-0.16.2h0c-0.41.56-.84,1.1-1.29,1.62l-0.34.41c-0.2.25-.4,0.51-0.59,0.78a4.32,4.32,0,0,1-.61.69l-0.1.09H42.86v-3.64h0V747H64.09v2.91c0,1,0,1.94,0,2.91v2.9h0v7.78H73V744H34Zm15.65,34.69a3,3,0,0,0-.93-0.15l-2.91,0L47.28,780l1.46,1.45,1.45,1.45a0.83,0.83,0,0,1,.11.14h4.23q-0.63-.69-1.31-1.35l-1.46-1.44-0.35-.38A3.94,3.94,0,0,0,49.65,778.69Zm-0.71-24.91a3,3,0,1,0-3-3A3,3,0,0,0,48.94,753.78Z" transform="translate(-34 -25.59)"/><g id="Stage" class="cls-2"><text class="cls-7" transform="translate(221.01 80.41)">S<tspan x="16.18" y="0">t</tspan><tspan x="25.97" y="0">age</tspan></text></g><g id="Group-4-2" data-name="Group-4"><g id="Group-5-2" data-name="Group"><rect id="Rectangle-1-9" data-name="Rectangle-1" class="cls-1" x="141" y="490.41" width="32" height="64"/><rect id="Rectangle-1-10" data-name="Rectangle-1" class="cls-1" x="141" y="426.41" width="32" height="64"/><g id="a-5" data-name="a" class="cls-2"><text class="cls-3" transform="translate(153.18 461.41)">a</text></g><g id="b-5" data-name="b" class="cls-2"><text class="cls-3" transform="translate(153.42 525.41)">b</text></g><g id="_11" data-name="11" class="cls-2"><text class="cls-4" transform="translate(147.5 421.41)">11</text></g></g><g id="Group-6" data-name="Group"><rect id="Rectangle-1-11" data-name="Rectangle-1" class="cls-1" x="95" y="490.41" width="32" height="64"/><rect id="Rectangle-1-12" data-name="Rectangle-1" class="cls-1" x="95" y="426.41" width="32" height="64"/><g id="a-6" data-name="a" class="cls-2"><text class="cls-3" transform="translate(107.18 461.41)">a</text></g><g id="b-6" data-name="b" class="cls-2"><text class="cls-3" transform="translate(107.42 525.41)">b</text></g><g id="_10" data-name="10" class="cls-2"><text class="cls-4" transform="translate(101.5 421.41)">10</text></g></g><g id="Group-7" data-name="Group"><rect id="Rectangle-1-13" data-name="Rectangle-1" class="cls-1" x="49" y="490.41" width="32" height="64"/><rect id="Rectangle-1-14" data-name="Rectangle-1" class="cls-1" x="49" y="426.41" width="32" height="64"/><g id="a-7" data-name="a" class="cls-2"><text class="cls-3" transform="translate(61.18 461.41)">a</text></g><g id="b-7" data-name="b" class="cls-2"><text class="cls-3" transform="translate(61.42 525.41)">b</text></g><g id="_9" data-name="9" class="cls-2"><text class="cls-4" transform="translate(60.5 421.41)">9</text></g></g><g id="Group-8" data-name="Group"><rect id="Rectangle-1-15" data-name="Rectangle-1" class="cls-1" x="187" y="490.41" width="32" height="64"/><rect id="Rectangle-1-16" data-name="Rectangle-1" class="cls-1" x="187" y="426.41" width="32" height="64"/><g id="a-8" data-name="a" class="cls-2"><text class="cls-3" transform="translate(199.18 461.41)">a</text></g><g id="b-8" data-name="b" class="cls-2"><text class="cls-3" transform="translate(199.42 525.41)">b</text></g><g id="_12" data-name="12" class="cls-2"><text class="cls-4" transform="translate(193.5 421.41)">12</text></g></g></g><g id="Group-8-2" data-name="Group-8"><g id="Group-9" data-name="Group"><rect id="Rectangle-1-17" data-name="Rectangle-1" class="cls-1" x="141" y="995.41" width="32" height="64"/><rect id="Rectangle-1-18" data-name="Rectangle-1" class="cls-1" x="141" y="931.41" width="32" height="64"/><g id="a-9" data-name="a" class="cls-2"><text class="cls-3" transform="translate(153.18 966.41)">a</text></g><g id="b-9" data-name="b" class="cls-2"><text class="cls-3" transform="translate(153.42 1030.41)">b</text></g><g id="_31" data-name="31" class="cls-2"><text class="cls-4" transform="translate(147.5 926.41)">31</text></g></g><g id="Group-10" data-name="Group"><rect id="Rectangle-1-19" data-name="Rectangle-1" class="cls-1" x="95" y="995.41" width="32" height="64"/><rect id="Rectangle-1-20" data-name="Rectangle-1" class="cls-1" x="95" y="931.41" width="32" height="64"/><g id="a-10" data-name="a" class="cls-2"><text class="cls-3" transform="translate(107.18 966.41)">a</text></g><g id="b-10" data-name="b" class="cls-2"><text class="cls-3" transform="translate(107.42 1030.41)">b</text></g><g id="_30" data-name="30" class="cls-2"><text class="cls-4" transform="translate(101.5 926.41)">30</text></g></g><g id="Group-11" data-name="Group"><rect id="Rectangle-1-21" data-name="Rectangle-1" class="cls-1" x="49" y="995.41" width="32" height="64"/><rect id="Rectangle-1-22" data-name="Rectangle-1" class="cls-1" x="49" y="931.41" width="32" height="64"/><g id="a-11" data-name="a" class="cls-2"><text class="cls-3" transform="translate(61.18 966.41)">a</text></g><g id="b-11" data-name="b" class="cls-2"><text class="cls-3" transform="translate(61.42 1030.41)">b</text></g><g id="_29" data-name="29" class="cls-2"><text class="cls-4" transform="translate(56 926.41)">29</text></g></g><g id="Group-12" data-name="Group"><rect id="Rectangle-1-23" data-name="Rectangle-1" class="cls-1" x="187" y="995.41" width="32" height="64"/><rect id="Rectangle-1-24" data-name="Rectangle-1" class="cls-1" x="187" y="931.41" width="32" height="64"/><g id="a-12" data-name="a" class="cls-2"><text class="cls-3" transform="translate(199.18 966.41)">a</text></g><g id="b-12" data-name="b" class="cls-2"><text class="cls-3" transform="translate(199.42 1030.41)">b</text></g><g id="_32" data-name="32" class="cls-2"><text class="cls-4" transform="translate(194 926.41)">32</text></g></g></g><g id="Group-9-2" data-name="Group-9"><g id="Group-13" data-name="Group"><rect id="Rectangle-1-25" data-name="Rectangle-1" class="cls-1" x="349" y="995.41" width="32" height="64"/><rect id="Rectangle-1-26" data-name="Rectangle-1" class="cls-1" x="349" y="931.41" width="32" height="64"/><g id="a-13" data-name="a" class="cls-2"><text class="cls-3" transform="translate(361.18 966.41)">a</text></g><g id="b-13" data-name="b" class="cls-2"><text class="cls-3" transform="translate(361.42 1030.41)">b</text></g><g id="_34" data-name="34" class="cls-2"><text class="cls-4" transform="translate(355.5 926.41)">34</text></g></g><g id="Group-14" data-name="Group"><rect id="Rectangle-1-27" data-name="Rectangle-1" class="cls-1" x="441" y="995.41" width="32" height="64"/><rect id="Rectangle-1-28" data-name="Rectangle-1" class="cls-1" x="441" y="931.41" width="32" height="64"/><g id="a-14" data-name="a" class="cls-2"><text class="cls-3" transform="translate(453.18 966.41)">a</text></g><g id="b-14" data-name="b" class="cls-2"><text class="cls-3" transform="translate(453.42 1030.41)">b</text></g><g id="_36" data-name="36" class="cls-2"><text class="cls-4" transform="translate(448 926.41)">36</text></g></g><g id="Group-15" data-name="Group"><rect id="Rectangle-1-29" data-name="Rectangle-1" class="cls-1" x="395" y="995.41" width="32" height="64"/><rect id="Rectangle-1-30" data-name="Rectangle-1" class="cls-1" x="395" y="931.41" width="32" height="64"/><g id="a-15" data-name="a" class="cls-2"><text class="cls-3" transform="translate(407.18 966.41)">a</text></g><g id="b-15" data-name="b" class="cls-2"><text class="cls-3" transform="translate(407.42 1030.41)">b</text></g><g id="_35" data-name="35" class="cls-2"><text class="cls-4" transform="translate(402 926.41)">35</text></g></g><g id="Group-16" data-name="Group"><rect id="Rectangle-1-31" data-name="Rectangle-1" class="cls-1" x="303" y="995.41" width="32" height="64"/><rect id="Rectangle-1-32" data-name="Rectangle-1" class="cls-1" x="303" y="931.41" width="32" height="64"/><g id="a-16" data-name="a" class="cls-2"><text class="cls-3" transform="translate(315.18 966.41)">a</text></g><g id="b-16" data-name="b" class="cls-2"><text class="cls-3" transform="translate(315.42 1030.41)">b</text></g><g id="_33" data-name="33" class="cls-2"><text class="cls-4" transform="translate(310 926.41)">33</text></g></g></g><g id="Group-17" data-name="Group"><rect id="Rectangle-1-33" data-name="Rectangle-1" class="cls-1" x="349" y="836.41" width="32" height="64"/><rect id="Rectangle-1-34" data-name="Rectangle-1" class="cls-1" x="349" y="772.41" width="32" height="64"/><g id="a-17" data-name="a" class="cls-2"><text class="cls-3" transform="translate(361.18 807.41)">a</text></g><g id="b-17" data-name="b" class="cls-2"><text class="cls-3" transform="translate(361.42 871.41)">b</text></g><g id="_26" data-name="26" class="cls-2"><text class="cls-4" transform="translate(356 767.41)">26</text></g></g><g id="Group-7-2" data-name="Group-7"><g id="Group-18" data-name="Group"><rect id="Rectangle-1-35" data-name="Rectangle-1" class="cls-1" x="141" y="836.41" width="32" height="64"/><rect id="Rectangle-1-36" data-name="Rectangle-1" class="cls-1" x="141" y="772.41" width="32" height="64"/><g id="a-18" data-name="a" class="cls-2"><text class="cls-3" transform="translate(153.18 807.41)">a</text></g><g id="b-18" data-name="b" class="cls-2"><text class="cls-3" transform="translate(153.42 871.41)">b</text></g><g id="_23" data-name="23" class="cls-2"><text class="cls-4" transform="translate(148 767.41)">23</text></g></g><g id="Group-19" data-name="Group"><rect id="Rectangle-1-37" data-name="Rectangle-1" class="cls-1" x="95" y="836.41" width="32" height="64"/><rect id="Rectangle-1-38" data-name="Rectangle-1" class="cls-1" x="95" y="772.41" width="32" height="64"/><g id="a-19" data-name="a" class="cls-2"><text class="cls-3" transform="translate(107.18 807.41)">a</text></g><g id="b-19" data-name="b" class="cls-2"><text class="cls-3" transform="translate(107.42 871.41)">b</text></g><g id="_22" data-name="22" class="cls-2"><text class="cls-4" transform="translate(102 767.41)">22</text></g></g><g id="Group-20" data-name="Group"><rect id="Rectangle-1-39" data-name="Rectangle-1" class="cls-1" x="49" y="836.41" width="32" height="64"/><rect id="Rectangle-1-40" data-name="Rectangle-1" class="cls-1" x="49" y="772.41" width="32" height="64"/><g id="a-20" data-name="a" class="cls-2"><text class="cls-3" transform="translate(61.18 807.41)">a</text></g><g id="b-20" data-name="b" class="cls-2"><text class="cls-3" transform="translate(61.42 871.41)">b</text></g><g id="_21" data-name="21" class="cls-2"><text class="cls-4" transform="translate(55.5 767.41)">21</text></g></g><g id="Group-21" data-name="Group"><rect id="Rectangle-1-41" data-name="Rectangle-1" class="cls-1" x="187" y="836.41" width="32" height="64"/><rect id="Rectangle-1-42" data-name="Rectangle-1" class="cls-1" x="187" y="772.41" width="32" height="64"/><g id="a-21" data-name="a" class="cls-2"><text class="cls-3" transform="translate(199.18 807.41)">a</text></g><g id="b-21" data-name="b" class="cls-2"><text class="cls-3" transform="translate(199.42 871.41)">b</text></g><g id="_24" data-name="24" class="cls-2"><text class="cls-4" transform="translate(193.5 767.41)">24</text></g></g></g><g id="Group-22" data-name="Group"><rect id="Rectangle-1-43" data-name="Rectangle-1" class="cls-1" x="441" y="836.41" width="32" height="64"/><rect id="Rectangle-1-44" data-name="Rectangle-1" class="cls-1" x="441" y="772.41" width="32" height="64"/><g id="a-22" data-name="a" class="cls-2"><text class="cls-3" transform="translate(453.18 807.41)">a</text></g><g id="b-22" data-name="b" class="cls-2"><text class="cls-3" transform="translate(453.42 871.41)">b</text></g><g id="_28" data-name="28" class="cls-2"><text class="cls-4" transform="translate(448 767.41)">28</text></g></g><g id="Group-23" data-name="Group"><rect id="Rectangle-1-45" data-name="Rectangle-1" class="cls-1" x="395" y="836.41" width="32" height="64"/><rect id="Rectangle-1-46" data-name="Rectangle-1" class="cls-1" x="395" y="772.41" width="32" height="64"/><g id="a-23" data-name="a" class="cls-2"><text class="cls-3" transform="translate(407.18 807.41)">a</text></g><g id="b-23" data-name="b" class="cls-2"><text class="cls-3" transform="translate(407.42 871.41)">b</text></g><g id="_27" data-name="27" class="cls-2"><text class="cls-4" transform="translate(401.5 767.41)">27</text></g></g><g id="Group-24" data-name="Group"><rect id="Rectangle-1-47" data-name="Rectangle-1" class="cls-1" x="303" y="836.41" width="32" height="64"/><rect id="Rectangle-1-48" data-name="Rectangle-1" class="cls-1" x="303" y="772.41" width="32" height="64"/><g id="a-24" data-name="a" class="cls-2"><text class="cls-3" transform="translate(315.18 807.41)">a</text></g><g id="b-24" data-name="b" class="cls-2"><text class="cls-3" transform="translate(315.42 871.41)">b</text></g><g id="_25" data-name="25" class="cls-2"><text class="cls-4" transform="translate(310 767.41)">25</text></g></g><g id="Group-2-2" data-name="Group-2"><g id="Group-25" data-name="Group"><rect id="Rectangle-1-49" data-name="Rectangle-1" class="cls-1" x="49" y="243.41" width="32" height="64"/><rect id="Rectangle-1-50" data-name="Rectangle-1" class="cls-1" x="49" y="179.41" width="32" height="64"/><rect id="Rectangle-1-51" data-name="Rectangle-1" class="cls-1" x="49" y="307.41" width="32" height="64"/><g id="a-25" data-name="a" class="cls-2"><text class="cls-3" transform="translate(61.18 214.41)">a</text></g><g id="b-25" data-name="b" class="cls-2"><text class="cls-3" transform="translate(61.42 278.41)">b</text></g><g id="c" class="cls-2"><text class="cls-3" transform="translate(61.43 342.41)">c</text></g><g id="_1" data-name="1" class="cls-2"><text class="cls-4" transform="translate(60.5 174.41)">1</text></g></g><g id="Group-26" data-name="Group"><rect id="Rectangle-1-52" data-name="Rectangle-1" class="cls-1" x="95" y="243.41" width="32" height="64"/><rect id="Rectangle-1-53" data-name="Rectangle-1" class="cls-1" x="95" y="179.41" width="32" height="64"/><rect id="Rectangle-1-54" data-name="Rectangle-1" class="cls-1" x="95" y="307.41" width="32" height="64"/><g id="a-26" data-name="a" class="cls-2"><text class="cls-3" transform="translate(107.18 214.41)">a</text></g><g id="b-26" data-name="b" class="cls-2"><text class="cls-3" transform="translate(107.42 278.41)">b</text></g><g id="c-2" data-name="c" class="cls-2"><text class="cls-3" transform="translate(107.43 342.41)">c</text></g><g id="_2" data-name="2" class="cls-2"><text class="cls-4" transform="translate(106.5 174.41)">2</text></g></g><g id="Group-27" data-name="Group"><rect id="Rectangle-1-55" data-name="Rectangle-1" class="cls-1" x="141" y="307.41" width="32" height="64"/><rect id="Rectangle-1-56" data-name="Rectangle-1" class="cls-1" x="141" y="243.41" width="32" height="64"/><g id="a-27" data-name="a" class="cls-2"><text class="cls-3" transform="translate(153.18 278.41)">a</text></g><g id="b-27" data-name="b" class="cls-2"><text class="cls-3" transform="translate(153.42 342.41)">b</text></g><g id="_3" data-name="3" class="cls-2"><text class="cls-4" transform="translate(152.5 238.41)">3</text></g></g><g id="Group-28" data-name="Group"><rect id="Rectangle-1-57" data-name="Rectangle-1" class="cls-1" x="187" y="307.41" width="32" height="64"/><rect id="Rectangle-1-58" data-name="Rectangle-1" class="cls-1" x="187" y="243.41" width="32" height="64"/><g id="a-28" data-name="a" class="cls-2"><text class="cls-3" transform="translate(199.18 278.41)">a</text></g><g id="b-28" data-name="b" class="cls-2"><text class="cls-3" transform="translate(199.42 342.41)">b</text></g><g id="_4" data-name="4" class="cls-2"><text class="cls-4" transform="translate(198.5 238.41)">4</text></g></g></g><g id="Group-6-2" data-name="Group-6"><g id="Group-29" data-name="Group"><rect id="Rectangle-1-59" data-name="Rectangle-1" class="cls-1" x="349" y="674.41" width="32" height="64"/><rect id="Rectangle-1-60" data-name="Rectangle-1" class="cls-1" x="349" y="610.41" width="32" height="64"/><g id="a-29" data-name="a" class="cls-2"><text class="cls-3" transform="translate(361.18 645.41)">a</text></g><g id="b-29" data-name="b" class="cls-2"><text class="cls-3" transform="translate(361.42 709.41)">b</text></g><g id="_18" data-name="18" class="cls-2"><text class="cls-4" transform="translate(355.5 605.41)">18</text></g></g><g id="Group-30" data-name="Group"><rect id="Rectangle-1-61" data-name="Rectangle-1" class="cls-1" x="441" y="674.41" width="32" height="64"/><rect id="Rectangle-1-62" data-name="Rectangle-1" class="cls-1" x="441" y="610.41" width="32" height="64"/><g id="a-30" data-name="a" class="cls-2"><text class="cls-3" transform="translate(453.18 645.41)">a</text></g><g id="b-30" data-name="b" class="cls-2"><text class="cls-3" transform="translate(453.42 709.41)">b</text></g><g id="_20" data-name="20" class="cls-2"><text class="cls-4" transform="translate(447.5 605.41)">20</text></g></g><g id="Group-31" data-name="Group"><rect id="Rectangle-1-63" data-name="Rectangle-1" class="cls-1" x="395" y="674.41" width="32" height="64"/><rect id="Rectangle-1-64" data-name="Rectangle-1" class="cls-1" x="395" y="610.41" width="32" height="64"/><g id="a-31" data-name="a" class="cls-2"><text class="cls-3" transform="translate(407.18 645.41)">a</text></g><g id="b-31" data-name="b" class="cls-2"><text class="cls-3" transform="translate(407.42 709.41)">b</text></g><g id="_19" data-name="19" class="cls-2"><text class="cls-4" transform="translate(401.5 605.41)">19</text></g></g><g id="Group-32" data-name="Group"><rect id="Rectangle-1-65" data-name="Rectangle-1" class="cls-1" x="303" y="674.41" width="32" height="64"/><rect id="Rectangle-1-66" data-name="Rectangle-1" class="cls-1" x="303" y="610.41" width="32" height="64"/><g id="a-32" data-name="a" class="cls-2"><text class="cls-3" transform="translate(315.18 645.41)">a</text></g><g id="b-32" data-name="b" class="cls-2"><text class="cls-3" transform="translate(315.42 709.41)">b</text></g><g id="_17" data-name="17" class="cls-2"><text class="cls-4" transform="translate(309.5 605.41)">17</text></g></g></g><g id="Group-3-2" data-name="Group-3"><g id="Group-33" data-name="Group"><rect id="Rectangle-1-67" data-name="Rectangle-1" class="cls-1" x="303" y="306.41" width="32" height="64"/><rect id="Rectangle-1-68" data-name="Rectangle-1" class="cls-1" x="303" y="242.41" width="32" height="64"/><rect id="Rectangle-1-69" data-name="Rectangle-1" class="cls-1" x="303" y="370.41" width="32" height="64"/><rect id="Rectangle-1-70" data-name="Rectangle-1" class="cls-1" x="303" y="434.41" width="32" height="64"/><g id="d" class="cls-2"><text class="cls-3" transform="translate(314.92 469.41)">d</text></g><g id="c-3" data-name="c" class="cls-2"><text class="cls-3" transform="translate(315.43 405.41)">c</text></g><g id="a-33" data-name="a" class="cls-2"><text class="cls-3" transform="translate(315.18 277.41)">a</text></g><g id="b-33" data-name="b" class="cls-2"><text class="cls-3" transform="translate(315.42 341.41)">b</text></g><g id="_5" data-name="5" class="cls-2"><text class="cls-4" transform="translate(314.5 238.41)">5</text></g></g><g id="Group-34" data-name="Group"><rect id="Rectangle-1-71" data-name="Rectangle-1" class="cls-1" x="349" y="306.41" width="32" height="64"/><rect id="Rectangle-1-72" data-name="Rectangle-1" class="cls-1" x="349" y="242.41" width="32" height="64"/><rect id="Rectangle-1-73" data-name="Rectangle-1" class="cls-1" x="349" y="370.41" width="32" height="64"/><rect id="Rectangle-1-74" data-name="Rectangle-1" class="cls-1" x="349" y="434.41" width="32" height="64"/><g id="d-2" data-name="d" class="cls-2"><text class="cls-3" transform="translate(360.92 469.41)">d</text></g><g id="c-4" data-name="c" class="cls-2"><text class="cls-3" transform="translate(361.43 405.41)">c</text></g><g id="a-34" data-name="a" class="cls-2"><text class="cls-3" transform="translate(361.18 277.41)">a</text></g><g id="b-34" data-name="b" class="cls-2"><text class="cls-3" transform="translate(361.42 341.41)">b</text></g><g id="_6" data-name="6" class="cls-2"><text class="cls-4" transform="translate(360.5 238.41)">6</text></g></g><g id="Group-35" data-name="Group"><rect id="Rectangle-1-75" data-name="Rectangle-1" class="cls-1" x="395" y="242.41" width="32" height="64"/><rect id="Rectangle-1-76" data-name="Rectangle-1" class="cls-1" x="395" y="178.41" width="32" height="64"/><rect id="Rectangle-1-77" data-name="Rectangle-1" class="cls-1" x="395" y="306.41" width="32" height="64"/><rect id="Rectangle-1-78" data-name="Rectangle-1" class="cls-1" x="395" y="370.41" width="32" height="64"/><rect id="Rectangle-1-79" data-name="Rectangle-1" class="cls-1" x="395" y="434.41" width="32" height="64"/><g id="d-3" data-name="d" class="cls-2"><text class="cls-3" transform="translate(406.92 405.41)">d</text></g><g id="c-5" data-name="c" class="cls-2"><text class="cls-3" transform="translate(407.43 341.41)">c</text></g><g id="a-35" data-name="a" class="cls-2"><text class="cls-3" transform="translate(407.18 213.41)">a</text></g><g id="b-35" data-name="b" class="cls-2"><text class="cls-3" transform="translate(407.42 277.41)">b</text></g><g id="e" class="cls-2"><text class="cls-3" transform="translate(407.2 469.41)">e</text></g><g id="_7" data-name="7" class="cls-2"><text class="cls-4" transform="translate(406.5 175.41)">7</text></g></g><g id="Group-36" data-name="Group"><rect id="Rectangle-1-80" data-name="Rectangle-1" class="cls-1" x="441" y="242.41" width="32" height="64"/><rect id="Rectangle-1-81" data-name="Rectangle-1" class="cls-1" x="441" y="178.41" width="32" height="64"/><rect id="Rectangle-1-82" data-name="Rectangle-1" class="cls-1" x="441" y="306.41" width="32" height="64"/><rect id="Rectangle-1-83" data-name="Rectangle-1" class="cls-1" x="441" y="370.41" width="32" height="64"/><rect id="Rectangle-1-84" data-name="Rectangle-1" class="cls-1" x="441" y="434.41" width="32" height="64"/><g id="d-4" data-name="d" class="cls-2"><text class="cls-3" transform="translate(452.92 405.41)">d</text></g><g id="c-6" data-name="c" class="cls-2"><text class="cls-3" transform="translate(453.43 341.41)">c</text></g><g id="a-36" data-name="a" class="cls-2"><text class="cls-3" transform="translate(453.18 213.41)">a</text></g><g id="b-36" data-name="b" class="cls-2"><text class="cls-3" transform="translate(453.42 277.41)">b</text></g><g id="e-2" data-name="e" class="cls-2"><text class="cls-3" transform="translate(453.2 469.41)">e</text></g><g id="_8" data-name="8" class="cls-2"><text class="cls-4" transform="translate(452.5 174.41)">8</text></g></g></g><rect id="Rectangle-85" class="cls-1" x="194" y="147.41" width="128" height="32"/><g id="Hardware-Rentals" class="cls-2"><text class="cls-3" transform="translate(201.47 167.41)">Ha<tspan x="17.12" y="0">r</tspan><tspan x="22.59" y="0">dwa</tspan><tspan x="48.78" y="0">r</tspan><tspan x="54.25" y="0">e Ren</tspan><tspan x="89.77" y="0">t</tspan><tspan x="94.85" y="0">als</tspan></text></g><g id="Entrance-to-Foyer" class="cls-2"><text class="cls-4" transform="translate(196 1101.41)">Ent<tspan x="24.02" y="0">r</tspan><tspan x="30.38" y="0">ance </tspan><tspan x="69.34" y="0">t</tspan><tspan x="74.98" y="0">o </tspan><tspan x="88.23" y="0">F</tspan><tspan x="96.64" y="0">o</tspan><tspan x="105.77" y="0">y</tspan><tspan x="113.92" y="0">er</tspan></text></g><g id="Main-Side-Exit" class="cls-2"><text class="cls-8" transform="translate(498 587.41)">Main</text><text class="cls-9" transform="translate(532.91 587.41)"> </text><text class="cls-8" transform="translate(499.58 607.41)">Side</text><text class="cls-9" transform="translate(531.32 607.41)"> </text><text class="cls-8" transform="translate(501.95 627.41)">Exit</text></g><rect id="Rectangle-87" class="cls-10" x="140" y="114.41" width="32" height="15"/><rect id="Rectangle-87-2" data-name="Rectangle-87" class="cls-10" x="349" y="114.41" width="32" height="15"/><rect id="Rectangle-89" class="cls-11" x="425" y="24.41" width="36" height="7"/><g id="Hardware-Lab" class="cls-2"><text class="cls-4" transform="translate(392 13.41)">Ha<tspan x="19.56" y="0">r</tspan><tspan x="25.81" y="0">dwa</tspan><tspan x="55.75" y="0">r</tspan><tspan x="62" y="0">e Lab</tspan></text></g></g></g></svg>