<svg viewBox="0 0 1024 1182" fill="none" xmlns="http://www.w3.org/2000/svg" preserveAspectRatio="xMinYMin">
  <g clip-path="url(#clip0)">
    <path fill-rule="evenodd" clip-rule="evenodd" d="M512 0L1024 295.603V886.81L512 1182.41L0 886.81V295.603L512 0Z" fill="#0092DB"/>
    <g style="mix-blend-mode:overlay" opacity="0.4" clip-path="url(#clip1)">
      <path fill-rule="evenodd" clip-rule="evenodd" d="M512 0L1024 295.603V886.81L512 591.207V0Z" fill="white"/>
      <path fill-rule="evenodd" clip-rule="evenodd" d="M1024 886.81L512 1182.41L0 886.81L512 591.207L1024 886.81Z" fill="black"/>
      <path d="M0 295.603L512 0V591.207L0 886.81V295.603Z" fill="#808080"/>
    </g>
    <g style="mix-blend-mode:overlay" opacity="0.4" clip-path="url(#clip2)">
      <path fill-rule="evenodd" clip-rule="evenodd" d="M512 1182.41L0 886.81V295.603L512 591.207V1182.41Z" fill="black"/>
      <path fill-rule="evenodd" clip-rule="evenodd" d="M0 295.603L512 0L1024 295.603L512 591.207L0 295.603Z" fill="white"/>
      <path d="M1024 886.81V295.603L512 591.207V1182.41L1024 886.81Z" fill="#808080"/>
    </g>
    <g style="mix-blend-mode:color">
      <path fill-rule="evenodd" clip-rule="evenodd" d="M512 295.603L768 443.405V739.008L512 886.81L256 739.008V443.405L512 295.603Z" fill="#FF1700"/>
    </g>
    <g style="mix-blend-mode:lighten" opacity="0.28">
      <path d="M768 443.405V739.008L512 591.207V295.603L768 443.405Z" fill="white"/>
      <path fill-rule="evenodd" clip-rule="evenodd" d="M512 295.603L256 443.405V739.008L512 591.207V295.603Z" fill="#808080"/>
      <path fill-rule="evenodd" clip-rule="evenodd" d="M768 739.008L512 886.81L256 739.008L512 591.207L768 739.008Z" fill="black"/>
    </g>
    <g style="mix-blend-mode:lighten" opacity="0.28">
      <path fill-rule="evenodd" clip-rule="evenodd" d="M512 886.81L256 739.008V443.405L512 591.207V886.81Z" fill="black"/>
      <path d="M768 739.008V443.405L512 591.207V886.81L768 739.008Z" fill="#808080"/>
      <path fill-rule="evenodd" clip-rule="evenodd" d="M256 443.405L512 295.603L768 443.405L512 591.207L256 443.405Z" fill="white"/>
    </g>
  </g>
  <defs>
    <clipPath id="clip0">
      <rect width="1024" height="1182" fill="white"/>
    </clipPath>
    <clipPath id="clip1">
      <rect width="1024" height="1182" fill="white"/>
    </clipPath>
    <clipPath id="clip2">
      <rect width="1024" height="1182" fill="white"/>
    </clipPath>
  </defs>
</svg>
