<svg id="Layer_1" data-name="Layer 1" xmlns="http://www.w3.org/2000/svg" viewBox="0 0 989.9745 648.104"><defs><style>.cls-1{fill:#1a1a1a;}.cls-2,.cls-20,.cls-21,.cls-22,.cls-23,.cls-43,.cls-9{fill:none;stroke-miterlimit:10;}.cls-2{stroke:#e9bfba;stroke-linecap:square;}.cls-2,.cls-9{stroke-width:3px;}.cls-3{fill:#4d4d4d;}.cls-4{fill:#666;}.cls-5{fill:#694580;}.cls-25,.cls-51,.cls-6{fill:#e95242;}.cls-7{fill:#e9bfba;}.cls-8{fill:#2e6142;}.cls-20,.cls-43,.cls-9{stroke:#fff;}.cls-10{opacity:0.5;}.cls-11,.cls-39,.cls-42,.cls-49{font-size:12.1908px;}.cls-11,.cls-14,.cls-19,.cls-27,.cls-30,.cls-39,.cls-42,.cls-47,.cls-49,.cls-54{fill:#fff;}.cls-11,.cls-14,.cls-25,.cls-27,.cls-30,.cls-39,.cls-42,.cls-47,.cls-49,.cls-50,.cls-52{font-family:Effra-Medium, Effra;}.cls-11{letter-spacing:0.155em;}.cls-12{letter-spacing:0.145em;}.cls-13,.cls-42{letter-spacing:0.2em;}.cls-14,.cls-47{font-size:12.1908px;}.cls-15{letter-spacing:-0.01em;}.cls-16{letter-spacing:-0.01em;}.cls-17{letter-spacing:-0.0001em;}.cls-18{letter-spacing:-0.0099em;}.cls-20{stroke-width:1.2191px;}.cls-21{stroke:#333;stroke-width:21.9434px;}.cls-22,.cls-23{stroke:#29abe2;}.cls-23{stroke-dasharray:4.8721 4.8721;}.cls-24{fill:#29abe2;}.cls-25{font-size:16px;letter-spacing:0.2em;}.cls-26,.cls-30{opacity:0.7;}.cls-27,.cls-30{font-size:11px;}.cls-28{letter-spacing:-0.035em;}.cls-29{letter-spacing:-0.01em;}.cls-31{letter-spacing:-0.01em;}.cls-32{letter-spacing:-0.03em;}.cls-33{letter-spacing:-0.015em;}.cls-34{letter-spacing:-0.02em;}.cls-35{letter-spacing:-0.0249em;}.cls-36{letter-spacing:-0.06em;}.cls-37{letter-spacing:-0.0199em;}.cls-38{letter-spacing:-0.015em;}.cls-39,.cls-49{opacity:0.6;}.cls-39{letter-spacing:0.215em;}.cls-40{letter-spacing:0.19em;}.cls-41,.cls-49{letter-spacing:0.2em;}.cls-44{letter-spacing:0.182em;}.cls-45{letter-spacing:0.2em;}.cls-46{letter-spacing:0.165em;}.cls-47{letter-spacing:-0.04em;}.cls-48{letter-spacing:0em;}.cls-50{font-size:8px;fill:#333;}.cls-51,.cls-52{font-size:9px;}.cls-51{font-family:Effra-Bold, Effra;font-weight:700;}.cls-53{letter-spacing:-0.0101em;}.cls-54{font-size:14px;font-family:Effra-Regular, Effra;}.cls-55{letter-spacing:-0.01em;}.cls-56{letter-spacing:-0.005em;}.cls-57{letter-spacing:-0.0001em;}.cls-58{letter-spacing:-0.03em;}</style></defs><title>recurse-map</title><rect class="cls-1" width="989.9745" height="648.104"/><line class="cls-2" x1="663.287" y1="405.5938" x2="684.8847" y2="318.046"/><rect class="cls-3" x="493.2042" y="186.6696" width="439.1665" height="131.3764"/><polygon class="cls-3" points="903.605 374.401 730.783 374.401 730.783 318.046 921.281 318.046 903.605 374.401"/><rect class="cls-4" x="493.2042" y="237.5765" width="72.2778" height="29.5627"/><rect class="cls-5" x="565.4821" y="186.6696" width="97.8049" height="131.3764"/><rect class="cls-6" x="663.7871" y="187.1694" width="214.5078" height="130.3765"/><path class="cls-7" d="M877.795,187.67V317.046H664.287V187.67H877.795m1-1H663.287V318.046H878.795V186.67Z"/><rect class="cls-4" x="878.795" y="186.6696" width="24.2625" height="131.3764"/><rect class="cls-8" x="878.795" y="318.046" width="24.2625" height="56.3546"/><rect class="cls-8" x="730.3425" y="318.046" width="42.9664" height="56.3546"/><line class="cls-9" x1="493.2042" y1="246.8108" x2="493.2042" y2="257.9048"/><line class="cls-9" x1="565.4821" y1="246.8108" x2="565.4821" y2="257.9048"/><line class="cls-9" x1="663.287" y1="246.8108" x2="663.287" y2="257.9048"/><line class="cls-9" x1="746.2786" y1="318.046" x2="757.3727" y2="318.046"/><line class="cls-9" x1="884.7641" y1="318.046" x2="895.8581" y2="318.046"/><g class="cls-10"><text class="cls-11" transform="translate(609.8753 311.1612)">F<tspan class="cls-12" x="8.3994" y="0">O</tspan><tspan class="cls-13" x="19.7002" y="0">YER</tspan></text></g><text class="cls-14" transform="translate(496.1726 220.147)"><tspan class="cls-15">R</tspan><tspan x="7.022" y="0">egist</tspan><tspan class="cls-16" x="34.0483" y="0">r</tspan><tspan class="cls-17" x="38.5835" y="0">ation</tspan></text><text class="cls-14" transform="translate(807.4736 369.2831)"><tspan class="cls-18">S</tspan><tspan x="7.1074" y="0">oldering</tspan></text><path class="cls-19" d="M587.234,192.3094a.8334.8334,0,1,1-.8334-.8334A.8333.8333,0,0,1,587.234,192.3094Z"/><path class="cls-19" d="M592.2341,192.3094a.8334.8334,0,1,1-.8334-.8334A.8333.8333,0,0,1,592.2341,192.3094Z"/><path class="cls-19" d="M587.234,193.6983h-1.6667a.5554.5554,0,0,0-.5556.5556v2.7778h.5556v3.3334h.6945v-3.3334h.2778v3.3334h.6945v-3.3334h.5556v-2.7778A.5554.5554,0,0,0,587.234,193.6983Z"/><path class="cls-19" d="M593.4755,195.9206l.4253-.3081-1.157-1.7892a.2778.2778,0,0,0-.232-.125H590.29a.2778.2778,0,0,0-.2319.125l-1.157,1.7892.4253.3081.9606-1.2464.3339.7789-1.1642,2.1342h1.0647l.1853,2.7778h.5556v-2.7778h.2778v2.7778h.5556l.1853-2.7778h1.0647l-1.1642-2.1342.3339-.7789Z"/><polyline class="cls-20" points="580.955 192.223 577.749 192.223 577.749 195.429 574.544 195.429 574.544 198.635 571.338 198.635 571.338 201.84"/><path class="cls-19" d="M587.234,303.1052a.8334.8334,0,1,1-.8334-.8334A.8333.8333,0,0,1,587.234,303.1052Z"/><path class="cls-19" d="M592.2341,303.1052a.8334.8334,0,1,1-.8334-.8334A.8333.8333,0,0,1,592.2341,303.1052Z"/><path class="cls-19" d="M587.234,304.4941h-1.6667a.5554.5554,0,0,0-.5556.5556v2.7778h.5556v3.3334h.6945v-3.3334h.2778v3.3334h.6945v-3.3334h.5556V305.05A.5554.5554,0,0,0,587.234,304.4941Z"/><path class="cls-19" d="M593.4755,306.7164l.4253-.3081-1.157-1.7892a.2778.2778,0,0,0-.232-.125H590.29a.2778.2778,0,0,0-.2319.125l-1.157,1.7892.4253.3081.9606-1.2464.3339.7789-1.1642,2.1342h1.0647l.1853,2.7778h.5556v-2.7778h.2778v2.7778h.5556l.1853-2.7778h1.0647l-1.1642-2.1342.3339-.7789Z"/><polyline class="cls-20" points="580.955 303.019 577.749 303.019 577.749 306.225 574.544 306.225 574.544 309.43 571.338 309.43 571.338 312.636"/><path class="cls-19" d="M748.5009,361.2273a.8334.8334,0,1,1-.8334-.8334A.8333.8333,0,0,1,748.5009,361.2273Z"/><path class="cls-19" d="M753.501,361.2273a.8334.8334,0,1,1-.8334-.8334A.8333.8333,0,0,1,753.501,361.2273Z"/><path class="cls-19" d="M748.5009,362.6162h-1.6667a.5554.5554,0,0,0-.5556.5556V365.95h.5556v3.3334h.6945V365.95h.2778v3.3334h.6945V365.95h.5556v-2.7778A.5554.5554,0,0,0,748.5009,362.6162Z"/><path class="cls-19" d="M754.7425,364.8385l.4253-.3081-1.157-1.7892a.2778.2778,0,0,0-.232-.125h-2.2223a.2778.2778,0,0,0-.232.125l-1.157,1.7892.4253.3081.9606-1.2464.3339.7789-1.1642,2.1342h1.0647l.1853,2.7778h.5556v-2.7778h.2778v2.7778h.5556l.1853-2.7778h1.0647l-1.1642-2.1342.3339-.7789Z"/><path class="cls-3" d="M366.3664,121v39.2965h45.0826L438.776,359.8083l-321.5142.0137H39.3572L84.2723,169.8128V78.4719h246.636C355.53,78.4719,366.3664,98.7066,366.3664,121Z"/><rect class="cls-4" x="84.2723" y="78.4719" width="42.5805" height="77.3904"/><rect class="cls-5" x="127.0103" y="78.4719" width="187.3892" height="77.3904"/><rect class="cls-4" x="206.8969" y="127.5871" width="20.793" height="77.3435" transform="translate(51.0345 383.5523) rotate(-90)"/><rect class="cls-6" x="127.3689" y="176.4959" width="244.1029" height="165.4947"/><path class="cls-21" d="M452.6787,549.8148s22.4076-75.2972,21.8553-228.37c-.27-74.9023-8.7041-154.5737-26.7234-199.9391C418.9283,48.7925,342.01,50.7871,267.2753,39.0275,121.87,16.1479,28.4493,22.863,28.4493,22.863"/><line class="cls-9" x1="84.2723" y1="111.0406" x2="84.2723" y2="122.1346"/><line class="cls-22" x1="487.4606" y1="251.8181" x2="485.1364" y2="251.0813"/><path class="cls-23" d="M480.4921,249.609l-17.5413-5.5609a10.757,10.757,0,0,1-7.4994-9.5636c-4.0162-64.55-20.7409-118.78-71.1292-145.075C314.399,52.9208,213.1516,48.6723,77.9887,43.5176A10.7978,10.7978,0,0,0,66.7724,54.1208l-.8541,51.4966a10.778,10.778,0,0,0,4.5384,8.9763"/><path class="cls-22" d="M72.5841,115.7718a10.71,10.71,0,0,0,2.3407.6693"/><circle class="cls-24" cx="487.371" cy="251.7897" r="1.8799" transform="translate(100.0707 640.2829) rotate(-72.4103)"/><circle class="cls-24" cx="74.8362" cy="116.414" r="1.8799" transform="translate(-47.9917 180.1791) rotate(-84.701)"/><text class="cls-25" transform="translate(39.3572 385.7048)">THE GUILDHALL</text><g class="cls-26"><text class="cls-27" transform="matrix(-0.0469, 0.9989, -0.9989, -0.0469, 470.0283, 357.4253)">Wheeler <tspan class="cls-28" x="42.2612" y="0">S</tspan><tspan x="48.3994" y="0">t</tspan><tspan class="cls-29" x="52.8213" y="0">r</tspan><tspan x="56.9131" y="0">eet</tspan></text></g><text class="cls-30" transform="translate(277.2457 44.1217) rotate(8.0863)">Guildhall <tspan class="cls-28" x="44.1426" y="0">S</tspan><tspan x="50.2803" y="0">t</tspan><tspan class="cls-31" x="54.7021" y="0">r</tspan><tspan x="58.7939" y="0">eet</tspan></text><g class="cls-26"><text class="cls-27" transform="translate(37.5163 26.2517) rotate(-1.4552)"><tspan class="cls-32">P</tspan><tspan x="5.8081" y="0">e</tspan><tspan class="cls-33" x="11.7261" y="0">tt</tspan><tspan x="20.2397" y="0">y Cury</tspan></text></g><line class="cls-9" x1="126.8528" y1="111.0406" x2="126.8528" y2="122.1346"/><line class="cls-9" x1="211.7464" y1="155.8624" x2="222.8404" y2="155.8624"/><line class="cls-9" x1="211.7464" y1="176.4959" x2="222.8404" y2="176.4959"/><text class="cls-14" transform="translate(222.363 252.3579)"><tspan class="cls-34">S</tspan><tspan x="6.9854" y="0">ponso</tspan><tspan class="cls-35" x="40.5337" y="0">r</tspan><tspan x="44.8862" y="0">s,</tspan><tspan class="cls-36" x="12.0503" y="14.6289">F</tspan><tspan x="17.8286" y="14.6289">ood,</tspan><tspan x="-11.4409" y="29.2578">Chillout </tspan><tspan class="cls-37" x="33.0913" y="29.2578">S</tspan><tspan x="40.0767" y="29.2578">pa</tspan><tspan class="cls-38" x="53.1812" y="29.2578">c</tspan><tspan x="58.9966" y="29.2578">e</tspan></text><text class="cls-39" transform="translate(271.5993 334.5951)">L<tspan class="cls-13" x="9.3623" y="0">A</tspan><tspan class="cls-40" x="19.6758" y="0">R</tspan><tspan class="cls-41" x="29.1357" y="0">GE HALL</tspan></text><text class="cls-14" transform="translate(582.1889 248.6211)">Imp<tspan class="cls-16" x="20.5898" y="0">r</tspan><tspan x="25.125" y="0">obabl</tspan><tspan class="cls-37" x="54.6748" y="0">e</tspan><tspan class="cls-17" x="60.9902" y="0">,</tspan><tspan class="cls-16" x="12.2573" y="14.6289">W</tspan><tspan x="22.8633" y="14.6289">affles</tspan></text><g class="cls-10"><text class="cls-42" transform="translate(794.3079 311.1615)">MAIN HALL</text></g><line class="cls-43" x1="863.8499" y1="366.4357" x2="882.6113" y2="366.4357"/><polygon class="cls-19" points="882.174 367.932 884.764 366.436 882.174 364.94 882.174 367.932"/><text class="cls-25" transform="translate(493.204 172.9821)">THE <tspan class="cls-44" x="46.3354" y="0">C</tspan><tspan class="cls-45" x="60.1279" y="0">ORN E</tspan><tspan class="cls-46" x="121.4072" y="0">X</tspan><tspan x="133.7275" y="0">CHANGE</tspan></text><text class="cls-47" transform="translate(187.0362 122.1347)">W<tspan class="cls-48" x="10.2402" y="0">orkshops</tspan></text><text class="cls-49" transform="translate(216.6218 148.6841)">SMALL HALL</text><rect class="cls-6" x="514.6436" y="406.5938" width="398.9883" height="208.2256"/><path class="cls-7" d="M912.6316,407.5938V613.82H515.6437V407.5938H912.6316m2-2H513.6437V615.82H914.6316V405.5938Z"/><rect class="cls-19" x="516.0503" y="556.1064" width="21.5309" height="10.7654" transform="translate(-34.6735 1088.3048) rotate(-90)"/><rect class="cls-19" x="516.0503" y="455.8718" width="21.5309" height="10.7654" transform="translate(65.5611 988.0702) rotate(-90)"/><rect class="cls-19" x="890.6118" y="505.324" width="21.5309" height="10.7654" transform="translate(390.6705 1412.0839) rotate(-90)"/><rect class="cls-19" x="563.7469" y="421.2484" width="21.5309" height="10.7654"/><text class="cls-50" transform="translate(579.0086 429.2974)">2</text><rect class="cls-19" x="539.7041" y="421.2484" width="21.5309" height="10.7654"/><text class="cls-51" transform="translate(541.1825 429.2976)">A</text><text class="cls-50" transform="translate(554.9658 429.2974)">1</text><rect class="cls-19" x="600.3628" y="421.2484" width="21.5309" height="10.7654"/><text class="cls-50" transform="translate(615.6245 429.2974)">3</text><rect class="cls-19" x="624.4056" y="421.2484" width="21.5309" height="10.7654"/><text class="cls-50" transform="translate(639.6673 429.2974)">4</text><rect class="cls-19" x="661.0215" y="421.2484" width="21.5309" height="10.7654"/><text class="cls-50" transform="translate(676.6422 429.2974)">5</text><rect class="cls-19" x="685.0643" y="421.2484" width="21.5309" height="10.7654"/><text class="cls-50" transform="translate(700.685 429.2974)">6</text><rect class="cls-19" x="721.6801" y="421.2484" width="21.5309" height="10.7654"/><text class="cls-50" transform="translate(736.9419 429.2974)">7</text><rect class="cls-19" x="745.7229" y="421.2484" width="21.5309" height="10.7654"/><text class="cls-50" transform="translate(761.1938 429.2974)">8</text><rect class="cls-19" x="782.3388" y="421.2484" width="21.5309" height="10.7654"/><text class="cls-50" transform="translate(797.6005 429.2974)">9</text><rect class="cls-19" x="806.3816" y="421.2484" width="21.5309" height="10.7654"/><text class="cls-50" transform="translate(817.2839 429.2974)">10</text><rect class="cls-19" x="842.9975" y="421.2484" width="21.5309" height="10.7654"/><text class="cls-50" transform="translate(853.8998 429.2974)">11</text><rect class="cls-19" x="867.0403" y="421.2484" width="21.5309" height="10.7654"/><text class="cls-50" transform="translate(877.9426 429.2974)">12</text><rect class="cls-19" x="563.7469" y="454.8787" width="21.5309" height="10.7654"/><text class="cls-50" transform="translate(579.0086 462.9276)">2</text><rect class="cls-19" x="539.7041" y="454.8787" width="21.5309" height="10.7654"/><text class="cls-51" transform="translate(541.4569 462.9278)">B</text><text class="cls-50" transform="translate(554.9658 462.9276)">1</text><rect class="cls-19" x="600.3628" y="454.8787" width="21.5309" height="10.7654"/><text class="cls-50" transform="translate(615.6245 462.9276)">3</text><rect class="cls-19" x="624.4056" y="454.8787" width="21.5309" height="10.7654"/><text class="cls-50" transform="translate(639.6673 462.9276)">4</text><rect class="cls-19" x="661.0215" y="454.8787" width="21.5309" height="10.7654"/><text class="cls-50" transform="translate(676.6422 462.9276)">5</text><rect class="cls-19" x="685.0643" y="454.8787" width="21.5309" height="10.7654"/><text class="cls-50" transform="translate(700.685 462.9276)">6</text><rect class="cls-19" x="721.6801" y="454.8787" width="21.5309" height="10.7654"/><text class="cls-50" transform="translate(736.9419 462.9276)">7</text><rect class="cls-19" x="745.7229" y="454.8787" width="21.5309" height="10.7654"/><text class="cls-50" transform="translate(761.1938 462.9276)">8</text><rect class="cls-19" x="782.3388" y="454.8787" width="21.5309" height="10.7654"/><text class="cls-50" transform="translate(797.6005 462.9276)">9</text><rect class="cls-19" x="806.3816" y="454.8787" width="21.5309" height="10.7654"/><text class="cls-50" transform="translate(817.2839 462.9276)">10</text><rect class="cls-19" x="842.9975" y="454.8787" width="21.5309" height="10.7654"/><text class="cls-50" transform="translate(853.8998 462.9276)">11</text><rect class="cls-19" x="867.0403" y="454.8787" width="21.5309" height="10.7654"/><text class="cls-50" transform="translate(877.9426 462.9276)">12</text><rect class="cls-19" x="624.4056" y="488.5089" width="21.5309" height="10.7654"/><text class="cls-50" transform="translate(639.6673 496.5579)">4</text><rect class="cls-19" x="600.3628" y="488.5089" width="21.5309" height="10.7654"/><text class="cls-51" transform="translate(601.8138 496.558)">C</text><text class="cls-50" transform="translate(615.6245 496.5579)">3</text><rect class="cls-19" x="661.0215" y="488.5089" width="21.5309" height="10.7654"/><text class="cls-50" transform="translate(676.6422 496.5579)">5</text><rect class="cls-19" x="685.0643" y="488.5089" width="21.5309" height="10.7654"/><text class="cls-50" transform="translate(700.685 496.5579)">6</text><rect class="cls-19" x="721.6801" y="488.5089" width="21.5309" height="10.7654"/><text class="cls-50" transform="translate(736.9419 496.5579)">7</text><rect class="cls-19" x="745.7229" y="488.5089" width="21.5309" height="10.7654"/><text class="cls-50" transform="translate(761.1938 496.5579)">8</text><rect class="cls-19" x="782.3388" y="488.5089" width="21.5309" height="10.7654"/><text class="cls-50" transform="translate(797.6005 496.5579)">9</text><rect class="cls-19" x="806.3816" y="488.5089" width="21.5309" height="10.7654"/><text class="cls-50" transform="translate(817.2839 496.5579)">10</text><rect class="cls-19" x="563.7469" y="555.7694" width="21.5309" height="10.7654"/><text class="cls-50" transform="translate(579.0086 563.8183)">2</text><rect class="cls-19" x="539.7041" y="555.7694" width="21.5309" height="10.7654"/><text class="cls-51" transform="translate(541.6092 563.8185)">E</text><text class="cls-50" transform="translate(554.9658 563.8183)">1</text><rect class="cls-19" x="600.3628" y="555.7694" width="21.5309" height="10.7654"/><text class="cls-50" transform="translate(615.6245 563.8183)">3</text><rect class="cls-19" x="624.4056" y="555.7694" width="21.5309" height="10.7654"/><text class="cls-50" transform="translate(639.6673 563.8183)">4</text><rect class="cls-19" x="661.0215" y="555.7694" width="21.5309" height="10.7654"/><text class="cls-50" transform="translate(676.6422 563.8183)">5</text><rect class="cls-19" x="685.0643" y="555.7694" width="21.5309" height="10.7654"/><text class="cls-50" transform="translate(700.685 563.8183)">6</text><rect class="cls-19" x="721.6801" y="555.7694" width="21.5309" height="10.7654"/><text class="cls-50" transform="translate(736.9419 563.8183)">7</text><rect class="cls-19" x="745.7229" y="555.7694" width="21.5309" height="10.7654"/><text class="cls-50" transform="translate(761.1938 563.8183)">8</text><rect class="cls-19" x="782.3388" y="555.7694" width="21.5309" height="10.7654"/><text class="cls-50" transform="translate(797.6005 563.8183)">9</text><rect class="cls-19" x="806.3816" y="555.7694" width="21.5309" height="10.7654"/><text class="cls-50" transform="translate(817.2839 563.8183)">10</text><rect class="cls-19" x="842.9975" y="555.7694" width="21.5309" height="10.7654"/><text class="cls-50" transform="translate(853.8998 563.8183)">11</text><rect class="cls-19" x="867.0403" y="555.7694" width="21.5309" height="10.7654"/><text class="cls-50" transform="translate(877.9426 563.8183)">12</text><rect class="cls-19" x="563.7469" y="589.3996" width="21.5309" height="10.7654"/><text class="cls-50" transform="translate(579.0086 597.4486)">2</text><rect class="cls-19" x="539.7041" y="589.3996" width="21.5309" height="10.7654"/><text class="cls-51" transform="translate(541.7938 597.4487)">F</text><text class="cls-50" transform="translate(554.9658 597.4486)">1</text><rect class="cls-19" x="600.3628" y="589.3996" width="21.5309" height="10.7654"/><text class="cls-50" transform="translate(615.6245 597.4486)">3</text><rect class="cls-19" x="624.4056" y="589.3996" width="21.5309" height="10.7654"/><text class="cls-52" transform="translate(639.1224 597.4486)">4</text><rect class="cls-19" x="661.0215" y="589.3996" width="21.5309" height="10.7654"/><text class="cls-50" transform="translate(676.6422 597.4486)">5</text><rect class="cls-19" x="685.0643" y="589.3996" width="21.5309" height="10.7654"/><text class="cls-50" transform="translate(700.685 597.4486)">6</text><rect class="cls-19" x="721.6801" y="589.3996" width="21.5309" height="10.7654"/><text class="cls-50" transform="translate(736.9419 597.4486)">7</text><rect class="cls-19" x="745.7229" y="589.3996" width="21.5309" height="10.7654"/><text class="cls-50" transform="translate(761.1938 597.4486)">8</text><rect class="cls-19" x="782.3388" y="589.3996" width="21.5309" height="10.7654"/><text class="cls-50" transform="translate(797.6005 597.4486)">9</text><rect class="cls-19" x="806.3816" y="589.3996" width="21.5309" height="10.7654"/><text class="cls-50" transform="translate(817.2839 597.4486)">10</text><rect class="cls-19" x="842.9975" y="589.3996" width="21.5309" height="10.7654"/><text class="cls-50" transform="translate(853.8998 597.4486)">11</text><rect class="cls-19" x="867.0403" y="589.3996" width="21.5309" height="10.7654"/><text class="cls-50" transform="translate(877.9426 597.4486)">12</text><rect class="cls-19" x="624.4056" y="522.1391" width="21.5309" height="10.7654"/><text class="cls-50" transform="translate(639.6673 530.1881)">4</text><rect class="cls-19" x="600.3628" y="522.1391" width="21.5309" height="10.7654"/><text class="cls-51" transform="translate(601.6517 530.1883)">D</text><text class="cls-50" transform="translate(615.6245 530.1881)">3</text><rect class="cls-19" x="661.0215" y="522.1391" width="21.5309" height="10.7654"/><text class="cls-50" transform="translate(676.6422 530.1881)">5</text><rect class="cls-19" x="685.0643" y="522.1391" width="21.5309" height="10.7654"/><text class="cls-50" transform="translate(700.685 530.1881)">6</text><rect class="cls-19" x="721.6801" y="522.1391" width="21.5309" height="10.7654"/><text class="cls-50" transform="translate(736.9419 530.1881)">7</text><rect class="cls-19" x="745.7229" y="522.1391" width="21.5309" height="10.7654"/><text class="cls-50" transform="translate(761.1938 530.1881)">8</text><rect class="cls-19" x="782.3388" y="522.1391" width="21.5309" height="10.7654"/><text class="cls-50" transform="translate(797.6005 530.1881)">9</text><rect class="cls-19" x="806.3816" y="522.1391" width="21.5309" height="10.7654"/><text class="cls-50" transform="translate(817.2839 530.1881)">10</text><text class="cls-14" transform="translate(747.5129 241.3402)">Hacking,<tspan class="cls-37" x="2.8706" y="14.6289">S</tspan><tspan x="9.856" y="14.6289">nacks,</tspan><tspan x="-9.1855" y="29.2578">Ce</tspan><tspan class="cls-16" x="5.6626" y="29.2578">r</tspan><tspan x="10.1978" y="29.2578">emonies</tspan></text><text class="cls-14" transform="translate(919.6264 500.4453)">Ha<tspan class="cls-18" x="14.958" y="0">rd</tspan><tspan x="26.1611" y="0">wa</tspan><tspan class="cls-53" x="41.4365" y="0">r</tspan><tspan x="45.9707" y="0">e</tspan><tspan x="16.4395" y="14.6289">Lab</tspan></text><line class="cls-43" x1="930.9246" y1="510.7067" x2="912.1633" y2="510.7067"/><polygon class="cls-19" points="912.601 509.211 910.01 510.707 912.601 512.203 912.601 509.211"/><line class="cls-43" x1="497.767" y1="461.2539" x2="516.5283" y2="461.2539"/><polygon class="cls-19" points="516.091 462.75 518.681 461.254 516.091 459.758 516.091 462.75"/><text class="cls-14" transform="translate(454.9297 464.8662)"><tspan class="cls-37">S</tspan><tspan x="6.9854" y="0">nacks</tspan></text><line class="cls-43" x1="497.767" y1="561.4889" x2="516.5283" y2="561.4889"/><polygon class="cls-19" points="516.091 562.985 518.681 561.489 516.091 559.993 516.091 562.985"/><text class="cls-14" transform="translate(454.9297 565.1012)"><tspan class="cls-37">S</tspan><tspan x="6.9854" y="0">nacks</tspan></text><line class="cls-43" x1="529.3429" y1="226.1165" x2="529.3429" y2="244.8778"/><polygon class="cls-19" points="527.847 244.44 529.343 247.031 530.839 244.44 527.847 244.44"/><text class="cls-54" transform="translate(16.9791 627.6659)"><tspan class="cls-55">M</tspan><tspan x="10.8779" y="0">ap is n</tspan><tspan class="cls-56" x="48.0752" y="0">o</tspan><tspan class="cls-57" x="56.0137" y="0">t </tspan><tspan class="cls-58" x="63.9229" y="0">t</tspan><tspan x="68.8789" y="0">o scale.</tspan></text></svg>