<?xml version="1.0" encoding="UTF-8" standalone="no"?>
<?xml-stylesheet type="text/css" href="/assets/styles/hc-2018/all-stylesheets.css"?>
<!DOCTYPE svg PUBLIC "-//W3C//DTD SVG 1.1//EN" "http://www.w3.org/Graphics/SVG/1.1/DTD/svg11.dtd">
<svg xmlns="http://www.w3.org/2000/svg" xmlns:xl="http://www.w3.org/1999/xlink" version="1.1" viewBox="0 0 11 11" width="11pt" height="11pt" xmlns:dc="http://purl.org/dc/elements/1.1/">
  <metadata> Produced by OmniGraffle 7.5 
    <dc:date>2018-01-14 19:45:53 +0000</dc:date>
  </metadata>
  <defs/>
  <symbol id="icon" viewBox="0 0 11 11">
    <g>
      <title>Layer 1</title>
      <path d="M 0 0 L 0 11 L 11 11 L 11 0 Z M 1 3 L 10 3 L 10 10 L 1 10 Z M 1 1 L 2 1 L 2 2 L 1 2 Z M 3 1 L 4 1 L 4 2 L 3 2 Z M 5 1 L 6 1 L 6 2 L 5 2 Z"/>
      <path d="M 3 5 L 3 4 L 5 4 L 5 5 L 6 5 L 6 6 L 5 6 L 5 7 L 6 7 L 6 8 L 5 8 L 5 9 L 3 9 L 3 8 L 2 8 L 2 7 L 1 7 L 1 6 L 2 6 L 2 5 Z"/>
      <path d="M 7 4 L 7 9 L 9 9 L 9 7 L 10 7 L 10 6 L 9 6 L 9 4 Z"/>
    </g>
  </symbol>
</svg>
