<svg xmlns="http://www.w3.org/2000/svg" viewBox="0 0 11 11">
  <path id="icon" d="M5.87546088 11.000083V6.74030461H4.44196114V5.08016358h1.43349974V3.85587149c0-1.42080554.8676993-2.19445272 2.13518491-2.19445272.60709772 0 1.12892035.0452129 1.28100403.06540832v1.48481203l-.87911614.00041241c-.68927987 0-.82273438.3275358-.82273438.80818524v1.05992681h1.64394421l-.21407158 1.66014103H7.5897993V11.000083h2.803103c.3352433 0 .6070977-.2718544.6070977-.6070968V.6071385C11 .27177187 10.7281456 0 10.3929023 0H.60709726C.2717306 0 0 .27177187 0 .6071385v9.7858477c0 .3352424.2717306.6070968.60709726.6070968h5.26836362z" vector-effect="non-scaling-stroke"/>
</svg>
