<svg xmlns="http://www.w3.org/2000/svg" viewBox="0 0 11 11">
  <path id="icon" d="M5.50001081 0C4.00628954 0 3.81899042.00633136 3.23235695.03309774c-.58541093.02670088-.98522542.11968458-1.33507251.25563422-.36167363.14055624-.66839107.32861953-.97416309.6343807-.30576333.30576102-.49382659.61250471-.63438067.97417815-.13595726.34984072-.22893223.74965521-.25565101 1.33506614C.00632796 3.81899042 0 4.00628954 0 5.50001081c0 1.49369887.00632796 1.68099877.03308967 2.26763147.02671878.58541132.11969375.98522619.255651 1.33506421.1405541.36167421.32861735.66839976.63438068.97418121.30577202.3057603.61248946.4938267.97416309.6343797.34984709.1359484.74966158.2289324 1.33507251.2556342C3.81899042 10.9936632 4.00628954 11 5.50001081 11c1.49369887 0 1.68099877-.0063368 2.26763147-.0330984.58541132-.0267018.98522619-.1196858 1.33506614-.2556342.36167363-.140553.66839532-.3286194.97417928-.6343797.3057603-.30578145.4938238-.612507.6343797-.97418121.1359503-.34983802.2289339-.74965289.2556342-1.33506421C10.9936682 7.18100958 11 6.99370968 11 5.50001081c0-1.49372127-.0063318-1.68102039-.0330984-2.26765386-.0267003-.58541093-.1196839-.98522542-.2556342-1.33506614-.1405559-.36167344-.3286194-.66841713-.6343797-.97417814C9.77110374.6173515 9.46438205.4292882 9.10270842.28873196 8.75286847.15278232 8.3530536.05979862 7.76764228.03309774 7.18100958.00633136 6.99370968 0 5.50001081 0m0 .99098917c1.46854824 0 1.64250784.00561095 2.22246123.03207162.53624401.02445217.82746515.11405186 1.02127029.1893733.25672592.09977347.4399423.21895596.63239425.41140752.19247317.19247337.31165528.37568995.41142914.63241567.07532182.19380533.16492107.48502609.18937349 1.02127068.02646079.57995281.03207079.75391222.03207079 2.22248285 0 1.46854824-.00561 1.64250784-.03207079 2.22246123-.02445242.53624401-.11405167.82746515-.18937349 1.02127029-.09977386.25672785-.21895597.4399396-.41142914.63239579-.19245195.19247434-.37566833.31165644-.63239425.4114276-.19380514.07532182-.48502628.16491856-1.02127029.18936867-.57986558.02646561-.75380337.03207561-2.22246123.03207561-1.46867948 0-1.64259565-.00561-2.22248285-.03207561-.53624459-.02445011-.82746535-.11404685-1.02127068-.18936867-.25672784-.09977116-.43994017-.21895326-.63239617-.4114276-.19245581-.19245619-.31165567-.37566794-.41142702-.63239579-.07532144-.19380514-.16491017-.48502628-.18937766-1.02127029-.02646286-.57995339-.03206726-.75391299-.03206726-2.22246123 0-1.46857063.0056044-1.64253004.03206726-2.22248285.02446749-.53624459.11405622-.82746535.18937766-1.02127068.09977135-.25672572.21896252-.4399423.41141833-.63239386.19246469-.19247337.37567702-.31165586.63240486-.41142933.19380533-.07532144.48502609-.16492113 1.02127068-.1893733.57995281-.02646067.75391222-.03207162 2.22248285-.03207162m0 6.34234416c-1.01253765 0-1.83334414-.82080649-1.83334414-1.83332252 0-1.01253765.82080649-1.83334414 1.83334414-1.83334414 1.01251603 0 1.83332252.82080649 1.83332252 1.83334414 0 1.01251603-.82080649 1.83332252-1.83332252 1.83332252m0-4.65765589c-1.55985134 0-2.82433337 1.26448203-2.82433337 2.82433337 0 1.55982972 1.26448203 2.82431175 2.82433337 2.82431175 1.55982972 0 2.82431175-1.26448203 2.82431175-2.82431175 0-1.55985134-1.26448203-2.82433337-2.82431175-2.82433337m3.59590849-.11158535c0-.36451183-.29550053-.66001177-.66001216-.66001177-.36449002 0-.65998977.29549994-.65998977.66001177 0 .36451182.29549975.65998996.65998977.65998996.36451163 0 .66001216-.29547814.66001216-.65998996" vector-effect="non-scaling-stroke"/>
</svg>
