<?xml version="1.0" encoding="UTF-8" standalone="no"?>
<?xml-stylesheet type="text/css" href="/assets/styles/all-stylesheets.css"?>
<!DOCTYPE svg PUBLIC "-//W3C//DTD SVG 1.1//EN" "http://www.w3.org/Graphics/SVG/1.1/DTD/svg11.dtd">
<svg xmlns="http://www.w3.org/2000/svg" xmlns:xl="http://www.w3.org/1999/xlink" version="1.1" xmlns:dc="http://purl.org/dc/elements/1.1/">
  <metadata> Produced by OmniGraffle 7.4.3 
    <dc:date>2017-10-02 07:31:58 +0000</dc:date>
  </metadata>
  <defs/>
  <symbol id="icon" viewBox="0 0 57 57">
    <g>
      <path d="M 28.500056 0 C 20.759864 0 19.789314 .03280797 16.749486 .17150648 C 13.715993 .3098656 11.644227 .7916902 9.831383 1.4961565 C 7.957256 2.2244934 6.367902 3.1990032 4.783447 4.783402 C 3.199037 6.3678 2.2245274 7.95729 1.4962017 9.831416 C .7916959 11.644227 .30991652 13.715993 .17146463 16.749486 C .03279032 19.789314 0 20.759864 0 28.500056 C 0 36.240132 .03279032 37.210686 .17146463 40.25051 C .30991652 43.284005 .7916959 45.355773 1.4962017 47.16857 C 2.2245274 49.0427 3.199037 50.632096 4.783447 52.2166 C 6.367902 53.800994 7.957256 54.77552 9.831383 55.50384 C 11.644227 56.2083 13.715993 56.690126 16.749486 56.82849 C 19.789314 56.967164 20.759864 57 28.500056 57 C 36.240132 57 37.210686 56.967164 40.25051 56.82849 C 43.284005 56.690126 45.355773 56.2083 47.16858 55.50384 C 49.042707 54.77552 50.632083 53.800994 52.2166 52.2166 C 53.800994 50.632096 54.775505 49.0427 55.50384 47.16857 C 56.20831 45.355773 56.690134 43.284005 56.82849 40.25051 C 56.96719 37.210686 57 36.240132 57 28.500056 C 57 20.759864 56.96719 19.789314 56.82849 16.749486 C 56.690134 13.715993 56.20831 11.644227 55.50384 9.831416 C 54.775505 7.95729 53.800994 6.3678 52.2166 4.783402 C 50.632083 3.1990032 49.042707 2.2244934 47.16858 1.4961565 C 45.355773 .7916902 43.284005 .3098656 40.25051 .17150648 C 37.210686 .03280797 36.240132 0 28.500056 0 M 28.500056 5.1351257 C 36.109806 5.1351257 37.011233 5.1642006 40.016446 5.301315 C 42.795165 5.4280217 44.30422 5.892311 45.308483 6.282613 C 46.63879 6.799621 47.588184 7.417203 48.585435 8.414452 C 49.582796 9.411814 50.200376 10.361209 50.717386 11.691515 C 51.10769 12.695779 51.571977 14.204832 51.698685 16.983554 C 51.8358 19.988764 51.86487 20.89019 51.86487 28.500056 C 51.86487 36.109806 51.8358 37.011233 51.698685 40.016446 C 51.571977 42.795165 51.10769 44.30422 50.717386 45.308483 C 50.200376 46.6388 49.582796 47.58817 48.585435 48.585443 C 47.588184 49.58281 46.63879 50.20039 45.308483 50.717386 C 44.30422 51.10769 42.795165 51.571964 40.016446 51.69866 C 37.011688 51.8358 36.110374 51.86487 28.500056 51.86487 C 20.889626 51.86487 19.988424 51.8358 16.983554 51.69866 C 14.204832 51.571964 12.695779 51.10769 11.691515 50.717386 C 10.361198 50.20039 9.411825 49.58281 8.414553 48.585443 C 7.417282 47.58817 6.79961 46.6388 6.282613 45.308483 C 5.892311 44.30422 5.4280785 42.795165 5.3012924 40.016446 C 5.1641667 37.011233 5.1351257 36.109806 5.1351257 28.500056 C 5.1351257 20.89019 5.1641667 19.988764 5.3012924 16.983554 C 5.4280785 14.204832 5.892311 12.695779 6.282613 11.691515 C 6.79961 10.361209 7.417237 9.411814 8.414508 8.414565 C 9.411825 7.417203 10.361198 6.799621 11.691515 6.282613 C 12.695779 5.892311 14.204832 5.4280217 16.983554 5.301315 C 19.988764 5.1642006 20.89019 5.1351257 28.500056 5.1351257 M 28.500056 38 C 23.25327 38 19 33.74673 19 28.500056 C 19 23.25327 23.25327 19 28.500056 19 C 33.74673 19 38 23.25327 38 28.500056 C 38 33.74673 33.74673 38 28.500056 38 M 28.500056 13.864874 C 20.41719 13.864874 13.864874 20.41719 13.864874 28.500056 C 13.864874 36.58281 20.41719 43.135126 28.500056 43.135126 C 36.58281 43.135126 43.135126 36.58281 43.135126 28.500056 C 43.135126 20.41719 36.58281 13.864874 28.500056 13.864874 M 47.1334 13.286659 C 47.1334 11.397825 45.60217 9.866598 43.713337 9.866598 C 41.824616 9.866598 40.29339 11.397825 40.29339 13.286659 C 40.29339 15.175493 41.824616 16.706607 43.713337 16.706607 C 45.60217 16.706607 47.1334 15.175493 47.1334 13.286659"/>
    </g>
  </symbol>
</svg>
