<?xml version="1.0" encoding="UTF-8" standalone="no"?>
<?xml-stylesheet type="text/css" href="/assets/styles/all-stylesheets.css"?>
<!DOCTYPE svg PUBLIC "-//W3C//DTD SVG 1.1//EN" "http://www.w3.org/Graphics/SVG/1.1/DTD/svg11.dtd">
<svg xmlns="http://www.w3.org/2000/svg" xmlns:xl="http://www.w3.org/1999/xlink" version="1.1" viewBox="0 0 11 11" width="11pt" height="11pt" xmlns:dc="http://purl.org/dc/elements/1.1/">
  <metadata> Produced by OmniGraffle 7.5 
    <dc:date>2018-01-14 22:08:02 +0000</dc:date>
  </metadata>
  <defs/>
  <symbol id="icon" viewBox="0 0 11 11">
    <g>
      <title>Layer 1</title>
      <path d="M 3 0 L 3 3 L 6 3 L 6 0 Z M 7 6 L 7 7 L 11 7 L 11 6 Z M 8 5 L 8 4 L 10 4 L 10 5 L 11 5 L 11 0 L 7 0 L 7 5 Z M 2 0 L 0 0 L 0 3 L 2 3 Z M 1 6 L 1 4 L 0 4 L 0 11 L 1 11 L 1 10 L 2 10 L 2 9 L 3 9 L 3 6 Z M 4 9 L 4 10 L 3 10 L 3 11 L 8 11 L 8 10 L 7 10 L 7 9 Z M 11 8 L 8 8 L 8 9 L 9 9 L 9 11 L 11 11 Z M 6 6 L 6 4 L 3 4 L 3 5 L 4 5 L 4 8 L 6 8 Z" />
    </g>
  </symbol>
</svg>
