<svg xmlns="http://www.w3.org/2000/svg" viewBox="0 0 11 11">
  <path id="icon" d="M0 0v11h11V0H0zm2.62499947 3.67883749c.00918114-.09071333-.02541193-.18037317-.09314819-.24142665l-.68998523-.83119724v-.12416241h2.14240458l1.6559649 3.63174611 1.45586929-3.63174611h2.04235669v.12416241l-.58993753.56562791c-.05085898.03876786-.07608777.10248545-.06554861.16554981v4.15598622c-.01053916.06306474.01468963.12678234.06554861.16555l.57613813.56562772v.12416299h-2.897939v-.12416299l.59683742-.57942345c.05864872-.05863251.05864872-.07587685.05864872-.16554962v-3.3592788L5.22279421 8.33492193h-.22424503L3.06659004 4.12030339v2.82469135c-.01610786.11875754.0233337.23832117.10694778.32420145l.77623353.94156372v.12416202H1.74871786v-.12416202l.77623372-.94156372c.08300523-.08602251.12014702-.2063791.10004789-.32420145V3.67883749z" vector-effect="non-scaling-stroke"/>
</svg>
