<?xml version="1.0" encoding="UTF-8" standalone="no"?>
<?xml-stylesheet type="text/css" href="/assets/styles/hc-2018/all-stylesheets.css"?>
<!DOCTYPE svg PUBLIC "-//W3C//DTD SVG 1.1//EN" "http://www.w3.org/Graphics/SVG/1.1/DTD/svg11.dtd">
<svg xmlns="http://www.w3.org/2000/svg" xmlns:xl="http://www.w3.org/1999/xlink" version="1.1" viewBox="0 0 11 11" width="11pt" height="11pt" xmlns:dc="http://purl.org/dc/elements/1.1/">
  <metadata> Produced by OmniGraffle 7.5 
    <dc:date>2018-01-09 14:41:42 +0000</dc:date>
  </metadata>
  <defs/>
  <symbol id="icon" viewBox="0 0 11 11">
    <g>
      <title>Layer 1</title>
      <path d="M 4 8 L 5 8 L 5 11 L 6 11 L 6 8 L 7 8 L 7 10 L 8 10 L 8 11 L 9 11 L 9 10 L 8 10 L 8 8 L 11 8 L 11 7 L 10 7 L 10 2 L 11 2 L 11 1 L 6 1 L 6 9769963e-21 L 5 9769963e-21 L 5 1 L 0 1 L 0 2 L 1 2 L 1 7 L 0 7 L 0 8 L 3 8 L 3 10 L 3 10 L 2 10 L 2 11 L 3 11 L 3 10 L 4 10 Z"/>
    </g>
  </symbol>
</svg>
