<?xml version="1.0" encoding="UTF-8" standalone="no"?>
<?xml-stylesheet type="text/css" href="/assets/styles/all-stylesheets.css"?>
<!DOCTYPE svg PUBLIC "-//W3C//DTD SVG 1.1//EN" "http://www.w3.org/Graphics/SVG/1.1/DTD/svg11.dtd">
<svg xmlns="http://www.w3.org/2000/svg" xmlns:xl="http://www.w3.org/1999/xlink" version="1.1" viewBox="0 0 11 11" width="11pt" height="11pt" xmlns:dc="http://purl.org/dc/elements/1.1/">
  <metadata> Produced by OmniGraffle 7.5 
    <dc:date>2018-01-09 14:41:42 +0000</dc:date>
  </metadata>
  <defs/>
  <symbol id="icon" viewBox="0 0 11 11">
    <g>
      <title>Layer 1</title>
      <path d="M 1 5 L 2 5 L 2 6 L 1 6 Z M 9 1 L 10 1 L 10 2 L 9 2 Z M 9 9 L 10 9 L 10 10 L 9 10 Z M 3 6 L 5 6 L 5 10 L 8 10 L 8 11 L 11 11 L 11 8 L 8 8 L 8 9 L 6 9 L 6 2 L 8 2 L 8 3 L 11 3 L 11 0 L 8 0 L 8 1 L 5 1 L 5 5 L 3 5 L 3 4 L 0 4 L 0 7 L 3 7 Z"/>
    </g>
  </symbol>
</svg>
