<?xml version="1.0" encoding="UTF-8" standalone="no"?>
<?xml-stylesheet type="text/css" href="/assets/styles/all-stylesheets.css"?>
<!DOCTYPE svg PUBLIC "-//W3C//DTD SVG 1.1//EN" "http://www.w3.org/Graphics/SVG/1.1/DTD/svg11.dtd">
<svg xmlns="http://www.w3.org/2000/svg" xmlns:xl="http://www.w3.org/1999/xlink" version="1.1" xmlns:dc="http://purl.org/dc/elements/1.1/">
  <metadata> Produced by OmniGraffle 7.4.3 
    <dc:date>2017-10-03 08:48:42 +0000</dc:date>
  </metadata>
  <defs/>
  <symbol id="icon" viewBox="0 0 57 57">
    <g>
      <path d="M 17.92536 51.657925 C 39.43488 51.657925 51.19968 33.837445 51.19968 18.383605 C 51.19968 17.877445 51.19968 17.373564 51.16548 16.871964 C 53.45421 15.216481 55.42989 13.166689 57 10.818564 C 54.865646 11.764312 52.60149 12.384534 50.28312 12.658524 C 52.724416 11.197003 54.55156 8.898284 55.42452 6.190164 C 53.12892 7.552362 50.61747 8.512372 47.99856 9.028764 C 44.37355 5.1741833 38.61344 4.230761 33.948174 6.727515 C 29.282904 9.224268 26.872707 14.540268 28.06908 19.694605 C 18.666123 19.223213 9.905405 14.781941 3.9672 7.476084 C .8632599 12.819594 2.4486924 19.655524 7.58784 23.087245 C 5.72677 23.032086 3.906277 22.530042 2.28 21.623485 C 2.28 21.671365 2.28 21.721525 2.28 21.771685 C 2.2815233 27.338515 6.2055934 32.133225 11.6622 33.235525 C 9.940503 33.705067 8.134084 33.773705 6.38172 33.436165 C 7.913761 38.20005 12.30419 41.46355 17.30748 41.557525 C 13.166396 44.812065 8.050816 46.57883 2.78388 46.573525 C 1.8534202 46.57174 .9238653 46.5154 0 46.404805 C 5.34805 49.836835 11.570803 51.65728 17.92536 51.648805"/>
    </g>
  </symbol>
</svg>
