<svg xmlns="http://www.w3.org/2000/svg" viewBox="0 0 11 11">
  <path id="icon" stroke-miterlimit="4.4" d="M9.88064 3.51678648c0-.09768 0-.19492019-.0066-.29172019.4416847-.31947917.8229563-.71505307 1.12596-1.1682-.4118929.18251277-.8488353.30220474-1.29624.35508.4711273-.28204791.823734-.72566035.9922-1.24828-.4430105.26288032-.92767632.4481454-1.43308.5478-.69956333-.74386645-1.81116351-.9259304-2.711478-.44410067-.90031526.4818295-1.365441 1.50772425-1.134562 2.50242086C3.60223426 3.6788161 1.91156939 2.82172852.7656 1.41182629c-.59900598 1.03120369-.29304533 2.35041825.69872 3.01268019-.35915386-.01064471-.71047707-.1075304-1.02432-.28248v.0286c.00029397 1.07430053.75757066 1.99959544 1.8106 2.21232-.33225732.09061337-.68086449.1038593-1.01904.03872.29565704.91934623 1.14293281 1.54914448 2.10848 1.56728-.79915656.62806913-1.78637375.96902378-2.8028.968-.17956242-.00034447-.3589502-.0112171-.53724-.03256 1.03207982.66232158 2.23296198 1.01363553 3.45928 1.012 4.15096.00176 6.42136-3.43728 6.42136-6.4196z" vector-effect="non-scaling-stroke"/>
</svg>
