<?xml version="1.0" encoding="UTF-8" standalone="no"?>
<?xml-stylesheet type="text/css" href="/assets/styles/hc-2018/all-stylesheets.css"?>
<!DOCTYPE svg PUBLIC "-//W3C//DTD SVG 1.1//EN" "http://www.w3.org/Graphics/SVG/1.1/DTD/svg11.dtd">
<svg xmlns="http://www.w3.org/2000/svg" xmlns:xl="http://www.w3.org/1999/xlink" version="1.1" viewBox="0 0 11 11" width="11pt" height="11pt" xmlns:dc="http://purl.org/dc/elements/1.1/">
  <metadata> Produced by OmniGraffle 7.5 
    <dc:date>2018-01-14 19:45:53 +0000</dc:date>
  </metadata>
  <defs/>
  <symbol id="icon" viewBox="0 0 11 11">
    <g>
      <title>Layer 1</title>
      <path d="M 4 6 L 4 5 L 5 5 L 5 11 L 6 11 L 6 5 L 7 5 L 7 4 L 6 4 L 6 3 L 5 3 L 5 4 L 4 4 L 4 5 L 3 5 L 3 6 L 2 6 L 2 7 L 3 7 L 3 6 Z M 9 7 L 9 6 L 8 6 L 8 7 Z M 8 6 L 8 5 L 7 5 L 7 6 Z"/>
      <path d="M -35527137e-22 7 L 1 7 L 1 1 L 10 1 L 10 7 L 11 7 L 11 31086245e-22 L -26645353e-22 48849813e-22 Z"/>
    </g>
  </symbol>
</svg>
