<?xml version="1.0" encoding="UTF-8" standalone="no"?>
<?xml-stylesheet type="text/css" href="/assets/styles/all-stylesheets.css"?>
<!DOCTYPE svg PUBLIC "-//W3C//DTD SVG 1.1//EN" "http://www.w3.org/Graphics/SVG/1.1/DTD/svg11.dtd">
<svg xmlns="http://www.w3.org/2000/svg" xmlns:xl="http://www.w3.org/1999/xlink" version="1.1" viewBox="0 0 11 11" width="11pt" height="11pt" xmlns:dc="http://purl.org/dc/elements/1.1/">
  <metadata> Produced by OmniGraffle 7.5 
    <dc:date>2018-01-09 14:41:42 +0000</dc:date>
  </metadata>
  <defs/>
  <symbol id="icon" viewBox="0 0 11 11">
    <g>
      <title>Layer 1</title>
      <path d="M 4 11 L 4 9 L 5 9 L 5 8 L 6 8 L 6 9 L 7 9 L 7 11 L 8 11 L 8 8 L 7 8 L 7 7 L 4 7 L 4 8 L 3 8 L 3 11 Z M 5 4 L 5 7 L 6 7 L 6 4 L 7 4 L 7 3 L 8 3 L 8 0 L 7 0 L 7 2 L 6 2 L 6 3 L 5 3 L 5 2 L 4 2 L 4 0 L 3 0 L 3 3 L 4 3 L 4 4 Z"/>
    </g>
  </symbol>
</svg>
