<?xml version="1.0" encoding="UTF-8" standalone="no"?>
<!-- Generator: Gravit.io -->
<svg xmlns="http://www.w3.org/2000/svg" xmlns:xlink="http://www.w3.org/1999/xlink" style="isolation:isolate" viewBox="0 0 684 684" width="684" height="684"><defs><clipPath id="_clipPath_B00G097iK0xsFx8mbAxPLxcsH9muS9vU"><rect width="684" height="684"/></clipPath></defs><g clip-path="url(#_clipPath_B00G097iK0xsFx8mbAxPLxcsH9muS9vU)"><g><rect x="0" y="0" width="684" height="684" transform="matrix(1,0,0,1,0,0)" fill="rgb(26,188,233)"/><rect x="0" y="114" width="684" height="456" transform="matrix(1,0,0,1,0,0)" fill="rgb(255,255,255)"/><path d=" M 28.5 142.5 L 28.5 313.5 L 0 313.5 L 0 370.5 L 28.5 370.5 L 28.5 541.5 L 100.288 541.5 L 313.5 541.5 L 313.5 570 L 399 570 L 399 541.5 L 655.5 541.5 L 655.5 142.5 L 28.5 142.5 Z " fill="rgb(239,29,19)"/><g><g><rect x="85.5" y="171" width="114" height="28.5" transform="matrix(1,0,0,1,0,0)" fill="rgb(0,0,0)"/><rect x="85.5" y="228" width="114" height="28.5" transform="matrix(1,0,0,1,0,0)" fill="rgb(0,0,0)"/><rect x="114" y="285" width="85.5" height="28.5" transform="matrix(1,0,0,1,0,0)" fill="rgb(0,0,0)"/><rect x="114" y="370.5" width="57" height="28.5" transform="matrix(1,0,0,1,0,0)" fill="rgb(0,0,0)"/><rect x="85.5" y="427.5" width="85.5" height="28.5" transform="matrix(1,0,0,1,0,0)" fill="rgb(0,0,0)"/><rect x="85.5" y="484.5" width="85.5" height="28.5" transform="matrix(1,0,0,1,0,0)" fill="rgb(0,0,0)"/></g><g><rect x="256.5" y="171" width="57" height="28.5" transform="matrix(1,0,0,1,0,0)" fill="rgb(0,0,0)"/><rect x="256.5" y="228" width="57" height="28.5" transform="matrix(1,0,0,1,0,0)" fill="rgb(0,0,0)"/><rect x="256.5" y="285" width="57" height="28.5" transform="matrix(1,0,0,1,0,0)" fill="rgb(0,0,0)"/><rect x="199.5" y="370.5" width="85.5" height="28.5" transform="matrix(1,0,0,1,0,0)" fill="rgb(0,0,0)"/><g><rect x="199.5" y="427.5" width="85.5" height="28.5" transform="matrix(1,0,0,1,0,0)" fill="rgb(0,0,0)"/><rect x="199.5" y="484.5" width="85.5" height="28.5" transform="matrix(1,0,0,1,0,0)" fill="rgb(0,0,0)"/></g></g><g><rect x="370.5" y="171" width="57" height="28.5" transform="matrix(1,0,0,1,0,0)" fill="rgb(0,0,0)"/><rect x="370.5" y="228" width="57" height="28.5" transform="matrix(1,0,0,1,0,0)" fill="rgb(0,0,0)"/><rect x="370.5" y="285" width="57" height="28.5" transform="matrix(1,0,0,1,0,0)" fill="rgb(0,0,0)"/><rect x="370.5" y="370.5" width="57" height="28.5" transform="matrix(1,0,0,1,0,0)" fill="rgb(0,0,0)"/><rect x="370.5" y="427.5" width="57" height="28.5" transform="matrix(1,0,0,1,0,0)" fill="rgb(0,0,0)"/><rect x="370.5" y="484.5" width="57" height="28.5" transform="matrix(1,0,0,1,0,0)" fill="rgb(0,0,0)"/></g><g><rect x="456" y="171" width="57" height="28.5" transform="matrix(1,0,0,1,0,0)" fill="rgb(0,0,0)"/><rect x="456" y="228" width="57" height="28.5" transform="matrix(1,0,0,1,0,0)" fill="rgb(0,0,0)"/><rect x="456" y="285" width="57" height="28.5" transform="matrix(1,0,0,1,0,0)" fill="rgb(0,0,0)"/><rect x="456" y="427.5" width="57" height="28.5" transform="matrix(1,0,0,1,0,0)" fill="rgb(0,0,0)"/><rect x="456" y="370.5" width="57" height="28.5" transform="matrix(1,0,0,1,0,0)" fill="rgb(0,0,0)"/><rect x="456" y="484.5" width="57" height="28.5" transform="matrix(1,0,0,1,0,0)" fill="rgb(0,0,0)"/></g></g><rect x="541.5" y="313.5" width="28.5" height="57" transform="matrix(1,0,0,1,0,0)" fill="rgb(0,0,0)"/><rect x="570" y="142.5" width="85.5" height="399" transform="matrix(1,0,0,1,0,0)" fill="rgb(0,0,0)"/><g><path d=" M 74.3 93.5 L 81.1 93.5 L 81.1 39.1 L 74.3 39.1 L 74.3 59.5 L 47.1 59.5 L 47.1 39.1 L 40.3 39.1 L 40.3 93.5 L 47.1 93.5 L 47.1 66.3 L 74.3 66.3 L 74.3 93.5 Z " fill="rgb(255,255,255)"/><path d=" M 94.7 66.3 L 101.5 66.3 L 101.5 73.1 L 121.9 73.1 L 121.9 79.9 L 115.1 79.9 L 115.1 86.7 L 121.9 86.7 L 121.9 93.5 L 135.5 93.5 L 135.5 86.7 L 128.7 86.7 L 128.7 59.5 L 121.9 59.5 L 121.9 52.7 L 101.5 52.7 L 101.5 59.5 L 94.7 59.5 L 94.7 66.3 Z  M 94.7 86.7 L 101.5 86.7 L 101.5 93.5 L 115.1 93.5 L 115.1 86.7 L 101.5 86.7 L 101.5 73.1 L 94.7 73.1 L 94.7 86.7 Z  M 101.5 59.5 L 121.9 59.5 L 121.9 66.3 L 101.5 66.3 L 101.5 59.5 Z " fill="rgb(255,255,255)"/><path d=" M 142.3 86.7 L 149.1 86.7 L 149.1 93.5 L 169.5 93.5 L 169.5 86.7 L 149.1 86.7 L 149.1 59.5 L 142.3 59.5 L 142.3 86.7 Z  M 176.3 59.5 L 169.5 59.5 L 169.5 52.7 L 149.1 52.7 L 149.1 59.5 L 169.5 59.5 L 169.5 66.3 L 176.3 66.3 L 176.3 59.5 Z  M 176.3 79.9 L 169.5 79.9 L 169.5 86.7 L 176.3 86.7 L 176.3 79.9 Z " fill="rgb(255,255,255)"/><path d=" M 196.7 79.9 L 203.5 79.9 L 203.5 86.7 L 210.3 86.7 L 210.3 93.5 L 217.1 93.5 L 217.1 86.7 L 210.3 86.7 L 210.3 79.9 L 203.5 79.9 L 203.5 66.3 L 196.7 66.3 L 196.7 39.1 L 189.9 39.1 L 189.9 93.5 L 196.7 93.5 L 196.7 79.9 Z  M 203.5 66.3 L 210.3 66.3 L 210.3 59.5 L 203.5 59.5 L 203.5 66.3 Z  M 210.3 59.5 L 217.1 59.5 L 217.1 52.7 L 210.3 52.7 L 210.3 59.5 Z " fill="rgb(255,255,255)"/><path d=" M 230.7 93.5 L 237.5 93.5 L 237.5 52.7 L 230.7 52.7 L 230.7 93.5 Z  M 230.7 45.9 L 237.5 45.9 L 237.5 39.1 L 230.7 39.1 L 230.7 45.9 Z " fill="rgb(255,255,255)"/><path d=" M 257.9 66.3 L 264.7 66.3 L 264.7 59.5 L 257.9 59.5 L 257.9 52.7 L 251.1 52.7 L 251.1 93.5 L 257.9 93.5 L 257.9 66.3 Z  M 278.3 93.5 L 285.1 93.5 L 285.1 59.5 L 278.3 59.5 L 278.3 52.7 L 264.7 52.7 L 264.7 59.5 L 278.3 59.5 L 278.3 93.5 Z " fill="rgb(255,255,255)"/><path d=" M 325.9 79.9 L 319.1 79.9 L 319.1 86.7 L 325.9 86.7 L 325.9 100.3 L 332.7 100.3 L 332.7 52.7 L 325.9 52.7 L 325.9 59.5 L 319.1 59.5 L 319.1 52.7 L 305.5 52.7 L 305.5 59.5 L 319.1 59.5 L 319.1 66.3 L 325.9 66.3 L 325.9 79.9 Z  M 319.1 86.7 L 305.5 86.7 L 305.5 59.5 L 298.7 59.5 L 298.7 86.7 L 305.5 86.7 L 305.5 93.5 L 319.1 93.5 L 319.1 86.7 Z  M 305.5 93.5 L 298.7 93.5 L 298.7 100.3 L 305.5 100.3 L 305.5 107.1 L 325.9 107.1 L 325.9 100.3 L 305.5 100.3 L 305.5 93.5 Z " fill="rgb(255,255,255)"/><path d=" M 366.7 66.3 L 373.5 66.3 L 373.5 73.1 L 393.9 73.1 L 393.9 79.9 L 387.1 79.9 L 387.1 86.7 L 393.9 86.7 L 393.9 93.5 L 407.5 93.5 L 407.5 86.7 L 400.7 86.7 L 400.7 59.5 L 393.9 59.5 L 393.9 52.7 L 373.5 52.7 L 373.5 59.5 L 366.7 59.5 L 366.7 66.3 Z  M 366.7 86.7 L 373.5 86.7 L 373.5 93.5 L 387.1 93.5 L 387.1 86.7 L 373.5 86.7 L 373.5 73.1 L 366.7 73.1 L 366.7 86.7 Z  M 373.5 59.5 L 393.9 59.5 L 393.9 66.3 L 373.5 66.3 L 373.5 59.5 Z " fill="rgb(255,255,255)"/><path d=" M 414.3 93.5 L 421.1 93.5 L 421.1 59.5 L 434.7 59.5 L 434.7 52.7 L 414.3 52.7 L 414.3 93.5 Z " fill="rgb(255,255,255)"/><path d=" M 475.5 59.5 L 468.7 59.5 L 468.7 52.7 L 448.3 52.7 L 448.3 59.5 L 468.7 59.5 L 468.7 66.3 L 448.3 66.3 L 448.3 59.5 L 441.5 59.5 L 441.5 86.7 L 448.3 86.7 L 448.3 93.5 L 468.7 93.5 L 468.7 86.7 L 448.3 86.7 L 448.3 73.1 L 475.5 73.1 L 475.5 59.5 Z  M 475.5 79.9 L 468.7 79.9 L 468.7 86.7 L 475.5 86.7 L 475.5 79.9 Z " fill="rgb(255,255,255)"/><path d=" M 489.1 66.3 L 495.9 66.3 L 495.9 73.1 L 516.3 73.1 L 516.3 79.9 L 509.5 79.9 L 509.5 86.7 L 516.3 86.7 L 516.3 93.5 L 529.9 93.5 L 529.9 86.7 L 523.1 86.7 L 523.1 59.5 L 516.3 59.5 L 516.3 52.7 L 495.9 52.7 L 495.9 59.5 L 489.1 59.5 L 489.1 66.3 Z  M 489.1 86.7 L 495.9 86.7 L 495.9 93.5 L 509.5 93.5 L 509.5 86.7 L 495.9 86.7 L 495.9 73.1 L 489.1 73.1 L 489.1 86.7 Z  M 495.9 59.5 L 516.3 59.5 L 516.3 66.3 L 495.9 66.3 L 495.9 59.5 Z " fill="rgb(255,255,255)"/></g><g><rect x="28.5" y="199.5" width="28.5" height="114" transform="matrix(1,0,0,1,0,0)" fill="rgb(0,0,0)"/><g><path d=" M 51.9 291.5 L 51.9 294.9 L 48.5 294.9 L 48.5 301.7 L 41.7 301.7 L 41.7 305.1 L 48.5 305.1 L 48.5 301.7 L 51.9 301.7 L 51.9 294.9 L 55.3 294.9 L 55.3 291.5 L 62.1 291.5 L 62.1 288.1 L 55.3 288.1 L 55.3 291.5 L 51.9 291.5 Z  M 41.7 288.1 L 41.7 291.5 L 38.3 291.5 L 38.3 301.7 L 41.7 301.7 L 41.7 291.5 L 45.1 291.5 L 45.1 288.1 L 41.7 288.1 Z  M 58.7 301.7 L 58.7 305.1 L 62.1 305.1 L 62.1 301.7 L 65.5 301.7 L 65.5 291.5 L 62.1 291.5 L 62.1 301.7 L 58.7 301.7 Z " fill="rgb(255,255,255)"/><path d=" M 51.9 277.9 L 51.9 274.5 L 48.5 274.5 L 48.5 277.9 L 45.1 277.9 L 45.1 281.3 L 65.5 281.3 L 65.5 277.9 L 51.9 277.9 Z  M 65.5 267.7 L 65.5 264.3 L 48.5 264.3 L 48.5 267.7 L 45.1 267.7 L 45.1 274.5 L 48.5 274.5 L 48.5 267.7 L 65.5 267.7 Z " fill="rgb(255,255,255)"/><path d=" M 51.9 257.5 L 51.9 254.1 L 55.3 254.1 L 55.3 243.9 L 58.7 243.9 L 58.7 247.3 L 62.1 247.3 L 62.1 243.9 L 65.5 243.9 L 65.5 237.1 L 62.1 237.1 L 62.1 240.5 L 48.5 240.5 L 48.5 243.9 L 45.1 243.9 L 45.1 254.1 L 48.5 254.1 L 48.5 257.5 L 51.9 257.5 Z  M 62.1 257.5 L 62.1 254.1 L 65.5 254.1 L 65.5 247.3 L 62.1 247.3 L 62.1 254.1 L 55.3 254.1 L 55.3 257.5 L 62.1 257.5 Z  M 48.5 254.1 L 48.5 243.9 L 51.9 243.9 L 51.9 254.1 L 48.5 254.1 Z " fill="rgb(255,255,255)"/><path d=" M 62.1 233.7 L 62.1 230.3 L 65.5 230.3 L 65.5 220.1 L 62.1 220.1 L 62.1 230.3 L 48.5 230.3 L 48.5 233.7 L 62.1 233.7 Z  M 48.5 216.7 L 48.5 220.1 L 45.1 220.1 L 45.1 230.3 L 48.5 230.3 L 48.5 220.1 L 51.9 220.1 L 51.9 216.7 L 48.5 216.7 Z  M 58.7 216.7 L 58.7 220.1 L 62.1 220.1 L 62.1 216.7 L 58.7 216.7 Z " fill="rgb(255,255,255)"/><path d=" M 58.7 206.5 L 58.7 203.1 L 62.1 203.1 L 62.1 199.7 L 65.5 199.7 L 65.5 196.3 L 62.1 196.3 L 62.1 199.7 L 58.7 199.7 L 58.7 203.1 L 51.9 203.1 L 51.9 206.5 L 38.3 206.5 L 38.3 209.9 L 65.5 209.9 L 65.5 206.5 L 58.7 206.5 Z  M 51.9 203.1 L 51.9 199.7 L 48.5 199.7 L 48.5 203.1 L 51.9 203.1 Z  M 48.5 199.7 L 48.5 196.3 L 45.1 196.3 L 45.1 199.7 L 48.5 199.7 Z " fill="rgb(255,255,255)"/><path d=" M 55.3 186.1 L 55.3 179.3 L 58.7 179.3 L 58.7 175.9 L 62.1 175.9 L 62.1 172.5 L 58.7 172.5 L 58.7 175.9 L 55.3 175.9 L 55.3 179.3 L 51.9 179.3 L 51.9 186.1 L 48.5 186.1 L 48.5 189.5 L 51.9 189.5 L 51.9 186.1 L 55.3 186.1 Z  M 48.5 172.5 L 48.5 175.9 L 45.1 175.9 L 45.1 186.1 L 48.5 186.1 L 48.5 175.9 L 51.9 175.9 L 51.9 172.5 L 48.5 172.5 Z  M 62.1 189.5 L 62.1 186.1 L 65.5 186.1 L 65.5 175.9 L 62.1 175.9 L 62.1 186.1 L 58.7 186.1 L 58.7 189.5 L 62.1 189.5 Z " fill="rgb(255,255,255)"/></g></g><g><rect x="28.5" y="370.5" width="28.5" height="114" transform="matrix(1,0,0,1,0,0)" fill="rgb(0,0,0)"/><g><path d=" M 51.9 497.9 L 51.9 501.3 L 48.5 501.3 L 48.5 508.1 L 41.7 508.1 L 41.7 511.5 L 48.5 511.5 L 48.5 508.1 L 51.9 508.1 L 51.9 501.3 L 55.3 501.3 L 55.3 497.9 L 62.1 497.9 L 62.1 494.5 L 55.3 494.5 L 55.3 497.9 L 51.9 497.9 Z  M 41.7 494.5 L 41.7 497.9 L 38.3 497.9 L 38.3 508.1 L 41.7 508.1 L 41.7 497.9 L 45.1 497.9 L 45.1 494.5 L 41.7 494.5 Z  M 58.7 508.1 L 58.7 511.5 L 62.1 511.5 L 62.1 508.1 L 65.5 508.1 L 65.5 497.9 L 62.1 497.9 L 62.1 508.1 L 58.7 508.1 Z " fill="rgb(255,255,255)"/><path d=" M 51.9 484.3 L 51.9 480.9 L 48.5 480.9 L 48.5 484.3 L 45.1 484.3 L 45.1 487.7 L 65.5 487.7 L 65.5 484.3 L 51.9 484.3 Z  M 65.5 474.1 L 65.5 470.7 L 48.5 470.7 L 48.5 474.1 L 45.1 474.1 L 45.1 480.9 L 48.5 480.9 L 48.5 474.1 L 65.5 474.1 Z " fill="rgb(255,255,255)"/><path d=" M 51.9 463.9 L 51.9 460.5 L 55.3 460.5 L 55.3 450.3 L 58.7 450.3 L 58.7 453.7 L 62.1 453.7 L 62.1 450.3 L 65.5 450.3 L 65.5 443.5 L 62.1 443.5 L 62.1 446.9 L 48.5 446.9 L 48.5 450.3 L 45.1 450.3 L 45.1 460.5 L 48.5 460.5 L 48.5 463.9 L 51.9 463.9 Z  M 62.1 463.9 L 62.1 460.5 L 65.5 460.5 L 65.5 453.7 L 62.1 453.7 L 62.1 460.5 L 55.3 460.5 L 55.3 463.9 L 62.1 463.9 Z  M 48.5 460.5 L 48.5 450.3 L 51.9 450.3 L 51.9 460.5 L 48.5 460.5 Z " fill="rgb(255,255,255)"/><path d=" M 62.1 440.1 L 62.1 436.7 L 65.5 436.7 L 65.5 426.5 L 62.1 426.5 L 62.1 436.7 L 48.5 436.7 L 48.5 440.1 L 62.1 440.1 Z  M 48.5 423.1 L 48.5 426.5 L 45.1 426.5 L 45.1 436.7 L 48.5 436.7 L 48.5 426.5 L 51.9 426.5 L 51.9 423.1 L 48.5 423.1 Z  M 58.7 423.1 L 58.7 426.5 L 62.1 426.5 L 62.1 423.1 L 58.7 423.1 Z " fill="rgb(255,255,255)"/><path d=" M 58.7 412.9 L 58.7 409.5 L 62.1 409.5 L 62.1 406.1 L 65.5 406.1 L 65.5 402.7 L 62.1 402.7 L 62.1 406.1 L 58.7 406.1 L 58.7 409.5 L 51.9 409.5 L 51.9 412.9 L 38.3 412.9 L 38.3 416.3 L 65.5 416.3 L 65.5 412.9 L 58.7 412.9 Z  M 51.9 409.5 L 51.9 406.1 L 48.5 406.1 L 48.5 409.5 L 51.9 409.5 Z  M 48.5 406.1 L 48.5 402.7 L 45.1 402.7 L 45.1 406.1 L 48.5 406.1 Z " fill="rgb(255,255,255)"/><path d=" M 55.3 392.5 L 55.3 385.7 L 58.7 385.7 L 58.7 382.3 L 62.1 382.3 L 62.1 378.9 L 58.7 378.9 L 58.7 382.3 L 55.3 382.3 L 55.3 385.7 L 51.9 385.7 L 51.9 392.5 L 48.5 392.5 L 48.5 395.9 L 51.9 395.9 L 51.9 392.5 L 55.3 392.5 Z  M 48.5 378.9 L 48.5 382.3 L 45.1 382.3 L 45.1 392.5 L 48.5 392.5 L 48.5 382.3 L 51.9 382.3 L 51.9 378.9 L 48.5 378.9 Z  M 62.1 395.9 L 62.1 392.5 L 65.5 392.5 L 65.5 382.3 L 62.1 382.3 L 62.1 392.5 L 58.7 392.5 L 58.7 395.9 L 62.1 395.9 Z " fill="rgb(255,255,255)"/></g></g><g><path d=" M 558.5 350.5 L 561.9 350.5 L 561.9 323.3 L 558.5 323.3 L 558.5 333.5 L 544.9 333.5 L 544.9 323.3 L 541.5 323.3 L 541.5 350.5 L 544.9 350.5 L 544.9 336.9 L 558.5 336.9 L 558.5 350.5 Z " fill="rgb(255,255,255)"/><path d=" M 568.7 350.5 L 572.1 350.5 L 572.1 343.7 L 568.7 343.7 L 568.7 350.5 Z  M 582.3 323.3 L 578.9 323.3 L 578.9 330.1 L 582.3 330.1 L 582.3 323.3 Z  M 578.9 330.1 L 575.5 330.1 L 575.5 336.9 L 578.9 336.9 L 578.9 330.1 Z  M 575.5 336.9 L 572.1 336.9 L 572.1 343.7 L 575.5 343.7 L 575.5 336.9 Z " fill="rgb(255,255,255)"/><path d=" M 592.5 343.7 L 595.9 343.7 L 595.9 350.5 L 599.3 350.5 L 599.3 343.7 L 595.9 343.7 L 595.9 333.5 L 592.5 333.5 L 592.5 323.3 L 589.1 323.3 L 589.1 333.5 L 592.5 333.5 L 592.5 343.7 Z  M 606.1 343.7 L 609.5 343.7 L 609.5 350.5 L 612.9 350.5 L 612.9 343.7 L 609.5 343.7 L 609.5 333.5 L 606.1 333.5 L 606.1 323.3 L 602.7 323.3 L 602.7 333.5 L 606.1 333.5 L 606.1 343.7 Z  M 619.7 323.3 L 616.3 323.3 L 616.3 333.5 L 619.7 333.5 L 619.7 323.3 Z  M 602.7 333.5 L 599.3 333.5 L 599.3 343.7 L 602.7 343.7 L 602.7 333.5 Z  M 616.3 333.5 L 612.9 333.5 L 612.9 343.7 L 616.3 343.7 L 616.3 333.5 Z " fill="rgb(255,255,255)"/><rect x="568.7" y="359.3" width="3.4" height="27.2" transform="matrix(1,0,0,1,0,0)" fill="rgb(255,255,255)"/><path d=" M 578.9 372.9 L 582.3 372.9 L 582.3 376.3 L 592.5 376.3 L 592.5 379.7 L 589.1 379.7 L 589.1 383.1 L 592.5 383.1 L 592.5 386.5 L 599.3 386.5 L 599.3 383.1 L 595.9 383.1 L 595.9 369.5 L 592.5 369.5 L 592.5 366.1 L 582.3 366.1 L 582.3 369.5 L 578.9 369.5 L 578.9 372.9 Z  M 578.9 383.1 L 582.3 383.1 L 582.3 386.5 L 589.1 386.5 L 589.1 383.1 L 582.3 383.1 L 582.3 376.3 L 578.9 376.3 L 578.9 383.1 Z  M 582.3 369.5 L 592.5 369.5 L 592.5 372.9 L 582.3 372.9 L 582.3 369.5 Z " fill="rgb(255,255,255)"/><path d=" M 606.1 372.9 L 609.5 372.9 L 609.5 369.5 L 606.1 369.5 L 606.1 359.3 L 602.7 359.3 L 602.7 386.5 L 606.1 386.5 L 606.1 383.1 L 609.5 383.1 L 609.5 386.5 L 616.3 386.5 L 616.3 383.1 L 609.5 383.1 L 609.5 379.7 L 606.1 379.7 L 606.1 372.9 Z  M 609.5 369.5 L 616.3 369.5 L 616.3 383.1 L 619.7 383.1 L 619.7 369.5 L 616.3 369.5 L 616.3 366.1 L 609.5 366.1 L 609.5 369.5 Z " fill="rgb(255,255,255)"/></g></g><g><g><g><path d=" M 496.72 162.66 L 499.1 162.66 L 499.1 165.04 L 506.24 165.04 L 506.24 162.66 L 499.1 162.66 L 499.1 148.38 L 496.72 148.38 L 496.72 162.66 Z  M 499.1 148.38 L 506.24 148.38 L 506.24 162.66 L 508.62 162.66 L 508.62 148.38 L 506.24 148.38 L 506.24 146 L 499.1 146 L 499.1 148.38 Z " fill-rule="evenodd" fill="rgb(255,255,255)"/><path d=" M 480.12 162.66 L 475.36 162.66 L 475.36 146 L 472.98 146 L 472.98 148.38 L 468.22 148.38 L 468.22 150.76 L 472.98 150.76 L 472.98 162.66 L 468.22 162.66 L 468.22 165.04 L 480.12 165.04 L 480.12 162.66 Z " fill="rgb(255,255,255)"/></g><g><path d=" M 496.72 219.66 L 499.1 219.66 L 499.1 222.04 L 506.24 222.04 L 506.24 219.66 L 499.1 219.66 L 499.1 205.38 L 496.72 205.38 L 496.72 219.66 Z  M 499.1 205.38 L 506.24 205.38 L 506.24 219.66 L 508.62 219.66 L 508.62 205.38 L 506.24 205.38 L 506.24 203 L 499.1 203 L 499.1 205.38 Z " fill-rule="evenodd" fill="rgb(255,255,255)"/><path d=" M 480.12 219.66 L 475.36 219.66 L 475.36 203 L 472.98 203 L 472.98 205.38 L 468.22 205.38 L 468.22 207.76 L 472.98 207.76 L 472.98 219.66 L 468.22 219.66 L 468.22 222.04 L 480.12 222.04 L 480.12 219.66 Z " fill="rgb(255,255,255)"/></g><g><path d=" M 496.72 276.66 L 499.1 276.66 L 499.1 279.04 L 506.24 279.04 L 506.24 276.66 L 499.1 276.66 L 499.1 262.38 L 496.72 262.38 L 496.72 276.66 Z  M 499.1 262.38 L 506.24 262.38 L 506.24 276.66 L 508.62 276.66 L 508.62 262.38 L 506.24 262.38 L 506.24 260 L 499.1 260 L 499.1 262.38 Z " fill-rule="evenodd" fill="rgb(255,255,255)"/><path d=" M 480.12 276.66 L 475.36 276.66 L 475.36 260 L 472.98 260 L 472.98 262.38 L 468.22 262.38 L 468.22 264.76 L 472.98 264.76 L 472.98 276.66 L 468.22 276.66 L 468.22 279.04 L 480.12 279.04 L 480.12 276.66 Z " fill="rgb(255,255,255)"/></g></g><g><path d=" M 517.76 188.78 L 529.66 188.78 L 529.66 193.54 L 532.04 193.54 L 532.04 188.78 L 529.66 188.78 L 529.66 184.02 L 527.28 184.02 L 527.28 179.26 L 524.9 179.26 L 524.9 174.5 L 522.52 174.5 L 522.52 179.26 L 524.9 179.26 L 524.9 184.02 L 527.28 184.02 L 527.28 186.4 L 520.14 186.4 L 520.14 184.02 L 517.76 184.02 L 517.76 188.78 Z  M 515.38 193.54 L 517.76 193.54 L 517.76 188.78 L 515.38 188.78 L 515.38 193.54 Z  M 520.14 184.02 L 522.52 184.02 L 522.52 179.26 L 520.14 179.26 L 520.14 184.02 Z " fill-rule="evenodd" fill="rgb(255,255,255)"/><path d=" M 517.76 233.88 L 527.28 233.88 L 527.28 238.64 L 529.66 238.64 L 529.66 233.88 L 527.28 233.88 L 527.28 231.5 L 515.38 231.5 L 515.38 250.54 L 527.28 250.54 L 527.28 248.16 L 517.76 248.16 L 517.76 241.02 L 527.28 241.02 L 527.28 248.16 L 529.66 248.16 L 529.66 241.02 L 527.28 241.02 L 527.28 238.64 L 517.76 238.64 L 517.76 233.88 Z " fill="rgb(255,255,255)"/><path d=" M 527.28 305.16 L 517.76 305.16 L 517.76 290.88 L 515.38 290.88 L 515.38 305.16 L 517.76 305.16 L 517.76 307.54 L 527.28 307.54 L 527.28 305.16 Z  M 529.66 290.88 L 527.28 290.88 L 527.28 288.5 L 517.76 288.5 L 517.76 290.88 L 527.28 290.88 L 527.28 293.26 L 529.66 293.26 L 529.66 290.88 Z  M 529.66 302.78 L 527.28 302.78 L 527.28 305.16 L 529.66 305.16 L 529.66 302.78 Z " fill-rule="evenodd" fill="rgb(255,255,255)"/></g></g><g><g><g><path d=" M 413.6 148.38 L 420.74 148.38 L 420.74 155.52 L 423.12 155.52 L 423.12 148.38 L 420.74 148.38 L 420.74 146 L 413.6 146 L 413.6 148.38 Z  M 411.22 165.04 L 423.12 165.04 L 423.12 162.66 L 415.98 162.66 L 415.98 160.28 L 413.6 160.28 L 413.6 162.66 L 411.22 162.66 L 411.22 165.04 Z  M 415.98 160.28 L 418.36 160.28 L 418.36 157.9 L 415.98 157.9 L 415.98 160.28 Z  M 418.36 157.9 L 420.74 157.9 L 420.74 155.52 L 418.36 155.52 L 418.36 157.9 Z  M 411.22 150.76 L 413.6 150.76 L 413.6 148.38 L 411.22 148.38 L 411.22 150.76 Z " fill-rule="evenodd" fill="rgb(255,255,255)"/><path d=" M 392.24 162.66 L 394.62 162.66 L 394.62 155.52 L 392.24 155.52 L 392.24 153.14 L 385.1 153.14 L 385.1 155.52 L 392.24 155.52 L 392.24 162.66 Z  M 385.1 148.38 L 392.24 148.38 L 392.24 153.14 L 394.62 153.14 L 394.62 148.38 L 392.24 148.38 L 392.24 146 L 385.1 146 L 385.1 148.38 Z  M 382.72 162.66 L 385.1 162.66 L 385.1 165.04 L 392.24 165.04 L 392.24 162.66 L 385.1 162.66 L 385.1 160.28 L 382.72 160.28 L 382.72 162.66 Z  M 382.72 150.76 L 385.1 150.76 L 385.1 148.38 L 382.72 148.38 L 382.72 150.76 Z " fill-rule="evenodd" fill="rgb(255,255,255)"/></g><g><path d=" M 413.6 205.38 L 420.74 205.38 L 420.74 212.52 L 423.12 212.52 L 423.12 205.38 L 420.74 205.38 L 420.74 203 L 413.6 203 L 413.6 205.38 Z  M 411.22 222.04 L 423.12 222.04 L 423.12 219.66 L 415.98 219.66 L 415.98 217.28 L 413.6 217.28 L 413.6 219.66 L 411.22 219.66 L 411.22 222.04 Z  M 415.98 217.28 L 418.36 217.28 L 418.36 214.9 L 415.98 214.9 L 415.98 217.28 Z  M 418.36 214.9 L 420.74 214.9 L 420.74 212.52 L 418.36 212.52 L 418.36 214.9 Z  M 411.22 207.76 L 413.6 207.76 L 413.6 205.38 L 411.22 205.38 L 411.22 207.76 Z " fill-rule="evenodd" fill="rgb(255,255,255)"/><path d=" M 392.24 219.66 L 394.62 219.66 L 394.62 212.52 L 392.24 212.52 L 392.24 210.14 L 385.1 210.14 L 385.1 212.52 L 392.24 212.52 L 392.24 219.66 Z  M 385.1 205.38 L 392.24 205.38 L 392.24 210.14 L 394.62 210.14 L 394.62 205.38 L 392.24 205.38 L 392.24 203 L 385.1 203 L 385.1 205.38 Z  M 382.72 219.66 L 385.1 219.66 L 385.1 222.04 L 392.24 222.04 L 392.24 219.66 L 385.1 219.66 L 385.1 217.28 L 382.72 217.28 L 382.72 219.66 Z  M 382.72 207.76 L 385.1 207.76 L 385.1 205.38 L 382.72 205.38 L 382.72 207.76 Z " fill-rule="evenodd" fill="rgb(255,255,255)"/></g><g><path d=" M 413.6 262.38 L 420.74 262.38 L 420.74 269.52 L 423.12 269.52 L 423.12 262.38 L 420.74 262.38 L 420.74 260 L 413.6 260 L 413.6 262.38 Z  M 411.22 279.04 L 423.12 279.04 L 423.12 276.66 L 415.98 276.66 L 415.98 274.28 L 413.6 274.28 L 413.6 276.66 L 411.22 276.66 L 411.22 279.04 Z  M 415.98 274.28 L 418.36 274.28 L 418.36 271.9 L 415.98 271.9 L 415.98 274.28 Z  M 418.36 271.9 L 420.74 271.9 L 420.74 269.52 L 418.36 269.52 L 418.36 271.9 Z  M 411.22 264.76 L 413.6 264.76 L 413.6 262.38 L 411.22 262.38 L 411.22 264.76 Z " fill-rule="evenodd" fill="rgb(255,255,255)"/><path d=" M 392.24 276.66 L 394.62 276.66 L 394.62 269.52 L 392.24 269.52 L 392.24 267.14 L 385.1 267.14 L 385.1 269.52 L 392.24 269.52 L 392.24 276.66 Z  M 385.1 262.38 L 392.24 262.38 L 392.24 267.14 L 394.62 267.14 L 394.62 262.38 L 392.24 262.38 L 392.24 260 L 385.1 260 L 385.1 262.38 Z  M 382.72 276.66 L 385.1 276.66 L 385.1 279.04 L 392.24 279.04 L 392.24 276.66 L 385.1 276.66 L 385.1 274.28 L 382.72 274.28 L 382.72 276.66 Z  M 382.72 264.76 L 385.1 264.76 L 385.1 262.38 L 382.72 262.38 L 382.72 264.76 Z " fill-rule="evenodd" fill="rgb(255,255,255)"/></g></g><g><path d=" M 432.26 188.78 L 444.16 188.78 L 444.16 193.54 L 446.54 193.54 L 446.54 188.78 L 444.16 188.78 L 444.16 184.02 L 441.78 184.02 L 441.78 179.26 L 439.4 179.26 L 439.4 174.5 L 437.02 174.5 L 437.02 179.26 L 439.4 179.26 L 439.4 184.02 L 441.78 184.02 L 441.78 186.4 L 434.64 186.4 L 434.64 184.02 L 432.26 184.02 L 432.26 188.78 Z  M 429.88 193.54 L 432.26 193.54 L 432.26 188.78 L 429.88 188.78 L 429.88 193.54 Z  M 434.64 184.02 L 437.02 184.02 L 437.02 179.26 L 434.64 179.26 L 434.64 184.02 Z " fill-rule="evenodd" fill="rgb(255,255,255)"/><path d=" M 432.26 233.88 L 441.78 233.88 L 441.78 238.64 L 444.16 238.64 L 444.16 233.88 L 441.78 233.88 L 441.78 231.5 L 429.88 231.5 L 429.88 250.54 L 441.78 250.54 L 441.78 248.16 L 432.26 248.16 L 432.26 241.02 L 441.78 241.02 L 441.78 248.16 L 444.16 248.16 L 444.16 241.02 L 441.78 241.02 L 441.78 238.64 L 432.26 238.64 L 432.26 233.88 Z " fill="rgb(255,255,255)"/><path d=" M 441.78 305.16 L 432.26 305.16 L 432.26 290.88 L 429.88 290.88 L 429.88 305.16 L 432.26 305.16 L 432.26 307.54 L 441.78 307.54 L 441.78 305.16 Z  M 444.16 290.88 L 441.78 290.88 L 441.78 288.5 L 432.26 288.5 L 432.26 290.88 L 441.78 290.88 L 441.78 293.26 L 444.16 293.26 L 444.16 290.88 Z  M 444.16 302.78 L 441.78 302.78 L 441.78 305.16 L 444.16 305.16 L 444.16 302.78 Z " fill-rule="evenodd" fill="rgb(255,255,255)"/></g></g><g><g><g><path d=" M 301.98 150.76 L 304.36 150.76 L 304.36 157.9 L 299.6 157.9 L 299.6 155.52 L 297.22 155.52 L 297.22 160.28 L 304.36 160.28 L 304.36 165.04 L 306.74 165.04 L 306.74 160.28 L 309.12 160.28 L 309.12 157.9 L 306.74 157.9 L 306.74 146 L 304.36 146 L 304.36 148.38 L 301.98 148.38 L 301.98 150.76 Z  M 299.6 155.52 L 301.98 155.52 L 301.98 150.76 L 299.6 150.76 L 299.6 155.52 Z " fill-rule="evenodd" fill="rgb(255,255,255)"/><path d=" M 271.1 148.38 L 280.62 148.38 L 280.62 146 L 268.72 146 L 268.72 155.52 L 278.24 155.52 L 278.24 162.66 L 280.62 162.66 L 280.62 155.52 L 278.24 155.52 L 278.24 153.14 L 271.1 153.14 L 271.1 148.38 Z  M 268.72 162.66 L 271.1 162.66 L 271.1 165.04 L 278.24 165.04 L 278.24 162.66 L 271.1 162.66 L 271.1 160.28 L 268.72 160.28 L 268.72 162.66 Z " fill-rule="evenodd" fill="rgb(255,255,255)"/></g><g><path d=" M 301.98 207.76 L 304.36 207.76 L 304.36 214.9 L 299.6 214.9 L 299.6 212.52 L 297.22 212.52 L 297.22 217.28 L 304.36 217.28 L 304.36 222.04 L 306.74 222.04 L 306.74 217.28 L 309.12 217.28 L 309.12 214.9 L 306.74 214.9 L 306.74 203 L 304.36 203 L 304.36 205.38 L 301.98 205.38 L 301.98 207.76 Z  M 299.6 212.52 L 301.98 212.52 L 301.98 207.76 L 299.6 207.76 L 299.6 212.52 Z " fill-rule="evenodd" fill="rgb(255,255,255)"/><path d=" M 271.1 205.38 L 280.62 205.38 L 280.62 203 L 268.72 203 L 268.72 212.52 L 278.24 212.52 L 278.24 219.66 L 280.62 219.66 L 280.62 212.52 L 278.24 212.52 L 278.24 210.14 L 271.1 210.14 L 271.1 205.38 Z  M 268.72 219.66 L 271.1 219.66 L 271.1 222.04 L 278.24 222.04 L 278.24 219.66 L 271.1 219.66 L 271.1 217.28 L 268.72 217.28 L 268.72 219.66 Z " fill-rule="evenodd" fill="rgb(255,255,255)"/></g><g><path d=" M 301.98 264.76 L 304.36 264.76 L 304.36 271.9 L 299.6 271.9 L 299.6 269.52 L 297.22 269.52 L 297.22 274.28 L 304.36 274.28 L 304.36 279.04 L 306.74 279.04 L 306.74 274.28 L 309.12 274.28 L 309.12 271.9 L 306.74 271.9 L 306.74 260 L 304.36 260 L 304.36 262.38 L 301.98 262.38 L 301.98 264.76 Z  M 299.6 269.52 L 301.98 269.52 L 301.98 264.76 L 299.6 264.76 L 299.6 269.52 Z " fill-rule="evenodd" fill="rgb(255,255,255)"/><path d=" M 271.1 262.38 L 280.62 262.38 L 280.62 260 L 268.72 260 L 268.72 269.52 L 278.24 269.52 L 278.24 276.66 L 280.62 276.66 L 280.62 269.52 L 278.24 269.52 L 278.24 267.14 L 271.1 267.14 L 271.1 262.38 Z  M 268.72 276.66 L 271.1 276.66 L 271.1 279.04 L 278.24 279.04 L 278.24 276.66 L 271.1 276.66 L 271.1 274.28 L 268.72 274.28 L 268.72 276.66 Z " fill-rule="evenodd" fill="rgb(255,255,255)"/></g></g><g><path d=" M 318.26 188.78 L 330.16 188.78 L 330.16 193.54 L 332.54 193.54 L 332.54 188.78 L 330.16 188.78 L 330.16 184.02 L 327.78 184.02 L 327.78 179.26 L 325.4 179.26 L 325.4 174.5 L 323.02 174.5 L 323.02 179.26 L 325.4 179.26 L 325.4 184.02 L 327.78 184.02 L 327.78 186.4 L 320.64 186.4 L 320.64 184.02 L 318.26 184.02 L 318.26 188.78 Z  M 315.88 193.54 L 318.26 193.54 L 318.26 188.78 L 315.88 188.78 L 315.88 193.54 Z  M 320.64 184.02 L 323.02 184.02 L 323.02 179.26 L 320.64 179.26 L 320.64 184.02 Z " fill-rule="evenodd" fill="rgb(255,255,255)"/><path d=" M 318.26 233.88 L 327.78 233.88 L 327.78 238.64 L 330.16 238.64 L 330.16 233.88 L 327.78 233.88 L 327.78 231.5 L 315.88 231.5 L 315.88 250.54 L 327.78 250.54 L 327.78 248.16 L 318.26 248.16 L 318.26 241.02 L 327.78 241.02 L 327.78 248.16 L 330.16 248.16 L 330.16 241.02 L 327.78 241.02 L 327.78 238.64 L 318.26 238.64 L 318.26 233.88 Z " fill="rgb(255,255,255)"/><path d=" M 327.78 305.16 L 318.26 305.16 L 318.26 290.88 L 315.88 290.88 L 315.88 305.16 L 318.26 305.16 L 318.26 307.54 L 327.78 307.54 L 327.78 305.16 Z  M 330.16 290.88 L 327.78 290.88 L 327.78 288.5 L 318.26 288.5 L 318.26 290.88 L 327.78 290.88 L 327.78 293.26 L 330.16 293.26 L 330.16 290.88 Z  M 330.16 302.78 L 327.78 302.78 L 327.78 305.16 L 330.16 305.16 L 330.16 302.78 Z " fill-rule="evenodd" fill="rgb(255,255,255)"/></g></g><g><g><g><path d=" M 183.22 276.66 L 185.6 276.66 L 185.6 279.04 L 192.74 279.04 L 192.74 276.66 L 195.12 276.66 L 195.12 269.52 L 192.74 269.52 L 192.74 267.14 L 185.6 267.14 L 185.6 262.38 L 183.22 262.38 L 183.22 276.66 Z  M 192.74 276.66 L 185.6 276.66 L 185.6 269.52 L 192.74 269.52 L 192.74 276.66 Z  M 195.12 262.38 L 192.74 262.38 L 192.74 260 L 185.6 260 L 185.6 262.38 L 192.74 262.38 L 192.74 264.76 L 195.12 264.76 L 195.12 262.38 Z " fill-rule="evenodd" fill="rgb(255,255,255)"/><path d=" M 164.24 264.76 L 161.86 264.76 L 161.86 269.52 L 164.24 269.52 L 164.24 264.76 Z  M 161.86 269.52 L 159.48 269.52 L 159.48 274.28 L 161.86 274.28 L 161.86 269.52 Z  M 157.1 279.04 L 159.48 279.04 L 159.48 274.28 L 157.1 274.28 L 157.1 279.04 Z  M 154.72 262.38 L 164.24 262.38 L 164.24 264.76 L 166.62 264.76 L 166.62 260 L 154.72 260 L 154.72 262.38 Z " fill-rule="evenodd" fill="rgb(255,255,255)"/><path d=" M 135.74 276.66 L 138.12 276.66 L 138.12 269.52 L 135.74 269.52 L 135.74 267.14 L 128.6 267.14 L 128.6 262.38 L 126.22 262.38 L 126.22 267.14 L 128.6 267.14 L 128.6 269.52 L 135.74 269.52 L 135.74 276.66 Z  M 126.22 276.66 L 128.6 276.66 L 128.6 279.04 L 135.74 279.04 L 135.74 276.66 L 128.6 276.66 L 128.6 269.52 L 126.22 269.52 L 126.22 276.66 Z  M 128.6 262.38 L 135.74 262.38 L 135.74 267.14 L 138.12 267.14 L 138.12 262.38 L 135.74 262.38 L 135.74 260 L 128.6 260 L 128.6 262.38 Z " fill-rule="evenodd" fill="rgb(255,255,255)"/></g><g><path d=" M 183.22 162.66 L 185.6 162.66 L 185.6 165.04 L 192.74 165.04 L 192.74 162.66 L 195.12 162.66 L 195.12 155.52 L 192.74 155.52 L 192.74 153.14 L 185.6 153.14 L 185.6 148.38 L 183.22 148.38 L 183.22 162.66 Z  M 192.74 162.66 L 185.6 162.66 L 185.6 155.52 L 192.74 155.52 L 192.74 162.66 Z  M 195.12 148.38 L 192.74 148.38 L 192.74 146 L 185.6 146 L 185.6 148.38 L 192.74 148.38 L 192.74 150.76 L 195.12 150.76 L 195.12 148.38 Z " fill-rule="evenodd" fill="rgb(255,255,255)"/><path d=" M 164.24 150.76 L 161.86 150.76 L 161.86 155.52 L 164.24 155.52 L 164.24 150.76 Z  M 161.86 155.52 L 159.48 155.52 L 159.48 160.28 L 161.86 160.28 L 161.86 155.52 Z  M 157.1 165.04 L 159.48 165.04 L 159.48 160.28 L 157.1 160.28 L 157.1 165.04 Z  M 154.72 148.38 L 164.24 148.38 L 164.24 150.76 L 166.62 150.76 L 166.62 146 L 154.72 146 L 154.72 148.38 Z " fill-rule="evenodd" fill="rgb(255,255,255)"/><path d=" M 135.74 162.66 L 138.12 162.66 L 138.12 155.52 L 135.74 155.52 L 135.74 153.14 L 128.6 153.14 L 128.6 148.38 L 126.22 148.38 L 126.22 153.14 L 128.6 153.14 L 128.6 155.52 L 135.74 155.52 L 135.74 162.66 Z  M 126.22 162.66 L 128.6 162.66 L 128.6 165.04 L 135.74 165.04 L 135.74 162.66 L 128.6 162.66 L 128.6 155.52 L 126.22 155.52 L 126.22 162.66 Z  M 128.6 148.38 L 135.74 148.38 L 135.74 153.14 L 138.12 153.14 L 138.12 148.38 L 135.74 148.38 L 135.74 146 L 128.6 146 L 128.6 148.38 Z " fill-rule="evenodd" fill="rgb(255,255,255)"/><path d=" M 109.62 148.38 L 107.24 148.38 L 107.24 146 L 100.1 146 L 100.1 148.38 L 97.72 148.38 L 97.72 155.52 L 100.1 155.52 L 100.1 157.9 L 107.24 157.9 L 107.24 162.66 L 109.62 162.66 L 109.62 148.38 Z  M 100.1 148.38 L 107.24 148.38 L 107.24 155.52 L 100.1 155.52 L 100.1 148.38 Z  M 97.72 162.66 L 100.1 162.66 L 100.1 165.04 L 107.24 165.04 L 107.24 162.66 L 100.1 162.66 L 100.1 160.28 L 97.72 160.28 L 97.72 162.66 Z " fill-rule="evenodd" fill="rgb(255,255,255)"/></g><g><path d=" M 183.22 219.66 L 185.6 219.66 L 185.6 222.04 L 192.74 222.04 L 192.74 219.66 L 195.12 219.66 L 195.12 212.52 L 192.74 212.52 L 192.74 210.14 L 185.6 210.14 L 185.6 205.38 L 183.22 205.38 L 183.22 219.66 Z  M 192.74 219.66 L 185.6 219.66 L 185.6 212.52 L 192.74 212.52 L 192.74 219.66 Z  M 195.12 205.38 L 192.74 205.38 L 192.74 203 L 185.6 203 L 185.6 205.38 L 192.74 205.38 L 192.74 207.76 L 195.12 207.76 L 195.12 205.38 Z " fill-rule="evenodd" fill="rgb(255,255,255)"/><path d=" M 164.24 207.76 L 161.86 207.76 L 161.86 212.52 L 164.24 212.52 L 164.24 207.76 Z  M 161.86 212.52 L 159.48 212.52 L 159.48 217.28 L 161.86 217.28 L 161.86 212.52 Z  M 157.1 222.04 L 159.48 222.04 L 159.48 217.28 L 157.1 217.28 L 157.1 222.04 Z  M 154.72 205.38 L 164.24 205.38 L 164.24 207.76 L 166.62 207.76 L 166.62 203 L 154.72 203 L 154.72 205.38 Z " fill-rule="evenodd" fill="rgb(255,255,255)"/><path d=" M 135.74 219.66 L 138.12 219.66 L 138.12 212.52 L 135.74 212.52 L 135.74 210.14 L 128.6 210.14 L 128.6 205.38 L 126.22 205.38 L 126.22 210.14 L 128.6 210.14 L 128.6 212.52 L 135.74 212.52 L 135.74 219.66 Z  M 126.22 219.66 L 128.6 219.66 L 128.6 222.04 L 135.74 222.04 L 135.74 219.66 L 128.6 219.66 L 128.6 212.52 L 126.22 212.52 L 126.22 219.66 Z  M 128.6 205.38 L 135.74 205.38 L 135.74 210.14 L 138.12 210.14 L 138.12 205.38 L 135.74 205.38 L 135.74 203 L 128.6 203 L 128.6 205.38 Z " fill-rule="evenodd" fill="rgb(255,255,255)"/><path d=" M 109.62 205.38 L 107.24 205.38 L 107.24 203 L 100.1 203 L 100.1 205.38 L 97.72 205.38 L 97.72 212.52 L 100.1 212.52 L 100.1 214.9 L 107.24 214.9 L 107.24 219.66 L 109.62 219.66 L 109.62 205.38 Z  M 100.1 205.38 L 107.24 205.38 L 107.24 212.52 L 100.1 212.52 L 100.1 205.38 Z  M 97.72 219.66 L 100.1 219.66 L 100.1 222.04 L 107.24 222.04 L 107.24 219.66 L 100.1 219.66 L 100.1 217.28 L 97.72 217.28 L 97.72 219.66 Z " fill-rule="evenodd" fill="rgb(255,255,255)"/></g></g><g><path d=" M 204.26 188.78 L 216.16 188.78 L 216.16 193.54 L 218.54 193.54 L 218.54 188.78 L 216.16 188.78 L 216.16 184.02 L 213.78 184.02 L 213.78 179.26 L 211.4 179.26 L 211.4 174.5 L 209.02 174.5 L 209.02 179.26 L 211.4 179.26 L 211.4 184.02 L 213.78 184.02 L 213.78 186.4 L 206.64 186.4 L 206.64 184.02 L 204.26 184.02 L 204.26 188.78 Z  M 201.88 193.54 L 204.26 193.54 L 204.26 188.78 L 201.88 188.78 L 201.88 193.54 Z  M 206.64 184.02 L 209.02 184.02 L 209.02 179.26 L 206.64 179.26 L 206.64 184.02 Z " fill-rule="evenodd" fill="rgb(255,255,255)"/><path d=" M 204.26 233.88 L 213.78 233.88 L 213.78 238.64 L 216.16 238.64 L 216.16 233.88 L 213.78 233.88 L 213.78 231.5 L 201.88 231.5 L 201.88 250.54 L 213.78 250.54 L 213.78 248.16 L 204.26 248.16 L 204.26 241.02 L 213.78 241.02 L 213.78 248.16 L 216.16 248.16 L 216.16 241.02 L 213.78 241.02 L 213.78 238.64 L 204.26 238.64 L 204.26 233.88 Z " fill="rgb(255,255,255)"/><path d=" M 213.78 305.16 L 204.26 305.16 L 204.26 290.88 L 201.88 290.88 L 201.88 305.16 L 204.26 305.16 L 204.26 307.54 L 213.78 307.54 L 213.78 305.16 Z  M 216.16 290.88 L 213.78 290.88 L 213.78 288.5 L 204.26 288.5 L 204.26 290.88 L 213.78 290.88 L 213.78 293.26 L 216.16 293.26 L 216.16 290.88 Z  M 216.16 302.78 L 213.78 302.78 L 213.78 305.16 L 216.16 305.16 L 216.16 302.78 Z " fill-rule="evenodd" fill="rgb(255,255,255)"/></g></g><g><g><g><path d=" M 496.72 362.16 L 499.1 362.16 L 499.1 364.54 L 506.24 364.54 L 506.24 362.16 L 499.1 362.16 L 499.1 347.88 L 496.72 347.88 L 496.72 362.16 Z  M 499.1 347.88 L 506.24 347.88 L 506.24 362.16 L 508.62 362.16 L 508.62 347.88 L 506.24 347.88 L 506.24 345.5 L 499.1 345.5 L 499.1 347.88 Z " fill-rule="evenodd" fill="rgb(255,255,255)"/><path d=" M 480.12 362.16 L 475.36 362.16 L 475.36 345.5 L 472.98 345.5 L 472.98 347.88 L 468.22 347.88 L 468.22 350.26 L 472.98 350.26 L 472.98 362.16 L 468.22 362.16 L 468.22 364.54 L 480.12 364.54 L 480.12 362.16 Z " fill="rgb(255,255,255)"/></g><g><path d=" M 496.72 419.16 L 499.1 419.16 L 499.1 421.54 L 506.24 421.54 L 506.24 419.16 L 499.1 419.16 L 499.1 404.88 L 496.72 404.88 L 496.72 419.16 Z  M 499.1 404.88 L 506.24 404.88 L 506.24 419.16 L 508.62 419.16 L 508.62 404.88 L 506.24 404.88 L 506.24 402.5 L 499.1 402.5 L 499.1 404.88 Z " fill-rule="evenodd" fill="rgb(255,255,255)"/><path d=" M 480.12 419.16 L 475.36 419.16 L 475.36 402.5 L 472.98 402.5 L 472.98 404.88 L 468.22 404.88 L 468.22 407.26 L 472.98 407.26 L 472.98 419.16 L 468.22 419.16 L 468.22 421.54 L 480.12 421.54 L 480.12 419.16 Z " fill="rgb(255,255,255)"/></g><g><path d=" M 496.72 476.16 L 499.1 476.16 L 499.1 478.54 L 506.24 478.54 L 506.24 476.16 L 499.1 476.16 L 499.1 461.88 L 496.72 461.88 L 496.72 476.16 Z  M 499.1 461.88 L 506.24 461.88 L 506.24 476.16 L 508.62 476.16 L 508.62 461.88 L 506.24 461.88 L 506.24 459.5 L 499.1 459.5 L 499.1 461.88 Z " fill-rule="evenodd" fill="rgb(255,255,255)"/><path d=" M 480.12 476.16 L 475.36 476.16 L 475.36 459.5 L 472.98 459.5 L 472.98 461.88 L 468.22 461.88 L 468.22 464.26 L 472.98 464.26 L 472.98 476.16 L 468.22 476.16 L 468.22 478.54 L 480.12 478.54 L 480.12 476.16 Z " fill="rgb(255,255,255)"/></g></g><g><path d=" M 524.9 378.76 L 527.28 378.76 L 527.28 388.28 L 529.66 388.28 L 529.66 378.76 L 527.28 378.76 L 527.28 376.38 L 524.9 376.38 L 524.9 374 L 515.38 374 L 515.38 393.04 L 524.9 393.04 L 524.9 390.66 L 517.76 390.66 L 517.76 376.38 L 524.9 376.38 L 524.9 378.76 Z  M 524.9 390.66 L 527.28 390.66 L 527.28 388.28 L 524.9 388.28 L 524.9 390.66 Z " fill-rule="evenodd" fill="rgb(255,255,255)"/><path d=" M 517.76 440.52 L 527.28 440.52 L 527.28 438.14 L 517.76 438.14 L 517.76 433.38 L 527.28 433.38 L 527.28 431 L 515.38 431 L 515.38 450.04 L 527.28 450.04 L 527.28 447.66 L 517.76 447.66 L 517.76 440.52 Z " fill="rgb(255,255,255)"/><path d=" M 517.76 497.52 L 527.28 497.52 L 527.28 495.14 L 517.76 495.14 L 517.76 490.38 L 527.28 490.38 L 527.28 488 L 515.38 488 L 515.38 507.04 L 517.76 507.04 L 517.76 497.52 Z " fill="rgb(255,255,255)"/></g></g><g><g><g><path d=" M 413.6 347.88 L 420.74 347.88 L 420.74 355.02 L 423.12 355.02 L 423.12 347.88 L 420.74 347.88 L 420.74 345.5 L 413.6 345.5 L 413.6 347.88 Z  M 411.22 364.54 L 423.12 364.54 L 423.12 362.16 L 415.98 362.16 L 415.98 359.78 L 413.6 359.78 L 413.6 362.16 L 411.22 362.16 L 411.22 364.54 Z  M 415.98 359.78 L 418.36 359.78 L 418.36 357.4 L 415.98 357.4 L 415.98 359.78 Z  M 418.36 357.4 L 420.74 357.4 L 420.74 355.02 L 418.36 355.02 L 418.36 357.4 Z  M 411.22 350.26 L 413.6 350.26 L 413.6 347.88 L 411.22 347.88 L 411.22 350.26 Z " fill-rule="evenodd" fill="rgb(255,255,255)"/><path d=" M 392.24 362.16 L 394.62 362.16 L 394.62 355.02 L 392.24 355.02 L 392.24 352.64 L 385.1 352.64 L 385.1 355.02 L 392.24 355.02 L 392.24 362.16 Z  M 385.1 347.88 L 392.24 347.88 L 392.24 352.64 L 394.62 352.64 L 394.62 347.88 L 392.24 347.88 L 392.24 345.5 L 385.1 345.5 L 385.1 347.88 Z  M 382.72 362.16 L 385.1 362.16 L 385.1 364.54 L 392.24 364.54 L 392.24 362.16 L 385.1 362.16 L 385.1 359.78 L 382.72 359.78 L 382.72 362.16 Z  M 382.72 350.26 L 385.1 350.26 L 385.1 347.88 L 382.72 347.88 L 382.72 350.26 Z " fill-rule="evenodd" fill="rgb(255,255,255)"/></g><g><path d=" M 413.6 404.88 L 420.74 404.88 L 420.74 412.02 L 423.12 412.02 L 423.12 404.88 L 420.74 404.88 L 420.74 402.5 L 413.6 402.5 L 413.6 404.88 Z  M 411.22 421.54 L 423.12 421.54 L 423.12 419.16 L 415.98 419.16 L 415.98 416.78 L 413.6 416.78 L 413.6 419.16 L 411.22 419.16 L 411.22 421.54 Z  M 415.98 416.78 L 418.36 416.78 L 418.36 414.4 L 415.98 414.4 L 415.98 416.78 Z  M 418.36 414.4 L 420.74 414.4 L 420.74 412.02 L 418.36 412.02 L 418.36 414.4 Z  M 411.22 407.26 L 413.6 407.26 L 413.6 404.88 L 411.22 404.88 L 411.22 407.26 Z " fill-rule="evenodd" fill="rgb(255,255,255)"/><path d=" M 392.24 419.16 L 394.62 419.16 L 394.62 412.02 L 392.24 412.02 L 392.24 409.64 L 385.1 409.64 L 385.1 412.02 L 392.24 412.02 L 392.24 419.16 Z  M 385.1 404.88 L 392.24 404.88 L 392.24 409.64 L 394.62 409.64 L 394.62 404.88 L 392.24 404.88 L 392.24 402.5 L 385.1 402.5 L 385.1 404.88 Z  M 382.72 419.16 L 385.1 419.16 L 385.1 421.54 L 392.24 421.54 L 392.24 419.16 L 385.1 419.16 L 385.1 416.78 L 382.72 416.78 L 382.72 419.16 Z  M 382.72 407.26 L 385.1 407.26 L 385.1 404.88 L 382.72 404.88 L 382.72 407.26 Z " fill-rule="evenodd" fill="rgb(255,255,255)"/></g><g><path d=" M 413.6 461.88 L 420.74 461.88 L 420.74 469.02 L 423.12 469.02 L 423.12 461.88 L 420.74 461.88 L 420.74 459.5 L 413.6 459.5 L 413.6 461.88 Z  M 411.22 478.54 L 423.12 478.54 L 423.12 476.16 L 415.98 476.16 L 415.98 473.78 L 413.6 473.78 L 413.6 476.16 L 411.22 476.16 L 411.22 478.54 Z  M 415.98 473.78 L 418.36 473.78 L 418.36 471.4 L 415.98 471.4 L 415.98 473.78 Z  M 418.36 471.4 L 420.74 471.4 L 420.74 469.02 L 418.36 469.02 L 418.36 471.4 Z  M 411.22 464.26 L 413.6 464.26 L 413.6 461.88 L 411.22 461.88 L 411.22 464.26 Z " fill-rule="evenodd" fill="rgb(255,255,255)"/><path d=" M 392.24 476.16 L 394.62 476.16 L 394.62 469.02 L 392.24 469.02 L 392.24 466.64 L 385.1 466.64 L 385.1 469.02 L 392.24 469.02 L 392.24 476.16 Z  M 385.1 461.88 L 392.24 461.88 L 392.24 466.64 L 394.62 466.64 L 394.62 461.88 L 392.24 461.88 L 392.24 459.5 L 385.1 459.5 L 385.1 461.88 Z  M 382.72 476.16 L 385.1 476.16 L 385.1 478.54 L 392.24 478.54 L 392.24 476.16 L 385.1 476.16 L 385.1 473.78 L 382.72 473.78 L 382.72 476.16 Z  M 382.72 464.26 L 385.1 464.26 L 385.1 461.88 L 382.72 461.88 L 382.72 464.26 Z " fill-rule="evenodd" fill="rgb(255,255,255)"/></g></g><g><path d=" M 439.4 378.76 L 441.78 378.76 L 441.78 388.28 L 444.16 388.28 L 444.16 378.76 L 441.78 378.76 L 441.78 376.38 L 439.4 376.38 L 439.4 374 L 429.88 374 L 429.88 393.04 L 439.4 393.04 L 439.4 390.66 L 432.26 390.66 L 432.26 376.38 L 439.4 376.38 L 439.4 378.76 Z  M 439.4 390.66 L 441.78 390.66 L 441.78 388.28 L 439.4 388.28 L 439.4 390.66 Z " fill-rule="evenodd" fill="rgb(255,255,255)"/><path d=" M 432.26 440.52 L 441.78 440.52 L 441.78 438.14 L 432.26 438.14 L 432.26 433.38 L 441.78 433.38 L 441.78 431 L 429.88 431 L 429.88 450.04 L 441.78 450.04 L 441.78 447.66 L 432.26 447.66 L 432.26 440.52 Z " fill="rgb(255,255,255)"/><path d=" M 432.26 497.52 L 441.78 497.52 L 441.78 495.14 L 432.26 495.14 L 432.26 490.38 L 441.78 490.38 L 441.78 488 L 429.88 488 L 429.88 507.04 L 432.26 507.04 L 432.26 497.52 Z " fill="rgb(255,255,255)"/></g></g><g><g><g><path d=" M 273.48 350.26 L 275.86 350.26 L 275.86 357.4 L 271.1 357.4 L 271.1 355.02 L 268.72 355.02 L 268.72 359.78 L 275.86 359.78 L 275.86 364.54 L 278.24 364.54 L 278.24 359.78 L 280.62 359.78 L 280.62 357.4 L 278.24 357.4 L 278.24 345.5 L 275.86 345.5 L 275.86 347.88 L 273.48 347.88 L 273.48 350.26 Z  M 271.1 355.02 L 273.48 355.02 L 273.48 350.26 L 271.1 350.26 L 271.1 355.02 Z " fill-rule="evenodd" fill="rgb(255,255,255)"/><path d=" M 242.6 347.88 L 252.12 347.88 L 252.12 345.5 L 240.22 345.5 L 240.22 355.02 L 249.74 355.02 L 249.74 362.16 L 252.12 362.16 L 252.12 355.02 L 249.74 355.02 L 249.74 352.64 L 242.6 352.64 L 242.6 347.88 Z  M 240.22 362.16 L 242.6 362.16 L 242.6 364.54 L 249.74 364.54 L 249.74 362.16 L 242.6 362.16 L 242.6 359.78 L 240.22 359.78 L 240.22 362.16 Z " fill-rule="evenodd" fill="rgb(255,255,255)"/><path d=" M 211.72 362.16 L 214.1 362.16 L 214.1 364.54 L 221.24 364.54 L 221.24 362.16 L 223.62 362.16 L 223.62 355.02 L 221.24 355.02 L 221.24 352.64 L 214.1 352.64 L 214.1 347.88 L 211.72 347.88 L 211.72 362.16 Z  M 221.24 362.16 L 214.1 362.16 L 214.1 355.02 L 221.24 355.02 L 221.24 362.16 Z  M 223.62 347.88 L 221.24 347.88 L 221.24 345.5 L 214.1 345.5 L 214.1 347.88 L 221.24 347.88 L 221.24 350.26 L 223.62 350.26 L 223.62 347.88 Z " fill-rule="evenodd" fill="rgb(255,255,255)"/></g><g><path d=" M 273.48 407.26 L 275.86 407.26 L 275.86 414.4 L 271.1 414.4 L 271.1 412.02 L 268.72 412.02 L 268.72 416.78 L 275.86 416.78 L 275.86 421.54 L 278.24 421.54 L 278.24 416.78 L 280.62 416.78 L 280.62 414.4 L 278.24 414.4 L 278.24 402.5 L 275.86 402.5 L 275.86 404.88 L 273.48 404.88 L 273.48 407.26 Z  M 271.1 412.02 L 273.48 412.02 L 273.48 407.26 L 271.1 407.26 L 271.1 412.02 Z " fill-rule="evenodd" fill="rgb(255,255,255)"/><path d=" M 242.6 404.88 L 252.12 404.88 L 252.12 402.5 L 240.22 402.5 L 240.22 412.02 L 249.74 412.02 L 249.74 419.16 L 252.12 419.16 L 252.12 412.02 L 249.74 412.02 L 249.74 409.64 L 242.6 409.64 L 242.6 404.88 Z  M 240.22 419.16 L 242.6 419.16 L 242.6 421.54 L 249.74 421.54 L 249.74 419.16 L 242.6 419.16 L 242.6 416.78 L 240.22 416.78 L 240.22 419.16 Z " fill-rule="evenodd" fill="rgb(255,255,255)"/><path d=" M 211.72 419.16 L 214.1 419.16 L 214.1 421.54 L 221.24 421.54 L 221.24 419.16 L 223.62 419.16 L 223.62 412.02 L 221.24 412.02 L 221.24 409.64 L 214.1 409.64 L 214.1 404.88 L 211.72 404.88 L 211.72 419.16 Z  M 221.24 419.16 L 214.1 419.16 L 214.1 412.02 L 221.24 412.02 L 221.24 419.16 Z  M 223.62 404.88 L 221.24 404.88 L 221.24 402.5 L 214.1 402.5 L 214.1 404.88 L 221.24 404.88 L 221.24 407.26 L 223.62 407.26 L 223.62 404.88 Z " fill-rule="evenodd" fill="rgb(255,255,255)"/></g><g><path d=" M 273.48 464.26 L 275.86 464.26 L 275.86 471.4 L 271.1 471.4 L 271.1 469.02 L 268.72 469.02 L 268.72 473.78 L 275.86 473.78 L 275.86 478.54 L 278.24 478.54 L 278.24 473.78 L 280.62 473.78 L 280.62 471.4 L 278.24 471.4 L 278.24 459.5 L 275.86 459.5 L 275.86 461.88 L 273.48 461.88 L 273.48 464.26 Z  M 271.1 469.02 L 273.48 469.02 L 273.48 464.26 L 271.1 464.26 L 271.1 469.02 Z " fill-rule="evenodd" fill="rgb(255,255,255)"/><path d=" M 242.6 461.88 L 252.12 461.88 L 252.12 459.5 L 240.22 459.5 L 240.22 469.02 L 249.74 469.02 L 249.74 476.16 L 252.12 476.16 L 252.12 469.02 L 249.74 469.02 L 249.74 466.64 L 242.6 466.64 L 242.6 461.88 Z  M 240.22 476.16 L 242.6 476.16 L 242.6 478.54 L 249.74 478.54 L 249.74 476.16 L 242.6 476.16 L 242.6 473.78 L 240.22 473.78 L 240.22 476.16 Z " fill-rule="evenodd" fill="rgb(255,255,255)"/><path d=" M 211.72 476.16 L 214.1 476.16 L 214.1 478.54 L 221.24 478.54 L 221.24 476.16 L 223.62 476.16 L 223.62 469.02 L 221.24 469.02 L 221.24 466.64 L 214.1 466.64 L 214.1 461.88 L 211.72 461.88 L 211.72 476.16 Z  M 221.24 476.16 L 214.1 476.16 L 214.1 469.02 L 221.24 469.02 L 221.24 476.16 Z  M 223.62 461.88 L 221.24 461.88 L 221.24 459.5 L 214.1 459.5 L 214.1 461.88 L 221.24 461.88 L 221.24 464.26 L 223.62 464.26 L 223.62 461.88 Z " fill-rule="evenodd" fill="rgb(255,255,255)"/></g></g><g><path d=" M 296.9 378.76 L 299.28 378.76 L 299.28 388.28 L 301.66 388.28 L 301.66 378.76 L 299.28 378.76 L 299.28 376.38 L 296.9 376.38 L 296.9 374 L 287.38 374 L 287.38 393.04 L 296.9 393.04 L 296.9 390.66 L 289.76 390.66 L 289.76 376.38 L 296.9 376.38 L 296.9 378.76 Z  M 296.9 390.66 L 299.28 390.66 L 299.28 388.28 L 296.9 388.28 L 296.9 390.66 Z " fill-rule="evenodd" fill="rgb(255,255,255)"/><path d=" M 289.76 440.52 L 299.28 440.52 L 299.28 438.14 L 289.76 438.14 L 289.76 433.38 L 299.28 433.38 L 299.28 431 L 287.38 431 L 287.38 450.04 L 299.28 450.04 L 299.28 447.66 L 289.76 447.66 L 289.76 440.52 Z " fill="rgb(255,255,255)"/><path d=" M 289.76 497.52 L 299.28 497.52 L 299.28 495.14 L 289.76 495.14 L 289.76 490.38 L 299.28 490.38 L 299.28 488 L 287.38 488 L 287.38 507.04 L 289.76 507.04 L 289.76 497.52 Z " fill="rgb(255,255,255)"/></g></g><g><g><g><path d=" M 164.24 350.26 L 161.86 350.26 L 161.86 355.02 L 164.24 355.02 L 164.24 350.26 Z  M 161.86 355.02 L 159.48 355.02 L 159.48 359.78 L 161.86 359.78 L 161.86 355.02 Z  M 157.1 364.54 L 159.48 364.54 L 159.48 359.78 L 157.1 359.78 L 157.1 364.54 Z  M 154.72 347.88 L 164.24 347.88 L 164.24 350.26 L 166.62 350.26 L 166.62 345.5 L 154.72 345.5 L 154.72 347.88 Z " fill-rule="evenodd" fill="rgb(255,255,255)"/><path d=" M 135.74 362.16 L 138.12 362.16 L 138.12 355.02 L 135.74 355.02 L 135.74 352.64 L 128.6 352.64 L 128.6 347.88 L 126.22 347.88 L 126.22 352.64 L 128.6 352.64 L 128.6 355.02 L 135.74 355.02 L 135.74 362.16 Z  M 126.22 362.16 L 128.6 362.16 L 128.6 364.54 L 135.74 364.54 L 135.74 362.16 L 128.6 362.16 L 128.6 355.02 L 126.22 355.02 L 126.22 362.16 Z  M 128.6 347.88 L 135.74 347.88 L 135.74 352.64 L 138.12 352.64 L 138.12 347.88 L 135.74 347.88 L 135.74 345.5 L 128.6 345.5 L 128.6 347.88 Z " fill-rule="evenodd" fill="rgb(255,255,255)"/></g><g><path d=" M 164.24 464.26 L 161.86 464.26 L 161.86 469.02 L 164.24 469.02 L 164.24 464.26 Z  M 161.86 469.02 L 159.48 469.02 L 159.48 473.78 L 161.86 473.78 L 161.86 469.02 Z  M 157.1 478.54 L 159.48 478.54 L 159.48 473.78 L 157.1 473.78 L 157.1 478.54 Z  M 154.72 461.88 L 164.24 461.88 L 164.24 464.26 L 166.62 464.26 L 166.62 459.5 L 154.72 459.5 L 154.72 461.88 Z " fill-rule="evenodd" fill="rgb(255,255,255)"/><path d=" M 135.74 476.16 L 138.12 476.16 L 138.12 469.02 L 135.74 469.02 L 135.74 466.64 L 128.6 466.64 L 128.6 461.88 L 126.22 461.88 L 126.22 466.64 L 128.6 466.64 L 128.6 469.02 L 135.74 469.02 L 135.74 476.16 Z  M 126.22 476.16 L 128.6 476.16 L 128.6 478.54 L 135.74 478.54 L 135.74 476.16 L 128.6 476.16 L 128.6 469.02 L 126.22 469.02 L 126.22 476.16 Z  M 128.6 461.88 L 135.74 461.88 L 135.74 466.64 L 138.12 466.64 L 138.12 461.88 L 135.74 461.88 L 135.74 459.5 L 128.6 459.5 L 128.6 461.88 Z " fill-rule="evenodd" fill="rgb(255,255,255)"/><path d=" M 109.62 461.88 L 107.24 461.88 L 107.24 459.5 L 100.1 459.5 L 100.1 461.88 L 97.72 461.88 L 97.72 469.02 L 100.1 469.02 L 100.1 471.4 L 107.24 471.4 L 107.24 476.16 L 109.62 476.16 L 109.62 461.88 Z  M 100.1 461.88 L 107.24 461.88 L 107.24 469.02 L 100.1 469.02 L 100.1 461.88 Z  M 97.72 476.16 L 100.1 476.16 L 100.1 478.54 L 107.24 478.54 L 107.24 476.16 L 100.1 476.16 L 100.1 473.78 L 97.72 473.78 L 97.72 476.16 Z " fill-rule="evenodd" fill="rgb(255,255,255)"/></g><g><path d=" M 164.24 407.26 L 161.86 407.26 L 161.86 412.02 L 164.24 412.02 L 164.24 407.26 Z  M 161.86 412.02 L 159.48 412.02 L 159.48 416.78 L 161.86 416.78 L 161.86 412.02 Z  M 157.1 421.54 L 159.48 421.54 L 159.48 416.78 L 157.1 416.78 L 157.1 421.54 Z  M 154.72 404.88 L 164.24 404.88 L 164.24 407.26 L 166.62 407.26 L 166.62 402.5 L 154.72 402.5 L 154.72 404.88 Z " fill-rule="evenodd" fill="rgb(255,255,255)"/><path d=" M 135.74 419.16 L 138.12 419.16 L 138.12 412.02 L 135.74 412.02 L 135.74 409.64 L 128.6 409.64 L 128.6 404.88 L 126.22 404.88 L 126.22 409.64 L 128.6 409.64 L 128.6 412.02 L 135.74 412.02 L 135.74 419.16 Z  M 126.22 419.16 L 128.6 419.16 L 128.6 421.54 L 135.74 421.54 L 135.74 419.16 L 128.6 419.16 L 128.6 412.02 L 126.22 412.02 L 126.22 419.16 Z  M 128.6 404.88 L 135.74 404.88 L 135.74 409.64 L 138.12 409.64 L 138.12 404.88 L 135.74 404.88 L 135.74 402.5 L 128.6 402.5 L 128.6 404.88 Z " fill-rule="evenodd" fill="rgb(255,255,255)"/><path d=" M 109.62 404.88 L 107.24 404.88 L 107.24 402.5 L 100.1 402.5 L 100.1 404.88 L 97.72 404.88 L 97.72 412.02 L 100.1 412.02 L 100.1 414.4 L 107.24 414.4 L 107.24 419.16 L 109.62 419.16 L 109.62 404.88 Z  M 100.1 404.88 L 107.24 404.88 L 107.24 412.02 L 100.1 412.02 L 100.1 404.88 Z  M 97.72 419.16 L 100.1 419.16 L 100.1 421.54 L 107.24 421.54 L 107.24 419.16 L 100.1 419.16 L 100.1 416.78 L 97.72 416.78 L 97.72 419.16 Z " fill-rule="evenodd" fill="rgb(255,255,255)"/></g></g><g><path d=" M 182.9 378.76 L 185.28 378.76 L 185.28 388.28 L 187.66 388.28 L 187.66 378.76 L 185.28 378.76 L 185.28 376.38 L 182.9 376.38 L 182.9 374 L 173.38 374 L 173.38 393.04 L 182.9 393.04 L 182.9 390.66 L 175.76 390.66 L 175.76 376.38 L 182.9 376.38 L 182.9 378.76 Z  M 182.9 390.66 L 185.28 390.66 L 185.28 388.28 L 182.9 388.28 L 182.9 390.66 Z " fill-rule="evenodd" fill="rgb(255,255,255)"/><path d=" M 175.76 440.52 L 185.28 440.52 L 185.28 438.14 L 175.76 438.14 L 175.76 433.38 L 185.28 433.38 L 185.28 431 L 173.38 431 L 173.38 450.04 L 185.28 450.04 L 185.28 447.66 L 175.76 447.66 L 175.76 440.52 Z " fill="rgb(255,255,255)"/><path d=" M 175.76 497.52 L 185.28 497.52 L 185.28 495.14 L 175.76 495.14 L 175.76 490.38 L 185.28 490.38 L 185.28 488 L 173.38 488 L 173.38 507.04 L 175.76 507.04 L 175.76 497.52 Z " fill="rgb(255,255,255)"/></g></g></g></svg>
