<?xml version="1.0" encoding="UTF-8" standalone="no"?>
<!-- Generator: Gravit.io -->
<svg xmlns="http://www.w3.org/2000/svg" xmlns:xlink="http://www.w3.org/1999/xlink" style="isolation:isolate" viewBox="0 0 684 684" preserveAspectRatio="xMinYMin"><defs><clipPath id="_clipPath_b3y96G3M1x9mfKtwzm1BtRKg4PSaGu3A"><rect width="684" height="684"/></clipPath></defs><g clip-path="url(#_clipPath_b3y96G3M1x9mfKtwzm1BtRKg4PSaGu3A)"><g><g><rect x="0" y="0" width="684" height="684" transform="matrix(0,-1,1,0,0,684)" fill="rgb(26,188,233)"/></g><rect x="0" y="114" width="684" height="456" transform="matrix(0,-1,1,0,0,684)" fill="rgb(255,255,255)"/><path d=" M 142.5 655.5 L 313.5 655.5 L 313.5 684 L 370.5 684 L 370.5 655.5 L 541.5 655.5 L 541.5 583.712 L 541.5 399 L 570 399 L 570 313.5 L 541.5 313.5 L 541.5 28.5 L 142.5 28.5 L 142.5 655.5 Z " fill="rgb(239,29,19)"/><g><g><rect x="128.25" y="527.25" width="114" height="28.5" transform="matrix(0,-1,1,0,-356.25,726.75)" fill="rgb(0,0,0)"/><rect x="185.25" y="527.25" width="114" height="28.5" transform="matrix(0,-1,1,0,-299.25,783.75)" fill="rgb(0,0,0)"/><rect x="256.5" y="513" width="85.5" height="28.5" transform="matrix(0,-1,1,0,-228,826.5)" fill="rgb(0,0,0)"/><rect x="356.25" y="527.25" width="57" height="28.5" transform="matrix(0,-1,1,0,-156.75,926.25)" fill="rgb(0,0,0)"/><rect x="399" y="541.5" width="85.5" height="28.5" transform="matrix(0,-1,1,0,-114,997.5)" fill="rgb(0,0,0)"/><rect x="456" y="541.5" width="85.5" height="28.5" transform="matrix(0,-1,1,0,-57,1054.5)" fill="rgb(0,0,0)"/></g><g><rect x="156.75" y="384.75" width="57" height="28.5" transform="matrix(0,-1,1,0,-213.75,584.25)" fill="rgb(0,0,0)"/><rect x="213.75" y="384.75" width="57" height="28.5" transform="matrix(0,-1,1,0,-156.75,641.25)" fill="rgb(0,0,0)"/><rect x="270.75" y="384.75" width="57" height="28.5" transform="matrix(0,-1,1,0,-99.75,698.25)" fill="rgb(0,0,0)"/><rect x="342" y="427.5" width="85.5" height="28.5" transform="matrix(0,-1,1,0,-57,826.5)" fill="rgb(0,0,0)"/><g><rect x="399" y="427.5" width="85.5" height="28.5" transform="matrix(0,-1,1,0,0,883.5)" fill="rgb(0,0,0)"/><rect x="456" y="427.5" width="85.5" height="28.5" transform="matrix(0,-1,1,0,57,940.5)" fill="rgb(0,0,0)"/></g></g><g><rect x="156.75" y="270.75" width="57" height="28.5" transform="matrix(0,-1,1,0,-99.75,470.25)" fill="rgb(0,0,0)"/><rect x="213.75" y="270.75" width="57" height="28.5" transform="matrix(0,-1,1,0,-42.75,527.25)" fill="rgb(0,0,0)"/><rect x="270.75" y="270.75" width="57" height="28.5" transform="matrix(0,-1,1,0,14.25,584.25)" fill="rgb(0,0,0)"/><rect x="356.25" y="270.75" width="57" height="28.5" transform="matrix(0,-1,1,0,99.75,669.75)" fill="rgb(0,0,0)"/><rect x="413.25" y="270.75" width="57" height="28.5" transform="matrix(0,-1,1,0,156.75,726.75)" fill="rgb(0,0,0)"/><rect x="470.25" y="270.75" width="57" height="28.5" transform="matrix(0,-1,1,0,213.75,783.75)" fill="rgb(0,0,0)"/></g><g><rect x="156.75" y="185.25" width="57" height="28.5" transform="matrix(0,-1,1,0,-14.25,384.75)" fill="rgb(0,0,0)"/><rect x="213.75" y="185.25" width="57" height="28.5" transform="matrix(0,-1,1,0,42.75,441.75)" fill="rgb(0,0,0)"/><rect x="270.75" y="185.25" width="57" height="28.5" transform="matrix(0,-1,1,0,99.75,498.75)" fill="rgb(0,0,0)"/><rect x="413.25" y="185.25" width="57" height="28.5" transform="matrix(0,-1,1,0,242.25,641.25)" fill="rgb(0,0,0)"/><rect x="356.25" y="185.25" width="57" height="28.5" transform="matrix(0,-1,1,0,185.25,584.25)" fill="rgb(0,0,0)"/><rect x="470.25" y="185.25" width="57" height="28.5" transform="matrix(0,-1,1,0,299.25,698.25)" fill="rgb(0,0,0)"/></g></g><rect x="327.75" y="99.75" width="28.5" height="57" transform="matrix(0,-1,1,0,213.75,470.25)" fill="rgb(0,0,0)"/><rect x="299.25" y="-128.25" width="85.5" height="399" transform="matrix(0,-1,1,0,270.75,413.25)" fill="rgb(0,0,0)"/><g><rect x="242.25" y="584.25" width="28.5" height="114" transform="matrix(0,-1,1,0,-384.75,897.75)" fill="rgb(0,0,0)"/></g><g><rect x="413.25" y="584.25" width="28.5" height="114" transform="matrix(0,-1,1,0,-213.75,1068.75)" fill="rgb(0,0,0)"/></g></g><g><g><g><g><path d=" M 354.22 191.16 L 356.6 191.16 L 356.6 193.54 L 363.74 193.54 L 363.74 191.16 L 356.6 191.16 L 356.6 176.88 L 354.22 176.88 L 354.22 191.16 Z  M 356.6 176.88 L 363.74 176.88 L 363.74 191.16 L 366.12 191.16 L 366.12 176.88 L 363.74 176.88 L 363.74 174.5 L 356.6 174.5 L 356.6 176.88 Z " fill-rule="evenodd" fill="rgb(255,255,255)"/><path d=" M 366.12 219.66 L 361.36 219.66 L 361.36 203 L 358.98 203 L 358.98 205.38 L 354.22 205.38 L 354.22 207.76 L 358.98 207.76 L 358.98 219.66 L 354.22 219.66 L 354.22 222.04 L 366.12 222.04 L 366.12 219.66 Z " fill="rgb(255,255,255)"/></g><g><path d=" M 411.22 191.16 L 413.6 191.16 L 413.6 193.54 L 420.74 193.54 L 420.74 191.16 L 413.6 191.16 L 413.6 176.88 L 411.22 176.88 L 411.22 191.16 Z  M 413.6 176.88 L 420.74 176.88 L 420.74 191.16 L 423.12 191.16 L 423.12 176.88 L 420.74 176.88 L 420.74 174.5 L 413.6 174.5 L 413.6 176.88 Z " fill-rule="evenodd" fill="rgb(255,255,255)"/><path d=" M 423.12 219.66 L 418.36 219.66 L 418.36 203 L 415.98 203 L 415.98 205.38 L 411.22 205.38 L 411.22 207.76 L 415.98 207.76 L 415.98 219.66 L 411.22 219.66 L 411.22 222.04 L 423.12 222.04 L 423.12 219.66 Z " fill="rgb(255,255,255)"/></g><g><path d=" M 468.22 191.16 L 470.6 191.16 L 470.6 193.54 L 477.74 193.54 L 477.74 191.16 L 470.6 191.16 L 470.6 176.88 L 468.22 176.88 L 468.22 191.16 Z  M 470.6 176.88 L 477.74 176.88 L 477.74 191.16 L 480.12 191.16 L 480.12 176.88 L 477.74 176.88 L 477.74 174.5 L 470.6 174.5 L 470.6 176.88 Z " fill-rule="evenodd" fill="rgb(255,255,255)"/><path d=" M 480.12 219.66 L 475.36 219.66 L 475.36 203 L 472.98 203 L 472.98 205.38 L 468.22 205.38 L 468.22 207.76 L 472.98 207.76 L 472.98 219.66 L 468.22 219.66 L 468.22 222.04 L 480.12 222.04 L 480.12 219.66 Z " fill="rgb(255,255,255)"/></g></g><g><path d=" M 382.4 150.76 L 384.78 150.76 L 384.78 160.28 L 387.16 160.28 L 387.16 150.76 L 384.78 150.76 L 384.78 148.38 L 382.4 148.38 L 382.4 146 L 372.88 146 L 372.88 165.04 L 382.4 165.04 L 382.4 162.66 L 375.26 162.66 L 375.26 148.38 L 382.4 148.38 L 382.4 150.76 Z  M 382.4 162.66 L 384.78 162.66 L 384.78 160.28 L 382.4 160.28 L 382.4 162.66 Z " fill-rule="evenodd" fill="rgb(255,255,255)"/><path d=" M 432.26 155.52 L 441.78 155.52 L 441.78 153.14 L 432.26 153.14 L 432.26 148.38 L 441.78 148.38 L 441.78 146 L 429.88 146 L 429.88 165.04 L 441.78 165.04 L 441.78 162.66 L 432.26 162.66 L 432.26 155.52 Z " fill="rgb(255,255,255)"/><path d=" M 489.26 155.52 L 498.78 155.52 L 498.78 153.14 L 489.26 153.14 L 489.26 148.38 L 498.78 148.38 L 498.78 146 L 486.88 146 L 486.88 165.04 L 489.26 165.04 L 489.26 155.52 Z " fill="rgb(255,255,255)"/></g></g><g><g><g><path d=" M 154.72 191.16 L 157.1 191.16 L 157.1 193.54 L 164.24 193.54 L 164.24 191.16 L 157.1 191.16 L 157.1 176.88 L 154.72 176.88 L 154.72 191.16 Z  M 157.1 176.88 L 164.24 176.88 L 164.24 191.16 L 166.62 191.16 L 166.62 176.88 L 164.24 176.88 L 164.24 174.5 L 157.1 174.5 L 157.1 176.88 Z " fill-rule="evenodd" fill="rgb(255,255,255)"/><path d=" M 166.62 219.66 L 161.86 219.66 L 161.86 203 L 159.48 203 L 159.48 205.38 L 154.72 205.38 L 154.72 207.76 L 159.48 207.76 L 159.48 219.66 L 154.72 219.66 L 154.72 222.04 L 166.62 222.04 L 166.62 219.66 Z " fill="rgb(255,255,255)"/></g><g><path d=" M 211.72 191.16 L 214.1 191.16 L 214.1 193.54 L 221.24 193.54 L 221.24 191.16 L 214.1 191.16 L 214.1 176.88 L 211.72 176.88 L 211.72 191.16 Z  M 214.1 176.88 L 221.24 176.88 L 221.24 191.16 L 223.62 191.16 L 223.62 176.88 L 221.24 176.88 L 221.24 174.5 L 214.1 174.5 L 214.1 176.88 Z " fill-rule="evenodd" fill="rgb(255,255,255)"/><path d=" M 223.62 219.66 L 218.86 219.66 L 218.86 203 L 216.48 203 L 216.48 205.38 L 211.72 205.38 L 211.72 207.76 L 216.48 207.76 L 216.48 219.66 L 211.72 219.66 L 211.72 222.04 L 223.62 222.04 L 223.62 219.66 Z " fill="rgb(255,255,255)"/></g><g><path d=" M 268.72 191.16 L 271.1 191.16 L 271.1 193.54 L 278.24 193.54 L 278.24 191.16 L 271.1 191.16 L 271.1 176.88 L 268.72 176.88 L 268.72 191.16 Z  M 271.1 176.88 L 278.24 176.88 L 278.24 191.16 L 280.62 191.16 L 280.62 176.88 L 278.24 176.88 L 278.24 174.5 L 271.1 174.5 L 271.1 176.88 Z " fill-rule="evenodd" fill="rgb(255,255,255)"/><path d=" M 280.62 219.66 L 275.86 219.66 L 275.86 203 L 273.48 203 L 273.48 205.38 L 268.72 205.38 L 268.72 207.76 L 273.48 207.76 L 273.48 219.66 L 268.72 219.66 L 268.72 222.04 L 280.62 222.04 L 280.62 219.66 Z " fill="rgb(255,255,255)"/></g></g><g><path d=" M 175.76 160.28 L 187.66 160.28 L 187.66 165.04 L 190.04 165.04 L 190.04 160.28 L 187.66 160.28 L 187.66 155.52 L 185.28 155.52 L 185.28 150.76 L 182.9 150.76 L 182.9 146 L 180.52 146 L 180.52 150.76 L 182.9 150.76 L 182.9 155.52 L 185.28 155.52 L 185.28 157.9 L 178.14 157.9 L 178.14 155.52 L 175.76 155.52 L 175.76 160.28 Z  M 173.38 165.04 L 175.76 165.04 L 175.76 160.28 L 173.38 160.28 L 173.38 165.04 Z  M 178.14 155.52 L 180.52 155.52 L 180.52 150.76 L 178.14 150.76 L 178.14 155.52 Z " fill-rule="evenodd" fill="rgb(255,255,255)"/><path d=" M 232.76 148.38 L 242.28 148.38 L 242.28 153.14 L 244.66 153.14 L 244.66 148.38 L 242.28 148.38 L 242.28 146 L 230.38 146 L 230.38 165.04 L 242.28 165.04 L 242.28 162.66 L 232.76 162.66 L 232.76 155.52 L 242.28 155.52 L 242.28 162.66 L 244.66 162.66 L 244.66 155.52 L 242.28 155.52 L 242.28 153.14 L 232.76 153.14 L 232.76 148.38 Z " fill="rgb(255,255,255)"/><path d=" M 299.28 162.66 L 289.76 162.66 L 289.76 148.38 L 287.38 148.38 L 287.38 162.66 L 289.76 162.66 L 289.76 165.04 L 299.28 165.04 L 299.28 162.66 Z  M 301.66 148.38 L 299.28 148.38 L 299.28 146 L 289.76 146 L 289.76 148.38 L 299.28 148.38 L 299.28 150.76 L 301.66 150.76 L 301.66 148.38 Z  M 301.66 160.28 L 299.28 160.28 L 299.28 162.66 L 301.66 162.66 L 301.66 160.28 Z " fill-rule="evenodd" fill="rgb(255,255,255)"/></g></g><g><g><g><path d=" M 356.6 262.38 L 363.74 262.38 L 363.74 269.52 L 366.12 269.52 L 366.12 262.38 L 363.74 262.38 L 363.74 260 L 356.6 260 L 356.6 262.38 Z  M 354.22 279.04 L 366.12 279.04 L 366.12 276.66 L 358.98 276.66 L 358.98 274.28 L 356.6 274.28 L 356.6 276.66 L 354.22 276.66 L 354.22 279.04 Z  M 358.98 274.28 L 361.36 274.28 L 361.36 271.9 L 358.98 271.9 L 358.98 274.28 Z  M 361.36 271.9 L 363.74 271.9 L 363.74 269.52 L 361.36 269.52 L 361.36 271.9 Z  M 354.22 264.76 L 356.6 264.76 L 356.6 262.38 L 354.22 262.38 L 354.22 264.76 Z " fill-rule="evenodd" fill="rgb(255,255,255)"/><path d=" M 363.74 305.16 L 366.12 305.16 L 366.12 298.02 L 363.74 298.02 L 363.74 295.64 L 356.6 295.64 L 356.6 298.02 L 363.74 298.02 L 363.74 305.16 Z  M 356.6 290.88 L 363.74 290.88 L 363.74 295.64 L 366.12 295.64 L 366.12 290.88 L 363.74 290.88 L 363.74 288.5 L 356.6 288.5 L 356.6 290.88 Z  M 354.22 305.16 L 356.6 305.16 L 356.6 307.54 L 363.74 307.54 L 363.74 305.16 L 356.6 305.16 L 356.6 302.78 L 354.22 302.78 L 354.22 305.16 Z  M 354.22 293.26 L 356.6 293.26 L 356.6 290.88 L 354.22 290.88 L 354.22 293.26 Z " fill-rule="evenodd" fill="rgb(255,255,255)"/></g><g><path d=" M 413.6 262.38 L 420.74 262.38 L 420.74 269.52 L 423.12 269.52 L 423.12 262.38 L 420.74 262.38 L 420.74 260 L 413.6 260 L 413.6 262.38 Z  M 411.22 279.04 L 423.12 279.04 L 423.12 276.66 L 415.98 276.66 L 415.98 274.28 L 413.6 274.28 L 413.6 276.66 L 411.22 276.66 L 411.22 279.04 Z  M 415.98 274.28 L 418.36 274.28 L 418.36 271.9 L 415.98 271.9 L 415.98 274.28 Z  M 418.36 271.9 L 420.74 271.9 L 420.74 269.52 L 418.36 269.52 L 418.36 271.9 Z  M 411.22 264.76 L 413.6 264.76 L 413.6 262.38 L 411.22 262.38 L 411.22 264.76 Z " fill-rule="evenodd" fill="rgb(255,255,255)"/><path d=" M 420.74 305.16 L 423.12 305.16 L 423.12 298.02 L 420.74 298.02 L 420.74 295.64 L 413.6 295.64 L 413.6 298.02 L 420.74 298.02 L 420.74 305.16 Z  M 413.6 290.88 L 420.74 290.88 L 420.74 295.64 L 423.12 295.64 L 423.12 290.88 L 420.74 290.88 L 420.74 288.5 L 413.6 288.5 L 413.6 290.88 Z  M 411.22 305.16 L 413.6 305.16 L 413.6 307.54 L 420.74 307.54 L 420.74 305.16 L 413.6 305.16 L 413.6 302.78 L 411.22 302.78 L 411.22 305.16 Z  M 411.22 293.26 L 413.6 293.26 L 413.6 290.88 L 411.22 290.88 L 411.22 293.26 Z " fill-rule="evenodd" fill="rgb(255,255,255)"/></g><g><path d=" M 470.6 262.38 L 477.74 262.38 L 477.74 269.52 L 480.12 269.52 L 480.12 262.38 L 477.74 262.38 L 477.74 260 L 470.6 260 L 470.6 262.38 Z  M 468.22 279.04 L 480.12 279.04 L 480.12 276.66 L 472.98 276.66 L 472.98 274.28 L 470.6 274.28 L 470.6 276.66 L 468.22 276.66 L 468.22 279.04 Z  M 472.98 274.28 L 475.36 274.28 L 475.36 271.9 L 472.98 271.9 L 472.98 274.28 Z  M 475.36 271.9 L 477.74 271.9 L 477.74 269.52 L 475.36 269.52 L 475.36 271.9 Z  M 468.22 264.76 L 470.6 264.76 L 470.6 262.38 L 468.22 262.38 L 468.22 264.76 Z " fill-rule="evenodd" fill="rgb(255,255,255)"/><path d=" M 477.74 305.16 L 480.12 305.16 L 480.12 298.02 L 477.74 298.02 L 477.74 295.64 L 470.6 295.64 L 470.6 298.02 L 477.74 298.02 L 477.74 305.16 Z  M 470.6 290.88 L 477.74 290.88 L 477.74 295.64 L 480.12 295.64 L 480.12 290.88 L 477.74 290.88 L 477.74 288.5 L 470.6 288.5 L 470.6 290.88 Z  M 468.22 305.16 L 470.6 305.16 L 470.6 307.54 L 477.74 307.54 L 477.74 305.16 L 470.6 305.16 L 470.6 302.78 L 468.22 302.78 L 468.22 305.16 Z  M 468.22 293.26 L 470.6 293.26 L 470.6 290.88 L 468.22 290.88 L 468.22 293.26 Z " fill-rule="evenodd" fill="rgb(255,255,255)"/></g></g><g><path d=" M 382.4 236.26 L 384.78 236.26 L 384.78 245.78 L 387.16 245.78 L 387.16 236.26 L 384.78 236.26 L 384.78 233.88 L 382.4 233.88 L 382.4 231.5 L 372.88 231.5 L 372.88 250.54 L 382.4 250.54 L 382.4 248.16 L 375.26 248.16 L 375.26 233.88 L 382.4 233.88 L 382.4 236.26 Z  M 382.4 248.16 L 384.78 248.16 L 384.78 245.78 L 382.4 245.78 L 382.4 248.16 Z " fill-rule="evenodd" fill="rgb(255,255,255)"/><path d=" M 432.26 241.02 L 441.78 241.02 L 441.78 238.64 L 432.26 238.64 L 432.26 233.88 L 441.78 233.88 L 441.78 231.5 L 429.88 231.5 L 429.88 250.54 L 441.78 250.54 L 441.78 248.16 L 432.26 248.16 L 432.26 241.02 Z " fill="rgb(255,255,255)"/><path d=" M 489.26 241.02 L 498.78 241.02 L 498.78 238.64 L 489.26 238.64 L 489.26 233.88 L 498.78 233.88 L 498.78 231.5 L 486.88 231.5 L 486.88 250.54 L 489.26 250.54 L 489.26 241.02 Z " fill="rgb(255,255,255)"/></g></g><g><g><g><path d=" M 157.1 262.38 L 164.24 262.38 L 164.24 269.52 L 166.62 269.52 L 166.62 262.38 L 164.24 262.38 L 164.24 260 L 157.1 260 L 157.1 262.38 Z  M 154.72 279.04 L 166.62 279.04 L 166.62 276.66 L 159.48 276.66 L 159.48 274.28 L 157.1 274.28 L 157.1 276.66 L 154.72 276.66 L 154.72 279.04 Z  M 159.48 274.28 L 161.86 274.28 L 161.86 271.9 L 159.48 271.9 L 159.48 274.28 Z  M 161.86 271.9 L 164.24 271.9 L 164.24 269.52 L 161.86 269.52 L 161.86 271.9 Z  M 154.72 264.76 L 157.1 264.76 L 157.1 262.38 L 154.72 262.38 L 154.72 264.76 Z " fill-rule="evenodd" fill="rgb(255,255,255)"/><path d=" M 164.24 305.16 L 166.62 305.16 L 166.62 298.02 L 164.24 298.02 L 164.24 295.64 L 157.1 295.64 L 157.1 298.02 L 164.24 298.02 L 164.24 305.16 Z  M 157.1 290.88 L 164.24 290.88 L 164.24 295.64 L 166.62 295.64 L 166.62 290.88 L 164.24 290.88 L 164.24 288.5 L 157.1 288.5 L 157.1 290.88 Z  M 154.72 305.16 L 157.1 305.16 L 157.1 307.54 L 164.24 307.54 L 164.24 305.16 L 157.1 305.16 L 157.1 302.78 L 154.72 302.78 L 154.72 305.16 Z  M 154.72 293.26 L 157.1 293.26 L 157.1 290.88 L 154.72 290.88 L 154.72 293.26 Z " fill-rule="evenodd" fill="rgb(255,255,255)"/></g><g><path d=" M 214.1 262.38 L 221.24 262.38 L 221.24 269.52 L 223.62 269.52 L 223.62 262.38 L 221.24 262.38 L 221.24 260 L 214.1 260 L 214.1 262.38 Z  M 211.72 279.04 L 223.62 279.04 L 223.62 276.66 L 216.48 276.66 L 216.48 274.28 L 214.1 274.28 L 214.1 276.66 L 211.72 276.66 L 211.72 279.04 Z  M 216.48 274.28 L 218.86 274.28 L 218.86 271.9 L 216.48 271.9 L 216.48 274.28 Z  M 218.86 271.9 L 221.24 271.9 L 221.24 269.52 L 218.86 269.52 L 218.86 271.9 Z  M 211.72 264.76 L 214.1 264.76 L 214.1 262.38 L 211.72 262.38 L 211.72 264.76 Z " fill-rule="evenodd" fill="rgb(255,255,255)"/><path d=" M 221.24 305.16 L 223.62 305.16 L 223.62 298.02 L 221.24 298.02 L 221.24 295.64 L 214.1 295.64 L 214.1 298.02 L 221.24 298.02 L 221.24 305.16 Z  M 214.1 290.88 L 221.24 290.88 L 221.24 295.64 L 223.62 295.64 L 223.62 290.88 L 221.24 290.88 L 221.24 288.5 L 214.1 288.5 L 214.1 290.88 Z  M 211.72 305.16 L 214.1 305.16 L 214.1 307.54 L 221.24 307.54 L 221.24 305.16 L 214.1 305.16 L 214.1 302.78 L 211.72 302.78 L 211.72 305.16 Z  M 211.72 293.26 L 214.1 293.26 L 214.1 290.88 L 211.72 290.88 L 211.72 293.26 Z " fill-rule="evenodd" fill="rgb(255,255,255)"/></g><g><path d=" M 271.1 262.38 L 278.24 262.38 L 278.24 269.52 L 280.62 269.52 L 280.62 262.38 L 278.24 262.38 L 278.24 260 L 271.1 260 L 271.1 262.38 Z  M 268.72 279.04 L 280.62 279.04 L 280.62 276.66 L 273.48 276.66 L 273.48 274.28 L 271.1 274.28 L 271.1 276.66 L 268.72 276.66 L 268.72 279.04 Z  M 273.48 274.28 L 275.86 274.28 L 275.86 271.9 L 273.48 271.9 L 273.48 274.28 Z  M 275.86 271.9 L 278.24 271.9 L 278.24 269.52 L 275.86 269.52 L 275.86 271.9 Z  M 268.72 264.76 L 271.1 264.76 L 271.1 262.38 L 268.72 262.38 L 268.72 264.76 Z " fill-rule="evenodd" fill="rgb(255,255,255)"/><path d=" M 278.24 305.16 L 280.62 305.16 L 280.62 298.02 L 278.24 298.02 L 278.24 295.64 L 271.1 295.64 L 271.1 298.02 L 278.24 298.02 L 278.24 305.16 Z  M 271.1 290.88 L 278.24 290.88 L 278.24 295.64 L 280.62 295.64 L 280.62 290.88 L 278.24 290.88 L 278.24 288.5 L 271.1 288.5 L 271.1 290.88 Z  M 268.72 305.16 L 271.1 305.16 L 271.1 307.54 L 278.24 307.54 L 278.24 305.16 L 271.1 305.16 L 271.1 302.78 L 268.72 302.78 L 268.72 305.16 Z  M 268.72 293.26 L 271.1 293.26 L 271.1 290.88 L 268.72 290.88 L 268.72 293.26 Z " fill-rule="evenodd" fill="rgb(255,255,255)"/></g></g><g><path d=" M 175.76 245.78 L 187.66 245.78 L 187.66 250.54 L 190.04 250.54 L 190.04 245.78 L 187.66 245.78 L 187.66 241.02 L 185.28 241.02 L 185.28 236.26 L 182.9 236.26 L 182.9 231.5 L 180.52 231.5 L 180.52 236.26 L 182.9 236.26 L 182.9 241.02 L 185.28 241.02 L 185.28 243.4 L 178.14 243.4 L 178.14 241.02 L 175.76 241.02 L 175.76 245.78 Z  M 173.38 250.54 L 175.76 250.54 L 175.76 245.78 L 173.38 245.78 L 173.38 250.54 Z  M 178.14 241.02 L 180.52 241.02 L 180.52 236.26 L 178.14 236.26 L 178.14 241.02 Z " fill-rule="evenodd" fill="rgb(255,255,255)"/><path d=" M 232.76 233.88 L 242.28 233.88 L 242.28 238.64 L 244.66 238.64 L 244.66 233.88 L 242.28 233.88 L 242.28 231.5 L 230.38 231.5 L 230.38 250.54 L 242.28 250.54 L 242.28 248.16 L 232.76 248.16 L 232.76 241.02 L 242.28 241.02 L 242.28 248.16 L 244.66 248.16 L 244.66 241.02 L 242.28 241.02 L 242.28 238.64 L 232.76 238.64 L 232.76 233.88 Z " fill="rgb(255,255,255)"/><path d=" M 299.28 248.16 L 289.76 248.16 L 289.76 233.88 L 287.38 233.88 L 287.38 248.16 L 289.76 248.16 L 289.76 250.54 L 299.28 250.54 L 299.28 248.16 Z  M 301.66 233.88 L 299.28 233.88 L 299.28 231.5 L 289.76 231.5 L 289.76 233.88 L 299.28 233.88 L 299.28 236.26 L 301.66 236.26 L 301.66 233.88 Z  M 301.66 245.78 L 299.28 245.78 L 299.28 248.16 L 301.66 248.16 L 301.66 245.78 Z " fill-rule="evenodd" fill="rgb(255,255,255)"/></g></g><g><g><g><path d=" M 358.98 407.26 L 361.36 407.26 L 361.36 414.4 L 356.6 414.4 L 356.6 412.02 L 354.22 412.02 L 354.22 416.78 L 361.36 416.78 L 361.36 421.54 L 363.74 421.54 L 363.74 416.78 L 366.12 416.78 L 366.12 414.4 L 363.74 414.4 L 363.74 402.5 L 361.36 402.5 L 361.36 404.88 L 358.98 404.88 L 358.98 407.26 Z  M 356.6 412.02 L 358.98 412.02 L 358.98 407.26 L 356.6 407.26 L 356.6 412.02 Z " fill-rule="evenodd" fill="rgb(255,255,255)"/><path d=" M 356.6 433.38 L 366.12 433.38 L 366.12 431 L 354.22 431 L 354.22 440.52 L 363.74 440.52 L 363.74 447.66 L 366.12 447.66 L 366.12 440.52 L 363.74 440.52 L 363.74 438.14 L 356.6 438.14 L 356.6 433.38 Z  M 354.22 447.66 L 356.6 447.66 L 356.6 450.04 L 363.74 450.04 L 363.74 447.66 L 356.6 447.66 L 356.6 445.28 L 354.22 445.28 L 354.22 447.66 Z " fill-rule="evenodd" fill="rgb(255,255,255)"/><path d=" M 354.22 476.16 L 356.6 476.16 L 356.6 478.54 L 363.74 478.54 L 363.74 476.16 L 366.12 476.16 L 366.12 469.02 L 363.74 469.02 L 363.74 466.64 L 356.6 466.64 L 356.6 461.88 L 354.22 461.88 L 354.22 476.16 Z  M 363.74 476.16 L 356.6 476.16 L 356.6 469.02 L 363.74 469.02 L 363.74 476.16 Z  M 366.12 461.88 L 363.74 461.88 L 363.74 459.5 L 356.6 459.5 L 356.6 461.88 L 363.74 461.88 L 363.74 464.26 L 366.12 464.26 L 366.12 461.88 Z " fill-rule="evenodd" fill="rgb(255,255,255)"/></g><g><path d=" M 415.98 407.26 L 418.36 407.26 L 418.36 414.4 L 413.6 414.4 L 413.6 412.02 L 411.22 412.02 L 411.22 416.78 L 418.36 416.78 L 418.36 421.54 L 420.74 421.54 L 420.74 416.78 L 423.12 416.78 L 423.12 414.4 L 420.74 414.4 L 420.74 402.5 L 418.36 402.5 L 418.36 404.88 L 415.98 404.88 L 415.98 407.26 Z  M 413.6 412.02 L 415.98 412.02 L 415.98 407.26 L 413.6 407.26 L 413.6 412.02 Z " fill-rule="evenodd" fill="rgb(255,255,255)"/><path d=" M 413.6 433.38 L 423.12 433.38 L 423.12 431 L 411.22 431 L 411.22 440.52 L 420.74 440.52 L 420.74 447.66 L 423.12 447.66 L 423.12 440.52 L 420.74 440.52 L 420.74 438.14 L 413.6 438.14 L 413.6 433.38 Z  M 411.22 447.66 L 413.6 447.66 L 413.6 450.04 L 420.74 450.04 L 420.74 447.66 L 413.6 447.66 L 413.6 445.28 L 411.22 445.28 L 411.22 447.66 Z " fill-rule="evenodd" fill="rgb(255,255,255)"/><path d=" M 411.22 476.16 L 413.6 476.16 L 413.6 478.54 L 420.74 478.54 L 420.74 476.16 L 423.12 476.16 L 423.12 469.02 L 420.74 469.02 L 420.74 466.64 L 413.6 466.64 L 413.6 461.88 L 411.22 461.88 L 411.22 476.16 Z  M 420.74 476.16 L 413.6 476.16 L 413.6 469.02 L 420.74 469.02 L 420.74 476.16 Z  M 423.12 461.88 L 420.74 461.88 L 420.74 459.5 L 413.6 459.5 L 413.6 461.88 L 420.74 461.88 L 420.74 464.26 L 423.12 464.26 L 423.12 461.88 Z " fill-rule="evenodd" fill="rgb(255,255,255)"/></g><g><path d=" M 472.98 407.26 L 475.36 407.26 L 475.36 414.4 L 470.6 414.4 L 470.6 412.02 L 468.22 412.02 L 468.22 416.78 L 475.36 416.78 L 475.36 421.54 L 477.74 421.54 L 477.74 416.78 L 480.12 416.78 L 480.12 414.4 L 477.74 414.4 L 477.74 402.5 L 475.36 402.5 L 475.36 404.88 L 472.98 404.88 L 472.98 407.26 Z  M 470.6 412.02 L 472.98 412.02 L 472.98 407.26 L 470.6 407.26 L 470.6 412.02 Z " fill-rule="evenodd" fill="rgb(255,255,255)"/><path d=" M 470.6 433.38 L 480.12 433.38 L 480.12 431 L 468.22 431 L 468.22 440.52 L 477.74 440.52 L 477.74 447.66 L 480.12 447.66 L 480.12 440.52 L 477.74 440.52 L 477.74 438.14 L 470.6 438.14 L 470.6 433.38 Z  M 468.22 447.66 L 470.6 447.66 L 470.6 450.04 L 477.74 450.04 L 477.74 447.66 L 470.6 447.66 L 470.6 445.28 L 468.22 445.28 L 468.22 447.66 Z " fill-rule="evenodd" fill="rgb(255,255,255)"/><path d=" M 468.22 476.16 L 470.6 476.16 L 470.6 478.54 L 477.74 478.54 L 477.74 476.16 L 480.12 476.16 L 480.12 469.02 L 477.74 469.02 L 477.74 466.64 L 470.6 466.64 L 470.6 461.88 L 468.22 461.88 L 468.22 476.16 Z  M 477.74 476.16 L 470.6 476.16 L 470.6 469.02 L 477.74 469.02 L 477.74 476.16 Z  M 480.12 461.88 L 477.74 461.88 L 477.74 459.5 L 470.6 459.5 L 470.6 461.88 L 477.74 461.88 L 477.74 464.26 L 480.12 464.26 L 480.12 461.88 Z " fill-rule="evenodd" fill="rgb(255,255,255)"/></g></g><g><path d=" M 382.15 379.01 L 384.53 379.01 L 384.53 388.53 L 386.91 388.53 L 386.91 379.01 L 384.53 379.01 L 384.53 376.63 L 382.15 376.63 L 382.15 374.25 L 372.63 374.25 L 372.63 393.29 L 382.15 393.29 L 382.15 390.91 L 375.01 390.91 L 375.01 376.63 L 382.15 376.63 L 382.15 379.01 Z  M 382.15 390.91 L 384.53 390.91 L 384.53 388.53 L 382.15 388.53 L 382.15 390.91 Z " fill-rule="evenodd" fill="rgb(255,255,255)"/><path d=" M 432.26 383.52 L 441.78 383.52 L 441.78 381.14 L 432.26 381.14 L 432.26 376.38 L 441.78 376.38 L 441.78 374 L 429.88 374 L 429.88 393.04 L 441.78 393.04 L 441.78 390.66 L 432.26 390.66 L 432.26 383.52 Z " fill="rgb(255,255,255)"/><path d=" M 489.26 383.52 L 498.78 383.52 L 498.78 381.14 L 489.26 381.14 L 489.26 376.38 L 498.78 376.38 L 498.78 374 L 486.88 374 L 486.88 393.04 L 489.26 393.04 L 489.26 383.52 Z " fill="rgb(255,255,255)"/></g></g><g><g><g><path d=" M 159.48 378.76 L 161.86 378.76 L 161.86 385.9 L 157.1 385.9 L 157.1 383.52 L 154.72 383.52 L 154.72 388.28 L 161.86 388.28 L 161.86 393.04 L 164.24 393.04 L 164.24 388.28 L 166.62 388.28 L 166.62 385.9 L 164.24 385.9 L 164.24 374 L 161.86 374 L 161.86 376.38 L 159.48 376.38 L 159.48 378.76 Z  M 157.1 383.52 L 159.48 383.52 L 159.48 378.76 L 157.1 378.76 L 157.1 383.52 Z " fill-rule="evenodd" fill="rgb(255,255,255)"/><path d=" M 157.1 404.88 L 166.62 404.88 L 166.62 402.5 L 154.72 402.5 L 154.72 412.02 L 164.24 412.02 L 164.24 419.16 L 166.62 419.16 L 166.62 412.02 L 164.24 412.02 L 164.24 409.64 L 157.1 409.64 L 157.1 404.88 Z  M 154.72 419.16 L 157.1 419.16 L 157.1 421.54 L 164.24 421.54 L 164.24 419.16 L 157.1 419.16 L 157.1 416.78 L 154.72 416.78 L 154.72 419.16 Z " fill-rule="evenodd" fill="rgb(255,255,255)"/></g><g><path d=" M 216.48 378.76 L 218.86 378.76 L 218.86 385.9 L 214.1 385.9 L 214.1 383.52 L 211.72 383.52 L 211.72 388.28 L 218.86 388.28 L 218.86 393.04 L 221.24 393.04 L 221.24 388.28 L 223.62 388.28 L 223.62 385.9 L 221.24 385.9 L 221.24 374 L 218.86 374 L 218.86 376.38 L 216.48 376.38 L 216.48 378.76 Z  M 214.1 383.52 L 216.48 383.52 L 216.48 378.76 L 214.1 378.76 L 214.1 383.52 Z " fill-rule="evenodd" fill="rgb(255,255,255)"/><path d=" M 214.1 404.88 L 223.62 404.88 L 223.62 402.5 L 211.72 402.5 L 211.72 412.02 L 221.24 412.02 L 221.24 419.16 L 223.62 419.16 L 223.62 412.02 L 221.24 412.02 L 221.24 409.64 L 214.1 409.64 L 214.1 404.88 Z  M 211.72 419.16 L 214.1 419.16 L 214.1 421.54 L 221.24 421.54 L 221.24 419.16 L 214.1 419.16 L 214.1 416.78 L 211.72 416.78 L 211.72 419.16 Z " fill-rule="evenodd" fill="rgb(255,255,255)"/></g><g><path d=" M 273.48 378.76 L 275.86 378.76 L 275.86 385.9 L 271.1 385.9 L 271.1 383.52 L 268.72 383.52 L 268.72 388.28 L 275.86 388.28 L 275.86 393.04 L 278.24 393.04 L 278.24 388.28 L 280.62 388.28 L 280.62 385.9 L 278.24 385.9 L 278.24 374 L 275.86 374 L 275.86 376.38 L 273.48 376.38 L 273.48 378.76 Z  M 271.1 383.52 L 273.48 383.52 L 273.48 378.76 L 271.1 378.76 L 271.1 383.52 Z " fill-rule="evenodd" fill="rgb(255,255,255)"/><path d=" M 271.1 404.88 L 280.62 404.88 L 280.62 402.5 L 268.72 402.5 L 268.72 412.02 L 278.24 412.02 L 278.24 419.16 L 280.62 419.16 L 280.62 412.02 L 278.24 412.02 L 278.24 409.64 L 271.1 409.64 L 271.1 404.88 Z  M 268.72 419.16 L 271.1 419.16 L 271.1 421.54 L 278.24 421.54 L 278.24 419.16 L 271.1 419.16 L 271.1 416.78 L 268.72 416.78 L 268.72 419.16 Z " fill-rule="evenodd" fill="rgb(255,255,255)"/></g></g></g><g><g><g><path d=" M 363.74 521.26 L 361.36 521.26 L 361.36 526.02 L 363.74 526.02 L 363.74 521.26 Z  M 361.36 526.02 L 358.98 526.02 L 358.98 530.78 L 361.36 530.78 L 361.36 526.02 Z  M 356.6 535.54 L 358.98 535.54 L 358.98 530.78 L 356.6 530.78 L 356.6 535.54 Z  M 354.22 518.88 L 363.74 518.88 L 363.74 521.26 L 366.12 521.26 L 366.12 516.5 L 354.22 516.5 L 354.22 518.88 Z " fill-rule="evenodd" fill="rgb(255,255,255)"/><path d=" M 363.74 561.66 L 366.12 561.66 L 366.12 554.52 L 363.74 554.52 L 363.74 552.14 L 356.6 552.14 L 356.6 547.38 L 354.22 547.38 L 354.22 552.14 L 356.6 552.14 L 356.6 554.52 L 363.74 554.52 L 363.74 561.66 Z  M 354.22 561.66 L 356.6 561.66 L 356.6 564.04 L 363.74 564.04 L 363.74 561.66 L 356.6 561.66 L 356.6 554.52 L 354.22 554.52 L 354.22 561.66 Z  M 356.6 547.38 L 363.74 547.38 L 363.74 552.14 L 366.12 552.14 L 366.12 547.38 L 363.74 547.38 L 363.74 545 L 356.6 545 L 356.6 547.38 Z " fill-rule="evenodd" fill="rgb(255,255,255)"/></g><g><path d=" M 477.74 521.26 L 475.36 521.26 L 475.36 526.02 L 477.74 526.02 L 477.74 521.26 Z  M 475.36 526.02 L 472.98 526.02 L 472.98 530.78 L 475.36 530.78 L 475.36 526.02 Z  M 470.6 535.54 L 472.98 535.54 L 472.98 530.78 L 470.6 530.78 L 470.6 535.54 Z  M 468.22 518.88 L 477.74 518.88 L 477.74 521.26 L 480.12 521.26 L 480.12 516.5 L 468.22 516.5 L 468.22 518.88 Z " fill-rule="evenodd" fill="rgb(255,255,255)"/><path d=" M 477.74 561.66 L 480.12 561.66 L 480.12 554.52 L 477.74 554.52 L 477.74 552.14 L 470.6 552.14 L 470.6 547.38 L 468.22 547.38 L 468.22 552.14 L 470.6 552.14 L 470.6 554.52 L 477.74 554.52 L 477.74 561.66 Z  M 468.22 561.66 L 470.6 561.66 L 470.6 564.04 L 477.74 564.04 L 477.74 561.66 L 470.6 561.66 L 470.6 554.52 L 468.22 554.52 L 468.22 561.66 Z  M 470.6 547.38 L 477.74 547.38 L 477.74 552.14 L 480.12 552.14 L 480.12 547.38 L 477.74 547.38 L 477.74 545 L 470.6 545 L 470.6 547.38 Z " fill-rule="evenodd" fill="rgb(255,255,255)"/><path d=" M 480.12 575.88 L 477.74 575.88 L 477.74 573.5 L 470.6 573.5 L 470.6 575.88 L 468.22 575.88 L 468.22 583.02 L 470.6 583.02 L 470.6 585.4 L 477.74 585.4 L 477.74 590.16 L 480.12 590.16 L 480.12 575.88 Z  M 470.6 575.88 L 477.74 575.88 L 477.74 583.02 L 470.6 583.02 L 470.6 575.88 Z  M 468.22 590.16 L 470.6 590.16 L 470.6 592.54 L 477.74 592.54 L 477.74 590.16 L 470.6 590.16 L 470.6 587.78 L 468.22 587.78 L 468.22 590.16 Z " fill-rule="evenodd" fill="rgb(255,255,255)"/></g><g><path d=" M 420.74 521.26 L 418.36 521.26 L 418.36 526.02 L 420.74 526.02 L 420.74 521.26 Z  M 418.36 526.02 L 415.98 526.02 L 415.98 530.78 L 418.36 530.78 L 418.36 526.02 Z  M 413.6 535.54 L 415.98 535.54 L 415.98 530.78 L 413.6 530.78 L 413.6 535.54 Z  M 411.22 518.88 L 420.74 518.88 L 420.74 521.26 L 423.12 521.26 L 423.12 516.5 L 411.22 516.5 L 411.22 518.88 Z " fill-rule="evenodd" fill="rgb(255,255,255)"/><path d=" M 420.74 561.66 L 423.12 561.66 L 423.12 554.52 L 420.74 554.52 L 420.74 552.14 L 413.6 552.14 L 413.6 547.38 L 411.22 547.38 L 411.22 552.14 L 413.6 552.14 L 413.6 554.52 L 420.74 554.52 L 420.74 561.66 Z  M 411.22 561.66 L 413.6 561.66 L 413.6 564.04 L 420.74 564.04 L 420.74 561.66 L 413.6 561.66 L 413.6 554.52 L 411.22 554.52 L 411.22 561.66 Z  M 413.6 547.38 L 420.74 547.38 L 420.74 552.14 L 423.12 552.14 L 423.12 547.38 L 420.74 547.38 L 420.74 545 L 413.6 545 L 413.6 547.38 Z " fill-rule="evenodd" fill="rgb(255,255,255)"/><path d=" M 423.12 575.88 L 420.74 575.88 L 420.74 573.5 L 413.6 573.5 L 413.6 575.88 L 411.22 575.88 L 411.22 583.02 L 413.6 583.02 L 413.6 585.4 L 420.74 585.4 L 420.74 590.16 L 423.12 590.16 L 423.12 575.88 Z  M 413.6 575.88 L 420.74 575.88 L 420.74 583.02 L 413.6 583.02 L 413.6 575.88 Z  M 411.22 590.16 L 413.6 590.16 L 413.6 592.54 L 420.74 592.54 L 420.74 590.16 L 413.6 590.16 L 413.6 587.78 L 411.22 587.78 L 411.22 590.16 Z " fill-rule="evenodd" fill="rgb(255,255,255)"/></g></g><g><path d=" M 382.15 493.01 L 384.53 493.01 L 384.53 502.53 L 386.91 502.53 L 386.91 493.01 L 384.53 493.01 L 384.53 490.63 L 382.15 490.63 L 382.15 488.25 L 372.63 488.25 L 372.63 507.29 L 382.15 507.29 L 382.15 504.91 L 375.01 504.91 L 375.01 490.63 L 382.15 490.63 L 382.15 493.01 Z  M 382.15 504.91 L 384.53 504.91 L 384.53 502.53 L 382.15 502.53 L 382.15 504.91 Z " fill-rule="evenodd" fill="rgb(255,255,255)"/><path d=" M 432.26 497.52 L 441.78 497.52 L 441.78 495.14 L 432.26 495.14 L 432.26 490.38 L 441.78 490.38 L 441.78 488 L 429.88 488 L 429.88 507.04 L 441.78 507.04 L 441.78 504.66 L 432.26 504.66 L 432.26 497.52 Z " fill="rgb(255,255,255)"/><path d=" M 489.26 497.52 L 498.78 497.52 L 498.78 495.14 L 489.26 495.14 L 489.26 490.38 L 498.78 490.38 L 498.78 488 L 486.88 488 L 486.88 507.04 L 489.26 507.04 L 489.26 497.52 Z " fill="rgb(255,255,255)"/></g></g><g><g><g><path d=" M 164.24 521.26 L 161.86 521.26 L 161.86 526.02 L 164.24 526.02 L 164.24 521.26 Z  M 161.86 526.02 L 159.48 526.02 L 159.48 530.78 L 161.86 530.78 L 161.86 526.02 Z  M 157.1 535.54 L 159.48 535.54 L 159.48 530.78 L 157.1 530.78 L 157.1 535.54 Z  M 154.72 518.88 L 164.24 518.88 L 164.24 521.26 L 166.62 521.26 L 166.62 516.5 L 154.72 516.5 L 154.72 518.88 Z " fill-rule="evenodd" fill="rgb(255,255,255)"/><path d=" M 154.72 504.66 L 157.1 504.66 L 157.1 507.04 L 164.24 507.04 L 164.24 504.66 L 166.62 504.66 L 166.62 497.52 L 164.24 497.52 L 164.24 495.14 L 157.1 495.14 L 157.1 490.38 L 154.72 490.38 L 154.72 504.66 Z  M 164.24 504.66 L 157.1 504.66 L 157.1 497.52 L 164.24 497.52 L 164.24 504.66 Z  M 166.62 490.38 L 164.24 490.38 L 164.24 488 L 157.1 488 L 157.1 490.38 L 164.24 490.38 L 164.24 492.76 L 166.62 492.76 L 166.62 490.38 Z " fill-rule="evenodd" fill="rgb(255,255,255)"/><path d=" M 164.24 561.66 L 166.62 561.66 L 166.62 554.52 L 164.24 554.52 L 164.24 552.14 L 157.1 552.14 L 157.1 547.38 L 154.72 547.38 L 154.72 552.14 L 157.1 552.14 L 157.1 554.52 L 164.24 554.52 L 164.24 561.66 Z  M 154.72 561.66 L 157.1 561.66 L 157.1 564.04 L 164.24 564.04 L 164.24 561.66 L 157.1 561.66 L 157.1 554.52 L 154.72 554.52 L 154.72 561.66 Z  M 157.1 547.38 L 164.24 547.38 L 164.24 552.14 L 166.62 552.14 L 166.62 547.38 L 164.24 547.38 L 164.24 545 L 157.1 545 L 157.1 547.38 Z " fill-rule="evenodd" fill="rgb(255,255,255)"/><path d=" M 166.62 575.88 L 164.24 575.88 L 164.24 573.5 L 157.1 573.5 L 157.1 575.88 L 154.72 575.88 L 154.72 583.02 L 157.1 583.02 L 157.1 585.4 L 164.24 585.4 L 164.24 590.16 L 166.62 590.16 L 166.62 575.88 Z  M 157.1 575.88 L 164.24 575.88 L 164.24 583.02 L 157.1 583.02 L 157.1 575.88 Z  M 154.72 590.16 L 157.1 590.16 L 157.1 592.54 L 164.24 592.54 L 164.24 590.16 L 157.1 590.16 L 157.1 587.78 L 154.72 587.78 L 154.72 590.16 Z " fill-rule="evenodd" fill="rgb(255,255,255)"/></g><g><path d=" M 278.24 521.26 L 275.86 521.26 L 275.86 526.02 L 278.24 526.02 L 278.24 521.26 Z  M 275.86 526.02 L 273.48 526.02 L 273.48 530.78 L 275.86 530.78 L 275.86 526.02 Z  M 271.1 535.54 L 273.48 535.54 L 273.48 530.78 L 271.1 530.78 L 271.1 535.54 Z  M 268.72 518.88 L 278.24 518.88 L 278.24 521.26 L 280.62 521.26 L 280.62 516.5 L 268.72 516.5 L 268.72 518.88 Z " fill-rule="evenodd" fill="rgb(255,255,255)"/><path d=" M 268.72 504.66 L 271.1 504.66 L 271.1 507.04 L 278.24 507.04 L 278.24 504.66 L 280.62 504.66 L 280.62 497.52 L 278.24 497.52 L 278.24 495.14 L 271.1 495.14 L 271.1 490.38 L 268.72 490.38 L 268.72 504.66 Z  M 278.24 504.66 L 271.1 504.66 L 271.1 497.52 L 278.24 497.52 L 278.24 504.66 Z  M 280.62 490.38 L 278.24 490.38 L 278.24 488 L 271.1 488 L 271.1 490.38 L 278.24 490.38 L 278.24 492.76 L 280.62 492.76 L 280.62 490.38 Z " fill-rule="evenodd" fill="rgb(255,255,255)"/><path d=" M 278.24 561.66 L 280.62 561.66 L 280.62 554.52 L 278.24 554.52 L 278.24 552.14 L 271.1 552.14 L 271.1 547.38 L 268.72 547.38 L 268.72 552.14 L 271.1 552.14 L 271.1 554.52 L 278.24 554.52 L 278.24 561.66 Z  M 268.72 561.66 L 271.1 561.66 L 271.1 564.04 L 278.24 564.04 L 278.24 561.66 L 271.1 561.66 L 271.1 554.52 L 268.72 554.52 L 268.72 561.66 Z  M 271.1 547.38 L 278.24 547.38 L 278.24 552.14 L 280.62 552.14 L 280.62 547.38 L 278.24 547.38 L 278.24 545 L 271.1 545 L 271.1 547.38 Z " fill-rule="evenodd" fill="rgb(255,255,255)"/></g><g><path d=" M 221.24 521.26 L 218.86 521.26 L 218.86 526.02 L 221.24 526.02 L 221.24 521.26 Z  M 218.86 526.02 L 216.48 526.02 L 216.48 530.78 L 218.86 530.78 L 218.86 526.02 Z  M 214.1 535.54 L 216.48 535.54 L 216.48 530.78 L 214.1 530.78 L 214.1 535.54 Z  M 211.72 518.88 L 221.24 518.88 L 221.24 521.26 L 223.62 521.26 L 223.62 516.5 L 211.72 516.5 L 211.72 518.88 Z " fill-rule="evenodd" fill="rgb(255,255,255)"/><path d=" M 211.72 504.66 L 214.1 504.66 L 214.1 507.04 L 221.24 507.04 L 221.24 504.66 L 223.62 504.66 L 223.62 497.52 L 221.24 497.52 L 221.24 495.14 L 214.1 495.14 L 214.1 490.38 L 211.72 490.38 L 211.72 504.66 Z  M 221.24 504.66 L 214.1 504.66 L 214.1 497.52 L 221.24 497.52 L 221.24 504.66 Z  M 223.62 490.38 L 221.24 490.38 L 221.24 488 L 214.1 488 L 214.1 490.38 L 221.24 490.38 L 221.24 492.76 L 223.62 492.76 L 223.62 490.38 Z " fill-rule="evenodd" fill="rgb(255,255,255)"/><path d=" M 221.24 561.66 L 223.62 561.66 L 223.62 554.52 L 221.24 554.52 L 221.24 552.14 L 214.1 552.14 L 214.1 547.38 L 211.72 547.38 L 211.72 552.14 L 214.1 552.14 L 214.1 554.52 L 221.24 554.52 L 221.24 561.66 Z  M 211.72 561.66 L 214.1 561.66 L 214.1 564.04 L 221.24 564.04 L 221.24 561.66 L 214.1 561.66 L 214.1 554.52 L 211.72 554.52 L 211.72 561.66 Z  M 214.1 547.38 L 221.24 547.38 L 221.24 552.14 L 223.62 552.14 L 223.62 547.38 L 221.24 547.38 L 221.24 545 L 214.1 545 L 214.1 547.38 Z " fill-rule="evenodd" fill="rgb(255,255,255)"/><path d=" M 223.62 575.88 L 221.24 575.88 L 221.24 573.5 L 214.1 573.5 L 214.1 575.88 L 211.72 575.88 L 211.72 583.02 L 214.1 583.02 L 214.1 585.4 L 221.24 585.4 L 221.24 590.16 L 223.62 590.16 L 223.62 575.88 Z  M 214.1 575.88 L 221.24 575.88 L 221.24 583.02 L 214.1 583.02 L 214.1 575.88 Z  M 211.72 590.16 L 214.1 590.16 L 214.1 592.54 L 221.24 592.54 L 221.24 590.16 L 214.1 590.16 L 214.1 587.78 L 211.72 587.78 L 211.72 590.16 Z " fill-rule="evenodd" fill="rgb(255,255,255)"/></g></g></g></g><path d=" M 382.52 136.54 L 384.9 136.54 L 384.9 117.5 L 382.52 117.5 L 382.52 136.54 Z  M 389.66 127.02 L 392.04 127.02 L 392.04 129.4 L 399.18 129.4 L 399.18 131.78 L 396.8 131.78 L 396.8 134.16 L 399.18 134.16 L 399.18 136.54 L 403.94 136.54 L 403.94 134.16 L 401.56 134.16 L 401.56 124.64 L 399.18 124.64 L 399.18 122.26 L 392.04 122.26 L 392.04 124.64 L 389.66 124.64 L 389.66 127.02 Z  M 389.66 134.16 L 392.04 134.16 L 392.04 136.54 L 396.8 136.54 L 396.8 134.16 L 392.04 134.16 L 392.04 129.4 L 389.66 129.4 L 389.66 134.16 Z  M 392.04 124.64 L 399.18 124.64 L 399.18 127.02 L 392.04 127.02 L 392.04 124.64 Z  M 408.7 127.02 L 411.08 127.02 L 411.08 124.64 L 408.7 124.64 L 408.7 117.5 L 406.32 117.5 L 406.32 136.54 L 408.7 136.54 L 408.7 134.16 L 411.08 134.16 L 411.08 136.54 L 415.84 136.54 L 415.84 134.16 L 411.08 134.16 L 411.08 131.78 L 408.7 131.78 L 408.7 127.02 Z  M 411.08 124.64 L 415.84 124.64 L 415.84 134.16 L 418.22 134.16 L 418.22 124.64 L 415.84 124.64 L 415.84 122.26 L 411.08 122.26 L 411.08 124.64 Z  M 327.78 136.54 L 330.16 136.54 L 330.16 117.5 L 327.78 117.5 L 327.78 124.64 L 318.26 124.64 L 318.26 117.5 L 315.88 117.5 L 315.88 136.54 L 318.26 136.54 L 318.26 127.02 L 327.78 127.02 L 327.78 136.54 Z  M 334.92 136.54 L 337.3 136.54 L 337.3 131.78 L 334.92 131.78 L 334.92 136.54 Z  M 344.44 117.5 L 342.06 117.5 L 342.06 122.26 L 344.44 122.26 L 344.44 117.5 Z  M 342.06 122.26 L 339.68 122.26 L 339.68 127.02 L 342.06 127.02 L 342.06 122.26 Z  M 339.68 127.02 L 337.3 127.02 L 337.3 131.78 L 339.68 131.78 L 339.68 127.02 Z  M 351.58 131.78 L 353.96 131.78 L 353.96 136.54 L 356.34 136.54 L 356.34 131.78 L 353.96 131.78 L 353.96 124.64 L 351.58 124.64 L 351.58 117.5 L 349.2 117.5 L 349.2 124.64 L 351.58 124.64 L 351.58 131.78 Z  M 361.1 131.78 L 363.48 131.78 L 363.48 136.54 L 365.86 136.54 L 365.86 131.78 L 363.48 131.78 L 363.48 124.64 L 361.1 124.64 L 361.1 117.5 L 358.72 117.5 L 358.72 124.64 L 361.1 124.64 L 361.1 131.78 Z  M 370.62 117.5 L 368.24 117.5 L 368.24 124.64 L 370.62 124.64 L 370.62 117.5 Z  M 358.72 124.64 L 356.34 124.64 L 356.34 131.78 L 358.72 131.78 L 358.72 124.64 Z  M 368.24 124.64 L 365.86 124.64 L 365.86 131.78 L 368.24 131.78 L 368.24 124.64 Z " fill-rule="evenodd" fill="rgb(255,255,255)"/><path d=" M 211.4 640.02 L 209.02 640.02 L 209.02 637.64 L 204.26 637.64 L 204.26 632.88 L 201.88 632.88 L 201.88 637.64 L 204.26 637.64 L 204.26 640.02 L 209.02 640.02 L 209.02 642.4 L 211.4 642.4 L 211.4 647.16 L 213.78 647.16 L 213.78 642.4 L 211.4 642.4 L 211.4 640.02 Z  M 213.78 632.88 L 211.4 632.88 L 211.4 630.5 L 204.26 630.5 L 204.26 632.88 L 211.4 632.88 L 211.4 635.26 L 213.78 635.26 L 213.78 632.88 Z  M 204.26 644.78 L 201.88 644.78 L 201.88 647.16 L 204.26 647.16 L 204.26 649.54 L 211.4 649.54 L 211.4 647.16 L 204.26 647.16 L 204.26 644.78 Z  M 220.92 640.02 L 223.3 640.02 L 223.3 637.64 L 220.92 637.64 L 220.92 635.26 L 218.54 635.26 L 218.54 649.54 L 220.92 649.54 L 220.92 640.02 Z  M 228.06 649.54 L 230.44 649.54 L 230.44 637.64 L 228.06 637.64 L 228.06 635.26 L 223.3 635.26 L 223.3 637.64 L 228.06 637.64 L 228.06 649.54 Z  M 235.2 640.02 L 237.58 640.02 L 237.58 642.4 L 244.72 642.4 L 244.72 644.78 L 242.34 644.78 L 242.34 647.16 L 244.72 647.16 L 244.72 649.54 L 249.48 649.54 L 249.48 647.16 L 247.1 647.16 L 247.1 637.64 L 244.72 637.64 L 244.72 635.26 L 237.58 635.26 L 237.58 637.64 L 235.2 637.64 L 235.2 640.02 Z  M 235.2 647.16 L 237.58 647.16 L 237.58 649.54 L 242.34 649.54 L 242.34 647.16 L 237.58 647.16 L 237.58 642.4 L 235.2 642.4 L 235.2 647.16 Z  M 237.58 637.64 L 244.72 637.64 L 244.72 640.02 L 237.58 640.02 L 237.58 637.64 Z  M 251.86 647.16 L 254.24 647.16 L 254.24 649.54 L 261.38 649.54 L 261.38 647.16 L 254.24 647.16 L 254.24 637.64 L 251.86 637.64 L 251.86 647.16 Z  M 263.76 637.64 L 261.38 637.64 L 261.38 635.26 L 254.24 635.26 L 254.24 637.64 L 261.38 637.64 L 261.38 640.02 L 263.76 640.02 L 263.76 637.64 Z  M 263.76 644.78 L 261.38 644.78 L 261.38 647.16 L 263.76 647.16 L 263.76 644.78 Z  M 270.9 644.78 L 273.28 644.78 L 273.28 647.16 L 275.66 647.16 L 275.66 649.54 L 278.04 649.54 L 278.04 647.16 L 275.66 647.16 L 275.66 644.78 L 273.28 644.78 L 273.28 640.02 L 270.9 640.02 L 270.9 630.5 L 268.52 630.5 L 268.52 649.54 L 270.9 649.54 L 270.9 644.78 Z  M 273.28 640.02 L 275.66 640.02 L 275.66 637.64 L 273.28 637.64 L 273.28 640.02 Z  M 275.66 637.64 L 278.04 637.64 L 278.04 635.26 L 275.66 635.26 L 275.66 637.64 Z  M 285.18 642.4 L 289.94 642.4 L 289.94 644.78 L 292.32 644.78 L 292.32 647.16 L 294.7 647.16 L 294.7 644.78 L 292.32 644.78 L 292.32 642.4 L 289.94 642.4 L 289.94 640.02 L 285.18 640.02 L 285.18 637.64 L 282.8 637.64 L 282.8 640.02 L 285.18 640.02 L 285.18 642.4 Z  M 294.7 637.64 L 292.32 637.64 L 292.32 635.26 L 285.18 635.26 L 285.18 637.64 L 292.32 637.64 L 292.32 640.02 L 294.7 640.02 L 294.7 637.64 Z  M 282.8 647.16 L 285.18 647.16 L 285.18 649.54 L 292.32 649.54 L 292.32 647.16 L 285.18 647.16 L 285.18 644.78 L 282.8 644.78 L 282.8 647.16 Z " fill-rule="evenodd" fill="rgb(255,255,255)"/><path d=" M 382.4 640.02 L 380.02 640.02 L 380.02 637.64 L 375.26 637.64 L 375.26 632.88 L 372.88 632.88 L 372.88 637.64 L 375.26 637.64 L 375.26 640.02 L 380.02 640.02 L 380.02 642.4 L 382.4 642.4 L 382.4 647.16 L 384.78 647.16 L 384.78 642.4 L 382.4 642.4 L 382.4 640.02 Z  M 384.78 632.88 L 382.4 632.88 L 382.4 630.5 L 375.26 630.5 L 375.26 632.88 L 382.4 632.88 L 382.4 635.26 L 384.78 635.26 L 384.78 632.88 Z  M 375.26 644.78 L 372.88 644.78 L 372.88 647.16 L 375.26 647.16 L 375.26 649.54 L 382.4 649.54 L 382.4 647.16 L 375.26 647.16 L 375.26 644.78 Z  M 391.92 640.02 L 394.3 640.02 L 394.3 637.64 L 391.92 637.64 L 391.92 635.26 L 389.54 635.26 L 389.54 649.54 L 391.92 649.54 L 391.92 640.02 Z  M 399.06 649.54 L 401.44 649.54 L 401.44 637.64 L 399.06 637.64 L 399.06 635.26 L 394.3 635.26 L 394.3 637.64 L 399.06 637.64 L 399.06 649.54 Z  M 406.2 640.02 L 408.58 640.02 L 408.58 642.4 L 415.72 642.4 L 415.72 644.78 L 413.34 644.78 L 413.34 647.16 L 415.72 647.16 L 415.72 649.54 L 420.48 649.54 L 420.48 647.16 L 418.1 647.16 L 418.1 637.64 L 415.72 637.64 L 415.72 635.26 L 408.58 635.26 L 408.58 637.64 L 406.2 637.64 L 406.2 640.02 Z  M 406.2 647.16 L 408.58 647.16 L 408.58 649.54 L 413.34 649.54 L 413.34 647.16 L 408.58 647.16 L 408.58 642.4 L 406.2 642.4 L 406.2 647.16 Z  M 408.58 637.64 L 415.72 637.64 L 415.72 640.02 L 408.58 640.02 L 408.58 637.64 Z  M 422.86 647.16 L 425.24 647.16 L 425.24 649.54 L 432.38 649.54 L 432.38 647.16 L 425.24 647.16 L 425.24 637.64 L 422.86 637.64 L 422.86 647.16 Z  M 434.76 637.64 L 432.38 637.64 L 432.38 635.26 L 425.24 635.26 L 425.24 637.64 L 432.38 637.64 L 432.38 640.02 L 434.76 640.02 L 434.76 637.64 Z  M 434.76 644.78 L 432.38 644.78 L 432.38 647.16 L 434.76 647.16 L 434.76 644.78 Z  M 441.9 644.78 L 444.28 644.78 L 444.28 647.16 L 446.66 647.16 L 446.66 649.54 L 449.04 649.54 L 449.04 647.16 L 446.66 647.16 L 446.66 644.78 L 444.28 644.78 L 444.28 640.02 L 441.9 640.02 L 441.9 630.5 L 439.52 630.5 L 439.52 649.54 L 441.9 649.54 L 441.9 644.78 Z  M 444.28 640.02 L 446.66 640.02 L 446.66 637.64 L 444.28 637.64 L 444.28 640.02 Z  M 446.66 637.64 L 449.04 637.64 L 449.04 635.26 L 446.66 635.26 L 446.66 637.64 Z  M 456.18 642.4 L 460.94 642.4 L 460.94 644.78 L 463.32 644.78 L 463.32 647.16 L 465.7 647.16 L 465.7 644.78 L 463.32 644.78 L 463.32 642.4 L 460.94 642.4 L 460.94 640.02 L 456.18 640.02 L 456.18 637.64 L 453.8 637.64 L 453.8 640.02 L 456.18 640.02 L 456.18 642.4 Z  M 465.7 637.64 L 463.32 637.64 L 463.32 635.26 L 456.18 635.26 L 456.18 637.64 L 463.32 637.64 L 463.32 640.02 L 465.7 640.02 L 465.7 637.64 Z  M 453.8 647.16 L 456.18 647.16 L 456.18 649.54 L 463.32 649.54 L 463.32 647.16 L 456.18 647.16 L 456.18 644.78 L 453.8 644.78 L 453.8 647.16 Z " fill-rule="evenodd" fill="rgb(255,255,255)"/><path d=" M 175.76 473.78 L 187.66 473.78 L 187.66 478.54 L 190.04 478.54 L 190.04 473.78 L 187.66 473.78 L 187.66 469.02 L 185.28 469.02 L 185.28 464.26 L 182.9 464.26 L 182.9 459.5 L 180.52 459.5 L 180.52 464.26 L 182.9 464.26 L 182.9 469.02 L 185.28 469.02 L 185.28 471.4 L 178.14 471.4 L 178.14 469.02 L 175.76 469.02 L 175.76 473.78 Z  M 173.38 478.54 L 175.76 478.54 L 175.76 473.78 L 173.38 473.78 L 173.38 478.54 Z  M 178.14 469.02 L 180.52 469.02 L 180.52 464.26 L 178.14 464.26 L 178.14 469.02 Z " fill-rule="evenodd" fill="rgb(255,255,255)"/><path d=" M 232.76 461.88 L 242.28 461.88 L 242.28 466.64 L 244.66 466.64 L 244.66 461.88 L 242.28 461.88 L 242.28 459.5 L 230.38 459.5 L 230.38 478.54 L 242.28 478.54 L 242.28 476.16 L 232.76 476.16 L 232.76 469.02 L 242.28 469.02 L 242.28 476.16 L 244.66 476.16 L 244.66 469.02 L 242.28 469.02 L 242.28 466.64 L 232.76 466.64 L 232.76 461.88 Z " fill="rgb(255,255,255)"/><path d=" M 299.28 476.16 L 289.76 476.16 L 289.76 461.88 L 287.38 461.88 L 287.38 476.16 L 289.76 476.16 L 289.76 478.54 L 299.28 478.54 L 299.28 476.16 Z  M 301.66 461.88 L 299.28 461.88 L 299.28 459.5 L 289.76 459.5 L 289.76 461.88 L 299.28 461.88 L 299.28 464.26 L 301.66 464.26 L 301.66 461.88 Z  M 301.66 473.78 L 299.28 473.78 L 299.28 476.16 L 301.66 476.16 L 301.66 473.78 Z " fill-rule="evenodd" fill="rgb(255,255,255)"/><path d=" M 175.76 359.78 L 187.66 359.78 L 187.66 364.54 L 190.04 364.54 L 190.04 359.78 L 187.66 359.78 L 187.66 355.02 L 185.28 355.02 L 185.28 350.26 L 182.9 350.26 L 182.9 345.5 L 180.52 345.5 L 180.52 350.26 L 182.9 350.26 L 182.9 355.02 L 185.28 355.02 L 185.28 357.4 L 178.14 357.4 L 178.14 355.02 L 175.76 355.02 L 175.76 359.78 Z  M 173.38 364.54 L 175.76 364.54 L 175.76 359.78 L 173.38 359.78 L 173.38 364.54 Z  M 178.14 355.02 L 180.52 355.02 L 180.52 350.26 L 178.14 350.26 L 178.14 355.02 Z " fill-rule="evenodd" fill="rgb(255,255,255)"/><path d=" M 232.76 347.88 L 242.28 347.88 L 242.28 352.64 L 244.66 352.64 L 244.66 347.88 L 242.28 347.88 L 242.28 345.5 L 230.38 345.5 L 230.38 364.54 L 242.28 364.54 L 242.28 362.16 L 232.76 362.16 L 232.76 355.02 L 242.28 355.02 L 242.28 362.16 L 244.66 362.16 L 244.66 355.02 L 242.28 355.02 L 242.28 352.64 L 232.76 352.64 L 232.76 347.88 Z " fill="rgb(255,255,255)"/><path d=" M 299.28 362.16 L 289.76 362.16 L 289.76 347.88 L 287.38 347.88 L 287.38 362.16 L 289.76 362.16 L 289.76 364.54 L 299.28 364.54 L 299.28 362.16 Z  M 301.66 347.88 L 299.28 347.88 L 299.28 345.5 L 289.76 345.5 L 289.76 347.88 L 299.28 347.88 L 299.28 350.26 L 301.66 350.26 L 301.66 347.88 Z  M 301.66 359.78 L 299.28 359.78 L 299.28 362.16 L 301.66 362.16 L 301.66 359.78 Z " fill-rule="evenodd" fill="rgb(255,255,255)"/></g></svg>
