<?xml version="1.0" encoding="UTF-8" standalone="no"?>
<!DOCTYPE svg PUBLIC "-//W3C//DTD SVG 1.1//EN" "http://www.w3.org/Graphics/SVG/1.1/DTD/svg11.dtd">
<svg xmlns="http://www.w3.org/2000/svg" xmlns:xl="http://www.w3.org/1999/xlink" version="1.1" viewBox="0 0 684 684" preserveAspectRatio="xMinYMin" xmlns:dc="http://purl.org/dc/elements/1.1/">
  <metadata> Produced by OmniGraffle 7.6 
    <dc:date>2018-01-19 00:42:34 +0000</dc:date>
  </metadata>
  <defs/>
  <g stroke="none" stroke-opacity="1" stroke-dasharray="none" fill="none" fill-opacity="1">
    <title>Corn Exchange</title>
    <g>
      <title>Layer 1</title>
      <rect x="0" y="0" width="684" height="684" fill="black"/>
      <path d="M 399 456 L 399 598.5 L 684 598.5 L 684 228 L 0 228 L 0 456 Z" fill="#eb3300"/>
      <path d="M 0 228 L 0 313.5 L 85.5 313.5 L 85.5 256.5 L 256.5 256.5 L 256.5 228 Z M 256.5 456 L 256.5 427.5 L 85.5 427.5 L 85.5 370.5 L 0 370.5 L 0 456 Z M 684 228 L 256.5 228 L 256.5 313.5 L 285 313.5 L 285 256.5 L 655.5 256.5 L 655.5 427.5 L 484.5 427.5 L 484.5 484.5 L 513 484.5 L 513 456 L 541.5 456 L 541.5 484.5 L 570 484.5 L 570 456 L 598.5 456 L 598.5 484.5 L 627 484.5 L 627 456 L 684 456 L 684 570 L 627 570 L 627 541.5 L 598.5 541.5 L 598.5 570 L 570 570 L 570 541.5 L 541.5 541.5 L 541.5 570 L 513 570 L 513 541.5 L 484.5 541.5 L 484.5 570 L 427.5 570 L 427.5 427.5 L 285 427.5 L 285 370.5 L 256.5 370.5 L 256.5 456 L 399 456 L 399 598.5 L 684 598.5 Z" fill="white"/>
      <rect x="28.5" y="313.5" width="57" height="28.5" fill="black"/>
      <rect x="285" y="256.5" width="28.5" height="57" fill="black"/>
      <rect x="285" y="370.5" width="28.5" height="57" fill="black"/>
      <rect x="570" y="313.5" width="28.5" height="57" fill="black"/>
      <path d="M 570 285 L 570 256.5 L 342 256.5 L 342 427.5 L 570 427.5 L 570 399 L 541.5 399 L 541.5 285 Z" fill="black"/>
      <rect x="627" y="256.5" width="28.5" height="171" fill="black"/>
      <rect x="627" y="456" width="57" height="114" fill="black"/>
      <path d="M 90.68182 256.5 L 90.68182 259.0909 L 88.09091 259.0909 L 88.09091 261.68182 L 90.68182 261.68182 L 90.68182 264.27273 L 93.27273 264.27273 L 93.27273 261.68182 L 95.86364 261.68182 L 95.86364 259.0909 L 93.27273 259.0909 L 93.27273 256.5 Z M 106.22727 256.5 L 106.22727 259.0909 L 103.63636 259.0909 L 103.63636 261.68182 L 106.22727 261.68182 L 106.22727 264.27273 L 108.81818 264.27273 L 108.81818 261.68182 L 111.40909 261.68182 L 111.40909 259.0909 L 108.81818 259.0909 L 108.81818 256.5 Z M 95.86364 266.86364 L 88.09091 266.86364 L 88.09091 269.45455 L 85.5 269.45455 L 85.5 274.63636 L 88.09091 274.63636 L 88.09091 269.45455 L 90.68182 269.45455 L 90.68182 277.22727 L 88.09091 277.22727 L 88.09091 285 L 90.68182 285 L 90.68182 279.81818 L 93.27273 279.81818 L 93.27273 285 L 95.86364 285 L 95.86364 277.22727 L 93.27273 277.22727 L 93.27273 269.45455 L 95.86364 269.45455 L 95.86364 274.63636 L 98.45455 274.63636 L 98.45455 269.45455 L 95.86364 269.45455 Z M 111.40909 266.86364 L 111.40909 269.45455 L 111.40909 269.45455 L 111.40909 274.63636 L 114 274.63636 L 114 269.45455 L 111.40909 269.45455 Z M 111.40909 266.86364 L 103.63636 266.86364 L 103.63636 269.45455 L 101.04545 269.45455 L 101.04545 274.63636 L 103.63636 274.63636 L 103.63636 269.45455 L 106.22727 269.45455 L 106.22727 274.63636 L 103.63636 274.63636 L 103.63636 277.22727 L 101.04545 277.22727 L 101.04545 279.81818 L 103.63636 279.81818 L 103.63636 285 L 106.22727 285 L 106.22727 279.81818 L 108.81818 279.81818 L 108.81818 285 L 111.40909 285 L 111.40909 279.81818 L 114 279.81818 L 114 277.22727 L 111.40909 277.22727 L 111.40909 274.63636 L 108.81818 274.63636 L 108.81818 269.45455 L 111.40909 269.45455 Z" fill="black"/>
      <path d="M 432.6818 541.5 L 432.6818 544.0909 L 430.0909 544.0909 L 430.0909 546.6818 L 432.6818 546.6818 L 432.6818 549.2727 L 435.27273 549.2727 L 435.27273 546.6818 L 437.86364 546.6818 L 437.86364 544.0909 L 435.27273 544.0909 L 435.27273 541.5 Z M 448.22727 541.5 L 448.22727 544.0909 L 445.63636 544.0909 L 445.63636 546.6818 L 448.22727 546.6818 L 448.22727 549.2727 L 450.8182 549.2727 L 450.8182 546.6818 L 453.4091 546.6818 L 453.4091 544.0909 L 450.8182 544.0909 L 450.8182 541.5 Z M 437.86364 551.86364 L 430.0909 551.86364 L 430.0909 554.45455 L 427.5 554.45455 L 427.5 559.63636 L 430.0909 559.63636 L 430.0909 554.45455 L 432.6818 554.45455 L 432.6818 562.2273 L 430.0909 562.2273 L 430.0909 570 L 432.6818 570 L 432.6818 564.8182 L 435.27273 564.8182 L 435.27273 570 L 437.86364 570 L 437.86364 562.2273 L 435.27273 562.2273 L 435.27273 554.45455 L 437.86364 554.45455 L 437.86364 559.63636 L 440.45455 559.63636 L 440.45455 554.45455 L 437.86364 554.45455 Z M 453.4091 551.86364 L 453.4091 554.45455 L 453.4091 554.45455 L 453.4091 559.63636 L 456 559.63636 L 456 554.45455 L 453.4091 554.45455 Z M 453.4091 551.86364 L 445.63636 551.86364 L 445.63636 554.45455 L 443.04545 554.45455 L 443.04545 559.63636 L 445.63636 559.63636 L 445.63636 554.45455 L 448.22727 554.45455 L 448.22727 559.63636 L 445.63636 559.63636 L 445.63636 562.2273 L 443.04545 562.2273 L 443.04545 564.8182 L 445.63636 564.8182 L 445.63636 570 L 448.22727 570 L 448.22727 564.8182 L 450.8182 564.8182 L 450.8182 570 L 453.4091 570 L 453.4091 564.8182 L 456 564.8182 L 456 562.2273 L 453.4091 562.2273 L 453.4091 559.63636 L 450.8182 559.63636 L 450.8182 554.45455 L 453.4091 554.45455 Z" fill="black"/>
      <path d="M 90.68182 399 L 90.68182 401.5909 L 88.09091 401.5909 L 88.09091 404.1818 L 90.68182 404.1818 L 90.68182 406.77273 L 93.27273 406.77273 L 93.27273 404.1818 L 95.86364 404.1818 L 95.86364 401.5909 L 93.27273 401.5909 L 93.27273 399 Z M 106.22727 399 L 106.22727 401.5909 L 103.63636 401.5909 L 103.63636 404.1818 L 106.22727 404.1818 L 106.22727 406.77273 L 108.81818 406.77273 L 108.81818 404.1818 L 111.40909 404.1818 L 111.40909 401.5909 L 108.81818 401.5909 L 108.81818 399 Z M 95.86364 409.36364 L 88.09091 409.36364 L 88.09091 411.95455 L 85.5 411.95455 L 85.5 417.13636 L 88.09091 417.13636 L 88.09091 411.95455 L 90.68182 411.95455 L 90.68182 419.72727 L 88.09091 419.72727 L 88.09091 427.5 L 90.68182 427.5 L 90.68182 422.3182 L 93.27273 422.3182 L 93.27273 427.5 L 95.86364 427.5 L 95.86364 419.72727 L 93.27273 419.72727 L 93.27273 411.95455 L 95.86364 411.95455 L 95.86364 417.13636 L 98.45455 417.13636 L 98.45455 411.95455 L 95.86364 411.95455 Z M 111.40909 409.36364 L 111.40909 411.95455 L 111.40909 411.95455 L 111.40909 417.13636 L 114 417.13636 L 114 411.95455 L 111.40909 411.95455 Z M 111.40909 409.36364 L 103.63636 409.36364 L 103.63636 411.95455 L 101.04545 411.95455 L 101.04545 417.13636 L 103.63636 417.13636 L 103.63636 411.95455 L 106.22727 411.95455 L 106.22727 417.13636 L 103.63636 417.13636 L 103.63636 419.72727 L 101.04545 419.72727 L 101.04545 422.3182 L 103.63636 422.3182 L 103.63636 427.5 L 106.22727 427.5 L 106.22727 422.3182 L 108.81818 422.3182 L 108.81818 427.5 L 111.40909 427.5 L 111.40909 422.3182 L 114 422.3182 L 114 419.72727 L 111.40909 419.72727 L 111.40909 417.13636 L 108.81818 417.13636 L 108.81818 411.95455 L 111.40909 411.95455 Z" fill="black"/>
      <path d="M 148.6 200.7 L 121.4 200.7 L 121.4 159.9 L 114.6 159.9 L 114.6 200.7 L 121.4 200.7 L 121.4 207.5 L 148.6 207.5 Z M 155.4 159.9 L 148.6 159.9 L 148.6 153.1 L 121.4 153.1 L 121.4 159.9 L 148.6 159.9 L 148.6 166.7 L 155.4 166.7 Z M 155.4 193.9 L 148.6 193.9 L 148.6 200.7 L 155.4 200.7 Z" fill="white"/>
      <path d="M 169 200.7 L 175.8 200.7 L 175.8 207.5 L 196.2 207.5 L 196.2 200.7 L 175.8 200.7 L 175.8 173.5 L 169 173.5 Z M 175.8 173.5 L 196.2 173.5 L 196.2 200.7 L 203 200.7 L 203 173.5 L 196.2 173.5 L 196.2 166.7 L 175.8 166.7 Z" fill="white"/>
      <path d="M 216.6 207.5 L 223.4 207.5 L 223.4 173.5 L 237 173.5 L 237 166.7 L 216.6 166.7 Z" fill="white"/>
      <path d="M 250.6 180.3 L 257.4 180.3 L 257.4 173.5 L 250.6 173.5 L 250.6 166.7 L 243.8 166.7 L 243.8 207.5 L 250.6 207.5 Z M 271 207.5 L 277.8 207.5 L 277.8 173.5 L 271 173.5 L 271 166.7 L 257.4 166.7 L 257.4 173.5 L 271 173.5 Z" fill="white"/>
      <path d="M 318.6 180.3 L 345.8 180.3 L 345.8 173.5 L 318.6 173.5 L 318.6 159.9 L 345.8 159.9 L 345.8 153.1 L 311.8 153.1 L 311.8 207.5 L 345.8 207.5 L 345.8 200.7 L 318.6 200.7 Z" fill="white"/>
      <path d="M 366.2 193.9 L 379.8 193.9 L 379.8 207.5 L 386.6 207.5 L 386.6 193.9 L 379.8 193.9 L 379.8 180.3 L 366.2 180.3 L 366.2 166.7 L 359.4 166.7 L 359.4 180.3 L 366.2 180.3 Z M 359.4 207.5 L 366.2 207.5 L 366.2 193.9 L 359.4 193.9 Z M 386.6 166.7 L 379.8 166.7 L 379.8 180.3 L 386.6 180.3 Z" fill="white"/>
      <path d="M 400.2 200.7 L 407 200.7 L 407 207.5 L 427.4 207.5 L 427.4 200.7 L 407 200.7 L 407 173.5 L 400.2 173.5 Z M 434.2 173.5 L 427.4 173.5 L 427.4 166.7 L 407 166.7 L 407 173.5 L 427.4 173.5 L 427.4 180.3 L 434.2 180.3 Z M 434.2 193.9 L 427.4 193.9 L 427.4 200.7 L 434.2 200.7 Z" fill="white"/>
      <path d="M 454.6 180.3 L 461.4 180.3 L 461.4 173.5 L 454.6 173.5 L 454.6 153.1 L 447.8 153.1 L 447.8 207.5 L 454.6 207.5 Z M 475 207.5 L 481.8 207.5 L 481.8 173.5 L 475 173.5 L 475 166.7 L 461.4 166.7 L 461.4 173.5 L 475 173.5 Z" fill="white"/>
      <path d="M 495.4 180.3 L 502.2 180.3 L 502.2 187.1 L 522.6 187.1 L 522.6 193.9 L 515.8 193.9 L 515.8 200.7 L 522.6 200.7 L 522.6 207.5 L 536.2 207.5 L 536.2 200.7 L 529.4 200.7 L 529.4 173.5 L 522.6 173.5 L 522.6 166.7 L 502.2 166.7 L 502.2 173.5 L 495.4 173.5 Z M 495.4 200.7 L 502.2 200.7 L 502.2 207.5 L 515.8 207.5 L 515.8 200.7 L 502.2 200.7 L 502.2 187.1 L 495.4 187.1 Z M 502.2 173.5 L 522.6 173.5 L 522.6 180.3 L 502.2 180.3 Z" fill="white"/>
      <path d="M 549.8 180.3 L 556.6 180.3 L 556.6 173.5 L 549.8 173.5 L 549.8 166.7 L 543 166.7 L 543 207.5 L 549.8 207.5 Z M 570.2 207.5 L 577 207.5 L 577 173.5 L 570.2 173.5 L 570.2 166.7 L 556.6 166.7 L 556.6 173.5 L 570.2 173.5 Z" fill="white"/>
      <path d="M 617.8 193.9 L 611 193.9 L 611 200.7 L 617.8 200.7 L 617.8 214.3 L 624.6 214.3 L 624.6 166.7 L 617.8 166.7 L 617.8 173.5 L 611 173.5 L 611 166.7 L 597.4 166.7 L 597.4 173.5 L 611 173.5 L 611 180.3 L 617.8 180.3 Z M 611 200.7 L 597.4 200.7 L 597.4 173.5 L 590.6 173.5 L 590.6 200.7 L 597.4 200.7 L 597.4 207.5 L 611 207.5 Z M 597.4 207.5 L 590.6 207.5 L 590.6 214.3 L 597.4 214.3 L 597.4 221.1 L 617.8 221.1 L 617.8 214.3 L 597.4 214.3 Z" fill="white"/>
      <path d="M 672.2 173.5 L 665.4 173.5 L 665.4 166.7 L 645 166.7 L 645 173.5 L 665.4 173.5 L 665.4 180.3 L 645 180.3 L 645 173.5 L 638.2 173.5 L 638.2 200.7 L 645 200.7 L 645 207.5 L 665.4 207.5 L 665.4 200.7 L 645 200.7 L 645 187.1 L 672.2 187.1 Z M 672.2 193.9 L 665.4 193.9 L 665.4 200.7 L 672.2 200.7 Z" fill="white"/>
      <path d="M 11.8 340.3 L 15.2 340.3 L 15.2 343.7 L 18.6 343.7 L 18.6 347.1 L 22 347.1 L 22 350.5 L 25.4 350.5 L 25.4 347.1 L 22 347.1 L 22 343.7 L 18.6 343.7 L 18.6 340.3 L 22 340.3 L 22 336.9 L 11.8 336.9 L 11.8 326.7 L 22 326.7 L 22 336.9 L 25.4 336.9 L 25.4 326.7 L 22 326.7 L 22 323.3 L 8.4 323.3 L 8.4 350.5 L 11.8 350.5 Z" fill="white"/>
      <path d="M 49.2 333.5 L 45.8 333.5 L 45.8 330.1 L 35.6 330.1 L 35.6 333.5 L 45.8 333.5 L 45.8 336.9 L 35.6 336.9 L 35.6 333.5 L 32.2 333.5 L 32.2 347.1 L 35.6 347.1 L 35.6 350.5 L 45.8 350.5 L 45.8 347.1 L 35.6 347.1 L 35.6 340.3 L 49.2 340.3 Z M 49.2 343.7 L 45.8 343.7 L 45.8 347.1 L 49.2 347.1 Z" fill="white"/>
      <path d="M 69.6 343.7 L 66.2 343.7 L 66.2 347.1 L 69.6 347.1 L 69.6 353.9 L 73 353.9 L 73 330.1 L 69.6 330.1 L 69.6 333.5 L 66.2 333.5 L 66.2 330.1 L 59.4 330.1 L 59.4 333.5 L 66.2 333.5 L 66.2 336.9 L 69.6 336.9 Z M 66.2 347.1 L 59.4 347.1 L 59.4 333.5 L 56 333.5 L 56 347.1 L 59.4 347.1 L 59.4 350.5 L 66.2 350.5 Z M 59.4 350.5 L 56 350.5 L 56 353.9 L 59.4 353.9 L 59.4 357.3 L 69.6 357.3 L 69.6 353.9 L 59.4 353.9 Z" fill="white"/>
      <path d="M 79.8 350.5 L 83.2 350.5 L 83.2 330.1 L 79.8 330.1 Z M 79.8 326.7 L 83.2 326.7 L 83.2 323.3 L 79.8 323.3 Z" fill="white"/>
      <path d="M 93.4 340.3 L 100.2 340.3 L 100.2 343.7 L 103.6 343.7 L 103.6 347.1 L 107 347.1 L 107 343.7 L 103.6 343.7 L 103.6 340.3 L 100.2 340.3 L 100.2 336.9 L 93.4 336.9 L 93.4 333.5 L 90 333.5 L 90 336.9 L 93.4 336.9 Z M 107 333.5 L 103.6 333.5 L 103.6 330.1 L 93.4 330.1 L 93.4 333.5 L 103.6 333.5 L 103.6 336.9 L 107 336.9 Z M 90 347.1 L 93.4 347.1 L 93.4 350.5 L 103.6 350.5 L 103.6 347.1 L 93.4 347.1 L 93.4 343.7 L 90 343.7 Z" fill="white"/>
      <path d="M 120.6 330.1 L 117.2 330.1 L 117.2 323.3 L 113.8 323.3 L 113.8 330.1 L 110.4 330.1 L 110.4 333.5 L 113.8 333.5 L 113.8 350.5 L 120.6 350.5 L 120.6 347.1 L 117.2 347.1 L 117.2 333.5 L 120.6 333.5 Z" fill="white"/>
      <path d="M 127.4 350.5 L 130.8 350.5 L 130.8 333.5 L 137.6 333.5 L 137.6 330.1 L 127.4 330.1 Z" fill="white"/>
      <path d="M 141 336.9 L 144.4 336.9 L 144.4 340.3 L 154.6 340.3 L 154.6 343.7 L 151.2 343.7 L 151.2 347.1 L 154.6 347.1 L 154.6 350.5 L 161.4 350.5 L 161.4 347.1 L 158 347.1 L 158 333.5 L 154.6 333.5 L 154.6 330.1 L 144.4 330.1 L 144.4 333.5 L 141 333.5 Z M 141 347.1 L 144.4 347.1 L 144.4 350.5 L 151.2 350.5 L 151.2 347.1 L 144.4 347.1 L 144.4 340.3 L 141 340.3 Z M 144.4 333.5 L 154.6 333.5 L 154.6 336.9 L 144.4 336.9 Z" fill="white"/>
      <path d="M 175 330.1 L 171.6 330.1 L 171.6 323.3 L 168.2 323.3 L 168.2 330.1 L 164.8 330.1 L 164.8 333.5 L 168.2 333.5 L 168.2 350.5 L 175 350.5 L 175 347.1 L 171.6 347.1 L 171.6 333.5 L 175 333.5 Z" fill="white"/>
      <path d="M 181.8 350.5 L 185.2 350.5 L 185.2 330.1 L 181.8 330.1 Z M 181.8 326.7 L 185.2 326.7 L 185.2 323.3 L 181.8 323.3 Z" fill="white"/>
      <path d="M 192 347.1 L 195.4 347.1 L 195.4 350.5 L 205.6 350.5 L 205.6 347.1 L 195.4 347.1 L 195.4 333.5 L 192 333.5 Z M 195.4 333.5 L 205.6 333.5 L 205.6 347.1 L 209 347.1 L 209 333.5 L 205.6 333.5 L 205.6 330.1 L 195.4 330.1 Z" fill="white"/>
      <path d="M 219.2 336.9 L 222.6 336.9 L 222.6 333.5 L 219.2 333.5 L 219.2 330.1 L 215.8 330.1 L 215.8 350.5 L 219.2 350.5 Z M 229.4 350.5 L 232.8 350.5 L 232.8 333.5 L 229.4 333.5 L 229.4 330.1 L 222.6 330.1 L 222.6 333.5 L 229.4 333.5 Z" fill="white"/>
      <path d="M 142.7 290.1 L 129.1 290.1 L 129.1 269.7 L 125.7 269.7 L 125.7 290.1 L 129.1 290.1 L 129.1 293.5 L 142.7 293.5 Z M 146.1 269.7 L 142.7 269.7 L 142.7 266.3 L 129.1 266.3 L 129.1 269.7 L 142.7 269.7 L 142.7 273.1 L 146.1 273.1 Z M 146.1 286.7 L 142.7 286.7 L 142.7 290.1 L 146.1 290.1 Z" fill="white"/>
      <path d="M 152.9 290.1 L 156.3 290.1 L 156.3 293.5 L 166.5 293.5 L 166.5 290.1 L 156.3 290.1 L 156.3 276.5 L 152.9 276.5 Z M 156.3 276.5 L 166.5 276.5 L 166.5 290.1 L 169.9 290.1 L 169.9 276.5 L 166.5 276.5 L 166.5 273.1 L 156.3 273.1 Z" fill="white"/>
      <path d="M 186.9 273.1 L 183.5 273.1 L 183.5 269.7 L 186.9 269.7 L 186.9 266.3 L 180.1 266.3 L 180.1 273.1 L 176.7 273.1 L 176.7 276.5 L 180.1 276.5 L 180.1 293.5 L 183.5 293.5 L 183.5 276.5 L 186.9 276.5 Z" fill="white"/>
      <path d="M 200.5 273.1 L 197.1 273.1 L 197.1 269.7 L 200.5 269.7 L 200.5 266.3 L 193.7 266.3 L 193.7 273.1 L 190.3 273.1 L 190.3 276.5 L 193.7 276.5 L 193.7 293.5 L 197.1 293.5 L 197.1 276.5 L 200.5 276.5 Z" fill="white"/>
      <path d="M 224.3 276.5 L 220.9 276.5 L 220.9 273.1 L 210.7 273.1 L 210.7 276.5 L 220.9 276.5 L 220.9 279.9 L 210.7 279.9 L 210.7 276.5 L 207.3 276.5 L 207.3 290.1 L 210.7 290.1 L 210.7 293.5 L 220.9 293.5 L 220.9 290.1 L 210.7 290.1 L 210.7 283.3 L 224.3 283.3 Z M 224.3 286.7 L 220.9 286.7 L 220.9 290.1 L 224.3 290.1 Z" fill="white"/>
      <path d="M 248.1 276.5 L 244.7 276.5 L 244.7 273.1 L 234.5 273.1 L 234.5 276.5 L 244.7 276.5 L 244.7 279.9 L 234.5 279.9 L 234.5 276.5 L 231.1 276.5 L 231.1 290.1 L 234.5 290.1 L 234.5 293.5 L 244.7 293.5 L 244.7 290.1 L 234.5 290.1 L 234.5 283.3 L 248.1 283.3 Z M 248.1 286.7 L 244.7 286.7 L 244.7 290.1 L 248.1 290.1 Z" fill="white"/>
      <path d="M 35.6 486.9 L 15.2 486.9 L 15.2 483.5 L 11.8 483.5 L 11.8 486.9 L 8.4 486.9 L 8.4 490.3 L 11.8 490.3 L 11.8 493.7 L 15.2 493.7 L 15.2 497.1 L 18.6 497.1 L 18.6 500.5 L 22 500.5 L 22 497.1 L 18.6 497.1 L 18.6 493.7 L 15.2 493.7 L 15.2 490.3 L 35.6 490.3 Z M 22 476.7 L 18.6 476.7 L 18.6 480.1 L 22 480.1 Z M 18.6 480.1 L 15.2 480.1 L 15.2 483.5 L 18.6 483.5 Z" fill="white"/>
      <path d="M 62.8 480.1 L 59.4 480.1 L 59.4 473.3 L 56 473.3 L 56 480.1 L 52.6 480.1 L 52.6 483.5 L 56 483.5 L 56 500.5 L 62.8 500.5 L 62.8 497.1 L 59.4 497.1 L 59.4 483.5 L 62.8 483.5 Z" fill="white"/>
      <path d="M 69.6 497.1 L 73 497.1 L 73 500.5 L 83.2 500.5 L 83.2 497.1 L 73 497.1 L 73 483.5 L 69.6 483.5 Z M 73 483.5 L 83.2 483.5 L 83.2 497.1 L 86.6 497.1 L 86.6 483.5 L 83.2 483.5 L 83.2 480.1 L 73 480.1 Z" fill="white"/>
      <path d="M 117.2 497.1 L 107 497.1 L 107 476.7 L 103.6 476.7 L 103.6 497.1 L 107 497.1 L 107 500.5 L 117.2 500.5 Z M 117.2 497.1 L 120.6 497.1 L 120.6 500.5 L 124 500.5 L 124 486.9 L 113.8 486.9 L 113.8 490.3 L 120.6 490.3 L 120.6 493.7 L 117.2 493.7 Z M 124 476.7 L 120.6 476.7 L 120.6 473.3 L 107 473.3 L 107 476.7 L 120.6 476.7 L 120.6 480.1 L 124 480.1 Z" fill="white"/>
      <path d="M 144.4 493.7 L 141 493.7 L 141 497.1 L 144.4 497.1 L 144.4 500.5 L 147.8 500.5 L 147.8 480.1 L 144.4 480.1 Z M 141 497.1 L 134.2 497.1 L 134.2 480.1 L 130.8 480.1 L 130.8 497.1 L 134.2 497.1 L 134.2 500.5 L 141 500.5 Z" fill="white"/>
      <path d="M 154.6 500.5 L 158 500.5 L 158 480.1 L 154.6 480.1 Z M 154.6 476.7 L 158 476.7 L 158 473.3 L 154.6 473.3 Z" fill="white"/>
      <rect x="164.8" y="473.3" width="3.4" height="27.2" fill="white"/>
      <path d="M 192 473.3 L 188.6 473.3 L 188.6 483.5 L 185.2 483.5 L 185.2 480.1 L 178.4 480.1 L 178.4 483.5 L 185.2 483.5 L 185.2 486.9 L 188.6 486.9 L 188.6 493.7 L 185.2 493.7 L 185.2 497.1 L 188.6 497.1 L 188.6 500.5 L 192 500.5 Z M 185.2 497.1 L 178.4 497.1 L 178.4 483.5 L 175 483.5 L 175 497.1 L 178.4 497.1 L 178.4 500.5 L 185.2 500.5 Z" fill="white"/>
      <path d="M 202.2 486.9 L 205.6 486.9 L 205.6 483.5 L 202.2 483.5 L 202.2 473.3 L 198.8 473.3 L 198.8 500.5 L 202.2 500.5 Z M 212.4 500.5 L 215.8 500.5 L 215.8 483.5 L 212.4 483.5 L 212.4 480.1 L 205.6 480.1 L 205.6 483.5 L 212.4 483.5 Z" fill="white"/>
      <path d="M 222.6 486.9 L 226 486.9 L 226 490.3 L 236.2 490.3 L 236.2 493.7 L 232.8 493.7 L 232.8 497.1 L 236.2 497.1 L 236.2 500.5 L 243 500.5 L 243 497.1 L 239.6 497.1 L 239.6 483.5 L 236.2 483.5 L 236.2 480.1 L 226 480.1 L 226 483.5 L 222.6 483.5 Z M 222.6 497.1 L 226 497.1 L 226 500.5 L 232.8 500.5 L 232.8 497.1 L 226 497.1 L 226 490.3 L 222.6 490.3 Z M 226 483.5 L 236.2 483.5 L 236.2 486.9 L 226 486.9 Z" fill="white"/>
      <rect x="246.4" y="473.3" width="3.4" height="27.2" fill="white"/>
      <rect x="256.6" y="473.3" width="3.4" height="27.2" fill="white"/>
      <path d="M 108.7 408.2 L 112.1 408.2 L 112.1 415 L 115.5 415 L 115.5 408.2 L 112.1 408.2 L 112.1 398 L 108.7 398 L 108.7 387.8 L 105.3 387.8 L 105.3 398 L 108.7 398 Z M 122.3 408.2 L 125.7 408.2 L 125.7 415 L 129.1 415 L 129.1 408.2 L 125.7 408.2 L 125.7 398 L 122.3 398 L 122.3 387.8 L 118.9 387.8 L 118.9 398 L 122.3 398 Z M 135.9 387.8 L 132.5 387.8 L 132.5 398 L 135.9 398 Z M 118.9 398 L 115.5 398 L 115.5 408.2 L 118.9 408.2 Z M 132.5 398 L 129.1 398 L 129.1 408.2 L 132.5 408.2 Z" fill="white"/>
      <path d="M 139.3 401.4 L 142.7 401.4 L 142.7 404.8 L 152.9 404.8 L 152.9 408.2 L 149.5 408.2 L 149.5 411.6 L 152.9 411.6 L 152.9 415 L 159.7 415 L 159.7 411.6 L 156.3 411.6 L 156.3 398 L 152.9 398 L 152.9 394.6 L 142.7 394.6 L 142.7 398 L 139.3 398 Z M 139.3 411.6 L 142.7 411.6 L 142.7 415 L 149.5 415 L 149.5 411.6 L 142.7 411.6 L 142.7 404.8 L 139.3 404.8 Z M 142.7 398 L 152.9 398 L 152.9 401.4 L 142.7 401.4 Z" fill="white"/>
      <path d="M 173.3 394.6 L 169.9 394.6 L 169.9 391.2 L 173.3 391.2 L 173.3 387.8 L 166.5 387.8 L 166.5 394.6 L 163.1 394.6 L 163.1 398 L 166.5 398 L 166.5 415 L 169.9 415 L 169.9 398 L 173.3 398 Z" fill="white"/>
      <path d="M 197.1 415 L 200.5 415 L 200.5 387.8 L 183.5 387.8 L 183.5 394.6 L 180.1 394.6 L 180.1 398 L 183.5 398 L 183.5 415 L 186.9 415 L 186.9 398 L 190.3 398 L 190.3 394.6 L 186.9 394.6 L 186.9 391.2 L 197.1 391.2 Z" fill="white"/>
      <path d="M 224.3 398 L 220.9 398 L 220.9 394.6 L 210.7 394.6 L 210.7 398 L 220.9 398 L 220.9 401.4 L 210.7 401.4 L 210.7 398 L 207.3 398 L 207.3 411.6 L 210.7 411.6 L 210.7 415 L 220.9 415 L 220.9 411.6 L 210.7 411.6 L 210.7 404.8 L 224.3 404.8 Z M 224.3 408.2 L 220.9 408.2 L 220.9 411.6 L 224.3 411.6 Z" fill="white"/>
      <path d="M 234.5 404.8 L 241.3 404.8 L 241.3 408.2 L 244.7 408.2 L 244.7 411.6 L 248.1 411.6 L 248.1 408.2 L 244.7 408.2 L 244.7 404.8 L 241.3 404.8 L 241.3 401.4 L 234.5 401.4 L 234.5 398 L 231.1 398 L 231.1 401.4 L 234.5 401.4 Z M 248.1 398 L 244.7 398 L 244.7 394.6 L 234.5 394.6 L 234.5 398 L 244.7 398 L 244.7 401.4 L 248.1 401.4 Z M 231.1 411.6 L 234.5 411.6 L 234.5 415 L 244.7 415 L 244.7 411.6 L 234.5 411.6 L 234.5 408.2 L 231.1 408.2 Z" fill="white"/>
      <path d="M 308.4 405.5 L 308.4 408.9 L 305 408.9 L 305 415.7 L 298.2 415.7 L 298.2 419.1 L 305 419.1 L 305 415.7 L 308.4 415.7 L 308.4 408.9 L 311.8 408.9 L 311.8 405.5 L 318.6 405.5 L 318.6 402.1 L 311.8 402.1 L 311.8 405.5 Z M 298.2 402.1 L 298.2 405.5 L 294.8 405.5 L 294.8 415.7 L 298.2 415.7 L 298.2 405.5 L 301.6 405.5 L 301.6 402.1 Z M 315.2 415.7 L 315.2 419.1 L 318.6 419.1 L 318.6 415.7 L 322 415.7 L 322 405.5 L 318.6 405.5 L 318.6 415.7 Z" fill="white"/>
      <path d="M 308.4 391.9 L 308.4 388.5 L 305 388.5 L 305 391.9 L 301.6 391.9 L 301.6 395.3 L 322 395.3 L 322 391.9 Z M 322 381.7 L 322 378.3 L 305 378.3 L 305 381.7 L 301.6 381.7 L 301.6 388.5 L 305 388.5 L 305 381.7 Z" fill="white"/>
      <path d="M 308.4 371.5 L 308.4 368.1 L 311.8 368.1 L 311.8 357.9 L 315.2 357.9 L 315.2 361.3 L 318.6 361.3 L 318.6 357.9 L 322 357.9 L 322 351.1 L 318.6 351.1 L 318.6 354.5 L 305 354.5 L 305 357.9 L 301.6 357.9 L 301.6 368.1 L 305 368.1 L 305 371.5 Z M 318.6 371.5 L 318.6 368.1 L 322 368.1 L 322 361.3 L 318.6 361.3 L 318.6 368.1 L 311.8 368.1 L 311.8 371.5 Z M 305 368.1 L 305 357.9 L 308.4 357.9 L 308.4 368.1 Z" fill="white"/>
      <path d="M 318.6 347.7 L 318.6 344.3 L 322 344.3 L 322 334.1 L 318.6 334.1 L 318.6 344.3 L 305 344.3 L 305 347.7 Z M 305 330.7 L 305 334.1 L 301.6 334.1 L 301.6 344.3 L 305 344.3 L 305 334.1 L 308.4 334.1 L 308.4 330.7 Z M 315.2 330.7 L 315.2 334.1 L 318.6 334.1 L 318.6 330.7 Z" fill="white"/>
      <path d="M 315.2 320.5 L 315.2 317.1 L 318.6 317.1 L 318.6 313.7 L 322 313.7 L 322 310.3 L 318.6 310.3 L 318.6 313.7 L 315.2 313.7 L 315.2 317.1 L 308.4 317.1 L 308.4 320.5 L 294.8 320.5 L 294.8 323.9 L 322 323.9 L 322 320.5 Z M 308.4 317.1 L 308.4 313.7 L 305 313.7 L 305 317.1 Z M 305 313.7 L 305 310.3 L 301.6 310.3 L 301.6 313.7 Z" fill="white"/>
      <path d="M 311.8 300.1 L 311.8 293.3 L 315.2 293.3 L 315.2 289.9 L 318.6 289.9 L 318.6 286.5 L 315.2 286.5 L 315.2 289.9 L 311.8 289.9 L 311.8 293.3 L 308.4 293.3 L 308.4 300.1 L 305 300.1 L 305 303.5 L 308.4 303.5 L 308.4 300.1 Z M 305 286.5 L 305 289.9 L 301.6 289.9 L 301.6 300.1 L 305 300.1 L 305 289.9 L 308.4 289.9 L 308.4 286.5 Z M 318.6 303.5 L 318.6 300.1 L 322 300.1 L 322 289.9 L 318.6 289.9 L 318.6 300.1 L 315.2 300.1 L 315.2 303.5 Z" fill="white"/>
      <path d="M 607 402.1 L 607 398.7 L 579.8 398.7 L 579.8 402.1 L 590 402.1 L 590 415.7 L 579.8 415.7 L 579.8 419.1 L 607 419.1 L 607 415.7 L 593.4 415.7 L 593.4 402.1 Z" fill="white"/>
      <path d="M 607 391.9 L 607 388.5 L 600.2 388.5 L 600.2 391.9 Z M 579.8 378.3 L 579.8 381.7 L 586.6 381.7 L 586.6 378.3 Z M 586.6 381.7 L 586.6 385.1 L 593.4 385.1 L 593.4 381.7 Z M 593.4 385.1 L 593.4 388.5 L 600.2 388.5 L 600.2 385.1 Z" fill="white"/>
      <path d="M 600.2 368.1 L 600.2 364.7 L 607 364.7 L 607 361.3 L 600.2 361.3 L 600.2 364.7 L 590 364.7 L 590 368.1 L 579.8 368.1 L 579.8 371.5 L 590 371.5 L 590 368.1 Z M 600.2 354.5 L 600.2 351.1 L 607 351.1 L 607 347.7 L 600.2 347.7 L 600.2 351.1 L 590 351.1 L 590 354.5 L 579.8 354.5 L 579.8 357.9 L 590 357.9 L 590 354.5 Z M 579.8 340.9 L 579.8 344.3 L 590 344.3 L 590 340.9 Z M 590 357.9 L 590 361.3 L 600.2 361.3 L 600.2 357.9 Z M 590 344.3 L 590 347.7 L 600.2 347.7 L 600.2 344.3 Z" fill="white"/>
      <rect x="579.8" y="320.5" width="27.2" height="3.4" fill="white"/>
      <path d="M 593.4 313.7 L 593.4 310.3 L 596.8 310.3 L 596.8 300.1 L 600.2 300.1 L 600.2 303.5 L 603.6 303.5 L 603.6 300.1 L 607 300.1 L 607 293.3 L 603.6 293.3 L 603.6 296.7 L 590 296.7 L 590 300.1 L 586.6 300.1 L 586.6 310.3 L 590 310.3 L 590 313.7 Z M 603.6 313.7 L 603.6 310.3 L 607 310.3 L 607 303.5 L 603.6 303.5 L 603.6 310.3 L 596.8 310.3 L 596.8 313.7 Z M 590 310.3 L 590 300.1 L 593.4 300.1 L 593.4 310.3 Z" fill="white"/>
      <path d="M 593.4 286.5 L 593.4 283.1 L 590 283.1 L 590 286.5 L 579.8 286.5 L 579.8 289.9 L 607 289.9 L 607 286.5 L 603.6 286.5 L 603.6 283.1 L 607 283.1 L 607 276.3 L 603.6 276.3 L 603.6 283.1 L 600.2 283.1 L 600.2 286.5 Z M 590 283.1 L 590 276.3 L 603.6 276.3 L 603.6 272.9 L 590 272.9 L 590 276.3 L 586.6 276.3 L 586.6 283.1 Z" fill="white"/>
      <path d="M 367.4 293.5 L 370.8 293.5 L 370.8 266.3 L 367.4 266.3 L 367.4 276.5 L 353.8 276.5 L 353.8 266.3 L 350.4 266.3 L 350.4 293.5 L 353.8 293.5 L 353.8 279.9 L 367.4 279.9 Z" fill="white"/>
      <path d="M 377.6 279.9 L 381 279.9 L 381 283.3 L 391.2 283.3 L 391.2 286.7 L 387.8 286.7 L 387.8 290.1 L 391.2 290.1 L 391.2 293.5 L 398 293.5 L 398 290.1 L 394.6 290.1 L 394.6 276.5 L 391.2 276.5 L 391.2 273.1 L 381 273.1 L 381 276.5 L 377.6 276.5 Z M 377.6 290.1 L 381 290.1 L 381 293.5 L 387.8 293.5 L 387.8 290.1 L 381 290.1 L 381 283.3 L 377.6 283.3 Z M 381 276.5 L 391.2 276.5 L 391.2 279.9 L 381 279.9 Z" fill="white"/>
      <path d="M 401.4 290.1 L 404.8 290.1 L 404.8 293.5 L 415 293.5 L 415 290.1 L 404.8 290.1 L 404.8 276.5 L 401.4 276.5 Z M 418.4 276.5 L 415 276.5 L 415 273.1 L 404.8 273.1 L 404.8 276.5 L 415 276.5 L 415 279.9 L 418.4 279.9 Z M 418.4 286.7 L 415 286.7 L 415 290.1 L 418.4 290.1 Z" fill="white"/>
      <path d="M 428.6 286.7 L 432 286.7 L 432 290.1 L 435.4 290.1 L 435.4 293.5 L 438.8 293.5 L 438.8 290.1 L 435.4 290.1 L 435.4 286.7 L 432 286.7 L 432 279.9 L 428.6 279.9 L 428.6 266.3 L 425.2 266.3 L 425.2 293.5 L 428.6 293.5 Z M 432 279.9 L 435.4 279.9 L 435.4 276.5 L 432 276.5 Z M 435.4 276.5 L 438.8 276.5 L 438.8 273.1 L 435.4 273.1 Z" fill="white"/>
      <path d="M 445.6 293.5 L 449 293.5 L 449 273.1 L 445.6 273.1 Z M 445.6 269.7 L 449 269.7 L 449 266.3 L 445.6 266.3 Z" fill="white"/>
      <path d="M 459.2 279.9 L 462.6 279.9 L 462.6 276.5 L 459.2 276.5 L 459.2 273.1 L 455.8 273.1 L 455.8 293.5 L 459.2 293.5 Z M 469.4 293.5 L 472.8 293.5 L 472.8 276.5 L 469.4 276.5 L 469.4 273.1 L 462.6 273.1 L 462.6 276.5 L 469.4 276.5 Z" fill="white"/>
      <path d="M 493.2 286.7 L 489.8 286.7 L 489.8 290.1 L 493.2 290.1 L 493.2 296.9 L 496.6 296.9 L 496.6 273.1 L 493.2 273.1 L 493.2 276.5 L 489.8 276.5 L 489.8 273.1 L 483 273.1 L 483 276.5 L 489.8 276.5 L 489.8 279.9 L 493.2 279.9 Z M 489.8 290.1 L 483 290.1 L 483 276.5 L 479.6 276.5 L 479.6 290.1 L 483 290.1 L 483 293.5 L 489.8 293.5 Z M 483 293.5 L 479.6 293.5 L 479.6 296.9 L 483 296.9 L 483 300.3 L 493.2 300.3 L 493.2 296.9 L 483 296.9 Z" fill="white"/>
      <path d="M 350.4 315.9 L 353.8 315.9 L 353.8 319.3 L 364 319.3 L 364 322.7 L 360.6 322.7 L 360.6 326.1 L 364 326.1 L 364 329.5 L 370.8 329.5 L 370.8 326.1 L 367.4 326.1 L 367.4 312.5 L 364 312.5 L 364 309.1 L 353.8 309.1 L 353.8 312.5 L 350.4 312.5 Z M 350.4 326.1 L 353.8 326.1 L 353.8 329.5 L 360.6 329.5 L 360.6 326.1 L 353.8 326.1 L 353.8 319.3 L 350.4 319.3 Z M 353.8 312.5 L 364 312.5 L 364 315.9 L 353.8 315.9 Z" fill="white"/>
      <path d="M 374.2 329.5 L 377.6 329.5 L 377.6 312.5 L 384.4 312.5 L 384.4 309.1 L 374.2 309.1 Z" fill="white"/>
      <path d="M 404.8 312.5 L 401.4 312.5 L 401.4 309.1 L 391.2 309.1 L 391.2 312.5 L 401.4 312.5 L 401.4 315.9 L 391.2 315.9 L 391.2 312.5 L 387.8 312.5 L 387.8 326.1 L 391.2 326.1 L 391.2 329.5 L 401.4 329.5 L 401.4 326.1 L 391.2 326.1 L 391.2 319.3 L 404.8 319.3 Z M 404.8 322.7 L 401.4 322.7 L 401.4 326.1 L 404.8 326.1 Z" fill="white"/>
      <path d="M 411.6 315.9 L 415 315.9 L 415 319.3 L 425.2 319.3 L 425.2 322.7 L 421.8 322.7 L 421.8 326.1 L 425.2 326.1 L 425.2 329.5 L 432 329.5 L 432 326.1 L 428.6 326.1 L 428.6 312.5 L 425.2 312.5 L 425.2 309.1 L 415 309.1 L 415 312.5 L 411.6 312.5 Z M 411.6 326.1 L 415 326.1 L 415 329.5 L 421.8 329.5 L 421.8 326.1 L 415 326.1 L 415 319.3 L 411.6 319.3 Z M 415 312.5 L 425.2 312.5 L 425.2 315.9 L 415 315.9 Z" fill="white"/>
      <path d="M 519.2 507.9 L 515.8 507.9 L 515.8 504.5 L 509 504.5 L 509 497.7 L 505.6 497.7 L 505.6 504.5 L 509 504.5 L 509 507.9 L 515.8 507.9 L 515.8 511.3 L 519.2 511.3 L 519.2 518.1 L 522.6 518.1 L 522.6 511.3 L 519.2 511.3 Z M 522.6 497.7 L 519.2 497.7 L 519.2 494.3 L 509 494.3 L 509 497.7 L 519.2 497.7 L 519.2 501.1 L 522.6 501.1 Z M 509 514.7 L 505.6 514.7 L 505.6 518.1 L 509 518.1 L 509 521.5 L 519.2 521.5 L 519.2 518.1 L 509 518.1 Z" fill="white"/>
      <path d="M 529.4 518.1 L 532.8 518.1 L 532.8 521.5 L 543 521.5 L 543 518.1 L 532.8 518.1 L 532.8 504.5 L 529.4 504.5 Z M 532.8 504.5 L 543 504.5 L 543 518.1 L 546.4 518.1 L 546.4 504.5 L 543 504.5 L 543 501.1 L 532.8 501.1 Z" fill="white"/>
      <rect x="553.2" y="494.3" width="3.4" height="27.2" fill="white"/>
      <path d="M 580.4 494.3 L 577 494.3 L 577 504.5 L 573.6 504.5 L 573.6 501.1 L 566.8 501.1 L 566.8 504.5 L 573.6 504.5 L 573.6 507.9 L 577 507.9 L 577 514.7 L 573.6 514.7 L 573.6 518.1 L 577 518.1 L 577 521.5 L 580.4 521.5 Z M 573.6 518.1 L 566.8 518.1 L 566.8 504.5 L 563.4 504.5 L 563.4 518.1 L 566.8 518.1 L 566.8 521.5 L 573.6 521.5 Z" fill="white"/>
      <path d="M 604.2 504.5 L 600.8 504.5 L 600.8 501.1 L 590.6 501.1 L 590.6 504.5 L 600.8 504.5 L 600.8 507.9 L 590.6 507.9 L 590.6 504.5 L 587.2 504.5 L 587.2 518.1 L 590.6 518.1 L 590.6 521.5 L 600.8 521.5 L 600.8 518.1 L 590.6 518.1 L 590.6 511.3 L 604.2 511.3 Z M 604.2 514.7 L 600.8 514.7 L 600.8 518.1 L 604.2 518.1 Z" fill="white"/>
      <path d="M 611 521.5 L 614.4 521.5 L 614.4 504.5 L 621.2 504.5 L 621.2 501.1 L 611 501.1 Z" fill="white"/>
      <path d="M 624.6 521.5 L 628 521.5 L 628 501.1 L 624.6 501.1 Z M 624.6 497.7 L 628 497.7 L 628 494.3 L 624.6 494.3 Z" fill="white"/>
      <path d="M 638.2 507.9 L 641.6 507.9 L 641.6 504.5 L 638.2 504.5 L 638.2 501.1 L 634.8 501.1 L 634.8 521.5 L 638.2 521.5 Z M 648.4 521.5 L 651.8 521.5 L 651.8 504.5 L 648.4 504.5 L 648.4 501.1 L 641.6 501.1 L 641.6 504.5 L 648.4 504.5 Z" fill="white"/>
      <path d="M 672.2 514.7 L 668.8 514.7 L 668.8 518.1 L 672.2 518.1 L 672.2 524.9 L 675.6 524.9 L 675.6 501.1 L 672.2 501.1 L 672.2 504.5 L 668.8 504.5 L 668.8 501.1 L 662 501.1 L 662 504.5 L 668.8 504.5 L 668.8 507.9 L 672.2 507.9 Z M 668.8 518.1 L 662 518.1 L 662 504.5 L 658.6 504.5 L 658.6 518.1 L 662 518.1 L 662 521.5 L 668.8 521.5 Z M 662 521.5 L 658.6 521.5 L 658.6 524.9 L 662 524.9 L 662 528.3 L 672.2 528.3 L 672.2 524.9 L 662 524.9 Z" fill="white"/>
    </g>
  </g>
</svg>
