<?xml version="1.0" encoding="UTF-8" standalone="no"?>
<!DOCTYPE svg PUBLIC "-//W3C//DTD SVG 1.1//EN" "http://www.w3.org/Graphics/SVG/1.1/DTD/svg11.dtd">
<svg xmlns="http://www.w3.org/2000/svg" xmlns:xl="http://www.w3.org/1999/xlink" version="1.1" viewBox="0 0 684 684" preserveAspectRatio="xMinYMin" xmlns:dc="http://purl.org/dc/elements/1.1/">
  <metadata> Produced by OmniGraffle 7.6 
    <dc:date>2018-01-19 00:49:55 +0000</dc:date>
  </metadata>
  <defs/>
  <g stroke="none" stroke-opacity="1" stroke-dasharray="none" fill="none" fill-opacity="1">
    <title>Corn Exchange 2</title>
    <g>
      <title>Layer 1</title>
      <rect x="0" y="0" width="684" height="684" fill="black"/>
      <rect x="5684342e-20" y="114" width="684" height="456" fill="white"/>
      <path d="M 5684342e-20 142.5 L 5684342e-20 541.5 L 313.5 541.5 L 313.5 570 L 370.5 570 L 370.5 541.5 L 684 541.5 L 684 142.5 Z" fill="#eb3300"/>
      <rect x="57" y="171" width="85.5" height="28.5" fill="black"/>
      <rect x="57" y="228" width="85.5" height="28.5" fill="black"/>
      <rect x="57" y="427.5" width="85.5" height="28.5" fill="black"/>
      <rect x="171" y="171" width="85.5" height="28.5" fill="black"/>
      <rect x="285" y="171" width="85.5" height="28.5" fill="black"/>
      <rect x="399" y="171" width="85.5" height="28.5" fill="black"/>
      <rect x="513" y="171" width="85.5" height="28.5" fill="black"/>
      <rect x="171" y="228" width="85.5" height="28.5" fill="black"/>
      <rect x="285" y="228" width="85.5" height="28.5" fill="black"/>
      <rect x="399" y="228" width="85.5" height="28.5" fill="black"/>
      <rect x="513" y="228" width="85.5" height="28.5" fill="black"/>
      <rect x="171" y="285" width="85.5" height="28.5" fill="black"/>
      <rect x="285" y="285" width="85.5" height="28.5" fill="black"/>
      <rect x="399" y="285" width="85.5" height="28.5" fill="black"/>
      <rect x="171" y="370.5" width="85.5" height="28.5" fill="black"/>
      <rect x="285" y="370.5" width="85.5" height="28.5" fill="black"/>
      <rect x="399" y="370.5" width="85.5" height="28.5" fill="black"/>
      <rect x="171" y="427.5" width="85.5" height="28.5" fill="black"/>
      <rect x="285" y="427.5" width="85.5" height="28.5" fill="black"/>
      <rect x="399" y="427.5" width="85.5" height="28.5" fill="black"/>
      <rect x="513" y="427.5" width="85.5" height="28.5" fill="black"/>
      <rect x="171" y="484.5" width="85.5" height="28.5" fill="black"/>
      <rect x="285" y="484.5" width="85.5" height="28.5" fill="black"/>
      <rect x="399" y="484.5" width="85.5" height="28.5" fill="black"/>
      <rect x="17763568e-22" y="256.5" width="28.5" height="57" fill="black"/>
      <rect x="17763568e-22" y="370.5" width="28.5" height="57" fill="black"/>
      <rect x="570" y="313.5" width="28.5" height="57" fill="black"/>
      <rect x="627" y="142.5" width="57" height="399" fill="black"/>
      <path d="M 45.8 93.5 L 52.6 93.5 L 52.6 39.1 L 45.8 39.1 L 45.8 59.5 L 18.6 59.5 L 18.6 39.1 L 11.8 39.1 L 11.8 93.5 L 18.6 93.5 L 18.6 66.3 L 45.8 66.3 Z" fill="white"/>
      <path d="M 66.2 66.3 L 73 66.3 L 73 73.1 L 93.4 73.1 L 93.4 79.9 L 86.6 79.9 L 86.6 86.7 L 93.4 86.7 L 93.4 93.5 L 107 93.5 L 107 86.7 L 100.2 86.7 L 100.2 59.5 L 93.4 59.5 L 93.4 52.7 L 73 52.7 L 73 59.5 L 66.2 59.5 Z M 66.2 86.7 L 73 86.7 L 73 93.5 L 86.6 93.5 L 86.6 86.7 L 73 86.7 L 73 73.1 L 66.2 73.1 Z M 73 59.5 L 93.4 59.5 L 93.4 66.3 L 73 66.3 Z" fill="white"/>
      <path d="M 113.8 86.7 L 120.6 86.7 L 120.6 93.5 L 141 93.5 L 141 86.7 L 120.6 86.7 L 120.6 59.5 L 113.8 59.5 Z M 147.8 59.5 L 141 59.5 L 141 52.7 L 120.6 52.7 L 120.6 59.5 L 141 59.5 L 141 66.3 L 147.8 66.3 Z M 147.8 79.9 L 141 79.9 L 141 86.7 L 147.8 86.7 Z" fill="white"/>
      <path d="M 168.2 79.9 L 175 79.9 L 175 86.7 L 181.8 86.7 L 181.8 93.5 L 188.6 93.5 L 188.6 86.7 L 181.8 86.7 L 181.8 79.9 L 175 79.9 L 175 66.3 L 168.2 66.3 L 168.2 39.1 L 161.4 39.1 L 161.4 93.5 L 168.2 93.5 Z M 175 66.3 L 181.8 66.3 L 181.8 59.5 L 175 59.5 Z M 181.8 59.5 L 188.6 59.5 L 188.6 52.7 L 181.8 52.7 Z" fill="white"/>
      <path d="M 202.2 93.5 L 209 93.5 L 209 52.7 L 202.2 52.7 Z M 202.2 45.9 L 209 45.9 L 209 39.1 L 202.2 39.1 Z" fill="white"/>
      <path d="M 229.4 66.3 L 236.2 66.3 L 236.2 59.5 L 229.4 59.5 L 229.4 52.7 L 222.6 52.7 L 222.6 93.5 L 229.4 93.5 Z M 249.8 93.5 L 256.6 93.5 L 256.6 59.5 L 249.8 59.5 L 249.8 52.7 L 236.2 52.7 L 236.2 59.5 L 249.8 59.5 Z" fill="white"/>
      <path d="M 297.4 79.9 L 290.6 79.9 L 290.6 86.7 L 297.4 86.7 L 297.4 100.3 L 304.2 100.3 L 304.2 52.7 L 297.4 52.7 L 297.4 59.5 L 290.6 59.5 L 290.6 52.7 L 277 52.7 L 277 59.5 L 290.6 59.5 L 290.6 66.3 L 297.4 66.3 Z M 290.6 86.7 L 277 86.7 L 277 59.5 L 270.2 59.5 L 270.2 86.7 L 277 86.7 L 277 93.5 L 290.6 93.5 Z M 277 93.5 L 270.2 93.5 L 270.2 100.3 L 277 100.3 L 277 107.1 L 297.4 107.1 L 297.4 100.3 L 277 100.3 Z" fill="white"/>
      <path d="M 338.2 66.3 L 345 66.3 L 345 73.1 L 365.4 73.1 L 365.4 79.9 L 358.6 79.9 L 358.6 86.7 L 365.4 86.7 L 365.4 93.5 L 379 93.5 L 379 86.7 L 372.2 86.7 L 372.2 59.5 L 365.4 59.5 L 365.4 52.7 L 345 52.7 L 345 59.5 L 338.2 59.5 Z M 338.2 86.7 L 345 86.7 L 345 93.5 L 358.6 93.5 L 358.6 86.7 L 345 86.7 L 345 73.1 L 338.2 73.1 Z M 345 59.5 L 365.4 59.5 L 365.4 66.3 L 345 66.3 Z" fill="white"/>
      <path d="M 385.8 93.5 L 392.6 93.5 L 392.6 59.5 L 406.2 59.5 L 406.2 52.7 L 385.8 52.7 Z" fill="white"/>
      <path d="M 447 59.5 L 440.2 59.5 L 440.2 52.7 L 419.8 52.7 L 419.8 59.5 L 440.2 59.5 L 440.2 66.3 L 419.8 66.3 L 419.8 59.5 L 413 59.5 L 413 86.7 L 419.8 86.7 L 419.8 93.5 L 440.2 93.5 L 440.2 86.7 L 419.8 86.7 L 419.8 73.1 L 447 73.1 Z M 447 79.9 L 440.2 79.9 L 440.2 86.7 L 447 86.7 Z" fill="white"/>
      <path d="M 460.6 66.3 L 467.4 66.3 L 467.4 73.1 L 487.8 73.1 L 487.8 79.9 L 481 79.9 L 481 86.7 L 487.8 86.7 L 487.8 93.5 L 501.4 93.5 L 501.4 86.7 L 494.6 86.7 L 494.6 59.5 L 487.8 59.5 L 487.8 52.7 L 467.4 52.7 L 467.4 59.5 L 460.6 59.5 Z M 460.6 86.7 L 467.4 86.7 L 467.4 93.5 L 481 93.5 L 481 86.7 L 467.4 86.7 L 467.4 73.1 L 460.6 73.1 Z M 467.4 59.5 L 487.8 59.5 L 487.8 66.3 L 467.4 66.3 Z" fill="white"/>
      <path d="M 23.4 291.5 L 23.4 294.9 L 20 294.9 L 20 301.7 L 13.2 301.7 L 13.2 305.1 L 20 305.1 L 20 301.7 L 23.4 301.7 L 23.4 294.9 L 26.8 294.9 L 26.8 291.5 L 33.6 291.5 L 33.6 288.1 L 26.8 288.1 L 26.8 291.5 Z M 13.2 288.1 L 13.2 291.5 L 9.8 291.5 L 9.8 301.7 L 13.2 301.7 L 13.2 291.5 L 16.6 291.5 L 16.6 288.1 Z M 30.2 301.7 L 30.2 305.1 L 33.6 305.1 L 33.6 301.7 L 37 301.7 L 37 291.5 L 33.6 291.5 L 33.6 301.7 Z" fill="white"/>
      <path d="M 23.4 277.9 L 23.4 274.5 L 20 274.5 L 20 277.9 L 16.6 277.9 L 16.6 281.3 L 37 281.3 L 37 277.9 Z M 37 267.7 L 37 264.3 L 20 264.3 L 20 267.7 L 16.6 267.7 L 16.6 274.5 L 20 274.5 L 20 267.7 Z" fill="white"/>
      <path d="M 23.4 257.5 L 23.4 254.1 L 26.8 254.1 L 26.8 243.9 L 30.2 243.9 L 30.2 247.3 L 33.6 247.3 L 33.6 243.9 L 37 243.9 L 37 237.1 L 33.6 237.1 L 33.6 240.5 L 20 240.5 L 20 243.9 L 16.6 243.9 L 16.6 254.1 L 20 254.1 L 20 257.5 Z M 33.6 257.5 L 33.6 254.1 L 37 254.1 L 37 247.3 L 33.6 247.3 L 33.6 254.1 L 26.8 254.1 L 26.8 257.5 Z M 20 254.1 L 20 243.9 L 23.4 243.9 L 23.4 254.1 Z" fill="white"/>
      <path d="M 33.6 233.7 L 33.6 230.3 L 37 230.3 L 37 220.1 L 33.6 220.1 L 33.6 230.3 L 20 230.3 L 20 233.7 Z M 20 216.7 L 20 220.1 L 16.6 220.1 L 16.6 230.3 L 20 230.3 L 20 220.1 L 23.4 220.1 L 23.4 216.7 Z M 30.2 216.7 L 30.2 220.1 L 33.6 220.1 L 33.6 216.7 Z" fill="white"/>
      <path d="M 30.2 206.5 L 30.2 203.1 L 33.6 203.1 L 33.6 199.7 L 37 199.7 L 37 196.3 L 33.6 196.3 L 33.6 199.7 L 30.2 199.7 L 30.2 203.1 L 23.4 203.1 L 23.4 206.5 L 9.8 206.5 L 9.8 209.9 L 37 209.9 L 37 206.5 Z M 23.4 203.1 L 23.4 199.7 L 20 199.7 L 20 203.1 Z M 20 199.7 L 20 196.3 L 16.6 196.3 L 16.6 199.7 Z" fill="white"/>
      <path d="M 26.8 186.1 L 26.8 179.3 L 30.2 179.3 L 30.2 175.9 L 33.6 175.9 L 33.6 172.5 L 30.2 172.5 L 30.2 175.9 L 26.8 175.9 L 26.8 179.3 L 23.4 179.3 L 23.4 186.1 L 20 186.1 L 20 189.5 L 23.4 189.5 L 23.4 186.1 Z M 20 172.5 L 20 175.9 L 16.6 175.9 L 16.6 186.1 L 20 186.1 L 20 175.9 L 23.4 175.9 L 23.4 172.5 Z M 33.6 189.5 L 33.6 186.1 L 37 186.1 L 37 175.9 L 33.6 175.9 L 33.6 186.1 L 30.2 186.1 L 30.2 189.5 Z" fill="white"/>
      <path d="M 23.4 497.9 L 23.4 501.3 L 20 501.3 L 20 508.1 L 13.2 508.1 L 13.2 511.5 L 20 511.5 L 20 508.1 L 23.4 508.1 L 23.4 501.3 L 26.8 501.3 L 26.8 497.9 L 33.6 497.9 L 33.6 494.5 L 26.8 494.5 L 26.8 497.9 Z M 13.2 494.5 L 13.2 497.9 L 9.8 497.9 L 9.8 508.1 L 13.2 508.1 L 13.2 497.9 L 16.6 497.9 L 16.6 494.5 Z M 30.2 508.1 L 30.2 511.5 L 33.6 511.5 L 33.6 508.1 L 37 508.1 L 37 497.9 L 33.6 497.9 L 33.6 508.1 Z" fill="white"/>
      <path d="M 23.4 484.3 L 23.4 480.9 L 20 480.9 L 20 484.3 L 16.6 484.3 L 16.6 487.7 L 37 487.7 L 37 484.3 Z M 37 474.1 L 37 470.7 L 20 470.7 L 20 474.1 L 16.6 474.1 L 16.6 480.9 L 20 480.9 L 20 474.1 Z" fill="white"/>
      <path d="M 23.4 463.9 L 23.4 460.5 L 26.8 460.5 L 26.8 450.3 L 30.2 450.3 L 30.2 453.7 L 33.6 453.7 L 33.6 450.3 L 37 450.3 L 37 443.5 L 33.6 443.5 L 33.6 446.9 L 20 446.9 L 20 450.3 L 16.6 450.3 L 16.6 460.5 L 20 460.5 L 20 463.9 Z M 33.6 463.9 L 33.6 460.5 L 37 460.5 L 37 453.7 L 33.6 453.7 L 33.6 460.5 L 26.8 460.5 L 26.8 463.9 Z M 20 460.5 L 20 450.3 L 23.4 450.3 L 23.4 460.5 Z" fill="white"/>
      <path d="M 33.6 440.1 L 33.6 436.7 L 37 436.7 L 37 426.5 L 33.6 426.5 L 33.6 436.7 L 20 436.7 L 20 440.1 Z M 20 423.1 L 20 426.5 L 16.6 426.5 L 16.6 436.7 L 20 436.7 L 20 426.5 L 23.4 426.5 L 23.4 423.1 Z M 30.2 423.1 L 30.2 426.5 L 33.6 426.5 L 33.6 423.1 Z" fill="white"/>
      <path d="M 30.2 412.9 L 30.2 409.5 L 33.6 409.5 L 33.6 406.1 L 37 406.1 L 37 402.7 L 33.6 402.7 L 33.6 406.1 L 30.2 406.1 L 30.2 409.5 L 23.4 409.5 L 23.4 412.9 L 9.8 412.9 L 9.8 416.3 L 37 416.3 L 37 412.9 Z M 23.4 409.5 L 23.4 406.1 L 20 406.1 L 20 409.5 Z M 20 406.1 L 20 402.7 L 16.6 402.7 L 16.6 406.1 Z" fill="white"/>
      <path d="M 26.8 392.5 L 26.8 385.7 L 30.2 385.7 L 30.2 382.3 L 33.6 382.3 L 33.6 378.9 L 30.2 378.9 L 30.2 382.3 L 26.8 382.3 L 26.8 385.7 L 23.4 385.7 L 23.4 392.5 L 20 392.5 L 20 395.9 L 23.4 395.9 L 23.4 392.5 Z M 20 378.9 L 20 382.3 L 16.6 382.3 L 16.6 392.5 L 20 392.5 L 20 382.3 L 23.4 382.3 L 23.4 378.9 Z M 33.6 395.9 L 33.6 392.5 L 37 392.5 L 37 382.3 L 33.6 382.3 L 33.6 392.5 L 30.2 392.5 L 30.2 395.9 Z" fill="white"/>
      <path d="M 63.42 189.58 L 74.47 189.58 L 74.47 194 L 76.68 194 L 76.68 189.58 L 74.47 189.58 L 74.47 185.16 L 72.26 185.16 L 72.26 180.74 L 70.05 180.74 L 70.05 176.32 L 67.84 176.32 L 67.84 180.74 L 70.05 180.74 L 70.05 185.16 L 72.26 185.16 L 72.26 187.37 L 65.63 187.37 L 65.63 185.16 L 63.42 185.16 Z M 61.21 194 L 63.42 194 L 63.42 189.58 L 61.21 189.58 Z M 65.63 185.16 L 67.84 185.16 L 67.84 180.74 L 65.63 180.74 Z" fill="white"/>
      <path d="M 92.15 191.79 L 87.73 191.79 L 87.73 176.32 L 85.52 176.32 L 85.52 178.53 L 81.1 178.53 L 81.1 180.74 L 85.52 180.74 L 85.52 191.79 L 81.1 191.79 L 81.1 194 L 92.15 194 Z" fill="white"/>
      <path d="M 63.42 235.53 L 72.26 235.53 L 72.26 239.95 L 74.47 239.95 L 74.47 235.53 L 72.26 235.53 L 72.26 233.32 L 61.21 233.32 L 61.21 251 L 72.26 251 L 72.26 248.79 L 63.42 248.79 L 63.42 242.16 L 72.26 242.16 L 72.26 248.79 L 74.47 248.79 L 74.47 242.16 L 72.26 242.16 L 72.26 239.95 L 63.42 239.95 Z" fill="white"/>
      <path d="M 89.94 248.79 L 85.52 248.79 L 85.52 233.32 L 83.31 233.32 L 83.31 235.53 L 78.89 235.53 L 78.89 237.74 L 83.31 237.74 L 83.31 248.79 L 78.89 248.79 L 78.89 251 L 89.94 251 Z" fill="white"/>
      <path d="M 186.26 305.79 L 177.42 305.79 L 177.42 292.53 L 175.21 292.53 L 175.21 305.79 L 177.42 305.79 L 177.42 308 L 186.26 308 Z M 188.47 292.53 L 186.26 292.53 L 186.26 290.32 L 177.42 290.32 L 177.42 292.53 L 186.26 292.53 L 186.26 294.74 L 188.47 294.74 Z M 188.47 303.58 L 186.26 303.58 L 186.26 305.79 L 188.47 305.79 Z" fill="white"/>
      <path d="M 195.1 292.53 L 201.73 292.53 L 201.73 299.16 L 203.94 299.16 L 203.94 292.53 L 201.73 292.53 L 201.73 290.32 L 195.1 290.32 Z M 192.89 308 L 203.94 308 L 203.94 305.79 L 197.31 305.79 L 197.31 303.58 L 195.1 303.58 L 195.1 305.79 L 192.89 305.79 Z M 197.31 303.58 L 199.52 303.58 L 199.52 301.37 L 197.31 301.37 Z M 199.52 301.37 L 201.73 301.37 L 201.73 299.16 L 199.52 299.16 Z M 192.89 294.74 L 195.1 294.74 L 195.1 292.53 L 192.89 292.53 Z" fill="white"/>
      <path d="M 177.42 235.53 L 186.26 235.53 L 186.26 239.95 L 188.47 239.95 L 188.47 235.53 L 186.26 235.53 L 186.26 233.32 L 175.21 233.32 L 175.21 251 L 186.26 251 L 186.26 248.79 L 177.42 248.79 L 177.42 242.16 L 186.26 242.16 L 186.26 248.79 L 188.47 248.79 L 188.47 242.16 L 186.26 242.16 L 186.26 239.95 L 177.42 239.95 Z" fill="white"/>
      <path d="M 195.1 235.53 L 201.73 235.53 L 201.73 242.16 L 203.94 242.16 L 203.94 235.53 L 201.73 235.53 L 201.73 233.32 L 195.1 233.32 Z M 192.89 251 L 203.94 251 L 203.94 248.79 L 197.31 248.79 L 197.31 246.58 L 195.1 246.58 L 195.1 248.79 L 192.89 248.79 Z M 197.31 246.58 L 199.52 246.58 L 199.52 244.37 L 197.31 244.37 Z M 199.52 244.37 L 201.73 244.37 L 201.73 242.16 L 199.52 242.16 Z M 192.89 237.74 L 195.1 237.74 L 195.1 235.53 L 192.89 235.53 Z" fill="white"/>
      <path d="M 177.42 189.58 L 188.47 189.58 L 188.47 194 L 190.68 194 L 190.68 189.58 L 188.47 189.58 L 188.47 185.16 L 186.26 185.16 L 186.26 180.74 L 184.05 180.74 L 184.05 176.32 L 181.84 176.32 L 181.84 180.74 L 184.05 180.74 L 184.05 185.16 L 186.26 185.16 L 186.26 187.37 L 179.63 187.37 L 179.63 185.16 L 177.42 185.16 Z M 175.21 194 L 177.42 194 L 177.42 189.58 L 175.21 189.58 Z M 179.63 185.16 L 181.84 185.16 L 181.84 180.74 L 179.63 180.74 Z" fill="white"/>
      <path d="M 197.31 178.53 L 203.94 178.53 L 203.94 185.16 L 206.15 185.16 L 206.15 178.53 L 203.94 178.53 L 203.94 176.32 L 197.31 176.32 Z M 195.1 194 L 206.15 194 L 206.15 191.79 L 199.52 191.79 L 199.52 189.58 L 197.31 189.58 L 197.31 191.79 L 195.1 191.79 Z M 199.52 189.58 L 201.73 189.58 L 201.73 187.37 L 199.52 187.37 Z M 201.73 187.37 L 203.94 187.37 L 203.94 185.16 L 201.73 185.16 Z M 195.1 180.74 L 197.31 180.74 L 197.31 178.53 L 195.1 178.53 Z" fill="white"/>
      <path d="M 291.42 189.58 L 302.47 189.58 L 302.47 194 L 304.68 194 L 304.68 189.58 L 302.47 189.58 L 302.47 185.16 L 300.26 185.16 L 300.26 180.74 L 298.05 180.74 L 298.05 176.32 L 295.84 176.32 L 295.84 180.74 L 298.05 180.74 L 298.05 185.16 L 300.26 185.16 L 300.26 187.37 L 293.63 187.37 L 293.63 185.16 L 291.42 185.16 Z M 289.21 194 L 291.42 194 L 291.42 189.58 L 289.21 189.58 Z M 293.63 185.16 L 295.84 185.16 L 295.84 180.74 L 293.63 180.74 Z" fill="white"/>
      <path d="M 317.94 191.79 L 320.15 191.79 L 320.15 185.16 L 317.94 185.16 L 317.94 182.95 L 311.31 182.95 L 311.31 185.16 L 317.94 185.16 Z M 311.31 178.53 L 317.94 178.53 L 317.94 182.95 L 320.15 182.95 L 320.15 178.53 L 317.94 178.53 L 317.94 176.32 L 311.31 176.32 Z M 309.1 191.79 L 311.31 191.79 L 311.31 194 L 317.94 194 L 317.94 191.79 L 311.31 191.79 L 311.31 189.58 L 309.1 189.58 Z M 309.1 180.74 L 311.31 180.74 L 311.31 178.53 L 309.1 178.53 Z" fill="white"/>
      <path d="M 291.42 235.53 L 300.26 235.53 L 300.26 239.95 L 302.47 239.95 L 302.47 235.53 L 300.26 235.53 L 300.26 233.32 L 289.21 233.32 L 289.21 251 L 300.26 251 L 300.26 248.79 L 291.42 248.79 L 291.42 242.16 L 300.26 242.16 L 300.26 248.79 L 302.47 248.79 L 302.47 242.16 L 300.26 242.16 L 300.26 239.95 L 291.42 239.95 Z" fill="white"/>
      <path d="M 315.73 248.79 L 317.94 248.79 L 317.94 242.16 L 315.73 242.16 L 315.73 239.95 L 309.1 239.95 L 309.1 242.16 L 315.73 242.16 Z M 309.1 235.53 L 315.73 235.53 L 315.73 239.95 L 317.94 239.95 L 317.94 235.53 L 315.73 235.53 L 315.73 233.32 L 309.1 233.32 Z M 306.89 248.79 L 309.1 248.79 L 309.1 251 L 315.73 251 L 315.73 248.79 L 309.1 248.79 L 309.1 246.58 L 306.89 246.58 Z M 306.89 237.74 L 309.1 237.74 L 309.1 235.53 L 306.89 235.53 Z" fill="white"/>
      <path d="M 300.26 305.79 L 291.42 305.79 L 291.42 292.53 L 289.21 292.53 L 289.21 305.79 L 291.42 305.79 L 291.42 308 L 300.26 308 Z M 302.47 292.53 L 300.26 292.53 L 300.26 290.32 L 291.42 290.32 L 291.42 292.53 L 300.26 292.53 L 300.26 294.74 L 302.47 294.74 Z M 302.47 303.58 L 300.26 303.58 L 300.26 305.79 L 302.47 305.79 Z" fill="white"/>
      <path d="M 315.73 305.79 L 317.94 305.79 L 317.94 299.16 L 315.73 299.16 L 315.73 296.95 L 309.1 296.95 L 309.1 299.16 L 315.73 299.16 Z M 309.1 292.53 L 315.73 292.53 L 315.73 296.95 L 317.94 296.95 L 317.94 292.53 L 315.73 292.53 L 315.73 290.32 L 309.1 290.32 Z M 306.89 305.79 L 309.1 305.79 L 309.1 308 L 315.73 308 L 315.73 305.79 L 309.1 305.79 L 309.1 303.58 L 306.89 303.58 Z M 306.89 294.74 L 309.1 294.74 L 309.1 292.53 L 306.89 292.53 Z" fill="white"/>
      <path d="M 414.26 305.79 L 405.42 305.79 L 405.42 292.53 L 403.21 292.53 L 403.21 305.79 L 405.42 305.79 L 405.42 308 L 414.26 308 Z M 416.47 292.53 L 414.26 292.53 L 414.26 290.32 L 405.42 290.32 L 405.42 292.53 L 414.26 292.53 L 414.26 294.74 L 416.47 294.74 Z M 416.47 303.58 L 414.26 303.58 L 414.26 305.79 L 416.47 305.79 Z" fill="white"/>
      <path d="M 425.31 294.74 L 427.52 294.74 L 427.52 301.37 L 423.1 301.37 L 423.1 299.16 L 420.89 299.16 L 420.89 303.58 L 427.52 303.58 L 427.52 308 L 429.73 308 L 429.73 303.58 L 431.94 303.58 L 431.94 301.37 L 429.73 301.37 L 429.73 290.32 L 427.52 290.32 L 427.52 292.53 L 425.31 292.53 Z M 423.1 299.16 L 425.31 299.16 L 425.31 294.74 L 423.1 294.74 Z" fill="white"/>
      <path d="M 405.42 235.53 L 414.26 235.53 L 414.26 239.95 L 416.47 239.95 L 416.47 235.53 L 414.26 235.53 L 414.26 233.32 L 403.21 233.32 L 403.21 251 L 414.26 251 L 414.26 248.79 L 405.42 248.79 L 405.42 242.16 L 414.26 242.16 L 414.26 248.79 L 416.47 248.79 L 416.47 242.16 L 414.26 242.16 L 414.26 239.95 L 405.42 239.95 Z" fill="white"/>
      <path d="M 425.31 237.74 L 427.52 237.74 L 427.52 244.37 L 423.1 244.37 L 423.1 242.16 L 420.89 242.16 L 420.89 246.58 L 427.52 246.58 L 427.52 251 L 429.73 251 L 429.73 246.58 L 431.94 246.58 L 431.94 244.37 L 429.73 244.37 L 429.73 233.32 L 427.52 233.32 L 427.52 235.53 L 425.31 235.53 Z M 423.1 242.16 L 425.31 242.16 L 425.31 237.74 L 423.1 237.74 Z" fill="white"/>
      <path d="M 405.42 189.58 L 416.47 189.58 L 416.47 194 L 418.68 194 L 418.68 189.58 L 416.47 189.58 L 416.47 185.16 L 414.26 185.16 L 414.26 180.74 L 412.05 180.74 L 412.05 176.32 L 409.84 176.32 L 409.84 180.74 L 412.05 180.74 L 412.05 185.16 L 414.26 185.16 L 414.26 187.37 L 407.63 187.37 L 407.63 185.16 L 405.42 185.16 Z M 403.21 194 L 405.42 194 L 405.42 189.58 L 403.21 189.58 Z M 407.63 185.16 L 409.84 185.16 L 409.84 180.74 L 407.63 180.74 Z" fill="white"/>
      <path d="M 427.52 180.74 L 429.73 180.74 L 429.73 187.37 L 425.31 187.37 L 425.31 185.16 L 423.1 185.16 L 423.1 189.58 L 429.73 189.58 L 429.73 194 L 431.94 194 L 431.94 189.58 L 434.15 189.58 L 434.15 187.37 L 431.94 187.37 L 431.94 176.32 L 429.73 176.32 L 429.73 178.53 L 427.52 178.53 Z M 425.31 185.16 L 427.52 185.16 L 427.52 180.74 L 425.31 180.74 Z" fill="white"/>
      <path d="M 519.42 189.58 L 530.47 189.58 L 530.47 194 L 532.68 194 L 532.68 189.58 L 530.47 189.58 L 530.47 185.16 L 528.26 185.16 L 528.26 180.74 L 526.05 180.74 L 526.05 176.32 L 523.84 176.32 L 523.84 180.74 L 526.05 180.74 L 526.05 185.16 L 528.26 185.16 L 528.26 187.37 L 521.63 187.37 L 521.63 185.16 L 519.42 185.16 Z M 517.21 194 L 519.42 194 L 519.42 189.58 L 517.21 189.58 Z M 521.63 185.16 L 523.84 185.16 L 523.84 180.74 L 521.63 180.74 Z" fill="white"/>
      <path d="M 539.31 178.53 L 548.15 178.53 L 548.15 176.32 L 537.1 176.32 L 537.1 185.16 L 545.94 185.16 L 545.94 191.79 L 548.15 191.79 L 548.15 185.16 L 545.94 185.16 L 545.94 182.95 L 539.31 182.95 Z M 537.1 191.79 L 539.31 191.79 L 539.31 194 L 545.94 194 L 545.94 191.79 L 539.31 191.79 L 539.31 189.58 L 537.1 189.58 Z" fill="white"/>
      <path d="M 528.9 350.5 L 532.3 350.5 L 532.3 323.3 L 528.9 323.3 L 528.9 333.5 L 515.3 333.5 L 515.3 323.3 L 511.9 323.3 L 511.9 350.5 L 515.3 350.5 L 515.3 336.9 L 528.9 336.9 Z" fill="white"/>
      <path d="M 539.1 350.5 L 542.5 350.5 L 542.5 343.7 L 539.1 343.7 Z M 552.7 323.3 L 549.3 323.3 L 549.3 330.1 L 552.7 330.1 Z M 549.3 330.1 L 545.9 330.1 L 545.9 336.9 L 549.3 336.9 Z M 545.9 336.9 L 542.5 336.9 L 542.5 343.7 L 545.9 343.7 Z" fill="white"/>
      <path d="M 562.9 343.7 L 566.3 343.7 L 566.3 350.5 L 569.7 350.5 L 569.7 343.7 L 566.3 343.7 L 566.3 333.5 L 562.9 333.5 L 562.9 323.3 L 559.5 323.3 L 559.5 333.5 L 562.9 333.5 Z M 576.5 343.7 L 579.9 343.7 L 579.9 350.5 L 583.3 350.5 L 583.3 343.7 L 579.9 343.7 L 579.9 333.5 L 576.5 333.5 L 576.5 323.3 L 573.1 323.3 L 573.1 333.5 L 576.5 333.5 Z M 590.1 323.3 L 586.7 323.3 L 586.7 333.5 L 590.1 333.5 Z M 573.1 333.5 L 569.7 333.5 L 569.7 343.7 L 573.1 343.7 Z M 586.7 333.5 L 583.3 333.5 L 583.3 343.7 L 586.7 343.7 Z" fill="white"/>
      <rect x="539.1" y="359.3" width="3.4" height="27.2" fill="white"/>
      <path d="M 549.3 372.9 L 552.7 372.9 L 552.7 376.3 L 562.9 376.3 L 562.9 379.7 L 559.5 379.7 L 559.5 383.1 L 562.9 383.1 L 562.9 386.5 L 569.7 386.5 L 569.7 383.1 L 566.3 383.1 L 566.3 369.5 L 562.9 369.5 L 562.9 366.1 L 552.7 366.1 L 552.7 369.5 L 549.3 369.5 Z M 549.3 383.1 L 552.7 383.1 L 552.7 386.5 L 559.5 386.5 L 559.5 383.1 L 552.7 383.1 L 552.7 376.3 L 549.3 376.3 Z M 552.7 369.5 L 562.9 369.5 L 562.9 372.9 L 552.7 372.9 Z" fill="white"/>
      <path d="M 576.5 372.9 L 579.9 372.9 L 579.9 369.5 L 576.5 369.5 L 576.5 359.3 L 573.1 359.3 L 573.1 386.5 L 576.5 386.5 L 576.5 383.1 L 579.9 383.1 L 579.9 386.5 L 586.7 386.5 L 586.7 383.1 L 579.9 383.1 L 579.9 379.7 L 576.5 379.7 Z M 579.9 369.5 L 586.7 369.5 L 586.7 383.1 L 590.1 383.1 L 590.1 369.5 L 586.7 369.5 L 586.7 366.1 L 579.9 366.1 Z" fill="white"/>
      <path d="M 519.42 235.53 L 528.26 235.53 L 528.26 239.95 L 530.47 239.95 L 530.47 235.53 L 528.26 235.53 L 528.26 233.32 L 517.21 233.32 L 517.21 251 L 528.26 251 L 528.26 248.79 L 519.42 248.79 L 519.42 242.16 L 528.26 242.16 L 528.26 248.79 L 530.47 248.79 L 530.47 242.16 L 528.26 242.16 L 528.26 239.95 L 519.42 239.95 Z" fill="white"/>
      <path d="M 537.1 235.53 L 545.94 235.53 L 545.94 233.32 L 534.89 233.32 L 534.89 242.16 L 543.73 242.16 L 543.73 248.79 L 545.94 248.79 L 545.94 242.16 L 543.73 242.16 L 543.73 239.95 L 537.1 239.95 Z M 534.89 248.79 L 537.1 248.79 L 537.1 251 L 543.73 251 L 543.73 248.79 L 537.1 248.79 L 537.1 246.58 L 534.89 246.58 Z" fill="white"/>
      <path d="M 184.05 380.24 L 186.26 380.24 L 186.26 389.08 L 188.47 389.08 L 188.47 380.24 L 186.26 380.24 L 186.26 378.03 L 184.05 378.03 L 184.05 375.82 L 175.21 375.82 L 175.21 393.5 L 184.05 393.5 L 184.05 391.29 L 177.42 391.29 L 177.42 378.03 L 184.05 378.03 Z M 184.05 391.29 L 186.26 391.29 L 186.26 389.08 L 184.05 389.08 Z" fill="white"/>
      <path d="M 195.1 378.03 L 201.73 378.03 L 201.73 384.66 L 203.94 384.66 L 203.94 378.03 L 201.73 378.03 L 201.73 375.82 L 195.1 375.82 Z M 192.89 393.5 L 203.94 393.5 L 203.94 391.29 L 197.31 391.29 L 197.31 389.08 L 195.1 389.08 L 195.1 391.29 L 192.89 391.29 Z M 197.31 389.08 L 199.52 389.08 L 199.52 386.87 L 197.31 386.87 Z M 199.52 386.87 L 201.73 386.87 L 201.73 384.66 L 199.52 384.66 Z M 192.89 380.24 L 195.1 380.24 L 195.1 378.03 L 192.89 378.03 Z" fill="white"/>
      <path d="M 298.05 380.24 L 300.26 380.24 L 300.26 389.08 L 302.47 389.08 L 302.47 380.24 L 300.26 380.24 L 300.26 378.03 L 298.05 378.03 L 298.05 375.82 L 289.21 375.82 L 289.21 393.5 L 298.05 393.5 L 298.05 391.29 L 291.42 391.29 L 291.42 378.03 L 298.05 378.03 Z M 298.05 391.29 L 300.26 391.29 L 300.26 389.08 L 298.05 389.08 Z" fill="white"/>
      <path d="M 315.73 391.29 L 317.94 391.29 L 317.94 384.66 L 315.73 384.66 L 315.73 382.45 L 309.1 382.45 L 309.1 384.66 L 315.73 384.66 Z M 309.1 378.03 L 315.73 378.03 L 315.73 382.45 L 317.94 382.45 L 317.94 378.03 L 315.73 378.03 L 315.73 375.82 L 309.1 375.82 Z M 306.89 391.29 L 309.1 391.29 L 309.1 393.5 L 315.73 393.5 L 315.73 391.29 L 309.1 391.29 L 309.1 389.08 L 306.89 389.08 Z M 306.89 380.24 L 309.1 380.24 L 309.1 378.03 L 306.89 378.03 Z" fill="white"/>
      <path d="M 412.05 380.24 L 414.26 380.24 L 414.26 389.08 L 416.47 389.08 L 416.47 380.24 L 414.26 380.24 L 414.26 378.03 L 412.05 378.03 L 412.05 375.82 L 403.21 375.82 L 403.21 393.5 L 412.05 393.5 L 412.05 391.29 L 405.42 391.29 L 405.42 378.03 L 412.05 378.03 Z M 412.05 391.29 L 414.26 391.29 L 414.26 389.08 L 412.05 389.08 Z" fill="white"/>
      <path d="M 425.31 380.24 L 427.52 380.24 L 427.52 386.87 L 423.1 386.87 L 423.1 384.66 L 420.89 384.66 L 420.89 389.08 L 427.52 389.08 L 427.52 393.5 L 429.73 393.5 L 429.73 389.08 L 431.94 389.08 L 431.94 386.87 L 429.73 386.87 L 429.73 375.82 L 427.52 375.82 L 427.52 378.03 L 425.31 378.03 Z M 423.1 384.66 L 425.31 384.66 L 425.31 380.24 L 423.1 380.24 Z" fill="white"/>
      <path d="M 63.42 441.66 L 72.26 441.66 L 72.26 439.45 L 63.42 439.45 L 63.42 435.03 L 72.26 435.03 L 72.26 432.82 L 61.21 432.82 L 61.21 450.5 L 72.26 450.5 L 72.26 448.29 L 63.42 448.29 Z" fill="white"/>
      <path d="M 87.73 448.29 L 83.31 448.29 L 83.31 432.82 L 81.1 432.82 L 81.1 435.03 L 76.68 435.03 L 76.68 437.24 L 81.1 437.24 L 81.1 448.29 L 76.68 448.29 L 76.68 450.5 L 87.73 450.5 Z" fill="white"/>
      <path d="M 177.42 441.66 L 186.26 441.66 L 186.26 439.45 L 177.42 439.45 L 177.42 435.03 L 186.26 435.03 L 186.26 432.82 L 175.21 432.82 L 175.21 450.5 L 186.26 450.5 L 186.26 448.29 L 177.42 448.29 Z" fill="white"/>
      <path d="M 192.89 435.03 L 199.52 435.03 L 199.52 441.66 L 201.73 441.66 L 201.73 435.03 L 199.52 435.03 L 199.52 432.82 L 192.89 432.82 Z M 190.68 450.5 L 201.73 450.5 L 201.73 448.29 L 195.1 448.29 L 195.1 446.08 L 192.89 446.08 L 192.89 448.29 L 190.68 448.29 Z M 195.1 446.08 L 197.31 446.08 L 197.31 443.87 L 195.1 443.87 Z M 197.31 443.87 L 199.52 443.87 L 199.52 441.66 L 197.31 441.66 Z M 190.68 437.24 L 192.89 437.24 L 192.89 435.03 L 190.68 435.03 Z" fill="white"/>
      <path d="M 291.42 441.66 L 300.26 441.66 L 300.26 439.45 L 291.42 439.45 L 291.42 435.03 L 300.26 435.03 L 300.26 432.82 L 289.21 432.82 L 289.21 450.5 L 300.26 450.5 L 300.26 448.29 L 291.42 448.29 Z" fill="white"/>
      <path d="M 313.52 448.29 L 315.73 448.29 L 315.73 441.66 L 313.52 441.66 L 313.52 439.45 L 306.89 439.45 L 306.89 441.66 L 313.52 441.66 Z M 306.89 435.03 L 313.52 435.03 L 313.52 439.45 L 315.73 439.45 L 315.73 435.03 L 313.52 435.03 L 313.52 432.82 L 306.89 432.82 Z M 304.68 448.29 L 306.89 448.29 L 306.89 450.5 L 313.52 450.5 L 313.52 448.29 L 306.89 448.29 L 306.89 446.08 L 304.68 446.08 Z M 304.68 437.24 L 306.89 437.24 L 306.89 435.03 L 304.68 435.03 Z" fill="white"/>
      <path d="M 177.42 498.66 L 186.26 498.66 L 186.26 496.45 L 177.42 496.45 L 177.42 492.03 L 186.26 492.03 L 186.26 489.82 L 175.21 489.82 L 175.21 507.5 L 177.42 507.5 Z" fill="white"/>
      <path d="M 199.52 505.29 L 201.73 505.29 L 201.73 498.66 L 199.52 498.66 L 199.52 496.45 L 192.89 496.45 L 192.89 498.66 L 199.52 498.66 Z M 192.89 492.03 L 199.52 492.03 L 199.52 496.45 L 201.73 496.45 L 201.73 492.03 L 199.52 492.03 L 199.52 489.82 L 192.89 489.82 Z M 190.68 505.29 L 192.89 505.29 L 192.89 507.5 L 199.52 507.5 L 199.52 505.29 L 192.89 505.29 L 192.89 503.08 L 190.68 503.08 Z M 190.68 494.24 L 192.89 494.24 L 192.89 492.03 L 190.68 492.03 Z" fill="white"/>
      <path d="M 405.42 441.66 L 414.26 441.66 L 414.26 439.45 L 405.42 439.45 L 405.42 435.03 L 414.26 435.03 L 414.26 432.82 L 403.21 432.82 L 403.21 450.5 L 414.26 450.5 L 414.26 448.29 L 405.42 448.29 Z" fill="white"/>
      <path d="M 423.1 437.24 L 425.31 437.24 L 425.31 443.87 L 420.89 443.87 L 420.89 441.66 L 418.68 441.66 L 418.68 446.08 L 425.31 446.08 L 425.31 450.5 L 427.52 450.5 L 427.52 446.08 L 429.73 446.08 L 429.73 443.87 L 427.52 443.87 L 427.52 432.82 L 425.31 432.82 L 425.31 435.03 L 423.1 435.03 Z M 420.89 441.66 L 423.1 441.66 L 423.1 437.24 L 420.89 437.24 Z" fill="white"/>
      <path d="M 291.42 498.66 L 300.26 498.66 L 300.26 496.45 L 291.42 496.45 L 291.42 492.03 L 300.26 492.03 L 300.26 489.82 L 289.21 489.82 L 289.21 507.5 L 291.42 507.5 Z" fill="white"/>
      <path d="M 309.1 494.24 L 311.31 494.24 L 311.31 500.87 L 306.89 500.87 L 306.89 498.66 L 304.68 498.66 L 304.68 503.08 L 311.31 503.08 L 311.31 507.5 L 313.52 507.5 L 313.52 503.08 L 315.73 503.08 L 315.73 500.87 L 313.52 500.87 L 313.52 489.82 L 311.31 489.82 L 311.31 492.03 L 309.1 492.03 Z M 306.89 498.66 L 309.1 498.66 L 309.1 494.24 L 306.89 494.24 Z" fill="white"/>
      <path d="M 519.42 441.66 L 528.26 441.66 L 528.26 439.45 L 519.42 439.45 L 519.42 435.03 L 528.26 435.03 L 528.26 432.82 L 517.21 432.82 L 517.21 450.5 L 528.26 450.5 L 528.26 448.29 L 519.42 448.29 Z" fill="white"/>
      <path d="M 534.89 435.03 L 543.73 435.03 L 543.73 432.82 L 532.68 432.82 L 532.68 441.66 L 541.52 441.66 L 541.52 448.29 L 543.73 448.29 L 543.73 441.66 L 541.52 441.66 L 541.52 439.45 L 534.89 439.45 Z M 532.68 448.29 L 534.89 448.29 L 534.89 450.5 L 541.52 450.5 L 541.52 448.29 L 534.89 448.29 L 534.89 446.08 L 532.68 446.08 Z" fill="white"/>
      <path d="M 405.42 498.66 L 414.26 498.66 L 414.26 496.45 L 405.42 496.45 L 405.42 492.03 L 414.26 492.03 L 414.26 489.82 L 403.21 489.82 L 403.21 507.5 L 405.42 507.5 Z" fill="white"/>
      <path d="M 420.89 492.03 L 429.73 492.03 L 429.73 489.82 L 418.68 489.82 L 418.68 498.66 L 427.52 498.66 L 427.52 505.29 L 429.73 505.29 L 429.73 498.66 L 427.52 498.66 L 427.52 496.45 L 420.89 496.45 Z M 418.68 505.29 L 420.89 505.29 L 420.89 507.5 L 427.52 507.5 L 427.52 505.29 L 420.89 505.29 L 420.89 503.08 L 418.68 503.08 Z" fill="white"/>
      <rect x="57" y="285" width="85.5" height="28.5" fill="black"/>
      <rect x="57" y="370.5" width="85.5" height="28.5" fill="black"/>
      <path d="M 72.26 305.79 L 63.42 305.79 L 63.42 292.53 L 61.21 292.53 L 61.21 305.79 L 63.42 305.79 L 63.42 308 L 72.26 308 Z M 74.47 292.53 L 72.26 292.53 L 72.26 290.32 L 63.42 290.32 L 63.42 292.53 L 72.26 292.53 L 72.26 294.74 L 74.47 294.74 Z M 74.47 303.58 L 72.26 303.58 L 72.26 305.79 L 74.47 305.79 Z" fill="white"/>
      <path d="M 89.94 305.79 L 85.52 305.79 L 85.52 290.32 L 83.31 290.32 L 83.31 292.53 L 78.89 292.53 L 78.89 294.74 L 83.31 294.74 L 83.31 305.79 L 78.89 305.79 L 78.89 308 L 89.94 308 Z" fill="white"/>
      <rect x="57" y="484.5" width="85.5" height="28.5" fill="black"/>
      <path d="M 63.42 498.66 L 72.26 498.66 L 72.26 496.45 L 63.42 496.45 L 63.42 492.03 L 72.26 492.03 L 72.26 489.82 L 61.21 489.82 L 61.21 507.5 L 63.42 507.5 Z" fill="white"/>
      <path d="M 87.73 505.29 L 83.31 505.29 L 83.31 489.82 L 81.1 489.82 L 81.1 492.03 L 76.68 492.03 L 76.68 494.24 L 81.1 494.24 L 81.1 505.29 L 76.68 505.29 L 76.68 507.5 L 87.73 507.5 Z" fill="white"/>
      <path d="M 113.98 498.66 L 122.82 498.66 L 122.82 496.45 L 113.98 496.45 L 113.98 492.03 L 122.82 492.03 L 122.82 489.82 L 111.77 489.82 L 111.77 507.5 L 113.98 507.5 Z" fill="white"/>
      <path d="M 129.45 492.03 L 136.08 492.03 L 136.08 498.66 L 138.29 498.66 L 138.29 492.03 L 136.08 492.03 L 136.08 489.82 L 129.45 489.82 Z M 127.24 507.5 L 138.29 507.5 L 138.29 505.29 L 131.66 505.29 L 131.66 503.08 L 129.45 503.08 L 129.45 505.29 L 127.24 505.29 Z M 131.66 503.08 L 133.87 503.08 L 133.87 500.87 L 131.66 500.87 Z M 133.87 500.87 L 136.08 500.87 L 136.08 498.66 L 133.87 498.66 Z M 127.24 494.24 L 129.45 494.24 L 129.45 492.03 L 127.24 492.03 Z" fill="white"/>
      <rect x="513" y="484.5" width="85.5" height="28.5" fill="black"/>
      <path d="M 70.05 380.24 L 72.26 380.24 L 72.26 389.08 L 74.47 389.08 L 74.47 380.24 L 72.26 380.24 L 72.26 378.03 L 70.05 378.03 L 70.05 375.82 L 61.21 375.82 L 61.21 393.5 L 70.05 393.5 L 70.05 391.29 L 63.42 391.29 L 63.42 378.03 L 70.05 378.03 Z M 70.05 391.29 L 72.26 391.29 L 72.26 389.08 L 70.05 389.08 Z" fill="white"/>
      <path d="M 89.94 391.29 L 85.52 391.29 L 85.52 375.82 L 83.31 375.82 L 83.31 378.03 L 78.89 378.03 L 78.89 380.24 L 83.31 380.24 L 83.31 391.29 L 78.89 391.29 L 78.89 393.5 L 89.94 393.5 Z" fill="white"/>
      <path d="M 519.42 498.66 L 528.26 498.66 L 528.26 496.45 L 519.42 496.45 L 519.42 492.03 L 528.26 492.03 L 528.26 489.82 L 517.21 489.82 L 517.21 507.5 L 519.42 507.5 Z" fill="white"/>
      <path d="M 532.68 505.29 L 534.89 505.29 L 534.89 507.5 L 541.52 507.5 L 541.52 505.29 L 543.73 505.29 L 543.73 498.66 L 541.52 498.66 L 541.52 496.45 L 534.89 496.45 L 534.89 492.03 L 532.68 492.03 Z M 541.52 505.29 L 534.89 505.29 L 534.89 498.66 L 541.52 498.66 Z M 543.73 492.03 L 541.52 492.03 L 541.52 489.82 L 534.89 489.82 L 534.89 492.03 L 541.52 492.03 L 541.52 494.24 L 543.73 494.24 Z" fill="white"/>
    </g>
  </g>
</svg>
