<?xml version="1.0" encoding="UTF-8" standalone="no"?>
<!DOCTYPE svg PUBLIC "-//W3C//DTD SVG 1.1//EN" "http://www.w3.org/Graphics/SVG/1.1/DTD/svg11.dtd">
<svg xmlns="http://www.w3.org/2000/svg" xmlns:xl="http://www.w3.org/1999/xlink" version="1.1" viewBox="0 0 684 684" preserveAspectRatio="xMinYMin" xmlns:dc="http://purl.org/dc/elements/1.1/">
  <metadata> Produced by OmniGraffle 7.6 
    <dc:date>2018-01-19 00:42:34 +0000</dc:date>
  </metadata>
  <defs/>
  <g stroke="none" stroke-opacity="1" stroke-dasharray="none" fill="none" fill-opacity="1">
    <title>General map</title>
    <rect fill="white" width="684" height="684"/>
    <g>
      <title>Layer 1</title>
      <rect x="0" y="0" width="684" height="684" fill="#1abce9"/>
      <path d="M 427.5 114 L 427.5 199.5 L 484.5 199.5 L 484.5 427.5 L 399 427.5 L 399 456 L 313.5 456 L 313.5 427.5 L 228 427.5 L 228 399 L 142.5 399 L 142.5 370.5 L 85.5 370.5 L 85.5 285 L 114 285 L 114 199.5 L 142.5 199.5 L 142.5 114 Z" fill="white"/>
      <rect x="513" y="171" width="171" height="114" fill="white"/>
      <path d="M 199.5 0 L 199.5 85.5 L 484.5 85.5 L 484.5 114 L 513 114 L 513 142.5 L 684 142.5 L 684 0 Z" fill="white"/>
      <path d="M 142.5 0 L 142.5 85.5 L 57 85.5 L 57 57 L 0 57 L 0 0 Z" fill="white"/>
      <path d="M 0 399 L 57 399 L 57 427.5 L 114 427.5 L 114 456 L 199.5 456 L 199.5 484.5 L 256.5 484.5 L 256.5 513 L 370.5 513 L 370.5 541.5 L 456 541.5 L 456 570 L 513 570 L 513 684 L 0 684 Z" fill="white"/>
      <path d="M 541.5 313.5 L 541.5 513 L 570 513 L 570 684 L 684 684 L 684 313.5 Z" fill="white"/>
      <path d="M 342 85.5 L 313.5 85.5 L 313.5 114 L 342 114 Z M 399 85.5 L 370.5 85.5 L 370.5 114 L 399 114 Z M 456 85.5 L 427.5 85.5 L 427.5 114 L 456 114 Z M 456 142.5 L 427.5 142.5 L 427.5 171 L 456 171 Z M 513 142.5 L 484.5 142.5 L 484.5 171 L 513 171 Z M 484.5 199.5 L 484.5 228 L 513 228 L 513 199.5 Z M 256.5 85.5 L 256.5 114 L 285 114 L 285 85.5 Z" fill="#ef1d13"/>
      <path d="M 342 199.5 L 370.5 199.5 L 370.5 228 L 342 228 Z M 285 199.5 L 313.5 199.5 L 313.5 256.5 L 285 256.5 Z M 313.5 285 L 313.5 313.5 L 456 313.5 L 456 228 L 399 228 L 399 142.5 L 285 142.5 L 285 114 L 256.5 114 L 256.5 142.5 L 228 142.5 L 228 199.5 L 256.5 199.5 L 256.5 285 Z" fill="#ef1d13"/>
      <rect x="513" y="199.5" width="171" height="57" fill="#ef1d13"/>
      <path d="M 563.5 336.9 L 560.1 336.9 L 560.1 333.5 L 553.3 333.5 L 553.3 326.7 L 549.9 326.7 L 549.9 333.5 L 553.3 333.5 L 553.3 336.9 L 560.1 336.9 L 560.1 340.3 L 563.5 340.3 L 563.5 347.1 L 566.9 347.1 L 566.9 340.3 L 563.5 340.3 Z M 566.9 326.7 L 563.5 326.7 L 563.5 323.3 L 553.3 323.3 L 553.3 326.7 L 563.5 326.7 L 563.5 330.1 L 566.9 330.1 Z M 553.3 343.7 L 549.9 343.7 L 549.9 347.1 L 553.3 347.1 L 553.3 350.5 L 563.5 350.5 L 563.5 347.1 L 553.3 347.1 Z" fill="black"/>
      <path d="M 573.7 333.5 L 577.1 333.5 L 577.1 340.3 L 583.9 340.3 L 583.9 343.7 L 587.3 343.7 L 587.3 347.1 L 590.7 347.1 L 590.7 350.5 L 594.1 350.5 L 594.1 347.1 L 590.7 347.1 L 590.7 336.9 L 587.3 336.9 L 587.3 340.3 L 583.9 340.3 L 583.9 333.5 L 577.1 333.5 L 577.1 326.7 L 573.7 326.7 Z M 577.1 350.5 L 587.3 350.5 L 587.3 347.1 L 577.1 347.1 L 577.1 340.3 L 573.7 340.3 L 573.7 347.1 L 577.1 347.1 Z M 577.1 326.7 L 583.9 326.7 L 583.9 333.5 L 587.3 333.5 L 587.3 326.7 L 583.9 326.7 L 583.9 323.3 L 577.1 323.3 Z" fill="black"/>
      <path d="M 617.9 350.5 L 621.3 350.5 L 621.3 323.3 L 617.9 323.3 L 617.9 333.5 L 604.3 333.5 L 604.3 323.3 L 600.9 323.3 L 600.9 350.5 L 604.3 350.5 L 604.3 336.9 L 617.9 336.9 Z" fill="black"/>
      <path d="M 404.7 336.9 L 401.3 336.9 L 401.3 333.5 L 394.5 333.5 L 394.5 326.7 L 391.1 326.7 L 391.1 333.5 L 394.5 333.5 L 394.5 336.9 L 401.3 336.9 L 401.3 340.3 L 404.7 340.3 L 404.7 347.1 L 408.1 347.1 L 408.1 340.3 L 404.7 340.3 Z M 408.1 326.7 L 404.7 326.7 L 404.7 323.3 L 394.5 323.3 L 394.5 326.7 L 404.7 326.7 L 404.7 330.1 L 408.1 330.1 Z M 394.5 343.7 L 391.1 343.7 L 391.1 347.1 L 394.5 347.1 L 394.5 350.5 L 404.7 350.5 L 404.7 347.1 L 394.5 347.1 Z" fill="black"/>
      <rect x="414.9" y="323.3" width="3.4" height="10.2" fill="black"/>
      <path d="M 428.5 336.9 L 431.9 336.9 L 431.9 333.5 L 428.5 333.5 L 428.5 330.1 L 425.1 330.1 L 425.1 350.5 L 428.5 350.5 Z M 438.7 350.5 L 442.1 350.5 L 442.1 333.5 L 438.7 333.5 L 438.7 330.1 L 431.9 330.1 L 431.9 333.5 L 438.7 333.5 Z" fill="black"/>
      <rect x="448.9" y="323.3" width="3.4" height="10.2" fill="black"/>
      <path d="M 472.7 336.9 L 469.3 336.9 L 469.3 333.5 L 462.5 333.5 L 462.5 326.7 L 459.1 326.7 L 459.1 333.5 L 462.5 333.5 L 462.5 336.9 L 469.3 336.9 L 469.3 340.3 L 472.7 340.3 L 472.7 347.1 L 476.1 347.1 L 476.1 340.3 L 472.7 340.3 Z M 476.1 326.7 L 472.7 326.7 L 472.7 323.3 L 462.5 323.3 L 462.5 326.7 L 472.7 326.7 L 472.7 330.1 L 476.1 330.1 Z M 462.5 343.7 L 459.1 343.7 L 459.1 347.1 L 462.5 347.1 L 462.5 350.5 L 472.7 350.5 L 472.7 347.1 L 462.5 347.1 Z" fill="black"/>
      <path d="M 304.8 261.6 L 294.6 261.6 L 294.6 241.2 L 291.2 241.2 L 291.2 261.6 L 294.6 261.6 L 294.6 265 L 304.8 265 Z M 304.8 261.6 L 308.2 261.6 L 308.2 265 L 311.6 265 L 311.6 251.4 L 301.4 251.4 L 301.4 254.8 L 308.2 254.8 L 308.2 258.2 L 304.8 258.2 Z M 311.6 241.2 L 308.2 241.2 L 308.2 237.8 L 294.6 237.8 L 294.6 241.2 L 308.2 241.2 L 308.2 244.6 L 311.6 244.6 Z" fill="black"/>
      <path d="M 332 258.2 L 328.6 258.2 L 328.6 261.6 L 332 261.6 L 332 265 L 335.4 265 L 335.4 244.6 L 332 244.6 Z M 328.6 261.6 L 321.8 261.6 L 321.8 244.6 L 318.4 244.6 L 318.4 261.6 L 321.8 261.6 L 321.8 265 L 328.6 265 Z" fill="black"/>
      <path d="M 342.2 265 L 345.6 265 L 345.6 244.6 L 342.2 244.6 Z M 342.2 241.2 L 345.6 241.2 L 345.6 237.8 L 342.2 237.8 Z" fill="black"/>
      <rect x="352.4" y="237.8" width="3.4" height="27.2" fill="black"/>
      <path d="M 379.6 237.8 L 376.2 237.8 L 376.2 248 L 372.8 248 L 372.8 244.6 L 366 244.6 L 366 248 L 372.8 248 L 372.8 251.4 L 376.2 251.4 L 376.2 258.2 L 372.8 258.2 L 372.8 261.6 L 376.2 261.6 L 376.2 265 L 379.6 265 Z M 372.8 261.6 L 366 261.6 L 366 248 L 362.6 248 L 362.6 261.6 L 366 261.6 L 366 265 L 372.8 265 Z" fill="black"/>
      <path d="M 389.8 251.4 L 393.2 251.4 L 393.2 248 L 389.8 248 L 389.8 237.8 L 386.4 237.8 L 386.4 265 L 389.8 265 Z M 400 265 L 403.4 265 L 403.4 248 L 400 248 L 400 244.6 L 393.2 244.6 L 393.2 248 L 400 248 Z" fill="black"/>
      <path d="M 410.2 251.4 L 413.6 251.4 L 413.6 254.8 L 423.8 254.8 L 423.8 258.2 L 420.4 258.2 L 420.4 261.6 L 423.8 261.6 L 423.8 265 L 430.6 265 L 430.6 261.6 L 427.2 261.6 L 427.2 248 L 423.8 248 L 423.8 244.6 L 413.6 244.6 L 413.6 248 L 410.2 248 Z M 410.2 261.6 L 413.6 261.6 L 413.6 265 L 420.4 265 L 420.4 261.6 L 413.6 261.6 L 413.6 254.8 L 410.2 254.8 Z M 413.6 248 L 423.8 248 L 423.8 251.4 L 413.6 251.4 Z" fill="black"/>
      <rect x="434" y="237.8" width="3.4" height="27.2" fill="black"/>
      <rect x="444.2" y="237.8" width="3.4" height="27.2" fill="black"/>
      <path d="M 214.7 52.6 L 211.3 52.6 L 211.3 45.8 L 207.9 45.8 L 207.9 52.6 L 211.3 52.6 L 211.3 59.4 L 214.7 59.4 L 214.7 73 L 218.1 73 L 218.1 59.4 L 214.7 59.4 Z M 224.9 45.8 L 221.5 45.8 L 221.5 52.6 L 224.9 52.6 Z M 221.5 52.6 L 218.1 52.6 L 218.1 59.4 L 221.5 59.4 Z" fill="black"/>
      <path d="M 228.3 69.6 L 231.7 69.6 L 231.7 73 L 241.9 73 L 241.9 69.6 L 231.7 69.6 L 231.7 56 L 228.3 56 Z M 231.7 56 L 241.9 56 L 241.9 69.6 L 245.3 69.6 L 245.3 56 L 241.9 56 L 241.9 52.6 L 231.7 52.6 Z" fill="black"/>
      <path d="M 252.1 66.2 L 255.5 66.2 L 255.5 45.8 L 252.1 45.8 Z M 252.1 73 L 255.5 73 L 255.5 69.6 L 252.1 69.6 Z" fill="black"/>
      <path d="M 286.1 59.4 L 282.7 59.4 L 282.7 56 L 275.9 56 L 275.9 49.2 L 272.5 49.2 L 272.5 56 L 275.9 56 L 275.9 59.4 L 282.7 59.4 L 282.7 62.8 L 286.1 62.8 L 286.1 69.6 L 289.5 69.6 L 289.5 62.8 L 286.1 62.8 Z M 289.5 49.2 L 286.1 49.2 L 286.1 45.8 L 275.9 45.8 L 275.9 49.2 L 286.1 49.2 L 286.1 52.6 L 289.5 52.6 Z M 275.9 66.2 L 272.5 66.2 L 272.5 69.6 L 275.9 69.6 L 275.9 73 L 286.1 73 L 286.1 69.6 L 275.9 69.6 Z" fill="black"/>
      <path d="M 309.9 66.2 L 306.5 66.2 L 306.5 69.6 L 309.9 69.6 L 309.9 73 L 313.3 73 L 313.3 52.6 L 309.9 52.6 Z M 306.5 69.6 L 299.7 69.6 L 299.7 52.6 L 296.3 52.6 L 296.3 69.6 L 299.7 69.6 L 299.7 73 L 306.5 73 Z" fill="black"/>
      <path d="M 323.5 62.8 L 330.3 62.8 L 330.3 66.2 L 333.7 66.2 L 333.7 69.6 L 337.1 69.6 L 337.1 66.2 L 333.7 66.2 L 333.7 62.8 L 330.3 62.8 L 330.3 59.4 L 323.5 59.4 L 323.5 56 L 320.1 56 L 320.1 59.4 L 323.5 59.4 Z M 337.1 56 L 333.7 56 L 333.7 52.6 L 323.5 52.6 L 323.5 56 L 333.7 56 L 333.7 59.4 L 337.1 59.4 Z M 320.1 69.6 L 323.5 69.6 L 323.5 73 L 333.7 73 L 333.7 69.6 L 323.5 69.6 L 323.5 66.2 L 320.1 66.2 Z" fill="black"/>
      <path d="M 347.3 59.4 L 350.7 59.4 L 350.7 56 L 347.3 56 L 347.3 45.8 L 343.9 45.8 L 343.9 73 L 347.3 73 Z M 357.5 73 L 360.9 73 L 360.9 56 L 357.5 56 L 357.5 52.6 L 350.7 52.6 L 350.7 56 L 357.5 56 Z" fill="black"/>
      <path d="M 367.7 73 L 371.1 73 L 371.1 52.6 L 367.7 52.6 Z M 367.7 49.2 L 371.1 49.2 L 371.1 45.8 L 367.7 45.8 Z" fill="black"/>
      <path d="M 538.4 130 L 541.8 130 L 541.8 102.8 L 538.4 102.8 L 538.4 113 L 524.8 113 L 524.8 102.8 L 521.4 102.8 L 521.4 130 L 524.8 130 L 524.8 116.4 L 538.4 116.4 Z" fill="black"/>
      <path d="M 548.6 126.6 L 552 126.6 L 552 130 L 562.2 130 L 562.2 126.6 L 552 126.6 L 552 113 L 548.6 113 Z M 552 113 L 562.2 113 L 562.2 126.6 L 565.6 126.6 L 565.6 113 L 562.2 113 L 562.2 109.6 L 552 109.6 Z" fill="black"/>
      <path d="M 575.8 116.4 L 579.2 116.4 L 579.2 113 L 575.8 113 L 575.8 109.6 L 572.4 109.6 L 572.4 130 L 575.8 130 Z M 586 130 L 589.4 130 L 589.4 113 L 586 113 L 586 109.6 L 579.2 109.6 L 579.2 113 L 586 113 Z" fill="black"/>
      <path d="M 613.2 113 L 609.8 113 L 609.8 109.6 L 599.6 109.6 L 599.6 113 L 609.8 113 L 609.8 116.4 L 599.6 116.4 L 599.6 113 L 596.2 113 L 596.2 126.6 L 599.6 126.6 L 599.6 130 L 609.8 130 L 609.8 126.6 L 599.6 126.6 L 599.6 119.8 L 613.2 119.8 Z M 613.2 123.2 L 609.8 123.2 L 609.8 126.6 L 613.2 126.6 Z" fill="black"/>
      <path d="M 623.4 119.8 L 630.2 119.8 L 630.2 123.2 L 633.6 123.2 L 633.6 126.6 L 637 126.6 L 637 123.2 L 633.6 123.2 L 633.6 119.8 L 630.2 119.8 L 630.2 116.4 L 623.4 116.4 L 623.4 113 L 620 113 L 620 116.4 L 623.4 116.4 Z M 637 113 L 633.6 113 L 633.6 109.6 L 623.4 109.6 L 623.4 113 L 633.6 113 L 633.6 116.4 L 637 116.4 Z M 620 126.6 L 623.4 126.6 L 623.4 130 L 633.6 130 L 633.6 126.6 L 623.4 126.6 L 623.4 123.2 L 620 123.2 Z" fill="black"/>
      <path d="M 650.6 109.6 L 647.2 109.6 L 647.2 102.8 L 643.8 102.8 L 643.8 109.6 L 640.4 109.6 L 640.4 113 L 643.8 113 L 643.8 130 L 650.6 130 L 650.6 126.6 L 647.2 126.6 L 647.2 113 L 650.6 113 Z" fill="black"/>
      <path d="M 538.4 233.1 L 524.8 233.1 L 524.8 212.7 L 521.4 212.7 L 521.4 233.1 L 524.8 233.1 L 524.8 236.5 L 538.4 236.5 Z M 541.8 212.7 L 538.4 212.7 L 538.4 209.3 L 524.8 209.3 L 524.8 212.7 L 538.4 212.7 L 538.4 216.1 L 541.8 216.1 Z M 541.8 229.7 L 538.4 229.7 L 538.4 233.1 L 541.8 233.1 Z" fill="black"/>
      <path d="M 548.6 233.1 L 552 233.1 L 552 236.5 L 562.2 236.5 L 562.2 233.1 L 552 233.1 L 552 219.5 L 548.6 219.5 Z M 552 219.5 L 562.2 219.5 L 562.2 233.1 L 565.6 233.1 L 565.6 219.5 L 562.2 219.5 L 562.2 216.1 L 552 216.1 Z" fill="black"/>
      <path d="M 572.4 236.5 L 575.8 236.5 L 575.8 219.5 L 582.6 219.5 L 582.6 216.1 L 572.4 216.1 Z" fill="black"/>
      <path d="M 589.4 222.9 L 592.8 222.9 L 592.8 219.5 L 589.4 219.5 L 589.4 216.1 L 586 216.1 L 586 236.5 L 589.4 236.5 Z M 599.6 236.5 L 603 236.5 L 603 219.5 L 599.6 219.5 L 599.6 216.1 L 592.8 216.1 L 592.8 219.5 L 599.6 219.5 Z" fill="black"/>
      <path d="M 613.2 222.9 L 626.8 222.9 L 626.8 219.5 L 613.2 219.5 L 613.2 212.7 L 626.8 212.7 L 626.8 209.3 L 609.8 209.3 L 609.8 236.5 L 626.8 236.5 L 626.8 233.1 L 613.2 233.1 Z" fill="black"/>
      <path d="M 637 229.7 L 643.8 229.7 L 643.8 236.5 L 647.2 236.5 L 647.2 229.7 L 643.8 229.7 L 643.8 222.9 L 637 222.9 L 637 216.1 L 633.6 216.1 L 633.6 222.9 L 637 222.9 Z M 633.6 236.5 L 637 236.5 L 637 229.7 L 633.6 229.7 Z M 647.2 216.1 L 643.8 216.1 L 643.8 222.9 L 647.2 222.9 Z" fill="black"/>
      <path d="M 268.3 490.3 L 278.5 490.3 L 278.5 486.9 L 268.3 486.9 L 268.3 476.7 L 278.5 476.7 L 278.5 486.9 L 281.9 486.9 L 281.9 476.7 L 278.5 476.7 L 278.5 473.3 L 264.9 473.3 L 264.9 500.5 L 268.3 500.5 Z" fill="white"/>
      <path d="M 305.7 483.5 L 302.3 483.5 L 302.3 480.1 L 292.1 480.1 L 292.1 483.5 L 302.3 483.5 L 302.3 486.9 L 292.1 486.9 L 292.1 483.5 L 288.7 483.5 L 288.7 497.1 L 292.1 497.1 L 292.1 500.5 L 302.3 500.5 L 302.3 497.1 L 292.1 497.1 L 292.1 490.3 L 305.7 490.3 Z M 305.7 493.7 L 302.3 493.7 L 302.3 497.1 L 305.7 497.1 Z" fill="white"/>
      <path d="M 312.5 486.9 L 315.9 486.9 L 315.9 490.3 L 326.1 490.3 L 326.1 493.7 L 322.7 493.7 L 322.7 497.1 L 326.1 497.1 L 326.1 500.5 L 332.9 500.5 L 332.9 497.1 L 329.5 497.1 L 329.5 483.5 L 326.1 483.5 L 326.1 480.1 L 315.9 480.1 L 315.9 483.5 L 312.5 483.5 Z M 312.5 497.1 L 315.9 497.1 L 315.9 500.5 L 322.7 500.5 L 322.7 497.1 L 315.9 497.1 L 315.9 490.3 L 312.5 490.3 Z M 315.9 483.5 L 326.1 483.5 L 326.1 486.9 L 315.9 486.9 Z" fill="white"/>
      <path d="M 339.7 490.3 L 346.5 490.3 L 346.5 493.7 L 349.9 493.7 L 349.9 497.1 L 353.3 497.1 L 353.3 493.7 L 349.9 493.7 L 349.9 490.3 L 346.5 490.3 L 346.5 486.9 L 339.7 486.9 L 339.7 483.5 L 336.3 483.5 L 336.3 486.9 L 339.7 486.9 Z M 353.3 483.5 L 349.9 483.5 L 349.9 480.1 L 339.7 480.1 L 339.7 483.5 L 349.9 483.5 L 349.9 486.9 L 353.3 486.9 Z M 336.3 497.1 L 339.7 497.1 L 339.7 500.5 L 349.9 500.5 L 349.9 497.1 L 339.7 497.1 L 339.7 493.7 L 336.3 493.7 Z" fill="white"/>
      <path d="M 387.3 500.5 L 390.7 500.5 L 390.7 473.3 L 387.3 473.3 L 387.3 483.5 L 373.7 483.5 L 373.7 473.3 L 370.3 473.3 L 370.3 500.5 L 373.7 500.5 L 373.7 486.9 L 387.3 486.9 Z" fill="white"/>
      <path d="M 397.5 500.5 L 400.9 500.5 L 400.9 480.1 L 397.5 480.1 Z M 397.5 476.7 L 400.9 476.7 L 400.9 473.3 L 397.5 473.3 Z" fill="white"/>
      <rect x="407.7" y="473.3" width="3.4" height="27.2" fill="white"/>
      <rect x="417.9" y="473.3" width="3.4" height="27.2" fill="white"/>
      <path d="M 45.8 584.7 L 18.6 584.7 L 18.6 543.89997 L 11.8 543.89997 L 11.8 584.7 L 18.6 584.7 L 18.6 591.5 L 45.8 591.5 Z M 52.6 543.89997 L 45.8 543.89997 L 45.8 537.09997 L 18.6 537.09997 L 18.6 543.89997 L 45.8 543.89997 L 45.8 550.7 L 52.6 550.7 Z M 52.6 577.9 L 45.8 577.9 L 45.8 584.7 L 52.6 584.7 Z" fill="black"/>
      <path d="M 100.2 557.5 L 93.4 557.5 L 93.4 550.7 L 73 550.7 L 73 557.5 L 93.4 557.5 L 93.4 564.3 L 73 564.3 L 73 557.5 L 66.2 557.5 L 66.2 584.7 L 73 584.7 L 73 591.5 L 93.4 591.5 L 93.4 584.7 L 73 584.7 L 73 571.1 L 100.2 571.1 Z M 100.2 577.9 L 93.4 577.9 L 93.4 584.7 L 100.2 584.7 Z" fill="black"/>
      <path d="M 120.6 564.3 L 127.4 564.3 L 127.4 557.5 L 120.6 557.5 L 120.6 550.7 L 113.8 550.7 L 113.8 591.5 L 120.6 591.5 Z M 141 591.5 L 147.8 591.5 L 147.8 557.5 L 141 557.5 L 141 550.7 L 127.4 550.7 L 127.4 557.5 L 141 557.5 Z" fill="black"/>
      <path d="M 181.8 550.7 L 175 550.7 L 175 537.09997 L 168.2 537.09997 L 168.2 550.7 L 161.4 550.7 L 161.4 557.5 L 168.2 557.5 L 168.2 591.5 L 181.8 591.5 L 181.8 584.7 L 175 584.7 L 175 557.5 L 181.8 557.5 Z" fill="black"/>
      <path d="M 195.4 591.5 L 202.2 591.5 L 202.2 557.5 L 215.8 557.5 L 215.8 550.7 L 195.4 550.7 Z" fill="black"/>
      <path d="M 222.6 564.3 L 229.4 564.3 L 229.4 571.1 L 249.8 571.1 L 249.8 577.9 L 243 577.9 L 243 584.7 L 249.8 584.7 L 249.8 591.5 L 263.4 591.5 L 263.4 584.7 L 256.6 584.7 L 256.6 557.5 L 249.8 557.5 L 249.8 550.7 L 229.4 550.7 L 229.4 557.5 L 222.6 557.5 Z M 222.6 584.7 L 229.4 584.7 L 229.4 591.5 L 243 591.5 L 243 584.7 L 229.4 584.7 L 229.4 571.1 L 222.6 571.1 Z M 229.4 557.5 L 249.8 557.5 L 249.8 564.3 L 229.4 564.3 Z" fill="black"/>
      <rect x="270.2" y="537.09997" width="6.8" height="54.4" fill="black"/>
      <path d="M 45.8 656.7 L 18.6 656.7 L 18.6 615.9 L 11.8 615.9 L 11.8 656.7 L 18.6 656.7 L 18.6 663.5 L 45.8 663.5 Z M 52.6 615.9 L 45.8 615.9 L 45.8 609.1 L 18.6 609.1 L 18.6 615.9 L 45.8 615.9 L 45.8 622.7 L 52.6 622.7 Z M 52.6 649.9 L 45.8 649.9 L 45.8 656.7 L 52.6 656.7 Z" fill="black"/>
      <path d="M 66.2 636.3 L 73 636.3 L 73 643.1 L 93.4 643.1 L 93.4 649.9 L 86.6 649.9 L 86.6 656.7 L 93.4 656.7 L 93.4 663.5 L 107 663.5 L 107 656.7 L 100.2 656.7 L 100.2 629.5 L 93.4 629.5 L 93.4 622.7 L 73 622.7 L 73 629.5 L 66.2 629.5 Z M 66.2 656.7 L 73 656.7 L 73 663.5 L 86.6 663.5 L 86.6 656.7 L 73 656.7 L 73 643.1 L 66.2 643.1 Z M 73 629.5 L 93.4 629.5 L 93.4 636.3 L 73 636.3 Z" fill="black"/>
      <path d="M 120.6 636.3 L 127.4 636.3 L 127.4 629.5 L 120.6 629.5 L 120.6 622.7 L 113.8 622.7 L 113.8 663.5 L 120.6 663.5 Z M 134.2 663.5 L 141 663.5 L 141 636.3 L 147.8 636.3 L 147.8 629.5 L 134.2 629.5 L 134.2 622.7 L 127.4 622.7 L 127.4 629.5 L 134.2 629.5 Z M 161.4 629.5 L 154.6 629.5 L 154.6 622.7 L 147.8 622.7 L 147.8 629.5 L 154.6 629.5 L 154.6 663.5 L 161.4 663.5 Z" fill="black"/>
      <path d="M 181.8 636.3 L 188.6 636.3 L 188.6 629.5 L 181.8 629.5 L 181.8 609.1 L 175 609.1 L 175 663.5 L 181.8 663.5 L 181.8 656.7 L 188.6 656.7 L 188.6 663.5 L 202.2 663.5 L 202.2 656.7 L 188.6 656.7 L 188.6 649.9 L 181.8 649.9 Z M 188.6 629.5 L 202.2 629.5 L 202.2 656.7 L 209 656.7 L 209 629.5 L 202.2 629.5 L 202.2 622.7 L 188.6 622.7 Z" fill="black"/>
      <path d="M 222.6 663.5 L 229.4 663.5 L 229.4 629.5 L 243 629.5 L 243 622.7 L 222.6 622.7 Z" fill="black"/>
      <path d="M 249.8 663.5 L 256.6 663.5 L 256.6 622.7 L 249.8 622.7 Z M 249.8 615.9 L 256.6 615.9 L 256.6 609.1 L 249.8 609.1 Z" fill="black"/>
      <path d="M 304.2 609.1 L 297.4 609.1 L 297.4 629.5 L 290.6 629.5 L 290.6 622.7 L 277 622.7 L 277 629.5 L 290.6 629.5 L 290.6 636.3 L 297.4 636.3 L 297.4 649.9 L 290.6 649.9 L 290.6 656.7 L 297.4 656.7 L 297.4 663.5 L 304.2 663.5 Z M 290.6 656.7 L 277 656.7 L 277 629.5 L 270.2 629.5 L 270.2 656.7 L 277 656.7 L 277 663.5 L 290.6 663.5 Z" fill="black"/>
      <path d="M 345 649.9 L 338.2 649.9 L 338.2 656.7 L 345 656.7 L 345 670.3 L 351.8 670.3 L 351.8 622.7 L 345 622.7 L 345 629.5 L 338.2 629.5 L 338.2 622.7 L 324.6 622.7 L 324.6 629.5 L 338.2 629.5 L 338.2 636.3 L 345 636.3 Z M 338.2 656.7 L 324.6 656.7 L 324.6 629.5 L 317.8 629.5 L 317.8 656.7 L 324.6 656.7 L 324.6 663.5 L 338.2 663.5 Z M 324.6 663.5 L 317.8 663.5 L 317.8 670.3 L 324.6 670.3 L 324.6 677.1 L 345 677.1 L 345 670.3 L 324.6 670.3 Z" fill="black"/>
      <path d="M 399.4 629.5 L 392.6 629.5 L 392.6 622.7 L 372.2 622.7 L 372.2 629.5 L 392.6 629.5 L 392.6 636.3 L 372.2 636.3 L 372.2 629.5 L 365.4 629.5 L 365.4 656.7 L 372.2 656.7 L 372.2 663.5 L 392.6 663.5 L 392.6 656.7 L 372.2 656.7 L 372.2 643.1 L 399.4 643.1 Z M 399.4 649.9 L 392.6 649.9 L 392.6 656.7 L 399.4 656.7 Z" fill="black"/>
      <path d="M 20 439.3 L 16.6 439.3 L 16.6 442.7 L 13.2 442.7 L 13.2 446.1 L 9.8 446.1 L 9.8 449.5 L 13.2 449.5 L 13.2 452.9 L 16.6 452.9 L 16.6 449.5 L 37 449.5 L 37 446.1 L 16.6 446.1 L 16.6 442.7 L 20 442.7 L 20 439.3 L 23.4 439.3 L 23.4 435.9 L 20 435.9 Z M 23.4 456.3 L 20 456.3 L 20 459.7 L 23.4 459.7 Z M 20 452.9 L 16.6 452.9 L 16.6 456.3 L 20 456.3 Z" fill="black"/>
      <path d="M 56.6 452.9 L 56.6 449.5 L 63.4 449.5 L 63.4 446.1 L 70.2 446.1 L 70.2 442.7 L 77 442.7 L 77 435.9 L 49.8 435.9 L 49.8 439.3 L 70.2 439.3 L 70.2 442.7 L 63.4 442.7 L 63.4 446.1 L 56.6 446.1 L 56.6 449.5 L 49.8 449.5 L 49.8 456.3 L 77 456.3 L 77 452.9 Z" fill="black"/>
      <path d="M 45.1 244.8 L 45.1 241.4 L 55.3 241.4 L 55.3 238 L 65.5 238 L 65.5 231.2 L 55.3 231.2 L 55.3 238 L 45.1 238 L 45.1 241.4 L 38.3 241.4 L 38.3 248.2 L 65.5 248.2 L 65.5 244.8 Z M 38.3 221 L 38.3 227.8 L 45.1 227.8 L 45.1 224.4 L 65.5 224.4 L 65.5 221 Z M 45.1 227.8 L 45.1 231.2 L 55.3 231.2 L 55.3 227.8 Z" fill="white"/>
      <path d="M 51.9 214.2 L 51.9 210.8 L 55.3 210.8 L 55.3 200.6 L 58.7 200.6 L 58.7 204 L 62.1 204 L 62.1 200.6 L 65.5 200.6 L 65.5 193.8 L 62.1 193.8 L 62.1 197.2 L 48.5 197.2 L 48.5 200.6 L 45.1 200.6 L 45.1 210.8 L 48.5 210.8 L 48.5 214.2 Z M 62.1 214.2 L 62.1 210.8 L 65.5 210.8 L 65.5 204 L 62.1 204 L 62.1 210.8 L 55.3 210.8 L 55.3 214.2 Z M 48.5 210.8 L 48.5 200.6 L 51.9 200.6 L 51.9 210.8 Z" fill="white"/>
      <path d="M 65.5 190.4 L 65.5 187 L 48.5 187 L 48.5 180.2 L 45.1 180.2 L 45.1 190.4 Z" fill="white"/>
      <path d="M 58.7 173.4 L 58.7 170 L 62.1 170 L 62.1 166.6 L 65.5 166.6 L 65.5 163.2 L 62.1 163.2 L 62.1 166.6 L 58.7 166.6 L 58.7 170 L 51.9 170 L 51.9 173.4 L 38.3 173.4 L 38.3 176.8 L 65.5 176.8 L 65.5 173.4 Z M 51.9 170 L 51.9 166.6 L 48.5 166.6 L 48.5 170 Z M 48.5 166.6 L 48.5 163.2 L 45.1 163.2 L 45.1 166.6 Z" fill="white"/>
      <path d="M 48.5 139.4 L 48.5 142.8 L 45.1 142.8 L 45.1 153 L 48.5 153 L 48.5 142.8 L 51.9 142.8 L 51.9 153 L 48.5 153 L 48.5 156.4 L 62.1 156.4 L 62.1 153 L 65.5 153 L 65.5 142.8 L 62.1 142.8 L 62.1 153 L 55.3 153 L 55.3 139.4 Z M 58.7 139.4 L 58.7 142.8 L 62.1 142.8 L 62.1 139.4 Z" fill="white"/>
      <path d="M 45.1 122.4 L 45.1 125.8 L 38.3 125.8 L 38.3 129.2 L 45.1 129.2 L 45.1 132.6 L 48.5 132.6 L 48.5 129.2 L 65.5 129.2 L 65.5 122.4 L 62.1 122.4 L 62.1 125.8 L 48.5 125.8 L 48.5 122.4 Z" fill="white"/>
      <path d="M 101.50002 156.4 L 101.50002 153 L 74.30002 153 L 74.30002 156.4 L 84.50002 156.4 L 84.50002 170 L 74.30002 170 L 74.30002 173.4 L 101.50002 173.4 L 101.50002 170 L 87.90002 170 L 87.90002 156.4 Z" fill="white"/>
      <path d="M 101.50002 146.2 L 101.50002 142.8 L 81.10002 142.8 L 81.10002 146.2 Z M 77.70002 146.2 L 77.70002 142.8 L 74.30002 142.8 L 74.30002 146.2 Z" fill="white"/>
      <rect x="74.30002" y="132.6" width="27.2" height="3.4" fill="white"/>
      <rect x="74.30002" y="122.4" width="27.2" height="3.4" fill="white"/>
      <path d="M 522.2 519.1 L 522.2 515.7 L 529 515.7 L 529 512.3 L 522.2 512.3 L 522.2 515.7 L 512 515.7 L 512 519.1 L 501.8 519.1 L 501.8 522.5 L 512 522.5 L 512 519.1 Z M 522.2 505.5 L 522.2 502.1 L 529 502.1 L 529 498.7 L 522.2 498.7 L 522.2 502.1 L 512 502.1 L 512 505.5 L 501.8 505.5 L 501.8 508.9 L 512 508.9 L 512 505.5 Z M 501.8 491.9 L 501.8 495.3 L 512 495.3 L 512 491.9 Z M 512 508.9 L 512 512.3 L 522.2 512.3 L 522.2 508.9 Z M 512 495.3 L 512 498.7 L 522.2 498.7 L 522.2 495.3 Z" fill="white"/>
      <path d="M 515.4 481.7 L 515.4 478.3 L 512 478.3 L 512 481.7 L 501.8 481.7 L 501.8 485.1 L 529 485.1 L 529 481.7 Z M 529 471.5 L 529 468.1 L 512 468.1 L 512 471.5 L 508.6 471.5 L 508.6 478.3 L 512 478.3 L 512 471.5 Z" fill="white"/>
      <path d="M 512 444.3 L 512 447.7 L 508.6 447.7 L 508.6 457.9 L 512 457.9 L 512 447.7 L 515.4 447.7 L 515.4 457.9 L 512 457.9 L 512 461.3 L 525.6 461.3 L 525.6 457.9 L 529 457.9 L 529 447.7 L 525.6 447.7 L 525.6 457.9 L 518.8 457.9 L 518.8 444.3 Z M 522.2 444.3 L 522.2 447.7 L 525.6 447.7 L 525.6 444.3 Z" fill="white"/>
      <path d="M 512 420.5 L 512 423.9 L 508.6 423.9 L 508.6 434.1 L 512 434.1 L 512 423.9 L 515.4 423.9 L 515.4 434.1 L 512 434.1 L 512 437.5 L 525.6 437.5 L 525.6 434.1 L 529 434.1 L 529 423.9 L 525.6 423.9 L 525.6 434.1 L 518.8 434.1 L 518.8 420.5 Z M 522.2 420.5 L 522.2 423.9 L 525.6 423.9 L 525.6 420.5 Z" fill="white"/>
      <rect x="501.8" y="410.3" width="27.2" height="3.4" fill="white"/>
      <path d="M 512 386.5 L 512 389.9 L 508.6 389.9 L 508.6 400.1 L 512 400.1 L 512 389.9 L 515.4 389.9 L 515.4 400.1 L 512 400.1 L 512 403.5 L 525.6 403.5 L 525.6 400.1 L 529 400.1 L 529 389.9 L 525.6 389.9 L 525.6 400.1 L 518.8 400.1 L 518.8 386.5 Z M 522.2 386.5 L 522.2 389.9 L 525.6 389.9 L 525.6 386.5 Z" fill="white"/>
      <path d="M 529 379.7 L 529 376.3 L 512 376.3 L 512 369.5 L 508.6 369.5 L 508.6 379.7 Z" fill="white"/>
      <path d="M 515.4 342.3 L 515.4 345.7 L 512 345.7 L 512 352.5 L 505.2 352.5 L 505.2 355.9 L 512 355.9 L 512 352.5 L 515.4 352.5 L 515.4 345.7 L 518.8 345.7 L 518.8 342.3 L 525.6 342.3 L 525.6 338.9 L 518.8 338.9 L 518.8 342.3 Z M 505.2 338.9 L 505.2 342.3 L 501.8 342.3 L 501.8 352.5 L 505.2 352.5 L 505.2 342.3 L 508.6 342.3 L 508.6 338.9 Z M 522.2 352.5 L 522.2 355.9 L 525.6 355.9 L 525.6 352.5 L 529 352.5 L 529 342.3 L 525.6 342.3 L 525.6 352.5 Z" fill="white"/>
      <path d="M 508.6 321.9 L 508.6 325.3 L 501.8 325.3 L 501.8 328.7 L 508.6 328.7 L 508.6 332.1 L 512 332.1 L 512 328.7 L 529 328.7 L 529 321.9 L 525.6 321.9 L 525.6 325.3 L 512 325.3 L 512 321.9 Z" fill="white"/>
      <path d="M 228 171 L 230.5909 171 L 230.5909 176.18182 L 235.77273 176.18182 L 235.77273 181.36364 L 240.95455 181.36364 L 240.95455 186.54545 L 246.13636 186.54545 L 246.13636 191.72727 L 251.31818 191.72727 L 251.31818 196.9091 L 256.5 196.9091 L 256.5 199.5 L 248.72727 199.5 L 248.72727 194.31818 L 243.54545 194.31818 L 243.54545 189.13636 L 238.36364 189.13636 L 238.36364 183.95455 L 233.18182 183.95455 L 233.18182 178.77273 L 228 178.77273 Z" fill="white"/>
    </g>
  </g>
</svg>
