<?xml version="1.0" encoding="UTF-8" standalone="no"?>
<!DOCTYPE svg PUBLIC "-//W3C//DTD SVG 1.1//EN" "http://www.w3.org/Graphics/SVG/1.1/DTD/svg11.dtd">
<svg xmlns="http://www.w3.org/2000/svg" xmlns:xl="http://www.w3.org/1999/xlink" version="1.1" viewBox="0 0 684 684" preserveAspectRatio="xMinYMin" xmlns:dc="http://purl.org/dc/elements/1.1/">
  <metadata> Produced by OmniGraffle 7.6 
    <dc:date>2018-01-19 00:42:34 +0000</dc:date>
  </metadata>
  <defs/>
  <g stroke="none" stroke-opacity="1" stroke-dasharray="none" fill="none" fill-opacity="1">
    <title>Guildhall</title>
    <rect fill="white" width="684" height="684"/>
    <g>
      <title>Layer 1</title>
      <rect x="0" y="0" width="684" height="684" fill="#1abce9"/>
      <path d="M 655.5 199.5 L 655.5 0 L 0 0 L 0 199.5 L 57 199.5 L 57 598.5 L 256.5 598.5 L 256.5 655.5 L 427.5 655.5 L 427.5 684 L 598.5 684 L 598.5 655.5 L 684 655.5 L 684 199.5 Z" fill="#ef1d13"/>
      <path d="M 399 199.5 L 399 228 L 456 228 L 456 199.5 Z M 627 199.5 L 513 199.5 L 513 228 L 655.5 228 L 655.5 570 L 171 570 L 171 427.5 L 85.5 427.5 L 85.5 199.5 L 0 199.5 L 0 598.5 L 256.5 598.5 L 256.5 655.5 L 427.5 655.5 L 427.5 684 L 598.5 684 L 598.5 655.5 L 684 655.5 L 684 199.5 L 655.5 199.5 L 655.5 -11368684e-20 L 0 0 L 0 28.5 L 199.5 28.5 L 199.5 85.5 L 228 85.5 L 228 28.5 L 627 28.5 Z M 171 370.5 L 171 228 L 342 228 L 342 199.5 L 228 199.5 L 228 142.5 L 199.5 142.5 L 199.5 199.5 L 142.5 199.5 L 142.5 370.5 Z" fill="white"/>
      <rect x="513" y="256.5" width="114" height="285" fill="black"/>
      <path d="M 199.5 342 L 228 342 L 228 285 L 342 285 L 342 256.5 L 199.5 256.5 Z" fill="black"/>
      <rect x="199.5" y="427.5" width="199.5" height="114" fill="black"/>
      <rect x="171" y="28.5" width="28.5" height="57" fill="black"/>
      <rect x="570" y="85.5" width="28.5" height="57" fill="black"/>
      <rect x="513" y="28.5" width="28.5" height="28.5" fill="black"/>
      <rect x="456" y="28.5" width="28.5" height="28.5" fill="black"/>
      <rect x="399" y="28.5" width="28.5" height="28.5" fill="black"/>
      <rect x="342" y="28.5" width="28.5" height="28.5" fill="black"/>
      <rect x="513" y="85.5" width="28.5" height="28.5" fill="black"/>
      <rect x="456" y="85.5" width="28.5" height="28.5" fill="black"/>
      <rect x="399" y="85.5" width="28.5" height="28.5" fill="black"/>
      <rect x="342" y="85.5" width="28.5" height="28.5" fill="black"/>
      <rect x="513" y="142.5" width="28.5" height="28.5" fill="black"/>
      <rect x="456" y="142.5" width="28.5" height="28.5" fill="black"/>
      <rect x="399" y="142.5" width="28.5" height="28.5" fill="black"/>
      <rect x="342" y="142.5" width="28.5" height="28.5" fill="black"/>
      <rect x="285" y="28.5" width="28.5" height="28.5" fill="black"/>
      <rect x="285" y="85.5" width="28.5" height="28.5" fill="black"/>
      <rect x="285" y="142.5" width="28.5" height="28.5" fill="black"/>
      <path d="M 295.5 632.2 L 275.1 632.2 L 275.1 591.4 L 268.3 591.4 L 268.3 632.2 L 275.1 632.2 L 275.1 639 L 295.5 639 Z M 295.5 632.2 L 302.3 632.2 L 302.3 639 L 309.1 639 L 309.1 611.8 L 288.7 611.8 L 288.7 618.6 L 302.3 618.6 L 302.3 625.4 L 295.5 625.4 Z M 309.1 591.4 L 302.3 591.4 L 302.3 584.6 L 275.1 584.6 L 275.1 591.4 L 302.3 591.4 L 302.3 598.2 L 309.1 598.2 Z" fill="black"/>
      <path d="M 349.9 625.4 L 343.1 625.4 L 343.1 632.2 L 349.9 632.2 L 349.9 639 L 356.7 639 L 356.7 598.2 L 349.9 598.2 Z M 343.1 632.2 L 329.5 632.2 L 329.5 598.2 L 322.7 598.2 L 322.7 632.2 L 329.5 632.2 L 329.5 639 L 343.1 639 Z" fill="black"/>
      <path d="M 370.3 639 L 377.1 639 L 377.1 598.2 L 370.3 598.2 Z M 370.3 591.4 L 377.1 591.4 L 377.1 584.6 L 370.3 584.6 Z" fill="black"/>
      <rect x="390.7" y="584.6" width="6.8" height="54.4" fill="black"/>
      <path d="M 445.1 584.6 L 438.3 584.6 L 438.3 605 L 431.5 605 L 431.5 598.2 L 417.9 598.2 L 417.9 605 L 431.5 605 L 431.5 611.8 L 438.3 611.8 L 438.3 625.4 L 431.5 625.4 L 431.5 632.2 L 438.3 632.2 L 438.3 639 L 445.1 639 Z M 431.5 632.2 L 417.9 632.2 L 417.9 605 L 411.1 605 L 411.1 632.2 L 417.9 632.2 L 417.9 639 L 431.5 639 Z" fill="black"/>
      <path d="M 465.5 611.8 L 472.3 611.8 L 472.3 605 L 465.5 605 L 465.5 584.6 L 458.7 584.6 L 458.7 639 L 465.5 639 Z M 485.9 639 L 492.7 639 L 492.7 605 L 485.9 605 L 485.9 598.2 L 472.3 598.2 L 472.3 605 L 485.9 605 Z" fill="black"/>
      <path d="M 506.3 611.8 L 513.1 611.8 L 513.1 618.6 L 533.5 618.6 L 533.5 625.4 L 526.7 625.4 L 526.7 632.2 L 533.5 632.2 L 533.5 639 L 547.1 639 L 547.1 632.2 L 540.3 632.2 L 540.3 605 L 533.5 605 L 533.5 598.2 L 513.1 598.2 L 513.1 605 L 506.3 605 Z M 506.3 632.2 L 513.1 632.2 L 513.1 639 L 526.7 639 L 526.7 632.2 L 513.1 632.2 L 513.1 618.6 L 506.3 618.6 Z M 513.1 605 L 533.5 605 L 533.5 611.8 L 513.1 611.8 Z" fill="black"/>
      <rect x="553.9" y="584.6" width="6.8" height="54.4" fill="black"/>
      <rect x="574.3" y="584.6" width="6.8" height="54.4" fill="black"/>
      <path d="M 221.5 450.9 L 218.1 450.9 L 218.1 447.5 L 211.3 447.5 L 211.3 440.7 L 207.9 440.7 L 207.9 447.5 L 211.3 447.5 L 211.3 450.9 L 218.1 450.9 L 218.1 454.3 L 221.5 454.3 L 221.5 461.1 L 224.9 461.1 L 224.9 454.3 L 221.5 454.3 Z M 224.9 440.7 L 221.5 440.7 L 221.5 437.3 L 211.3 437.3 L 211.3 440.7 L 221.5 440.7 L 221.5 444.1 L 224.9 444.1 Z M 211.3 457.7 L 207.9 457.7 L 207.9 461.1 L 211.3 461.1 L 211.3 464.5 L 221.5 464.5 L 221.5 461.1 L 211.3 461.1 Z" fill="white"/>
      <rect x="231.7" y="437.3" width="3.4" height="27.2" fill="white"/>
      <path d="M 258.9 447.5 L 255.5 447.5 L 255.5 444.1 L 245.3 444.1 L 245.3 447.5 L 255.5 447.5 L 255.5 450.9 L 245.3 450.9 L 245.3 447.5 L 241.9 447.5 L 241.9 461.1 L 245.3 461.1 L 245.3 464.5 L 255.5 464.5 L 255.5 461.1 L 245.3 461.1 L 245.3 454.3 L 258.9 454.3 Z M 258.9 457.7 L 255.5 457.7 L 255.5 461.1 L 258.9 461.1 Z" fill="white"/>
      <path d="M 282.7 447.5 L 279.3 447.5 L 279.3 444.1 L 269.1 444.1 L 269.1 447.5 L 279.3 447.5 L 279.3 450.9 L 269.1 450.9 L 269.1 447.5 L 265.7 447.5 L 265.7 461.1 L 269.1 461.1 L 269.1 464.5 L 279.3 464.5 L 279.3 461.1 L 269.1 461.1 L 269.1 454.3 L 282.7 454.3 Z M 282.7 457.7 L 279.3 457.7 L 279.3 461.1 L 282.7 461.1 Z" fill="white"/>
      <path d="M 289.5 471.3 L 292.9 471.3 L 292.9 461.1 L 296.3 461.1 L 296.3 464.5 L 303.1 464.5 L 303.1 461.1 L 296.3 461.1 L 296.3 457.7 L 292.9 457.7 L 292.9 450.9 L 296.3 450.9 L 296.3 447.5 L 292.9 447.5 L 292.9 444.1 L 289.5 444.1 Z M 296.3 447.5 L 303.1 447.5 L 303.1 461.1 L 306.5 461.1 L 306.5 447.5 L 303.1 447.5 L 303.1 444.1 L 296.3 444.1 Z" fill="white"/>
      <path d="M 313.3 464.5 L 316.7 464.5 L 316.7 444.1 L 313.3 444.1 Z M 313.3 440.7 L 316.7 440.7 L 316.7 437.3 L 313.3 437.3 Z" fill="white"/>
      <path d="M 326.9 450.9 L 330.3 450.9 L 330.3 447.5 L 326.9 447.5 L 326.9 444.1 L 323.5 444.1 L 323.5 464.5 L 326.9 464.5 Z M 337.1 464.5 L 340.5 464.5 L 340.5 447.5 L 337.1 447.5 L 337.1 444.1 L 330.3 444.1 L 330.3 447.5 L 337.1 447.5 Z" fill="white"/>
      <path d="M 360.9 457.7 L 357.5 457.7 L 357.5 461.1 L 360.9 461.1 L 360.9 467.9 L 364.3 467.9 L 364.3 444.1 L 360.9 444.1 L 360.9 447.5 L 357.5 447.5 L 357.5 444.1 L 350.7 444.1 L 350.7 447.5 L 357.5 447.5 L 357.5 450.9 L 360.9 450.9 Z M 357.5 461.1 L 350.7 461.1 L 350.7 447.5 L 347.3 447.5 L 347.3 461.1 L 350.7 461.1 L 350.7 464.5 L 357.5 464.5 Z M 350.7 464.5 L 347.3 464.5 L 347.3 467.9 L 350.7 467.9 L 350.7 471.3 L 360.9 471.3 L 360.9 467.9 L 350.7 467.9 Z" fill="white"/>
      <path d="M 207.9 486.9 L 211.3 486.9 L 211.3 490.3 L 221.5 490.3 L 221.5 493.7 L 218.1 493.7 L 218.1 497.1 L 221.5 497.1 L 221.5 500.5 L 228.3 500.5 L 228.3 497.1 L 224.9 497.1 L 224.9 483.5 L 221.5 483.5 L 221.5 480.1 L 211.3 480.1 L 211.3 483.5 L 207.9 483.5 Z M 207.9 497.1 L 211.3 497.1 L 211.3 500.5 L 218.1 500.5 L 218.1 497.1 L 211.3 497.1 L 211.3 490.3 L 207.9 490.3 Z M 211.3 483.5 L 221.5 483.5 L 221.5 486.9 L 211.3 486.9 Z" fill="white"/>
      <path d="M 231.7 500.5 L 235.1 500.5 L 235.1 483.5 L 241.9 483.5 L 241.9 480.1 L 231.7 480.1 Z" fill="white"/>
      <path d="M 262.3 483.5 L 258.9 483.5 L 258.9 480.1 L 248.7 480.1 L 248.7 483.5 L 258.9 483.5 L 258.9 486.9 L 248.7 486.9 L 248.7 483.5 L 245.3 483.5 L 245.3 497.1 L 248.7 497.1 L 248.7 500.5 L 258.9 500.5 L 258.9 497.1 L 248.7 497.1 L 248.7 490.3 L 262.3 490.3 Z M 262.3 493.7 L 258.9 493.7 L 258.9 497.1 L 262.3 497.1 Z" fill="white"/>
      <path d="M 269.1 486.9 L 272.5 486.9 L 272.5 490.3 L 282.7 490.3 L 282.7 493.7 L 279.3 493.7 L 279.3 497.1 L 282.7 497.1 L 282.7 500.5 L 289.5 500.5 L 289.5 497.1 L 286.1 497.1 L 286.1 483.5 L 282.7 483.5 L 282.7 480.1 L 272.5 480.1 L 272.5 483.5 L 269.1 483.5 Z M 269.1 497.1 L 272.5 497.1 L 272.5 500.5 L 279.3 500.5 L 279.3 497.1 L 272.5 497.1 L 272.5 490.3 L 269.1 490.3 Z M 272.5 483.5 L 282.7 483.5 L 282.7 486.9 L 272.5 486.9 Z" fill="white"/>
      <path d="M 129.9 65.5 L 133.3 65.5 L 133.3 38.3 L 129.9 38.3 L 129.9 48.5 L 116.3 48.5 L 116.3 38.3 L 112.9 38.3 L 112.9 65.5 L 116.3 65.5 L 116.3 51.9 L 129.9 51.9 Z" fill="white"/>
      <path d="M 157.1 62.1 L 143.5 62.1 L 143.5 41.7 L 140.1 41.7 L 140.1 62.1 L 143.5 62.1 L 143.5 65.5 L 157.1 65.5 Z M 160.5 41.7 L 157.1 41.7 L 157.1 38.3 L 143.5 38.3 L 143.5 41.7 L 157.1 41.7 L 157.1 45.1 L 160.5 45.1 Z M 160.5 58.7 L 157.1 58.7 L 157.1 62.1 L 160.5 62.1 Z" fill="white"/>
      <path d="M 170.7 51.9 L 174.1 51.9 L 174.1 58.7 L 177.5 58.7 L 177.5 65.5 L 180.9 65.5 L 180.9 58.7 L 177.5 58.7 L 177.5 51.9 L 174.1 51.9 L 174.1 45.1 L 170.7 45.1 L 170.7 38.3 L 167.3 38.3 L 167.3 45.1 L 170.7 45.1 Z M 184.3 51.9 L 180.9 51.9 L 180.9 58.7 L 184.3 58.7 Z M 187.7 45.1 L 184.3 45.1 L 184.3 51.9 L 187.7 51.9 Z M 191.1 38.3 L 187.7 38.3 L 187.7 45.1 L 191.1 45.1 Z" fill="white"/>
      <path d="M 221.5 279.9 L 218.1 279.9 L 218.1 276.5 L 211.3 276.5 L 211.3 269.7 L 207.9 269.7 L 207.9 276.5 L 211.3 276.5 L 211.3 279.9 L 218.1 279.9 L 218.1 283.3 L 221.5 283.3 L 221.5 290.1 L 224.9 290.1 L 224.9 283.3 L 221.5 283.3 Z M 224.9 269.7 L 221.5 269.7 L 221.5 266.3 L 211.3 266.3 L 211.3 269.7 L 221.5 269.7 L 221.5 273.1 L 224.9 273.1 Z M 211.3 286.7 L 207.9 286.7 L 207.9 290.1 L 211.3 290.1 L 211.3 293.5 L 221.5 293.5 L 221.5 290.1 L 211.3 290.1 Z" fill="white"/>
      <path d="M 231.7 300.3 L 235.1 300.3 L 235.1 290.1 L 238.5 290.1 L 238.5 293.5 L 245.3 293.5 L 245.3 290.1 L 238.5 290.1 L 238.5 286.7 L 235.1 286.7 L 235.1 279.9 L 238.5 279.9 L 238.5 276.5 L 235.1 276.5 L 235.1 273.1 L 231.7 273.1 Z M 238.5 276.5 L 245.3 276.5 L 245.3 290.1 L 248.7 290.1 L 248.7 276.5 L 245.3 276.5 L 245.3 273.1 L 238.5 273.1 Z" fill="white"/>
      <path d="M 255.5 290.1 L 258.9 290.1 L 258.9 293.5 L 269.1 293.5 L 269.1 290.1 L 258.9 290.1 L 258.9 276.5 L 255.5 276.5 Z M 258.9 276.5 L 269.1 276.5 L 269.1 290.1 L 272.5 290.1 L 272.5 276.5 L 269.1 276.5 L 269.1 273.1 L 258.9 273.1 Z" fill="white"/>
      <path d="M 282.7 279.9 L 286.1 279.9 L 286.1 276.5 L 282.7 276.5 L 282.7 273.1 L 279.3 273.1 L 279.3 293.5 L 282.7 293.5 Z M 292.9 293.5 L 296.3 293.5 L 296.3 276.5 L 292.9 276.5 L 292.9 273.1 L 286.1 273.1 L 286.1 276.5 L 292.9 276.5 Z" fill="white"/>
      <path d="M 306.5 283.3 L 313.3 283.3 L 313.3 286.7 L 316.7 286.7 L 316.7 290.1 L 320.1 290.1 L 320.1 286.7 L 316.7 286.7 L 316.7 283.3 L 313.3 283.3 L 313.3 279.9 L 306.5 279.9 L 306.5 276.5 L 303.1 276.5 L 303.1 279.9 L 306.5 279.9 Z M 320.1 276.5 L 316.7 276.5 L 316.7 273.1 L 306.5 273.1 L 306.5 276.5 L 316.7 276.5 L 316.7 279.9 L 320.1 279.9 Z M 303.1 290.1 L 306.5 290.1 L 306.5 293.5 L 316.7 293.5 L 316.7 290.1 L 306.5 290.1 L 306.5 286.7 L 303.1 286.7 Z" fill="white"/>
      <path d="M 326.9 290.1 L 330.3 290.1 L 330.3 293.5 L 340.5 293.5 L 340.5 290.1 L 330.3 290.1 L 330.3 276.5 L 326.9 276.5 Z M 330.3 276.5 L 340.5 276.5 L 340.5 290.1 L 343.9 290.1 L 343.9 276.5 L 340.5 276.5 L 340.5 273.1 L 330.3 273.1 Z" fill="white"/>
      <path d="M 350.7 293.5 L 354.1 293.5 L 354.1 276.5 L 360.9 276.5 L 360.9 273.1 L 350.7 273.1 Z" fill="white"/>
      <path d="M 367.7 283.3 L 374.5 283.3 L 374.5 286.7 L 377.9 286.7 L 377.9 290.1 L 381.3 290.1 L 381.3 286.7 L 377.9 286.7 L 377.9 283.3 L 374.5 283.3 L 374.5 279.9 L 367.7 279.9 L 367.7 276.5 L 364.3 276.5 L 364.3 279.9 L 367.7 279.9 Z M 381.3 276.5 L 377.9 276.5 L 377.9 273.1 L 367.7 273.1 L 367.7 276.5 L 377.9 276.5 L 377.9 279.9 L 381.3 279.9 Z M 364.3 290.1 L 367.7 290.1 L 367.7 293.5 L 377.9 293.5 L 377.9 290.1 L 367.7 290.1 L 367.7 286.7 L 364.3 286.7 Z" fill="white"/>
      <path d="M 524.8 279.9 L 538.4 279.9 L 538.4 276.5 L 524.8 276.5 L 524.8 269.7 L 538.4 269.7 L 538.4 266.3 L 521.4 266.3 L 521.4 293.5 L 524.8 293.5 Z" fill="white"/>
      <path d="M 545.2 290.1 L 548.6 290.1 L 548.6 293.5 L 558.8 293.5 L 558.8 290.1 L 548.6 290.1 L 548.6 276.5 L 545.2 276.5 Z M 548.6 276.5 L 558.8 276.5 L 558.8 290.1 L 562.2 290.1 L 562.2 276.5 L 558.8 276.5 L 558.8 273.1 L 548.6 273.1 Z" fill="white"/>
      <path d="M 569 290.1 L 572.4 290.1 L 572.4 293.5 L 582.6 293.5 L 582.6 290.1 L 572.4 290.1 L 572.4 276.5 L 569 276.5 Z M 572.4 276.5 L 582.6 276.5 L 582.6 290.1 L 586 290.1 L 586 276.5 L 582.6 276.5 L 582.6 273.1 L 572.4 273.1 Z" fill="white"/>
      <path d="M 609.8 266.3 L 606.4 266.3 L 606.4 276.5 L 603 276.5 L 603 273.1 L 596.2 273.1 L 596.2 276.5 L 603 276.5 L 603 279.9 L 606.4 279.9 L 606.4 286.7 L 603 286.7 L 603 290.1 L 606.4 290.1 L 606.4 293.5 L 609.8 293.5 Z M 603 290.1 L 596.2 290.1 L 596.2 276.5 L 592.8 276.5 L 592.8 290.1 L 596.2 290.1 L 596.2 293.5 L 603 293.5 Z" fill="white"/>
      <path d="M 384 58.7 L 387.4 58.7 L 387.4 65.5 L 390.8 65.5 L 390.8 58.7 L 387.4 58.7 L 387.4 48.5 L 384 48.5 L 384 38.3 L 380.6 38.3 L 380.6 48.5 L 384 48.5 Z M 397.6 58.7 L 401 58.7 L 401 65.5 L 404.4 65.5 L 404.4 58.7 L 401 58.7 L 401 48.5 L 397.6 48.5 L 397.6 38.3 L 394.2 38.3 L 394.2 48.5 L 397.6 48.5 Z M 411.2 38.3 L 407.8 38.3 L 407.8 48.5 L 411.2 48.5 Z M 394.2 48.5 L 390.8 48.5 L 390.8 58.7 L 394.2 58.7 Z M 407.8 48.5 L 404.4 48.5 L 404.4 58.7 L 407.8 58.7 Z" fill="white"/>
      <path d="M 414.6 62.1 L 418 62.1 L 418 65.5 L 428.2 65.5 L 428.2 62.1 L 418 62.1 L 418 48.5 L 414.6 48.5 Z M 418 48.5 L 428.2 48.5 L 428.2 62.1 L 431.6 62.1 L 431.6 48.5 L 428.2 48.5 L 428.2 45.1 L 418 45.1 Z" fill="white"/>
      <path d="M 438.4 65.5 L 441.8 65.5 L 441.8 48.5 L 448.6 48.5 L 448.6 45.1 L 438.4 45.1 Z" fill="white"/>
      <path d="M 455.4 58.7 L 458.8 58.7 L 458.8 62.1 L 462.2 62.1 L 462.2 65.5 L 465.6 65.5 L 465.6 62.1 L 462.2 62.1 L 462.2 58.7 L 458.8 58.7 L 458.8 51.9 L 455.4 51.9 L 455.4 38.3 L 452 38.3 L 452 65.5 L 455.4 65.5 Z M 458.8 51.9 L 462.2 51.9 L 462.2 48.5 L 458.8 48.5 Z M 462.2 48.5 L 465.6 48.5 L 465.6 45.1 L 462.2 45.1 Z" fill="white"/>
      <path d="M 475.8 55.3 L 482.6 55.3 L 482.6 58.7 L 486 58.7 L 486 62.1 L 489.4 62.1 L 489.4 58.7 L 486 58.7 L 486 55.3 L 482.6 55.3 L 482.6 51.9 L 475.8 51.9 L 475.8 48.5 L 472.4 48.5 L 472.4 51.9 L 475.8 51.9 Z M 489.4 48.5 L 486 48.5 L 486 45.1 L 475.8 45.1 L 475.8 48.5 L 486 48.5 L 486 51.9 L 489.4 51.9 Z M 472.4 62.1 L 475.8 62.1 L 475.8 65.5 L 486 65.5 L 486 62.1 L 475.8 62.1 L 475.8 58.7 L 472.4 58.7 Z" fill="white"/>
      <path d="M 499.6 51.9 L 503 51.9 L 503 48.5 L 499.6 48.5 L 499.6 38.3 L 496.2 38.3 L 496.2 65.5 L 499.6 65.5 Z M 509.8 65.5 L 513.2 65.5 L 513.2 48.5 L 509.8 48.5 L 509.8 45.1 L 503 45.1 L 503 48.5 L 509.8 48.5 Z" fill="white"/>
      <path d="M 520 62.1 L 523.4 62.1 L 523.4 65.5 L 533.6 65.5 L 533.6 62.1 L 523.4 62.1 L 523.4 48.5 L 520 48.5 Z M 523.4 48.5 L 533.6 48.5 L 533.6 62.1 L 537 62.1 L 537 48.5 L 533.6 48.5 L 533.6 45.1 L 523.4 45.1 Z" fill="white"/>
      <path d="M 543.8 72.3 L 547.2 72.3 L 547.2 62.1 L 550.6 62.1 L 550.6 65.5 L 557.4 65.5 L 557.4 62.1 L 550.6 62.1 L 550.6 58.7 L 547.2 58.7 L 547.2 51.9 L 550.6 51.9 L 550.6 48.5 L 547.2 48.5 L 547.2 45.1 L 543.8 45.1 Z M 550.6 48.5 L 557.4 48.5 L 557.4 62.1 L 560.8 62.1 L 560.8 48.5 L 557.4 48.5 L 557.4 45.1 L 550.6 45.1 Z" fill="white"/>
      <path d="M 571 55.3 L 577.8 55.3 L 577.8 58.7 L 581.2 58.7 L 581.2 62.1 L 584.6 62.1 L 584.6 58.7 L 581.2 58.7 L 581.2 55.3 L 577.8 55.3 L 577.8 51.9 L 571 51.9 L 571 48.5 L 567.6 48.5 L 567.6 51.9 L 571 51.9 Z M 584.6 48.5 L 581.2 48.5 L 581.2 45.1 L 571 45.1 L 571 48.5 L 581.2 48.5 L 581.2 51.9 L 584.6 51.9 Z M 567.6 62.1 L 571 62.1 L 571 65.5 L 581.2 65.5 L 581.2 62.1 L 571 62.1 L 571 58.7 L 567.6 58.7 Z" fill="white"/>
      <path d="M 608.4 48.5 L 608.4 55.3 L 601.6 55.3 L 601.6 58.7 L 608.4 58.7 L 608.4 65.5 L 611.8 65.5 L 611.8 58.7 L 618.6 58.7 L 618.6 55.3 L 611.8 55.3 L 611.8 48.5 Z" fill="white"/>
      <path d="M 428.2 98.7 L 445.2 98.7 L 445.2 105.5 L 448.6 105.5 L 448.6 98.7 L 445.2 98.7 L 445.2 91.9 L 441.8 91.9 L 441.8 85.1 L 438.4 85.1 L 438.4 78.3 L 435 78.3 L 435 85.1 L 438.4 85.1 L 438.4 91.9 L 441.8 91.9 L 441.8 95.3 L 431.6 95.3 L 431.6 91.9 L 428.2 91.9 Z M 424.8 105.5 L 428.2 105.5 L 428.2 98.7 L 424.8 98.7 Z M 431.6 91.9 L 435 91.9 L 435 85.1 L 431.6 85.1 Z" fill="white"/>
      <path d="M 458.8 95.3 L 469 95.3 L 469 91.9 L 458.8 91.9 L 458.8 81.7 L 469 81.7 L 469 91.9 L 472.4 91.9 L 472.4 81.7 L 469 81.7 L 469 78.3 L 455.4 78.3 L 455.4 105.5 L 458.8 105.5 Z" fill="white"/>
      <rect x="479.2" y="78.3" width="3.4" height="27.2" fill="white"/>
      <path d="M 516.6 78.3 L 513.2 78.3 L 513.2 88.5 L 509.8 88.5 L 509.8 85.1 L 503 85.1 L 503 88.5 L 509.8 88.5 L 509.8 91.9 L 513.2 91.9 L 513.2 98.7 L 509.8 98.7 L 509.8 102.1 L 513.2 102.1 L 513.2 105.5 L 516.6 105.5 Z M 509.8 102.1 L 503 102.1 L 503 88.5 L 499.6 88.5 L 499.6 102.1 L 503 102.1 L 503 105.5 L 509.8 105.5 Z" fill="white"/>
      <path d="M 540.4 88.5 L 537 88.5 L 537 85.1 L 526.8 85.1 L 526.8 88.5 L 537 88.5 L 537 91.9 L 526.8 91.9 L 526.8 88.5 L 523.4 88.5 L 523.4 102.1 L 526.8 102.1 L 526.8 105.5 L 537 105.5 L 537 102.1 L 526.8 102.1 L 526.8 95.3 L 540.4 95.3 Z M 540.4 98.7 L 537 98.7 L 537 102.1 L 540.4 102.1 Z" fill="white"/>
      <path d="M 550.6 91.9 L 554 91.9 L 554 88.5 L 550.6 88.5 L 550.6 85.1 L 547.2 85.1 L 547.2 105.5 L 550.6 105.5 Z M 557.4 105.5 L 560.8 105.5 L 560.8 91.9 L 564.2 91.9 L 564.2 88.5 L 557.4 88.5 L 557.4 85.1 L 554 85.1 L 554 88.5 L 557.4 88.5 Z M 571 88.5 L 567.6 88.5 L 567.6 85.1 L 564.2 85.1 L 564.2 88.5 L 567.6 88.5 L 567.6 105.5 L 571 105.5 Z" fill="white"/>
      <path d="M 577.8 102.1 L 581.2 102.1 L 581.2 105.5 L 591.4 105.5 L 591.4 102.1 L 581.2 102.1 L 581.2 88.5 L 577.8 88.5 Z M 581.2 88.5 L 591.4 88.5 L 591.4 102.1 L 594.8 102.1 L 594.8 88.5 L 591.4 88.5 L 591.4 85.1 L 581.2 85.1 Z" fill="white"/>
      <path d="M 605 95.3 L 611.8 95.3 L 611.8 98.7 L 615.2 98.7 L 615.2 102.1 L 618.6 102.1 L 618.6 98.7 L 615.2 98.7 L 615.2 95.3 L 611.8 95.3 L 611.8 91.9 L 605 91.9 L 605 88.5 L 601.6 88.5 L 601.6 91.9 L 605 91.9 Z M 618.6 88.5 L 615.2 88.5 L 615.2 85.1 L 605 85.1 L 605 88.5 L 615.2 88.5 L 615.2 91.9 L 618.6 91.9 Z M 601.6 102.1 L 605 102.1 L 605 105.5 L 615.2 105.5 L 615.2 102.1 L 605 102.1 L 605 98.7 L 601.6 98.7 Z" fill="white"/>
      <path d="M 28.5 28.5 L 25.90909 28.5 L 25.90909 33.68182 L 20.727273 33.68182 L 20.727273 38.863636 L 15.545455 38.863636 L 15.545455 44.045455 L 10.363636 44.045455 L 10.363636 49.22727 L 5.181818 49.22727 L 5.181818 54.40909 L 0 54.40909 L 0 57 L 7.772727 57 L 7.772727 51.81818 L 12.954545 51.81818 L 12.954545 46.636364 L 18.136364 46.636364 L 18.136364 41.454545 L 23.318182 41.454545 L 23.318182 36.272727 L 28.5 36.272727 Z" fill="white"/>
      <path d="M 10.363636 44.045455 L 10.363636 41.454545 L 5.181818 41.454545 L 5.181818 38.863636 L 2.590909 38.863636 L 2.590909 33.68182 L 0 33.68182 L 35527137e-22 44.045455 Z M 15.545455 28.5 L 12.954545 28.5 L 12.954545 31.09091 L 15.545455 31.09091 Z M 10.363636 33.68182 L 12.954545 33.68182 L 12.954545 31.09091 L 10.363636 31.09091 Z M 7.772727 36.272727 L 10.363636 36.272727 L 10.363636 33.68182 L 7.772727 33.68182 Z M 5.181818 38.863636 L 7.772727 38.863636 L 7.772727 36.272727 L 5.181818 36.272727 Z" fill="white"/>
      <path d="M 25.4 106.84995 L 25.4 103.44995 L 15.2 103.44995 L 15.2 100.04995 L 11.8 100.04995 L 11.8 89.84995 L 8.4 89.84995 L 8.4 106.84995 Z M 32.2 83.04995 L 28.8 83.04995 L 28.8 86.44995 L 32.2 86.44995 Z M 28.8 86.44995 L 25.4 86.44995 L 25.4 89.84995 L 28.8 89.84995 Z M 22 93.24995 L 25.4 93.24995 L 25.4 89.84995 L 22 89.84995 Z M 18.6 96.64995 L 22 96.64995 L 22 93.24995 L 18.6 93.24995 Z M 15.2 100.04995 L 18.6 100.04995 L 18.6 96.64995 L 15.2 96.64995 Z" fill="white"/>
      <path d="M 18.6 126.44997 L 15.2 126.44997 L 15.2 119.64997 L 11.8 119.64997 L 11.8 126.44997 L 8.4 126.44997 L 8.4 129.84997 L 11.8 129.84997 L 11.8 146.84997 L 18.6 146.84997 L 18.6 143.44997 L 15.2 143.44997 L 15.2 129.84997 L 18.6 129.84997 Z" fill="white"/>
      <path d="M 25.4 143.44997 L 28.8 143.44997 L 28.8 146.84997 L 39 146.84997 L 39 143.44997 L 28.8 143.44997 L 28.8 129.84997 L 25.4 129.84997 Z M 28.8 129.84997 L 39 129.84997 L 39 143.44997 L 42.4 143.44997 L 42.4 129.84997 L 39 129.84997 L 39 126.44997 L 28.8 126.44997 Z" fill="white"/>
      <path d="M 25.4 183.44998 L 11.8 183.44998 L 11.8 163.04998 L 8.4 163.04998 L 8.4 183.44998 L 11.8 183.44998 L 11.8 186.84998 L 25.4 186.84998 Z M 28.8 163.04998 L 25.4 163.04998 L 25.4 159.64998 L 11.8 159.64998 L 11.8 163.04998 L 25.4 163.04998 L 25.4 166.44998 L 28.8 166.44998 Z M 28.8 180.04998 L 25.4 180.04998 L 25.4 183.44998 L 28.8 183.44998 Z" fill="white"/>
      <path d="M 35.6 183.44998 L 39 183.44998 L 39 186.84998 L 49.2 186.84998 L 49.2 183.44998 L 39 183.44998 L 39 169.84998 L 35.6 169.84998 Z M 39 169.84998 L 49.2 169.84998 L 49.2 183.44998 L 52.6 183.44998 L 52.6 169.84998 L 49.2 169.84998 L 49.2 166.44998 L 39 166.44998 Z" fill="white"/>
      <path d="M 59.4 186.84998 L 62.8 186.84998 L 62.8 169.84998 L 69.6 169.84998 L 69.6 166.44998 L 59.4 166.44998 Z" fill="white"/>
      <path d="M 76.4 173.24998 L 79.8 173.24998 L 79.8 169.84998 L 76.4 169.84998 L 76.4 166.44998 L 73 166.44998 L 73 186.84998 L 76.4 186.84998 Z M 86.6 186.84998 L 90 186.84998 L 90 169.84998 L 86.6 169.84998 L 86.6 166.44998 L 79.8 166.44998 L 79.8 169.84998 L 86.6 169.84998 Z" fill="white"/>
      <path d="M 100.2 173.24998 L 113.8 173.24998 L 113.8 169.84998 L 100.2 169.84998 L 100.2 163.04998 L 113.8 163.04998 L 113.8 159.64998 L 96.8 159.64998 L 96.8 186.84998 L 113.8 186.84998 L 113.8 183.44998 L 100.2 183.44998 Z" fill="white"/>
      <path d="M 124 180.04998 L 130.8 180.04998 L 130.8 186.84998 L 134.2 186.84998 L 134.2 180.04998 L 130.8 180.04998 L 130.8 173.24998 L 124 173.24998 L 124 166.44998 L 120.6 166.44998 L 120.6 173.24998 L 124 173.24998 Z M 120.6 186.84998 L 124 186.84998 L 124 180.04998 L 120.6 180.04998 Z M 134.2 166.44998 L 130.8 166.44998 L 130.8 173.24998 L 134.2 173.24998 Z" fill="white"/>
    </g>
  </g>
</svg>
