<svg xmlns="http://www.w3.org/2000/svg" preserveAspectRatio="xMinYMin" viewBox="12 7 376 100" width="114pt">
  <g fill="none">
    <path d="M12.8 92c.1-.3.2-.7.3-1 .6-4.5 3-7.7 7.1-9.6 2.4-1.2 5-1.8 7.7-2.1 2.1-.3 4.3-.3 6.4-.3h4.3c.1-.1.1-.1.1-.2.1-1.4.1-2.9-.2-4.3-.6-2.7-2.2-4.1-5-4.5-1-.1-2.1-.1-3.1.1-2.4.6-3.8 2.1-4.4 4.5-.1.3-.1.5-.2.9H14.3c-.1-.6.1-1.2.2-1.8 1.1-5.4 4.3-8.9 9.3-10.9 3-1.2 6.1-1.5 9.3-1.5 2.8 0 5.5.3 8.1 1.2 1.6.5 3.1 1.3 4.5 2.4 2.8 2.2 4.3 5 4.8 8.4.2 1.2.3 2.4.3 3.7v28.4H39v-4.7l-.4.4c-2.2 2.9-5.2 4.5-8.8 5.1l-2.4.3H27c-.3 0-.6-.1-.9-.1-1.4-.1-2.7-.3-4-.6-5-1.5-8.1-4.7-8.8-10 0-.3-.2-.6-.3-.9-.2-1.1-.2-2-.2-2.9zm25.9-5.1h-1.6c-2 .1-4.1.1-6.1.2-1.3.1-2.6.4-3.8 1.1-1.2.7-2 1.7-2.2 3.1-.1.6-.1 1.3-.1 1.9.1 2.2 1.3 3.8 3.5 4.3 2.3.6 4.6.4 6.8-.7 1.9-1 3.2-2.6 3.4-4.8.1-1.6.1-3.3.1-5.1zm129.2 19.5c-.5 0-.9-.1-1.4-.1-2.9-.2-5.8-.8-8.5-2-4.9-2.3-8-6.2-9.6-11.3-.7-2.2-1-4.4-1.1-6.7-.2-3.5 0-7 1-10.4 1.2-4.1 3.3-7.7 6.7-10.4 2.8-2.2 6-3.5 9.5-3.9 3.7-.5 7.3-.3 10.9.9 6.3 2.1 10 6.5 11.5 12.9.5 2 .6 4.1.7 6.2v4.6c0 .2 0 .4-.1.7h-28c.1.6.1 1.1.1 1.5.2 1.3.4 2.6.9 3.8 1.3 3.3 3.7 5.1 7.2 5.3 1.2.1 2.4 0 3.6-.4 2.3-.7 3.9-2.2 4.7-4.4.1-.2.2-.5.3-.7l.1-.1h11c0 .3-.1.6-.1.8-1.3 6-4.9 9.9-10.6 12.1-2.2.9-4.6 1.3-6.9 1.4-.4 0-.8.1-1.2.1-.2.1-.5.1-.7.1zm-8.2-27.7c1 .2 15.6.1 16.1-.1-.1-1.9-.4-3.8-1.3-5.5-.9-1.7-2.3-2.8-4.2-3.2-.5-.1-1-.2-1.5-.2-2.2-.2-4.3.2-6 1.8-2 2-2.7 4.6-3.1 7.2zm207.9 27.7c-.5 0-1-.1-1.5-.1-2.8-.2-5.5-.7-8.1-1.9-5-2.3-8.2-6.1-9.9-11.3-1.3-3.9-1.4-8-1.1-12.1.2-2.9.8-5.7 2-8.3 2.9-6.3 7.8-10 14.6-11.1 3.4-.6 6.8-.4 10.1.4 6.8 1.8 11 6.1 12.7 12.8.4 1.5.6 3 .7 4.6 0 .2.1.5.1.7v6.6h-28.1c.1.8.1 1.4.2 2.1.3 1.8.7 3.5 1.6 5 .9 1.5 2.2 2.6 3.9 3.2 1.7.5 3.4.6 5.1.3 2.9-.5 4.9-2.1 5.8-4.9.1-.2.1-.4.2-.5 1.1-.2 10.5-.1 11 .1v.7c0 .2-.1.3-.1.5-1.2 5-4.2 8.7-8.8 11-2.7 1.3-5.5 1.9-8.4 2.1-.5 0-1 .1-1.5.1h-.5zm7.8-27.6c-.1-2-.4-3.9-1.3-5.6-.9-1.6-2.3-2.7-4.1-3.1l-1.5-.3c-3.4-.3-6.2 1-7.8 4.2-.7 1.4-1.1 2.8-1.3 4.3v.4c5.4.1 10.7.1 16 .1zm-90.9 27.6c-.3 0-.6-.1-.9-.1-1.3-.1-2.6-.3-3.8-.7-4.2-1.4-6.6-4.4-7.8-8.6-.5-1.7-.7-3.4-.7-5.2V62.3h12.1v27c0 1.1 0 2.2.3 3.3.6 2.5 2.3 4 4.9 4.2 1.1.1 2.2.1 3.3-.2 2.9-.8 4.6-2.7 5.1-5.6.1-.7.2-1.4.2-2.2V62.3c.6-.2 10.9-.2 12-.1v43c-.5.2-10.8.2-12 .1v-2.9c0-1 0-1.9-.1-2.9-.1.2-.2.4-.3.5-2.1 3.5-5.3 5.5-9.3 6.1-.6.1-1.2.1-1.9.2-.2 0-.4.1-.7.1h-.4zm-206.7 0c-.5 0-.9-.1-1.4-.1-3-.2-5.9-.8-8.6-2.2-4.7-2.4-7.6-6.3-9.1-11.2-1.1-3.5-1.3-7.2-1.1-10.9.2-2.8.6-5.6 1.7-8.2 2.8-6.8 7.9-10.8 15.1-12 3.9-.7 7.8-.4 11.6.9 5.8 2 9.3 6.1 10.7 12 .2.8.3 1.7.4 2.5v.5H85.6c-.1-.3-.2-.7-.3-1-.2-.7-.4-1.3-.7-2-1.3-2.9-3.8-4.1-6.9-3.9-3 .3-5 1.8-6.3 4.5-.9 1.7-1.3 3.6-1.4 5.5-.2 2.9-.2 5.7.3 8.6.2 1.2.5 2.4 1.1 3.5 1.5 3.3 4.4 4.8 8 4.5 3.3-.3 5.4-2.3 6.5-5.3.3-.8.5-1.6.7-2.4h10.9c.1.7-.1 1.3-.2 1.9-.7 4-2.3 7.5-5.3 10.2-2.4 2.2-5.2 3.5-8.4 4.1-1.4.3-2.9.3-4.3.5-.2 0-.4.1-.7.1-.4-.1-.6-.1-.8-.1zm44.9 0c-.5 0-.9-.1-1.4-.1-3.2-.2-6.3-.9-9.1-2.5-4.3-2.3-7-5.9-8.5-10.5-.8-2.4-1.2-4.8-1.3-7.3-.2-3.5 0-6.9 1-10.2 1.4-4.9 4.1-8.9 8.6-11.6 2.7-1.6 5.6-2.5 8.7-2.8 3.5-.3 7-.1 10.3 1.1 5.7 2 9.2 6.1 10.6 12 .2.8.3 1.6.4 2.4v.5h-11.5l-.3-.9c-.2-.7-.4-1.3-.7-2-1.3-2.9-3.7-4.2-6.9-3.9-2.9.2-5 1.7-6.3 4.3-.9 1.8-1.4 3.7-1.5 5.7-.2 2.9-.2 5.7.3 8.6.2 1.2.6 2.4 1.1 3.6 1.6 3.3 4.4 4.7 7.9 4.4 3.1-.3 5.2-2.1 6.4-4.9.4-.9.6-1.8.9-2.8h10.9c-.1.7-.1 1.3-.2 1.9-.7 4.1-2.4 7.7-5.6 10.5-2.6 2.2-5.6 3.5-8.9 4.1-1.2.2-2.3.2-3.5.4-.2 0-.4.1-.7.1-.3-.1-.5-.1-.7-.1z" fill="#000"/>
    <path d="M231.2 7.6c.3.1.5.3.8.4 11.7 4.7 23.5 9.5 35.2 14.2.8.3.7.2.7 1.1v8.5c-12.3 5-24.6 9.9-36.9 14.9V35.2c7.1-2.6 14.2-5.3 21.3-7.9v-.2c-7.1-2.8-14.2-5.5-21.3-8.3V7.6h.2z" fill="#a13"/>
    <path d="M195 62.3h12v6h.1c.1-.2.3-.4.4-.6 2.3-3.6 5.7-5.5 9.8-6.2 2.1-.3 4.2-.3 6.3.2 4.1.9 6.8 3.4 8.2 7.3.8 2.3 1.2 4.6 1.2 7v29.3h-12V78.5c0-.9-.1-1.7-.2-2.6-.4-2.8-2-4.3-4.8-4.7-1.3-.2-2.6-.1-3.9.2-2.7.8-4.3 2.7-4.9 5.4-.2.8-.2 1.6-.2 2.5v26c-.6.2-11.1.2-12 .1V62.3zm48.5 8.9h-5v-9h4.9v-8.1c4-1.6 8-3.3 12.1-4.9.2.3.1.6.1.9v12.2h8.1c.2.6.2 7.8.1 9h-8.2v20.4c0 .6.1 1.3.2 1.9.4 1.8 1.6 2.8 3.5 2.9 1.5.1 2.9 0 4.4-.5.1 0 .2-.1.4-.1v9.4c-.4.1-.8.2-1.3.3-3.7.8-7.4.9-11-.1-2.8-.7-5-2.1-6.5-4.7-1-1.7-1.5-3.5-1.6-5.4-.1-1-.1-2.1-.1-3.1V72.4c-.1-.5-.1-.8-.1-1.2zm86.8-1.4c2.5-5.5 6.7-8.2 12.8-8.1v11.8c-.3 0-.7.1-1 .1-1.9 0-3.8.2-5.6.8-.5.2-1.1.4-1.6.6-2.6 1.2-4.1 3.3-4.5 6.1-.1.9-.2 1.8-.2 2.7v21.6h-12V62.3h12v7.4s.1 0 .1.1z" fill="#000"/>
  </g>
</svg>