<?xml version="1.0" encoding="UTF-8" standalone="no"?>
<!DOCTYPE svg PUBLIC "-//W3C//DTD SVG 1.1//EN" "http://www.w3.org/Graphics/SVG/1.1/DTD/svg11.dtd">
<svg xmlns="http://www.w3.org/2000/svg" xmlns:xl="http://www.w3.org/1999/xlink" version="1.1" preserveAspectRatio="xMinYMin" viewBox="0 0 163 26" width="163pt" height="26pt" xmlns:dc="http://purl.org/dc/elements/1.1/">
  <metadata> Produced by OmniGraffle 7.5 
    <dc:date>2017-12-02 15:41:28 +0000</dc:date>
  </metadata>
  <defs/>
  <g>
    <title>Canvas 1</title>
    <g>
      <title>Layer 1</title>
      <path d="M 35.2 25.4 L 19.8 1.2 C 18.9 -.4 16.3 -.4 15.3 1.3 L 35527137e-22 25.4 L 5 25.4 L 9.6 18.1 L 19.4 18.1 L 22 13.9 L 12.2 13.9 L 17.6 5.5 L 30.1 25.4 L 35.2 25.4 Z" fill="#183d64"/>
      <path d="M 162.9 25.4 L 147.5 1.2 C 146.6 -.4 144 -.4 143 1.3 L 127.7 25.5 L 132.7 25.5 L 137.3 18.2 L 147.1 18.2 L 149.7 14 L 140 14 L 145.4 5.6 L 157.9 25.5 L 162.9 25.5 Z" fill="#183d64"/>
      <path d="M 57.7 15.1 C 61.9 15.1 65.2 11.7 65.2 7.6 C 65.2 3.4 61.8 .1 57.7 .1 L 37 17763568e-22 L 37 25.4 L 41.7 25.4 L 41.7 4.1 L 57.8 4.1 C 59.7 4.1 61.2 5.6 61.2 7.5 C 61.2 9.4 59.7 10.9 57.8 10.9 L 44.5 10.9 L 59.5 25.3 L 65.5 25.3 L 54.7 15.1 Z" fill="#183d64"/>
      <path d="M 110.7 17763568e-22 L 108 4.1 L 119.3 4.1 L 119.3 25.4 L 123.9 25.4 L 123.9 4.1 L 133.9 4.1 L 133.9 17763568e-22 Z" fill="#183d64"/>
      <path d="M 100 10.7 L 86.7 10.7 C 84.9 10.7 83.5 9.3 83.5 7.5 C 83.5 5.7 84.9 4.3 86.7 4.3 L 103.2 4.3 L 105.8 .1 L 86.7 0 C 82.6 0 79.3 3.3 79.3 7.4 C 79.3 11.5 82.6 14.8 86.7 14.8 L 100 14.8 C 101.8 14.8 103.2 16.2 103.2 18 C 103.2 19.8 101.8 21.2 100 21.2 L 82.6 21.2 L 80 25.4 L 100 25.4 C 104.1 25.4 107.4 22.1 107.4 18 C 107.4 13.9 104.1 10.7 100 10.7" fill="#183d64"/>
      <rect x="70.1" y=".1" width="4.7" height="25.3" fill="#183d64"/>
    </g>
  </g>
</svg>
