<svg xmlns="http://www.w3.org/2000/svg" preserveAspectRatio="xMinYMin" viewBox="0 0 163 26" width="114pt">
  <path d="M35.2 25.4L19.8 1.2c-.9-1.6-3.5-1.6-4.5.1L0 25.4h5l4.6-7.3h9.8l2.6-4.2h-9.8l5.4-8.4 12.5 19.9h5.1zM162.9 25.4L147.5 1.2c-.9-1.6-3.5-1.6-4.5.1l-15.3 24.2h5l4.6-7.3h9.8l2.6-4.2H140l5.4-8.4 12.5 19.9h5zM57.7 15.1c4.2 0 7.5-3.4 7.5-7.5 0-4.2-3.4-7.5-7.5-7.5L37 0v25.4h4.7V4.1h16.1c1.9 0 3.4 1.5 3.4 3.4s-1.5 3.4-3.4 3.4H44.5l15 14.4h6L54.7 15.1zM110.7 0L108 4.1h11.3v21.3h4.6V4.1h10V0zM100 10.7H86.7c-1.8 0-3.2-1.4-3.2-3.2 0-1.8 1.4-3.2 3.2-3.2h16.5l2.6-4.2L86.7 0c-4.1 0-7.4 3.3-7.4 7.4 0 4.1 3.3 7.4 7.4 7.4H100c1.8 0 3.2 1.4 3.2 3.2 0 1.8-1.4 3.2-3.2 3.2H82.6L80 25.4h20c4.1 0 7.4-3.3 7.4-7.4 0-4.1-3.3-7.3-7.4-7.3M70.1.1h4.7v25.3h-4.7z" fill="#183d64"/>
</svg>