<?xml version="1.0" encoding="UTF-8" standalone="no"?>
<!DOCTYPE svg PUBLIC "-//W3C//DTD SVG 1.1//EN" "http://www.w3.org/Graphics/SVG/1.1/DTD/svg11.dtd">
<svg xmlns="http://www.w3.org/2000/svg" xmlns:xl="http://www.w3.org/1999/xlink" version="1.1" preserveAspectRatio="xMinYMin" viewBox="278 269 237 73" width="237pt" height="73pt" xmlns:dc="http://purl.org/dc/elements/1.1/">
  <metadata> Produced by OmniGraffle 7.5 
    <dc:date>2017-12-05 13:20:59 +0000</dc:date>
  </metadata>
  <defs/>
  <g>
    <title>Canvas 1</title>
    <g>
      <title>Layer 1</title>
      <path d="M 331.4 271.8 L 347.3 271.8 L 347.3 339.9 L 331.4 339.9 L 331.4 332.8 C 324.4 340.9 315.9 342 311 342 C 290 342 278 324.5 278 305.8 C 278 283.6 293.2 270 311.2 270 C 316.2 270 325 271.3 331.4 279.7 Z M 294.2 306.1 C 294.2 317.9 301.6 327.8 313.1 327.8 C 323.1 327.8 332.4 320.5 332.4 306.3 C 332.4 291.4 323.2 284.3 313.1 284.3 C 301.6 284.3 294.2 294 294.2 306.1 Z M 366.1 271.8 L 382 271.8 L 382 277.9 C 383.8 275.8 386.4 273.5 388.6 272.2 C 391.7 270.4 394.7 269.9 398.3 269.9 C 402.2 269.9 406.4 270.5 410.8 273.1 L 404.3 287.5 C 400.7 285.2 397.8 285.1 396.2 285.1 C 392.8 285.1 389.4 285.6 386.3 288.8 C 381.9 293.5 381.9 300 381.9 304.5 L 381.9 339.8 L 366 339.8 L 366 271.8 Z M 421 271.8 L 436.9 271.8 L 436.9 278.1 C 442.2 271.6 448.5 270 453.7 270 C 460.8 270 467.5 273.4 471.3 280 C 477 271.9 485.5 270 491.5 270 C 499.8 270 507 273.9 510.9 280.7 C 512.2 283 514.5 288 514.5 297.9 L 514.5 340 L 498.6 340 L 498.6 302.5 C 498.6 294.9 497.8 291.8 497.1 290.4 C 496.1 287.8 493.7 284.4 488 284.4 C 484.1 284.4 480.7 286.5 478.6 289.4 C 475.8 293.3 475.5 299.1 475.5 304.9 L 475.5 340 L 459.6 340 L 459.6 302.5 C 459.6 294.9 458.8 291.8 458.1 290.4 C 457.1 287.8 454.7 284.4 449 284.4 C 445.1 284.4 441.7 286.5 439.6 289.4 C 436.8 293.3 436.5 299.1 436.5 304.9 L 436.5 340 L 421 340 Z" fill="#0091bd"/>
    </g>
  </g>
</svg>
