<?xml version="1.0" encoding="UTF-8" standalone="no"?>
<!DOCTYPE svg PUBLIC "-//W3C//DTD SVG 1.1//EN" "http://www.w3.org/Graphics/SVG/1.1/DTD/svg11.dtd">
<svg xmlns="http://www.w3.org/2000/svg" xmlns:xl="http://www.w3.org/1999/xlink" version="1.1" preserveAspectRatio="xMinYMin" viewBox="-1 -1 395 124" width="395pt" height="124pt" xmlns:dc="http://purl.org/dc/elements/1.1/">
  <metadata> Produced by OmniGraffle 7.5 
    <dc:date>2017-12-02 15:47:01 +0000</dc:date>
  </metadata>
  <defs/>
   <g>
    <title>Canvas 1</title>
    <g>
      <title>Layer 1</title>
      <path d="M 49.3479 -3e-4 L -1e-4 122.3787 L 32.3009 122.3787 L 41.4509 98.1567 L 96.1819 98.1567 L 106.2309 122.3787 L 139.0729 122.3787 L 84.6989 -3e-4 Z M 67.4699 29.2497 L 87.2129 76.8007 L 49.5299 76.8007 Z" fill="#128cab"/>
      <path d="M 176.6211 50.2423 L 192.7691 50.2423 C 201.2051 50.2423 209.4591 46.6563 209.4591 36.2483 C 209.4591 27.0973 203.5391 22.4303 192.0551 22.4303 L 176.6211 22.4303 Z M 200.8441 3e-4 C 225.9691 3e-4 240.8611 16.8653 240.8611 35.1723 C 240.8611 48.6293 233.8631 58.6783 219.8691 65.1373 C 232.4261 71.4223 236.1971 86.4903 253.4261 122.3793 L 219.8691 122.3793 C 206.7691 96.1803 201.9221 72.6763 185.4141 72.6763 L 176.6211 72.6763 L 176.6211 122.3793 L 146.1171 122.3793 L 146.1171 3e-4 Z" fill="#128cab"/>
      <path d="M 367 1e-4 L 393.555 1e-4 L 393.555 122.3791 L 363.051 122.3791 L 363.051 45.9381 L 330.033 84.3401 L 325.369 84.3401 L 292.35 45.9381 L 292.35 122.3791 L 261.844 122.3791 L 261.844 1e-4 L 288.402 1e-4 L 327.701 45.3981 Z" fill="#128cab"/>
    </g>
  </g>
</svg>
