<?xml version="1.0" encoding="utf-8"?>
<!-- Generator: Adobe Illustrator 16.0.0, SVG Export Plug-In . SVG Version: 6.00 Build 0)  -->
<!DOCTYPE svg PUBLIC "-//W3C//DTD SVG 1.1//EN" "http://www.w3.org/Graphics/SVG/1.1/DTD/svg11.dtd">
<svg version="1.1" id="Layer_1" xmlns="http://www.w3.org/2000/svg" xmlns:xlink="http://www.w3.org/1999/xlink" x="0px" y="0px"
	 width="572.539px" height="249.135px" viewBox="0 0 572.539 249.135" enable-background="new 0 0 572.539 249.135"
	 xml:space="preserve">
<g>
	<path fill-rule="evenodd" clip-rule="evenodd" fill="#FF7800" d="M189.166,150.405c-4.9-4.613-8.15-5.256-12.123-8.166
		c-12.161-8.905-15.094-27.568-5.759-39.735c2.669-3.479,5.989-5.932,9.725-8.415c3.882-2.58,7.422-6.323,9.256-10.212
		c3.684-7.81,2.809-17.685-2.907-25.056c-5.439-7.013-13.992-10.671-23.336-8.95c-4.407,0.811-8.115,2.634-11.855,5.973
		c-3.842,3.43-4.822,6.952-9.219,11.261c-6.935,6.797-15.249,10.129-25.1,9.458c-4.826-0.329-8.899-1.475-13.749-4.213
		c-5.216-2.944-7.254-6.47-11.273-7.387c-4.176-0.953-8.818,0.211-11.602,3.41c-3.796,4.361-3.296,8.423-1.646,13.637
		c1.56,4.93,2.896,9.711,3.153,14.918c0.252,5.12-0.338,10.283-1.796,15.2c-2.664,8.987-9.22,17.424-15.499,22.982
		c-5.175,4.582-8.833,5.313-12.151,8.516c-3.226,3.113-5.324,7.391-5.324,12.228c0,8.372,6.001,15.355,13.941,16.831
		c6.207,1.152,12.129-1.677,13.979-2.261c12.891-4.064,29.078-3.564,40.777-0.153c9.673,2.821,18.041,7.818,25.847,14.144
		c3.755,3.043,6.603,7.133,10.552,9.949c10.152,7.246,27.684,8.652,38.895-5.799C199.542,178.78,201.366,161.891,189.166,150.405"/>
	<path fill-rule="evenodd" clip-rule="evenodd" fill="#FFFFFF" d="M140.951,97.625c-3.782,0-5.238,2.986-5.238,5.155v4.01
		c-3.904-5.251-9.178-8.745-16.381-8.745c-5.881,0-10.895,2.368-15.045,7.103c-4.149,4.735-6.224,10.45-6.224,17.145
		c0,6.668,2.075,12.372,6.224,17.108c4.15,4.76,9.164,7.139,15.045,7.139c7.72,0,13.066-4.205,16.381-8.781v4.314
		c0,1.932,1.553,5.002,5.194,5.002c3.598,0,5.116-3.133,5.116-5.154v-39.141C146.023,99.46,143.18,97.625,140.951,97.625
		 M122.161,137.066c-7.881,0-13.556-7.188-13.556-14.93c0-8.176,5.843-14.892,13.556-14.892c8.324,0,13.556,7.455,13.556,14.892
		C135.717,129.998,130.135,137.066,122.161,137.066"/>
	<g>
		<path fill-rule="evenodd" clip-rule="evenodd" fill="#2D364C" d="M342.296,88.508c-4.812-1.893-8.382,1.728-9.261,4.057
			l-17.382,45.588l-17.38-45.588c-0.88-2.33-4.45-5.95-9.262-4.057c-5.193,2.043-4.943,6.927-4.07,9.113
			c0,0,14.479,38.015,19.171,50.301c2.698,7.065,7.991,8.562,11.54,8.568c3.55-0.007,8.844-1.503,11.541-8.568
			c4.692-12.286,19.172-50.301,19.172-50.301C347.239,95.435,347.489,90.551,342.296,88.508"/>
		<path fill-rule="evenodd" clip-rule="evenodd" fill="#2D364C" d="M268.605,87.979c-5.24,0-7.257,4.136-7.257,7.142v5.555
			c-5.409-7.275-12.716-12.115-22.695-12.115c-8.148,0-15.096,3.28-20.845,9.84c-5.748,6.56-8.623,14.478-8.623,23.754
			c0,9.24,2.875,17.142,8.623,23.701c5.749,6.597,12.697,9.894,20.845,9.894c10.695,0,18.102-5.828,22.695-12.168v5.978
			c0,2.676,2.152,6.931,7.196,6.931c4.986,0,7.088-4.343,7.088-7.142V95.121C275.632,90.521,271.693,87.979,268.605,87.979
			 M242.356,142.841c-10.918,0-18.781-9.959-18.781-20.686c0-11.328,8.094-20.633,18.781-20.633
			c11.533,0,18.781,10.33,18.781,20.633C261.137,133.048,253.404,142.841,242.356,142.841"/>
		<path fill-rule="evenodd" clip-rule="evenodd" fill="#2D364C" d="M409.075,87.979c-5.24,0-7.257,4.136-7.257,7.142v5.555
			c-5.409-7.275-12.717-12.115-22.695-12.115c-8.148,0-15.096,3.28-20.845,9.84c-5.748,6.56-8.623,14.478-8.623,23.754
			c0,9.24,2.875,17.142,8.623,23.701c5.749,6.597,12.696,9.894,20.845,9.894c10.695,0,18.102-5.828,22.695-12.168v5.978
			c0,2.676,2.151,6.931,7.195,6.931c4.986,0,7.088-4.343,7.088-7.142V95.121C416.102,90.521,412.163,87.979,409.075,87.979
			 M382.826,142.841c-10.918,0-18.781-9.959-18.781-20.686c0-11.328,8.094-20.633,18.781-20.633c11.533,0,18.78,10.33,18.78,20.633
			C401.606,133.048,393.874,142.841,382.826,142.841"/>
		<g>
			<path fill="#2D364C" d="M428.14,148.6c-1.628-0.878-2.881-2.757-2.881-5.261c0-3.381,2.629-6.137,6.138-6.137
				c1.253,0,2.38,0.376,3.256,0.876c6.386,4.259,13.024,6.388,19.037,6.388c6.512,0,10.269-2.756,10.269-7.139v-0.25
				c0-5.136-7.013-6.637-14.777-9.015c-9.77-2.758-20.666-7.019-20.666-19.669v-0.25c0-12.524,10.396-20.164,23.547-20.164
				c7.014,0,14.401,2.003,20.788,5.385c2.128,1.127,3.633,3.131,3.633,5.761c0,3.508-2.756,6.139-6.263,6.139
				c-1.252,0-2.005-0.251-3.006-0.752c-5.386-2.756-10.896-4.51-15.529-4.51c-5.886,0-9.268,2.756-9.268,6.514v0.25
				c0,4.885,7.139,6.638,14.904,9.143c9.642,3.007,20.539,7.641,20.539,19.542v0.25c0,13.902-10.772,20.791-24.546,20.791
				C444.922,156.49,435.779,153.861,428.14,148.6z"/>
		</g>
		<g>
			<path fill="#2D364C" d="M491.593,137.218v-34.371h-2.889c-3.625,0-6.5-2.871-6.5-6.492c0-3.62,2.875-6.49,6.5-6.49h2.889V79.663
				c0-4.119,2.986-7.49,7.236-7.49c4.125,0,7.076,3.371,7.076,7.49v10.202h11.299c3.625,0,6.625,2.871,6.625,6.49
				c0,3.621-3,6.492-6.625,6.492h-11.299v31.997c0,5.867,3.424,8.241,8.549,8.241c1.75,0,3.25-0.375,3.75-0.375
				c3.375,0,6.375,2.746,6.375,6.242c0,2.747-1.875,4.993-4,5.868c-3.25,1.121-6.375,1.746-10.375,1.746
				C499.079,156.566,491.593,151.699,491.593,137.218z"/>
		</g>
	</g>
</g>
</svg>
