<?xml version="1.0" encoding="UTF-8"?>
<svg width="458px" height="64px" viewBox="0 0 458 64" version="1.1" xmlns="http://www.w3.org/2000/svg" xmlns:xlink="http://www.w3.org/1999/xlink">
    <!-- Generator: Sketch 52.5 (67469) - http://www.bohemiancoding.com/sketch -->
    <title>Group</title>
    <desc>Created with Sketch.</desc>
    <g id="Page-1" stroke="none" stroke-width="1" fill="none" fill-rule="evenodd">
        <g id="Artboard" transform="translate(-16.000000, -16.000000)" fill-rule="nonzero">
            <g id="Group" transform="translate(16.000000, 16.000000)">
                <g id="bc" transform="translate(96.000000, 13.000000)" fill="#123962">
                    <g id="logotype">
                        <path d="M137.909091,27 C136,29 133.272727,30.2727273 130.363636,30.2727273 C124.636364,30.2727273 119.909091,25.5454545 119.909091,19.8181818 C119.909091,14.0909091 124.636364,9.36363636 130.363636,9.36363636 C133,9.36363636 135.454545,10.3636364 137.272727,12 C137.818182,12.4545455 138.818182,13.4545455 138.818182,13.4545455 L145.181818,6.63636364 C141.545455,2.54545455 136.272727,-3.55271368e-15 130.363636,-3.55271368e-15 C119.454545,-3.55271368e-15 110.545455,8.81818182 110.545455,19.8181818 C110.545455,30.7272727 119.363636,39.6363636 130.363636,39.6363636 C136.545455,39.6363636 142.090909,36.9090909 145.636364,32.3636364 L139.272727,25.5454545 C139.181818,25.6363636 138.363636,26.5454545 137.909091,27 Z" id="Shape"></path>
                        <path d="M213.181818,27 C211.272727,29 208.545455,30.2727273 205.636364,30.2727273 C199.909091,30.2727273 195.181818,25.5454545 195.181818,19.8181818 C195.181818,14.0909091 199.909091,9.36363636 205.636364,9.36363636 C208.272727,9.36363636 210.727273,10.3636364 212.545455,12 C213.090909,12.4545455 214.090909,13.4545455 214.090909,13.4545455 L220.454545,6.63636364 C216.818182,2.54545455 211.545455,-3.55271368e-15 205.636364,-3.55271368e-15 C194.727273,-3.55271368e-15 185.818182,8.81818182 185.818182,19.8181818 C185.818182,30.7272727 194.636364,39.6363636 205.636364,39.6363636 C211.818182,39.6363636 217.363636,36.9090909 220.909091,32.3636364 L214.545455,25.5454545 C214.545455,25.6363636 213.636364,26.5454545 213.181818,27 Z" id="Shape"></path>
                        <path d="M26.8181818,19 C30.1818182,17.5454545 32.6363636,14.9090909 32.6363636,10.5454545 L32.6363636,10.4545455 C32.6363636,7.81818182 31.7272727,5.81818182 30.1818182,4.27272727 C27.9090909,2.09090909 24.5454545,0.818181818 19.8181818,0.818181818 L0,0.818181818 L0,38.8181818 L19.9090909,38.8181818 C29,38.8181818 34.2727273,34.8181818 34.2727273,28.3636364 L34.2727273,28.2727273 C34.2727273,23.1818182 31.3636364,20.5454545 26.8181818,19 Z M10.6363636,9.27272727 L17.4545455,9.27272727 C20.6363636,9.27272727 22.1818182,10.5454545 22.1818182,12.5454545 L22.1818182,12.6363636 C22.1818182,14.9090909 20.4545455,15.9090909 17.1818182,15.9090909 L10.5454545,15.9090909 L10.6363636,9.27272727 Z M23.8181818,26.9090909 C23.8181818,29.1818182 22,30.3636364 18.7272727,30.3636364 L10.5454545,30.3636364 L10.5454545,23.3636364 L18.5454545,23.3636364 C22.0909091,23.3636364 23.7272727,24.8181818 23.8181818,26.9090909 Z" id="Shape"></path>
                        <polygon id="Shape" points="49.6363636 0.818181818 39 0.818181818 39 38.8181818 66.7272727 38.8181818 66.7272727 29.7272727 49.6363636 29.7272727"></polygon>
                        <polygon id="Shape" points="248.454545 15.2727273 234.909091 15.2727273 234.909091 1 224.272727 1 224.272727 39.0909091 234.909091 39.0909091 234.909091 24.6363636 248.454545 24.6363636 248.454545 39.0909091 259 39.0909091 259 1.09090909 248.454545 1.09090909"></polygon>
                        <path d="M288.818182,0.727272727 L278.636364,0.727272727 L262.454545,39.0909091 L273.545455,39.0909091 L276.272727,32.2727273 L290.909091,32.2727273 L293.636364,39.0909091 L304.909091,39.0909091 L288.818182,0.727272727 Z M279.272727,24.0909091 L283.545455,13.2727273 L287.818182,24.0909091 C287.818182,24.0909091 279.272727,24.0909091 279.272727,24.0909091 Z" id="Shape"></path>
                        <polygon id="Rectangle-path" points="308.272727 1.09090909 318.818182 1.09090909 318.818182 39.1818182 308.272727 39.1818182"></polygon>
                        <polygon id="Shape" points="350.727273 1.09090909 350.727273 21.1818182 335 1.09090909 325 1.09090909 325 39.0909091 335.636364 39.0909091 335.636364 18.2727273 351.909091 39.0909091 361.272727 39.0909091 361.272727 1.09090909"></polygon>
                        <polygon id="Shape" points="186.727273 0.909090909 174.181818 0.909090909 174.181818 0.909090909 174.181818 0.909090909 161.090909 16.3636364 161.090909 0.909090909 150.545455 0.909090909 150.545455 39 161.090909 39 161.090909 29.1818182 165 24.9090909 175.636364 39 175.636364 39 175.636364 39 188.181818 39 171.909091 17.2727273"></polygon>
                        <path d="M87.8181818,0 C76.9090909,0 68,8.81818182 68,19.8181818 C68,30.7272727 76.8181818,39.6363636 87.8181818,39.6363636 C98.7272727,39.6363636 107.636364,30.8181818 107.636364,19.8181818 C107.636364,8.90909091 98.8181818,0 87.8181818,0 Z M87.8181818,30.2727273 C82.0909091,30.2727273 77.3636364,25.5454545 77.3636364,19.8181818 C77.3636364,14.0909091 82.0909091,9.36363636 87.8181818,9.36363636 C93.5454545,9.36363636 98.2727273,14.0909091 98.2727273,19.8181818 C98.2727273,25.5454545 93.5454545,30.2727273 87.8181818,30.2727273 Z" id="Shape"></path>
                    </g>
                </g>
                <g id="logomark">
                    <path d="M23.7538462,32 L10.4615385,45.2307692 L27.1384615,61.9076923 C29.8461538,64.6153846 34.1538462,64.6153846 36.8615385,61.9076923 L53.5384615,45.2307692 L40.1846154,32 L32,23.7538462 L23.7538462,32 Z" id="Shape" fill="#00AEE6"></path>
                    <path d="M10.4615385,18.7076923 L2.03076923,27.1384615 C-0.676923077,29.8461538 -0.676923077,34.1538462 2.03076923,36.8615385 L10.4615385,45.2307692 L23.7538462,32 L32,23.7538462 L18.7076923,10.4615385 L10.4615385,18.7076923 Z" id="Shape" fill="#123962"></path>
                    <path d="M45.2307692,36.9846154 L53.4769231,45.2307692 L61.9076923,36.8 C64.6153846,34.0923077 64.6153846,29.7846154 61.9076923,27.0769231 L58.5230769,23.6923077 L45.2307692,36.9846154 Z" id="Shape" fill="#B1D4E5"></path>
                    <polygon id="Shape" fill="#B1D4E5" points="40.1846154 32 40.1846154 32 32 23.7538462 45.2307692 10.4615385 45.2307692 10.4615385 32 23.7538462"></polygon>
                    <polygon id="Shape" fill="#2754BA" points="32 23.7538462 40.1846154 32 45.2307692 36.9846154 58.5230769 23.7538462 53.4769231 18.7076923 45.2307692 10.4615385"></polygon>
                    <path d="M45.2307692,10.4615385 L36.8,2.03076923 C34.0923077,-0.676923077 29.7846154,-0.676923077 27.0769231,2.03076923 L18.7076923,10.4615385 L32,23.7538462 L45.2307692,10.4615385 Z" id="Shape" fill="#799EB2"></path>
                </g>
            </g>
        </g>
    </g>
</svg>