<svg xmlns="http://www.w3.org/2000/svg" preserveAspectRatio="xMinYMin" viewBox="0 0 146.66667 58.666668" width="114pt">
  <defs>
    <clipPath id="a">
      <path d="M963.32 128.086l-1.289 1.129-121.172 104.969h54.18l83.242-91.219L1099.61 10.0039z"/>
    </clipPath>
    <clipPath id="b">
      <path d="M840 8.98438h260v230H840z"/>
    </clipPath>
    <clipPath id="c">
      <path d="M970.23 361.563L727.031 122.105 970.23-117.387l243.21 239.492z"/>
    </clipPath>
    <linearGradient id="d" gradientTransform="scale(343.964 -338.676) rotate(45 2.12425764 2.6330858)" gradientUnits="userSpaceOnUse" x2=".99999499" x1=".00001017">
      <stop offset="0" stop-color="#0f5d86"/>
      <stop offset=".25" stop-color="#0f5d86"/>
      <stop offset=".253906" stop-color="#145b89"/>
      <stop offset=".257813" stop-color="#19598b"/>
      <stop offset=".261719" stop-color="#1e578d"/>
      <stop offset=".265625" stop-color="#235590"/>
      <stop offset=".269531" stop-color="#285392"/>
      <stop offset=".273438" stop-color="#2d5194"/>
      <stop offset=".277344" stop-color="#324f97"/>
      <stop offset=".28125" stop-color="#374d99"/>
      <stop offset=".285156" stop-color="#3b4c9b"/>
      <stop offset=".289062" stop-color="#404a9d"/>
      <stop offset=".292969" stop-color="#44489f"/>
      <stop offset=".296875" stop-color="#4946a1"/>
      <stop offset=".300781" stop-color="#4d45a3"/>
      <stop offset=".304688" stop-color="#5143a5"/>
      <stop offset=".308594" stop-color="#5542a7"/>
      <stop offset=".3125" stop-color="#5940a9"/>
      <stop offset=".316406" stop-color="#5d3eab"/>
      <stop offset=".320313" stop-color="#613dad"/>
      <stop offset=".324219" stop-color="#653baf"/>
      <stop offset=".328125" stop-color="#693ab1"/>
      <stop offset=".332031" stop-color="#6c38b2"/>
      <stop offset=".335938" stop-color="#7037b4"/>
      <stop offset=".339844" stop-color="#7436b6"/>
      <stop offset=".34375" stop-color="#7734b7"/>
      <stop offset=".347656" stop-color="#7b33b9"/>
      <stop offset=".351562" stop-color="#7e32ba"/>
      <stop offset=".355469" stop-color="#8130bc"/>
      <stop offset=".359375" stop-color="#842fbe"/>
      <stop offset=".363281" stop-color="#882ebf"/>
      <stop offset=".367188" stop-color="#8b2dc1"/>
      <stop offset=".371094" stop-color="#8e2cc2"/>
      <stop offset=".375" stop-color="#912ac3"/>
      <stop offset=".378906" stop-color="#9429c5"/>
      <stop offset=".382813" stop-color="#9728c6"/>
      <stop offset=".386719" stop-color="#9927c7"/>
      <stop offset=".390625" stop-color="#9c26c9"/>
      <stop offset=".394531" stop-color="#9f25ca"/>
      <stop offset=".398438" stop-color="#a124cb"/>
      <stop offset=".402344" stop-color="#a423cc"/>
      <stop offset=".40625" stop-color="#a722ce"/>
      <stop offset=".410156" stop-color="#a921cf"/>
      <stop offset=".414062" stop-color="#ab20d0"/>
      <stop offset=".417969" stop-color="#ae1fd1"/>
      <stop offset=".421875" stop-color="#b01ed2"/>
      <stop offset=".425781" stop-color="#b21dd3"/>
      <stop offset=".429688" stop-color="#b51dd4"/>
      <stop offset=".433594" stop-color="#b71cd5"/>
      <stop offset=".4375" stop-color="#b91bd6"/>
      <stop offset=".441406" stop-color="#bb1ad7"/>
      <stop offset=".445313" stop-color="#bd19d8"/>
      <stop offset=".449219" stop-color="#bf19d9"/>
      <stop offset=".453125" stop-color="#c118da"/>
      <stop offset=".457031" stop-color="#c317db"/>
      <stop offset=".460938" stop-color="#c516dc"/>
      <stop offset=".464844" stop-color="#c616dd"/>
      <stop offset=".46875" stop-color="#c815dd"/>
      <stop offset=".472656" stop-color="#ca14de"/>
      <stop offset=".476562" stop-color="#cc14df"/>
      <stop offset=".480469" stop-color="#cd13e0"/>
      <stop offset=".484375" stop-color="#cf12e1"/>
      <stop offset=".488281" stop-color="#d012e1"/>
      <stop offset=".492188" stop-color="#d211e2"/>
      <stop offset=".496094" stop-color="#d311e3"/>
      <stop offset=".5" stop-color="#d510e3"/>
      <stop offset=".503906" stop-color="#d610e4"/>
      <stop offset=".507813" stop-color="#d80fe5"/>
      <stop offset=".511719" stop-color="#d90ee5"/>
      <stop offset=".515625" stop-color="#da0ee6"/>
      <stop offset=".519531" stop-color="#db0de6"/>
      <stop offset=".523438" stop-color="#dd0de7"/>
      <stop offset=".527344" stop-color="#de0de8"/>
      <stop offset=".53125" stop-color="#df0ce8"/>
      <stop offset=".535156" stop-color="#e00ce9"/>
      <stop offset=".539063" stop-color="#e10be9"/>
      <stop offset=".542969" stop-color="#e20bea"/>
      <stop offset=".546875" stop-color="#e30aea"/>
      <stop offset=".550781" stop-color="#e40aeb"/>
      <stop offset=".554688" stop-color="#e50aeb"/>
      <stop offset=".558594" stop-color="#e609ec"/>
      <stop offset=".5625" stop-color="#e709ec"/>
      <stop offset=".566406" stop-color="#e809ec"/>
      <stop offset=".570313" stop-color="#e908ed"/>
      <stop offset=".574219" stop-color="#ea08ed"/>
      <stop offset=".578125" stop-color="#eb08ee"/>
      <stop offset=".582031" stop-color="#ec07ee"/>
      <stop offset=".585937" stop-color="#ec07ee"/>
      <stop offset=".589844" stop-color="#ed07ef"/>
      <stop offset=".59375" stop-color="#ee06ef"/>
      <stop offset=".597656" stop-color="#ef06ef"/>
      <stop offset=".601563" stop-color="#ef06f0"/>
      <stop offset=".605469" stop-color="#f006f0"/>
      <stop offset=".609375" stop-color="#f105f0"/>
      <stop offset=".613281" stop-color="#f105f1"/>
      <stop offset=".617188" stop-color="#f205f1"/>
      <stop offset=".621094" stop-color="#f205f1"/>
      <stop offset=".625" stop-color="#f304f2"/>
      <stop offset=".628906" stop-color="#f404f2"/>
      <stop offset=".632813" stop-color="#f404f2"/>
      <stop offset=".636719" stop-color="#f504f2"/>
      <stop offset=".640625" stop-color="#f504f3"/>
      <stop offset=".648438" stop-color="#f603f3"/>
      <stop offset=".65625" stop-color="#f603f3"/>
      <stop offset=".664063" stop-color="#f703f4"/>
      <stop offset=".671875" stop-color="#f802f4"/>
      <stop offset=".679688" stop-color="#f902f4"/>
      <stop offset=".6875" stop-color="#f902f5"/>
      <stop offset=".695313" stop-color="#fa02f5"/>
      <stop offset=".703125" stop-color="#fb01f5"/>
      <stop offset=".71875" stop-color="#fb01f6"/>
      <stop offset=".734375" stop-color="#fc01f6"/>
      <stop offset=".75" stop-color="#fd00f6"/>
      <stop offset=".78125" stop-color="#fe00f7"/>
      <stop offset=".8125" stop-color="#ff00f7"/>
      <stop offset=".875" stop-color="#ff00f7"/>
      <stop offset="1" stop-color="#ff00f7"/>
    </linearGradient>
    <clipPath id="e">
      <path d="M703.98 438.984l18.211-17.929 26.68-26.25 3.117-3.09h185.711c4.02 0 7.813-.781 11.211-2.18 3.59-1.449 6.828-3.64 9.531-6.25v-.039c2.731-2.703 4.918-5.902 6.399-9.422 1.449-3.359 2.23-7.07 2.23-10.969 0-3.949-.781-7.66-2.23-11.019-1.481-3.512-3.668-6.68-6.399-9.41-2.742-2.66-5.98-4.852-9.531-6.293-3.398-1.41-7.191-2.188-11.211-2.188H784.141v-50.621l3.629-3.129 58.832-50.98h53.007l-52.461 57.5h90.551c10.422 0 20.422 2.039 29.571 5.789 9.492 3.859 17.96 9.531 25.109 16.519 7.07 6.993 12.851 15.391 16.801 24.731 3.79 9.019 5.86 18.82 5.86 29.101 0 10.231-2.07 20.079-5.86 29.059-3.95 9.34-9.731 17.731-16.801 24.731-7.109 6.988-15.617 12.648-25.109 16.519-9.149 3.75-19.149 5.82-29.571 5.82zm-65.46 0l-3.129-3.089-146.911-144.68-146.96 144.68-3.122 3.089h-67.847l18.199-17.929 182.73-179.961 9.461-9.258 7.539-7.422 7.54 7.422 9.41 9.258 136.129 134.019V234.184h48.011v204.8zm-559.4184 0c-10.4297 0-20.3907-2.07-29.5313-5.82-9.4922-3.871-18.0117-9.531-25.1211-16.519-7.1094-7-12.8476-15.391-16.78904-24.731-3.78907-8.98-5.85938-18.828-5.85938-29.059v-52.542c0-10.239 2.07031-20.079 5.85938-29.059 3.94144-9.34 9.67964-17.738 16.78904-24.731 7.1094-6.988 15.6289-12.66 25.1211-16.519 9.1406-3.75 19.1016-5.82 29.5313-5.82H428.32l-18.199 17.921-9.422 9.301-17.258 16.957-3.132 3.082H79.1016c-3.9805 0-7.7735.778-11.1719 2.188-3.5508 1.441-6.8008 3.59-9.5313 6.293-2.7382 2.687-4.9179 5.898-6.4492 9.41-1.3984 3.359-2.1797 7.07-2.1797 10.977v52.542c0 3.899.7813 7.61 2.1797 10.969 1.5313 3.52 3.711 6.719 6.4492 9.422h-.039c2.7304 2.649 5.9804 4.84 9.5703 6.289 3.3984 1.399 7.1914 2.18 11.1719 2.18H273.398l-18.238 17.93-9.422 9.3-17.218 16.95-3.129 3.089z"/>
    </clipPath>
    <clipPath id="f">
      <path d="M0 218.984h1020v220H0z"/>
    </clipPath>
    <clipPath id="g">
      <path d="M508.398 937.813l-615.589-606.129 615.589-606.141 615.622 606.141z"/>
    </clipPath>
    <linearGradient id="h" gradientTransform="scale(761.704 -749.993) rotate(45 1.13784605 -.05210502)" gradientUnits="userSpaceOnUse" x2="1.10085" x1="-.0421016">
      <stop offset="0" stop-color="#0f5d86"/>
      <stop offset=".03125" stop-color="#0f5d86"/>
      <stop offset=".0390625" stop-color="#0f5d86"/>
      <stop offset=".0429688" stop-color="#105f87"/>
      <stop offset=".046875" stop-color="#116188"/>
      <stop offset=".0507813" stop-color="#116289"/>
      <stop offset=".0546875" stop-color="#126489"/>
      <stop offset=".0585938" stop-color="#13658a"/>
      <stop offset=".0625" stop-color="#14678b"/>
      <stop offset=".0664063" stop-color="#14688c"/>
      <stop offset=".0703125" stop-color="#156a8c"/>
      <stop offset=".0742188" stop-color="#166b8d"/>
      <stop offset=".078125" stop-color="#176d8e"/>
      <stop offset=".0820313" stop-color="#176e8f"/>
      <stop offset=".0859375" stop-color="#18708f"/>
      <stop offset=".0898438" stop-color="#197190"/>
      <stop offset=".09375" stop-color="#197391"/>
      <stop offset=".0976563" stop-color="#1a7492"/>
      <stop offset=".101563" stop-color="#1b7692"/>
      <stop offset=".105469" stop-color="#1c7793"/>
      <stop offset=".109375" stop-color="#1c7994"/>
      <stop offset=".113281" stop-color="#1d7a95"/>
      <stop offset=".117188" stop-color="#1e7c95"/>
      <stop offset=".121094" stop-color="#1e7d96"/>
      <stop offset=".125" stop-color="#1f7e97"/>
      <stop offset=".128906" stop-color="#208097"/>
      <stop offset=".132813" stop-color="#218198"/>
      <stop offset=".136719" stop-color="#218399"/>
      <stop offset=".140625" stop-color="#228499"/>
      <stop offset=".144531" stop-color="#23859a"/>
      <stop offset=".148438" stop-color="#23879b"/>
      <stop offset=".152344" stop-color="#24889c"/>
      <stop offset=".15625" stop-color="#258a9c"/>
      <stop offset=".160156" stop-color="#258b9d"/>
      <stop offset=".164063" stop-color="#268c9e"/>
      <stop offset=".167969" stop-color="#278e9e"/>
      <stop offset=".171875" stop-color="#278f9f"/>
      <stop offset=".175781" stop-color="#2890a0"/>
      <stop offset=".179688" stop-color="#2992a0"/>
      <stop offset=".183594" stop-color="#2993a1"/>
      <stop offset=".1875" stop-color="#2a94a2"/>
      <stop offset=".191406" stop-color="#2b96a2"/>
      <stop offset=".195313" stop-color="#2b97a3"/>
      <stop offset=".199219" stop-color="#2c98a4"/>
      <stop offset=".203125" stop-color="#2d9aa4"/>
      <stop offset=".207031" stop-color="#2d9ba5"/>
      <stop offset=".210938" stop-color="#2e9ca6"/>
      <stop offset=".214844" stop-color="#2f9ea6"/>
      <stop offset=".21875" stop-color="#2f9fa7"/>
      <stop offset=".222656" stop-color="#30a0a7"/>
      <stop offset=".226563" stop-color="#31a1a8"/>
      <stop offset=".230469" stop-color="#31a3a9"/>
      <stop offset=".234375" stop-color="#32a4a9"/>
      <stop offset=".238281" stop-color="#32a5aa"/>
      <stop offset=".242188" stop-color="#33a6ab"/>
      <stop offset=".246094" stop-color="#34a8ab"/>
      <stop offset=".25" stop-color="#34a9ac"/>
      <stop offset=".253906" stop-color="#35aaac"/>
      <stop offset=".257813" stop-color="#35abad"/>
      <stop offset=".261719" stop-color="#36acae"/>
      <stop offset=".265625" stop-color="#37aeae"/>
      <stop offset=".269531" stop-color="#37afaf"/>
      <stop offset=".273437" stop-color="#38b0af"/>
      <stop offset=".277344" stop-color="#38b1b0"/>
      <stop offset=".28125" stop-color="#39b2b0"/>
      <stop offset=".285156" stop-color="#3ab3b1"/>
      <stop offset=".289063" stop-color="#3ab5b2"/>
      <stop offset=".292969" stop-color="#3bb6b2"/>
      <stop offset=".296875" stop-color="#3bb7b3"/>
      <stop offset=".300781" stop-color="#3cb8b3"/>
      <stop offset=".304688" stop-color="#3cb9b4"/>
      <stop offset=".308594" stop-color="#3dbab4"/>
      <stop offset=".3125" stop-color="#3dbbb5"/>
      <stop offset=".316406" stop-color="#3ebcb5"/>
      <stop offset=".320313" stop-color="#3ebdb6"/>
      <stop offset=".324219" stop-color="#3fbeb6"/>
      <stop offset=".328125" stop-color="#40c0b7"/>
      <stop offset=".332031" stop-color="#40c1b7"/>
      <stop offset=".335937" stop-color="#41c2b8"/>
      <stop offset=".339844" stop-color="#41c3b9"/>
      <stop offset=".34375" stop-color="#42c4b9"/>
      <stop offset=".347656" stop-color="#42c5ba"/>
      <stop offset=".351563" stop-color="#43c6ba"/>
      <stop offset=".355469" stop-color="#43c7ba"/>
      <stop offset=".359375" stop-color="#43c8bb"/>
      <stop offset=".363281" stop-color="#44c9bb"/>
      <stop offset=".367188" stop-color="#44c9bc"/>
      <stop offset=".371094" stop-color="#45cabc"/>
      <stop offset=".375" stop-color="#45cbbd"/>
      <stop offset=".378906" stop-color="#46ccbd"/>
      <stop offset=".382813" stop-color="#46cdbe"/>
      <stop offset=".386719" stop-color="#47cebe"/>
      <stop offset=".390625" stop-color="#47cfbf"/>
      <stop offset=".394531" stop-color="#48d0bf"/>
      <stop offset=".398437" stop-color="#48d1bf"/>
      <stop offset=".402344" stop-color="#48d1c0"/>
      <stop offset=".40625" stop-color="#49d2c0"/>
      <stop offset=".410156" stop-color="#49d3c1"/>
      <stop offset=".414063" stop-color="#4ad4c1"/>
      <stop offset=".417969" stop-color="#4ad4c1"/>
      <stop offset=".421875" stop-color="#4ad5c2"/>
      <stop offset=".425781" stop-color="#4bd6c2"/>
      <stop offset=".429688" stop-color="#4bd7c2"/>
      <stop offset=".433594" stop-color="#4bd7c3"/>
      <stop offset=".4375" stop-color="#4cd8c3"/>
      <stop offset=".441406" stop-color="#4cd9c3"/>
      <stop offset=".445313" stop-color="#4cd9c4"/>
      <stop offset=".449219" stop-color="#4cdac4"/>
      <stop offset=".453125" stop-color="#4ddac4"/>
      <stop offset=".460937" stop-color="#4ddbc4"/>
      <stop offset=".46875" stop-color="#4ddcc5"/>
      <stop offset=".5" stop-color="#4edcc5"/>
      <stop offset=".507813" stop-color="#4ddbc5"/>
      <stop offset=".515625" stop-color="#4ddbc4"/>
      <stop offset=".523438" stop-color="#4ddac4"/>
      <stop offset=".527344" stop-color="#4cd9c4"/>
      <stop offset=".53125" stop-color="#4cd8c3"/>
      <stop offset=".535156" stop-color="#4cd8c3"/>
      <stop offset=".539062" stop-color="#4bd7c3"/>
      <stop offset=".542969" stop-color="#4bd6c2"/>
      <stop offset=".546875" stop-color="#4bd6c2"/>
      <stop offset=".550781" stop-color="#4ad5c2"/>
      <stop offset=".554688" stop-color="#4ad4c1"/>
      <stop offset=".558594" stop-color="#49d3c1"/>
      <stop offset=".5625" stop-color="#49d3c0"/>
      <stop offset=".566406" stop-color="#48d2c0"/>
      <stop offset=".570313" stop-color="#48d1bf"/>
      <stop offset=".574219" stop-color="#47d0bf"/>
      <stop offset=".578125" stop-color="#47cfbe"/>
      <stop offset=".582031" stop-color="#46cebe"/>
      <stop offset=".585938" stop-color="#46ccbd"/>
      <stop offset=".589844" stop-color="#45cbbd"/>
      <stop offset=".59375" stop-color="#45cabc"/>
      <stop offset=".597656" stop-color="#44c9bc"/>
      <stop offset=".601563" stop-color="#43c7bb"/>
      <stop offset=".605469" stop-color="#43c6ba"/>
      <stop offset=".609375" stop-color="#42c5ba"/>
      <stop offset=".613281" stop-color="#41c3b9"/>
      <stop offset=".617188" stop-color="#41c2b8"/>
      <stop offset=".621094" stop-color="#40c0b7"/>
      <stop offset=".625" stop-color="#3fbfb7"/>
      <stop offset=".628906" stop-color="#3ebdb6"/>
      <stop offset=".632813" stop-color="#3ebcb5"/>
      <stop offset=".636719" stop-color="#3dbab4"/>
      <stop offset=".640625" stop-color="#3cb8b3"/>
      <stop offset=".644531" stop-color="#3bb6b2"/>
      <stop offset=".648438" stop-color="#3ab5b1"/>
      <stop offset=".652344" stop-color="#39b3b1"/>
      <stop offset=".65625" stop-color="#38b1b0"/>
      <stop offset=".660156" stop-color="#37afaf"/>
      <stop offset=".664062" stop-color="#36adae"/>
      <stop offset=".667969" stop-color="#35abad"/>
      <stop offset=".671875" stop-color="#34a9ac"/>
      <stop offset=".675781" stop-color="#33a7ab"/>
      <stop offset=".679688" stop-color="#32a4a9"/>
      <stop offset=".683594" stop-color="#31a2a8"/>
      <stop offset=".6875" stop-color="#30a0a7"/>
      <stop offset=".691406" stop-color="#2f9ea6"/>
      <stop offset=".695313" stop-color="#2d9ba5"/>
      <stop offset=".699219" stop-color="#2c99a4"/>
      <stop offset=".703125" stop-color="#2b96a3"/>
      <stop offset=".707031" stop-color="#2a94a1"/>
      <stop offset=".710938" stop-color="#2991a0"/>
      <stop offset=".714844" stop-color="#278f9f"/>
      <stop offset=".71875" stop-color="#268c9e"/>
      <stop offset=".722656" stop-color="#258a9c"/>
      <stop offset=".726563" stop-color="#23879b"/>
      <stop offset=".730469" stop-color="#228499"/>
      <stop offset=".734375" stop-color="#218198"/>
      <stop offset=".738281" stop-color="#1f7e97"/>
      <stop offset=".742188" stop-color="#1e7c95"/>
      <stop offset=".746094" stop-color="#1c7994"/>
      <stop offset=".75" stop-color="#1b7692"/>
      <stop offset=".753906" stop-color="#197391"/>
      <stop offset=".757813" stop-color="#18708f"/>
      <stop offset=".761719" stop-color="#166c8e"/>
      <stop offset=".765625" stop-color="#15698c"/>
      <stop offset=".769531" stop-color="#13668b"/>
      <stop offset=".773438" stop-color="#126389"/>
      <stop offset=".777344" stop-color="#106088"/>
      <stop offset=".78125" stop-color="#0f5d86"/>
      <stop offset=".8125" stop-color="#0f5d86"/>
      <stop offset=".875" stop-color="#0f5d86"/>
      <stop offset="1" stop-color="#0f5d86"/>
    </linearGradient>
  </defs>
  <path d="M3.31197325 36.75986755c-.33333332.20946666-.74374665.31359999-1.22915997.31359999-.62395998 0-1.13489597-.20946666-1.5203133-.62559998C.18802134 36.02133423 0 35.4640009 0 34.78120093c0-.71866665.21354133-1.31186663.64531198-1.77079996.42812533-.46919998.98542131-.70773331 1.6666613-.70773331.34427999 0 .68802664.07186666 1.02135997.20773333v.47919999c-.33333333-.2084-.69739998-.31253333-1.0828133-.31253333-.54270666 0-.99062398.19746666-1.33333197.58279999-.33333333.37613332-.50104266.87079997-.50104266 1.48026662 0 .59839999.152084 1.07706664.45833332 1.4369333.31875066.34946666.72969465.52026666 1.22969464.52026666.46926666 0 .87446665-.11346667 1.20779997-.3536zM7.19322649 36.9693342v-.91719997h-.02134667c-.14114666.3224-.35469332.57333332-.64531998.75053332-.28125333.176-.59478665.27079999-.93853331.27079999-.43177333 0-.78125332-.11466666-1.04114664-.35466666-.24948-.24946666-.375-.55213332-.375-.9161333 0-.80266666.53072-1.28133331 1.60415997-1.43866664l1.41718663-.20773333c0-.98439997-.37604-1.47919996-1.12499998-1.47919996-.49999998 0-.99478664.2032-1.48019996.60413332v-.49999999c.17708-.12493333.41718666-.23426666.70937332-.33333332.29062666-.0932.56249332-.1452.81197331-.1452.48385332 0 .85469331.1452 1.1041733.43746665.25989333.29053333.39582666.71866665.39582666 1.27026664v2.95893326zm-1.27186664-2.27199993c-.48958665.07346666-.82813331.18293332-1.01979997.33333332-.19896.15733333-.29218666.4068-.29218666.75053332 0 .26573332.08802666.48959998.27084.66666665.17707999.16666666.43697331.24946666.77030664.24946666.44270665 0 .81354665-.15613333 1.1041733-.47853333.29218666-.31719999.43853333-.73493331.43853333-1.24946663v-.45893332zM14.8026663 36.9693342v-2.72919992c0-.58386665-.0948-.98546664-.272-1.20946664-.1812-.23333333-.47333332-.35359999-.87439997-.35359999-.36408 0-.67762665.15626666-.93751998.45893332-.26562666.30666666-.39582666.69733332-.39582666 1.16666664v2.6666666h-.41614665v-2.77199993c0-1.00933331-.39062666-1.52026663-1.16666664-1.52026663-.39062666 0-.70937332.16146666-.95885331.47919999-.24010666.30773332-.35469333.70359998-.35469333 1.18746663v2.62559994h-.41614665v-4.56253322h.41614665v.77026665c.33333333-.58386665.80261332-.87439998 1.41718664-.87439998.34427999 0 .63489331.09893333.87499997.29053333.23437333.19893332.39584.44799998.47865333.75053331.13593333-.33333333.33853332-.58906665.60519998-.77026665.27604-.1776.57193332-.2708.89473331-.2708 1.0105333 0 1.52146663.61866666 1.52146663 1.85359996v2.8130666zM17.03066624 36.15626756v.81306665h-.41613332v-6.72919983h.41613332v3.12386659c.16666666-.34266666.40106666-.60933332.70946665-.79053332.3172-.1776.65573332-.2708 1.0197333-.2708.5948 0 1.05213331.20253334 1.3761333.60413333.33333333.40519999.5.94786664.5 1.62386662 0 .76666665-.19853333 1.3865333-.58386666 1.85479996-.37506666.45826665-.86933331.68799998-1.47866663.68799998-.69893331 0-1.20946663-.30266666-1.54279996-.91719998zm0-1.68693329v.56133332c0 .45893332.1464.85479998.43866666 1.1881333.29053332.3224.67079998.47853333 1.14519997.47853333.46826665 0 .85479998-.19213333 1.1453333-.58279999.29226666-.40093332.43746666-.92653331.43746666-1.58386663 0-.56666665-.14-1.02026664-.41613332-1.35359996-.26506666-.33333333-.61973332-.49999999-1.06239998-.49999999-.54173332 0-.9589333.1828-1.24946663.54173332-.29226666.34946666-.43866666.76506665-.43866666 1.2505333zM23.9639994 32.84373431c-.14106666-.09426666-.30253332-.1464-.48013332-.1464-.36413332 0-.66666665.18813333-.91559998.56253333-.25106666.36559999-.37506665.88546664-.37506665 1.56306662v2.14639995h-.39586666v-4.56253322h.39586666v1.0197333h.0204c.10933333-.34373332.27599999-.61453331.49999998-.81199997.21813333-.1932.48373332-.2916.79159998-.2916.1776 0 .33333333.03173334.4588.08386667zM25.03599937 31.25986769c-.08293333 0-.16146666-.02493334-.22919999-.0828-.07186667-.06773333-.10413333-.15053333-.10413333-.25053333 0-.0932.03226666-.17186666.10413333-.2292.06773333-.06666666.14626666-.10413332.2292-.10413332.09466666 0 .17759999.03746666.25039999.10413333.06826666.05733333.10426666.136.10426666.22919999 0 .1-.036.1828-.10426666.25053333-.0728.05786666-.15573333.0828-.2504.0828zm-.18653332 1.1469333h.41562532v4.56250655h-.41562532zM30.01613258 36.9693342v-.8333333h-.02133333c-.15626666.29053332-.37506666.52026665-.66666665.68693331-.29213333.16666667-.62546665.25053333-.99999997.25053333-.57346666 0-1.03599998-.19893333-1.39639997-.60413332-.34786666-.41719999-.51973332-.9797333-.51973332-1.68813329 0-.73426665.19213333-1.3333333.58279999-1.79159995.38546665-.45893333.89586664-.68693332 1.52133329-.68693332.69173332 0 1.1865333.2812 1.47866663.83333331h.02133333v-2.8958666h.4156v6.72919984zm0-2.77199992c0-.41613332-.1416-.77079998-.41773332-1.0613333-.26506666-.30266667-.62493332-.45893333-1.08226664-.45893333-.48959999 0-.89066664.18693333-1.2093333.56306665-.32293333.364-.47866666.86399998-.47866666 1.49999996 0 .62386666.13586667 1.11453331.4172 1.45719997.29066665.33333332.66666664.49999999 1.12399996.49999999.52653332 0 .92799998-.15613333 1.2093333-.47853333.29066667-.31719999.43746666-.70839998.43746666-1.16666663zM35.61453244 36.63600088c0 .84266665-.1984 1.4681333-.58386665 1.87439996-.37439999.40159999-.95719998.60413332-1.74946662.60413332-.44786666 0-.90666665-.11973333-1.37439997-.35466666v-.41613333c.48386666.2604.94266665.3964 1.37439997.3964 1.2761333 0 1.91613328-.66666666 1.91613328-1.99999996v-.58386665h-.02026666c-.36506666.61453332-.91719998.91719998-1.66666663.91719998-.57293332 0-1.0369333-.19893333-1.39586663-.60413332-.34946666-.40106666-.52133332-.9641333-.52133332-1.68813329 0-.73426665.188-1.3333333.56306665-1.79159995.38493333-.45893333.90106665-.68693332 1.54106663-.68693332.67719998 0 1.17199997.2812 1.4797333.83333331h.02026666V32.406801h.4172zm-.41719999-2.47973327c0-.40159999-.14-.74946665-.41613332-1.0417333-.2812-.2916-.63586665-.43746666-1.06239997-.43746666-.51613332 0-.93239998.18693333-1.24946664.56306665-.30786666.3744-.45893332.87439998-.45893332 1.49999996 0 .62386666.13493333 1.11453331.41613332 1.45719997.29226666.33333332.67186665.49999999 1.1469333.49999999.5 0 .89586665-.1504 1.18639998-.4572.29226666-.31879998.43746665-.70946664.43746665-1.16666663zM37.18799907 34.71880093c0 .62493332.14533333 1.1145333.43746666 1.45826663.30106666.34946666.70786664.52026666 1.20786663.52026666.52653332 0 1.03066664-.18693333 1.5213333-.56133332v.43746665c-.47439999.33333333-1.01093331.49999999-1.60519996.49999999-.59893332 0-1.07759998-.20946666-1.43746663-.62559998-.36413333-.4172-.54119999-1.01039998-.54119999-1.79159996 0-.65106665.188-1.20839997.56253332-1.66666662.38546666-.45893333.88546664-.68693332 1.49999996-.68693332.56826665 0 1.00519998.20253333 1.31199997.60413332.31866666.39053332.48013332.9317333.48013332 1.62386662v.18813333zm2.99999993-.37506666c-.01613334-.52653332-.1468-.9369333-.39586666-1.22919996-.24-.2916-.56293332-.43746666-.98013331-.43746666-.43173332 0-.79066665.14586666-1.08279997.43746666-.28133333.28133332-.4532.68813331-.52133332 1.22919996zM50.10413208 36.9693342v-2.72919992c0-.58386665-.09373333-.98546664-.2708-1.20946664-.18279999-.23333333-.47346665-.35359999-.8745333-.35359999-.3656 0-.67759999.15626666-.93746665.45893332-.26666666.30666666-.39586665.69733332-.39586665 1.16666664v2.6666666h-.4176v-2.77199993c0-1.00933331-.39066665-1.52026663-1.16666663-1.52026663-.39066666 0-.70786665.16146666-.95839998.47919999-.23906666.30773332-.35359999.70359998-.35359999 1.18746663v2.62559994h-.41719999v-4.56253322h.4172v.77026665c.33333332-.58386665.80146664-.87439998 1.41613329-.87439998.34426666 0 .63586665.09893333.87599998.29053333.23333333.19893332.39479999.44799998.47866665.75053331.136-.33333333.33853333-.58906665.60413332-.77026665.27613333-.1776.57293332-.2708.89586664-.2708 1.01039998 0 1.5213333.61866666 1.5213333 1.85359996v2.8130666zM51.9999987 34.71880093c0 .62493332.14533333 1.1145333.43746666 1.45826663.30266665.34946666.70786664.52026666 1.20786663.52026666.52653332 0 1.03173331-.18693333 1.5213333-.56133332v.43746665c-.47346666.33333333-1.01039998.49999999-1.6041333.49999999-.59853331 0-1.07866664-.20946666-1.43706663-.62559998-.36559999-.4172-.54159998-1.01039998-.54159998-1.79159996 0-.65106665.18693333-1.20839997.56146665-1.66666662.38533332-.45893333.88533331-.68693332 1.49999996-.68693332.56826665 0 1.00519998.20253333 1.31346664.60413332.31719999.39053332.47866665.9317333.47866665 1.62386662v.18813333zm2.99999993-.37506666c-.01613334-.52653332-.14533333-.9369333-.39586666-1.22919996-.24013333-.2916-.56293332-.43746666-.97866664-.43746666-.43226666 0-.79213332.14586666-1.08426664.43746666-.28133333.28133332-.4532.68813331-.51986666 1.22919996zM59.85986517 36.9693342v-.8333333h-.02133333c-.15573333.29053332-.37453333.52026665-.66666665.68693331-.2916.16666667-.62493332.25053333-.99999998.25053333-.57346665 0-1.03586664-.19893333-1.39586663-.60413332-.34946666-.41719999-.52133332-.9797333-.52133332-1.68813329 0-.73426665.1932-1.3333333.58386665-1.79159995.38546666-.45893333.89639998-.68693332 1.5213333-.68693332.69226665 0 1.18706663.2812 1.47866663.83333331h.02133333v-2.8958666h.41613332v6.72919984zm0-2.77199992c0-.41613332-.14106666-.77079998-.41719999-1.0613333-.2656-.30266667-.62546665-.45893333-1.08279997-.45893333-.49053332 0-.89053331.18693333-1.2093333.56306665-.3224.364-.47866666.86399998-.47866666 1.49999996 0 .62386666.13493333 1.11453331.41613332 1.45719997.29226666.33333332.66666665.49999999 1.12559997.49999999.52653332 0 .92653331-.15613333 1.2077333-.47853333.29226667-.31719999.43853333-.70839998.43853333-1.16666663zM61.95879845 31.25986769c-.08426666 0-.16146666-.02493334-.2296-.0828-.07293332-.06773333-.10373332-.15053333-.10373332-.25053333 0-.0932.0308-.17186666.10373333-.2292.06813333-.06666666.14533333-.10413332.2296-.10413332.09333332 0 .17719999.03746666.24906665.10413333.06813333.05733333.10413333.136.10413333.22919999 0 .1-.036.1828-.10413333.25053333-.07186666.05786666-.15573333.0828-.24906666.0828zm-.188 1.1469333h.417188v4.56250655h-.417188zM66.64533167 36.75986755c-.33333333.20946666-.74373332.31359999-1.22919997.31359999-.62399999 0-1.1349333-.20946666-1.52026663-.62559998-.37453332-.42653333-.56253332-.98386665-.56253332-1.66666663 0-.71866665.2136-1.31186663.64533332-1.77079996.42813332-.46919998.9853333-.70773331 1.66666662-.70773331.34426666 0 .68799998.07186666 1.02133331.20773333v.47919999c-.33333332-.2084-.69733332-.31253333-1.08279997-.31253333-.54266666 0-.99066664.19746666-1.3333333.58279999-.33333333.37613332-.50106666.87079997-.50106666 1.48026662 0 .59839999.15213333 1.07706664.4584 1.4369333.31866665.34946666.72959997.52026666 1.22959996.52026666.46933332 0 .87453331-.11346667 1.20786664-.3536zM70.52653157 36.9693342v-.91719997h-.02133333c-.1412.3224-.35466666.57333332-.64533332.75053332-.2812.176-.59479998.27079999-.93853331.27079999-.43173332 0-.78119998-.11466666-1.04106664-.35466666-.2496-.24946666-.37506666-.55213332-.37506666-.9161333 0-.80266666.53079999-1.28133331 1.6041333-1.43866664l1.41719996-.20773333c0-.98439997-.37599999-1.47919996-1.1249333-1.47919996-.5 0-.99479998.2032-1.48026663.60413332v-.49999999c.17706666-.12493333.41719998-.23426666.70933331-.33333332.29066666-.0932.56253332-.1452.81199998-.1452.48386666 0 .85466665.1452 1.10426664.43746665.25986666.29053333.39573332.71866665.39573332 1.27026664v2.95893326zm-1.27186663-2.27199993c-.4896.07346666-.82813332.18293332-1.01973331.33333332-.19893333.15733333-.29226666.4068-.29226666.75053332 0 .26573332.088.48959998.27093332.66666665.17706667.16666666.43693333.24946666.77026665.24946666.44266666 0 .81346665-.15613333 1.1041333-.47853333.29226667-.31719999.43853333-.73493331.43853333-1.24946663v-.45893332zM72.34373152 36.9693342h.41614533v-6.72917316h-.41614533zM78.9426647 32.84373431c-.14-.09426666-.30253333-.1464-.47866666-.1464-.3656 0-.66666665.18813333-.91706665.56253333-.24959999.36559999-.37506665.88546664-.37506665 1.56306662v2.14639995h-.39586666v-4.56253322h.39586666v1.0197333h.02133333c.10946666-.34373332.27613333-.61453331.49999999-.81199997.2188-.1932.48386665-.2916.79066664-.2916.1776 0 .33333333.03173334.4588.08386667zM81.49999796 37.07346754c-.68279998 0-1.21879997-.2136-1.6041333-.64693332-.39066665-.44266665-.58386664-1.01039997-.58386664-1.70773329 0-.74946665.1984-1.3385333.60519998-1.77093329.41613332-.42653332.95733331-.64519998 1.62399996-.64519998.66666665 0 1.18799997.21866666 1.5629333.64519998.38546665.41613333.58386665.99999998.58386665 1.74946663 0 .70946664-.20413333 1.2865333-.60519999 1.72919995-.38959999.43333333-.9161333.64693332-1.58279996.64693332zm.02133334-4.39639989c-.54266666 0-.98013331.1828-1.31346664.54173332-.32239999.36506666-.47866665.86399998-.47866665 1.49999996 0 .59839999.15626666 1.0785333.47866665 1.43746663.31866666.36506666.75093332.54106666 1.2921333.54106666.55213332 0 .98386664-.1708 1.2921333-.52026666.30106666-.35986666.4584-.85413331.4584-1.4797333 0-.65039998-.15733334-1.15039997-.4584-1.49999996-.29213332-.34266665-.71866665-.52026665-1.27079996-.52026665zM85.2505312 36.15626756v.81306665h-.41719999v-6.72919983h.4172v3.12386659c.16559999-.34266666.39999998-.60933332.70826664-.79053332.3172-.1776.65573332-.2708 1.01986664-.2708.59479999 0 1.05199998.20253334 1.37599997.60413333.33333332.40519999.49999999.94786664.49999999 1.62386662 0 .76666665-.1984 1.3865333-.58386666 1.85479996-.37493332.45826665-.86919998.68799998-1.47866663.68799998-.69893331 0-1.20826663-.30266666-1.54159996-.91719998zm0-1.68693329v.56133332c0 .45893332.14533333.85479998.43746666 1.1881333.29066666.3224.67186665.47853333 1.1453333.47853333.46933332 0 .85466665-.19213333 1.1453333-.58279999.29213333-.40093332.43746666-.92653331.43746666-1.58386663 0-.56666665-.14013333-1.02026664-.41613332-1.35359996-.26506666-.33333333-.61973332-.49999999-1.0625333-.49999999-.5416 0-.95879998.1828-1.24946664.54173332-.29213333.34946666-.43746666.76506665-.43746666 1.2505333zM91.86933104 37.07346754c-.68133332 0-1.21879997-.2136-1.60426663-.64693332-.39053332-.44266665-.58226665-1.01039997-.58226665-1.70773329 0-.74946665.19746666-1.3385333.60359998-1.77093329.41626666-.42653332.95893331-.64519998 1.62559996-.64519998.66666665 0 1.18639997.21866666 1.56146663.64519998.38639999.41613333.58386665.99999998.58386665 1.74946663 0 .70946664-.20266666 1.2865333-.60426665 1.72919995-.39053332.43333333-.91706664.64693332-1.5837333.64693332zm.02133333-4.39639989c-.54119999 0-.97866664.1828-1.31199997.54173332-.32399999.36506666-.48026665.86399998-.48026665 1.49999996 0 .59839999.15626666 1.0785333.48026665 1.43746663.3172.36506666.74946665.54106666 1.29066664.54106666.55199998 0 .9853333-.1708 1.2921333-.52026666.30253332-.35986666.45826665-.85413331.45826665-1.4797333 0-.65039998-.15573333-1.15039997-.45826665-1.49999996-.29213333-.34266665-.71879998-.52026665-1.27079997-.52026665zM97.0161309 36.90680088c-.20933332.0932-.41199998.14533333-.60413331.14533333-.68279998 0-1.0213333-.4016-1.0213333-1.20839997v-3.06253326h-.83333332v-.37439999h.83333331v-1.16666664c.06813333-.02653333.13586667-.05213333.20773333-.08386666.06826666-.01093334.13653333-.0308.2084-.06306667V32.406801h1.2093333v.37439999h-1.2093333v3.0214666c0 .30666665.04786666.53586664.14626666.6869333.09386666.14106667.27093332.20773334.52039998.20773334.16666667 0 .34373333-.052.54266666-.16666667zM98.14013088 31.25986769c-.0828 0-.16146666-.02493334-.22813333-.0828-.07346666-.06773333-.1052-.15053333-.1052-.25053333 0-.0932.03173334-.17186666.1052-.2292.06666667-.06666666.14533333-.10413332.22813333-.10413332.0948 0 .17706666.03746666.25053333.10413333.06813333.05733333.10413333.136.10413333.22919999 0 .1-.036.1828-.10413333.25053333-.07346667.05786666-.15573333.0828-.25053333.0828zm-.18706666 1.1469333h.41614532v4.56250655h-.41614532zM102.82813076 36.75986755c-.33333332.20946666-.74533331.31359999-1.2297333.31359999-.62493332 0-1.13439997-.20946666-1.5197333-.62559998-.37599999-.42653333-.56253331-.98386665-.56253331-1.66666663 0-.71866665.21306666-1.31186663.64533331-1.77079996.42653333-.46919998.98386664-.70773331 1.66666663-.70773331.34373332 0 .68799998.07186666 1.0213333.20773333v.47919999c-.33333332-.2084-.69893331-.31253333-1.08439997-.31253333-.54106665 0-.98906664.19746666-1.3333333.58279999-.33333332.37613332-.49999998.87079997-.49999998 1.48026662 0 .59839999.15106666 1.07706664.45893332 1.4369333.31719999.34946666.72906665.52026666 1.22906663.52026666.46826666 0 .87506665-.11346667 1.20839997-.3536zM103.70266407 36.75986755v-.47866666c.152.1256.33853333.2292.56239999.312.2188.07346666.41773332.10413333.58439999.10413333.71879998 0 1.08226664-.29053333 1.08226664-.87439998 0-.19226666-.08226667-.35893333-.24893333-.49999999-.15626666-.15106666-.4068-.3016-.75106665-.45893332-.44786666-.176-.75986665-.364-.93693331-.56133332-.1828-.20946666-.2708-.45893332-.2708-.75053332 0-.37506665.13586667-.67186665.41613333-.89586664.2916-.23493333.65199998-.3536 1.08386664-.3536.38533332 0 .72906665.0828 1.0213333.24946667v.45826665c-.34946665-.21826666-.7041333-.33333332-1.0625333-.33333332-.30826666 0-.55733332.0776-.75106665.22973333-.1812.15573333-.27026666.35306666-.27026666.60359998 0 .22453333.05213333.4068.16666667.54173332.12493333.12493333.37973332.2812.77026664.45826666.48546666.2084.81879998.41093332.99999998.60413332.1776.1828.27093332.41613332.27093332.70839998 0 .36506666-.14013333.66093331-.41626665.89586664-.26506666.24-.64106665.35466666-1.1249333.35466666-.44786666 0-.82293332-.10413333-1.12546665-.3136z" fill="#787f78"/>
  <g clip-path="url(#a)" transform="matrix(.13333 0 0 -.13333 0 58.666667)">
    <g clip-path="url(#b)">
      <g clip-path="url(#c)">
        <path d="M1098 10v1h-1v1h-1v1h-1v1h-2v1h-1v1h-1v1h-1v1h-1v1h-1v1h-2v1h-1v1h-1v1h-1v1h-1v1h-1v1h-1v1h-2v1h-1v1h-1v1h-1v1h-1v1h-1v1h-2v1h-1v1h-1v1h-1v1h-1v1h-1v1h-2v1h-1v1h-1v1h-1v1h-1v1h-1v1h-1v1h-2v1h-1v1h-1v1h-1v1h-1v1h-1v1h-2v1h-1v1h-1v1h-1v1h-1v1h-1v1h-1v1h-2v1h-1v1h-1v1h-1v1h-1v1h-1v1h-2v1h-1v1h-1v1h-1v1h-1v1h-1v1h-1v1h-2v1h-1v1h-1v1h-1v1h-1v1h-1v1h-2v1h-1v1h-1v1h-1v1h-1v1h-1v1h-1v1h-2v1h-1v1h-1v1h-1v1h-1v1h-1v1h-2v1h-1v1h-1v1h-1v1h-1v1h-1v1h-1v1h-2v1h-1v1h-1v1h-1v1h-1v1h-1v1h-2v1h-1v1h-1v1h-1v1h-1v1h-1v1h-1v1h-2v1h-1v1h-1v1h-1v1h-1v1h-1v1h-2v1h-1v1h-1v1h-1v1h-1v1h-1v1h-1v1h-2v1h-1v1h-1v1h-1v1h-1v1h-1v1h-2v1h-1v1h-1v1h-1v1h-1v1h-1v1h-1v1h-2v1h-1v1h-1v1h-1v1h-1v1h-1v1h-2v1h-1v1h-1v1h-1v1h-1v1h-1v1h-1v1h-2v1h-1v1h-1v1h-1v1h-1v1h-1v1h-2v1h-1v1h-1v1h-1v1h-1v1h-1v1h-1v1h-2v1h-1v1h-1v1h-1v1h-1v1h-1v1h-2v1h-1v1h-1v1h-1v1h-1v1h-1v1h-1v1h-2v1h-1v1h-1v1h-1v1h-1v1h-1v1h-2v1h-1v1h-1v1h-1v1h-1v1h-1v1h-1v1h-2v1h-1v1h-1v1h-1v1h-1v1h-1v1h-2v1h-1v1h-1v1h-1v1h-1v1h-1v1h-1v1h-2v1h-1v1h-1v1h-1v1h-1v1h-1v1h-2v1h-1v1h-1v1h-1v1h-1v1h-1v1h-1v1h-2v1h-1v1h-1v1h-1v1h-1v1h-1v1h-2v1h-1v1h-1v1h-1v1h-1v1h-1v1h-1v1h-2v1h-1v1h-1v1h-1v1h-1v1h-1v1h-1v1h56v-1h1v-1h1v-2h1v-1h1v-1h1v-1h1v-1h1v-1h1v-1h1v-1h1v-1h1v-1h1v-2h1v-1h1v-1h1v-1h1v-1h1v-1h1v-1h1v-1h1v-1h1v-1h1v-1h1v-2h1v-1h1v-1h1v-1h1v-1h1v-1h1v-1h1v-1h1v-1h1v-1h1v-2h1v-1h1v-1h1v-1h1v-1h1v-1h1v-1h1v-1h1v-1h1v-1h1v-1h1v-2h1v-1h1v-1h1v-1h1v-1h1v-1h1v-1h1v-1h1v-1h1v-1h1v-2h1v-1h1v-1h1v-1h1v-1h1v-1h1v-1h1v-1h1v-1h1v-1h1v-2h1v-1h1v-1h1v-1h1v-1h1v-1h1v-1h1v-1h1v-1h1v-1h1v-1h1v-2h1v-1h1v-1h1v-1h1v-1h1v-1h1v-1h1v-1h1v-1h1v-1h1v-2h1v-1h1v-1h1v-1h1v-1h1v-1h1v-1h1v-1h1v-1h1v-1h1v-1h1v-2h1v-1h1v-1h1v-1h1v-1h1v-1h1v-1h1v-1h1v-1h1v-1h1v-2h1v-1h1v-1h1v-1h1v-1h1v-1h1v-1h1v-1h1v-1h1v-1h1v-1h1v-2h1v-1h1v-1h1v-1h1v-1h1v-1h1v-1h1v-1h1v-1h1v-1h1v-2h1v-1h1v-1h1v-1h1v-1h1v-1h1v-1h1v-1h1v-1h1v-1h1v-2h1v-1h1v-1h1v-1h1v-1h1v-1h1v-1h1v-1h1v-1h1v-1h1v-1h1v-2h1v-1h1v-1h1v-1h1v-1h1v-1h1v-1h1v-1h1v-1h1v-1h1v-2h1v-1h1v-1h1v-1h1v-1h1v-1h1v-1h1v-1h1v-1h1v-1h1v-1h1v-2h1v-1h1v-1h1v-1h1v-1h1v-1h1v-1h1v-1h1v-1h1v-1h1v-2h1v-1h1v-1h1v-1h1v-1h1v-1h1v-1h1v-1h1v-1h1v-1h1v-1h1v-2h1v-1h1v-1h1v-1h1v-1h1v-1h1v-1h1v-1h1v-1h1v-1h1v-2h1v-1h1v-1h1v-1h1v-1" fill="url(#d)"/>
      </g>
    </g>
  </g>
  <g clip-path="url(#e)" transform="matrix(.13333 0 0 -.13333 0 58.666667)">
    <g clip-path="url(#f)">
      <g clip-path="url(#g)">
        <path d="M487 224v1h-1v1h-1v1h-1v1h-1v1h-1v1h-1v1h-1v1h-1v1h-1v1h-1v1h-1v1h-1v1h-1v1h-1v1h-1v1h-1v1h-1v1h-1v1h-1v1h-1v1h-1v1h-1v1h-1v1h-1v1h-1v1h-1v1h-1v1h-1v1h-1v1h-1v1h-1v1h-1v1h-1v1h-1v1h-1v1h-1v1h-1v1h-1v1h-1v1h-1v1h-1v1h-1v1h-1v1h-1v1h-1v1h-1v1h-1v1h-1v1h-1v1h-1v1h-1v1h-1v1h-1v1h-2v1h-1v1h-1v1h-1v1h-1v1h-1v1h-1v1h-1v1h-1v1h-1v1h-1v1h-1v1h-1v1h-1v1h-1v1h-1v1h-1v1h-1v1h-1v1h-1v1h-1v1h-1v1h-1v1h-1v1h-1v1h-1v1h-1v1h-1v1h-1v1h-1v1h-1v1h-1v1h-1v1h-1v1h-1v1h-1v1h-1v1h-1v1h-1v1h-1v1h-1v1h-1v1h-1v1h-1v1h-1v1h-1v1h-1v1h-1v1h-1v1h-1v1h-1v1h-1v1h-1v1h-1v1h-1v1h-1v1h-1v1h-1v1h-1v1h-1v1h-1v1h-1v1h-1v1h-1v1h-1v1h-2v1h-1v1h-1v1h-1v1h-1v1h-1v1h-1v1h-1v1h-1v1h-1v1h-1v1h-1v1h-1v1h-1v1h-1v1h-1v1h-1v1h-1v1h-1v1h-1v1h-1v1h-1v1h-1v1h-1v1h-1v1h-1v1h-1v1h-1v1h-1v1h-1v1h-1v1h-1v1h-1v1h-1v1h-1v1h-1v1h-1v1h-1v1h-1v1h-1v1h-1v1h-1v1h-1v1h-1v1h-1v1h-1v1h-1v1h-1v1h-1v1h-1v1h-1v1h-1v1h-1v1h-1v1h-1v1h-1v1h-1v1h-1v1h-1v1h-1v1h-1v1h-1v1h-1v1h-1v1h-1v1h-2v1h-1v1h-1v1h-1v1h-1v1h-1v1h-1v1h-1v1h-1v1h-1v1h-1v1h-1v1h-1v1h-1v1h-1v1h-1v1h-1v1h-1v1h-1v1h-1v1h-1v1h-1v1h-1v1h-1v1h-1v1h-1v1h-1v1h-1v1h-1v1h-1v1h-1v1h70v-1h1v-1h1v-1h1v-1h1v-1h1v-1h1v-1h1v-1h1v-1h1v-1h1v-1h1v-1h1v-1h1v-1h1v-1h1v-1h1v-1h1v-1h1v-1h1v-1h1v-1h1v-1h1v-1h1v-1h1v-1h1v-1h1v-1h1v-1h1v-1h1v-1h1v-1h1v-1h1v-1h1v-1h1v-1h1v-1h1v-1h1v-1h1v-1h1v-1h2v-1h1v-1h1v-1h1v-1h1v-1h1v-1h1v-1h1v-1h1v-1h1v-1h1v-1h1v-1h1v-1h1v-1h1v-1h1v-1h1v-1h1v-1h1v-1h1v-1h1v-1h1v-1h1v-1h1v-1h1v-1h1v-1h1v-1h1v-1h1v-1h1v-1h1v-1h1v-1h1v-1h1v-1h1v-1h1v-1h1v-1h1v-1h1v-1h1v-1h1v-1h1v-1h1v-1h1v-1h1v-1h1v-1h1v-1h1v-1h1v-1h1v-1h1v-1h1v-1h1v-1h1v-1h1v-1h1v-1h1v-1h1v-1h1v-1h1v-1h1v-1h1v-1h1v-1h2v-1h1v-1h1v-1h1v-1h1v-1h1v-1h1v-1h1v-1h1v-1h1v-1h1v-1h1v-1h1v-1h1v-1h1v-1h1v-1h1v-1h1v-1h1v-1h1v-1h1v-1h1v-1h1v-1h1v-1h1v-1h1v-1h1v-1h1v-1h1v-1h1v-1h1v-1h1v-1h1v-1h1v-1h1v-1h1v-1h1v-1h1v-1h1v-1h1v-1h1v-1h1v-1h1v-1h1v-1h1v1h1v1h1v1h1v1h1v1h1v1h1v1h1v1h1v1h1v1h1v1h1v1h1v1h1v1h1v1h1v1h1v1h1v1h1v1h1v1h1v1h1v1h1v1h1v1h1v1h1v1h1v1h1v1h1v1h1v1h1v1h1v1h1v1h1v1h1v1h1v1h1v1h1v1h1v1h1v1h1v1h1v1h1v1h1v1h1v1h1v1h1v1h2v1h1v1h1v1h1v1h1v1h1v1h1v1h1v1h1v1h1v1h1v1h1v1h1v1h1v1h1v1h1v1h1v1h1v1h1v1h1v1h1v1h1v1h1v1h1v1h1v1h1v1h1v1h1v1h1v1h1v1h1v1h1v1h1v1h1v1h1v1h1v1h1v1h1v1h1v1h1v1h1v1h1v1h1v1h1v1h1v1h1v1h1v1h1v1h1v1h1v1h1v1h1v1h1v1h1v1h1v1h1v1h1v1h1v1h1v1h1v1h1v1h1v1h1v1h1v1h1v1h2v1h1v1h1v1h1v1h1v1h1v1h1v1h1v1h1v1h1v1h1v1h1v1h1v1h1v1h1v1h1v1h1v1h1v1h1v1h1v1h1v1h1v1h1v1h1v1h1v1h1v1h1v1h1v1h1v1h1v1h1v1h1v1h1v1h1v1h1v1h53V234h-49v139h-1v-1h-1v-1h-1v-1h-1v-1h-1v-1h-1v-1h-1v-1h-1v-1h-1v-1h-1v-1h-1v-1h-1v-1h-1v-1h-1v-1h-1v-1h-1v-1h-1v-1h-1v-1h-1v-1h-1v-1h-1v-1h-1v-1h-1v-1h-1v-1h-1v-1h-1v-1h-2v-1h-1v-1h-1v-1h-1v-1h-1v-1h-1v-1h-1v-1h-1v-1h-1v-1h-1v-1h-1v-1h-1v-1h-1v-1h-1v-1h-1v-1h-1v-1h-1v-1h-1v-1h-1v-1h-1v-1h-1v-1h-1v-1h-1v-1h-1v-1h-1v-1h-1v-1h-1v-1h-1v-1h-1v-1h-1v-1h-1v-1h-1v-1h-1v-1h-1v-1h-1v-1h-1v-1h-1v-1h-1v-1h-1v-1h-1v-1h-1v-1h-1v-1h-1v-1h-1v-1h-1v-1h-1v-1h-1v-1h-1v-1h-1v-1h-1v-1h-1v-1h-1v-1h-1v-1h-1v-1h-1v-1h-1v-1h-1v-1h-1v-1h-1v-1h-1v-1h-1v-1h-1v-1h-1v-1h-1v-1h-2v-1h-1v-1h-1v-1h-1v-1h-1v-1h-1v-1h-1v-1h-1v-1h-1v-1h-1v-1h-1v-1h-1v-1h-1v-1h-1v-1h-1v-1h-1v-1h-1v-1h-1v-1h-1v-1h-1v-1h-1v-1h-1v-1h-1v-1h-1v-1h-1v-1h-1v-1h-1v-1h-1v-1h-1v-1h-1v-1h-1v-1h-1v-1h-1v-1h-1v-1h-1v-1h-1v-1h-1v-1h-1v-1h-1v-1h-1v-1h-1v-1h-1v-1h-1v-1h-1v-1h-1v-1h-1v-1h-1v-1h-1v-1h-1v-1h-1v-1h-1v-1h-1v-1h-1v-1h-1v-1h-1v-1h-1v-1h-1v-1h-1v-1h-1v-1zm358 5v1h-1v1h-1v1h-1v1h-1v1h-2v1h-1v1h-1v1h-1v1h-1v1h-1v1h-1v1h-2v1h-1v1h-1v1h-1v1h-1v1h-1v1h-2v1h-1v1h-1v1h-1v1h-1v1h-1v1h-1v1h-2v1h-1v1h-1v1h-1v1h-1v1h-1v1h-2v1h-1v1h-1v1h-1v1h-1v1h-1v1h-1v1h-2v1h-1v1h-1v1h-1v1h-1v1h-1v1h-2v1h-1v1h-1v1h-1v1h-1v1h-1v1h-1v1h-2v1h-1v1h-1v52h155v1h6v1h3v1h2v1h2v1h2v1h1v1h1v1h2v1h1v2h1v1h1v1h1v2h1v2h1v2h1v3h1v5h1v3h-1v6h-1v3h-1v2h-1v2h-1v1h-1v2h-1v1h-1v1h-1v1h-1v1h-1v1h-1v1h-2v1h-2v1h-1v1h-3v1h-3v1H751v1h-1v1h-1v1h-1v1h-1v1h-1v1h-1v1h-1v1h-1v1h-1v1h-1v1h-1v1h-1v1h-1v1h-1v1h-1v1h-1v1h-1v1h-1v1h-1v1h-1v1h-1v1h-1v1h-1v1h-1v1h-1v1h-1v1h-1v1h-1v1h-1v1h-1v1h-1v1h-1v1h-1v1h-1v1h-1v1h-1v1h-1v1h-1v1h-1v1h-1v1h-1v1h-1v1h-1v1h-1v1h-1v1h-2v1h-1v1h247v-1h5v-1h4v-1h3v-1h4v-1h2v-1h2v-1h2v-1h2v-1h2v-1h2v-1h2v-1h1v-1h2v-1h1v-1h1v-1h1v-1h2v-1h1v-1h1v-1h1v-1h2v-1h1v-1h1v-2h1v-1h1v-1h1v-1h1v-2h1v-1h1v-1h1v-1h1v-2h1v-2h1v-2h1v-1h1v-2h1v-2h1v-2h1v-3h1v-3h1v-3h1v-4h1v-5h1v-8h1v-9h-1v-7h-1v-6h-1v-3h-1v-3h-1v-4h-1v-2h-1v-2h-1v-2h-1v-2h-1v-2h-1v-1h-1v-2h-1v-2h-1v-1h-1v-1h-1v-2h-1v-1h-1v-1h-1v-1h-1v-2h-1v-1h-1v-1h-1v-1h-1v-1h-1v-1h-2v-1h-1v-1h-1v-1h-1v-1h-2v-1h-1v-1h-1v-1h-2v-1h-2v-1h-1v-1h-2v-1h-2v-1h-2v-1h-2v-1h-2v-1h-4v-1h-3v-1h-4v-1h-4v-1h-8v-1h-95v-1h1v-1h1v-1h1v-1h1v-1h1v-1h1v-1h1v-1h1v-2h1v-1h1v-1h1v-1h1v-1h1v-1h1v-1h1v-1h1v-1h1v-1h1v-2h1v-1h1v-1h1v-1h1v-1h1v-1h1v-1h1v-1h1v-1h1v-1h1v-2h1v-1h1v-1h1v-1h1v-1h1v-1h1v-1h1v-1h1v-1h1v-1h1v-1h1v-2h1v-1h1v-1h1v-1h1v-1h1v-1h1v-1h1v-1h1v-1h1v-1h1v-2h1v-1h1v-1zm-776 5v1h-7v1h-3v1h-4v1h-3v1h-3v1h-2v1h-2v1h-2v1h-2v1h-2v1h-1v1h-2v1h-2v1h-1v1h-1v1h-1v1h-2v1h-1v1h-1v1h-1v1h-2v1h-1v1h-1v2h-1v1h-1v1h-1v1h-1v2h-1v1h-1v1h-1v1h-1v2h-1v2h-1v2h-1v1h-1v2H9v2H8v2H7v2H6v3H5v4H4v3H3v5H2v8H1v64h1v7h1v5h1v3h1v4h1v3h1v2h1v2h1v2h1v2h1v2h1v1h1v2h1v2h1v1h1v1h1v2h1v1h1v1h1v1h1v2h1v1h1v1h1v1h1v1h2v1h1v1h1v1h1v1h2v1h1v1h1v1h2v1h1v1h2v1h2v1h2v1h2v1h1v1h3v1h2v1h4v1h3v1h4v1h5v1h160v-1h1v-1h1v-1h1v-1h1v-1h1v-1h1v-1h1v-1h1v-1h1v-1h1v-1h1v-1h1v-1h1v-1h1v-1h1v-1h1v-1h1v-1h1v-1h1v-1h1v-1h1v-1h1v-1h1v-1h1v-1h1v-1h1v-1h1v-1h1v-1h1v-1h1v-1h1v-1h1v-1h1v-1h1v-1h1v-1h1v-1h1v-1h1v-1h1v-1h2v-1h1v-1h1v-1h1v-1h1v-1h1v-1h1v-2H73v-1h-3v-1h-3v-1h-2v-1h-1v-1h-2v-1h-1v-1h-1v-1h-1v-1h-1v-1h-1v-1h-1v-1h-1v-2h-1v-2h-1v-2h-1v-3h-1v-4h-1v-58h1v-5h1v-3h1v-2h1v-2h1v-2h1v-1h1v-1h1v-1h1v-1h1v-1h1v-1h1v-1h2v-1h2v-1h2v-1h2v-1h4v-1h307v-1h1v-1h1v-1h1v-1h1v-1h1v-1h1v-1h1v-1h1v-1h1v-1h1v-1h1v-1h1v-1h1v-1h2v-1h1v-1h1v-1h1v-1h1v-1h1v-1h1v-1h1v-1h1v-1h1v-1h1v-1h1v-1h1v-1h1v-1h1v-1h1v-1h1v-1h1v-1h1v-1h1v-1h1v-1h1v-1h1v-1h1v-1h1v-1h1v-1h1v-1h1v-1h1v-1h1v-1h1v-1h1v-1h1v-1h1v-1" fill="url(#h)"/>
      </g>
    </g>
  </g>
  </svg>