<svg xmlns="http://www.w3.org/2000/svg" preserveAspectRatio="xMinYMin" viewBox="0 -1 1890 475" width="114pt">
  <path d="M625.49465 266.624c-13.68135-6.00933-28.19065-8.208-42.964-8.208-58.28535 0-100.976 39.14267-100.976 97.97894 0 60.73439 40.228 99.60253 100.708 99.60253 11.21865 0 29.00135-.812 43.50535-6.84267l-1.64135-26.55213c-9.57735 5.75053-27.916 9.31986-41.596 9.31986-39.68 0-71.96665-29.84373-71.96665-74.71466 0-42.9492 29.284-74.6972 73.33865-74.6972 13.94665 0 27.36135 3.54667 39.40135 10.668l2.19065-26.55467M669.98265 382.924c0-26.52906 16.144-52.252 43.78135-52.252 27.36665 0 43.51065 25.72294 43.51065 52.252 0 24.90533-13.40935 52.26933-43.51065 52.26933-30.37335 0-43.78135-27.364-43.78135-52.26933m-27.36535 0c0 39.9548 29.012 73.07347 71.1467 73.07347 41.864 0 70.87465-33.11867 70.87465-73.07347 0-42.41613-28.46135-73.05066-70.87465-73.05066-42.68935 0-71.1467 30.63453-71.1467 73.05066M809.4226 452.70267h25.7214v-64.5624c0-33.95213 13.1413-57.46827 42.42-57.46827 22.4346 1.37467 29.5546 17.23334 29.5546 49.7948v72.23587h25.72v-82.90773c0-37.49494-16.1466-59.9216-52.268-59.9216-19.4293 0-38.0346 9.57733-45.6986 25.44266h-.5454v-22.17333h-24.904v139.56M960.636 448.3412c11.7586 6.28813 25.1866 7.65627 38.3093 7.65627 24.9067 0 48.7027-13.6844 48.7027-43.50827 0-44.59586-60.456-36.38386-60.456-64.86253 0-11.47733 11.4773-16.95467 24.6226-16.95467 6.0094 0 21.336 3.55467 27.0907 7.1l2.1787-22.42533c-10.112-3.01733-19.9894-5.47333-32.0214-5.47333-27.6266 0-49.2586 13.96266-49.2586 42.94653 0 39.1428 60.48 36.94533 60.48 62.4084 0 15.04626-14.4947 19.96506-26.252 19.96506-7.396 0-21.9147-3.2708-32.0267-9.85306l-1.3693 23.00093M1195.328 313.14267h-25.7187v64.58667c0 33.92653-13.1293 57.46399-42.4173 57.46399-22.4454-1.36933-29.5387-17.23066-29.5387-49.78959v-72.26107h-25.74v82.93093c0 37.4728 16.1653 59.92387 52.2707 59.92387 19.4333 0 38.0306-9.57867 45.7053-25.44427h.5307v22.14947h24.908v-139.56M1227.2213 452.70267h25.7427V247.472h-25.7427v205.23067M1370.0133 313.14267h-36.9453v-40.48533l-25.7134 8.204v32.28133H1275.88v20.804h31.4746v81.56026c0 27.8932 16.416 40.49054 42.9654 40.49054 8.2133 0 16.12-2.18174 21.8666-3.83067v-21.89227c-3.8266 2.45734-9.5466 4.9188-17.5066 4.9188-11.76 0-21.612-8.74373-21.612-24.9068v-76.33986h36.9453v-20.804M1486.48 398.52934c0 20.79999-13.3867 36.66399-38.84 36.66399-11.76 0-26-7.92653-26-22.70413 0-24.6276 34.48-26.82653 48.4266-26.82653 5.4934 0 10.96.55613 16.4134.55613v12.31054m-74.9734-53.6376c10.4134-8.7424 26-14.21974 40.52-14.21974 25.7067 0 34.4534 12.32134 34.4534 36.388-10.1067-.55306-17.2267-.55306-27.3467-.55306-26.5467 0-64.8533 10.94373-64.8533 45.98226 0 30.3812 21.08 43.50827 51.16 43.50827 23.5466 0 37.2133-12.876 43.24-21.33587h.56v18.04107h24.0666c-.56-4.10254-1.0933-11.4812-1.0933-27.3624v-57.724c0-38.0536-16.1333-57.74293-56.0933-57.74293-17.7867 0-33.1067 5.47333-45.9867 13.12933l1.3733 21.88907M1540.6533 452.70267h25.72v-64.5624c0-33.95213 13.1333-57.46827 42.4133-57.46827 22.44 1.37467 29.5467 17.23334 29.5467 49.7948v72.23587h25.7333v-82.90773c0-37.49494-16.16-59.9216-52.2666-59.9216-19.4267 0-38.0267 9.57733-45.7067 25.44266h-.5333v-22.17333h-24.9067v139.56M1775.04 313.14267h-36.9334v-40.48533l-25.72 8.204v32.28133H1680.92v20.804h31.4666v81.56026c0 27.8932 16.4134 40.49054 42.9467 40.49054 8.2133 0 16.1467-2.18174 21.8933-3.83067v-21.89227c-3.8266 2.45734-9.5733 4.9188-17.5066 4.9188-11.76 0-21.6134-8.74373-21.6134-24.9068v-76.33986h36.9334v-20.804M1802.3333 448.3412c11.7467 6.28813 25.1733 7.65627 38.3067 7.65627 24.9066 0 48.6933-13.6844 48.6933-43.50827 0-44.59586-60.48-36.38386-60.48-64.86253 0-11.47733 11.5067-16.95467 24.6267-16.95467 6.0266 0 21.36 3.55467 27.12 7.1l2.1733-22.42533c-10.12-3.01733-19.9733-5.47333-32.0267-5.47333-27.6266 0-49.2533 13.96266-49.2533 42.94653 0 39.1428 60.4933 36.94533 60.4933 62.4084 0 15.04626-14.5066 19.96506-26.2666 19.96506-7.4 0-21.92-3.2708-32.0267-9.85306l-1.36 23.00093M625.49465 19.261345c-13.68135-6.021334-28.19065-8.210667-42.964-8.210667-58.28535 0-100.976 39.129332-100.976 97.961332 0 60.75333 40.228 99.60799 100.708 99.60799 11.21865 0 29.00135-.81733 43.50535-6.83866l-1.64135-26.54267c-9.57735 5.748-27.916 9.3-41.596 9.3-39.68 0-71.96665-29.824-71.96665-74.70533 0-42.95733 29.284-74.69733 73.33865-74.69733 13.94665 0 27.36135 3.56 39.40135 10.66667l2.19065-26.541335M743.0373 151.16267c0 20.796-13.4013 36.66-38.85465 36.66-11.76935 0-26-7.932-26-22.71333 0-24.63067 34.48135-26.81333 48.436-26.81333 5.47865 0 10.94935.548 16.41865.548v12.31866M668.056 97.52134c10.4-8.75466 25.9973-14.22933 40.5-14.22933 25.72665 0 34.4813 12.312 34.4813 36.392-10.12265-.544-17.2373-.544-27.36-.544-26.54265 0-64.85465 10.94933-64.85465 45.96933 0 30.38 21.072 43.51066 51.17335 43.51066 23.532 0 37.216-12.85733 43.23065-21.34133h.552V205.34h24.08c-.544-4.10933-1.096-11.49466-1.096-27.36666v-57.74533c0-38.02667-16.14665-57.73333-56.09865-57.73333-17.788 0-33.108 5.47466-45.9707 13.13733l1.3627 21.88933M799.6506 205.34H825.38v-70.32532c0-26.00267 10.3986-51.72267 36.6626-51.72267 20.7974 0 24.9027 21.61867 24.9027 38.86V205.34h25.7227v-70.32532c0-26.00267 10.4-51.72267 36.676-51.72267 20.7853 0 24.8893 21.61867 24.8893 38.86V205.34h25.72v-89.48666c0-30.37333-12.848-53.35866-48.4173-53.35866-12.592 0-33.6667 7.11333-43.2427 27.092-7.3867-18.884-23.5307-27.092-39.6853-27.092-20.5174 0-34.4694 7.392-44.3187 23.532h-.556V65.78001h-24.0827V205.34M1136.1506 135.01468c.556 21.88532-10.9453 52.80799-38.5866 52.80799-28.9854 0-41.0467-28.732-41.0467-51.98533 0-26.004 13.428-52.54533 41.3253-52.54533 27.9187 0 38.864 26.54133 38.308 51.72267M1030.8026 205.34h24.624v-19.70666h.5547c6.8427 10.40133 22.704 22.98666 47.612 22.98666 42.1373 0 59.9267-37.21066 59.9267-75.52666 0-37.48933-19.692-70.59866-60.2054-70.59866-24.3453 0-38.308 9.57733-46.2413 22.44133h-.556V.10667849h-25.7147V205.34M1188.3173 205.34h25.7173v-63.48666c0-35.02533 15.052-56.91733 38.032-56.91733 4.3787 0 9.5774.544 14.236 2.45733v-22.98c-5.4706-1.092-9.3226-1.91866-16.9693-1.91866-14.7773 0-29.5467 10.4-36.3907 24.89866h-.5546V65.78001h-24.0707V205.34M1323.9426 5.5786784h-28.9906V34.589344h28.9906V5.5786784M1296.5773 205.34h25.7413V65.78001h-25.7413V205.34M1377.7866 135.01468c-.5466-25.45334 10.4-51.72267 38.2934-51.72267 27.92 0 41.3466 26.54133 41.3466 52.54533 0 23.25333-12.0533 51.98533-41.04 51.98533-27.6533 0-39.1466-30.92267-38.6-52.80799m80.7067 70.32532h24.6533V.10667849h-25.72V84.93601h-.56c-7.9333-12.864-21.88-22.44133-46.24-22.44133-40.5066 0-60.2 33.10933-60.2 70.59866 0 38.04266 17.7734 75.52666 59.92 75.52666 24.92 0 40.7734-12.58533 47.6134-22.98666h.5333V205.34M1576.8933 184.53867c-24.0933 0-38.8667-22.98133-38.8667-49.25199 0-23.80667 12.8667-51.99467 38.8667-51.99467 27.36 0 40.76 24.90133 40.76 53.91333 0 25.98666-16.6933 47.33333-40.76 47.33333m66.48-118.75866h-23.8v20.796h-.5467c-7.6533-15.04267-21.36-24.08133-45.9866-24.08133-42.1334 0-62.3734 38.30933-62.3734 74.15466 0 36.12666 19.7067 68.69066 59.6667 68.69066 17.76 0 35.8267-7.12 46.7733-21.62h.5467v13.68134c0 29.552-16.1333 47.888-43.2267 47.888-18.88 0-30.6533-3.548-50.36-12.58934l-2.72 23.812c22.4267 7.656 35.28 9.58 50.0667 9.58 50.0667 0 71.96-24.35066 71.96-66.77733V65.78001M1698.2533 122.15201c1.9333-18.06 12.32-38.86 37.4933-38.86 22.1734 0 34.7734 17.512 34.7734 38.86h-72.2667m88.96 51.71999c-6.3067 5.196-26 13.95067-42.9733 13.95067-24.3467 0-45.9867-18.88133-45.9867-46.51067h99.6267c0-44.88666-15.0534-78.81732-61.5734-78.81732-39.4 0-65.4 29.28933-65.4 70.59866 0 45.42533 22.7067 75.52666 72.24 75.52666 22.9867 0 34.2-5.47066 44.0667-9.02933V173.872" fill="#656263"/>
  <path d="M0 35.67601h76.0156v30.53867C44.89373 83.22134 18.662 108.06934 0 138.11201v-102.436m312.27333 361.46786h60.05333V473.16H0V353.97614C36.1224 412.10373 100.56973 450.824 174.06266 450.824c53.26934 0 101.788-20.33333 138.21067-53.68013" fill="#b2b1b1"/>
  <path d="M60.5016-.0053215h372.3237V412.66H293.14c51.88532-37.15466 85.7-97.932 85.7-166.62 0-113.09599-91.684-204.781323-204.77734-204.781323-42.01266 0-81.06213 12.648003-113.56106 34.344003V-.0053215" fill="#1c418b"/>
  </svg>