<?xml version="1.0" encoding="UTF-8" standalone="no"?>
<svg
   xmlns:dc="http://purl.org/dc/elements/1.1/"
   xmlns:cc="http://creativecommons.org/ns#"
   xmlns:rdf="http://www.w3.org/1999/02/22-rdf-syntax-ns#"
   xmlns:svg="http://www.w3.org/2000/svg"
   xmlns="http://www.w3.org/2000/svg"
   viewBox="0 0 146.66667 58.666668"
   height="58.666668"
   width="146.66667"
   xml:space="preserve"
   id="svg2"
   version="1.1" preserveAspectRatio="xMinYMin"><metadata
     id="metadata8"><rdf:RDF><cc:Work
         rdf:about=""><dc:format>image/svg+xml</dc:format><dc:type
           rdf:resource="http://purl.org/dc/dcmitype/StillImage" /></cc:Work></rdf:RDF></metadata><defs
     id="defs6"><clipPath
       id="clipPath68"
       clipPathUnits="userSpaceOnUse"><path
         id="path66"
         d="m 963.32,128.086 -1.289,1.129 -121.172,104.969 h 54.18 L 978.281,142.965 1099.61,10.0039 Z" /></clipPath><clipPath
       id="clipPath74"
       clipPathUnits="userSpaceOnUse"><path
         id="path72"
         d="m 840,8.98438 h 260 v 230 H 840 Z" /></clipPath><clipPath
       id="clipPath80"
       clipPathUnits="userSpaceOnUse"><path
         id="path78"
         d="M 970.23,361.563 727.031,122.105 970.23,-117.387 1213.44,122.105 Z" /></clipPath><linearGradient
       id="linearGradient316"
       spreadMethod="pad"
       gradientTransform="matrix(243.219,-239.48,-243.219,-239.48,854.424,247.526)"
       gradientUnits="userSpaceOnUse"
       y2="0"
       x2="0.99999499"
       y1="0"
       x1="1.017e-05"><stop
         id="stop82"
         offset="0"
         style="stop-opacity:1;stop-color:#0f5d86" /><stop
         id="stop84"
         offset="0.25"
         style="stop-opacity:1;stop-color:#0f5d86" /><stop
         id="stop86"
         offset="0.253906"
         style="stop-opacity:1;stop-color:#145b89" /><stop
         id="stop88"
         offset="0.257813"
         style="stop-opacity:1;stop-color:#19598b" /><stop
         id="stop90"
         offset="0.261719"
         style="stop-opacity:1;stop-color:#1e578d" /><stop
         id="stop92"
         offset="0.265625"
         style="stop-opacity:1;stop-color:#235590" /><stop
         id="stop94"
         offset="0.269531"
         style="stop-opacity:1;stop-color:#285392" /><stop
         id="stop96"
         offset="0.273438"
         style="stop-opacity:1;stop-color:#2d5194" /><stop
         id="stop98"
         offset="0.277344"
         style="stop-opacity:1;stop-color:#324f97" /><stop
         id="stop100"
         offset="0.28125"
         style="stop-opacity:1;stop-color:#374d99" /><stop
         id="stop102"
         offset="0.285156"
         style="stop-opacity:1;stop-color:#3b4c9b" /><stop
         id="stop104"
         offset="0.289062"
         style="stop-opacity:1;stop-color:#404a9d" /><stop
         id="stop106"
         offset="0.292969"
         style="stop-opacity:1;stop-color:#44489f" /><stop
         id="stop108"
         offset="0.296875"
         style="stop-opacity:1;stop-color:#4946a1" /><stop
         id="stop110"
         offset="0.300781"
         style="stop-opacity:1;stop-color:#4d45a3" /><stop
         id="stop112"
         offset="0.304688"
         style="stop-opacity:1;stop-color:#5143a5" /><stop
         id="stop114"
         offset="0.308594"
         style="stop-opacity:1;stop-color:#5542a7" /><stop
         id="stop116"
         offset="0.3125"
         style="stop-opacity:1;stop-color:#5940a9" /><stop
         id="stop118"
         offset="0.316406"
         style="stop-opacity:1;stop-color:#5d3eab" /><stop
         id="stop120"
         offset="0.320313"
         style="stop-opacity:1;stop-color:#613dad" /><stop
         id="stop122"
         offset="0.324219"
         style="stop-opacity:1;stop-color:#653baf" /><stop
         id="stop124"
         offset="0.328125"
         style="stop-opacity:1;stop-color:#693ab1" /><stop
         id="stop126"
         offset="0.332031"
         style="stop-opacity:1;stop-color:#6c38b2" /><stop
         id="stop128"
         offset="0.335938"
         style="stop-opacity:1;stop-color:#7037b4" /><stop
         id="stop130"
         offset="0.339844"
         style="stop-opacity:1;stop-color:#7436b6" /><stop
         id="stop132"
         offset="0.34375"
         style="stop-opacity:1;stop-color:#7734b7" /><stop
         id="stop134"
         offset="0.347656"
         style="stop-opacity:1;stop-color:#7b33b9" /><stop
         id="stop136"
         offset="0.351562"
         style="stop-opacity:1;stop-color:#7e32ba" /><stop
         id="stop138"
         offset="0.355469"
         style="stop-opacity:1;stop-color:#8130bc" /><stop
         id="stop140"
         offset="0.359375"
         style="stop-opacity:1;stop-color:#842fbe" /><stop
         id="stop142"
         offset="0.363281"
         style="stop-opacity:1;stop-color:#882ebf" /><stop
         id="stop144"
         offset="0.367188"
         style="stop-opacity:1;stop-color:#8b2dc1" /><stop
         id="stop146"
         offset="0.371094"
         style="stop-opacity:1;stop-color:#8e2cc2" /><stop
         id="stop148"
         offset="0.375"
         style="stop-opacity:1;stop-color:#912ac3" /><stop
         id="stop150"
         offset="0.378906"
         style="stop-opacity:1;stop-color:#9429c5" /><stop
         id="stop152"
         offset="0.382813"
         style="stop-opacity:1;stop-color:#9728c6" /><stop
         id="stop154"
         offset="0.386719"
         style="stop-opacity:1;stop-color:#9927c7" /><stop
         id="stop156"
         offset="0.390625"
         style="stop-opacity:1;stop-color:#9c26c9" /><stop
         id="stop158"
         offset="0.394531"
         style="stop-opacity:1;stop-color:#9f25ca" /><stop
         id="stop160"
         offset="0.398438"
         style="stop-opacity:1;stop-color:#a124cb" /><stop
         id="stop162"
         offset="0.402344"
         style="stop-opacity:1;stop-color:#a423cc" /><stop
         id="stop164"
         offset="0.40625"
         style="stop-opacity:1;stop-color:#a722ce" /><stop
         id="stop166"
         offset="0.410156"
         style="stop-opacity:1;stop-color:#a921cf" /><stop
         id="stop168"
         offset="0.414062"
         style="stop-opacity:1;stop-color:#ab20d0" /><stop
         id="stop170"
         offset="0.417969"
         style="stop-opacity:1;stop-color:#ae1fd1" /><stop
         id="stop172"
         offset="0.421875"
         style="stop-opacity:1;stop-color:#b01ed2" /><stop
         id="stop174"
         offset="0.425781"
         style="stop-opacity:1;stop-color:#b21dd3" /><stop
         id="stop176"
         offset="0.429688"
         style="stop-opacity:1;stop-color:#b51dd4" /><stop
         id="stop178"
         offset="0.433594"
         style="stop-opacity:1;stop-color:#b71cd5" /><stop
         id="stop180"
         offset="0.4375"
         style="stop-opacity:1;stop-color:#b91bd6" /><stop
         id="stop182"
         offset="0.441406"
         style="stop-opacity:1;stop-color:#bb1ad7" /><stop
         id="stop184"
         offset="0.445313"
         style="stop-opacity:1;stop-color:#bd19d8" /><stop
         id="stop186"
         offset="0.449219"
         style="stop-opacity:1;stop-color:#bf19d9" /><stop
         id="stop188"
         offset="0.453125"
         style="stop-opacity:1;stop-color:#c118da" /><stop
         id="stop190"
         offset="0.457031"
         style="stop-opacity:1;stop-color:#c317db" /><stop
         id="stop192"
         offset="0.460938"
         style="stop-opacity:1;stop-color:#c516dc" /><stop
         id="stop194"
         offset="0.464844"
         style="stop-opacity:1;stop-color:#c616dd" /><stop
         id="stop196"
         offset="0.46875"
         style="stop-opacity:1;stop-color:#c815dd" /><stop
         id="stop198"
         offset="0.472656"
         style="stop-opacity:1;stop-color:#ca14de" /><stop
         id="stop200"
         offset="0.476562"
         style="stop-opacity:1;stop-color:#cc14df" /><stop
         id="stop202"
         offset="0.480469"
         style="stop-opacity:1;stop-color:#cd13e0" /><stop
         id="stop204"
         offset="0.484375"
         style="stop-opacity:1;stop-color:#cf12e1" /><stop
         id="stop206"
         offset="0.488281"
         style="stop-opacity:1;stop-color:#d012e1" /><stop
         id="stop208"
         offset="0.492188"
         style="stop-opacity:1;stop-color:#d211e2" /><stop
         id="stop210"
         offset="0.496094"
         style="stop-opacity:1;stop-color:#d311e3" /><stop
         id="stop212"
         offset="0.5"
         style="stop-opacity:1;stop-color:#d510e3" /><stop
         id="stop214"
         offset="0.503906"
         style="stop-opacity:1;stop-color:#d610e4" /><stop
         id="stop216"
         offset="0.507813"
         style="stop-opacity:1;stop-color:#d80fe5" /><stop
         id="stop218"
         offset="0.511719"
         style="stop-opacity:1;stop-color:#d90ee5" /><stop
         id="stop220"
         offset="0.515625"
         style="stop-opacity:1;stop-color:#da0ee6" /><stop
         id="stop222"
         offset="0.519531"
         style="stop-opacity:1;stop-color:#db0de6" /><stop
         id="stop224"
         offset="0.523438"
         style="stop-opacity:1;stop-color:#dd0de7" /><stop
         id="stop226"
         offset="0.527344"
         style="stop-opacity:1;stop-color:#de0de8" /><stop
         id="stop228"
         offset="0.53125"
         style="stop-opacity:1;stop-color:#df0ce8" /><stop
         id="stop230"
         offset="0.535156"
         style="stop-opacity:1;stop-color:#e00ce9" /><stop
         id="stop232"
         offset="0.539063"
         style="stop-opacity:1;stop-color:#e10be9" /><stop
         id="stop234"
         offset="0.542969"
         style="stop-opacity:1;stop-color:#e20bea" /><stop
         id="stop236"
         offset="0.546875"
         style="stop-opacity:1;stop-color:#e30aea" /><stop
         id="stop238"
         offset="0.550781"
         style="stop-opacity:1;stop-color:#e40aeb" /><stop
         id="stop240"
         offset="0.554688"
         style="stop-opacity:1;stop-color:#e50aeb" /><stop
         id="stop242"
         offset="0.558594"
         style="stop-opacity:1;stop-color:#e609ec" /><stop
         id="stop244"
         offset="0.5625"
         style="stop-opacity:1;stop-color:#e709ec" /><stop
         id="stop246"
         offset="0.566406"
         style="stop-opacity:1;stop-color:#e809ec" /><stop
         id="stop248"
         offset="0.570313"
         style="stop-opacity:1;stop-color:#e908ed" /><stop
         id="stop250"
         offset="0.574219"
         style="stop-opacity:1;stop-color:#ea08ed" /><stop
         id="stop252"
         offset="0.578125"
         style="stop-opacity:1;stop-color:#eb08ee" /><stop
         id="stop254"
         offset="0.582031"
         style="stop-opacity:1;stop-color:#ec07ee" /><stop
         id="stop256"
         offset="0.585937"
         style="stop-opacity:1;stop-color:#ec07ee" /><stop
         id="stop258"
         offset="0.589844"
         style="stop-opacity:1;stop-color:#ed07ef" /><stop
         id="stop260"
         offset="0.59375"
         style="stop-opacity:1;stop-color:#ee06ef" /><stop
         id="stop262"
         offset="0.597656"
         style="stop-opacity:1;stop-color:#ef06ef" /><stop
         id="stop264"
         offset="0.601563"
         style="stop-opacity:1;stop-color:#ef06f0" /><stop
         id="stop266"
         offset="0.605469"
         style="stop-opacity:1;stop-color:#f006f0" /><stop
         id="stop268"
         offset="0.609375"
         style="stop-opacity:1;stop-color:#f105f0" /><stop
         id="stop270"
         offset="0.613281"
         style="stop-opacity:1;stop-color:#f105f1" /><stop
         id="stop272"
         offset="0.617188"
         style="stop-opacity:1;stop-color:#f205f1" /><stop
         id="stop274"
         offset="0.621094"
         style="stop-opacity:1;stop-color:#f205f1" /><stop
         id="stop276"
         offset="0.625"
         style="stop-opacity:1;stop-color:#f304f2" /><stop
         id="stop278"
         offset="0.628906"
         style="stop-opacity:1;stop-color:#f404f2" /><stop
         id="stop280"
         offset="0.632813"
         style="stop-opacity:1;stop-color:#f404f2" /><stop
         id="stop282"
         offset="0.636719"
         style="stop-opacity:1;stop-color:#f504f2" /><stop
         id="stop284"
         offset="0.640625"
         style="stop-opacity:1;stop-color:#f504f3" /><stop
         id="stop286"
         offset="0.648438"
         style="stop-opacity:1;stop-color:#f603f3" /><stop
         id="stop288"
         offset="0.65625"
         style="stop-opacity:1;stop-color:#f603f3" /><stop
         id="stop290"
         offset="0.664063"
         style="stop-opacity:1;stop-color:#f703f4" /><stop
         id="stop292"
         offset="0.671875"
         style="stop-opacity:1;stop-color:#f802f4" /><stop
         id="stop294"
         offset="0.679688"
         style="stop-opacity:1;stop-color:#f902f4" /><stop
         id="stop296"
         offset="0.6875"
         style="stop-opacity:1;stop-color:#f902f5" /><stop
         id="stop298"
         offset="0.695313"
         style="stop-opacity:1;stop-color:#fa02f5" /><stop
         id="stop300"
         offset="0.703125"
         style="stop-opacity:1;stop-color:#fb01f5" /><stop
         id="stop302"
         offset="0.71875"
         style="stop-opacity:1;stop-color:#fb01f6" /><stop
         id="stop304"
         offset="0.734375"
         style="stop-opacity:1;stop-color:#fc01f6" /><stop
         id="stop306"
         offset="0.75"
         style="stop-opacity:1;stop-color:#fd00f6" /><stop
         id="stop308"
         offset="0.78125"
         style="stop-opacity:1;stop-color:#fe00f7" /><stop
         id="stop310"
         offset="0.8125"
         style="stop-opacity:1;stop-color:#ff00f7" /><stop
         id="stop312"
         offset="0.875"
         style="stop-opacity:1;stop-color:#ff00f7" /><stop
         id="stop314"
         offset="1"
         style="stop-opacity:1;stop-color:#ff00f7" /></linearGradient><clipPath
       id="clipPath326"
       clipPathUnits="userSpaceOnUse"><path
         id="path324"
         d="m 703.98,438.984 18.211,-17.929 26.68,-26.25 3.117,-3.09 h 185.711 c 4.02,0 7.813,-0.781 11.211,-2.18 3.59,-1.449 6.828,-3.64 9.531,-6.25 v -0.039 c 2.731,-2.703 4.918,-5.902 6.399,-9.422 1.449,-3.359 2.23,-7.07 2.23,-10.969 0,-3.949 -0.781,-7.66 -2.23,-11.019 -1.481,-3.512 -3.668,-6.68 -6.399,-9.41 -2.742,-2.66 -5.98,-4.852 -9.531,-6.293 -3.398,-1.41 -7.191,-2.188 -11.211,-2.188 H 784.141 v -50.621 l 3.629,-3.129 58.832,-50.98 h 53.007 l -52.461,57.5 h 90.551 c 10.422,0 20.422,2.039 29.571,5.789 9.492,3.859 17.96,9.531 25.109,16.519 7.07,6.993 12.851,15.391 16.801,24.731 3.79,9.019 5.86,18.82 5.86,29.101 0,10.231 -2.07,20.079 -5.86,29.059 -3.95,9.34 -9.731,17.731 -16.801,24.731 -7.109,6.988 -15.617,12.648 -25.109,16.519 -9.149,3.75 -19.149,5.82 -29.571,5.82 z m -65.46,0 -3.129,-3.089 -146.911,-144.68 -146.96,144.68 -3.122,3.089 h -67.847 l 18.199,-17.929 182.73,-179.961 9.461,-9.258 7.539,-7.422 7.54,7.422 9.41,9.258 136.129,134.019 V 234.184 h 48.011 v 204.8 z m -559.4184,0 c -10.4297,0 -20.3907,-2.07 -29.5313,-5.82 -9.4922,-3.871 -18.0117,-9.531 -25.1211,-16.519 -7.1094,-7 -12.8476,-15.391 -16.78904,-24.731 -3.78907,-8.98 -5.85938,-18.828 -5.85938,-29.059 v -52.542 c 0,-10.239 2.07031,-20.079 5.85938,-29.059 3.94144,-9.34 9.67964,-17.738 16.78904,-24.731 7.1094,-6.988 15.6289,-12.66 25.1211,-16.519 9.1406,-3.75 19.1016,-5.82 29.5313,-5.82 H 428.32 l -18.199,17.921 -9.422,9.301 -17.258,16.957 -3.132,3.082 H 79.1016 c -3.9805,0 -7.7735,0.778 -11.1719,2.188 -3.5508,1.441 -6.8008,3.59 -9.5313,6.293 -2.7382,2.687 -4.9179,5.898 -6.4492,9.41 -1.3984,3.359 -2.1797,7.07 -2.1797,10.977 v 52.542 c 0,3.899 0.7813,7.61 2.1797,10.969 1.5313,3.52 3.711,6.719 6.4492,9.422 h -0.039 c 2.7304,2.649 5.9804,4.84 9.5703,6.289 3.3984,1.399 7.1914,2.18 11.1719,2.18 H 273.398 l -18.238,17.93 -9.422,9.3 -17.218,16.95 -3.129,3.089 z" /></clipPath><clipPath
       id="clipPath332"
       clipPathUnits="userSpaceOnUse"><path
         id="path330"
         d="m 0,218.984 h 1020 v 220 H 0 Z" /></clipPath><clipPath
       id="clipPath338"
       clipPathUnits="userSpaceOnUse"><path
         id="path336"
         d="M 508.398,937.813 -107.191,331.684 508.398,-274.457 1124.02,331.684 Z" /></clipPath><linearGradient
       id="linearGradient708"
       spreadMethod="pad"
       gradientTransform="matrix(538.606,-530.325,-538.606,-530.325,225.787,614.874)"
       gradientUnits="userSpaceOnUse"
       y2="0"
       x2="1.10085"
       y1="0"
       x1="-0.042101599"><stop
         id="stop340"
         offset="0"
         style="stop-opacity:1;stop-color:#0f5d86" /><stop
         id="stop342"
         offset="0.03125"
         style="stop-opacity:1;stop-color:#0f5d86" /><stop
         id="stop344"
         offset="0.0390625"
         style="stop-opacity:1;stop-color:#0f5d86" /><stop
         id="stop346"
         offset="0.0429688"
         style="stop-opacity:1;stop-color:#105f87" /><stop
         id="stop348"
         offset="0.046875"
         style="stop-opacity:1;stop-color:#116188" /><stop
         id="stop350"
         offset="0.0507813"
         style="stop-opacity:1;stop-color:#116289" /><stop
         id="stop352"
         offset="0.0546875"
         style="stop-opacity:1;stop-color:#126489" /><stop
         id="stop354"
         offset="0.0585938"
         style="stop-opacity:1;stop-color:#13658a" /><stop
         id="stop356"
         offset="0.0625"
         style="stop-opacity:1;stop-color:#14678b" /><stop
         id="stop358"
         offset="0.0664063"
         style="stop-opacity:1;stop-color:#14688c" /><stop
         id="stop360"
         offset="0.0703125"
         style="stop-opacity:1;stop-color:#156a8c" /><stop
         id="stop362"
         offset="0.0742188"
         style="stop-opacity:1;stop-color:#166b8d" /><stop
         id="stop364"
         offset="0.078125"
         style="stop-opacity:1;stop-color:#176d8e" /><stop
         id="stop366"
         offset="0.0820313"
         style="stop-opacity:1;stop-color:#176e8f" /><stop
         id="stop368"
         offset="0.0859375"
         style="stop-opacity:1;stop-color:#18708f" /><stop
         id="stop370"
         offset="0.0898438"
         style="stop-opacity:1;stop-color:#197190" /><stop
         id="stop372"
         offset="0.09375"
         style="stop-opacity:1;stop-color:#197391" /><stop
         id="stop374"
         offset="0.0976563"
         style="stop-opacity:1;stop-color:#1a7492" /><stop
         id="stop376"
         offset="0.101563"
         style="stop-opacity:1;stop-color:#1b7692" /><stop
         id="stop378"
         offset="0.105469"
         style="stop-opacity:1;stop-color:#1c7793" /><stop
         id="stop380"
         offset="0.109375"
         style="stop-opacity:1;stop-color:#1c7994" /><stop
         id="stop382"
         offset="0.113281"
         style="stop-opacity:1;stop-color:#1d7a95" /><stop
         id="stop384"
         offset="0.117188"
         style="stop-opacity:1;stop-color:#1e7c95" /><stop
         id="stop386"
         offset="0.121094"
         style="stop-opacity:1;stop-color:#1e7d96" /><stop
         id="stop388"
         offset="0.125"
         style="stop-opacity:1;stop-color:#1f7e97" /><stop
         id="stop390"
         offset="0.128906"
         style="stop-opacity:1;stop-color:#208097" /><stop
         id="stop392"
         offset="0.132813"
         style="stop-opacity:1;stop-color:#218198" /><stop
         id="stop394"
         offset="0.136719"
         style="stop-opacity:1;stop-color:#218399" /><stop
         id="stop396"
         offset="0.140625"
         style="stop-opacity:1;stop-color:#228499" /><stop
         id="stop398"
         offset="0.144531"
         style="stop-opacity:1;stop-color:#23859a" /><stop
         id="stop400"
         offset="0.148438"
         style="stop-opacity:1;stop-color:#23879b" /><stop
         id="stop402"
         offset="0.152344"
         style="stop-opacity:1;stop-color:#24889c" /><stop
         id="stop404"
         offset="0.15625"
         style="stop-opacity:1;stop-color:#258a9c" /><stop
         id="stop406"
         offset="0.160156"
         style="stop-opacity:1;stop-color:#258b9d" /><stop
         id="stop408"
         offset="0.164063"
         style="stop-opacity:1;stop-color:#268c9e" /><stop
         id="stop410"
         offset="0.167969"
         style="stop-opacity:1;stop-color:#278e9e" /><stop
         id="stop412"
         offset="0.171875"
         style="stop-opacity:1;stop-color:#278f9f" /><stop
         id="stop414"
         offset="0.175781"
         style="stop-opacity:1;stop-color:#2890a0" /><stop
         id="stop416"
         offset="0.179688"
         style="stop-opacity:1;stop-color:#2992a0" /><stop
         id="stop418"
         offset="0.183594"
         style="stop-opacity:1;stop-color:#2993a1" /><stop
         id="stop420"
         offset="0.1875"
         style="stop-opacity:1;stop-color:#2a94a2" /><stop
         id="stop422"
         offset="0.191406"
         style="stop-opacity:1;stop-color:#2b96a2" /><stop
         id="stop424"
         offset="0.195313"
         style="stop-opacity:1;stop-color:#2b97a3" /><stop
         id="stop426"
         offset="0.199219"
         style="stop-opacity:1;stop-color:#2c98a4" /><stop
         id="stop428"
         offset="0.203125"
         style="stop-opacity:1;stop-color:#2d9aa4" /><stop
         id="stop430"
         offset="0.207031"
         style="stop-opacity:1;stop-color:#2d9ba5" /><stop
         id="stop432"
         offset="0.210938"
         style="stop-opacity:1;stop-color:#2e9ca6" /><stop
         id="stop434"
         offset="0.214844"
         style="stop-opacity:1;stop-color:#2f9ea6" /><stop
         id="stop436"
         offset="0.21875"
         style="stop-opacity:1;stop-color:#2f9fa7" /><stop
         id="stop438"
         offset="0.222656"
         style="stop-opacity:1;stop-color:#30a0a7" /><stop
         id="stop440"
         offset="0.226563"
         style="stop-opacity:1;stop-color:#31a1a8" /><stop
         id="stop442"
         offset="0.230469"
         style="stop-opacity:1;stop-color:#31a3a9" /><stop
         id="stop444"
         offset="0.234375"
         style="stop-opacity:1;stop-color:#32a4a9" /><stop
         id="stop446"
         offset="0.238281"
         style="stop-opacity:1;stop-color:#32a5aa" /><stop
         id="stop448"
         offset="0.242188"
         style="stop-opacity:1;stop-color:#33a6ab" /><stop
         id="stop450"
         offset="0.246094"
         style="stop-opacity:1;stop-color:#34a8ab" /><stop
         id="stop452"
         offset="0.25"
         style="stop-opacity:1;stop-color:#34a9ac" /><stop
         id="stop454"
         offset="0.253906"
         style="stop-opacity:1;stop-color:#35aaac" /><stop
         id="stop456"
         offset="0.257813"
         style="stop-opacity:1;stop-color:#35abad" /><stop
         id="stop458"
         offset="0.261719"
         style="stop-opacity:1;stop-color:#36acae" /><stop
         id="stop460"
         offset="0.265625"
         style="stop-opacity:1;stop-color:#37aeae" /><stop
         id="stop462"
         offset="0.269531"
         style="stop-opacity:1;stop-color:#37afaf" /><stop
         id="stop464"
         offset="0.273437"
         style="stop-opacity:1;stop-color:#38b0af" /><stop
         id="stop466"
         offset="0.277344"
         style="stop-opacity:1;stop-color:#38b1b0" /><stop
         id="stop468"
         offset="0.28125"
         style="stop-opacity:1;stop-color:#39b2b0" /><stop
         id="stop470"
         offset="0.285156"
         style="stop-opacity:1;stop-color:#3ab3b1" /><stop
         id="stop472"
         offset="0.289063"
         style="stop-opacity:1;stop-color:#3ab5b2" /><stop
         id="stop474"
         offset="0.292969"
         style="stop-opacity:1;stop-color:#3bb6b2" /><stop
         id="stop476"
         offset="0.296875"
         style="stop-opacity:1;stop-color:#3bb7b3" /><stop
         id="stop478"
         offset="0.300781"
         style="stop-opacity:1;stop-color:#3cb8b3" /><stop
         id="stop480"
         offset="0.304688"
         style="stop-opacity:1;stop-color:#3cb9b4" /><stop
         id="stop482"
         offset="0.308594"
         style="stop-opacity:1;stop-color:#3dbab4" /><stop
         id="stop484"
         offset="0.3125"
         style="stop-opacity:1;stop-color:#3dbbb5" /><stop
         id="stop486"
         offset="0.316406"
         style="stop-opacity:1;stop-color:#3ebcb5" /><stop
         id="stop488"
         offset="0.320313"
         style="stop-opacity:1;stop-color:#3ebdb6" /><stop
         id="stop490"
         offset="0.324219"
         style="stop-opacity:1;stop-color:#3fbeb6" /><stop
         id="stop492"
         offset="0.328125"
         style="stop-opacity:1;stop-color:#40c0b7" /><stop
         id="stop494"
         offset="0.332031"
         style="stop-opacity:1;stop-color:#40c1b7" /><stop
         id="stop496"
         offset="0.335937"
         style="stop-opacity:1;stop-color:#41c2b8" /><stop
         id="stop498"
         offset="0.339844"
         style="stop-opacity:1;stop-color:#41c3b9" /><stop
         id="stop500"
         offset="0.34375"
         style="stop-opacity:1;stop-color:#42c4b9" /><stop
         id="stop502"
         offset="0.347656"
         style="stop-opacity:1;stop-color:#42c5ba" /><stop
         id="stop504"
         offset="0.351563"
         style="stop-opacity:1;stop-color:#43c6ba" /><stop
         id="stop506"
         offset="0.355469"
         style="stop-opacity:1;stop-color:#43c7ba" /><stop
         id="stop508"
         offset="0.359375"
         style="stop-opacity:1;stop-color:#43c8bb" /><stop
         id="stop510"
         offset="0.363281"
         style="stop-opacity:1;stop-color:#44c9bb" /><stop
         id="stop512"
         offset="0.367188"
         style="stop-opacity:1;stop-color:#44c9bc" /><stop
         id="stop514"
         offset="0.371094"
         style="stop-opacity:1;stop-color:#45cabc" /><stop
         id="stop516"
         offset="0.375"
         style="stop-opacity:1;stop-color:#45cbbd" /><stop
         id="stop518"
         offset="0.378906"
         style="stop-opacity:1;stop-color:#46ccbd" /><stop
         id="stop520"
         offset="0.382813"
         style="stop-opacity:1;stop-color:#46cdbe" /><stop
         id="stop522"
         offset="0.386719"
         style="stop-opacity:1;stop-color:#47cebe" /><stop
         id="stop524"
         offset="0.390625"
         style="stop-opacity:1;stop-color:#47cfbf" /><stop
         id="stop526"
         offset="0.394531"
         style="stop-opacity:1;stop-color:#48d0bf" /><stop
         id="stop528"
         offset="0.398437"
         style="stop-opacity:1;stop-color:#48d1bf" /><stop
         id="stop530"
         offset="0.402344"
         style="stop-opacity:1;stop-color:#48d1c0" /><stop
         id="stop532"
         offset="0.40625"
         style="stop-opacity:1;stop-color:#49d2c0" /><stop
         id="stop534"
         offset="0.410156"
         style="stop-opacity:1;stop-color:#49d3c1" /><stop
         id="stop536"
         offset="0.414063"
         style="stop-opacity:1;stop-color:#4ad4c1" /><stop
         id="stop538"
         offset="0.417969"
         style="stop-opacity:1;stop-color:#4ad4c1" /><stop
         id="stop540"
         offset="0.421875"
         style="stop-opacity:1;stop-color:#4ad5c2" /><stop
         id="stop542"
         offset="0.425781"
         style="stop-opacity:1;stop-color:#4bd6c2" /><stop
         id="stop544"
         offset="0.429688"
         style="stop-opacity:1;stop-color:#4bd7c2" /><stop
         id="stop546"
         offset="0.433594"
         style="stop-opacity:1;stop-color:#4bd7c3" /><stop
         id="stop548"
         offset="0.4375"
         style="stop-opacity:1;stop-color:#4cd8c3" /><stop
         id="stop550"
         offset="0.441406"
         style="stop-opacity:1;stop-color:#4cd9c3" /><stop
         id="stop552"
         offset="0.445313"
         style="stop-opacity:1;stop-color:#4cd9c4" /><stop
         id="stop554"
         offset="0.449219"
         style="stop-opacity:1;stop-color:#4cdac4" /><stop
         id="stop556"
         offset="0.453125"
         style="stop-opacity:1;stop-color:#4ddac4" /><stop
         id="stop558"
         offset="0.460937"
         style="stop-opacity:1;stop-color:#4ddbc4" /><stop
         id="stop560"
         offset="0.46875"
         style="stop-opacity:1;stop-color:#4ddcc5" /><stop
         id="stop562"
         offset="0.5"
         style="stop-opacity:1;stop-color:#4edcc5" /><stop
         id="stop564"
         offset="0.507813"
         style="stop-opacity:1;stop-color:#4ddbc5" /><stop
         id="stop566"
         offset="0.515625"
         style="stop-opacity:1;stop-color:#4ddbc4" /><stop
         id="stop568"
         offset="0.523438"
         style="stop-opacity:1;stop-color:#4ddac4" /><stop
         id="stop570"
         offset="0.527344"
         style="stop-opacity:1;stop-color:#4cd9c4" /><stop
         id="stop572"
         offset="0.53125"
         style="stop-opacity:1;stop-color:#4cd8c3" /><stop
         id="stop574"
         offset="0.535156"
         style="stop-opacity:1;stop-color:#4cd8c3" /><stop
         id="stop576"
         offset="0.539062"
         style="stop-opacity:1;stop-color:#4bd7c3" /><stop
         id="stop578"
         offset="0.542969"
         style="stop-opacity:1;stop-color:#4bd6c2" /><stop
         id="stop580"
         offset="0.546875"
         style="stop-opacity:1;stop-color:#4bd6c2" /><stop
         id="stop582"
         offset="0.550781"
         style="stop-opacity:1;stop-color:#4ad5c2" /><stop
         id="stop584"
         offset="0.554688"
         style="stop-opacity:1;stop-color:#4ad4c1" /><stop
         id="stop586"
         offset="0.558594"
         style="stop-opacity:1;stop-color:#49d3c1" /><stop
         id="stop588"
         offset="0.5625"
         style="stop-opacity:1;stop-color:#49d3c0" /><stop
         id="stop590"
         offset="0.566406"
         style="stop-opacity:1;stop-color:#48d2c0" /><stop
         id="stop592"
         offset="0.570313"
         style="stop-opacity:1;stop-color:#48d1bf" /><stop
         id="stop594"
         offset="0.574219"
         style="stop-opacity:1;stop-color:#47d0bf" /><stop
         id="stop596"
         offset="0.578125"
         style="stop-opacity:1;stop-color:#47cfbe" /><stop
         id="stop598"
         offset="0.582031"
         style="stop-opacity:1;stop-color:#46cebe" /><stop
         id="stop600"
         offset="0.585938"
         style="stop-opacity:1;stop-color:#46ccbd" /><stop
         id="stop602"
         offset="0.589844"
         style="stop-opacity:1;stop-color:#45cbbd" /><stop
         id="stop604"
         offset="0.59375"
         style="stop-opacity:1;stop-color:#45cabc" /><stop
         id="stop606"
         offset="0.597656"
         style="stop-opacity:1;stop-color:#44c9bc" /><stop
         id="stop608"
         offset="0.601563"
         style="stop-opacity:1;stop-color:#43c7bb" /><stop
         id="stop610"
         offset="0.605469"
         style="stop-opacity:1;stop-color:#43c6ba" /><stop
         id="stop612"
         offset="0.609375"
         style="stop-opacity:1;stop-color:#42c5ba" /><stop
         id="stop614"
         offset="0.613281"
         style="stop-opacity:1;stop-color:#41c3b9" /><stop
         id="stop616"
         offset="0.617188"
         style="stop-opacity:1;stop-color:#41c2b8" /><stop
         id="stop618"
         offset="0.621094"
         style="stop-opacity:1;stop-color:#40c0b7" /><stop
         id="stop620"
         offset="0.625"
         style="stop-opacity:1;stop-color:#3fbfb7" /><stop
         id="stop622"
         offset="0.628906"
         style="stop-opacity:1;stop-color:#3ebdb6" /><stop
         id="stop624"
         offset="0.632813"
         style="stop-opacity:1;stop-color:#3ebcb5" /><stop
         id="stop626"
         offset="0.636719"
         style="stop-opacity:1;stop-color:#3dbab4" /><stop
         id="stop628"
         offset="0.640625"
         style="stop-opacity:1;stop-color:#3cb8b3" /><stop
         id="stop630"
         offset="0.644531"
         style="stop-opacity:1;stop-color:#3bb6b2" /><stop
         id="stop632"
         offset="0.648438"
         style="stop-opacity:1;stop-color:#3ab5b1" /><stop
         id="stop634"
         offset="0.652344"
         style="stop-opacity:1;stop-color:#39b3b1" /><stop
         id="stop636"
         offset="0.65625"
         style="stop-opacity:1;stop-color:#38b1b0" /><stop
         id="stop638"
         offset="0.660156"
         style="stop-opacity:1;stop-color:#37afaf" /><stop
         id="stop640"
         offset="0.664062"
         style="stop-opacity:1;stop-color:#36adae" /><stop
         id="stop642"
         offset="0.667969"
         style="stop-opacity:1;stop-color:#35abad" /><stop
         id="stop644"
         offset="0.671875"
         style="stop-opacity:1;stop-color:#34a9ac" /><stop
         id="stop646"
         offset="0.675781"
         style="stop-opacity:1;stop-color:#33a7ab" /><stop
         id="stop648"
         offset="0.679688"
         style="stop-opacity:1;stop-color:#32a4a9" /><stop
         id="stop650"
         offset="0.683594"
         style="stop-opacity:1;stop-color:#31a2a8" /><stop
         id="stop652"
         offset="0.6875"
         style="stop-opacity:1;stop-color:#30a0a7" /><stop
         id="stop654"
         offset="0.691406"
         style="stop-opacity:1;stop-color:#2f9ea6" /><stop
         id="stop656"
         offset="0.695313"
         style="stop-opacity:1;stop-color:#2d9ba5" /><stop
         id="stop658"
         offset="0.699219"
         style="stop-opacity:1;stop-color:#2c99a4" /><stop
         id="stop660"
         offset="0.703125"
         style="stop-opacity:1;stop-color:#2b96a3" /><stop
         id="stop662"
         offset="0.707031"
         style="stop-opacity:1;stop-color:#2a94a1" /><stop
         id="stop664"
         offset="0.710938"
         style="stop-opacity:1;stop-color:#2991a0" /><stop
         id="stop666"
         offset="0.714844"
         style="stop-opacity:1;stop-color:#278f9f" /><stop
         id="stop668"
         offset="0.71875"
         style="stop-opacity:1;stop-color:#268c9e" /><stop
         id="stop670"
         offset="0.722656"
         style="stop-opacity:1;stop-color:#258a9c" /><stop
         id="stop672"
         offset="0.726563"
         style="stop-opacity:1;stop-color:#23879b" /><stop
         id="stop674"
         offset="0.730469"
         style="stop-opacity:1;stop-color:#228499" /><stop
         id="stop676"
         offset="0.734375"
         style="stop-opacity:1;stop-color:#218198" /><stop
         id="stop678"
         offset="0.738281"
         style="stop-opacity:1;stop-color:#1f7e97" /><stop
         id="stop680"
         offset="0.742188"
         style="stop-opacity:1;stop-color:#1e7c95" /><stop
         id="stop682"
         offset="0.746094"
         style="stop-opacity:1;stop-color:#1c7994" /><stop
         id="stop684"
         offset="0.75"
         style="stop-opacity:1;stop-color:#1b7692" /><stop
         id="stop686"
         offset="0.753906"
         style="stop-opacity:1;stop-color:#197391" /><stop
         id="stop688"
         offset="0.757813"
         style="stop-opacity:1;stop-color:#18708f" /><stop
         id="stop690"
         offset="0.761719"
         style="stop-opacity:1;stop-color:#166c8e" /><stop
         id="stop692"
         offset="0.765625"
         style="stop-opacity:1;stop-color:#15698c" /><stop
         id="stop694"
         offset="0.769531"
         style="stop-opacity:1;stop-color:#13668b" /><stop
         id="stop696"
         offset="0.773438"
         style="stop-opacity:1;stop-color:#126389" /><stop
         id="stop698"
         offset="0.777344"
         style="stop-opacity:1;stop-color:#106088" /><stop
         id="stop700"
         offset="0.78125"
         style="stop-opacity:1;stop-color:#0f5d86" /><stop
         id="stop702"
         offset="0.8125"
         style="stop-opacity:1;stop-color:#0f5d86" /><stop
         id="stop704"
         offset="0.875"
         style="stop-opacity:1;stop-color:#0f5d86" /><stop
         id="stop706"
         offset="1"
         style="stop-opacity:1;stop-color:#0f5d86" /></linearGradient></defs><g
     transform="matrix(1.3333333,0,0,-1.3333333,0,58.666667)"
     id="g10"><g
       transform="scale(0.1)"
       id="g12"><path
         id="path14"
         style="fill:#787f78;fill-opacity:1;fill-rule:nonzero;stroke:none"
         d="m 24.8398,164.301 c -2.5,-1.571 -5.5781,-2.352 -9.2187,-2.352 -4.6797,0 -8.51172,1.571 -11.40235,4.692 C 1.41016,169.84 0,174.02 0,179.141 c 0,5.39 1.60156,9.839 4.83984,13.281 3.21094,3.519 7.39066,5.308 12.49996,5.308 2.5821,0 5.1602,-0.539 7.6602,-1.558 v -3.594 c -2.5,1.563 -5.2305,2.344 -8.1211,2.344 -4.0703,0 -7.42968,-1.481 -9.99999,-4.371 -2.5,-2.821 -3.75782,-6.531 -3.75782,-11.102 0,-4.488 1.14063,-8.078 3.4375,-10.777 2.39063,-2.621 5.47271,-3.902 9.22271,-3.902 3.5195,0 6.5585,0.851 9.0585,2.652 z" /><path
         id="path16"
         style="fill:#787f78;fill-opacity:1;fill-rule:nonzero;stroke:none"
         d="m 53.9492,162.73 v 6.879 h -0.1601 c -1.0586,-2.418 -2.6602,-4.3 -4.8399,-5.629 -2.1094,-1.32 -4.4609,-2.031 -7.039,-2.031 -3.2383,0 -5.8594,0.86 -7.8086,2.66 -1.8711,1.871 -2.8125,4.141 -2.8125,6.871 0,6.02 3.9804,9.61 12.0312,10.79 l 10.6289,1.558 c 0,7.383 -2.8203,11.094 -8.4375,11.094 -3.75,0 -7.4609,-1.524 -11.1015,-4.531 v 3.75 c 1.3281,0.937 3.1289,1.757 5.3203,2.5 2.1797,0.699 4.2187,1.089 6.0898,1.089 3.6289,0 6.4102,-1.089 8.2813,-3.281 1.9492,-2.179 2.9687,-5.39 2.9687,-9.527 V 162.73 Z m -9.539,17.04 c -3.6719,-0.551 -6.211,-1.372 -7.6485,-2.5 -1.4922,-1.18 -2.1914,-3.051 -2.1914,-5.629 0,-1.993 0.6602,-3.672 2.0313,-5 1.3281,-1.25 3.2773,-1.871 5.7773,-1.871 3.3203,0 6.1016,1.171 8.2813,3.589 2.1914,2.379 3.289,5.512 3.289,9.371 v 3.442 z" /><path
         id="path18"
         style="fill:#787f78;fill-opacity:1;fill-rule:nonzero;stroke:none"
         d="m 111.02,162.73 v 20.469 c 0,4.379 -0.711,7.391 -2.04,9.071 -1.359,1.75 -3.55,2.652 -6.558,2.652 -2.7306,0 -5.0822,-1.172 -7.0314,-3.442 -1.9922,-2.3 -2.9687,-5.23 -2.9687,-8.75 v -20 h -3.1211 v 20.79 c 0,7.57 -2.9297,11.402 -8.75,11.402 -2.9297,0 -5.3203,-1.211 -7.1914,-3.594 -1.8008,-2.308 -2.6602,-5.277 -2.6602,-8.906 V 162.73 h -3.1211 v 34.219 h 3.1211 v -5.777 c 2.5,4.379 6.0196,6.558 10.6289,6.558 2.5821,0 4.7617,-0.742 6.5625,-2.179 1.7578,-1.492 2.9688,-3.36 3.5899,-5.629 1.0195,2.5 2.539,4.418 4.539,5.777 2.0703,1.332 4.2895,2.031 6.7105,2.031 7.579,0 11.411,-4.64 11.411,-13.902 V 162.73 Z" /><path
         id="path20"
         style="fill:#787f78;fill-opacity:1;fill-rule:nonzero;stroke:none"
         d="m 127.73,168.828 v -6.098 h -3.121 v 50.469 h 3.121 V 189.77 c 1.25,2.57 3.008,4.57 5.321,5.929 2.379,1.332 4.918,2.031 7.648,2.031 4.461,0 7.891,-1.519 10.321,-4.531 2.5,-3.039 3.75,-7.109 3.75,-12.179 0,-5.75 -1.489,-10.399 -4.379,-13.911 -2.813,-3.437 -6.52,-5.16 -11.09,-5.16 -5.242,0 -9.071,2.27 -11.571,6.879 z m 0,12.652 v -4.21 c 0,-3.442 1.098,-6.411 3.29,-8.911 2.179,-2.418 5.031,-3.589 8.589,-3.589 3.512,0 6.411,1.441 8.59,4.371 2.192,3.007 3.281,6.949 3.281,11.879 0,4.25 -1.05,7.652 -3.121,10.152 -1.988,2.5 -4.648,3.75 -7.968,3.75 -4.063,0 -7.192,-1.371 -9.371,-4.063 -2.192,-2.621 -3.29,-5.738 -3.29,-9.379 z" /><path
         id="path22"
         style="fill:#787f78;fill-opacity:1;fill-rule:nonzero;stroke:none"
         d="m 179.73,193.672 c -1.058,0.707 -2.269,1.098 -3.601,1.098 -2.731,0 -5,-1.411 -6.867,-4.219 -1.883,-2.742 -2.813,-6.641 -2.813,-11.723 V 162.73 h -2.969 v 34.219 h 2.969 v -7.648 h 0.153 c 0.82,2.578 2.07,4.609 3.75,6.09 1.636,1.449 3.628,2.187 5.937,2.187 1.332,0 2.5,-0.238 3.441,-0.629 z" /><path
         id="path24"
         style="fill:#787f78;fill-opacity:1;fill-rule:nonzero;stroke:none"
         d="m 187.77,205.551 c -0.622,0 -1.211,0.187 -1.719,0.621 -0.539,0.508 -0.781,1.129 -0.781,1.879 0,0.699 0.242,1.289 0.781,1.719 0.508,0.5 1.097,0.781 1.719,0.781 0.71,0 1.332,-0.281 1.878,-0.781 0.512,-0.43 0.782,-1.02 0.782,-1.719 0,-0.75 -0.27,-1.371 -0.782,-1.879 -0.546,-0.434 -1.168,-0.621 -1.878,-0.621 z m -1.399,-8.602 h 3.11719 V 162.7302 H 186.371 Z" /><path
         id="path26"
         style="fill:#787f78;fill-opacity:1;fill-rule:nonzero;stroke:none"
         d="m 225.121,162.73 v 6.25 h -0.16 c -1.172,-2.179 -2.813,-3.902 -5,-5.152 -2.191,-1.25 -4.691,-1.879 -7.5,-1.879 -4.301,0 -7.77,1.492 -10.473,4.531 -2.609,3.129 -3.898,7.348 -3.898,12.661 0,5.507 1.441,10 4.371,13.437 2.891,3.442 6.719,5.152 11.41,5.152 5.188,0 8.899,-2.109 11.09,-6.25 h 0.16 v 21.719 h 3.117 V 162.73 Z m 0,20.79 c 0,3.121 -1.062,5.781 -3.133,7.96 -1.988,2.27 -4.687,3.442 -8.117,3.442 -3.672,0 -6.68,-1.402 -9.07,-4.223 -2.422,-2.73 -3.59,-6.48 -3.59,-11.25 0,-4.679 1.019,-8.359 3.129,-10.929 2.18,-2.5 5,-3.75 8.43,-3.75 3.949,0 6.96,1.171 9.07,3.589 2.18,2.379 3.281,5.313 3.281,8.75 z" /><path
         id="path28"
         style="fill:#787f78;fill-opacity:1;fill-rule:nonzero;stroke:none"
         d="m 267.109,165.23 c 0,-6.32 -1.488,-11.011 -4.379,-14.058 -2.808,-3.012 -7.179,-4.531 -13.121,-4.531 -3.359,0 -6.8,0.898 -10.308,2.66 v 3.121 c 3.629,-1.953 7.07,-2.973 10.308,-2.973 9.571,0 14.371,5 14.371,15 v 4.379 h -0.152 c -2.738,-4.609 -6.879,-6.879 -12.5,-6.879 -4.297,0 -7.777,1.492 -10.469,4.531 -2.621,3.008 -3.91,7.231 -3.91,12.661 0,5.507 1.41,10 4.223,13.437 2.887,3.442 6.758,5.152 11.558,5.152 5.079,0 8.79,-2.109 11.098,-6.25 h 0.152 v 5.469 h 3.129 z m -3.129,18.598 c 0,3.012 -1.05,5.621 -3.121,7.813 -2.109,2.187 -4.769,3.281 -7.968,3.281 -3.871,0 -6.993,-1.402 -9.371,-4.223 -2.309,-2.808 -3.442,-6.558 -3.442,-11.25 0,-4.679 1.012,-8.359 3.121,-10.929 2.192,-2.5 5.039,-3.75 8.602,-3.75 3.75,0 6.719,1.128 8.898,3.429 2.192,2.391 3.281,5.321 3.281,8.75 z" /><path
         id="path30"
         style="fill:#787f78;fill-opacity:1;fill-rule:nonzero;stroke:none"
         d="m 278.91,179.609 c 0,-4.687 1.09,-8.359 3.281,-10.937 2.258,-2.621 5.309,-3.902 9.059,-3.902 3.949,0 7.73,1.402 11.41,4.21 v -3.281 c -3.558,-2.5 -7.582,-3.75 -12.039,-3.75 -4.492,0 -8.082,1.571 -10.781,4.692 -2.731,3.129 -4.059,7.578 -4.059,13.437 0,4.883 1.41,9.063 4.219,12.5 2.891,3.442 6.641,5.152 11.25,5.152 4.262,0 7.539,-1.519 9.84,-4.531 2.39,-2.929 3.601,-6.988 3.601,-12.179 v -1.411 z m 22.5,2.813 c -0.121,3.949 -1.101,7.027 -2.969,9.219 -1.8,2.187 -4.222,3.281 -7.351,3.281 -3.238,0 -5.93,-1.094 -8.121,-3.281 -2.11,-2.11 -3.399,-5.161 -3.91,-9.219 z" /><path
         id="path32"
         style="fill:#787f78;fill-opacity:1;fill-rule:nonzero;stroke:none"
         d="m 375.781,162.73 v 20.469 c 0,4.379 -0.703,7.391 -2.031,9.071 -1.371,1.75 -3.551,2.652 -6.559,2.652 -2.742,0 -5.082,-1.172 -7.031,-3.442 -2,-2.3 -2.969,-5.23 -2.969,-8.75 v -20 h -3.132 v 20.79 c 0,7.57 -2.93,11.402 -8.75,11.402 -2.93,0 -5.309,-1.211 -7.188,-3.594 -1.793,-2.308 -2.652,-5.277 -2.652,-8.906 V 162.73 h -3.129 v 34.219 h 3.129 v -5.777 c 2.5,4.379 6.011,6.558 10.621,6.558 2.582,0 4.769,-0.742 6.57,-2.179 1.75,-1.492 2.961,-3.36 3.59,-5.629 1.02,2.5 2.539,4.418 4.531,5.777 2.071,1.332 4.297,2.031 6.719,2.031 7.578,0 11.41,-4.64 11.41,-13.902 V 162.73 Z" /><path
         id="path34"
         style="fill:#787f78;fill-opacity:1;fill-rule:nonzero;stroke:none"
         d="m 390,179.609 c 0,-4.687 1.09,-8.359 3.281,-10.937 2.27,-2.621 5.309,-3.902 9.059,-3.902 3.949,0 7.738,1.402 11.41,4.21 v -3.281 c -3.551,-2.5 -7.578,-3.75 -12.031,-3.75 -4.489,0 -8.09,1.571 -10.778,4.692 -2.742,3.129 -4.062,7.578 -4.062,13.437 0,4.883 1.402,9.063 4.211,12.5 2.89,3.442 6.64,5.152 11.25,5.152 4.262,0 7.539,-1.519 9.851,-4.531 2.379,-2.929 3.59,-6.988 3.59,-12.179 v -1.411 z m 22.5,2.813 c -0.121,3.949 -1.09,7.027 -2.969,9.219 -1.801,2.187 -4.222,3.281 -7.34,3.281 -3.242,0 -5.941,-1.094 -8.132,-3.281 -2.11,-2.11 -3.399,-5.161 -3.899,-9.219 z" /><path
         id="path36"
         style="fill:#787f78;fill-opacity:1;fill-rule:nonzero;stroke:none"
         d="m 448.949,162.73 v 6.25 h -0.16 c -1.168,-2.179 -2.809,-3.902 -5,-5.152 -2.187,-1.25 -4.687,-1.879 -7.5,-1.879 -4.301,0 -7.769,1.492 -10.469,4.531 -2.621,3.129 -3.91,7.348 -3.91,12.661 0,5.507 1.449,10 4.379,13.437 2.891,3.442 6.723,5.152 11.41,5.152 5.192,0 8.903,-2.109 11.09,-6.25 h 0.16 v 21.719 h 3.121 V 162.73 Z m 0,20.79 c 0,3.121 -1.058,5.781 -3.129,7.96 -1.992,2.27 -4.691,3.442 -8.121,3.442 -3.679,0 -6.679,-1.402 -9.07,-4.223 -2.418,-2.73 -3.59,-6.48 -3.59,-11.25 0,-4.679 1.012,-8.359 3.121,-10.929 2.192,-2.5 5,-3.75 8.442,-3.75 3.949,0 6.949,1.171 9.058,3.589 2.192,2.379 3.289,5.313 3.289,8.75 z" /><path
         id="path38"
         style="fill:#787f78;fill-opacity:1;fill-rule:nonzero;stroke:none"
         d="m 464.691,205.551 c -0.632,0 -1.211,0.187 -1.722,0.621 -0.547,0.508 -0.778,1.129 -0.778,1.879 0,0.699 0.231,1.289 0.778,1.719 0.511,0.5 1.09,0.781 1.722,0.781 0.7,0 1.329,-0.281 1.868,-0.781 0.511,-0.43 0.781,-1.02 0.781,-1.719 0,-0.75 -0.27,-1.371 -0.781,-1.879 -0.539,-0.434 -1.168,-0.621 -1.868,-0.621 z m -1.41,-8.602 h 3.12891 V 162.7302 H 463.281 Z" /><path
         id="path40"
         style="fill:#787f78;fill-opacity:1;fill-rule:nonzero;stroke:none"
         d="m 499.84,164.301 c -2.5,-1.571 -5.578,-2.352 -9.219,-2.352 -4.68,0 -8.512,1.571 -11.402,4.692 -2.809,3.199 -4.219,7.379 -4.219,12.5 0,5.39 1.602,9.839 4.84,13.281 3.211,3.519 7.39,5.308 12.5,5.308 2.582,0 5.16,-0.539 7.66,-1.558 v -3.594 c -2.5,1.563 -5.23,2.344 -8.121,2.344 -4.07,0 -7.43,-1.481 -10,-4.371 -2.5,-2.821 -3.758,-6.531 -3.758,-11.102 0,-4.488 1.141,-8.078 3.438,-10.777 2.39,-2.621 5.472,-3.902 9.222,-3.902 3.52,0 6.559,0.851 9.059,2.652 z" /><path
         id="path42"
         style="fill:#787f78;fill-opacity:1;fill-rule:nonzero;stroke:none"
         d="m 528.949,162.73 v 6.879 h -0.16 c -1.059,-2.418 -2.66,-4.3 -4.84,-5.629 -2.109,-1.32 -4.461,-2.031 -7.039,-2.031 -3.238,0 -5.859,0.86 -7.808,2.66 -1.872,1.871 -2.813,4.141 -2.813,6.871 0,6.02 3.981,9.61 12.031,10.79 l 10.629,1.558 c 0,7.383 -2.82,11.094 -8.437,11.094 -3.75,0 -7.461,-1.524 -11.102,-4.531 v 3.75 c 1.328,0.937 3.129,1.757 5.32,2.5 2.18,0.699 4.219,1.089 6.09,1.089 3.629,0 6.41,-1.089 8.282,-3.281 1.949,-2.179 2.968,-5.39 2.968,-9.527 V 162.73 Z m -9.539,17.04 c -3.672,-0.551 -6.211,-1.372 -7.648,-2.5 -1.492,-1.18 -2.192,-3.051 -2.192,-5.629 0,-1.993 0.66,-3.672 2.032,-5 1.328,-1.25 3.277,-1.871 5.777,-1.871 3.32,0 6.101,1.171 8.281,3.589 2.192,2.379 3.289,5.512 3.289,9.371 v 3.442 z" /><path
         id="path44"
         style="fill:#787f78;fill-opacity:1;fill-rule:nonzero;stroke:none"
         d="m 542.578,162.73 h 3.12109 v 50.4688 H 542.578 Z" /><path
         id="path46"
         style="fill:#787f78;fill-opacity:1;fill-rule:nonzero;stroke:none"
         d="m 592.07,193.672 c -1.05,0.707 -2.269,1.098 -3.59,1.098 -2.742,0 -5,-1.411 -6.878,-4.219 -1.872,-2.742 -2.813,-6.641 -2.813,-11.723 V 162.73 h -2.969 v 34.219 h 2.969 v -7.648 h 0.16 c 0.821,2.578 2.071,4.609 3.75,6.09 1.641,1.449 3.629,2.187 5.93,2.187 1.332,0 2.5,-0.238 3.441,-0.629 z" /><path
         id="path48"
         style="fill:#787f78;fill-opacity:1;fill-rule:nonzero;stroke:none"
         d="m 611.25,161.949 c -5.121,0 -9.141,1.602 -12.031,4.852 -2.93,3.32 -4.379,7.578 -4.379,12.808 0,5.621 1.488,10.039 4.539,13.282 3.121,3.199 7.18,4.839 12.18,4.839 5,0 8.91,-1.64 11.722,-4.839 2.891,-3.121 4.379,-7.5 4.379,-13.121 0,-5.321 -1.531,-9.649 -4.539,-12.969 -2.922,-3.25 -6.871,-4.852 -11.871,-4.852 z m 0.16,32.973 c -4.07,0 -7.351,-1.371 -9.851,-4.063 -2.418,-2.738 -3.59,-6.48 -3.59,-11.25 0,-4.488 1.172,-8.089 3.59,-10.781 2.39,-2.738 5.632,-4.058 9.691,-4.058 4.141,0 7.379,1.281 9.691,3.902 2.258,2.699 3.438,6.406 3.438,11.098 0,4.878 -1.18,8.628 -3.438,11.25 -2.191,2.57 -5.39,3.902 -9.531,3.902 z" /><path
         id="path50"
         style="fill:#787f78;fill-opacity:1;fill-rule:nonzero;stroke:none"
         d="m 639.379,168.828 v -6.098 h -3.129 v 50.469 h 3.129 V 189.77 c 1.242,2.57 3,4.57 5.312,5.929 2.379,1.332 4.918,2.031 7.649,2.031 4.461,0 7.89,-1.519 10.32,-4.531 2.5,-3.039 3.75,-7.109 3.75,-12.179 0,-5.75 -1.488,-10.399 -4.379,-13.911 -2.812,-3.437 -6.519,-5.16 -11.09,-5.16 -5.242,0 -9.062,2.27 -11.562,6.879 z m 0,12.652 v -4.21 c 0,-3.442 1.09,-6.411 3.281,-8.911 2.18,-2.418 5.039,-3.589 8.59,-3.589 3.52,0 6.41,1.441 8.59,4.371 2.191,3.007 3.281,6.949 3.281,11.879 0,4.25 -1.051,7.652 -3.121,10.152 -1.988,2.5 -4.648,3.75 -7.969,3.75 -4.062,0 -7.191,-1.371 -9.371,-4.063 -2.191,-2.621 -3.281,-5.738 -3.281,-9.379 z" /><path
         id="path52"
         style="fill:#787f78;fill-opacity:1;fill-rule:nonzero;stroke:none"
         d="m 689.02,161.949 c -5.11,0 -9.141,1.602 -12.032,4.852 -2.929,3.32 -4.367,7.578 -4.367,12.808 0,5.621 1.481,10.039 4.527,13.282 3.122,3.199 7.192,4.839 12.192,4.839 5,0 8.898,-1.64 11.711,-4.839 2.898,-3.121 4.379,-7.5 4.379,-13.121 0,-5.321 -1.52,-9.649 -4.532,-12.969 -2.929,-3.25 -6.878,-4.852 -11.878,-4.852 z m 0.16,32.973 c -4.059,0 -7.34,-1.371 -9.84,-4.063 -2.43,-2.738 -3.602,-6.48 -3.602,-11.25 0,-4.488 1.172,-8.089 3.602,-10.781 2.379,-2.738 5.621,-4.058 9.68,-4.058 4.14,0 7.39,1.281 9.691,3.902 2.269,2.699 3.437,6.406 3.437,11.098 0,4.878 -1.168,8.628 -3.437,11.25 -2.191,2.57 -5.391,3.902 -9.531,3.902 z" /><path
         id="path54"
         style="fill:#787f78;fill-opacity:1;fill-rule:nonzero;stroke:none"
         d="m 727.621,163.199 c -1.57,-0.699 -3.09,-1.09 -4.531,-1.09 -5.121,0 -7.66,3.012 -7.66,9.063 v 22.969 h -6.25 v 2.808 h 6.25 v 8.75 c 0.511,0.199 1.019,0.391 1.558,0.629 0.512,0.082 1.024,0.231 1.563,0.473 v -9.852 h 9.07 v -2.808 h -9.07 V 171.48 c 0,-2.3 0.359,-4.019 1.097,-5.152 0.704,-1.058 2.032,-1.558 3.903,-1.558 1.25,0 2.578,0.39 4.07,1.25 z" /><path
         id="path56"
         style="fill:#787f78;fill-opacity:1;fill-rule:nonzero;stroke:none"
         d="m 736.051,205.551 c -0.621,0 -1.211,0.187 -1.711,0.621 -0.551,0.508 -0.789,1.129 -0.789,1.879 0,0.699 0.238,1.289 0.789,1.719 0.5,0.5 1.09,0.781 1.711,0.781 0.711,0 1.328,-0.281 1.879,-0.781 0.511,-0.43 0.781,-1.02 0.781,-1.719 0,-0.75 -0.27,-1.371 -0.781,-1.879 -0.551,-0.434 -1.168,-0.621 -1.879,-0.621 z m -1.403,-8.602 h 3.12109 V 162.7302 H 734.648 Z" /><path
         id="path58"
         style="fill:#787f78;fill-opacity:1;fill-rule:nonzero;stroke:none"
         d="m 771.211,164.301 c -2.5,-1.571 -5.59,-2.352 -9.223,-2.352 -4.687,0 -8.508,1.571 -11.398,4.692 -2.82,3.199 -4.219,7.379 -4.219,12.5 0,5.39 1.598,9.839 4.84,13.281 3.199,3.519 7.379,5.308 12.5,5.308 2.578,0 5.16,-0.539 7.66,-1.558 v -3.594 c -2.5,1.563 -5.242,2.344 -8.133,2.344 -4.058,0 -7.418,-1.481 -10,-4.371 -2.5,-2.821 -3.75,-6.531 -3.75,-11.102 0,-4.488 1.133,-8.078 3.442,-10.777 2.379,-2.621 5.468,-3.902 9.218,-3.902 3.512,0 6.563,0.851 9.063,2.652 z" /><path
         id="path60"
         style="fill:#787f78;fill-opacity:1;fill-rule:nonzero;stroke:none"
         d="m 777.77,164.301 v 3.59 c 1.14,-0.942 2.539,-1.719 4.218,-2.34 1.641,-0.551 3.133,-0.781 4.383,-0.781 5.391,0 8.117,2.179 8.117,6.558 0,1.442 -0.617,2.692 -1.867,3.75 -1.172,1.133 -3.051,2.262 -5.633,3.442 -3.359,1.32 -5.699,2.73 -7.027,4.21 -1.371,1.571 -2.031,3.442 -2.031,5.629 0,2.813 1.019,5.039 3.121,6.719 2.187,1.762 4.89,2.652 8.129,2.652 2.89,0 5.468,-0.621 7.66,-1.871 v -3.437 c -2.621,1.637 -5.281,2.5 -7.969,2.5 -2.312,0 -4.18,-0.582 -5.633,-1.723 -1.359,-1.168 -2.027,-2.648 -2.027,-4.527 0,-1.684 0.391,-3.051 1.25,-4.063 0.937,-0.937 2.848,-2.109 5.777,-3.437 3.641,-1.563 6.141,-3.082 7.5,-4.531 1.332,-1.371 2.032,-3.121 2.032,-5.313 0,-2.738 -1.051,-4.957 -3.122,-6.719 -1.988,-1.8 -4.808,-2.66 -8.437,-2.66 -3.359,0 -6.172,0.781 -8.441,2.352 z" /><g
         id="g62"><g
           clip-path="url(#clipPath68)"
           id="g64"><g
             clip-path="url(#clipPath74)"
             id="g70"><g
               clip-path="url(#clipPath80)"
               id="g76"><path
                 id="path318"
                 style="fill:url(#linearGradient316);fill-opacity:1;fill-rule:nonzero;stroke:none"
                 d="m 1098,10 v 1 h -1 v 1 h -1 v 1 h -1 v 1 h -2 v 1 h -1 v 1 h -1 v 1 h -1 v 1 h -1 v 1 h -1 v 1 h -2 v 1 h -1 v 1 h -1 v 1 h -1 v 1 h -1 v 1 h -1 v 1 h -1 v 1 h -2 v 1 h -1 v 1 h -1 v 1 h -1 v 1 h -1 v 1 h -1 v 1 h -2 v 1 h -1 v 1 h -1 v 1 h -1 v 1 h -1 v 1 h -1 v 1 h -2 v 1 h -1 v 1 h -1 v 1 h -1 v 1 h -1 v 1 h -1 v 1 h -1 v 1 h -2 v 1 h -1 v 1 h -1 v 1 h -1 v 1 h -1 v 1 h -1 v 1 h -2 v 1 h -1 v 1 h -1 v 1 h -1 v 1 h -1 v 1 h -1 v 1 h -1 v 1 h -2 v 1 h -1 v 1 h -1 v 1 h -1 v 1 h -1 v 1 h -1 v 1 h -2 v 1 h -1 v 1 h -1 v 1 h -1 v 1 h -1 v 1 h -1 v 1 h -1 v 1 h -2 v 1 h -1 v 1 h -1 v 1 h -1 v 1 h -1 v 1 h -1 v 1 h -2 v 1 h -1 v 1 h -1 v 1 h -1 v 1 h -1 v 1 h -1 v 1 h -1 v 1 h -2 v 1 h -1 v 1 h -1 v 1 h -1 v 1 h -1 v 1 h -1 v 1 h -2 v 1 h -1 v 1 h -1 v 1 h -1 v 1 h -1 v 1 h -1 v 1 h -1 v 1 h -2 v 1 h -1 v 1 h -1 v 1 h -1 v 1 h -1 v 1 h -1 v 1 h -2 v 1 h -1 v 1 h -1 v 1 h -1 v 1 h -1 v 1 h -1 v 1 h -1 v 1 h -2 v 1 h -1 v 1 h -1 v 1 h -1 v 1 h -1 v 1 h -1 v 1 h -2 v 1 h -1 v 1 h -1 v 1 h -1 v 1 h -1 v 1 h -1 v 1 h -1 v 1 h -2 v 1 h -1 v 1 h -1 v 1 h -1 v 1 h -1 v 1 h -1 v 1 h -2 v 1 h -1 v 1 h -1 v 1 h -1 v 1 h -1 v 1 h -1 v 1 h -1 v 1 h -2 v 1 h -1 v 1 h -1 v 1 h -1 v 1 h -1 v 1 h -1 v 1 h -2 v 1 h -1 v 1 h -1 v 1 h -1 v 1 h -1 v 1 h -1 v 1 h -1 v 1 h -2 v 1 h -1 v 1 h -1 v 1 h -1 v 1 h -1 v 1 h -1 v 1 h -2 v 1 h -1 v 1 h -1 v 1 h -1 v 1 h -1 v 1 h -1 v 1 h -1 v 1 h -2 v 1 h -1 v 1 h -1 v 1 h -1 v 1 h -1 v 1 h -1 v 1 h -2 v 1 h -1 v 1 h -1 v 1 h -1 v 1 h -1 v 1 h -1 v 1 h -1 v 1 h -2 v 1 h -1 v 1 h -1 v 1 h -1 v 1 h -1 v 1 h -1 v 1 h -2 v 1 h -1 v 1 h -1 v 1 h -1 v 1 h -1 v 1 h -1 v 1 h -1 v 1 h -2 v 1 h -1 v 1 h -1 v 1 h -1 v 1 h -1 v 1 h -1 v 1 h -2 v 1 h -1 v 1 h -1 v 1 h -1 v 1 h -1 v 1 h -1 v 1 h -1 v 1 h -2 v 1 h -1 v 1 h -1 v 1 h -1 v 1 h -1 v 1 h -1 v 1 h -2 v 1 h -1 v 1 h -1 v 1 h -1 v 1 h -1 v 1 h -1 v 1 h -1 v 1 h -2 v 1 h -1 v 1 h -1 v 1 h -1 v 1 h -1 v 1 h -1 v 1 h -2 v 1 h -1 v 1 h -1 v 1 h -1 v 1 h -1 v 1 h -1 v 1 h -1 v 1 h -2 v 1 h -1 v 1 h -1 v 1 h -1 v 1 h -1 v 1 h -1 v 1 h -1 v 1 h 56 v -1 h 1 v -1 h 1 v -2 h 1 v -1 h 1 v -1 h 1 v -1 h 1 v -1 h 1 v -1 h 1 v -1 h 1 v -1 h 1 v -1 h 1 v -1 h 1 v -2 h 1 v -1 h 1 v -1 h 1 v -1 h 1 v -1 h 1 v -1 h 1 v -1 h 1 v -1 h 1 v -1 h 1 v -1 h 1 v -1 h 1 v -2 h 1 v -1 h 1 v -1 h 1 v -1 h 1 v -1 h 1 v -1 h 1 v -1 h 1 v -1 h 1 v -1 h 1 v -1 h 1 v -2 h 1 v -1 h 1 v -1 h 1 v -1 h 1 v -1 h 1 v -1 h 1 v -1 h 1 v -1 h 1 v -1 h 1 v -1 h 1 v -1 h 1 v -2 h 1 v -1 h 1 v -1 h 1 v -1 h 1 v -1 h 1 v -1 h 1 v -1 h 1 v -1 h 1 v -1 h 1 v -1 h 1 v -2 h 1 v -1 h 1 v -1 h 1 v -1 h 1 v -1 h 1 v -1 h 1 v -1 h 1 v -1 h 1 v -1 h 1 v -1 h 1 v -2 h 1 v -1 h 1 v -1 h 1 v -1 h 1 v -1 h 1 v -1 h 1 v -1 h 1 v -1 h 1 v -1 h 1 v -1 h 1 v -1 h 1 v -2 h 1 v -1 h 1 v -1 h 1 v -1 h 1 v -1 h 1 v -1 h 1 v -1 h 1 v -1 h 1 v -1 h 1 v -1 h 1 v -2 h 1 v -1 h 1 v -1 h 1 v -1 h 1 v -1 h 1 v -1 h 1 v -1 h 1 v -1 h 1 v -1 h 1 v -1 h 1 v -1 h 1 v -2 h 1 v -1 h 1 v -1 h 1 v -1 h 1 v -1 h 1 v -1 h 1 v -1 h 1 v -1 h 1 v -1 h 1 v -1 h 1 v -2 h 1 v -1 h 1 v -1 h 1 v -1 h 1 v -1 h 1 v -1 h 1 v -1 h 1 v -1 h 1 v -1 h 1 v -1 h 1 v -1 h 1 v -2 h 1 v -1 h 1 v -1 h 1 v -1 h 1 v -1 h 1 v -1 h 1 v -1 h 1 v -1 h 1 v -1 h 1 v -1 h 1 v -2 h 1 v -1 h 1 v -1 h 1 v -1 h 1 v -1 h 1 v -1 h 1 v -1 h 1 v -1 h 1 v -1 h 1 v -1 h 1 v -2 h 1 v -1 h 1 v -1 h 1 v -1 h 1 v -1 h 1 v -1 h 1 v -1 h 1 v -1 h 1 v -1 h 1 v -1 h 1 v -1 h 1 v -2 h 1 v -1 h 1 v -1 h 1 v -1 h 1 v -1 h 1 v -1 h 1 v -1 h 1 v -1 h 1 v -1 h 1 v -1 h 1 v -2 h 1 v -1 h 1 v -1 h 1 v -1 h 1 v -1 h 1 v -1 h 1 v -1 h 1 v -1 h 1 v -1 h 1 v -1 h 1 v -1 h 1 v -2 h 1 v -1 h 1 v -1 h 1 v -1 h 1 v -1 h 1 v -1 h 1 v -1 h 1 v -1 h 1 v -1 h 1 v -1 h 1 v -2 h 1 v -1 h 1 v -1 h 1 v -1 h 1 v -1 h 1 v -1 h 1 v -1 h 1 v -1 h 1 v -1 h 1 v -1 h 1 v -1 h 1 v -2 h 1 v -1 h 1 v -1 h 1 v -1 h 1 v -1 h 1 v -1 h 1 v -1 h 1 v -1 h 1 v -1 h 1 v -1 h 1 v -2 h 1 v -1 h 1 v -1 h 1 v -1 h 1 v -1" /></g></g></g></g><g
         id="g320"><g
           clip-path="url(#clipPath326)"
           id="g322"><g
             clip-path="url(#clipPath332)"
             id="g328"><g
               clip-path="url(#clipPath338)"
               id="g334"><path
                 id="path710"
                 style="fill:url(#linearGradient708);fill-opacity:1;fill-rule:nonzero;stroke:none"
                 d="m 487,224 v 1 h -1 v 1 h -1 v 1 h -1 v 1 h -1 v 1 h -1 v 1 h -1 v 1 h -1 v 1 h -1 v 1 h -1 v 1 h -1 v 1 h -1 v 1 h -1 v 1 h -1 v 1 h -1 v 1 h -1 v 1 h -1 v 1 h -1 v 1 h -1 v 1 h -1 v 1 h -1 v 1 h -1 v 1 h -1 v 1 h -1 v 1 h -1 v 1 h -1 v 1 h -1 v 1 h -1 v 1 h -1 v 1 h -1 v 1 h -1 v 1 h -1 v 1 h -1 v 1 h -1 v 1 h -1 v 1 h -1 v 1 h -1 v 1 h -1 v 1 h -1 v 1 h -1 v 1 h -1 v 1 h -1 v 1 h -1 v 1 h -1 v 1 h -1 v 1 h -1 v 1 h -1 v 1 h -1 v 1 h -1 v 1 h -1 v 1 h -1 v 1 h -1 v 1 h -1 v 1 h -1 v 1 h -2 v 1 h -1 v 1 h -1 v 1 h -1 v 1 h -1 v 1 h -1 v 1 h -1 v 1 h -1 v 1 h -1 v 1 h -1 v 1 h -1 v 1 h -1 v 1 h -1 v 1 h -1 v 1 h -1 v 1 h -1 v 1 h -1 v 1 h -1 v 1 h -1 v 1 h -1 v 1 h -1 v 1 h -1 v 1 h -1 v 1 h -1 v 1 h -1 v 1 h -1 v 1 h -1 v 1 h -1 v 1 h -1 v 1 h -1 v 1 h -1 v 1 h -1 v 1 h -1 v 1 h -1 v 1 h -1 v 1 h -1 v 1 h -1 v 1 h -1 v 1 h -1 v 1 h -1 v 1 h -1 v 1 h -1 v 1 h -1 v 1 h -1 v 1 h -1 v 1 h -1 v 1 h -1 v 1 h -1 v 1 h -1 v 1 h -1 v 1 h -1 v 1 h -1 v 1 h -1 v 1 h -1 v 1 h -1 v 1 h -1 v 1 h -1 v 1 h -1 v 1 h -1 v 1 h -1 v 1 h -1 v 1 h -1 v 1 h -1 v 1 h -1 v 1 h -1 v 1 h -2 v 1 h -1 v 1 h -1 v 1 h -1 v 1 h -1 v 1 h -1 v 1 h -1 v 1 h -1 v 1 h -1 v 1 h -1 v 1 h -1 v 1 h -1 v 1 h -1 v 1 h -1 v 1 h -1 v 1 h -1 v 1 h -1 v 1 h -1 v 1 h -1 v 1 h -1 v 1 h -1 v 1 h -1 v 1 h -1 v 1 h -1 v 1 h -1 v 1 h -1 v 1 h -1 v 1 h -1 v 1 h -1 v 1 h -1 v 1 h -1 v 1 h -1 v 1 h -1 v 1 h -1 v 1 h -1 v 1 h -1 v 1 h -1 v 1 h -1 v 1 h -1 v 1 h -1 v 1 h -1 v 1 h -1 v 1 h -1 v 1 h -1 v 1 h -1 v 1 h -1 v 1 h -1 v 1 h -1 v 1 h -1 v 1 h -1 v 1 h -1 v 1 h -1 v 1 h -1 v 1 h -1 v 1 h -1 v 1 h -1 v 1 h -1 v 1 h -1 v 1 h -1 v 1 h -1 v 1 h -1 v 1 h -1 v 1 h -1 v 1 h -1 v 1 h -1 v 1 h -2 v 1 h -1 v 1 h -1 v 1 h -1 v 1 h -1 v 1 h -1 v 1 h -1 v 1 h -1 v 1 h -1 v 1 h -1 v 1 h -1 v 1 h -1 v 1 h -1 v 1 h -1 v 1 h -1 v 1 h -1 v 1 h -1 v 1 h -1 v 1 h -1 v 1 h -1 v 1 h -1 v 1 h -1 v 1 h -1 v 1 h -1 v 1 h -1 v 1 h -1 v 1 h -1 v 1 h -1 v 1 h -1 v 1 h -1 v 1 h -1 v 1 h 70 v -1 h 1 v -1 h 1 v -1 h 1 v -1 h 1 v -1 h 1 v -1 h 1 v -1 h 1 v -1 h 1 v -1 h 1 v -1 h 1 v -1 h 1 v -1 h 1 v -1 h 1 v -1 h 1 v -1 h 1 v -1 h 1 v -1 h 1 v -1 h 1 v -1 h 1 v -1 h 1 v -1 h 1 v -1 h 1 v -1 h 1 v -1 h 1 v -1 h 1 v -1 h 1 v -1 h 1 v -1 h 1 v -1 h 1 v -1 h 1 v -1 h 1 v -1 h 1 v -1 h 1 v -1 h 1 v -1 h 1 v -1 h 1 v -1 h 1 v -1 h 1 v -1 h 1 v -1 h 2 v -1 h 1 v -1 h 1 v -1 h 1 v -1 h 1 v -1 h 1 v -1 h 1 v -1 h 1 v -1 h 1 v -1 h 1 v -1 h 1 v -1 h 1 v -1 h 1 v -1 h 1 v -1 h 1 v -1 h 1 v -1 h 1 v -1 h 1 v -1 h 1 v -1 h 1 v -1 h 1 v -1 h 1 v -1 h 1 v -1 h 1 v -1 h 1 v -1 h 1 v -1 h 1 v -1 h 1 v -1 h 1 v -1 h 1 v -1 h 1 v -1 h 1 v -1 h 1 v -1 h 1 v -1 h 1 v -1 h 1 v -1 h 1 v -1 h 1 v -1 h 1 v -1 h 1 v -1 h 1 v -1 h 1 v -1 h 1 v -1 h 1 v -1 h 1 v -1 h 1 v -1 h 1 v -1 h 1 v -1 h 1 v -1 h 1 v -1 h 1 v -1 h 1 v -1 h 1 v -1 h 1 v -1 h 1 v -1 h 1 v -1 h 1 v -1 h 1 v -1 h 1 v -1 h 1 v -1 h 1 v -1 h 1 v -1 h 1 v -1 h 2 v -1 h 1 v -1 h 1 v -1 h 1 v -1 h 1 v -1 h 1 v -1 h 1 v -1 h 1 v -1 h 1 v -1 h 1 v -1 h 1 v -1 h 1 v -1 h 1 v -1 h 1 v -1 h 1 v -1 h 1 v -1 h 1 v -1 h 1 v -1 h 1 v -1 h 1 v -1 h 1 v -1 h 1 v -1 h 1 v -1 h 1 v -1 h 1 v -1 h 1 v -1 h 1 v -1 h 1 v -1 h 1 v -1 h 1 v -1 h 1 v -1 h 1 v -1 h 1 v -1 h 1 v -1 h 1 v -1 h 1 v -1 h 1 v -1 h 1 v -1 h 1 v -1 h 1 v -1 h 1 v -1 h 1 v -1 h 1 v -1 h 1 v -1 h 1 v 1 h 1 v 1 h 1 v 1 h 1 v 1 h 1 v 1 h 1 v 1 h 1 v 1 h 1 v 1 h 1 v 1 h 1 v 1 h 1 v 1 h 1 v 1 h 1 v 1 h 1 v 1 h 1 v 1 h 1 v 1 h 1 v 1 h 1 v 1 h 1 v 1 h 1 v 1 h 1 v 1 h 1 v 1 h 1 v 1 h 1 v 1 h 1 v 1 h 1 v 1 h 1 v 1 h 1 v 1 h 1 v 1 h 1 v 1 h 1 v 1 h 1 v 1 h 1 v 1 h 1 v 1 h 1 v 1 h 1 v 1 h 1 v 1 h 1 v 1 h 1 v 1 h 1 v 1 h 1 v 1 h 1 v 1 h 1 v 1 h 1 v 1 h 1 v 1 h 1 v 1 h 1 v 1 h 2 v 1 h 1 v 1 h 1 v 1 h 1 v 1 h 1 v 1 h 1 v 1 h 1 v 1 h 1 v 1 h 1 v 1 h 1 v 1 h 1 v 1 h 1 v 1 h 1 v 1 h 1 v 1 h 1 v 1 h 1 v 1 h 1 v 1 h 1 v 1 h 1 v 1 h 1 v 1 h 1 v 1 h 1 v 1 h 1 v 1 h 1 v 1 h 1 v 1 h 1 v 1 h 1 v 1 h 1 v 1 h 1 v 1 h 1 v 1 h 1 v 1 h 1 v 1 h 1 v 1 h 1 v 1 h 1 v 1 h 1 v 1 h 1 v 1 h 1 v 1 h 1 v 1 h 1 v 1 h 1 v 1 h 1 v 1 h 1 v 1 h 1 v 1 h 1 v 1 h 1 v 1 h 1 v 1 h 1 v 1 h 1 v 1 h 1 v 1 h 1 v 1 h 1 v 1 h 1 v 1 h 1 v 1 h 1 v 1 h 1 v 1 h 1 v 1 h 1 v 1 h 1 v 1 h 1 v 1 h 1 v 1 h 1 v 1 h 1 v 1 h 1 v 1 h 1 v 1 h 2 v 1 h 1 v 1 h 1 v 1 h 1 v 1 h 1 v 1 h 1 v 1 h 1 v 1 h 1 v 1 h 1 v 1 h 1 v 1 h 1 v 1 h 1 v 1 h 1 v 1 h 1 v 1 h 1 v 1 h 1 v 1 h 1 v 1 h 1 v 1 h 1 v 1 h 1 v 1 h 1 v 1 h 1 v 1 h 1 v 1 h 1 v 1 h 1 v 1 h 1 v 1 h 1 v 1 h 1 v 1 h 1 v 1 h 1 v 1 h 1 v 1 h 1 v 1 h 1 v 1 h 1 v 1 h 1 v 1 h 53 V 234 h -49 v 139 h -1 v -1 h -1 v -1 h -1 v -1 h -1 v -1 h -1 v -1 h -1 v -1 h -1 v -1 h -1 v -1 h -1 v -1 h -1 v -1 h -1 v -1 h -1 v -1 h -1 v -1 h -1 v -1 h -1 v -1 h -1 v -1 h -1 v -1 h -1 v -1 h -1 v -1 h -1 v -1 h -1 v -1 h -1 v -1 h -1 v -1 h -1 v -1 h -1 v -1 h -1 v -1 h -2 v -1 h -1 v -1 h -1 v -1 h -1 v -1 h -1 v -1 h -1 v -1 h -1 v -1 h -1 v -1 h -1 v -1 h -1 v -1 h -1 v -1 h -1 v -1 h -1 v -1 h -1 v -1 h -1 v -1 h -1 v -1 h -1 v -1 h -1 v -1 h -1 v -1 h -1 v -1 h -1 v -1 h -1 v -1 h -1 v -1 h -1 v -1 h -1 v -1 h -1 v -1 h -1 v -1 h -1 v -1 h -1 v -1 h -1 v -1 h -1 v -1 h -1 v -1 h -1 v -1 h -1 v -1 h -1 v -1 h -1 v -1 h -1 v -1 h -1 v -1 h -1 v -1 h -1 v -1 h -1 v -1 h -1 v -1 h -1 v -1 h -1 v -1 h -1 v -1 h -1 v -1 h -1 v -1 h -1 v -1 h -1 v -1 h -1 v -1 h -1 v -1 h -1 v -1 h -1 v -1 h -1 v -1 h -1 v -1 h -1 v -1 h -1 v -1 h -1 v -1 h -1 v -1 h -1 v -1 h -1 v -1 h -1 v -1 h -1 v -1 h -1 v -1 h -2 v -1 h -1 v -1 h -1 v -1 h -1 v -1 h -1 v -1 h -1 v -1 h -1 v -1 h -1 v -1 h -1 v -1 h -1 v -1 h -1 v -1 h -1 v -1 h -1 v -1 h -1 v -1 h -1 v -1 h -1 v -1 h -1 v -1 h -1 v -1 h -1 v -1 h -1 v -1 h -1 v -1 h -1 v -1 h -1 v -1 h -1 v -1 h -1 v -1 h -1 v -1 h -1 v -1 h -1 v -1 h -1 v -1 h -1 v -1 h -1 v -1 h -1 v -1 h -1 v -1 h -1 v -1 h -1 v -1 h -1 v -1 h -1 v -1 h -1 v -1 h -1 v -1 h -1 v -1 h -1 v -1 h -1 v -1 h -1 v -1 h -1 v -1 h -1 v -1 h -1 v -1 h -1 v -1 h -1 v -1 h -1 v -1 h -1 v -1 h -1 v -1 h -1 v -1 h -1 v -1 h -1 v -1 h -1 v -1 h -1 v -1 h -1 v -1 h -1 v -1 h -1 v -1 z m 358,5 v 1 h -1 v 1 h -1 v 1 h -1 v 1 h -1 v 1 h -2 v 1 h -1 v 1 h -1 v 1 h -1 v 1 h -1 v 1 h -1 v 1 h -1 v 1 h -2 v 1 h -1 v 1 h -1 v 1 h -1 v 1 h -1 v 1 h -1 v 1 h -2 v 1 h -1 v 1 h -1 v 1 h -1 v 1 h -1 v 1 h -1 v 1 h -1 v 1 h -2 v 1 h -1 v 1 h -1 v 1 h -1 v 1 h -1 v 1 h -1 v 1 h -2 v 1 h -1 v 1 h -1 v 1 h -1 v 1 h -1 v 1 h -1 v 1 h -1 v 1 h -2 v 1 h -1 v 1 h -1 v 1 h -1 v 1 h -1 v 1 h -1 v 1 h -2 v 1 h -1 v 1 h -1 v 1 h -1 v 1 h -1 v 1 h -1 v 1 h -1 v 1 h -2 v 1 h -1 v 1 h -1 v 52 h 155 v 1 h 6 v 1 h 3 v 1 h 2 v 1 h 2 v 1 h 2 v 1 h 1 v 1 h 1 v 1 h 2 v 1 h 1 v 2 h 1 v 1 h 1 v 1 h 1 v 2 h 1 v 2 h 1 v 2 h 1 v 3 h 1 v 5 h 1 v 3 h -1 v 6 h -1 v 3 h -1 v 2 h -1 v 2 h -1 v 1 h -1 v 2 h -1 v 1 h -1 v 1 h -1 v 1 h -1 v 1 h -1 v 1 h -1 v 1 h -2 v 1 h -2 v 1 h -1 v 1 h -3 v 1 h -3 v 1 H 751 v 1 h -1 v 1 h -1 v 1 h -1 v 1 h -1 v 1 h -1 v 1 h -1 v 1 h -1 v 1 h -1 v 1 h -1 v 1 h -1 v 1 h -1 v 1 h -1 v 1 h -1 v 1 h -1 v 1 h -1 v 1 h -1 v 1 h -1 v 1 h -1 v 1 h -1 v 1 h -1 v 1 h -1 v 1 h -1 v 1 h -1 v 1 h -1 v 1 h -1 v 1 h -1 v 1 h -1 v 1 h -1 v 1 h -1 v 1 h -1 v 1 h -1 v 1 h -1 v 1 h -1 v 1 h -1 v 1 h -1 v 1 h -1 v 1 h -1 v 1 h -1 v 1 h -1 v 1 h -1 v 1 h -1 v 1 h -1 v 1 h -1 v 1 h -1 v 1 h -1 v 1 h -2 v 1 h -1 v 1 h 247 v -1 h 5 v -1 h 4 v -1 h 3 v -1 h 4 v -1 h 2 v -1 h 2 v -1 h 2 v -1 h 2 v -1 h 2 v -1 h 2 v -1 h 2 v -1 h 1 v -1 h 2 v -1 h 1 v -1 h 1 v -1 h 1 v -1 h 2 v -1 h 1 v -1 h 1 v -1 h 1 v -1 h 2 v -1 h 1 v -1 h 1 v -2 h 1 v -1 h 1 v -1 h 1 v -1 h 1 v -2 h 1 v -1 h 1 v -1 h 1 v -1 h 1 v -2 h 1 v -2 h 1 v -2 h 1 v -1 h 1 v -2 h 1 v -2 h 1 v -2 h 1 v -3 h 1 v -3 h 1 v -3 h 1 v -4 h 1 v -5 h 1 v -8 h 1 v -9 h -1 v -7 h -1 v -6 h -1 v -3 h -1 v -3 h -1 v -4 h -1 v -2 h -1 v -2 h -1 v -2 h -1 v -2 h -1 v -2 h -1 v -1 h -1 v -2 h -1 v -2 h -1 v -1 h -1 v -1 h -1 v -2 h -1 v -1 h -1 v -1 h -1 v -1 h -1 v -2 h -1 v -1 h -1 v -1 h -1 v -1 h -1 v -1 h -1 v -1 h -2 v -1 h -1 v -1 h -1 v -1 h -1 v -1 h -2 v -1 h -1 v -1 h -1 v -1 h -2 v -1 h -2 v -1 h -1 v -1 h -2 v -1 h -2 v -1 h -2 v -1 h -2 v -1 h -2 v -1 h -4 v -1 h -3 v -1 h -4 v -1 h -4 v -1 h -8 v -1 h -95 v -1 h 1 v -1 h 1 v -1 h 1 v -1 h 1 v -1 h 1 v -1 h 1 v -1 h 1 v -1 h 1 v -2 h 1 v -1 h 1 v -1 h 1 v -1 h 1 v -1 h 1 v -1 h 1 v -1 h 1 v -1 h 1 v -1 h 1 v -1 h 1 v -2 h 1 v -1 h 1 v -1 h 1 v -1 h 1 v -1 h 1 v -1 h 1 v -1 h 1 v -1 h 1 v -1 h 1 v -1 h 1 v -2 h 1 v -1 h 1 v -1 h 1 v -1 h 1 v -1 h 1 v -1 h 1 v -1 h 1 v -1 h 1 v -1 h 1 v -1 h 1 v -1 h 1 v -2 h 1 v -1 h 1 v -1 h 1 v -1 h 1 v -1 h 1 v -1 h 1 v -1 h 1 v -1 h 1 v -1 h 1 v -1 h 1 v -2 h 1 v -1 h 1 v -1 z m -776,5 v 1 h -7 v 1 h -3 v 1 h -4 v 1 h -3 v 1 h -3 v 1 h -2 v 1 h -2 v 1 h -2 v 1 h -2 v 1 h -2 v 1 h -1 v 1 h -2 v 1 h -2 v 1 h -1 v 1 h -1 v 1 h -1 v 1 h -2 v 1 h -1 v 1 h -1 v 1 h -1 v 1 h -2 v 1 h -1 v 1 h -1 v 2 h -1 v 1 h -1 v 1 h -1 v 1 h -1 v 2 h -1 v 1 h -1 v 1 h -1 v 1 h -1 v 2 h -1 v 2 h -1 v 2 h -1 v 1 h -1 v 2 H 9 v 2 H 8 v 2 H 7 v 2 H 6 v 3 H 5 v 4 H 4 v 3 H 3 v 5 H 2 v 8 H 1 v 64 h 1 v 7 h 1 v 5 h 1 v 3 h 1 v 4 h 1 v 3 h 1 v 2 h 1 v 2 h 1 v 2 h 1 v 2 h 1 v 2 h 1 v 1 h 1 v 2 h 1 v 2 h 1 v 1 h 1 v 1 h 1 v 2 h 1 v 1 h 1 v 1 h 1 v 1 h 1 v 2 h 1 v 1 h 1 v 1 h 1 v 1 h 1 v 1 h 2 v 1 h 1 v 1 h 1 v 1 h 1 v 1 h 2 v 1 h 1 v 1 h 1 v 1 h 2 v 1 h 1 v 1 h 2 v 1 h 2 v 1 h 2 v 1 h 2 v 1 h 1 v 1 h 3 v 1 h 2 v 1 h 4 v 1 h 3 v 1 h 4 v 1 h 5 v 1 h 160 v -1 h 1 v -1 h 1 v -1 h 1 v -1 h 1 v -1 h 1 v -1 h 1 v -1 h 1 v -1 h 1 v -1 h 1 v -1 h 1 v -1 h 1 v -1 h 1 v -1 h 1 v -1 h 1 v -1 h 1 v -1 h 1 v -1 h 1 v -1 h 1 v -1 h 1 v -1 h 1 v -1 h 1 v -1 h 1 v -1 h 1 v -1 h 1 v -1 h 1 v -1 h 1 v -1 h 1 v -1 h 1 v -1 h 1 v -1 h 1 v -1 h 1 v -1 h 1 v -1 h 1 v -1 h 1 v -1 h 1 v -1 h 1 v -1 h 1 v -1 h 1 v -1 h 1 v -1 h 2 v -1 h 1 v -1 h 1 v -1 h 1 v -1 h 1 v -1 h 1 v -1 h 1 v -2 H 73 v -1 h -3 v -1 h -3 v -1 h -2 v -1 h -1 v -1 h -2 v -1 h -1 v -1 h -1 v -1 h -1 v -1 h -1 v -1 h -1 v -1 h -1 v -1 h -1 v -2 h -1 v -2 h -1 v -2 h -1 v -3 h -1 v -4 h -1 v -58 h 1 v -5 h 1 v -3 h 1 v -2 h 1 v -2 h 1 v -2 h 1 v -1 h 1 v -1 h 1 v -1 h 1 v -1 h 1 v -1 h 1 v -1 h 1 v -1 h 2 v -1 h 2 v -1 h 2 v -1 h 2 v -1 h 4 v -1 h 307 v -1 h 1 v -1 h 1 v -1 h 1 v -1 h 1 v -1 h 1 v -1 h 1 v -1 h 1 v -1 h 1 v -1 h 1 v -1 h 1 v -1 h 1 v -1 h 1 v -1 h 1 v -1 h 2 v -1 h 1 v -1 h 1 v -1 h 1 v -1 h 1 v -1 h 1 v -1 h 1 v -1 h 1 v -1 h 1 v -1 h 1 v -1 h 1 v -1 h 1 v -1 h 1 v -1 h 1 v -1 h 1 v -1 h 1 v -1 h 1 v -1 h 1 v -1 h 1 v -1 h 1 v -1 h 1 v -1 h 1 v -1 h 1 v -1 h 1 v -1 h 1 v -1 h 1 v -1 h 1 v -1 h 1 v -1 h 1 v -1 h 1 v -1 h 1 v -1 h 1 v -1 h 1 v -1 h 1 v -1" /></g></g></g></g></g></g></svg>