<svg xmlns="http://www.w3.org/2000/svg" preserveAspectRatio="xMinYMin" viewBox="0 0 299 159" width="114pt">
  <g fill="none">
    <path d="M299 49.71334c0-3.5691-2.90275-6.462185-6.46633-6.462185-3.57324 0-6.47597 2.893085-6.47597 6.462185v13.59349c0 3.58842 2.90273 6.48288 6.47597 6.48288 3.56358 0 6.46633-2.89446 6.46633-6.48288zm-35.57652-17.84137c0-3.567722-2.89446-6.466324-6.54772-6.466324-3.57324 0-6.4677 2.898602-6.4677 6.466324v31.43486c0 3.58842 2.89446 6.48288 6.4677 6.48288 3.65326 0 6.54772-2.89446 6.54772-6.48288V31.87197zM227.77385 7.463563c0-3.5691016-2.89445-6.4635645-6.46632-6.4635645-3.57323 0-6.4677 2.8944629-6.4677 6.4635645V76.2243c0 3.5898 2.89447 6.48288 6.4677 6.48288 3.57187 0 6.46632-2.89308 6.46632-6.48288zm-35.6579 24.408407c0-3.567722-2.89309-6.466324-6.46633-6.466324-3.56496 0-6.4677 2.898602-6.4677 6.466324v31.43486c0 3.58842 2.90274 6.48288 6.4677 6.48288 3.57324 0 6.46633-2.89446 6.46633-6.48288zm-35.64963 17.84137c0-3.5691-2.89309-6.462185-6.44563-6.462185-3.57324 0-6.48702 2.893085-6.48702 6.462185v13.59349c0 3.58842 2.91378 6.48288 6.48702 6.48288 3.55254 0 6.44563-2.89446 6.44563-6.48288zm-35.59169-17.84137c0-3.567722-2.91515-6.466324-6.48702-6.466324-3.57324 0-6.48839 2.898602-6.48839 6.466324v31.43486c0 3.58842 2.91515 6.48288 6.48839 6.48288 3.57187 0 6.48702-2.89446 6.48702-6.48288zM85.24156 7.463563c0-3.5691016-2.91516-6.4635645-6.4884-6.4635645-3.57186 0-6.48702 2.8944629-6.48702 6.4635645V76.2243c0 3.5898 2.91516 6.48288 6.48702 6.48288 3.57324 0 6.4884-2.89308 6.4884-6.48288zM49.607106 31.87197c0-3.567722-2.913776-6.466324-6.487016-6.466324-3.573243 0-6.48702 2.898602-6.48702 6.466324v31.43486c0 3.58842 2.913777 6.48288 6.48702 6.48288 3.57324 0 6.487016-2.89446 6.487016-6.48288zM13.974033 49.71334c0-3.5691-2.913778-6.462185-6.487018-6.462185-3.569102 0-6.4870186 2.893085-6.4870186 6.462185v13.59349c0 3.58842 2.9179166 6.48288 6.4870186 6.48288 3.57324 0 6.487018-2.89446 6.487018-6.48288zm133.928927 56.36477c-.38906-.10623-6.37527-1.65004-12.73674-1.65004-12.04417 0-19.2955 6.50357-19.2955 16.18857 0 8.57302 6.06623 12.84849 13.34653 15.14834.80709.26627 1.99633.63877 2.78823.9009 3.24075 1.01954 5.82756 2.53437 5.82756 5.15843 0 2.93447-2.98966 4.83422-9.48909 4.83422-5.71167 0-11.18742-1.63348-12.34079-1.92458v11.91586c.64291.13659 7.15062 1.41412 14.10257 1.41412 9.99956 0 21.43807-4.36929 21.43807-17.37643 0-6.30905-3.86296-12.11729-12.34355-14.81309l-3.60497-1.14785c-2.15084-.67878-5.99035-1.77834-5.99035-4.9308 0-2.49023 2.8448-4.24374 8.08325-4.24374 4.51967 0 10.02025 1.51898 10.21478 1.57968v-11.05359zm110.42694 25.16858c0 7.53416-5.771 13.62936-13.51486 13.62936-7.75214 0-13.50796-6.0952-13.50796-13.62936 0-7.51898 5.75582-13.61694 13.50796-13.61694 7.74386 0 13.51486 6.09796 13.51486 13.61694zm-13.51486-26.80206c-15.92644 0-27.3484 12.01243-27.3484 26.80206 0 14.81308 11.42196 26.81724 27.3484 26.81724 15.92506 0 27.36356-12.00416 27.36356-26.81724 0-14.78963-11.4385-26.80206-27.36356-26.80206zm-177.49625 1.8556c-1.22787-.36423-5.76685-1.8556-11.91448-1.8556-15.90161 0-27.574657 11.33779-27.574657 26.80206 0 16.68386 12.885741 26.81724 27.574657 26.81724 5.83583 0 10.29066-1.38239 11.91448-1.84318v-13.89977c-.56151.31179-4.83284 2.74822-10.97771 2.74822-8.705464 0-14.320557-6.12694-14.320557-13.82251 0-7.93011 5.857907-13.81147 14.320557-13.81147 6.24972 0 10.45207 2.49023 10.97771 2.76478zm136.39018 0c-1.23752-.36423-5.78064-1.8556-11.90757-1.8556-15.92507 0-27.59812 11.33779-27.59812 26.80206 0 16.68386 12.90092 26.81724 27.59812 26.81724 5.8041 0 10.26581-1.38239 11.90757-1.84318v-13.89977c-.57392.31179-4.85077 2.74822-10.99427 2.74822-8.69856 0-14.30813-6.12694-14.30813-13.82251 0-7.93011 5.86066-13.81147 14.30813-13.81147 6.24835 0 10.46036 2.49023 10.99427 2.76478zM98.34804 157.14234H85.28019v-51.78026h13.06785z" fill="#049fd9"/>
  </g>
</svg>