<svg xmlns="http://www.w3.org/2000/svg" preserveAspectRatio="xMinYMin" viewBox="0.362 25.124 59.697 10.752" width="114pt">
  <path fill="#A9A8A9" d="M13.793 26.826v2.679c0 .869.724 1.593 1.593 1.593h6.118v-1.014h-6.697v-3.837h6.697v-1.014h-6.118c-.905-.001-1.593.724-1.593 1.593zm15.313 3.221h-5.684v-4.815h-1.014v4.272c0 .869.724 1.593 1.593 1.593h4.561c.869 0 1.593-.725 1.557-1.593v-4.272h-1.014v4.815zm10.933 1.051h1.014v-5.865h-1.014v5.865zm16.219-5.359c-.254-.362-.652-.579-1.086-.579-.435 0-.833.253-1.086.579l-3.838 5.358h1.268l.977-1.376h5.322l.977 1.376h1.268l-3.802-5.358zm-3.005 2.933l1.919-2.751 1.918 2.751h-3.837zm-11.005-1.846v2.679c0 .869.724 1.593 1.592 1.593h6.119v-1.014h-6.697v-3.837h6.697v-1.014H43.84c-.868-.001-1.592.724-1.592 1.593zm-3.838 1.339c.361-.29.579-.724.579-1.195v-.253c0-.833-.688-1.484-1.557-1.484H31.314v5.828h6.118c.868.037 1.557-.651 1.593-1.484v-.253c0-.471-.254-.906-.615-1.159zm-.398 1.882h-5.684v-1.412h5.684v1.412zm0-2.389h-5.684v-1.412h5.684v1.412z"/>
  <path fill="#EF7E0D" d="M17.848 33.27H16.11v2.57h-.543v-2.57h-1.738v-.543h4.055v.543h-.036zM22.481 35.84h-3.258c-.471 0-.833-.362-.833-.832v-1.412c0-.471.362-.833.833-.833h3.258v.543h-3.548v.724h3.548v.543h-3.548v.725h3.548v.542zM27.151 35.84h-3.222c-.47 0-.833-.362-.833-.832v-1.412c0-.471.362-.833.833-.833h3.258v.543H23.64v2.027h3.548l-.037.507zM31.785 35.84h-.543v-1.268h-3.005v1.268h-.543v-3.113h.543v1.268h3.005v-1.268h.543v3.113zM36.527 32.727v2.534c0 .325-.289.615-.615.615-.145 0-.326-.072-.435-.181l-2.534-2.57v2.715H32.4v-2.534c0-.325.29-.615.615-.615.145 0 .326.072.436.181l2.533 2.57v-2.715h.543zM41.234 34.971c0 .471-.363.833-.833.833h-2.39c-.471 0-.832-.362-.832-.833v-1.412c0-.471.361-.832.832-.832h2.39c.47 0 .833.361.833.832v1.412zm-.507.326V33.27h-3.004v2.027h3.004zM45.144 35.84h-2.425c-.471 0-.834-.362-.834-.832v-2.245h.544v2.57h2.751l-.036.507zM49.741 34.971c0 .471-.362.833-.833.833H46.52c-.471 0-.833-.362-.833-.833v-1.412c0-.471.362-.832.833-.832h2.389c.471 0 .833.361.833.832v1.412zm-.543.326V33.27h-3.005v2.027h3.005zM54.447 34.971c0 .471-.361.833-.832.833h-2.39c-.471 0-.833-.362-.833-.833v-1.412c0-.471.362-.832.833-.832h3.259v.543H50.9v2.027h3.004v-.725h-1.593v-.543h2.136v.942zM59.732 32.727l-1.955 1.883c-.072.072-.145.108-.217.145v1.086h-.543v-1.086c-.072-.036-.145-.072-.217-.145l-1.955-1.883h.797l1.629 1.593 1.629-1.593h.832z"/>
  <linearGradient id="a" gradientUnits="userSpaceOnUse" x1="753.46" y1="1117.9141" x2="753.46" y2="1123.437" gradientTransform="matrix(.362 0 0 .362 -267.1 -375.4643)">
    <stop offset="0" stop-color="#ef7e0d"/>
    <stop offset=".5" stop-color="#e96e0f"/>
    <stop offset="1" stop-color="#e15911"/>
  </linearGradient>
  <path fill="url(#a)" d="M5.647 29.143l-1.81 1.049 1.81 1.05 1.847-1.05z"/>
  <linearGradient id="b" gradientUnits="userSpaceOnUse" x1="753.4102" y1="1107.1611" x2="753.4102" y2="1119.3623" gradientTransform="matrix(.362 0 0 .362 -267.1 -375.4643)">
    <stop offset="0" stop-color="#ef7e0d"/>
    <stop offset=".5" stop-color="#e96e0f"/>
    <stop offset="1" stop-color="#e15911"/>
  </linearGradient>
  <path fill="url(#b)" d="M3.584 29.758l2.063-1.195 2.064 1.195.579-.362v-2.751l-2.643-1.521-2.642 1.521v2.787z"/>
  <path fill="#D0CFCF" d="M5.647 33.342l1.847-1.05v-2.1h-.036l-1.811 1.014z"/>
  <path fill="#D0CFCF" d="M8.543 29.83l-.579.326v2.426l-2.317 1.339v.362l2.643 1.521 2.679-1.521v-3.077z"/>
  <path fill="#DCDADA" d="M5.647 33.342v-2.136l-1.773-1.014h-.037v2.1z"/>
  <path fill="#DCDADA" d="M5.647 33.921l-2.28-1.339v-2.39l-.616-.362-2.389 1.376v3.077l2.643 1.521 2.642-1.521z"/>
</svg>