<?xml version="1.0" encoding="UTF-8" standalone="no"?>
<!DOCTYPE svg PUBLIC "-//W3C//DTD SVG 1.1//EN" "http://www.w3.org/Graphics/SVG/1.1/DTD/svg11.dtd">
<svg version="1.1" id="Layer_1" xmlns="http://www.w3.org/2000/svg" xmlns:xlink="http://www.w3.org/1999/xlink" x="0px" y="0px" width="59.697px" height="10.752px" viewBox="0.362 25.124 59.697 10.752" enable-background="new 0.362 25.124 59.697 10.752" xml:space="preserve">
        <path fill="#A9A8A9" id="cubica-logo" d="M13.793,26.826v2.679c0,0.869,0.724,1.593,1.593,1.593l0,0h6.118v-1.014h-6.697v-3.837h6.697v-1.014h-6.118
          C14.481,25.232,13.793,25.957,13.793,26.826z M29.106,30.047h-5.684v-4.815h-1.014v4.272c0,0.869,0.724,1.593,1.593,1.593l0,0h4.561
          c0.869,0,1.593-0.725,1.557-1.593v-4.272h-1.014V30.047z M40.039,31.098h1.014v-5.865h-1.014V31.098z M56.258,25.739
          c-0.254-0.362-0.652-0.579-1.086-0.579c-0.435,0-0.833,0.253-1.086,0.579l-3.838,5.358h1.268l0.977-1.376h5.322l0.977,1.376h1.268
          L56.258,25.739z M53.253,28.672l1.919-2.751l1.918,2.751H53.253z M42.248,26.826v2.679c0,0.869,0.724,1.593,1.592,1.593l0,0h6.119
          v-1.014h-6.697v-3.837h6.697v-1.014H43.84C42.972,25.232,42.248,25.957,42.248,26.826L42.248,26.826z M38.41,28.165
          c0.361-0.29,0.579-0.724,0.579-1.195v-0.253c0-0.833-0.688-1.484-1.557-1.484c0,0,0,0-0.036,0h-6.082v5.828h6.118
          c0.868,0.037,1.557-0.651,1.593-1.484l0,0v-0.253C39.025,28.853,38.771,28.418,38.41,28.165L38.41,28.165z M38.012,30.047h-5.684
          v-1.412h5.684V30.047z M38.012,27.658h-5.684v-1.412h5.684V27.658z"></path>
        <path fill="#EF7E0D" d="M17.848,33.27H16.11v2.57h-0.543v-2.57h-1.738v-0.543h4.055v0.543H17.848z"></path>
        <path fill="#EF7E0D" d="M22.481,35.84h-3.258c-0.471,0-0.833-0.362-0.833-0.832l0,0v-1.412c0-0.471,0.362-0.833,0.833-0.833l0,0
          h3.258v0.543h-3.548v0.724h3.548v0.543h-3.548v0.725h3.548V35.84z"></path>
        <path fill="#EF7E0D" d="M27.151,35.84h-3.222c-0.47,0-0.833-0.362-0.833-0.832v-1.412c0-0.471,0.362-0.833,0.833-0.833h3.258v0.543
          H23.64v2.027h3.548L27.151,35.84z"></path>
        <path fill="#EF7E0D" d="M31.785,35.84h-0.543v-1.268h-3.005v1.268h-0.543v-3.113h0.543v1.268h3.005v-1.268h0.543V35.84z"></path>
        <path fill="#EF7E0D" d="M36.527,32.727v2.534c0,0.325-0.289,0.615-0.615,0.615c-0.145,0-0.326-0.072-0.435-0.181l-2.534-2.57v2.715
          H32.4v-2.534c0-0.325,0.29-0.615,0.615-0.615c0.145,0,0.326,0.072,0.436,0.181l2.533,2.57v-2.715H36.527z"></path>
        <path fill="#EF7E0D" d="M41.234,34.971c0,0.471-0.363,0.833-0.833,0.833h-2.39c-0.471,0-0.832-0.362-0.832-0.833v-1.412
          c0-0.471,0.361-0.832,0.832-0.832h2.39c0.47,0,0.833,0.361,0.833,0.832V34.971z M40.727,35.297V33.27h-3.004v2.027H40.727z"></path>
        <path fill="#EF7E0D" d="M45.144,35.84h-2.425c-0.471,0-0.834-0.362-0.834-0.832v-2.245h0.544v2.57h2.751L45.144,35.84z"></path>
        <path fill="#EF7E0D" d="M49.741,34.971c0,0.471-0.362,0.833-0.833,0.833l0,0H46.52c-0.471,0-0.833-0.362-0.833-0.833l0,0v-1.412
          c0-0.471,0.362-0.832,0.833-0.832l0,0h2.389c0.471,0,0.833,0.361,0.833,0.832l0,0V34.971z M49.198,35.297V33.27h-3.005v2.027H49.198
          z"></path>
        <path fill="#EF7E0D" d="M54.447,34.971c0,0.471-0.361,0.833-0.832,0.833l0,0h-2.39c-0.471,0-0.833-0.362-0.833-0.833l0,0v-1.412
          c0-0.471,0.362-0.832,0.833-0.832l0,0h3.259v0.543H50.9v2.027h3.004v-0.725h-1.593v-0.543h2.136V34.971z"></path>
        <path fill="#EF7E0D" d="M59.732,32.727l-1.955,1.883c-0.072,0.072-0.145,0.108-0.217,0.145v1.086h-0.543v-1.086
          c-0.072-0.036-0.145-0.072-0.217-0.145l-1.955-1.883h0.797l1.629,1.593l1.629-1.593H59.732z"></path>
        <linearGradient id="SVGID_1_" gradientUnits="userSpaceOnUse" x1="753.46" y1="1117.9141" x2="753.46" y2="1123.437" gradientTransform="matrix(0.362 0 0 0.362 -267.1 -375.4643)">
          <stop offset="0" style="stop-color:#EF7E0D"></stop>
          <stop offset="0.5" style="stop-color:#E96E0F"></stop>
          <stop offset="1" style="stop-color:#E15911"></stop>
        </linearGradient>
        <polygon fill="url(#SVGID_1_)" points="5.647,29.143 3.837,30.192 3.837,30.192 5.647,31.242 7.494,30.192 7.494,30.192 "></polygon>
        <linearGradient id="SVGID_2_" gradientUnits="userSpaceOnUse" x1="753.4102" y1="1107.1611" x2="753.4102" y2="1119.3623" gradientTransform="matrix(0.362 0 0 0.362 -267.1 -375.4643)">
          <stop offset="0" style="stop-color:#EF7E0D"></stop>
          <stop offset="0.5" style="stop-color:#E96E0F"></stop>
          <stop offset="1" style="stop-color:#E15911"></stop>
        </linearGradient>
        <polygon fill="url(#SVGID_2_)" points="3.584,29.758 5.647,28.563 7.711,29.758 8.29,29.396 8.29,26.645 5.647,25.124 3.005,26.645 
          3.005,29.432 "></polygon>
        <polygon fill="#D0CFCF" points="5.647,33.342 7.494,32.292 7.494,30.192 7.458,30.192 5.647,31.206 "></polygon>
        <polygon fill="#D0CFCF" points="8.543,29.83 7.964,30.156 7.964,32.582 5.647,33.921 5.647,34.283 8.29,35.804 10.969,34.283 
          10.969,31.206 "></polygon>
        <polygon fill="#DCDADA" points="5.647,33.342 5.647,31.206 3.874,30.192 3.837,30.192 3.837,32.292 "></polygon>
        <polygon fill="#DCDADA" points="5.647,33.921 3.367,32.582 3.367,30.192 2.751,29.83 0.362,31.206 0.362,34.283 3.005,35.804 
          5.647,34.283 "></polygon>
        </svg>