<svg xmlns="http://www.w3.org/2000/svg" preserveAspectRatio="xMinYMin" viewBox="-1 0 359 67" width="114pt">
  <path d="M27.5 45.5c-.452255.84387-1.036263 1.61017-1.73 2.27-.740048.711083-1.574566 1.31678-2.48 1.8-.972556.51683-1.998637.92592-3.06 1.22-1.076405.30844-2.19028.466604-3.31.47-2.380311.03431-4.740217-.44313-6.92-1.4-2.017328-.91158-3.827549-2.225013-5.32-3.86-1.5274628-1.668893-2.7040759-3.62765-3.46-5.76C.3893021 37.917563-.02373651 35.466416 0 33c-.02394735-2.466433.38909745-4.917617 1.22-7.24.7564178-2.13212 1.9329747-4.09078 3.46-5.76 1.502075-1.598756 3.311587-2.877659 5.32-3.76 2.167473-.95127 4.513138-1.428586 6.88-1.4 1.11972.003396 2.233595.16156 3.31.47 1.066226.297547 2.0934.720501 3.06 1.26.907835.507691 1.74219 1.136822 2.48 1.87.675694.660934 1.25776 1.411229 1.73 2.23V0h11v50.4h-11zm-8.28-3.6c1.166397.01643 2.321558-.22964 3.38-.72.97994-.461153 1.85989-1.110074 2.59-1.91.73596-.82137 1.30943-1.77489 1.69-2.81.417634-1.105406.627816-2.278357.62-3.46.01728-2.27538-.801132-4.47797-2.3-6.19-.722165-.816347-1.603527-1.476517-2.59-1.94-1.058442-.49036-2.213603-.73643-3.38-.72-1.166397-.01643-2.321558.22964-3.38.72-.986473.463483-1.867835 1.123653-2.59 1.94-1.505296 1.709587-2.330822 3.912174-2.32 6.19-.006791 1.16765.199941 2.3267.61 3.42.379687 1.03553.953253 1.989212 1.69 2.81.73011.799926 1.610061 1.448847 2.59 1.91 1.058269.50562 2.21716.76543 3.39.76zM82.08 15.7v34.7h-11v-4.9c-.452255.84387-1.03626 1.61017-1.73 2.27-.74005.711083-1.57457 1.31678-2.48 1.8-.97256.51683-1.99864.92592-3.06 1.22-1.076405.30844-2.19028.466604-3.31.47-2.36686.028586-4.71253-.44873-6.88-1.4-2.03882-.904534-3.870024-2.21837-5.38-3.86-1.527463-1.668893-2.704076-3.62765-3.46-5.76-.8307-2.322437-1.243737-4.773584-1.22-7.24-.023947-2.466433.3891-4.917617 1.22-7.24.75642-2.13212 1.932975-4.09078 3.46-5.76 1.50813-1.624779 3.33202-2.92464 5.36-3.82 2.16747-.95127 4.51314-1.428586 6.88-1.4 1.11972.003396 2.233595.16156 3.31.47 1.06623.297547 2.0934.720501 3.06 1.26.907835.507691 1.74219 1.136822 2.48 1.87.67569.660934 1.25776 1.411229 1.73 2.23v-5zm-19.3 26.2c1.1664.01643 2.32156-.22964 3.38-.72.97994-.461153 1.85989-1.110074 2.59-1.91.73596-.82137 1.30943-1.77489 1.69-2.81.41763-1.105406.62782-2.278357.62-3.46.01728-2.27538-.80113-4.47797-2.3-6.19-.722165-.816347-1.60353-1.476517-2.59-1.94-2.15438-.960898-4.61562-.960898-6.77 0-.98647.463483-1.867835 1.123653-2.59 1.94-1.501675 1.71105-2.323583 3.91348-2.31 6.19-.00679 1.16765.19994 2.3267.61 3.42.37969 1.03553.95325 1.989212 1.69 2.81.73011.799926 1.61006 1.448847 2.59 1.91 1.05827.50562 2.21716.76543 3.39.76zM112.39 50.4c-.82.146667-1.84.28-3.06.4s-2.66333.186667-4.33.2c-1.37156-.00644-2.74119-.10332-4.1-.29-1.42728-.18783-2.7942-.69359-4-1.48-1.32113-.9213-2.35987-2.19202-3-3.67-.88675-2.15307-1.29287-4.473746-1.19-6.8V23.9h-5.45v-8.2h5.47V5.4h10.94v10.3h7.92v8.2h-7.92v12.36c-.03189 1.04207.0894 2.083173.36 3.09.17692.6627.52128 1.268776 1 1.76.42235.403594.94291.689725 1.51.83.61237.14639 1.24042.21692 1.87.21h2.09c.62808.009444 1.25526-.050926 1.87-.18zM154.44 15.7v34.7h-11v-4.9c-.45225.84387-1.03626 1.61017-1.73 2.27-.74005.711083-1.57457 1.31678-2.48 1.8-.97256.51683-1.99864.92592-3.06 1.22-1.0764.30844-2.19028.466604-3.31.47-2.36686.028586-4.71253-.44873-6.88-1.4-2.03882-.904534-3.87002-2.21837-5.38-3.86-1.52746-1.668893-2.70408-3.62765-3.46-5.76-.8307-2.322437-1.24374-4.773584-1.22-7.24-.02395-2.466433.3891-4.917617 1.22-7.24.75642-2.13212 1.93297-4.09078 3.46-5.76 1.52549-1.60761 3.36297-2.887041 5.4-3.76 2.16747-.95127 4.51314-1.428586 6.88-1.4 1.11972.003396 2.2336.16156 3.31.47 1.06623.297547 2.0934.720501 3.06 1.26.90783.507691 1.74219 1.136822 2.48 1.87.6757.660934 1.25776 1.411229 1.73 2.23v-5zm-19.3 26.2c1.1664.01643 2.32156-.22964 3.38-.72.97994-.461153 1.85989-1.110074 2.59-1.91.73596-.82137 1.30943-1.77489 1.69-2.81.4094-1.093477.61612-2.25241.61-3.42.01728-2.27538-.80113-4.47797-2.3-6.19-.72217-.816347-1.60353-1.476517-2.59-1.94-2.15438-.960898-4.61562-.960898-6.77 0-.98647.463483-1.86783 1.123653-2.59 1.94-1.49806 1.712513-2.31635 3.914785-2.3 6.19-.00679 1.16765.19994 2.3267.61 3.42.37969 1.03553.95325 1.989212 1.69 2.81.73011.799926 1.61006 1.448847 2.59 1.91 1.0615.49183 2.22024.737934 3.39.72zM180.57 30c1.53333.433333 2.97333.9 4.32 1.4 1.25746.457134 2.44545 1.086463 3.53 1.87.99373.722342 1.8165 1.654345 2.41 2.73.64426 1.29635.95367 2.73338.9 4.18.06072 1.817135-.36018 3.61801-1.22 5.22-.81747 1.419454-1.98005 2.60956-3.38 3.46-1.54038.92779-3.23336 1.57451-5 1.91-2.0023.39535-4.03907.589645-6.08.58-4.94667 0-8.84667-1.08-11.7-3.24-2.85333-2.16-4.28-5.256667-4.28-9.29h10.8c-.1426 1.47973.43398 2.93794 1.55 3.92 1.16188.834566 2.57087 1.25374 4 1.19 1.14199.04842 2.27568-.21427 3.28-.76.85147-.52531 1.33781-1.482556 1.26-2.48.02852-.588474-.1641-1.166335-.54-1.62-.4742-.486565-1.03783-.87704-1.66-1.15-.93206-.430517-1.89468-.7915-2.88-1.08-1.18-.36-2.58333-.803333-4.21-1.33-1.44-.433333-2.80667-.9-4.1-1.4-1.21544-.4614-2.36522-1.079994-3.42-1.84-.9829-.71846-1.78423-1.65676-2.34-2.74-.61764-1.304236-.9126-2.73787-.86-4.18-.19952-3.225797 1.39132-6.299895 4.14-8 2.76-1.726667 6.49333-2.59 11.2-2.59 2.22969-.037423 4.452.26608 6.59.9 1.71174.501472 3.30388 1.345171 4.68 2.48 1.19555 1.01997 2.14287 2.299033 2.77 3.74.62796 1.45538.948 3.024945.94 4.61h-10.91c.07644-1.219816-.3253-2.421434-1.12-3.35-.93007-.842142-2.17066-1.255674-3.42-1.14-1.01246-.023304-2.01087.240166-2.88.76-.80834.494156-1.27766 1.39434-1.22 2.34-.02011.57318.18855 1.130825.58 1.55.49267.46256 1.06986.82585 1.7 1.07.90118.39176 1.82639.725768 2.77 1 1.09333.34 2.36.766667 3.8 1.28zM221.61 29.3c-.18783-1.429154-.86236-2.749946-1.91-3.74-1.03333-.96-2.67667-1.44-4.93-1.44-1.18002-.02424-2.34992.222053-3.42.72-.94428.448845-1.76982 1.113387-2.41 1.94-.64002.850874-1.11488 1.814173-1.4 2.84-.62503 2.237165-.62503 4.602835 0 6.84.29266 1.037494.78898 2.00633 1.46 2.85.67538.83622 1.53886 1.500957 2.52 1.94 1.16926.50801 2.4356.753766 3.71.72 1.53414.11337 3.0603-.307034 4.32-1.19 1.03506-.90758 1.78525-2.095386 2.16-3.42h11c-.26587 1.92078-.84347 3.785293-1.71 5.52-.86252 1.70177-2.06377 3.209287-3.53 4.43-1.60852 1.333225-3.45413 2.351023-5.44 3-2.3619.75439-4.83086 1.11916-7.31 1.08-2.742.05048-5.46506-.4635-8-1.51-2.2098-.91753-4.20772-2.278967-5.87-4-1.60307-1.68461-2.83313-3.688145-3.61-5.88-1.58238-4.47078-1.58238-9.34922 0-13.82.76913-2.169371 1.98153-4.154838 3.56-5.83 1.66264-1.720597 3.66046-3.08197 5.87-4 2.53494-1.0465 5.258-1.560481 8-1.51 2.6024-.078362 5.1975.314631 7.66 1.16 2.004.721866 3.85075 1.821775 5.44 3.24 1.4306 1.300615 2.58073 2.879494 3.38 4.64.78393 1.72149 1.28374 3.55863 1.48 5.44zM255.53 51.34c-2.73802.037296-5.45653-.46563-8-1.48-2.24438-.924304-4.28357-2.28377-6-4-1.65464-1.649475-2.9546-3.61982-3.82-5.79-1.77497-4.53587-1.77497-9.57413 0-14.11.86496-2.173358 2.16488-4.14706 3.82-5.8 1.71643-1.71623 3.75562-3.075696 6-4 5.19638-1.969105 10.93362-1.969105 16.13 0 2.24438.924304 4.28357 2.28377 6 4 1.6549 1.65312 2.9548 3.626773 3.82 5.8 1.77497 4.53587 1.77497 9.57413 0 14.11-.8659 2.16992-2.1658 4.14017-3.82 5.79-1.71643 1.71623-3.75562 3.075696-6 4-2.58523 1.026927-5.34872 1.53-8.13 1.48zm0-9.43c1.17512.01624 2.34047-.215464 3.42-.68 1.00607-.436193 1.90393-1.088252 2.63-1.91.72636-.82842 1.2987-1.78007 1.69-2.81.41623-1.1055.6231-2.27881.61-3.46.0059-1.167572-.2008-2.326464-.61-3.42-.38013-1.03532-.95365-1.98892-1.69-2.81-.73953-.806798-1.63398-1.45638-2.63-1.91-1.073-.489127-2.24087-.734993-3.42-.72-1.1664-.01643-2.32156.22964-3.38.72-2.00157.927227-3.53703 2.632485-4.25 4.72-.76956 2.228774-.76956 4.651226 0 6.88.37046 1.033307.93377 1.986865 1.66 2.81.71646.814936 1.59975 1.46632 2.59 1.91 1.06567.462867 2.21835.691356 3.38.67zM289.94 20.66c.47224-.818771 1.0543-1.569066 1.73-2.23.7472-.739524 1.5957-1.369148 2.52-1.87.9704-.531574 1.99665-.954145 3.06-1.26 1.08887-.314065 2.21674-.472303 3.35-.47 2.36686-.028586 4.71253.44873 6.88 1.4 2.02784.895604 3.8517 2.195433 5.36 3.82 1.52507 1.670678 2.70138 3.628923 3.46 5.76.8243 2.306805 1.23723 4.740406 1.22 7.19.0231 2.466366-.3899 4.917403-1.22 7.24-.7569 2.131887-1.9334 4.090455-3.46 5.76-1.50794 1.62499-3.3319 2.924886-5.36 3.82-2.16747.95127-4.51314 1.428586-6.88 1.4-1.13326.002303-2.26113-.155935-3.35-.47-1.06362-.305076-2.08995-.72768-3.06-1.26-.9185-.497867-1.76607-1.11672-2.52-1.84-.69374-.65983-1.27775-1.42613-1.73-2.27V66.1h-11V15.7h11zm8.35 3.53c-1.17913-.014993-2.347.230873-3.42.72-.99616.45338-1.89065 1.102997-2.63 1.91-.73675.820788-1.3103 1.77447-1.69 2.81-.8153 2.207117-.8153 4.632883 0 6.84.3799 1.035426.95345 1.989067 1.69 2.81.7397.806593 1.63412 1.456144 2.63 1.91 1.073.489127 2.24087.734993 3.42.72 1.14338.011384 2.27466-.234695 3.31-.72.97994-.461153 1.8599-1.110074 2.59-1.91.73616-.821224 1.30965-1.774785 1.69-2.81.81617-2.20696.81617-4.63304 0-6.84-.38013-1.03532-.95365-1.98892-1.69-2.81-.72976-.800314-1.6098-1.449295-2.59-1.91-1.03534-.485305-2.16662-.731384-3.31-.72zM332.06 35.71c.0402 1.014803.19792 2.021524.47 3 .24564.90322.68977 1.740234 1.3 2.45.64023.727845 1.44148 1.29625 2.34 1.66 1.1474.44103 2.37135.64842 3.6.61 1.5404.10806 3.0733-.29626 4.36-1.15.9458-.713705 1.6591-1.691465 2.05-2.81H357c-.23957 1.636723-.81495 3.20624-1.69 4.61-.92206 1.475727-2.1207 2.75928-3.53 3.78-1.5721 1.13574-3.32286 2.000973-5.18 2.56-4.84626 1.370274-9.99507 1.23074-14.76-.4-2.21107-.812525-4.21545-2.10325-5.87-3.78-1.59883-1.65531-2.82614-3.632644-3.6-5.8-.85542-2.38603-1.2787-4.90543-1.25-7.44-.01844-2.427584.3842-4.839983 1.19-7.13.76053-2.157775 1.9628-4.13318 3.53-5.8 1.62284-1.697337 3.5856-3.033105 5.76-3.92 2.543-1.012062 5.2637-1.501792 8-1.44 2.52007-.037202 5.02433.403928 7.38 1.3 2.0717.794823 3.97745 1.968117 5.62 3.46 3.1063 2.849563 4.87024 6.874664 4.86 11.09v2.3c-.0378.943232-.14476 1.88242-.32 2.81zm7.42-13.61c-1.95373-.068117-3.8599.611382-5.33 1.9-1.45825 1.404153-2.22297 3.379985-2.09 5.4h14.54c.1023-1.977294-.6222-3.90809-2-5.33-1.36755-1.32593-3.2164-2.037298-5.12-1.97z" fill="#00305a"/>
  </svg>