<?xml version="1.0" encoding="UTF-8" standalone="no"?>
<!DOCTYPE svg PUBLIC "-//W3C//DTD SVG 1.1//EN" "http://www.w3.org/Graphics/SVG/1.1/DTD/svg11.dtd">
<svg xmlns="http://www.w3.org/2000/svg" xmlns:xl="http://www.w3.org/1999/xlink" version="1.1" preserveAspectRatio="xMinYMin" viewBox="28 28 134 45" width="134pt" height="45pt" xmlns:dc="http://purl.org/dc/elements/1.1/">
  <metadata> Produced by OmniGraffle 7.5 
    <dc:date>2017-12-02 15:54:54 +0000</dc:date>
  </metadata>
  <defs/>
  <g>
    <title>Canvas 1</title>
    <g>
      <title>Layer 1</title>
      <path d="M 109.7058 49.2 L 113.4978 49.2 L 113.4978 63.102 L 120.5148 63.102 L 120.5148 66.65 L 109.7058 66.65 Z M 124.0078 48.751 C 125.1698 48.751 126.1198 49.716 126.1198 50.902 C 126.1198 52.088 125.1698 53.047 124.0078 53.047 C 122.8448 53.047 121.8958 52.088 121.8958 50.902 C 121.8958 49.716 122.8448 48.751 124.0078 48.751 Z M 122.1838 54.671 L 125.8308 54.671 L 125.8308 66.65 L 122.1838 66.65 Z M 128.4498 54.671 L 131.9438 54.671 L 131.9438 56.295 L 131.9938 56.295 C 132.4808 55.36 133.6688 54.375 135.4418 54.375 C 139.1338 54.375 139.8148 56.84 139.8148 60.043 L 139.8148 66.65 L 136.1728 66.65 L 136.1728 60.786 C 136.1728 59.402 136.1478 57.628 134.2748 57.628 C 132.3868 57.628 132.0928 59.129 132.0928 60.69 L 132.0928 66.65 L 128.4498 66.65 Z M 142.3898 48.017 L 146.0318 48.017 L 146.0318 59.402 L 150.0628 54.671 L 154.5238 54.671 L 149.8438 60.07 L 154.6478 66.65 L 150.0628 66.65 L 146.0758 60.589 L 146.0318 60.589 L 146.0318 66.65 L 142.3898 66.65 Z M 80.1338 44.325 C 84.1928 36.401 92.3478 30.986 101.7498 30.986 C 111.1578 30.986 119.3108 36.401 123.3668 44.325 L 124.5298 44.325 C 121.0508 34.986 112.1608 28.347 101.7498 28.347 C 91.3348 28.347 82.4538 34.986 78.9748 44.325 Z M 88.5168 44.999 C 91.0018 40.146 95.9958 36.829 101.7498 36.829 C 107.5088 36.829 112.4988 40.146 114.9878 44.999 L 115.6988 44.999 C 113.5668 39.283 108.1298 35.214 101.7498 35.214 C 95.3688 35.214 89.9378 39.283 87.8018 44.999 Z M 158.3548 53.469 C 156.6148 53.469 155.3768 52.149 155.3768 50.396 C 155.3768 48.547 156.7518 47.325 158.3548 47.325 C 159.9408 47.325 161.3168 48.547 161.3168 50.396 C 161.3168 52.244 159.9408 53.469 158.3548 53.469 Z M 158.3548 47.858 C 157.0438 47.858 156.0248 48.9 156.0248 50.396 C 156.0248 51.795 156.9148 52.936 158.3548 52.936 C 159.6498 52.936 160.6698 51.9 160.6698 50.396 C 160.6698 48.9 159.6498 47.858 158.3548 47.858 Z M 157.7558 52.154 L 157.2048 52.154 L 157.2048 48.754 L 158.4758 48.754 C 159.2858 48.754 159.6988 49.041 159.6988 49.73 C 159.6988 50.348 159.3248 50.602 158.8238 50.659 L 159.7638 52.154 L 159.1398 52.154 L 158.2728 50.701 L 157.7558 50.701 Z M 158.3708 50.225 C 158.7838 50.225 159.1478 50.183 159.1478 49.691 C 159.1478 49.278 158.7508 49.23 158.4198 49.23 L 157.7558 49.23 L 157.7558 50.225 Z" fill="#0079b3"/>
      <path d="M 28.3465 49.2001 L 34.0315 49.2001 C 39.5625 49.2001 44.2035 51.5881 44.2035 57.9761 C 44.2035 63.6211 39.6615 66.6501 34.5415 66.6501 L 28.3465 66.6501 Z M 32.1345 63.1021 L 34.1025 63.1021 C 37.6255 63.1021 40.2695 61.7421 40.2695 57.7781 C 40.2695 54.3531 37.5755 52.7471 34.3695 52.7471 L 32.1345 52.7471 Z M 48.1815 48.7511 C 49.3495 48.7511 50.2965 49.7161 50.2965 50.9021 C 50.2965 52.0881 49.3495 53.0471 48.1815 53.0471 C 47.0185 53.0471 46.0725 52.0881 46.0725 50.9021 C 46.0725 49.7161 47.0185 48.7511 48.1815 48.7511 Z M 46.3635 54.6711 L 50.0045 54.6711 L 50.0045 66.6501 L 46.3635 66.6501 Z M 58.8195 58.1951 C 58.2845 57.5331 57.5795 57.1881 56.7045 57.1881 C 56.0985 57.1881 55.3695 57.4601 55.3695 58.1711 C 55.3695 59.9471 61.5145 58.4431 61.5145 63.0001 C 61.5145 66.0561 58.5975 66.9461 56.0745 66.9461 C 54.4235 66.9461 52.6015 66.5271 51.4345 65.3191 L 53.6455 62.8331 C 54.3295 63.6691 55.1275 64.1361 56.2195 64.1361 C 57.0455 64.1361 57.8715 63.9201 57.8715 63.2731 C 57.8715 61.3561 51.7285 62.9791 51.7285 58.4221 C 51.7285 55.6121 54.2065 54.3751 56.6795 54.3751 C 58.2345 54.3751 59.9565 54.7701 61.0525 55.9531 Z M 62.7525 54.6711 L 66.1005 54.6711 L 66.1005 56.2471 L 66.1485 56.2471 C 66.7115 55.3841 68.1175 54.3751 69.7665 54.3751 C 73.2665 54.3751 75.5665 56.9421 75.5665 60.5681 C 75.5665 63.8871 73.5295 66.9461 70.1855 66.9461 C 68.6755 66.9461 67.2675 66.5271 66.4385 65.3731 L 66.3935 65.3731 L 66.3935 72.2731 L 62.7525 72.2731 Z M 69.0175 63.6951 C 70.8355 63.6951 71.9295 62.4641 71.9295 60.6601 C 71.9295 58.8631 70.8355 57.6281 69.0175 57.6281 C 67.1935 57.6281 66.1005 58.8631 66.1005 60.6601 C 66.1005 62.4641 67.1935 63.6951 69.0175 63.6951 Z M 77.2715 48.0161 L 80.9145 48.0161 L 80.9145 66.6491 L 77.2715 66.6491 Z M 90.4495 65.1461 L 90.4055 65.1461 C 89.5995 66.4311 88.1485 66.9461 86.6635 66.9461 C 84.4525 66.9461 82.4645 65.6701 82.4645 63.2491 C 82.4645 59.1051 87.4195 59.0361 90.4495 59.0361 C 90.4495 57.7241 89.3875 56.8911 88.1245 56.8911 C 86.9325 56.8911 85.9375 57.4311 85.1615 58.3231 L 83.2205 56.2951 C 84.5505 55.0191 86.4985 54.3751 88.4165 54.3751 C 92.6615 54.3751 93.8095 56.5681 93.8095 60.5681 L 93.8095 66.6501 L 90.4495 66.6501 Z M 89.5495 61.4001 C 88.4375 61.4001 85.9615 61.4991 85.9615 63.1201 C 85.9615 64.0161 86.8825 64.4331 87.6925 64.4331 C 89.1195 64.4331 90.4495 63.6691 90.4495 62.1911 L 90.4495 61.4001 Z M 102.4005 68.6001 C 101.4275 71.1381 100.8645 72.5671 97.3965 72.5671 C 96.4725 72.5671 95.5485 72.4231 94.6785 72.1271 L 95.1655 69.0951 C 95.7175 69.3371 96.2545 69.4601 96.8645 69.4601 C 98.5145 69.4601 98.7785 68.7441 99.2905 67.4441 L 99.5595 66.7491 L 94.3865 54.6711 L 98.3215 54.6711 L 101.3575 62.5841 L 101.4025 62.5841 L 104.0065 54.6711 L 107.7435 54.6711 Z" fill="#1a1918"/>
    </g>
  </g>
</svg>
