<svg xmlns="http://www.w3.org/2000/svg" preserveAspectRatio="xMinYMin" viewBox="28 28 134 45" width="114pt">
  <path d="M109.7058 49.2h3.792v13.902h7.017v3.548h-10.809zm14.302-.449c1.162 0 2.112.965 2.112 2.151s-.95 2.145-2.112 2.145c-1.163 0-2.112-.959-2.112-2.145s.949-2.151 2.112-2.151zm-1.824 5.92h3.647V66.65h-3.647zm6.266 0h3.494v1.624h.05c.487-.935 1.675-1.92 3.448-1.92 3.692 0 4.373 2.465 4.373 5.668v6.607h-3.642v-5.864c0-1.384-.025-3.158-1.898-3.158-1.888 0-2.182 1.501-2.182 3.062v5.96h-3.643zm13.94-6.654h3.642v11.385l4.031-4.731h4.461l-4.68 5.399 4.804 6.58h-4.585l-3.987-6.061h-.044v6.061h-3.642zm-62.256-3.692c4.059-7.924 12.214-13.339 21.616-13.339 9.408 0 17.561 5.415 21.617 13.339h1.163c-3.479-9.339-12.369-15.978-22.78-15.978-10.415 0-19.296 6.639-22.775 15.978zm8.383.674c2.485-4.853 7.479-8.17 13.233-8.17 5.759 0 10.749 3.317 13.238 8.17h.711c-2.132-5.716-7.569-9.785-13.949-9.785-6.381 0-11.812 4.069-13.948 9.785zm69.838 8.47c-1.74 0-2.978-1.32-2.978-3.073 0-1.849 1.375-3.071 2.978-3.071 1.586 0 2.962 1.222 2.962 3.071 0 1.848-1.376 3.073-2.962 3.073zm0-5.611c-1.311 0-2.33 1.042-2.33 2.538 0 1.399.89 2.54 2.33 2.54 1.295 0 2.315-1.036 2.315-2.54 0-1.496-1.02-2.538-2.315-2.538zm-.599 4.296h-.551v-3.4h1.271c.81 0 1.223.287 1.223.976 0 .618-.374.872-.875.929l.94 1.495h-.624l-.867-1.453h-.517zm.615-1.929c.413 0 .777-.042.777-.534 0-.413-.397-.461-.728-.461h-.664v.995z" fill="#0079b3"/>
  <path d="M28.3465 49.2001h5.685c5.531 0 10.172 2.388 10.172 8.776 0 5.645-4.542 8.674-9.662 8.674h-6.195zm3.788 13.902h1.968c3.523 0 6.167-1.36 6.167-5.324 0-3.425-2.694-5.031-5.9-5.031h-2.235zm16.047-14.351c1.168 0 2.115.965 2.115 2.151s-.947 2.145-2.115 2.145c-1.163 0-2.109-.959-2.109-2.145s.946-2.151 2.109-2.151zm-1.818 5.92h3.641v11.979h-3.641zm12.456 3.524c-.535-.662-1.24-1.007-2.115-1.007-.606 0-1.335.272-1.335.983 0 1.776 6.145.272 6.145 4.829 0 3.056-2.917 3.946-5.44 3.946-1.651 0-3.473-.419-4.64-1.627l2.211-2.486c.684.836 1.482 1.303 2.574 1.303.826 0 1.652-.216 1.652-.863 0-1.917-6.143-.294-6.143-4.851 0-2.81 2.478-4.047 4.951-4.047 1.555 0 3.277.395 4.373 1.578zm3.933-3.524h3.348v1.576h.048c.563-.863 1.969-1.872 3.618-1.872 3.5 0 5.8 2.567 5.8 6.193 0 3.319-2.037 6.378-5.381 6.378-1.51 0-2.918-.419-3.747-1.573h-.045v6.9h-3.641zm6.265 9.024c1.818 0 2.912-1.231 2.912-3.035 0-1.797-1.094-3.032-2.912-3.032-1.824 0-2.917 1.235-2.917 3.032 0 1.804 1.093 3.035 2.917 3.035zm8.254-15.679h3.643v18.633h-3.643zm13.178 17.13h-.044c-.806 1.285-2.257 1.8-3.742 1.8-2.211 0-4.199-1.276-4.199-3.697 0-4.144 4.955-4.213 7.985-4.213 0-1.312-1.062-2.145-2.325-2.145-1.192 0-2.187.54-2.963 1.432l-1.941-2.028c1.33-1.276 3.278-1.92 5.196-1.92 4.245 0 5.393 2.193 5.393 6.193v6.082h-3.36zm-.9-3.746c-1.112 0-3.588.099-3.588 1.72 0 .896.921 1.313 1.731 1.313 1.427 0 2.757-.764 2.757-2.242v-.791zm12.851 7.2c-.973 2.538-1.536 3.967-5.004 3.967-.924 0-1.848-.144-2.718-.44l.487-3.032c.552.242 1.089.365 1.699.365 1.65 0 1.914-.716 2.426-2.016l.269-.695-5.173-12.078h3.935l3.036 7.913h.045l2.604-7.913h3.737z" fill="#1a1918"/>
</svg>