<svg xmlns="http://www.w3.org/2000/svg" preserveAspectRatio="xMinYMin" viewBox="0 0 313 96" width="114pt">
  <path d="M244.69866 22.781868h-21.22V1.5646687h21.22V22.781868M27.687466 77.2392c8.658934 0 13.2052-3.12653 13.2052-22.8584V39.33027c0-17.321868-4.546266-20.302002-13.489066-20.302002h-6.390534V77.2392h6.6744M0 1.5646687h28.677066c23.145864 0 34.361464 14.6207993 34.361464 45.9984013 0 32.0912-11.785465 46.42609-35.06773 46.42609H0V1.5646687M102.65106 46.002134c7.24067 0 10.22494-2.980664 10.22494-10.929599v-5.9652c0-8.3776-3.40987-10.5052-10.50934-10.5052H95.6948v27.399999h6.95626m34.21827 47.987026h-21.58027l-12.2088-34.07449H95.9792v34.07449H74.825465V1.5646687h28.393865c19.4504 0 31.23667 8.0922663 31.23667 30.2390663 0 14.057865-4.6888 22.432799-17.60707 25.557865l9.51307 7.66667M188.83466 53.953734V39.19067c0-19.310935-3.40666-22.150935-11.49733-22.150935-7.952 0-11.21867 3.1224-11.21867 22.716135V54.3808c0 21.8636 3.69067 25.27347 11.35734 25.27347 7.952 0 11.35866-3.9792 11.35866-25.700536m-44.86533-6.390664c0-29.956668 9.94133-47.56240127 33.50667-47.56240127 23.852 0 33.50666 17.32439927 33.50666 47.28120127 0 29.5312-9.93733 48.41146-33.64533 48.41146-23.712 0-33.368-18.74066-33.368-48.13026M223.47866 28.362668h1.19867l9.512 7.644666 10.448 28.964666v29.01716h-21.15867V28.362668M255.85466 22.781868V1.5646687h56.36267V22.781868h-17.604V93.98916h-21.156V22.781868h-17.60267" fill="#231f20"/>
</svg>