<?xml version="1.0" encoding="UTF-8" standalone="no"?>
<!DOCTYPE svg PUBLIC "-//W3C//DTD SVG 1.1//EN" "http://www.w3.org/Graphics/SVG/1.1/DTD/svg11.dtd">
<svg xmlns="http://www.w3.org/2000/svg" xmlns:xl="http://www.w3.org/1999/xlink" version="1.1" preserveAspectRatio="xMinYMin" viewBox="0 0 313 96" width="313pt" height="8pc" xmlns:dc="http://purl.org/dc/elements/1.1/">
  <metadata> Produced by OmniGraffle 7.5 
    <dc:date>2017-12-02 15:56:18 +0000</dc:date>
  </metadata>
  <defs/>
  <g>
    <title>Canvas 1</title>
    <g>
      <title>Layer 1</title>
      <path d="M 244.69866 22.781868 L 223.47866 22.781868 L 223.47866 1.5646687 L 244.69866 1.5646687 L 244.69866 22.781868" fill="#231f20"/>
      <path d="M 27.687466 77.2392 C 36.3464 77.2392 40.892666 74.11267 40.892666 54.3808 L 40.892666 39.33027 C 40.892666 22.008402 36.3464 19.028268 27.4036 19.028268 L 21.013066 19.028268 L 21.013066 77.2392 L 27.687466 77.2392 M 7105427e-21 1.5646687 L 28.677066 1.5646687 C 51.82293 1.5646687 63.03853 16.185468 63.03853 47.56307 C 63.03853 79.65427 51.253065 93.98916 27.9708 93.98916 L 7105427e-21 93.98916 L 7105427e-21 1.5646687" fill="#231f20"/>
      <path d="M 102.65106 46.002134 C 109.89173 46.002134 112.876 43.02147 112.876 35.072535 L 112.876 29.107335 C 112.876 20.729735 109.46613 18.602135 102.36666 18.602135 L 95.6948 18.602135 L 95.6948 46.002134 L 102.65106 46.002134 M 136.86933 93.98916 L 115.28906 93.98916 L 103.08026 59.91467 L 95.9792 59.91467 L 95.9792 93.98916 L 74.825465 93.98916 L 74.825465 1.5646687 L 103.21933 1.5646687 C 122.66973 1.5646687 134.456 9.656935 134.456 31.803735 C 134.456 45.8616 129.7672 54.236534 116.84893 57.3616 L 126.362 65.02827" fill="#231f20"/>
      <path d="M 188.83466 53.953734 L 188.83466 39.19067 C 188.83466 19.879735 185.428 17.039735 177.33733 17.039735 C 169.38533 17.039735 166.11866 20.162135 166.11866 39.75587 L 166.11866 54.3808 C 166.11866 76.2444 169.80933 79.65427 177.476 79.65427 C 185.428 79.65427 188.83466 75.67507 188.83466 53.953734 L 188.83466 53.953734 M 143.96933 47.56307 C 143.96933 17.606402 153.91066 66872565e-11 177.476 66872565e-11 C 201.328 66872565e-11 210.98266 17.325068 210.98266 47.28187 C 210.98266 76.81307 201.04533 95.69333 177.33733 95.69333 C 153.62533 95.69333 143.96933 76.95267 143.96933 47.56307" fill="#231f20"/>
      <path d="M 223.47866 28.362668 L 224.67733 28.362668 L 234.18933 36.007334 L 244.63733 64.972 L 244.63733 93.98916 L 223.47866 93.98916 L 223.47866 28.362668" fill="#231f20"/>
      <path d="M 255.85466 22.781868 L 255.85466 1.5646687 L 312.21733 1.5646687 L 312.21733 22.781868 L 294.61333 22.781868 L 294.61333 93.98916 L 273.45733 93.98916 L 273.45733 22.781868 L 255.85466 22.781868" fill="#231f20"/>
    </g>
  </g>
</svg>
