<svg xmlns="http://www.w3.org/2000/svg" preserveAspectRatio="xMinYMin" viewBox="0 0 580 114" width="114pt">
  <path d="M322.12133 84.7292c-1.016 7.17187-6.724 10.9296-13.5 10.402-1.69467-.13227-3.22533-.4796-4.60133-1.0176-5.46267-3.13493-7.11334-8.38493-7.59334-11.68187l-.01066.0052c-.37334-5.10146-.776-15.76866 1.712-20.80986 2.11333-3.86347 5.79866-5.96827 10.68933-6.129735 6.94533-.228 12.20133 3.2172 13.23467 10.266665.91733 6.212534.96 12.7584.06933 18.9652m-3.448-47.104665c-8.712-.9308-16.24933 1.709335-22.62 9.3708V.00413616L272.98266 2.7978694V111.56303h23.07067v-6.45626c3.112 2.22083 6.13867 4.89479 9.67867 6.16198 13.44133 4.8177 31.16666.8901 37.368-17.08848 3.98132-11.53387 3.87732-23.35947.88-35.022935-3.324-12.9568-11.94667-20.11-25.30667-21.5328M401.41066 83.5604c-.07736.47973-.15736.95413-.26536 1.426-1.532 6.80573-6.47464 10.4896-13.0653 10.1824-7.08668-.32347-11.948-4.46573-12.63068-11.54747-.49332-5.17293-.53332-10.4552-.104-15.63066.67334-8.170935 5.78268-12.63907 13.44668-12.488 6.3.121865 10.78666 3.6916 12.388 9.74733 1.452 6.0932.3733 16.92453.23066 18.3104m-.976-44.59213c-8.016-2.14427-16.11334-2.117735-24.112.01293-11.97866 3.188135-20.00534 10.767735-22.592 22.82347-1.41334 6.57813-1.69334 13.57186-1.32 20.31666.85334 15.42974 10.39334 26.42034 25.20266 29.83388.208.05.42534.08698.63734.13489h-.00534s.04134.00782.108.02136c.56934.11406 1.14.21979 1.712.30729.19068.01615.38668.03177.57468.05052h.016c.71866.13229 1.58.23021 2.48666.30208 2.89866.3073 6.588.52709 9.668.16407.02134 0 .032-.00521.048-.00782.156-.0026.31466-.0026.47066-.01302 15.29198-.79531 26.89468-10.43646 30.28134-25.22765 1.85864-8.1124 1.85864-16.26453.06134-24.38226-2.812-12.742135-10.54-20.93907-23.23734-24.3364M54.112 38.5864H37.6464V27.63547c1.203066-10.3516 18.30253-8.384934 18.30253-8.384934l.0052-.707866-.0052-.0796V1.4593361h-.00253v-.0025333h-.0136c-.588-.1406667-34.013067-8.0723998-40.6516 17.3666672l-.007734.018666c-.0136.055734-.0292.111466-.0428.1672C14.1864 22.189602 14.2584 36.7552 14.271333 38.5864H0v19.47667h15.1568v52.97756h22.0708V58.06307h16.88173l1.900535-19.47667H54.112M104.85306 84.62347c-.7208 6.74733-6.18013 10.79946-12.63333 10.54533-6.6124-.25733-10.988-3.798-12.41613-10.1428-1.7124-9.02653.2912-19.752.46093-20.62133C81.99266 58.3464 86.4 55.348935 92.86666 55.5c6.34947.1432 11.2448 3.90107 11.95987 10.4792.6708 6.1536.68653 12.48747.02653 18.64427m1.89534-36.7188c-.27027-.29947-.538-.588535-.76867-.829735V47.0724c-.03707-.03693-.06613-.0688-.10373-.106265-.32027-.333865-.54574-.556265-.54574-.556265-5.19693-5.284935-7.1584-6.59947-11.22866-7.8-15.6552-4.610935-30.8964 3.586-35.7224 19.33653-2.9656 9.678534-3.0084 19.64053-1.26987 29.44107 3.755735 21.22556 19.5428 28.33337 36.36933 24.82972 5.16254-1.07604 9-4.29063 12.55934-8.76667 0 0 .3208-.39219.71306-1.15573v9.33958h21.53014V38.6688h-21.53014v9.23587h-.00266M194.03866 106.40521c-.99866-3.65417-2.136-7.25881-3.236-10.74121l-1.03866-3.87187s-26.98534 12.95423-31.19334-11.66093c-.38933-4.06293-.27066-8.25573.28934-12.265066 1.04933-7.566664 5.66533-11.618799 13.00933-12.313064 2.48133-.23587 5.06267-.11667 7.51867.2996 3.344.56453 6.60933 1.57133 10.26933 2.47493 1.272-3.892665 2.57333-7.74373 3.78533-11.6208.19067-.60733.34934-1.131865.47334-1.601065h.00266l.608-2.329735c-.152-.309865-.52-.63013-1.01333-.9432v.00267c-.62-.519335-1.67733-.9516-3.328-1.555735-.66-.2412-1.32267-.455735-1.98533-.662535-.59334-.188-.98-.299465-.98-.299465h.00266c-7.08933-2.027065-14.368-2.183865-21.76133-1.404665-15.584 1.64573-26.16 10.84213-29.09467 26.0224-1.54 7.988-1.468 16.07386.3 24.08533 2.648 11.99743 9.92 19.74951 21.74267 23.21617 7.71467 2.26043 15.62 2.37449 23.48533 1.1474 3.308-.51666 8.052-2.23177 11.45734-3.45312l1.296-.45625-.612-2.075.00266.00521M244.32666 67.910934h-24.928c.12934-4.958264.74934-9.567199 5.15734-12.373999 4.68-2.973335 9.85066-3.0848 14.664-.418665 4.86533 2.687465 5.24666 7.542665 5.10666 12.792664m20.75067 9.948936c-.10267-5.05107-.03467-10.126536-.74933-15.090135C262.35866 49.15787 254.07066 40.5448 240.66933 38.2948c-5.11467-.856265-10.524-.74213-15.72133-.2464-14.224 1.3568-25.02134 10.21667-27.23334 23.54947-1.344 8.08853-1.516 16.67293-.42933 24.79586 1.64 12.22027 7.58933 20.00367 17.884 23.74064h.00533c.044.0026.08934.01042.13467.01615l-.00533.00781c4.69866 1.4047 27.69466 7.41771 47.96666-2.76718l-.81466-2.98386-.028.0052c-.93867-3.98072-2.068-7.91876-3.13067-11.86516l-.11333-.38693s-.42134.15107-1.16934.3896c-.016.00267-.03733.00267-.05333.0052-.88533.2308-1.75867.50107-2.628.79267-.16267.0532-.32133.1032-.48267.15106-3.06933.86414-7.45466 1.9292-12.088 2.5256-3.888.39214-7.81466.40827-11.78.06867-6.43733-1.06507-11.364-4.51293-11.128-12.66507h3.67867c12.62 0 25.23733 0 37.86-.00266.3 0 .60533.00266.904-.00254l-.00267.0052s2.712-.0344 2.82534-.06093c0 0-.00267-.7156 0-.8032l-.04267-4.70413M579.672 39.4292H555.2l-21.2547 33.22867V.07080283L510.87465 2.8666694V111.63437h23.07065V78.34733L555.2 111.68177h24.472l-23.06535-36.1859L579.672 39.4292M480.0933 83.54733c-.0773.4824-.1573.95427-.2653 1.42814-1.53735 6.80573-6.4747 10.4844-13.06535 10.1824-7.08665-.33134-11.94799-4.47094-12.63199-11.5496-.492-5.1708-.53736-10.45254-.108-15.628536.684-8.172934 5.788-12.641199 13.45734-12.490134 6.2893.12187 10.7813 3.6916 12.38265 9.747335 1.44665 6.090135.376 16.927065.23065 18.310395m-.9733-44.589995c-8.01735-2.146935-16.1187-2.1204-24.11734.010935-11.97336 3.19053-20.00136 10.76773-22.588 22.8208-1.412 6.580264-1.69336 13.57186-1.31866 20.3192.848 15.42973 10.3933 26.42246 25.1973 29.8334.212.05052.42936.0875.64136.13541h-.00536s.03736.00782.104.02084c.56936.11406 1.14536.22031 1.71736.30521.19064.01822.384.03697.57464.04739l.016.00521c.724.13281 1.58.23333 2.48136.30469 2.904.30781 6.59864.5276 9.67334.16458.01465-.00521.0253-.00521.04665-.01042.16265-.0026.316-.0026.46665-.01093 15.2947-.7974 26.9-10.44168 30.2867-25.22765 1.85865-8.112 1.85865-16.266666.06665-24.3844C499.54 50.54947 491.8173 42.352135 479.12 38.957335" fill="#4860b0"/>
</svg>