<?xml version="1.0" encoding="UTF-8" standalone="no"?>
<!DOCTYPE svg PUBLIC "-//W3C//DTD SVG 1.1//EN" "http://www.w3.org/Graphics/SVG/1.1/DTD/svg11.dtd">
<svg xmlns="http://www.w3.org/2000/svg" xmlns:xl="http://www.w3.org/1999/xlink" version="1.1" preserveAspectRatio="xMinYMin" viewBox="0 0 580 114" width="580pt" height="114pt" xmlns:dc="http://purl.org/dc/elements/1.1/">
  <metadata> Produced by OmniGraffle 7.5 
    <dc:date>2017-12-02 20:33:32 +0000</dc:date>
  </metadata>
  <defs/>
  <g>
    <g>
      <title>Layer 1</title>
      <path d="M 322.12133 84.7292 C 321.10533 91.90107 315.39733 95.6588 308.62133 95.1312 C 306.92666 94.99893 305.396 94.6516 304.02 94.1136 C 298.55733 90.97867 296.90666 85.72867 296.42666 82.43173 L 296.416 82.43693 C 296.04266 77.33547 295.64 66.66827 298.128 61.62707 C 300.24133 57.7636 303.92666 55.6588 308.81733 55.497335 C 315.76266 55.269335 321.01866 58.714535 322.052 65.764 C 322.96933 71.976534 323.012 78.5224 322.12133 84.7292 M 318.67333 37.624535 C 309.96133 36.693735 302.424 39.33387 296.05333 46.995335 L 296.05333 44.61307 L 296.05333 3.2536027 L 296.05333 2.7978694 L 296.05333 .004136163 L 272.98266 2.7978694 L 272.98266 111.56303 L 296.05333 111.56303 L 296.05333 105.10677 C 299.16533 107.3276 302.192 110.00156 305.732 111.26875 C 319.17333 116.08645 336.89866 112.15885 343.1 94.18027 C 347.08132 82.6464 346.97732 70.8208 343.98 59.157335 C 340.656 46.200535 332.03333 39.047335 318.67333 37.624535" fill="#4860b0"/>
      <path d="M 401.41066 83.5604 C 401.3333 84.04013 401.2533 84.51453 401.1453 84.9864 C 399.6133 91.79213 394.67066 95.476 388.08 95.1688 C 380.99332 94.84533 376.132 90.70307 375.44932 83.62133 C 374.956 78.4484 374.916 73.16613 375.34532 67.99067 C 376.01866 59.819735 381.128 55.3516 388.792 55.50267 C 395.092 55.624535 399.57866 59.19427 401.18 65.25 C 402.632 71.3432 401.5533 82.17453 401.41066 83.5604 M 400.43466 38.96827 C 392.41866 36.824 384.32132 36.850535 376.32266 38.9812 C 364.344 42.169335 356.31732 49.748935 353.73066 61.80467 C 352.31732 68.3828 352.03732 75.37653 352.41066 82.12133 C 353.264 97.55107 362.804 108.54167 377.61332 111.95521 C 377.82132 112.00521 378.03866 112.04219 378.25066 112.0901 L 378.24532 112.0901 C 378.24532 112.0901 378.28666 112.09792 378.35332 112.11146 C 378.92266 112.22552 379.49332 112.33125 380.06532 112.41875 C 380.256 112.4349 380.452 112.45052 380.64 112.46927 L 380.656 112.46927 C 381.37466 112.60156 382.236 112.69948 383.14266 112.77135 C 386.04132 113.07865 389.73066 113.29844 392.81066 112.93542 C 392.832 112.93542 392.84266 112.93021 392.85866 112.9276 C 393.01466 112.925 393.17332 112.925 393.32932 112.91458 C 408.6213 112.11927 420.224 102.47812 423.61066 87.68693 C 425.4693 79.57453 425.4693 71.4224 423.672 63.30467 C 420.86 50.562535 413.132 42.3656 400.43466 38.96827" fill="#4860b0"/>
      <path d="M 54.112 38.5864 L 37.6464 38.5864 L 37.6464 27.63547 C 38.849466 17.28387 55.94893 19.250536 55.94893 19.250536 L 55.95413 18.54267 L 55.94893 18.46307 L 55.94893 1.4593361 L 55.9464 1.4593361 L 55.9464 1.4568028 L 55.9328 1.4568028 C 55.3448 1.3161361 21.919733 -6.615597 15.2812 18.82347 L 15.273466 18.842136 C 15.259866 18.89787 15.244266 18.953602 15.230666 19.009336 C 14.1864 22.189602 14.2584 36.7552 14.271333 38.5864 L 35527137e-22 38.5864 L 35527137e-22 58.06307 L 15.1568 58.06307 L 15.1568 111.04063 L 37.2276 111.04063 L 37.2276 58.06307 L 54.10933 58.06307 L 56.009865 38.5864 L 54.112 38.5864" fill="#4860b0"/>
      <path d="M 104.85306 84.62347 C 104.13226 91.3708 98.67293 95.42293 92.21973 95.1688 C 85.60733 94.91147 81.23173 91.3708 79.8036 85.026 C 78.0912 75.99947 80.0948 65.274 80.26453 64.40467 C 81.99266 58.3464 86.4 55.348935 92.86666 55.5 C 99.21613 55.6432 104.11146 59.40107 104.82653 65.9792 C 105.49733 72.1328 105.51306 78.46667 104.85306 84.62347 L 104.85306 84.62347 M 106.7484 47.90467 C 106.47813 47.6052 106.2104 47.316135 105.97973 47.074935 L 105.97973 47.0724 C 105.94266 47.03547 105.9136 47.0036 105.876 46.966135 C 105.55573 46.63227 105.33026 46.40987 105.33026 46.40987 C 100.13333 41.124935 98.17186 39.8104 94.1016 38.60987 C 78.4464 33.998935 63.2052 42.19587 58.3792 57.9464 C 55.4136 67.624934 55.3708 77.58693 57.10933 87.38747 C 60.865065 108.61303 76.65213 115.72084 93.47866 112.21719 C 98.6412 111.14115 102.47866 107.92656 106.038 103.45052 C 106.038 103.45052 106.3588 103.05833 106.75106 102.29479 L 106.75106 111.63437 L 128.2812 111.63437 L 128.2812 38.6688 L 106.75106 38.6688 L 106.75106 47.90467 L 106.7484 47.90467" fill="#4860b0"/>
      <path d="M 194.03866 106.40521 C 193.04 102.75104 191.90266 99.1464 190.80266 95.664 L 189.764 91.79213 C 189.764 91.79213 162.77866 104.74636 158.57066 80.1312 C 158.18133 76.06827 158.3 71.87547 158.86 67.866134 C 159.90933 60.29947 164.52533 56.247335 171.86933 55.55307 C 174.35066 55.3172 176.932 55.4364 179.388 55.85267 C 182.732 56.4172 185.99733 57.424 189.65733 58.3276 C 190.92933 54.434935 192.23066 50.58387 193.44266 46.7068 C 193.63333 46.09947 193.792 45.574935 193.916 45.105735 L 193.91866 45.105735 L 194.52666 42.776 C 194.37466 42.466135 194.00666 42.14587 193.51333 41.8328 L 193.51333 41.83547 C 192.89333 41.316135 191.836 40.88387 190.18533 40.279735 C 189.52533 40.038535 188.86266 39.824 188.2 39.6172 C 187.60666 39.4292 187.22 39.317735 187.22 39.317735 L 187.22266 39.317735 C 180.13333 37.29067 172.85466 37.13387 165.46133 37.91307 C 149.87733 39.5588 139.30133 48.7552 136.36666 63.93547 C 134.82666 71.92347 134.89866 80.00933 136.66666 88.0208 C 139.31466 100.01823 146.58666 107.77031 158.40933 111.23697 C 166.124 113.4974 174.02933 113.61146 181.89466 112.38437 C 185.20266 111.86771 189.94666 110.1526 193.352 108.93125 L 194.648 108.475 L 194.036 106.4 L 194.03866 106.40521" fill="#4860b0"/>
      <path d="M 244.32666 67.910934 L 219.39866 67.910934 C 219.528 62.95267 220.148 58.343735 224.556 55.536935 C 229.236 52.5636 234.40666 52.452135 239.22 55.11827 C 244.08533 57.805735 244.46666 62.660935 244.32666 67.910934 M 265.07733 77.85987 C 264.97466 72.8088 265.04266 67.733334 264.328 62.769735 C 262.35866 49.15787 254.07066 40.5448 240.66933 38.2948 C 235.55466 37.438535 230.14533 37.55267 224.948 38.0484 C 210.724 39.4052 199.92666 48.26507 197.71466 61.59787 C 196.37066 69.6864 196.19866 78.2708 197.28533 86.39373 C 198.92533 98.614 204.87466 106.3974 215.16933 110.13437 L 215.17466 110.13437 C 215.21866 110.13697 215.264 110.14479 215.30933 110.15052 L 215.304 110.15833 C 220.00266 111.56303 242.99866 117.57604 263.27066 107.39115 L 262.456 104.40729 L 262.428 104.41249 C 261.48933 100.43177 260.36 96.49373 259.29733 92.54733 L 259.184 92.1604 C 259.184 92.1604 258.76266 92.31147 258.01466 92.55 C 257.99866 92.55267 257.97733 92.55267 257.96133 92.5552 C 257.076 92.786 256.20266 93.05627 255.33333 93.34787 C 255.17066 93.40107 255.012 93.45107 254.85066 93.49893 C 251.78133 94.36307 247.396 95.42813 242.76266 96.02453 C 238.87466 96.41667 234.948 96.4328 230.98266 96.0932 C 224.54533 95.02813 219.61866 91.58027 219.85466 83.42813 L 223.53333 83.42813 C 236.15333 83.42813 248.77066 83.42813 261.39333 83.42547 C 261.69333 83.42547 261.99866 83.42813 262.29733 83.42293 L 262.29466 83.42813 C 262.29466 83.42813 265.00666 83.39373 265.12 83.3672 C 265.12 83.3672 265.11733 82.6516 265.12 82.564 L 265.07733 77.85987" fill="#4860b0"/>
      <path d="M 579.672 39.4292 L 555.2 39.4292 L 533.9453 72.65787 L 533.9453 .07080283 L 510.87465 2.8666694 L 510.87465 111.63437 L 533.9453 111.63437 L 533.9453 78.34733 L 555.2 111.68177 L 579.672 111.68177 L 556.60665 75.49587 L 579.672 39.4292" fill="#4860b0"/>
      <path d="M 480.0933 83.54733 C 480.016 84.02973 479.936 84.5016 479.828 84.97547 C 478.29065 91.7812 473.3533 95.45987 466.76265 95.15787 C 459.676 94.82653 454.81466 90.68693 454.13066 83.60827 C 453.63866 78.43747 453.5933 73.15573 454.02266 67.979734 C 454.70666 59.8068 459.81066 55.338535 467.48 55.4896 C 473.7693 55.61147 478.2613 59.1812 479.86265 65.236935 C 481.3093 71.32707 480.23865 82.164 480.0933 83.54733 L 480.0933 83.54733 M 479.12 38.957335 C 471.10265 36.8104 463.0013 36.836935 455.00266 38.96827 C 443.0293 42.1588 435.0013 49.736 432.41466 61.78907 C 431.00266 68.369334 430.7213 75.36093 431.096 82.10827 C 431.944 97.538 441.4893 108.53073 456.2933 111.94167 C 456.5053 111.99219 456.72266 112.02917 456.93466 112.07708 L 456.9293 112.07708 C 456.9293 112.07708 456.96666 112.0849 457.0333 112.09792 C 457.60266 112.21198 458.17866 112.31823 458.75066 112.40313 C 458.9413 112.42135 459.13466 112.4401 459.3253 112.45052 L 459.3413 112.45573 C 460.0653 112.58854 460.9213 112.68906 461.82266 112.76042 C 464.72666 113.06823 468.4213 113.28802 471.496 112.925 C 471.51065 112.91979 471.5213 112.91979 471.54265 112.91458 C 471.7053 112.91198 471.85865 112.91198 472.0093 112.90365 C 487.304 112.10625 498.9093 102.46197 502.296 87.676 C 504.15465 79.564 504.15465 71.409334 502.36265 63.2916 C 499.54 50.54947 491.8173 42.352135 479.12 38.957335" fill="#4860b0"/>
    </g>
  </g>
</svg>
