<svg xmlns="http://www.w3.org/2000/svg" viewBox="70 68 702 267" preserveAspectRatio="xMinYMin" width="114pt">
  <path d="M118.78 82.86V69H70.24v70.69H86V112h31.15V98.13H86V82.86zM192.73 125.74v-14.66h31.66V97.62h-31.66V83.06h35.2V69H177v70.69h52v-13.95zM319.12 69h-15.26l-30.54 70.69h16.79l6.56-15.28h29.63l6.58 15.28h16.79zm-16.49 41.57L311.54 90l8.79 20.54zM392.08 69v13.66h20v57h15.78v-57h20V69zM543 68.3v39c0 5.65333-1.3 10.11667-3.9 13.39-2.5222 3.23717-6.4494 5.06116-10.55 4.9-4.1224.15745-8.0722-1.66323-10.63-4.9-2.61333-3.24667-3.92-7.69667-3.92-13.35v-39h-15.81v39.55c0 10.18 2.85 18.03333 8.55 23.56 5.7 5.52667 12.96333 8.28667 21.79 8.28 8.82 0 16.06333-2.74667 21.73-8.24s8.49667-13.36 8.49-23.6V68.3zM650 114.41c8.9533-3.33333 13.4333-10.64667 13.44-21.94 0-8.22-2.3333-14.19-7-17.91-4.6667-3.72-12.5267-5.57333-23.58-5.56h-26.78v70.69h15.77v-22.55h10.93l15.66 22.54h19.42zm-5.58-13.56c-2 1.76-5.62 2.63-11 2.63h-11.57V82.56h11.82c5.07 0 8.59.7 10.63 2.12 2.04 1.42 3 4 3 7.83s-.96 6.59-2.91 8.34zM735.19 125.74v-14.66h31.66V97.62h-31.66V83.06h35.2V69h-51v70.67h52.08v-13.93zM518.83 321v-14.71h31.66v-13.45h-31.66v-14.56H554v-14.05h-51v70.67h52.08V321zM226 270.54c-4.94667-4.2-12.85-6.30333-23.71-6.31h-25v70.67h15.77v-19.71h9.42c10.44667 0 18.21333-2.02333 23.3-6.07 5.08667-4.04667 7.65-10.42 7.69-19.12 0-8.76-2.49-15.24667-7.47-19.46zm-11.57 27.82c-1.88667 2.12-5.46 3.18-10.72 3.18h-10.6v-23.77h9c5.18667 0 9.00667.86333 11.46 2.59 2.45333 1.72667 3.68333 4.62667 3.69 8.7.02 4.07-.92 7.17-2.8 9.3zM320.936 264.23h-15.262L275.13 334.9h16.7922l6.56086-15.27568h29.63388L334.6978 334.9H351.49zm-16.49216 41.55824l8.91116-20.56418 8.79116 20.53419zM424.78 320.15c-5.43704.07336-10.66403-2.09702-14.45-6-4-4-6-9.27667-6-15.83 0-6.55333 2.10667-11.78 6.32-15.68 4.12623-3.83984 9.58464-5.9235 15.22-5.81 7.41333 0 13.61667 3.10333 18.61 9.31l9.81-11.12c-7.8-8.81333-17.49667-13.22-29.09-13.22-9.8466-.2121-19.3569 3.58482-26.35 10.52-7.17333 7.01333-10.76 15.75667-10.76 26.23s3.52333 19.14 10.57 26c7.04 6.87333 16.00333 10.31 26.89 10.31 10.88667 0 20.34333-4.51333 28.37-13.54L443.8 310.9c-4.4937 5.95026-11.5648 9.38915-19.02 9.25zM119 299.1c-3.71962-3.1096-8.0697-5.37506-12.75-6.64-.93-.28-1.87-.55-2.85-.79-6.71333-1.64667-10.99333-3.07667-12.84-4.29-1.74224-1.02248-2.80312-2.90002-2.78-4.92-.07792-1.90413.74441-3.734 2.22-4.94 1.79002-1.3332 3.99156-1.99507 6.22-1.87 6.22418.09 12.26905 2.09797 17.31 5.75l1.51-2.29 6.28-9.51c-3.17657-2.3284-6.69506-4.15006-10.43-5.4-4.55354-1.58476-9.3386-2.40254-14.16-2.42-7.22 0-13.24 1.82-18.06 5.46-4.82 3.64-7.23 8.81667-7.23 15.53 0 6.7 1.91 11.63 5.72 14.75 3.15218 2.43307 6.7105 4.2884 10.51 5.48 2.48498.87 5.01537 1.60443 7.58 2.2.78.19 1.51.39 2.21.58 3.96 1.07333 6.69 2.14333 8.19 3.21 1.68611 1.11965 2.67924 3.0266 2.63 5.05.0627 1.9906-.86644 3.8826-2.48 5.05-2.00245 1.3457-4.39179 1.99574-6.8 1.85-3.47079-.06108-6.88532-.8874-10-2.42-2.29305-1.08458-4.47644-2.38725-6.52-3.89-.88-.61-1.76-1.29-2.66-2l-9.4 11.6c8.44667 7.12667 17.86 10.69 28.24 10.69 7.76 0 14.01333-1.97333 18.76-5.92 4.65599-3.73883 7.29426-9.4409 7.13-15.41.01333-6.34667-1.83667-11.17667-5.55-14.49z"/>
</svg>