<?xml version="1.0" encoding="UTF-8" standalone="no"?>
<!DOCTYPE svg PUBLIC "-//W3C//DTD SVG 1.1//EN" "http://www.w3.org/Graphics/SVG/1.1/DTD/svg11.dtd">
<svg xmlns="http://www.w3.org/2000/svg" xmlns:xl="http://www.w3.org/1999/xlink" version="1.1" viewBox="70 68 702 267" preserveAspectRatio="xMinYMin" width="702pt" height="267pt" xmlns:dc="http://purl.org/dc/elements/1.1/">
  <metadata> Produced by OmniGraffle 7.5 
    <dc:date>2017-12-02 16:08:52 +0000</dc:date>
  </metadata>
  <defs/>
  <g>
    <title>Canvas 1</title>
    <g>
      <title>Layer 1</title>
      <path d="M 118.78 82.86 L 118.78 69 L 70.24 69 L 70.24 139.69 L 86 139.69 L 86 112 L 117.15 112 L 117.15 98.13 L 86 98.13 L 86 82.86 Z" fill="black"/>
      <path d="M 192.73 125.74 L 192.73 111.08 L 224.39 111.08 L 224.39 97.62 L 192.73 97.62 L 192.73 83.06 L 227.93 83.06 L 227.93 69 L 177 69 L 177 139.69 L 229 139.69 L 229 125.74 Z" fill="black"/>
      <path d="M 319.12 69 L 303.86 69 L 273.32 139.69 L 290.11 139.69 L 296.67 124.41 L 326.3 124.41 L 332.88 139.69 L 349.67 139.69 Z M 302.63 110.57 L 311.54 90 L 320.33 110.54 Z" fill="black"/>
      <path d="M 392.08 69 L 392.08 82.66 L 412.08 82.66 L 412.08 139.66 L 427.86 139.66 L 427.86 82.66 L 447.86 82.66 L 447.86 69 Z" fill="black"/>
      <path d="M 543 68.3 L 543 107.3 C 543 112.95333 541.7 117.41667 539.1 120.69 C 536.5778 123.92717 532.6506 125.75116 528.55 125.59 C 524.4276 125.74745 520.4778 123.92677 517.92 120.69 C 515.30667 117.44333 514 112.99333 514 107.34 L 514 68.34 L 498.19 68.34 L 498.19 107.89 C 498.19 118.07 501.04 125.92333 506.74 131.45 C 512.44 136.97667 519.70333 139.73667 528.53 139.73 C 537.35 139.73 544.59333 136.98333 550.26 131.49 C 555.92667 125.99667 558.75667 118.13 558.75 107.89 L 558.75 68.3 Z" fill="black"/>
      <path d="M 650 114.41 C 658.9533 111.07667 663.4333 103.76333 663.44 92.47 C 663.44 84.25 661.1067 78.28 656.44 74.56 C 651.7733 70.84 643.9133 68.98667 632.86 69 L 606.08 69 L 606.08 139.69 L 621.85 139.69 L 621.85 117.14 L 632.78 117.14 L 648.44 139.68 L 667.86 139.68 Z M 644.42 100.85 C 642.42 102.61 638.8 103.48 633.42 103.48 L 621.85 103.48 L 621.85 82.56 L 633.67 82.56 C 638.74 82.56 642.26 83.26 644.3 84.68 C 646.34 86.1 647.3 88.68 647.3 92.51 C 647.3 96.34 646.34 99.1 644.39 100.85 Z" fill="black"/>
      <path d="M 735.19 125.74 L 735.19 111.08 L 766.85 111.08 L 766.85 97.62 L 735.19 97.62 L 735.19 83.06 L 770.39 83.06 L 770.39 69 L 719.39 69 L 719.39 139.67 L 771.47 139.67 L 771.47 125.74 Z" fill="black"/>
      <path d="M 518.83 321 L 518.83 306.29 L 550.49 306.29 L 550.49 292.84 L 518.83 292.84 L 518.83 278.28 L 554 278.28 L 554 264.23 L 503 264.23 L 503 334.9 L 555.08 334.9 L 555.08 321 Z" fill="black"/>
      <path d="M 226 270.54 C 221.05333 266.34 213.15 264.23667 202.29 264.23 L 177.29 264.23 L 177.29 334.9 L 193.06 334.9 L 193.06 315.19 L 202.48 315.19 C 212.92667 315.19 220.69333 313.16667 225.78 309.12 C 230.86667 305.07333 233.43 298.7 233.47 290 C 233.47 281.24 230.98 274.75333 226 270.54 Z M 214.43 298.36 C 212.54333 300.48 208.97 301.54 203.71 301.54 L 193.11 301.54 L 193.11 277.77 L 202.11 277.77 C 207.29667 277.77 211.11667 278.63333 213.57 280.36 C 216.02333 282.08667 217.25333 284.98667 217.26 289.06 C 217.28 293.13 216.34 296.23 214.46 298.36 Z" fill="black"/>
      <path d="M 320.936 264.23 L 305.674 264.23 L 275.13 334.9 L 291.9222 334.9 L 298.48306 319.62432 L 328.11694 319.62432 L 334.6978 334.9 L 351.49 334.9 Z M 304.44384 305.78824 L 313.355 285.22406 L 322.14616 305.75825 Z" fill="black"/>
      <path d="M 424.78 320.15 C 419.34296 320.22336 414.11597 318.05298 410.33 314.15 C 406.33 310.15 404.33 304.87333 404.33 298.32 C 404.33 291.76667 406.43667 286.54 410.65 282.64 C 414.77623 278.80016 420.23464 276.7165 425.87 276.83 C 433.28333 276.83 439.48667 279.93333 444.48 286.14 L 454.29 275.02 C 446.49 266.20667 436.79333 261.8 425.2 261.8 C 415.3534 261.5879 405.8431 265.38482 398.85 272.32 C 391.67667 279.33333 388.09 288.07667 388.09 298.55 C 388.09 309.02333 391.61333 317.69 398.66 324.55 C 405.7 331.42333 414.66333 334.86 425.55 334.86 C 436.43667 334.86 445.89333 330.34667 453.92 321.32 L 443.8 310.9 C 439.3063 316.85026 432.2352 320.28915 424.78 320.15 Z" fill="black"/>
      <path d="M 119 299.1 C 115.28038 295.9904 110.9303 293.72494 106.25 292.46 C 105.32 292.18 104.38 291.91 103.4 291.67 C 96.68667 290.02333 92.40667 288.59333 90.56 287.38 C 88.81776 286.35752 87.75688 284.47998 87.78 282.46 C 87.70208 280.55587 88.52441 278.726 90 277.52 C 91.79002 276.1868 93.99156 275.52493 96.22 275.65 C 102.44418 275.74 108.48905 277.74797 113.53 281.4 L 115.04 279.11 L 121.32 269.6 C 118.14343 267.2716 114.62494 265.44994 110.89 264.2 C 106.33646 262.61524 101.5514 261.79746 96.73 261.78 C 89.51 261.78 83.49 263.6 78.67 267.24 C 73.85 270.88 71.44 276.05667 71.44 282.77 C 71.44 289.47 73.35 294.4 77.16 297.52 C 80.31218 299.95307 83.8705 301.8084 87.67 303 C 90.15498 303.87 92.68537 304.60443 95.25 305.2 C 96.03 305.39 96.76 305.59 97.46 305.78 C 101.42 306.85333 104.15 307.92333 105.65 308.99 C 107.33611 310.10965 108.32924 312.0166 108.28 314.04 C 108.3427 316.0306 107.41356 317.9226 105.8 319.09 C 103.79755 320.4357 101.40821 321.08574 99 320.94 C 95.52921 320.87892 92.11468 320.0526 89 318.52 C 86.70695 317.43542 84.52356 316.13275 82.48 314.63 C 81.6 314.02 80.72 313.34 79.82 312.63 L 70.42 324.23 C 78.86667 331.35667 88.28 334.92 98.66 334.92 C 106.42 334.92 112.67333 332.94667 117.42 329 C 122.07599 325.26117 124.71426 319.5591 124.55 313.59 C 124.56333 307.24333 122.71333 302.41333 119 299.1 Z" fill="black"/>
    </g>
  </g>
</svg>
