<svg width="61px" height="61px" viewBox="0 0 61 61" version="1.1" xmlns="http://www.w3.org/2000/svg" xmlns:xlink="http://www.w3.org/1999/xlink" preserveAspectRatio="xMinYMin">
    <g id="Page-1" stroke="none" stroke-width="1" fill="none" fill-rule="evenodd">
        <g id="g-research" fill="#02A6E2">
            <path d="M24.8383528,26.7131285 C25.1725819,26.7131285 25.4809708,26.4394757 25.4809708,26.0294201 C25.4809708,25.5914062 25.2729778,25.2808993 24.8129361,25.2808993 L24.3795819,25.2808993 L24.3795819,26.7131285 L24.8383528,26.7131285 Z M25.1895264,28.6223437 C25.0395681,28.0110729 24.7798944,27.9373645 24.5295403,27.9373645 L24.4456653,27.9373645 L24.4456653,30.4294687 L22.8749153,30.4294687 L22.8749153,24.0570868 L25.2060472,24.0570868 C26.3836861,24.0570868 27.0534153,24.5967674 27.0534153,25.773559 C27.0534153,26.7131285 26.4425681,27.0986145 25.9325403,27.2337465 L25.9325403,27.2617049 C26.2667694,27.3807395 26.4845056,27.5535729 26.7183389,28.4393437 L27.2461583,30.4294687 L25.6237278,30.4294687 L25.1895264,28.6223437 Z" id="Fill-1" fill-rule="nonzero"></path>
            <polygon id="Fill-3" points="27.8962743 24.0572986 31.4711285 24.0572986 31.4711285 25.3166944 29.4322882 25.3166944 29.4322882 26.5400833 31.3707326 26.5400833 31.3707326 27.80075 29.4322882 27.80075 29.4322882 29.1694375 31.5791493 29.1694375 31.5791493 30.4292569 27.8962743 30.4292569"></polygon>
            <path d="M32.3152583,28.896166 C32.5071542,29.016048 33.0752167,29.2782632 33.6352306,29.2782632 C34.2278625,29.2782632 34.4371264,28.9961382 34.4371264,28.5962493 C34.4371264,28.1747563 34.1783,28.0561451 33.7271542,27.8638257 L33.3840292,27.7189507 C32.4241264,27.3067771 32.1322583,26.7421035 32.1322583,25.8372701 C32.1322583,24.6325201 33.0171819,23.9466938 34.2532792,23.9466938 C34.6951056,23.9466938 35.2474944,23.9928674 35.7236333,24.2025549 L35.6562792,25.4539021 C35.3809319,25.2988605 34.9043694,25.134923 34.4544944,25.134923 C33.9855569,25.134923 33.7013139,25.3446105 33.7013139,25.737298 C33.7013139,26.0655965 33.8521194,26.2117424 34.3701958,26.4680271 L35.0721194,26.8149646 C35.5982444,27.0797215 36.0570153,27.4804576 36.0570153,28.4306174 C36.0570153,29.826416 35.13905,30.5380826 33.7771403,30.5380826 C33.0752167,30.5380826 32.5152028,30.3758396 32.2229111,30.2932355 L32.3152583,28.896166 Z" id="Fill-5"></path>
            <polygon id="Fill-7" points="36.859123 24.0572986 40.4339771 24.0572986 40.4339771 25.3166944 38.3964076 25.3166944 38.3964076 26.5400833 40.3331576 26.5400833 40.3331576 27.80075 38.3964076 27.80075 38.3964076 29.1694375 40.5428451 29.1694375 40.5428451 30.4292569 36.859123 30.4292569"></polygon>
            <path d="M43.5500181,25.3527438 L43.5330736,25.3527438 L42.9061292,27.8537437 L44.0596222,27.8537437 L43.5500181,25.3527438 Z M44.3519139,29.0784035 L42.640525,29.0784035 L42.2639347,30.4292993 L40.7605389,30.4292993 L42.6977125,24.057341 L44.4264694,24.057341 L46.2814625,30.4292993 L44.6607264,30.4292993 L44.3519139,29.0784035 Z" id="Fill-9" fill-rule="nonzero"></path>
            <path d="M48.7127785,26.7131285 C49.046584,26.7131285 49.3553965,26.4394757 49.3553965,26.0294201 C49.3553965,25.5914062 49.145709,25.2808993 48.6869382,25.2808993 L48.253584,25.2808993 L48.253584,26.7131285 L48.7127785,26.7131285 Z M49.0622576,28.6223437 C48.9131465,28.0110729 48.6538965,27.9373645 48.403966,27.9373645 L48.3192438,27.9373645 L48.3192438,30.4294687 L46.7489174,30.4294687 L46.7489174,24.0570868 L49.0796257,24.0570868 C50.2585355,24.0570868 50.9265701,24.5967674 50.9265701,25.773559 C50.9265701,26.7131285 50.3165701,27.0986145 49.8078132,27.2337465 L49.8078132,27.2617049 C50.1416188,27.3807395 50.3585076,27.5535729 50.592341,28.4393437 L51.1176188,30.4294687 L49.4981535,30.4294687 L49.0622576,28.6223437 Z" id="Fill-11" fill-rule="nonzero"></path>
            <path d="M55.9377625,30.2933625 C55.44595,30.4568764 54.9439708,30.5382097 54.5012972,30.5382097 C52.8055819,30.5382097 51.5940542,29.43555 51.5940542,27.1980361 C51.5940542,25.3163556 52.5802208,23.9468208 54.4932486,23.9468208 C55.2536306,23.9468208 55.7623875,24.1751472 55.9051444,24.2399597 L55.8212694,25.6455014 C55.6378458,25.5277375 55.1786514,25.2807722 54.6851444,25.2807722 C53.6837278,25.2807722 53.2152139,25.9932861 53.2152139,27.2336194 C53.2152139,28.3307722 53.7667556,29.1695222 54.7516514,29.1695222 C55.3116653,29.1695222 55.72045,28.9238278 55.8721028,28.8136889 L55.9377625,30.2933625 Z" id="Fill-13"></path>
            <polygon id="Fill-15" points="59.4304785 27.8375194 58.2100549 27.8375194 58.2100549 30.4295958 56.6401521 30.4295958 56.6401521 24.0572139 58.2100549 24.0572139 58.2100549 26.5039917 59.4304785 26.5039917 59.4304785 24.0572139 60.9999576 24.0572139 60.9999576 30.4295958 59.4304785 30.4295958"></polygon>
            <path d="M22.875,34.3125 L51.0332778,40.5696597 C47.3093125,48.1522986 39.5182569,53.375 30.5,53.375 C17.8666458,53.375 7.625,43.1333542 7.625,30.5 C7.625,17.8666458 17.8666458,7.625 30.5,7.625 C34.9127569,7.625 39.0315278,8.87761808 42.5258958,11.0418472 L46.5345278,4.5559375 C41.8752292,1.67029861 36.3835347,0 30.5,0 C13.6551042,0 0,13.6551042 0,30.5 C0,47.3448958 13.6551042,61 30.5,61 C46.0524583,61 58.8768611,49.356625 60.7543056,34.3125 L22.875,34.3125 Z" id="Fill-17"></path>
        </g>
    </g>
</svg>
