<svg width="482px" height="130px" viewBox="0 0 482 130" version="1.1" xmlns="http://www.w3.org/2000/svg" xmlns:xlink="http://www.w3.org/1999/xlink">
    <g id="Page-1" stroke="none" stroke-width="1" fill="none" fill-rule="evenodd">
        <g id="GitHub_Logo" transform="translate(-143.000000, -2.000000)" fill="#161312">
            <g id="g10" transform="translate(384.000000, 321.933330) scale(-1, 1) rotate(-180.000000) translate(-384.000000, -321.933330) translate(0.000000, 0.933330)">
                <g id="g12">
                    <path d="M236.374661,585.350652 L196.018662,585.350652 C194.977328,585.350652 194.133328,584.505319 194.133328,583.462652 L194.133328,563.733319 C194.133328,562.691986 194.977328,561.843986 196.018662,561.843986 L211.761328,561.843986 L211.761328,537.330653 C211.761328,537.330653 208.226661,536.12532 198.453328,536.12532 C186.923995,536.12532 170.817329,540.338653 170.817329,575.757319 C170.817329,611.181318 187.589329,615.842651 203.334662,615.842651 C216.965328,615.842651 222.835994,613.443985 226.573328,612.287985 C227.747994,611.927985 228.833328,613.095985 228.833328,614.138651 L233.334661,633.202651 C233.334661,633.689317 233.169328,634.277317 232.614661,634.675984 C231.097328,635.757317 221.839994,640.937317 198.453328,640.937317 C171.513329,640.937317 143.87733,629.475984 143.87733,574.374652 C143.87733,519.27332 175.517329,511.062654 202.179995,511.062654 C224.255994,511.062654 237.647994,520.495987 237.647994,520.495987 C238.199994,520.80132 238.259994,521.571987 238.259994,521.926654 L238.259994,583.462652 C238.259994,584.505319 237.415994,585.350652 236.374661,585.350652" id="path30"></path>
                    <path d="M444.353322,634.335984 C444.353322,635.385317 443.521322,636.233317 442.478656,636.233317 L419.75599,636.233317 C418.718656,636.233317 417.874656,635.385317 417.874656,634.335984 C417.874656,634.330651 417.881323,590.422652 417.881323,590.422652 L382.461324,590.422652 L382.461324,634.335984 C382.461324,635.385317 381.626657,636.233317 380.586657,636.233317 L357.865324,636.233317 C356.831991,636.233317 355.987991,635.385317 355.987991,634.335984 L355.987991,515.431987 C355.987991,514.382654 356.831991,513.52932 357.865324,513.52932 L380.586657,513.52932 C381.626657,513.52932 382.461324,514.382654 382.461324,515.431987 L382.461324,566.290653 L417.881323,566.290653 C417.881323,566.290653 417.818656,515.435987 417.818656,515.431987 C417.818656,514.382654 418.661323,513.52932 419.701323,513.52932 L442.477322,513.52932 C443.518656,513.52932 444.350656,514.382654 444.353322,515.431987 L444.353322,634.335984" id="path32"></path>
                    <path d="M279.253326,618.733318 C279.253326,626.914651 272.69466,633.526651 264.601327,633.526651 C256.515994,633.526651 249.95066,626.914651 249.95066,618.733318 C249.95066,610.558651 256.515994,603.929318 264.601327,603.929318 C272.69466,603.929318 279.253326,610.558651 279.253326,618.733318" id="path34"></path>
                    <path d="M277.629326,540.51332 C277.629326,543.56132 277.629326,595.399985 277.629326,595.399985 C277.629326,596.442652 276.787993,597.294652 275.749326,597.294652 L253.097327,597.294652 C252.05866,597.294652 251.129327,596.222652 251.129327,595.181318 C251.129327,595.181318 251.129327,529.134653 251.129327,516.54532 C251.129327,514.234654 252.569327,513.546654 254.431994,513.546654 C254.431994,513.546654 264.101327,513.546654 274.839993,513.546654 C277.079993,513.546654 277.629326,514.646654 277.629326,516.582654 C277.629326,520.79732 277.629326,537.30932 277.629326,540.51332" id="path36"></path>
                    <path d="M530.70932,597.115985 L508.161321,597.115985 C507.127987,597.115985 506.285321,596.262652 506.285321,595.214652 L506.285321,536.911987 C506.285321,536.911987 500.555987,532.72132 492.425321,532.72132 C484.295988,532.72132 482.138655,536.410653 482.138655,544.371986 C482.138655,552.342653 482.138655,595.214652 482.138655,595.214652 C482.138655,596.262652 481.298655,597.115985 480.262655,597.115985 L457.377322,597.115985 C456.345322,597.115985 455.498655,596.262652 455.498655,595.214652 C455.498655,595.214652 455.498655,564.166653 455.498655,540.52132 C455.498655,516.874654 468.677322,511.090654 486.806654,511.090654 C501.681321,511.090654 513.67332,519.306654 513.67332,519.306654 C513.67332,519.306654 514.243987,514.975987 514.502654,514.462654 C514.759987,513.950654 515.43332,513.43332 516.16132,513.43332 L530.719987,513.498654 C531.751987,513.498654 532.598653,514.351987 532.598653,515.395987 L532.590653,595.214652 C532.590653,596.262652 531.74932,597.115985 530.70932,597.115985" id="path38"></path>
                    <path d="M583.445319,532.79332 C575.623986,533.030653 570.318652,536.579987 570.318652,536.579987 L570.318652,574.234652 C570.318652,574.234652 575.551986,577.442652 581.973319,578.015986 C590.093319,578.742652 597.917318,576.290652 597.917318,556.919986 C597.917318,536.494653 594.386652,532.462653 583.445319,532.79332 Z M592.338652,599.786652 C579.531986,599.786652 570.821319,594.071985 570.821319,594.071985 L570.821319,634.335984 C570.821319,635.385317 569.981319,636.233317 568.946652,636.233317 L546.158653,636.233317 C545.122653,636.233317 544.28132,635.385317 544.28132,634.335984 L544.28132,515.431987 C544.28132,514.382654 545.122653,513.52932 546.16132,513.52932 C546.163986,513.52932 561.966653,513.52932 561.971986,513.52932 C562.683986,513.52932 563.222653,513.895987 563.621319,514.538654 C564.014653,515.178654 564.581319,520.02132 564.581319,520.02132 C564.581319,520.02132 573.898652,511.191987 591.537319,511.191987 C612.246651,511.191987 624.122651,521.694654 624.122651,558.345319 C624.122651,594.997318 605.154652,599.786652 592.338652,599.786652 Z" id="path40" fill-rule="nonzero"></path>
                    <path d="M342.935991,597.305318 L325.890659,597.305318 C325.890659,597.305318 325.865325,619.818651 325.865325,619.822651 C325.865325,620.675984 325.425325,621.101318 324.439992,621.101318 L301.213326,621.101318 C300.309326,621.101318 299.825326,620.703984 299.825326,619.835985 L299.825326,596.566652 C299.825326,596.566652 288.185326,593.757318 287.397326,593.529318 C286.61466,593.302652 286.037326,592.579985 286.037326,591.717319 L286.037326,577.094652 C286.037326,576.042652 286.877326,575.194652 287.915993,575.194652 L299.825326,575.194652 C299.825326,575.194652 299.825326,559.899986 299.825326,540.015986 C299.825326,513.886654 318.153325,511.319987 330.519992,511.319987 C336.171992,511.319987 342.931991,513.134654 344.047991,513.546654 C344.722658,513.794654 345.114658,514.494654 345.114658,515.251987 L345.134658,531.338653 C345.134658,532.386653 344.247991,533.235987 343.250658,533.235987 C342.255991,533.235987 339.715992,532.831987 337.099992,532.831987 C328.726658,532.831987 325.890659,536.723987 325.890659,541.763986 C325.890659,546.798653 325.889325,575.194652 325.889325,575.194652 L342.935991,575.194652 C343.974658,575.194652 344.815991,576.042652 344.815991,577.094652 L344.815991,595.410652 C344.815991,596.459985 343.974658,597.305318 342.935991,597.305318" id="path42"></path>
                </g>
            </g>
        </g>
    </g>
</svg>
