<svg width="975px" height="125px" viewBox="0 0 975 125" version="1.1" xmlns="http://www.w3.org/2000/svg" xmlns:xlink="http://www.w3.org/1999/xlink">
    <g id="Page-1" stroke="none" stroke-width="1" fill="none" fill-rule="evenodd">
        <g id="Graphcore-wordmark" fill="#292C31">
            <path d="M963.77,72.06 L963.77,51.06 C963.77,50.7451977 963.514802,50.49 963.2,50.49 L920.34,50.49 C920.008629,50.49 919.74,50.2213708 919.74,49.89 L919.74,23.72 C919.74,23.3886292 919.471371,23.12 919.14,23.12 L898.32,23.12 C897.988629,23.12 897.72,23.3886292 897.72,23.72 L897.72,99.56 C897.72,99.8913708 897.988629,100.16 898.32,100.16 L919.14,100.16 C919.471371,100.16 919.74,99.8913708 919.74,99.56 L919.74,73.11 C919.731831,72.9587735 919.78418,72.8105129 919.885492,72.6979432 C919.986805,72.5853736 920.128751,72.5177504 920.28,72.51 L963.2,72.51 C963.473333,72.5161127 963.71251,72.327289 963.77,72.06 Z" id="Path"></path>
            <rect id="Rectangle" x="919.74" y="2.93" width="55.02" height="20.19" rx="0.6"></rect>
            <rect id="Rectangle" x="919.74" y="100.16" width="55.02" height="22.02" rx="0.6"></rect>
            <path d="M886.78,122.14 C886.989023,122.14146 887.183741,122.034031 887.293974,121.856432 C887.404208,121.678834 887.414068,121.456666 887.32,121.27 L862.62,72.27 C862.549634,72.1360814 862.53539,71.9796834 862.580406,71.8352565 C862.625422,71.6908296 862.726006,71.5702218 862.86,71.5 L862.95,71.5 C874.56,66.88 881.25,53.83 881.25,40.57 C881.25,8.83 856.95,2.92 846.99,2.92 L798.15,2.92 C797.818629,2.92 797.55,3.18862915 797.55,3.52 L797.55,121.52 C797.55,121.851371 797.818629,122.12 798.15,122.12 L818.64,122.12 C818.971371,122.12 819.24,121.851371 819.24,121.52 L819.24,79.4 C819.24,79.0686292 819.508629,78.8 819.84,78.8 L840.45,78.8 C840.678094,78.7984126 840.887361,78.9262977 840.99,79.13 L862.17,121.81 C862.272639,122.013702 862.481906,122.141587 862.71,122.14 L886.78,122.14 Z M839.58,57.14 L819.81,57.14 C819.478629,57.14 819.21,56.8713708 819.21,56.54 L819.21,25.19 C819.21,24.8586292 819.478629,24.59 819.81,24.59 L843.24,24.59 C855.84,24.59 859.32,34.37 859.32,41.21 C859.35,52 851.64,57.11 839.58,57.11 L839.58,57.14 Z" id="Shape" fill-rule="nonzero"></path>
            <path d="M724,0.67 L688,12.38 C687.879217,12.4196964 687.774165,12.496734 687.7,12.6 L665.43,43.26 C665.357689,43.3623199 665.319224,43.4847098 665.32,43.61 L665.32,81.5 C665.319224,81.6252902 665.357689,81.7476801 665.43,81.85 L687.7,112.51 C687.774165,112.613266 687.879217,112.690304 688,112.73 L724,124.44 C724.120254,124.478977 724.249746,124.478977 724.37,124.44 L760.37,112.73 C760.490783,112.690304 760.595835,112.613266 760.67,112.51 L783,81.85 C783.072311,81.7476801 783.110776,81.6252902 783.11,81.5 L783.11,43.61 C783.110776,43.4847098 783.072311,43.3623199 783,43.26 L760.7,12.6 C760.625835,12.496734 760.520783,12.4196964 760.4,12.38 L724.4,0.67 C724.270592,0.624247233 724.129408,0.624247233 724,0.67 Z M762.11,75.07 L747.81,94.75 C747.735835,94.853266 747.630783,94.9303036 747.51,94.97 L724.37,102.49 C724.249746,102.528977 724.120254,102.528977 724,102.49 L700.85,95 C700.729217,94.9603036 700.624165,94.883266 700.55,94.78 L686.25,75.1 C686.177689,74.9976801 686.139224,74.8752902 686.14,74.75 L686.14,50.39 C686.139224,50.2647098 686.177689,50.1423199 686.25,50.04 L700.55,30.36 C700.624165,30.256734 700.729217,30.1796964 700.85,30.14 L724,22.62 C724.120254,22.5810227 724.249746,22.5810227 724.37,22.62 L747.51,30.14 C747.630783,30.1796964 747.735835,30.256734 747.81,30.36 L762.1,50 C762.172311,50.1023199 762.210776,50.2247098 762.21,50.35 L762.21,74.68 C762.219669,74.8188227 762.180784,74.9566898 762.1,75.07 L762.11,75.07 Z" id="Shape" fill-rule="nonzero"></path>
            <path d="M646,87.17 C645.766694,86.9413143 645.393306,86.9413143 645.16,87.17 C639.56,92.59 631.95,102.17 616.7,102.17 C595.4,102.17 578.9,88.3 578.9,62.75 C578.9,36.27 594.9,22.85 616.7,22.85 C627.520519,23.057967 637.792379,27.6525132 645.16,35.58 C645.362173,35.8191094 645.719373,35.8503644 645.96,35.65 L646.03,35.58 L660.03,20.42 C660.191541,20.2296539 660.191541,19.9503461 660.03,19.76 C648.414666,7.58720849 632.34519,0.666249916 615.52,0.59 C579.85,0.59 555.94,26.65 555.94,62.74 C555.94,101.68 586.13,124.53 616,124.53 C635.11,124.53 651.94,112.53 660.72,103.29 C660.881541,103.099654 660.881541,102.820346 660.72,102.63 L646,87.17 Z" id="Path"></path>
            <path d="M518.49,50.65 L466.49,50.65 C466.158629,50.65 465.89,50.3813708 465.89,50.05 L465.89,3.53 C465.89,3.19862915 465.621371,2.93 465.29,2.93 L444.47,2.93 C444.138629,2.93 443.87,3.19862915 443.87,3.53 L443.87,121.53 C443.87,121.861371 444.138629,122.13 444.47,122.13 L465.29,122.13 C465.44913,122.13 465.601742,122.066786 465.714264,121.954264 C465.826786,121.841742 465.89,121.68913 465.89,121.53 L465.89,73.26 C465.89,72.9286292 466.158629,72.66 466.49,72.66 L518.49,72.66 C518.64913,72.66 518.801742,72.7232141 518.914264,72.8357359 C519.026786,72.9482578 519.09,73.1008701 519.09,73.26 L519.09,121.57 C519.09,121.901371 519.358629,122.17 519.69,122.17 L540.5,122.17 C540.831371,122.17 541.1,121.901371 541.1,121.57 L541.1,3.57 C541.1,3.23862915 540.831371,2.97 540.5,2.97 L519.68,2.97 C519.52087,2.97 519.368258,3.0332141 519.255736,3.14573593 C519.143214,3.25825776 519.08,3.41087011 519.08,3.57 L519.08,50 C519.088159,50.1591809 519.032645,50.3150664 518.925708,50.4332596 C518.818771,50.5514528 518.669201,50.6222394 518.51,50.63 L518.49,50.65 Z" id="Path"></path>
            <path d="M364.64,25.22 L364.64,56.55 C364.64,56.8813708 364.908629,57.15 365.24,57.15 L407.35,57.15 C407.681371,57.15 407.95,57.4186292 407.95,57.75 L407.95,78.24 C407.95,78.5713708 407.681371,78.84 407.35,78.84 L365.24,78.84 C364.908629,78.84 364.64,79.1086292 364.64,79.44 L364.64,121.58 C364.64,121.911371 364.371371,122.18 364.04,122.18 L343.56,122.18 C343.228629,122.18 342.96,121.911371 342.96,121.58 L342.96,3.58 C342.96,3.24862915 343.228629,2.98 343.56,2.98 L407.36,2.98 C407.691371,2.98 407.96,3.24862915 407.96,3.58 L407.96,24 C407.96,24.3313708 407.691371,24.6 407.36,24.6 L365.24,24.6 C365.077343,24.5999096 364.92162,24.6658617 364.808505,24.7827471 C364.69539,24.8996324 364.634578,25.0574339 364.64,25.22 Z M408,25 L408,56.33 C408,56.4891299 408.063214,56.6417422 408.175736,56.7542641 C408.288258,56.8667859 408.44087,56.93 408.6,56.93 L429,56.93 C429.331371,56.93 429.6,56.6613708 429.6,56.33 L429.6,25 C429.6,24.6686292 429.331371,24.4 429,24.4 L408.56,24.4 C408.244345,24.4210898 407.999296,24.6836417 408,25 Z" id="Shape" fill-rule="nonzero"></path>
            <path d="M262.22,3.28 L225.73,81.43 C225.692171,81.5080191 225.671701,81.5933103 225.67,81.68 L225.67,121.57 C225.67,121.901371 225.938629,122.17 226.27,122.17 L247.09,122.17 C247.24913,122.17 247.401742,122.106786 247.514264,121.994264 C247.626786,121.881742 247.69,121.72913 247.69,121.57 L247.69,89.75 C247.69,89.5908701 247.753214,89.4382578 247.865736,89.3257359 C247.978258,89.2132141 248.13087,89.15 248.29,89.15 L302.13,89.15 C302.461371,89.15 302.73,89.4186292 302.73,89.75 L302.73,121.57 C302.73,121.901371 302.998629,122.17 303.33,122.17 L324.15,122.17 C324.481371,122.17 324.75,121.901371 324.75,121.57 L324.75,81.69 C324.749769,81.5999284 324.729262,81.5110644 324.69,81.43 L287.4,3.27 C287.300186,3.06240864 287.090341,2.93028426 286.86,2.93 L262.76,2.93 C262.527368,2.93211197 262.316924,3.06851065 262.22,3.28 Z M256.6,66.28 L274.26,28 C274.357964,27.7872461 274.570775,27.6509482 274.805,27.6509482 C275.039225,27.6509482 275.252036,27.7872461 275.35,28 L293,66.29 C293.084748,66.4748775 293.070075,66.6901002 292.961018,66.8617642 C292.851961,67.0334282 292.663368,67.1381614 292.46,67.14 L257.14,67.14 C256.936632,67.1381614 256.748039,67.0334282 256.638982,66.8617642 C256.529925,66.6901002 256.515252,66.4748775 256.6,66.29 L256.6,66.28 Z" id="Shape" fill-rule="nonzero"></path>
            <path d="M204.79,64.18 C204.79,64.18 204.87,64.18 204.88,64.12 L212.41,41 C212.448977,40.8797462 212.448977,40.7502538 212.41,40.63 L204.92,17.63 C204.880304,17.5092168 204.803266,17.4041655 204.7,17.33 L184.77,3.13 C184.66768,3.05768905 184.54529,3.01922362 184.42,3.02 L126.02,3.02 C125.688629,3.02 125.42,3.28862915 125.42,3.62 L125.42,121.62 C125.42,121.951371 125.688629,122.22 126.02,122.22 L144.76,122.22 C145.091371,122.22 145.36,121.951371 145.36,121.62 L145.36,79.41 C145.359955,79.0824954 145.622541,78.8154584 145.95,78.81 L168.47,78.56 C168.698094,78.5584126 168.907361,78.6862977 169.01,78.89 L190.28,121.84 C190.382639,122.043702 190.591906,122.171587 190.82,122.17 L212.45,122.17 C212.659023,122.17146 212.853741,122.064031 212.963974,121.886432 C213.074208,121.708834 213.084068,121.486666 212.99,121.3 L189.91,75.51 C189.776394,75.24457 189.857204,74.9213296 190.1,74.75 L204.79,64.18 Z M145.35,57.58 L145.35,23 C145.35,22.6686292 145.618629,22.4 145.95,22.4 L178.1,22.4 C178.22529,22.3992236 178.34768,22.437689 178.45,22.51 L187.45,29.05 C187.553266,29.1241655 187.630304,29.2292168 187.67,29.35 L191.11,39.95 C191.148977,40.0702538 191.148977,40.1997462 191.11,40.32 L187.67,50.94 C187.629573,51.0658471 187.54872,51.1748223 187.44,51.25 L177.72,58.08 C177.62047,58.1503488 177.501875,58.1887176 177.38,58.19 L146,58.19 C145.828861,58.204429 145.659743,58.1448274 145.535466,58.0262862 C145.411188,57.9077449 145.343668,57.7416297 145.35,57.57 L145.35,57.58 Z" id="Shape" fill-rule="nonzero"></path>
            <path d="M83.63,115.83 L83.63,121.57 C83.63,121.901371 83.8986292,122.17 84.23,122.17 L105,122.17 C105.331371,122.17 105.6,121.901371 105.6,121.57 L105.6,56.73 C105.6,56.3986292 105.331371,56.13 105,56.13 L56.71,56.13 C56.3786292,56.13 56.11,56.3986292 56.11,56.73 L56.11,77.54 C56.11,77.8713708 56.3786292,78.14 56.71,78.14 L83,78.14 C83.3313708,78.14 83.6,78.4086292 83.6,78.74 L83.6,90.51 C83.5987052,90.718892 83.4888564,90.9120744 83.31,91.02 L66.64,101.21 C66.5468284,101.267755 66.4396147,101.298882 66.33,101.3 L48.21,101.3 C48.1003853,101.298882 47.9931716,101.267755 47.9,101.21 L31.78,91.35 C31.6935082,91.2987039 31.6212961,91.2264918 31.57,91.14 L21.87,74.29 C21.8174734,74.1987512 21.789883,74.0952871 21.79,73.99 L21.79,51.11 C21.789883,51.0047129 21.8174734,50.9012488 21.87,50.81 L31.57,33.96 C31.6212961,33.8735082 31.6935082,33.8012961 31.78,33.75 L47.9,23.89 C47.9931716,23.8322447 48.1003853,23.8011181 48.21,23.8 L67.3,23.8 C67.4174151,23.800326 67.5321542,23.8350954 67.63,23.9 L82.31,33.52 C82.3590249,33.5533564 82.4028344,33.5937959 82.44,33.64 L88.96,41.55 C89.1670187,41.7991191 89.5343949,41.8389551 89.79,41.64 L105.68,29.21 C105.938621,29.0051214 105.983294,28.6298686 105.78,28.37 L98.16,18.62 C98.1184094,18.5650668 98.0676676,18.5177078 98.01,18.48 L73.53,3 C73.4339384,2.94046098 73.3230141,2.90926354 73.21,2.91 L42.34,2.91 C42.2202209,2.90536366 42.1017988,2.93671071 42,3 L16.12,18.82 C16.0322671,18.8740804 15.9599436,18.9498479 15.91,19.04 L1,45.47 C0.949139107,45.5583045 0.921607063,45.6581082 0.92,45.76 L0.92,79.33 C0.921607063,79.4318918 0.949139107,79.5316955 1,79.62 L15.9,106 L16.02,106.22 L42.02,122.12 C42.1131716,122.177755 42.2203853,122.208882 42.33,122.21 L72.22,122.21 C72.3296147,122.208882 72.4368284,122.177755 72.53,122.12 L83.16,115.61 C83.247826,115.548987 83.3614902,115.539338 83.4583442,115.584674 C83.5551981,115.63001 83.6205962,115.723475 83.63,115.83 Z" id="Path"></path>
        </g>
    </g>
</svg>
