<?xml version="1.0" encoding="UTF-8" standalone="no"?>
<!DOCTYPE svg PUBLIC "-//W3C//DTD SVG 1.1//EN" "http://www.w3.org/Graphics/SVG/1.1/DTD/svg11.dtd">
<svg xmlns="http://www.w3.org/2000/svg" xmlns:xl="http://www.w3.org/1999/xlink" version="1.1" preserveAspectRatio="xMinYMin" viewBox="5 6 788 244" width="788pt" height="244pt" xmlns:dc="http://purl.org/dc/elements/1.1/">
  <metadata> Produced by OmniGraffle 7.5 
    <dc:date>2017-12-02 20:21:28 +0000</dc:date>
  </metadata>
  <defs/>
  <g>
    <title>Canvas 1</title>
    <g>
      <title>Layer 1</title>
      <path d="M 401.252 191.907 L 401.252 149.421 L 359.757 149.421 L 359.757 191.907 L 340.92 191.907 L 340.92 94.189 L 359.757 94.189 L 359.757 132.71 L 401.252 132.71 L 401.252 94.189 L 420.089 94.189 L 420.089 191.907 Z M 438.996 112.033 C 433.332 112.033 428.798 108.067 428.798 102.402 C 428.798 96.595 433.331 92.489 438.996 92.489 C 444.516 92.489 449.05 96.596 449.05 102.402 C 449.05 108.067 444.516 112.033 438.996 112.033 Z M 430.355 191.907 L 430.355 123.504 L 447.351 123.504 L 447.351 191.907 Z M 520.319 122.513 L 522.587 136.108 L 510.124 136.958 C 511.396 139.65 511.963 142.765 511.963 145.88 C 511.963 160.61 499.361 169.39 484.63 169.39 C 482.648 169.39 480.805 169.248 479.107 168.965 C 477.409 170.238 476.275 171.513 476.275 172.648 C 476.275 174.913 478.398 175.48 489.022 177.037 L 497.802 177.888 C 511.825 179.872 520.602 184.261 520.602 194.743 C 520.602 209.468 504.459 217.684 484.63 217.684 C 466.08 217.684 452.057 212.019 452.057 200.691 C 452.057 194.314 456.446 189.362 464.946 184.545 C 462.256 182.419 460.979 179.873 460.979 177.182 C 460.979 173.357 463.953 169.675 469.621 166.275 C 461.546 162.45 456.729 155.368 456.729 146.306 C 456.729 131.436 468.909 122.089 484.208 122.089 C 491.995 122.089 498.649 124.356 503.608 128.462 Z M 466.787 198.847 C 466.787 203.947 472.881 207.627 485.766 207.627 C 497.946 207.627 504.883 203.52 504.883 198.421 C 504.883 194.742 501.909 192.618 493.415 191.34 L 484.21 190.208 C 479.535 189.641 477.41 189.216 474.011 188.511 C 469.056 192.051 466.787 195.309 466.787 198.847 Z M 484.348 132.994 C 476.844 132.994 472.452 138.8 472.452 146.306 C 472.452 153.387 476.986 158.771 484.348 158.771 C 491.855 158.771 496.389 153.247 496.389 145.881 C 496.389 138.516 491.572 132.994 484.348 132.994 Z M 570.91 191.907 L 570.91 147.156 C 570.91 141.208 568.361 137.099 562.129 137.099 C 556.749 137.099 551.506 140.499 546.55 145.739 L 546.55 191.906 L 529.557 191.906 L 529.557 92.348 L 546.55 89.657 L 546.55 132.144 C 552.218 126.903 559.297 122.088 568.36 122.088 C 581.107 122.088 587.905 129.877 587.905 142.625 L 587.905 191.907 Z M 615.576 152.679 L 615.576 191.907 L 598.579 191.907 L 598.579 123.504 L 613.028 123.504 L 615.151 137.241 C 619.68 129.31 626.48 122.655 637.104 122.088 L 639.794 138.941 C 629.17 139.65 620.39 145.314 615.576 152.679 Z M 655.646 112.033 C 649.982 112.033 645.448 108.067 645.448 102.402 C 645.448 96.595 649.981 92.489 655.646 92.489 C 661.169 92.489 665.703 96.596 665.703 102.402 C 665.702 108.067 661.169 112.033 655.646 112.033 Z M 647.008 191.907 L 647.008 123.504 L 664.001 123.504 L 664.001 191.907 Z M 697.988 193.182 C 688.073 193.182 677.875 190.067 671.363 186.525 L 673.628 172.364 C 680.99 177.181 690.054 180.439 698.555 180.439 C 705.917 180.439 709.884 177.745 709.884 173.356 C 709.884 168.539 706.91 166.557 696.003 163.866 C 679.435 159.616 672.494 154.802 672.494 142.339 C 672.494 130.584 681.842 122.228 697.704 122.228 C 706.626 122.228 714.839 123.928 721.638 127.043 L 719.373 141.206 C 712.574 137.381 704.503 134.974 697.704 134.974 C 691.331 134.974 688.215 137.381 688.215 141.206 C 688.215 144.888 690.763 146.87 700.962 149.561 C 718.664 154.092 725.605 158.907 725.605 171.795 C 725.605 185.253 715.974 193.182 697.988 193.182 Z M 792.016 161.032 L 748.111 161.032 C 748.962 174.345 756.041 180.156 766.523 180.156 C 775.303 180.156 782.527 176.898 790.031 171.656 L 792.016 184.969 C 784.65 190.067 775.728 193.324 764.682 193.324 C 745.562 193.324 731.259 182.418 731.259 157.778 C 731.259 135.542 744.569 122.088 762.413 122.088 C 782.951 122.088 792.157 137.525 792.157 156.928 C 792.158 158.342 792.016 160.042 792.016 161.032 Z M 761.993 133.841 C 755.194 133.841 749.671 139.224 748.396 150.411 L 775.588 150.411 C 774.452 139.791 770.206 133.841 761.993 133.841 Z" fill="black"/>
      <path d="M 152.002 6 C 73.128 6 11.344 106.263 5.5 190.951 C 30.241 233.86 89.926 250 152.002 250 C 214.071 250 273.759 233.86 298.5 190.951 C 292.653 106.263 230.868 6 152.002 6 Z" fill="#abdeff"/>
      <path d="M 278.904 181.193 C 266.395 211.632 222.148 228.67 152.004 230.394 C 81.853 228.67 36.369 210.75 25.332 180.311 C 25.332 165.09 79.769 138.709 152.005 137.428 C 224.232 138.711 278.904 166.471 278.904 181.193 Z" fill="#15c66c"/>
      <path d="M 236.197 91.052 L 206.27 83.699 L 178.305 90.243 L 178.305 184.176 L 205.833 193.391 L 236.123 180.35 Z" fill="#a8a382"/>
      <path d="M 178.305 184.176 L 205.833 193.391 L 206.038 96.404 L 204.977 96.404 L 178.305 90.243 Z" fill="#cac59d"/>
      <path d="M 236.197 91.052 L 206.27 98.402 L 178.305 90.243 L 206.27 83.699 Z" fill="#f8f3c9"/>
      <path d="M 127.648 132.967 L 97.724 105.863 L 67.803 117.57 L 67.807 179.962 L 97.492 194.203 L 127.648 184.985 Z" fill="#a8a382"/>
      <path d="M 67.807 179.962 L 97.492 194.203 L 97.492 121.761 L 96.435 106.368 L 67.803 101.013 Z" fill="#cac59d"/>
      <path d="M 127.648 116.409 L 97.724 128.119 L 67.803 101.013 L 97.724 89.306 Z" fill="#f8f3c9"/>
      <path d="M 187.594 62.493 L 151.998 53.136 L 116.403 62.493 L 107.708 198.914 L 151.654 214.668 L 196.123 197.79 Z" fill="#5d98b0"/>
      <path d="M 107.708 198.914 L 151.654 214.668 L 151.721 53.725 L 150.461 53.725 L 116.403 62.493 Z" fill="#87c6de"/>
      <path d="M 187.594 62.493 L 151.998 71.855 L 116.403 62.493 L 151.998 53.136 Z" fill="#def4ff"/>
      <path d="M 142.036 31.791 C 142.036 31.399 142.367 31.089 142.77 31.089 C 143.18 31.089 143.507 31.399 143.507 31.791 L 143.511 49.492 C 144.037 49.749 144.396 50.273 144.396 50.878 L 144.396 65.032 C 144.396 65.889 143.669 66.585 142.77 66.585 C 141.871 66.585 141.15 65.889 141.15 65.032 L 141.15 50.878 C 141.15 50.27 141.51 49.744 142.039 49.488 Z" fill="#5d98b0"/>
      <path d="M 159.901 24.544 C 159.901 24.152 160.232 23.842 160.635 23.842 C 161.045 23.842 161.372 24.152 161.372 24.544 L 161.376 42.245 C 161.902 42.502 162.261 43.026 162.261 43.631 L 162.261 57.785 C 162.261 58.642 161.534 59.338 160.635 59.338 C 159.736 59.338 159.015 58.642 159.015 57.785 L 159.015 43.63 C 159.015 43.022 159.375 42.496 159.904 42.24 Z" fill="#5d98b0"/>
    </g>
  </g>
</svg>
