<svg xmlns="http://www.w3.org/2000/svg" preserveAspectRatio="xMinYMin" viewBox="5 6 788 244" width="114pt">
  <path d="M401.252 191.907v-42.486h-41.495v42.486H340.92V94.189h18.837v38.521h41.495V94.189h18.837v97.718zm37.744-79.874c-5.664 0-10.198-3.966-10.198-9.631 0-5.807 4.533-9.913 10.198-9.913 5.52 0 10.054 4.107 10.054 9.913 0 5.665-4.534 9.631-10.054 9.631zm-8.641 79.874v-68.403h16.996v68.403zm89.964-69.394l2.268 13.595-12.463.85c1.272 2.692 1.839 5.807 1.839 8.922 0 14.73-12.602 23.51-27.333 23.51-1.982 0-3.825-.142-5.523-.425-1.698 1.273-2.832 2.548-2.832 3.683 0 2.265 2.123 2.832 12.747 4.389l8.78.851c14.023 1.984 22.8 6.373 22.8 16.855 0 14.725-16.143 22.941-35.972 22.941-18.55 0-32.573-5.665-32.573-16.993 0-6.377 4.389-11.329 12.889-16.146-2.69-2.126-3.967-4.672-3.967-7.363 0-3.825 2.974-7.507 8.642-10.907-8.075-3.825-12.892-10.907-12.892-19.969 0-14.87 12.18-24.217 27.479-24.217 7.787 0 14.441 2.267 19.4 6.373zm-53.532 76.334c0 5.1 6.094 8.78 18.979 8.78 12.18 0 19.117-4.107 19.117-9.206 0-3.679-2.974-5.803-11.468-7.081l-9.205-1.132c-4.675-.567-6.8-.992-10.199-1.697-4.955 3.54-7.224 6.798-7.224 10.336zm17.561-65.853c-7.504 0-11.896 5.806-11.896 13.312 0 7.081 4.534 12.465 11.896 12.465 7.507 0 12.041-5.524 12.041-12.89 0-7.365-4.817-12.887-12.041-12.887zm86.562 58.913v-44.751c0-5.948-2.549-10.057-8.781-10.057-5.38 0-10.623 3.4-15.579 8.64v46.167h-16.993V92.348l16.993-2.691v42.487c5.668-5.241 12.747-10.056 21.81-10.056 12.747 0 19.545 7.789 19.545 20.537v49.282zm44.666-39.228v39.228h-16.997v-68.403h14.449l2.123 13.737c4.529-7.931 11.329-14.586 21.953-15.153l2.69 16.853c-10.624.709-19.404 6.373-24.218 13.738zm40.07-40.646c-5.664 0-10.198-3.966-10.198-9.631 0-5.807 4.533-9.913 10.198-9.913 5.523 0 10.057 4.107 10.057 9.913-.001 5.665-4.534 9.631-10.057 9.631zm-8.638 79.874v-68.403h16.993v68.403zm50.98 1.275c-9.915 0-20.113-3.115-26.625-6.657l2.265-14.161c7.362 4.817 16.426 8.075 24.927 8.075 7.362 0 11.329-2.694 11.329-7.083 0-4.817-2.974-6.799-13.881-9.49-16.568-4.25-23.509-9.064-23.509-21.527 0-11.755 9.348-20.111 25.21-20.111 8.922 0 17.135 1.7 23.934 4.815l-2.265 14.163c-6.799-3.825-14.87-6.232-21.669-6.232-6.373 0-9.489 2.407-9.489 6.232 0 3.682 2.548 5.664 12.747 8.355 17.702 4.531 24.643 9.346 24.643 22.234 0 13.458-9.631 21.387-27.617 21.387zm94.028-32.15h-43.905c.851 13.313 7.93 19.124 18.412 19.124 8.78 0 16.004-3.258 23.508-8.5l1.985 13.313c-7.366 5.098-16.288 8.355-27.334 8.355-19.12 0-33.423-10.906-33.423-35.546 0-22.236 13.31-35.69 31.154-35.69 20.538 0 29.744 15.437 29.744 34.84.001 1.414-.141 3.114-.141 4.104zm-30.023-27.191c-6.799 0-12.322 5.383-13.597 16.57h27.192c-1.136-10.62-5.382-16.57-13.595-16.57z"/>
  <path d="M152.002 6C73.128 6 11.344 106.263 5.5 190.951 30.241 233.86 89.926 250 152.002 250c62.069 0 121.757-16.14 146.498-59.049C292.653 106.263 230.868 6 152.002 6z" fill="#abdeff"/>
  <path d="M278.904 181.193c-12.509 30.439-56.756 47.477-126.9 49.201-70.151-1.724-115.635-19.644-126.672-50.083 0-15.221 54.437-41.602 126.673-42.883 72.227 1.283 126.899 29.043 126.899 43.765z" fill="#15c66c"/>
  <path d="M236.197 91.052l-29.927-7.353-27.965 6.544v93.933l27.528 9.215 30.29-13.041z" fill="#a8a382"/>
  <path d="M178.305 184.176l27.528 9.215.205-96.987h-1.061l-26.672-6.161z" fill="#cac59d"/>
  <path d="M236.197 91.052l-29.927 7.35-27.965-8.159 27.965-6.544z" fill="#f8f3c9"/>
  <path d="M127.648 132.967l-29.924-27.104-29.921 11.707.004 62.392 29.685 14.241 30.156-9.218z" fill="#a8a382"/>
  <path d="M67.807 179.962l29.685 14.241v-72.442l-1.057-15.393-28.632-5.355z" fill="#cac59d"/>
  <path d="M127.648 116.409l-29.924 11.71-29.921-27.106 29.921-11.707z" fill="#f8f3c9"/>
  <path d="M187.594 62.493l-35.596-9.357-35.595 9.357-8.695 136.421 43.946 15.754 44.469-16.878z" fill="#5d98b0"/>
  <path d="M107.708 198.914l43.946 15.754.067-160.943h-1.26l-34.058 8.768z" fill="#87c6de"/>
  <path d="M187.594 62.493l-35.596 9.362-35.595-9.362 35.595-9.357z" fill="#def4ff"/>
  <path d="M142.036 31.791c0-.392.331-.702.734-.702.41 0 .737.31.737.702l.004 17.701c.526.257.885.781.885 1.386v14.154c0 .857-.727 1.553-1.626 1.553-.899 0-1.62-.696-1.62-1.553V50.878c0-.608.36-1.134.889-1.39zM159.901 24.544c0-.392.331-.702.734-.702.41 0 .737.31.737.702l.004 17.701c.526.257.885.781.885 1.386v14.154c0 .857-.727 1.553-1.626 1.553-.899 0-1.62-.696-1.62-1.553V43.63c0-.608.36-1.134.889-1.39z" fill="#5d98b0"/>
</svg>