<svg xmlns="http://www.w3.org/2000/svg" preserveAspectRatio="xMinYMin" viewBox="-1 -1 1243 216" width="114pt">
  <path d="M293.835 51.883h22v112h-22zM420.8347 163.8832v-65.609l-21.291 42.609h-14.756l-21.953-42.609v65.609h-21v-112h21.131l29.2 60.44 29.043-60.44h21.626v112zM510.9972 70.8832h-20.162v31h20.162c9.891 0 16.17-6.315 16.17-15.421 0-9.106-6.279-15.579-16.17-15.579m1.099 50h-21.261v43h-22v-112h43.261c23.078 0 36.892 15.505 36.892 34.5 0 18.995-13.814 34.5-36.892 34.5M609.7338 70.8832h-20.899v30h20.899c9.577 0 15.856-6.365 15.856-15 0-8.634-6.279-15-15.856-15m16.955 93l-21.821-45h-16.033v45h-21v-112h43.312c22.764 0 36.265 15.425 36.265 34.106 0 15.699-9.577 25.604-20.409 29.528l24.962 48.366zM721.5026 76.1397c-3.14-3.61-8.007-5.965-13.972-5.965-5.966 0-10.99 2.355-14.129 5.965-4.239 4.709-5.338 9.891-5.338 31.397 0 21.508 1.099 26.686 5.338 31.399 3.139 3.608 8.163 5.963 14.129 5.963 5.965 0 10.832-2.355 13.972-5.963 4.239-4.713 5.494-9.891 5.494-31.399 0-21.506-1.255-26.688-5.494-31.397m16.17 75.983c-7.849 7.848-17.426 12.242-30.142 12.242-12.716 0-22.449-4.394-30.299-12.242-11.303-11.305-10.989-25.276-10.989-44.586 0-19.309-.314-33.281 10.989-44.584 7.85-7.849 17.583-12.245 30.299-12.245 12.716 0 22.293 4.396 30.142 12.245 11.303 11.303 11.146 25.275 11.146 44.584 0 19.31.157 33.281-11.146 44.586M815.6893 116.8832h-22.855v27h22.855c9.888 0 14.597-6.044 14.597-13.58 0-7.536-4.709-13.42-14.597-13.42m-1.413-46h-21.442v26h21.442c9.262 0 14.44-5.308 14.44-13.001 0-7.691-5.178-12.999-14.44-12.999m3.608 93h-47.05v-112h45.168c21.82 0 34.538 12.128 34.538 31.281 0 12.401-8.165 20.35-13.815 23.019 6.751 3.14 15.385 10.404 15.385 25.319 0 20.879-14.288 32.381-34.226 32.381M911.9119 84.2237l-14.128 40.66h27.787zm26.061 79.66l-6.592-20h-39.72l-6.751 20h-22.762l40.661-112h17.111l40.818 112zM1019.1292 116.8832h-22.294v27h22.294c9.888 0 14.597-6.044 14.597-13.58 0-7.536-4.709-13.42-14.597-13.42m-1.413-46h-20.881v26h20.881c9.262 0 14.44-5.308 14.44-13.001 0-7.691-5.178-12.999-14.44-12.999m3.608 93h-46.489v-112h44.607c21.82 0 34.538 12.128 34.538 31.281 0 12.401-8.165 20.35-13.815 23.019 6.751 3.14 15.385 10.404 15.385 25.319 0 20.879-14.288 32.381-34.226 32.381M1077.8347 163.8832v-112h22v92h51v20zM1167.8347 163.8832v-112h74v19h-52v26h44v20h-44v27h52v20zM193.835 193.883h-172v-172h172zm-194 21h215v-215h-215z"/>
  <path d="M96.835 66.883h21v82h-21zM170.9593 36.8776c3.952 0 7.167 3.215 7.167 7.167s-3.215 7.167-7.167 7.167-7.167-3.215-7.167-7.167 3.215-7.167 7.167-7.167m0 21.502c7.904 0 14.334-6.431 14.334-14.335 0-7.904-6.43-14.334-14.334-14.334s-14.334 6.43-14.334 14.334 6.43 14.335 14.334 14.335"/>
</svg>