<?xml version="1.0" encoding="UTF-8" standalone="no"?>
<!DOCTYPE svg PUBLIC "-//W3C//DTD SVG 1.1//EN" "http://www.w3.org/Graphics/SVG/1.1/DTD/svg11.dtd">
<svg xmlns="http://www.w3.org/2000/svg" xmlns:xl="http://www.w3.org/1999/xlink" version="1.1" preserveAspectRatio="xMinYMin" viewBox="-1 -1 1243 216" width="1243pt" height="18pc" xmlns:dc="http://purl.org/dc/elements/1.1/">
  <metadata> Produced by OmniGraffle 7.5 
    <dc:date>2017-12-02 16:10:43 +0000</dc:date>
  </metadata>
  <defs/>
  <g>
    <title>Canvas 4</title>
    <g>
      <title>Layer 1</title>
      <rect x="293.835" y="51.883" width="22" height="112" fill="black"/>
      <path d="M 420.8347 163.8832 L 420.8347 98.2742 L 399.5437 140.8832 L 384.7877 140.8832 L 362.8347 98.2742 L 362.8347 163.8832 L 341.8347 163.8832 L 341.8347 51.8832 L 362.9657 51.8832 L 392.1657 112.3232 L 421.2087 51.8832 L 442.8347 51.8832 L 442.8347 163.8832 Z" fill="black"/>
      <path d="M 510.9972 70.8832 L 490.8352 70.8832 L 490.8352 101.8832 L 510.9972 101.8832 C 520.8882 101.8832 527.1672 95.5682 527.1672 86.4622 C 527.1672 77.3562 520.8882 70.8832 510.9972 70.8832 M 512.0962 120.8832 L 490.8352 120.8832 L 490.8352 163.8832 L 468.8352 163.8832 L 468.8352 51.8832 L 512.0962 51.8832 C 535.1742 51.8832 548.9882 67.3882 548.9882 86.3832 C 548.9882 105.3782 535.1742 120.8832 512.0962 120.8832" fill="black"/>
      <path d="M 609.7338 70.8832 L 588.8348 70.8832 L 588.8348 100.8832 L 609.7338 100.8832 C 619.3108 100.8832 625.5898 94.5182 625.5898 85.8832 C 625.5898 77.2492 619.3108 70.8832 609.7338 70.8832 M 626.6888 163.8832 L 604.8678 118.8832 L 588.8348 118.8832 L 588.8348 163.8832 L 567.8348 163.8832 L 567.8348 51.8832 L 611.1468 51.8832 C 633.9108 51.8832 647.4118 67.3082 647.4118 85.9892 C 647.4118 101.6882 637.8348 111.5932 627.0028 115.5172 L 651.9648 163.8832 Z" fill="black"/>
      <path d="M 721.5026 76.1397 C 718.3626 72.5297 713.4956 70.1747 707.5306 70.1747 C 701.5646 70.1747 696.5406 72.5297 693.4016 76.1397 C 689.1626 80.8487 688.0636 86.0307 688.0636 107.5367 C 688.0636 129.0447 689.1626 134.2227 693.4016 138.9357 C 696.5406 142.5437 701.5646 144.8987 707.5306 144.8987 C 713.4956 144.8987 718.3626 142.5437 721.5026 138.9357 C 725.7416 134.2227 726.9966 129.0447 726.9966 107.5367 C 726.9966 86.0307 725.7416 80.8487 721.5026 76.1397 M 737.6726 152.1227 C 729.8236 159.9707 720.2466 164.3647 707.5306 164.3647 C 694.8146 164.3647 685.0816 159.9707 677.2316 152.1227 C 665.9286 140.8177 666.2426 126.8467 666.2426 107.5367 C 666.2426 88.2277 665.9286 74.2557 677.2316 62.9527 C 685.0816 55.1037 694.8146 50.7077 707.5306 50.7077 C 720.2466 50.7077 729.8236 55.1037 737.6726 62.9527 C 748.9756 74.2557 748.8186 88.2277 748.8186 107.5367 C 748.8186 126.8467 748.9756 140.8177 737.6726 152.1227" fill="black"/>
      <path d="M 815.6893 116.8832 L 792.8343 116.8832 L 792.8343 143.8832 L 815.6893 143.8832 C 825.5773 143.8832 830.2863 137.8392 830.2863 130.3032 C 830.2863 122.7672 825.5773 116.8832 815.6893 116.8832 M 814.2763 70.8832 L 792.8343 70.8832 L 792.8343 96.8832 L 814.2763 96.8832 C 823.5383 96.8832 828.7163 91.5752 828.7163 83.8822 C 828.7163 76.1912 823.5383 70.8832 814.2763 70.8832 M 817.8843 163.8832 L 770.8343 163.8832 L 770.8343 51.8832 L 816.0023 51.8832 C 837.8223 51.8832 850.5403 64.0112 850.5403 83.1642 C 850.5403 95.5652 842.3753 103.5142 836.7253 106.1832 C 843.4763 109.3232 852.1103 116.5872 852.1103 131.5022 C 852.1103 152.3812 837.8223 163.8832 817.8843 163.8832" fill="black"/>
      <path d="M 911.9119 84.2237 L 897.7839 124.8837 L 925.5709 124.8837 Z M 937.9729 163.8837 L 931.3809 143.8837 L 891.6609 143.8837 L 884.9099 163.8837 L 862.1479 163.8837 L 902.8089 51.8837 L 919.9199 51.8837 L 960.7379 163.8837 Z" fill="black"/>
      <path d="M 1019.1292 116.8832 L 996.8352 116.8832 L 996.8352 143.8832 L 1019.1292 143.8832 C 1029.0172 143.8832 1033.7262 137.8392 1033.7262 130.3032 C 1033.7262 122.7672 1029.0172 116.8832 1019.1292 116.8832 M 1017.7162 70.8832 L 996.8352 70.8832 L 996.8352 96.8832 L 1017.7162 96.8832 C 1026.9782 96.8832 1032.1562 91.5752 1032.1562 83.8822 C 1032.1562 76.1912 1026.9782 70.8832 1017.7162 70.8832 M 1021.3242 163.8832 L 974.8352 163.8832 L 974.8352 51.8832 L 1019.4422 51.8832 C 1041.2622 51.8832 1053.9802 64.0112 1053.9802 83.1642 C 1053.9802 95.5652 1045.8152 103.5142 1040.1652 106.1832 C 1046.9162 109.3232 1055.5502 116.5872 1055.5502 131.5022 C 1055.5502 152.3812 1041.2622 163.8832 1021.3242 163.8832" fill="black"/>
      <path d="M 1077.8347 163.8832 L 1077.8347 51.8832 L 1099.8347 51.8832 L 1099.8347 143.8832 L 1150.8347 143.8832 L 1150.8347 163.8832 Z" fill="black"/>
      <path d="M 1167.8347 163.8832 L 1167.8347 51.8832 L 1241.8347 51.8832 L 1241.8347 70.8832 L 1189.8347 70.8832 L 1189.8347 96.8832 L 1233.8347 96.8832 L 1233.8347 116.8832 L 1189.8347 116.8832 L 1189.8347 143.8832 L 1241.8347 143.8832 L 1241.8347 163.8832 Z" fill="black"/>
      <path d="M 193.835 193.883 L 21.835 193.883 L 21.835 21.883 L 193.835 21.883 Z M -.165 214.883 L 214.835 214.883 L 214.835 -.117 L -.165 -.117 Z" fill="black"/>
      <rect x="96.835" y="66.883" width="21" height="82" fill="black"/>
      <path d="M 170.9593 36.8776 C 174.9113 36.8776 178.1263 40.0926 178.1263 44.0446 C 178.1263 47.9966 174.9113 51.2116 170.9593 51.2116 C 167.0073 51.2116 163.7923 47.9966 163.7923 44.0446 C 163.7923 40.0926 167.0073 36.8776 170.9593 36.8776 M 170.9593 58.3796 C 178.8633 58.3796 185.2933 51.9486 185.2933 44.0446 C 185.2933 36.1406 178.8633 29.7106 170.9593 29.7106 C 163.0553 29.7106 156.6253 36.1406 156.6253 44.0446 C 156.6253 51.9486 163.0553 58.3796 170.9593 58.3796" fill="black"/>
    </g>
  </g>
</svg>
