<svg width="104px" height="30px" viewBox="0 0 104 30" version="1.1" xmlns="http://www.w3.org/2000/svg" xmlns:xlink="http://www.w3.org/1999/xlink">
    <g id="Page-1" stroke="none" stroke-width="1" fill="none" fill-rule="evenodd">
        <g id="janestreet-ar21" fill="#100F0D">
            <g id="Group" transform="translate(33.985696, 9.468996)">
                <path d="M25.826107,4.333689 C26.71275,4.333689 27.042074,4.992316 27.042074,5.854049 L24.29306,5.854049 C24.470388,4.865991 25.066128,4.333689 25.826107,4.333689 Z M25.775447,2.990615 C23.887742,2.990615 22.367361,4.333689 22.367361,6.512782 C22.367361,8.793037 23.786412,10.12317 25.787902,10.12317 C26.801419,10.12317 27.751816,9.819136 28.588004,9.236274 L27.815147,8.058285 C27.245163,8.412731 26.611635,8.641147 25.927443,8.641147 C24.986968,8.641147 24.451816,8.160544 24.291165,7.192689 L28.677302,7.192689 C28.727972,6.903242 28.803121,6.598786 28.803121,6.094688 C28.803121,4.270441 27.726272,2.990615 25.775447,2.990615 Z" id="Shape" fill-rule="nonzero"></path>
                <path d="M53.73403,4.333689 C54.620884,4.333689 54.949997,4.992316 54.949997,5.854049 L52.201194,5.854049 C52.378311,4.865991 52.974051,4.333689 53.73403,4.333689 Z M53.68336,2.990615 C51.795655,2.990615 50.275485,4.333689 50.275485,6.512782 C50.275485,8.793037 51.694325,10.12317 53.696026,10.12317 C54.709332,10.12317 55.659729,9.819136 56.495917,9.236274 L55.72306,8.058285 C55.153076,8.412731 54.519548,8.641147 53.835356,8.641147 C52.894881,8.641147 52.35994,8.160544 52.199078,7.192689 L56.585215,7.192689 C56.635875,6.903242 56.711033,6.598786 56.711033,6.094688 C56.711033,4.270441 55.634185,2.990615 53.68336,2.990615 Z" id="Shape" fill-rule="nonzero"></path>
                <path d="M60.84617,4.333689 C61.73281,4.333689 62.06214,4.992316 62.06214,5.854049 L59.31312,5.854049 C59.49045,4.865991 60.08598,4.333689 60.84617,4.333689 Z M60.79547,2.990615 C58.90755,2.990615 57.38738,4.333689 57.38738,6.512782 C57.38738,8.793037 58.80643,10.12317 60.80792,10.12317 C61.82144,10.12317 62.77183,9.819136 63.60802,9.236274 L62.83517,8.058285 C62.26497,8.412731 61.63165,8.641147 60.94725,8.641147 C60.00678,8.641147 59.47183,8.160544 59.31097,7.192689 L63.69732,7.192689 C63.74802,6.903242 63.82293,6.598786 63.82293,6.094688 C63.82293,4.270441 62.74629,2.990615 60.79547,2.990615 Z" id="Shape" fill-rule="nonzero"></path>
                <path d="M36.078652,4.704516 C35.105667,4.458367 34.265679,4.245869 34.265679,3.523065 C34.265679,2.91962 34.841152,2.514129 35.697818,2.514129 C36.50213,2.514129 37.329874,2.710985 38.095342,3.083712 L38.762857,1.665337 C37.715563,1.176586 36.683047,0.938839 35.608098,0.938839 C33.701605,0.938839 32.369741,2.01193 32.369741,3.548398 C32.369741,5.499307 33.968231,5.915079 35.378416,6.282128 C36.366811,6.53917 37.22031,6.761147 37.22031,7.501093 C37.22031,8.148849 36.65117,8.535594 35.697818,8.535594 C34.872396,8.535594 33.942688,8.256449 33.074622,7.748487 L32.211835,9.162725 C33.159276,9.739802 34.524916,10.110799 35.710695,10.110799 C37.811405,10.110799 39.116037,9.10104 39.116037,7.475528 C39.116037,5.472919 37.432049,5.046993 36.078652,4.704516" id="Path"></path>
                <path d="M10.333504,8.780666 C10.9037,8.780666 11.334355,8.540133 11.62568,8.21028 L11.62568,6.905459 C10.574375,6.969209 9.548192,7.23491 9.548192,8.096072 C9.548192,8.501775 9.86485,8.780666 10.333504,8.780666 Z M11.62568,5.879466 L11.62568,5.284233 C11.62568,4.777496 11.334355,4.473208 10.688372,4.473208 C10.042179,4.473208 9.357986,4.739412 8.521798,5.14446 L7.86336,3.776391 C8.775546,3.320467 9.839518,3.003978 10.764159,3.003978 C12.715195,3.003978 13.475175,3.953952 13.475175,5.347565 L13.475175,8.185117 C13.475175,8.552335 13.690713,8.717166 14.032704,8.717166 L14.032704,9.996844 C12.753194,9.996844 12.22142,9.806512 11.841008,9.160255 C11.271023,9.768407 10.637918,10.11063 9.725521,10.11063 C8.534675,10.11063 7.698698,9.388671 7.698698,8.311695 C7.698698,6.829841 9.104449,6.056752 11.62568,5.879466 Z" id="Shape" fill-rule="nonzero"></path>
                <path d="M15.180484,3.155953 L16.92907,3.155953 L17.01773,3.941328 C17.511506,3.422051 18.233698,2.990932 19.082552,2.990932 C20.602722,2.990932 21.248705,3.928788 21.248705,5.461371 L21.248705,9.958486 L19.386333,9.958486 L19.386333,5.410664 C19.386333,4.802659 19.133218,4.384565 18.499479,4.384565 C17.929706,4.384565 17.435719,4.675912 17.030186,5.182649 L17.030186,9.958486 L15.18048,9.958486 L15.18048,3.155953" id="Path"></path>
                <path d="M40.626285,4.473208 L39.549436,4.473208 L39.549436,3.155953 L40.626285,3.155953 L40.626285,1.45837 L42.488445,1.45837 L42.488445,3.155953 L44.011149,3.155953 L44.011149,4.473208 L42.488445,4.473208 L42.488445,7.855433 C42.488445,8.362424 42.67844,8.615983 43.109095,8.615983 C43.451297,8.615983 43.767744,8.501775 44.033948,8.311695 L44.718141,9.426606 C44.19861,9.831908 43.47663,10.11063 42.729106,10.11063 C41.310477,10.11063 40.626285,9.413813 40.626285,7.893622 L40.626285,4.473208 Z" id="Path"></path>
                <path d="M45.562773,3.155953 L47.27336,3.155953 L47.399601,4.207511 C47.919343,3.295219 48.565114,2.965789 49.337971,2.965789 C49.65484,2.965789 49.946166,3.016499 50.17416,3.105161 L49.907956,4.802659 C49.667507,4.714249 49.376181,4.650748 48.996192,4.650748 C48.29891,4.650748 47.830679,5.081466 47.41269,5.866926 L47.41269,9.958486 L45.562773,9.958486 L45.562773,3.155953 Z" id="Path"></path>
                <path d="M65.43624,4.473208 L64.35918,4.473208 L64.35918,3.155953 L65.43624,3.155953 L65.43624,1.45837 L67.29861,1.45837 L67.29861,3.155953 L68.82089,3.155953 L68.82089,4.473208 L67.29861,4.473208 L67.29861,7.855433 C67.29861,8.362424 67.48839,8.615983 67.91926,8.615983 C68.26125,8.615983 68.57791,8.501775 68.8439,8.311695 L69.52809,9.426606 C69.00856,9.831908 68.28637,10.11063 67.53927,10.11063 C66.12022,10.11063 65.43624,9.413813 65.43624,7.893622 L65.43624,4.473208 Z" id="Path"></path>
                <path d="M4.500029,1.090835 L4.500029,6.994356 C4.500029,7.906141 4.056285,8.425925 3.28385,8.425925 C2.76622,8.425925 2.358575,8.17169 2.040229,7.740233 L0.768741,8.891834 C1.424223,9.681833 2.312555,10.11063 3.38497,10.11063 C5.234464,10.11063 6.412855,9.058987 6.412855,7.032291 L6.412855,1.090835 L4.500029,1.090835 Z" id="Path"></path>
            </g>
            <path d="M23.8700478,2.91254276 C23.7909712,2.85893778 23.680753,2.87468626 23.6256411,2.95603487 L22.6775445,4.331254 C22.6228146,4.41072036 22.6302433,4.52334653 22.7107009,4.58142102 L22.7106074,4.58118601 C25.9672948,6.90190896 28.0974778,10.7062605 28.0963017,15.0011418 C28.0955967,22.0525178 22.35868,27.7881548 15.3070923,27.7876971 C8.25489425,27.7876971 2.51862241,22.0504017 2.51926616,14.9976624 C2.52018278,7.94718064 8.25682216,2.21118056 15.3092084,2.21282669 C16.8441165,2.21137881 18.3154471,2.48744618 19.6806925,2.98542907 L19.6806925,2.98398119 C19.7684898,3.01665873 19.8694226,2.97362327 19.9069005,2.88170514 L20.5041746,1.31322292 C20.5375872,1.22552591 20.4955986,1.12536154 20.4089263,1.08750726 C18.817356,0.502295144 17.1006308,0.179475717 15.3092073,0.179475717 C7.1373466,0.177805086 0.48731741,6.82602332 0.486214793,14.9984487 C0.485847254,23.1704041 7.13494869,29.8202495 15.3068328,29.8205246 C23.4788828,29.8209835 30.1286737,23.173155 30.1289087,15.0017398 C30.1286737,10.0161016 27.654276,5.60062751 23.8700511,2.91250601 L23.8700478,2.91254276 Z M21.4422507,17.5188488 L22.9235973,18.3132942 C23.0111272,18.3592142 23.1275869,18.3314929 23.1645012,18.2393743 C23.5710928,17.2605948 23.8007812,16.1908016 23.810257,15.0702925 C23.8492829,10.3796577 20.0646849,6.53159682 15.3737683,6.49228576 L15.3018643,6.4919327 C10.6504481,6.4919327 6.83481087,10.2764405 6.79575708,14.9279503 C6.75656407,19.6191264 10.5407879,23.4670926 15.2316811,23.5065919 L15.3036965,23.5070619 C17.5250347,23.5070619 19.5547748,22.6426216 21.0746807,21.234021 C21.1490683,21.1691782 21.1642376,21.0543658 21.0949064,20.9799748 L19.8311385,19.8404672 C19.7587444,19.7748003 19.6469926,19.7864613 19.5789255,19.8493773 L19.5786437,19.849189 C18.4356568,20.858746 16.9381575,21.4741007 15.3037009,21.4741007 L15.2486815,21.4739125 C11.6787206,21.4440528 8.79860009,18.5154506 8.82846096,14.9452068 C8.85810909,11.4050121 11.7619291,8.52489274 15.3018654,8.52489274 L15.356974,8.52498629 C18.9270051,8.55491287 21.8073137,11.4836365 21.7776645,15.0535038 C21.770982,15.8342644 21.6229796,16.582039 21.3605869,17.2748186 L21.3608687,17.2748186 C21.3217425,17.3718934 21.3561909,17.4683456 21.4422396,17.5188488 L21.4422507,17.5188488 Z M5.31267419,20.639685 L6.79825411,19.8549026 C6.88753265,19.8098735 6.99168649,19.8498907 7.03732368,19.933968 L7.03741724,19.933968 C8.72623391,22.7520869 11.8118955,24.6404026 15.3290488,24.630763 C20.6399044,24.6166072 24.9487521,20.2838027 24.9344103,14.9729459 C24.9198313,9.66237213 20.5874733,5.35354782 15.2766166,5.36788963 C9.96585459,5.38223479 5.65710156,9.71470967 5.67141998,15.0254717 C5.67320199,15.6400034 5.73380136,16.2406633 5.84601989,16.8231245 L5.84538505,16.8231245 C5.86779378,16.9212128 5.80257234,17.0118791 5.70953265,17.0355552 L4.0864787,17.439867 C3.99473877,17.4628103 3.8977486,17.4109205 3.87294418,17.3154183 C3.72324336,16.576625 3.64095141,15.8133102 3.63883528,15.0308088 C3.62129365,8.59937282 8.83937352,3.3526806 15.2710913,3.33528154 C21.7029037,3.31765081 26.9496194,8.53588995 26.9672534,14.9676088 C26.9846503,21.3992331 21.7663621,26.6459721 15.3345508,26.6636061 C11.0357425,26.6751001 7.26877517,24.3463147 5.23635529,20.8807705 C5.1874058,20.7958244 5.22577463,20.6854336 5.31266973,20.6396794 L5.31267419,20.639685 Z" id="Shape" fill-rule="nonzero"></path>
        </g>
    </g>
</svg>
