<svg xmlns="http://www.w3.org/2000/svg" preserveAspectRatio="xMinYMin" viewBox="1 0 126 27" width="114pt">
  <path d="M14 1H6.6v.6H9v12.2c0 3.7-1 4.7-3.3 4.7-1.4 0-1.7-1.1-1.7-1.6 0-1.3-.1-2.2-1.3-2.2s-1.4 1.2-1.4 1.6c0 1.7.8 3 4.1 3 4 0 6.1-1.3 6.1-5.8V1.6h2.4V1h.1m1 15.5c-.4 0-.8.101-1 .4-.3.3-.4.6-.4 1 0 .399.1.7.4 1 .3.3.6.399 1 .399s.7-.1 1-.399c.3-.299.4-.601.4-1 0-.4-.1-.7-.4-1-.3-.3-.6-.4-1-.4m16.4 0c-.4 0-.7.101-1 .4-.3.3-.4.6-.4 1 0 .399.1.7.4 1 .3.3.6.399 1 .399s.8-.1 1-.399c.3-.3.4-.601.4-1 0-.4-.1-.7-.4-1-.3-.3-.6-.4-1-.4M26.2 1H19v.6h2.1v14c0 1.1-.1 1.399-.2 1.699-.1.401-.4.601-.9.801-.3.1-.8.199-1.5.199v.601h7.8v-.6c-.7 0-1.2-.1-1.5-.199-.5-.2-.8-.5-.9-.801-.1-.3-.2-.6-.2-1.1v-4.8h1.9c5.6 0 7.2-2.2 7.2-5.2 0-3.1-.9-5.2-6.6-5.2m-1 9.7h-1.5v-9H25c4.3 0 5.3 1.8 5.3 4.6 0 2.9-1.7 4.4-5.1 4.4m30.7 6.5c-.1-.3-.2-.7-.2-1.2V1.6h1.9V1H53c-.1.2-5.5 13.6-5.5 13.6l-.1.1c-.1 0-.1 0-.1-.1 0 0-5.8-13.5-5.8-13.601h-5.1V1.6h2.2V16.8c0 .301-.1.601-.3.9-.2.3-.5.5-.8.6-.2.101-.6.101-1 .101V19h5v-.6c-.4 0-.6-.101-.9-.101-.4-.1-.6-.3-.8-.6-.2-.2-.3-.5-.3-.9l-.1-1.3v-12h.3s6.5 15.2 6.6 15.4h.5L53 3.6h.2V16c0 .5-.1.9-.2 1.3s-.4.601-.8.801c-.3.1-.7.199-1.3.199v.6h7v-.6c-.6 0-1-.1-1.3-.199-.3-.201-.6-.501-.7-.901m9.5-11.4c-3.8 0-6.1 2.5-6.1 6.801 0 6.399 5 6.8 6 6.8 2.1 0 6.1-1.3 6.1-6.9 0-4.401-2.6-6.701-6-6.701m-.1 12.8c-2.8 0-3.3-1.4-3.3-5.9 0-3.5.2-6.1 3.3-6.1 3.3 0 3.3 2.699 3.3 5.899 0 4.501-.8 6.101-3.3 6.101M81.201 6c-2.201 0-3 1.3-3.601 2.7h-.2s-.3-2-.4-2.5h-4.399v.7H75v8.8c0 .9-.1 1.5-.299 1.9-.201.4-.801.7-1.701.7h-.4v.8H80v-.8h-.4c-1 0-1.399-.199-1.601-.6-.199-.4-.299-1-.299-1.9V11c0-1.5 1.199-3.3 2.6-3.3 1.5 0 1.4 2.2 3.1 1.3.801-.5.6-3-2.199-3M110.3 17.6c-.801 0-1-.4-1.1-1.2v-7c0-1.2-.201-1.9-.9-2.601-.7-.699-2-1-3.9-1-1.8 0-3.1.301-4 1C99.6 7.4 99.201 8 99.201 8.9c0 .399.1.7.299.8.201.2.5.3.8.3.699 0 1.1-.399 1.3-1.3.101-.7.3-1.1.601-1.5.399-.4 1-.6 1.699-.6.9 0 1.6.199 1.9.699.3.5.5 1.101.5 1.9v2.1c-2.301.2-7.9.7-7.6 4.9.1 1.6 1.5 3.1 3.399 3.1 2.101 0 3.399-1.199 4.3-2.1.1.9 1 2 2.5 2 1.7 0 2.7-.8 2.801-2.9h-.4c0 .801-.5 1.301-1 1.301m-3.8-1.4v.1l-.1.101c-1.199 1.1-2.199 1.5-2.9 1.5-1.799 0-2.1-1.5-2.1-2.2 0-2.4 3.301-3.6 5.1-3.6V16.2m18.8 1.3c-.2-.399-.5-1-.5-1.899V9.8c0-.8-.1-1.6-.4-2.1-.3-.6-.8-1-1.3-1.3-.6-.3-1.2-.4-1.899-.4C118.6 6 117.6 7.6 117 8.5h-.2l-.5-2.3h-4v.7h2v8.8c0 .7-.1 1.2-.2 1.5-.101.4-.399.7-.7.8-.199.101-.6.2-1.1.2v.8h6.3v-.8c-.601-.1-1.101-.2-1.3-.5-.2-.3-.4-.9-.4-1.8v-3.4c0-1.399 0-2.8.5-3.6.5-.9 1.5-1.4 2.5-1.4s1.5.3 1.801.9c.299.5.399 2 .399 3v4.2c0 .699.101 1.199 0 1.5-.1.4-.2.7-.5.9-.2.2-.601.2-1 .3v.8h6.101v-.8c-.701-.3-1.201-.5-1.401-.8M96.701 5.2c-.4.1-.601.5-.801 1-.1.5-.3.8-.6.9-.3.1-.599.1-.9-.1-.699-.6-1.9-1.3-4.1-1.3-3.6 0-5.1 2.5-5.1 4.8 0 2.7 1 4 3.299 4.5.101 0 .101.2 0 .2-1.899.4-3.699 1-3.699 2.8 0 1.101.6 1.7 1.5 2.101.9.399 2.199.6 3.8.6 1.399 0 2.399.1 3 .1.7.101 1.2.301 1.7.601.4.3.6.8.6 1.399 0 .9-.5 1.5-1.4 2.101-.899.5-2 .7-3.5.7-1.199 0-2.299-.101-3.199-.7-.7-.4-.801-1.2-.7-1.8.101-.601-.101-1.2-.8-1.4-.4-.1-.9.1-1.1.5-.201.298-.301.698-.301 1.198 0 1.5 1.2 2.2 2.1 2.5 1.4.399 2.301.5 3.5.5 1.701 0 3-.3 4-.7 1-.5 1.601-1.1 2-1.8.4-.7.601-1.4.601-2.101C96.6 20.9 96.4 20.1 96 19.6c-1.299-1.7-3.1-1.5-7.1-1.7-1.9 0-2.3-.4-2.3-1 0-.9.7-1.2 3.5-1.7 2.8-.4 5.399-1.5 5.399-4.8 0-1-.199-1.8-.5-2.4.601.1 1.101.1 1.601 0 .601-.2.899-.5 1.101-.8.199-.4.299-.8.099-1.1.1-.8-.4-1.1-1.099-.9M90.4 14.6c-1.699 0-2.6-.601-2.6-4 0-2.4.8-4.2 2.6-4.2 2.1 0 2.7 1.6 2.7 4.1 0 3.6-1.1 4.1-2.7 4.1" fill="#54301a"/>
</svg>