<svg width="318px" height="66px" viewBox="0 0 318 66" version="1.1" xmlns="http://www.w3.org/2000/svg" xmlns:xlink="http://www.w3.org/1999/xlink">
    <g id="Page-1" stroke="none" stroke-width="1" fill="none" fill-rule="evenodd">
        <g id="J_P_Morgan_Logo_2008_1" fill="#000000" fill-rule="nonzero">
            <path d="M13.56494,0.702997 L13.56494,2.297684 L19.512752,2.297684 L19.512752,33.292372 C19.512752,42.606747 16.929315,45.22956 11.169627,45.22956 C7.547128,45.22956 6.94994,42.477685 6.94994,41.053622 C6.94994,37.665184 6.761815,35.591434 3.675252,35.591434 C0.57119,35.591434 0.208065,38.726122 0.208065,39.684247 C0.208065,43.95206 2.106815,47.217997 10.587753,47.217997 C20.69619,47.217997 26.099315,43.805497 26.099315,32.47206 L26.099315,2.288934 L32.241815,2.297684 L32.241815,0.702997 L13.56494,0.702997 M32.1519,41.070225 C31.432212,41.787725 31.07565,42.638663 31.07565,43.671163 C31.07565,44.6971 31.432212,45.541475 32.16065,46.221787 C32.884712,46.932725 33.746587,47.276162 34.752837,47.276162 C35.776587,47.276162 36.64065,46.932725 37.380025,46.221787 C38.090962,45.541475 38.4519,44.6971 38.4519,43.671163 C38.4519,42.627725 38.090962,41.7746 37.380025,41.070225 C36.6669,40.354912 35.807212,40.0246 34.752837,40.0246 C33.711588,40.0246 32.8519,40.354912 32.1519,41.070225 M73.629525,41.070225 C72.918588,41.787725 72.57515,42.638663 72.57515,43.671163 C72.57515,44.6971 72.918588,45.541475 73.629525,46.221787 C74.3864,46.932725 75.224213,47.276162 76.230463,47.276162 C77.271713,47.276162 78.14015,46.932725 78.872962,46.221787 C79.59484,45.541475 79.9514,44.6971 79.9514,43.671163 C79.9514,42.627725 79.59484,41.7746 78.877337,41.070225 C78.151088,40.354912 77.280462,40.0246 76.230463,40.0246 C75.202337,40.0246 74.338275,40.354912 73.629525,41.070225 M44.927128,0.706935 L44.927128,2.297248 L50.299628,2.297248 L50.299628,37.65381 C50.299628,40.434123 50.129003,41.155997 49.818378,41.960998 C49.485878,42.86006 48.735565,43.56881 47.624315,44.030372 C46.79744,44.378185 45.544003,44.561935 43.872753,44.607872 L43.872753,46.069122 L63.560253,46.069122 L63.560253,44.623185 C61.89119,44.581623 60.618066,44.39131 59.784628,44.09381 C58.60994,43.63006 57.84869,42.94756 57.476816,42.022248 C57.150878,41.225997 56.98244,40.525998 56.98244,39.128185 L56.98244,27.020373 L61.854003,27.000685 C76.002753,27.000685 79.97963,21.418185 79.97963,13.799123 C79.97963,6.099123 77.538378,0.70256 63.21244,0.70256 L44.927128,0.706935 M56.98244,2.500685 L60.366503,2.454747 C71.277753,2.454747 73.65994,6.943498 73.65994,14.216935 C73.65994,21.53631 69.370253,25.270373 60.716503,25.270373 L56.98244,25.270373 L56.98244,2.500685 M131.05403,0.80931 C130.88997,1.22931 117.18966,35.369622 117.18966,35.369622 L116.87684,35.57306 L116.54872,35.369622 C116.54872,35.369622 101.94934,1.22931 101.77872,0.80931 L88.89653,0.80931 L88.89653,2.27056 L94.48778,2.27056 L94.48778,37.382123 L94.36747,40.580247 C94.27778,41.424622 94.01528,42.177123 93.60184,42.776497 C93.16653,43.43056 92.45778,43.924935 91.53684,44.250873 C90.92872,44.449935 90.02309,44.583372 88.89653,44.609623 L88.89653,46.070873 L101.68247,46.070873 L101.68247,44.62931 C100.59528,44.583372 100.12278,44.476185 99.48622,44.263997 C98.54778,43.95556 97.84341,43.489622 97.37747,42.822435 C96.96184,42.201185 96.69278,41.459622 96.59872,40.580247 L96.45653,37.382123 L96.45653,7.054623 L97.20684,7.054623 C97.20684,7.054623 113.73997,45.646498 113.91278,46.070873 L115.29309,46.070873 L130.94028,7.483373 L131.33403,7.483373 L131.33403,38.753685 C131.33403,40.092435 131.19841,41.124935 130.94028,41.92556 C130.63184,42.86181 129.96466,43.568373 128.99778,44.045248 C128.28028,44.364623 127.18653,44.552748 125.74497,44.609623 L125.74497,46.070873 L143.58403,46.070873 L143.58403,44.609623 C142.15997,44.539623 141.05747,44.347122 140.30934,44.012435 C139.27247,43.507122 138.60091,42.776497 138.30559,41.842435 C138.04747,41.026498 137.92278,40.028997 137.92278,38.753685 L137.92278,2.298997 L142.66528,2.25306 L142.66528,0.80931 L131.05403,0.80931 M146.8119,30.179123 C146.8119,46.33381 159.38128,47.401311 162.09378,47.401311 C167.46627,47.401311 177.65127,44.050061 177.65127,29.87506 C177.65127,18.845685 171.1369,12.843185 162.30815,12.843185 C152.78596,12.843185 146.8119,19.154123 146.8119,30.179123 M153.92128,30.358498 C153.92128,21.499123 154.47253,14.85131 162.18127,14.85131 C170.51128,14.85131 170.55065,21.730998 170.55065,29.800686 C170.55065,41.396623 168.56878,45.39756 162.18127,45.39756 C155.02378,45.39756 153.92128,41.820998 153.92128,30.358498 M193.51851,20.128677 L193.07226,20.113365 C193.02414,20.128677 192.25195,15.13024 191.96101,13.658052 C189.73851,13.658052 180.9382,13.636177 180.9382,13.636177 L180.9382,15.327115 L186.90351,15.327115 C186.90351,15.327115 186.86851,20.391177 186.86851,22.215552 L186.86851,37.724927 C186.86851,39.945239 186.62351,41.49399 186.14445,42.432427 C185.53413,43.539302 184.16695,44.094927 181.90288,44.094927 L180.9382,44.094927 L180.9382,46.07024 L199.40945,46.07024 L199.40945,44.094927 L198.41413,44.094927 C195.99039,44.094927 194.94476,43.56774 194.29507,42.51774 C193.70664,41.592427 193.44413,40.02399 193.44413,37.724927 L193.44413,26.09399 C193.44413,22.171802 196.39726,17.707115 199.93663,17.707115 C203.6357,17.707115 203.5482,23.405552 207.74164,21.113052 C210.02101,19.866177 209.63601,13.33649 202.56163,13.33649 C196.86539,13.33649 195.08913,16.700865 193.51851,20.128677 M251.18911,15.342601 C249.08036,16.948226 248.26005,18.431351 248.26005,20.555414 C248.26005,21.541976 248.52474,22.237601 249.08036,22.705726 C249.63599,23.200101 250.29005,23.427601 251.09067,23.427601 C252.92599,23.427601 253.95849,22.493538 254.33911,20.078539 C254.6213,18.286976 255.01286,17.265414 255.89442,16.331351 C256.83724,15.342601 258.31161,14.848226 260.30224,14.848226 C262.6188,14.848226 264.25724,15.471663 265.17817,16.718539 C266.02036,17.891039 266.46661,19.485726 266.46661,21.454476 L266.46661,26.894788 C260.54724,27.428539 246.57349,28.550726 247.19474,39.195101 C247.4288,43.360101 251.10161,47.015413 255.8463,47.015413 C261.09192,47.015413 264.41255,44.027288 266.66567,41.636351 C267.02661,43.902601 269.13099,46.608538 272.95474,46.608538 C277.25536,46.608538 279.82349,44.499789 280.12317,39.227913 L279.01849,39.227913 C278.72755,41.520413 277.31005,42.756351 276.14411,42.756351 C274.16661,42.756351 273.5388,41.656039 273.39224,39.825101 L273.2763,35.673226 L273.2763,22.086664 C273.2763,19.153226 272.8038,17.182288 271.07349,15.454163 C269.37161,13.726038 266.07724,12.842288 261.31505,12.842288 C256.74317,12.842288 253.34817,13.686663 251.18911,15.342601 M253.66099,37.948226 C253.66099,31.908538 261.93411,28.887601 266.46661,28.887601 L266.46661,39.321976 L266.35505,39.580101 L266.21724,39.711351 C263.05192,42.581351 260.63474,43.605101 258.86724,43.605101 C254.33911,43.605101 253.66099,39.833851 253.66099,37.948226 M293.1235,19.514404 L292.53069,19.490341 L291.3735,13.597216 L281.33288,13.579716 L281.33288,15.270654 C283.2185,15.349404 286.36194,15.384404 286.36194,15.384404 L286.36194,37.688154 C286.36194,39.420654 286.22631,40.667529 285.97037,41.494404 C285.7035,42.480967 285.06256,43.170029 284.11537,43.568154 C283.50725,43.830654 282.55131,43.975029 281.33288,44.029716 L281.33288,46.070654 L297.29725,46.070654 L297.29725,44.014404 C295.69162,43.885341 294.60881,43.450029 294.03131,42.629717 C293.40787,41.752529 293.1235,40.245342 293.1235,38.042529 L293.1235,29.476279 C293.1235,25.893154 293.10381,22.432529 294.32662,20.290966 C295.64569,17.956904 298.06069,16.670654 300.76444,16.670654 C303.19475,16.670654 304.47444,17.449404 305.27725,18.991591 C305.93131,20.247217 306.35569,23.983466 306.35569,26.553779 L306.27694,37.169716 C306.27694,38.937216 306.50006,40.245342 306.35569,41.083154 C306.17631,42.060966 305.73225,42.822216 304.96444,43.327529 C304.40662,43.712529 303.52944,43.911592 302.40506,43.996904 L302.40506,46.070654 L317.79194,46.070654 L317.79194,44.029716 C315.84506,43.902841 314.57194,43.430341 314.01412,42.520342 C313.38194,41.592841 312.85913,40.030966 312.85913,37.703466 L312.94662,23.007841 C312.94662,20.883779 312.66225,19.065967 311.86381,17.574092 C311.05662,16.123779 309.9235,15.023466 308.51475,14.299404 C307.08194,13.579716 305.44131,13.225341 303.63881,13.225341 C297.1485,13.225341 294.54319,17.186904 293.1235,19.514404 M241.72532,11.533069 C240.77376,11.837132 240.14157,12.683694 239.80688,14.114319 C239.55751,15.433382 239.05657,16.196819 238.38938,16.411194 C237.72001,16.608069 236.97407,16.551194 236.08595,16.249319 C234.4322,14.711507 231.25813,12.843381 225.67126,12.843381 C216.67845,12.843381 212.7147,19.250569 212.7147,25.095569 C212.7147,31.938069 215.34407,35.249944 221.13001,36.468382 C221.48001,36.542757 221.48001,36.929944 221.17595,36.999944 C216.24095,37.999631 211.86813,39.443382 211.86813,44.133381 C211.86813,46.959632 213.49126,48.508381 215.56719,49.354944 C217.8597,50.286819 221.08188,50.770257 225.12657,50.842444 C228.66376,50.881819 231.17063,51.006507 232.80251,51.201194 C234.56782,51.402444 235.96563,51.905569 236.99813,52.658069 C238.06126,53.480569 238.62345,54.692444 238.62345,56.278381 C238.62345,58.448381 237.46407,60.194007 235.1497,61.486819 C232.9972,62.689944 230.05501,63.317757 226.39532,63.317757 C223.25626,63.317757 220.68813,62.974319 218.36938,61.530569 C216.6522,60.467444 216.31751,58.376194 216.67845,56.871194 C216.99782,55.348694 216.45313,53.743069 214.68782,53.445569 C213.71657,53.281507 212.49376,53.810882 211.92938,54.692444 C211.40001,55.512757 211.21407,56.488382 211.21407,57.652131 C211.21407,61.510882 214.19344,63.317757 216.47063,63.982757 C219.94438,65.041506 222.24782,65.297444 225.44157,65.297444 C229.67657,65.297444 233.11532,64.649944 235.57407,63.405257 C238.03282,62.162757 239.74782,60.644632 240.66219,58.899006 C241.62688,57.140257 242.08845,55.346507 242.08845,53.618381 C242.08845,51.286507 241.57657,49.385569 240.58126,47.985569 C237.36782,43.566819 232.80251,44.133381 222.54313,43.643382 C217.60813,43.643382 216.65657,42.753069 216.65657,41.234944 C216.65657,39.010257 218.48532,38.133069 225.63188,37.037132 C232.66251,35.943382 239.21626,33.362131 239.21626,24.774006 C239.21626,22.304319 238.63876,20.182444 237.94094,18.699319 C239.39563,19.023069 240.75188,19.023069 241.99001,18.614007 C243.40969,18.176507 244.33063,17.465569 244.86438,16.468069 C245.39813,15.468382 245.51844,14.527757 245.22313,13.609006 C244.75282,12.106194 243.94782,11.355882 242.78626,11.355882 C242.46032,11.355882 242.10813,11.414944 241.72532,11.533069 M219.23782,25.095569 C219.23782,19.064632 221.3422,14.578069 225.84407,14.578069 C231.08313,14.578069 232.61438,18.666507 232.61438,24.970881 C232.61438,33.987757 229.77501,35.169007 225.84407,35.169007 C221.64188,35.169007 219.23782,33.642131 219.23782,25.095569" id="path33"></path>
        </g>
    </g>
</svg>
