<?xml version="1.0" encoding="UTF-8" standalone="no"?>
<!DOCTYPE svg PUBLIC "-//W3C//DTD SVG 1.1//EN" "http://www.w3.org/Graphics/SVG/1.1/DTD/svg11.dtd">
<svg xmlns="http://www.w3.org/2000/svg" xmlns:xl="http://www.w3.org/1999/xlink" version="1.1" preserveAspectRatio="xMinYMin" viewBox="0 0 293 101" width="293pt" height="101pt" xmlns:dc="http://purl.org/dc/elements/1.1/">
  <metadata> Produced by OmniGraffle 7.5 
    <dc:date>2017-12-02 16:15:40 +0000</dc:date>
  </metadata>
  <defs/>
  <g>
    <title>Canvas 1</title>
    <g>
      <title>Layer 1</title>
      <path d="M 115.47506 99.46094 L 113.876 99.46094 L 113.876 .044269166 L 115.47506 .044269166 L 115.47506 99.46094" fill="#1c4f9c"/>
      <path d="M 30.7656 65.4964 C 31.0188 64.954134 31.573466 64.57547 32.210933 64.57547 L 34.038532 64.57547 C 34.919732 64.57547 35.632266 65.29267 35.632266 66.17187 L 35.632266 97.80989 C 35.632266 98.70208 34.919732 99.41823 34.038532 99.41823 L 32.401066 99.41823 L 32.438533 69.2916 L 19.477066 99.41823 L 16.164 99.41823 L 3.2026 69.2916 L 3.2343733 99.41823 L 1.5916666 99.41823 C .709896 99.41823 0 98.70208 0 97.80989 L 0 66.17187 C 0 65.29267 .709896 64.57547 1.5916666 64.57547 L 3.42396 64.57547 C 4.0661466 64.57547 4.6187466 64.954134 4.875 65.4964 L 17.8156 95.5 L 30.7656 65.4964 M 66.554665 73.2136 L 68.156265 73.2136 L 68.156265 76.07813 L 68.2672 76.07813 C 70.06253 73.06507 74.2656 72.45053 76.280265 72.45053 C 83.65053 72.45053 86.24533 77.8776 86.24533 82.57027 L 86.24533 97.80989 C 86.24533 98.70208 85.53693 99.41823 84.664 99.41823 L 83.04786 99.41823 L 83.04786 83.07653 C 83.04786 78.6052 81.20626 75.512 76.025465 75.512 C 71.36933 75.512 68.318265 79.014 68.156265 84.14067 L 68.156265 99.41823 L 66.544265 99.41823 C 65.66933 99.41823 64.961465 98.70208 64.961465 97.80989 L 64.961465 74.80987 C 64.961465 73.92867 65.66933 73.2136 66.544265 73.2136 M 59.365065 99.41823 C 58.4932 99.41823 57.773465 98.70208 57.773465 97.80989 L 57.637465 95.74844 C 55.247865 98.70729 53.30413 100 48.22293 100 C 43.3484 100 39.430666 97.63281 39.430666 92.38021 C 39.430666 85.1276 46.595866 84.40107 53.507865 83.59373 C 56.156265 83.34373 57.62973 82.69013 57.62973 79.86973 C 57.62973 76.22493 53.9912 75.1224 50.177065 75.1224 C 46.159866 75.1224 42.5724 76.95053 42.425066 81.18067 L 40.85213 81.18067 C 40.85213 81.18067 39.133332 81.16507 39.47453 79.29693 C 40.52653 74.53547 45.201066 72.45053 50.580265 72.45053 C 55.2 72.45053 60.830665 73.81773 60.830665 80.83333 L 60.830665 94.65989 C 60.830665 97.76719 61.21253 99.41823 61.21253 99.41823 L 59.365065 99.41823 M 57.62973 84.91307 L 57.52293 84.91307 C 57.1172 85.67547 55.690665 85.92453 54.83173 86.07293 C 49.39173 87.03541 42.630666 87.03541 42.630666 92.11875 C 42.630666 95.32812 45.425066 97.30989 48.473465 97.30989 C 53.40573 97.30989 57.62973 94.20416 57.62973 89.07656 L 57.62973 84.91307 M 22.352133 38.04787 L 22.352133 56.696934 L 0 56.696934 L 0 25e-7 L 29.445333 25e-7 L 43.12973 19.182802 L 56.80933 25e-7 L 86.24533 25e-7 L 86.24533 56.696934 L 63.90573 56.696934 L 63.90573 38.04787 L 50.41613 56.696934 L 35.840132 56.696934" fill="#1c4f9c"/>
      <path d="M 191.21866 21.774002 C 195.30933 16.014002 199.63866 11.976536 204.12 9.206269 C 194.19333 9.706269 184.69466 13.479735 176.65466 24.526002 C 175.62133 25.944802 174.72 27.372935 173.91333 28.814535 C 178.91333 26.346402 183.90133 25.364535 188.83866 25.23067 C 189.58933 24.107335 190.37733 22.958269 191.21866 21.774002" fill="#73d1e2"/>
      <path d="M 157.91466 73.486 C 177.424 60.721334 171.88266 50.6432 188.84 25.229735 C 183.90133 25.364535 178.912 26.346402 173.912 28.814002 C 165.048 44.64587 167.896 61.974934 141.16 83.2412" fill="#12b1d2"/>
      <path d="M 276.848 4.2240024 C 256.752 16.074535 228.21066 -5.6791974 204.11866 9.206269 C 224.54933 8.179736 246.79733 21.025469 261.90533 12.941202" fill="#73d1e2"/>
      <path d="M 191.21866 21.774002 C 190.37733 22.958269 189.58933 24.107335 188.83866 25.23067 C 193.208 25.10987 197.536 25.651602 201.792 26.41147 C 220.68266 7.362002 238.45066 26.598402 257.38933 15.575469 L 257.38933 15.574535 L 257.38933 15.575469 L 261.904 12.940669 C 246.796 21.024935 224.54933 8.179736 204.12 9.206269 C 199.63866 11.976536 195.30933 16.014002 191.21866 21.774002" fill="#12b1d2"/>
      <path d="M 185.04266 54.2604 C 190.75733 40.655735 196.32266 31.9292 201.79333 26.41147 C 197.53466 25.651602 193.208 25.10987 188.84 25.229735 C 171.88133 50.6432 177.424 60.721334 157.916 73.486 L 182.95733 58.9088 C 183.644 57.4844 184.33733 55.940134 185.04266 54.2604" fill="#117fb7"/>
      <path d="M 257.38933 15.575469 L 257.38933 15.574535 Z" fill="#73d1e2"/>
      <path d="M 201.79333 26.41147 C 205.64 27.097335 209.432 27.962535 213.14533 28.676535 C 226.816 17.996935 238.94666 25.348402 248.84533 20.505735 C 249.25866 20.293735 249.672 20.068269 250.08533 19.827602 L 257.388 15.575469 C 238.452 26.598935 220.68266 7.363069 201.79333 26.41147" fill="#117fb7"/>
      <path d="M 257.38933 15.576002 L 257.38933 15.574935 L 257.38933 15.576002" fill="#73d1e2"/>
      <path d="M 196.61066 50.959335 C 202.32666 39.6568 207.85066 32.812535 213.14533 28.676535 C 209.432 27.962535 205.64 27.098402 201.79333 26.41147 C 196.32266 31.9292 190.75866 40.655735 185.044 54.2604 C 184.336 55.940134 183.64266 57.4844 182.95733 58.90787" fill="#0f67a3"/>
      <path d="M 189.62266 66.8724 C 181.508 87.87604 160.80666 76.53747 127.83693 90.9974 C 162.5 77.40267 188.624 97.13803 198.97066 68.854134 C 203.25466 57.147334 207.432 48.55467 211.396 42.35107 L 196.60933 50.9604 C 194.332 55.476534 191.95866 60.82547 189.62266 66.8724" fill="#73d1e2"/>
      <path d="M 250.08533 19.827602 L 249.94666 19.907869 C 249.99333 19.880669 250.04 19.855202 250.08533 19.827602" fill="#73d1e2"/>
      <path d="M 249.60133 20.109869 C 249.71733 20.044269 249.83333 19.976535 249.94666 19.908269 L 250.084 19.826535 C 249.672 20.068269 249.26 20.293735 248.84533 20.505735 C 249.1 20.381202 249.34933 20.250002 249.60133 20.109869" fill="#73d1e2"/>
      <path d="M 249.94666 19.908269 C 249.83333 19.976535 249.71733 20.044269 249.60133 20.109869" fill="#73d1e2"/>
      <path d="M 248.84533 20.505202 C 238.94666 25.348402 226.816 17.997335 213.14533 28.67707 C 216.32133 29.28747 219.44133 29.7912 222.49066 29.979735 C 231.66666 23.371869 240.24666 24.917202 248.84533 20.505202" fill="#0f67a3"/>
      <path d="M 211.39733 42.350535 C 215.21066 36.40987 218.896 32.569335 222.49066 29.979735 C 219.44133 29.7916 216.32133 29.28907 213.14533 28.67707 C 207.85066 32.81307 202.32533 39.6568 196.61066 50.959335" fill="#114d8a"/>
      <path d="M 189.62266 66.8724 C 191.95866 60.82547 194.332 55.476534 196.60933 50.9604 L 182.95733 58.90787 C 171.63466 82.2484 161.89066 72.91147 127.83693 90.9974 C 160.80666 76.53747 181.508 87.87604 189.62266 66.8724" fill="#12b1d2"/>
      <rect x="237.44133" y="27.17187" width=".016666666" height=".016666666" fill="#73d1e2"/>
      <path d="M 237.44133 27.189602 L 237.44 27.189602 Z" fill="#73d1e2"/>
      <path d="M 127.8364 90.99844 C 161.892 72.91147 171.63333 82.24733 182.95733 58.90787" fill="#117fb7"/>
      <path d="M 249.6 20.110402 C 249.35066 20.250535 249.09866 20.381202 248.84533 20.505202 C 240.24666 24.918802 231.66666 23.371869 222.49066 29.979735 C 227.69866 30.304135 232.704 29.7136 237.44133 27.189602" fill="#114d8a"/>
      <rect x="243.39333" y="23.706269" width=".016666666" height=".016666666" fill="#73d1e2"/>
      <path d="M 222.49066 29.98067 C 218.89466 32.569735 215.21066 36.409335 211.396 42.35107 L 237.44 27.189602 C 232.704 29.7136 227.69866 30.304135 222.49066 29.98067" fill="#143e7a"/>
      <path d="M 262.132 55.05267 C 262.132 53.47707 262.99733 52.688535 264.72666 52.688535 C 265.28266 52.688535 265.77733 52.766135 266.212 52.921335 C 266.644 53.07547 266.93733 53.18387 267.092 53.2448 L 267.092 84.53547 L 262.132 84.53547 L 262.132 70.16507 L 245.536 70.16507 L 245.536 84.53547 L 240.52933 84.53547 L 240.52933 55.05267 C 240.52933 54.25 240.76133 53.655734 241.224 53.267735 C 241.688 52.88227 242.336 52.688535 243.17066 52.688535 C 243.69733 52.688535 244.184 52.75827 244.632 52.897335 C 245.08 53.036935 245.38133 53.15307 245.536 53.2448 L 245.536 65.854134 L 262.132 65.854134 L 262.132 55.05267" fill="#1c4f9c"/>
      <path d="M 271.95866 55.05267 C 271.95866 54.25 272.19066 53.655734 272.65466 53.267735 C 273.11733 52.88227 273.768 52.688535 274.60266 52.688535 C 275.12666 52.688535 275.61333 52.75827 276.06133 52.8984 C 276.50933 53.036935 276.812 53.15307 276.96533 53.2464 L 276.96533 80.22493 L 292.496 80.22493 L 292.496 84.53547 L 271.95866 84.53547 L 271.95866 55.05267" fill="#1c4f9c"/>
      <path d="M 220.028 56.85267 C 219.66666 56.85267 213.62 71.9688 213.62 71.9688 L 226.23333 71.9688 C 226.23333 71.9688 220.388 56.85267 220.028 56.85267 M 220.10933 52.086 C 223.99466 52.086 225.37866 57.429734 227.088 61.39067 C 228.816 65.39587 236.40266 84.5364 236.40266 84.5364 L 231.396 84.5364 L 228.29066 76.28387 L 211.92666 76.28387 L 208.82133 84.5364 L 203.81466 84.5364 C 203.81466 84.5364 211.40266 65.39587 213.12933 61.39067 C 214.83866 57.429734 216.22266 52.086 220.10933 52.086" fill="#1c4f9c"/>
      <path d="M 173.912 28.814002 C 170.156 30.6688 166.444 33.414 162.64133 37.1688 C 145.37733 54.2156 159.392 70.44267 127.91826 90.94896 L 141.16133 83.2412 C 167.89466 61.974934 165.048 44.64587 173.912 28.814002" fill="#73d1e2"/>
      <path d="M 127.8364 91.46615 L 127.8364 90.7276 L 276.872 3.899469 L 276.872 4.6401357 L 127.8364 91.46615" fill="#1c4f9c"/>
    </g>
  </g>
</svg>
