<?xml version="1.0" encoding="UTF-8" standalone="no"?>
<!DOCTYPE svg PUBLIC "-//W3C//DTD SVG 1.1//EN" "http://www.w3.org/Graphics/SVG/1.1/DTD/svg11.dtd">
<svg xmlns="http://www.w3.org/2000/svg" xmlns:xl="http://www.w3.org/1999/xlink" version="1.1" preserveAspectRatio="xMinYMin" viewBox="-1 0 2187 467" width="2187pt" height="467pt" xmlns:dc="http://purl.org/dc/elements/1.1/">
  <metadata> Produced by OmniGraffle 7.5 
    <dc:date>2017-12-02 16:20:58 +0000</dc:date>
  </metadata>
  <defs/>
  <g>
    <title>Canvas 1</title>
    <g>
      <title>Layer 1</title>
      <path d="M -2842171e-20 15e-6 L 222 15e-6 C 221.98666 74.00001 222 148.00001 221.98666 222 C 148 222 74 222 -2842171e-20 222 L -2842171e-20 15e-6" fill="#f25022"/>
      <path d="M 244.66666 15e-6 L 466.66666 15e-6 C 466.66666 74.00001 466.68 148.00001 466.6533 222 C 392.66666 221.98668 318.66666 222 244.68 222 C 244.65333 148.00001 244.66666 74.00001 244.66666 15e-6" fill="#80ba01"/>
      <path d="M 2001.9366 84.58651 C 2022.3956 71.26672 2048.834 70.02658 2071.9074 76.37342 C 2072.1085 90.08067 2071.9342 103.79998 2072.0013 117.52064 C 2061.0344 112.69414 2048.1503 109.54754 2036.607 114.28018 C 2027.4634 117.90676 2022.0202 127.2943 2020.599 136.68049 C 2018.883 148.58718 2019.9958 160.65342 2019.7008 172.62716 C 2043.1227 172.68078 2066.5312 172.64056 2089.9398 172.65397 C 2090.114 157.45319 2089.752 142.24034 2090.1409 127.0409 C 2106.0683 122.50668 2121.808 117.42679 2137.655 112.65392 C 2137.789 132.6812 2137.4673 152.72054 2137.8293 172.75988 C 2153.6495 172.5333 2169.4965 172.7076 2185.33 172.65397 L 2185.33 211.64 C 2169.4429 210.98707 2153.5288 211.46704 2137.6416 211.41341 C 2137.7087 233.82712 2137.655 256.24083 2137.6684 278.6666 C 2137.9232 291.0801 2136.998 303.5606 2138.446 315.93386 C 2139.331 323.22723 2141.9855 331.3076 2148.823 335.08044 C 2160.2725 341.49338 2174.8056 338.69347 2185.33 331.6535 L 2185.33 371.0267 C 2171.6148 376.98662 2156.2773 378.8002 2141.4358 377.74706 C 2127.3585 376.70695 2112.7718 371.5866 2103.588 360.38656 C 2092.9697 347.7335 2090.2347 330.5997 2090.0202 314.57306 C 2089.8995 280.17355 2090.0336 245.77404 2089.9666 211.35979 C 2066.5447 211.34772 2043.1227 211.3343 2019.7008 211.3732 C 2019.674 265.36023 2019.6874 319.34727 2019.6874 373.3335 C 2003.693 373.3335 1987.6717 373.3335 1971.6772 373.3335 C 1971.6772 319.36068 1971.6102 265.40045 1971.704 211.42682 C 1960.5763 211.21365 1949.4217 211.48045 1938.294 211.25387 C 1938.3342 198.44086 1938.3878 185.61445 1938.2671 172.7867 C 1949.3412 172.5333 1960.4422 172.64056 1971.5431 172.71966 C 1972.361 155.6808 1969.76 138.1472 1974.8546 121.54674 C 1979.1583 106.56047 1988.7308 93.04092 2001.9366 84.58651" fill="#777"/>
      <path d="M 973.96 87.38668 C 983.64 85.92001 994.12 89.22668 1000.5333 96.80001 C 1008.0533 105.09335 1009.44 118.29335 1003.8666 127.98668 C 997.7066 138.92001 983.92 144.00001 971.9066 141.37334 C 959.44 139.13334 949.0533 127.54668 949.6133 114.62668 C 949.2533 101.02668 960.6266 88.90668 973.96 87.38668" fill="#777"/>
      <path d="M 606 93.33335 C 629.28 93.33335 652.54665 93.33335 675.82665 93.33335 C 697.56 148.52001 719.4533 203.65334 741.2133 258.84 C 746.7733 272.64 751.9733 286.6 757.8 300.29334 C 785.76 231.33334 814.12 162.54668 841.8666 93.49335 C 864.2533 93.13335 886.6533 93.41335 909.0533 93.36001 C 909 186.68 909.0266 280 909.04 373.31974 C 892.88 373.28027 876.7333 373.45307 860.5866 373.22654 C 860.76 304.36 860.5733 235.49334 860.6666 166.61334 C 860.6933 163.52001 860.5866 160.42668 860.3733 157.33334 C 859.4266 158.77334 858.5866 160.26668 857.8533 161.81334 C 830.1066 232.30668 801.8266 302.6 774.24 373.15987 C 762.74665 373.57347 751.24 373.1864 739.7333 373.37347 C 711.10665 302.88 682.84 232.22668 654.36 161.68001 C 653.6133 160.21334 652.8133 158.78668 651.94665 157.41334 C 651.36 187.58668 651.8533 217.78668 651.6933 247.96 C 651.70665 289.74667 651.66665 331.53334 651.70665 373.31974 C 636.46665 373.35987 621.22665 373.31974 606 373.33334 C 605.98665 280 605.9733 186.66668 606 93.33335" fill="#777"/>
      <path d="M 1106.0933 172.46668 C 1129.2666 165.86668 1154.2533 166.13334 1177.4133 172.68001 C 1182.1866 174.01334 1186.8133 175.86668 1191.1066 178.38668 C 1190.84 193.68 1191.1066 208.98668 1190.96 224.29334 C 1175.48 212.46668 1155.84 204.97334 1136.16 207.45334 C 1120.5333 208.86668 1105.6266 216.97334 1096.28 229.6 C 1084.2666 245.25334 1081.4933 266.04 1083.56 285.18667 C 1085.1066 300.17334 1091.3066 315.14667 1102.96 325.08 C 1115.0666 335.84014 1132.04 339.65307 1147.88 338.45307 C 1163.5333 336.65307 1178.3066 330.02667 1190.96 320.77334 C 1191.0933 335.26667 1190.8933 349.75987 1191.0666 364.25307 C 1171.44 375.93334 1147.9066 378.94694 1125.44 377.84014 C 1102.4533 376.62654 1079.5333 367.91974 1062.8933 351.75987 C 1044.8133 334.33334 1035 309.48 1033.84 284.58667 C 1032.6666 258.70668 1037.9333 231.70668 1052.8266 210.09334 C 1065.3066 191.65334 1084.8266 178.6 1106.0933 172.46668" fill="#777"/>
      <path d="M 1431.3866 169.01334 C 1407.1866 172.06668 1383.6266 183.45334 1368.2666 202.74668 C 1354.24 219.97334 1347.4133 242.10668 1346.1066 264.06668 C 1344.1733 289.94667 1348.4933 317.41334 1363.6933 339.0136 C 1376.64 357.65307 1397.08 370.46667 1419.16 375.1864 C 1437.6133 379.06667 1456.92 379.08027 1475.3733 375.24014 C 1496.96 370.8 1517.12 358.85307 1530.4933 341.22654 C 1543.56 324.62667 1550.12 303.69334 1551.6 282.8 C 1553.1066 261.4 1550.9466 239.24 1542.0533 219.50668 C 1533.72 200.97334 1518.68 185.49334 1500.12 177.12001 C 1478.7333 167.38668 1454.4266 166.08001 1431.3866 169.01334 M 1445.7066 207.12 C 1460.1333 206.17334 1475.4933 210.25334 1485.8666 220.74668 C 1496.96 231.65334 1501.2533 247.48 1502.44 262.57334 C 1503.2933 279.09334 1502.6133 296.30667 1495.68 311.61334 C 1491.0933 321.93334 1482.6933 330.65334 1472.0933 334.7864 C 1459.6933 339.54694 1445.76 339.82654 1432.96 336.5068 C 1419.9333 333.08 1408.88 323.66667 1402.8666 311.68 C 1395.1333 296.24 1393.9733 278.38667 1395.5733 261.45334 C 1397.0266 246.05334 1402.3866 230.21334 1414.12 219.58668 C 1422.6266 211.64 1434.2266 207.76 1445.7066 207.12" fill="#777"/>
      <path d="M 1630.56 169.41334 C 1652.76 165.50668 1676 168.37334 1697.0133 176.33334 C 1697.04 191.05334 1697.0133 205.76 1697.0266 220.46668 C 1682.3466 210.37334 1664.4133 204.94668 1646.6 205.57334 C 1637.6266 205.92 1627.76 209.72 1623.6666 218.25334 C 1620.4133 226.69334 1622.6666 237.76 1630.6266 242.81334 C 1644.24 251.92 1660.48 255.78668 1674.5866 263.94668 C 1685.6933 270.18667 1696.4666 278.34667 1702.0933 290.10667 C 1712.6666 312.13334 1708.1866 341.24014 1689.6 357.66667 C 1671.8533 374.25307 1646.2933 378.84014 1622.7866 377.95987 C 1606.0933 376.88027 1589.32 373.5864 1573.9733 366.75987 C 1574.04 351.28027 1573.88 335.8136 1574.0533 320.34667 C 1586.96 329.72 1601.8533 336.42654 1617.6133 339.14694 C 1628.5866 340.93334 1640.52 341.0136 1650.7466 336.1068 C 1660.5333 331.24 1662.2933 317.33334 1656.48 308.82667 C 1651.04 302.26667 1643.0533 298.65334 1635.52 295.10667 C 1621.3733 288.74667 1606.5066 283.42667 1594.08 273.89334 C 1585.3466 267.08 1578.7333 257.48 1576.1466 246.65334 C 1572.3066 230.69334 1573.5066 212.70668 1582.7866 198.76 C 1593.3866 182.50668 1611.8 172.76001 1630.56 169.41334" fill="#777"/>
      <path d="M 1814.0666 168.94668 C 1794.7466 171.42668 1775.76 178.76 1761.0133 191.70668 C 1743.0133 207.21334 1732.4533 230.01334 1729.3466 253.33334 C 1726.3866 276.65334 1727.3866 301.21334 1736.8933 323.04 C 1746.0133 344.45307 1764.0133 361.84014 1785.6666 370.35987 C 1807.04 378.77347 1830.8 379.71974 1853.2933 376.08027 C 1876.2933 372.28027 1898.08 360.1864 1912.32 341.57347 C 1927.5333 322.34667 1934.08 297.46667 1934.04 273.22667 C 1934.3733 257 1932.3466 240.54668 1926.5733 225.30668 C 1919.1866 205.38668 1904.4 188.16 1885.3333 178.62668 C 1863.4666 167.58668 1838.0266 165.97334 1814.0666 168.94668 M 1827.0266 207.16 C 1840.5866 206.21334 1855.0666 209.34668 1865.4933 218.50668 C 1875.1066 226.48 1880.4266 238.42668 1882.8666 250.45334 C 1885.6133 264.56 1885.5866 279.16 1883.2666 293.33334 C 1881.4266 303.89334 1877.7733 314.42667 1870.8533 322.78667 C 1863.88 331.18667 1853.5066 336.3068 1842.8 337.88027 C 1831.3066 339.6 1819.2 338.77347 1808.4533 334.14694 C 1796.8533 329.24 1787.8666 319.2 1783.1333 307.65334 C 1777.44 293.89334 1776.3066 278.65334 1777.44 263.93334 C 1778.5333 249.68 1782.5733 235.05334 1791.9866 223.97334 C 1800.5733 213.62668 1813.7466 207.90668 1827.0266 207.16" fill="#777"/>
      <path d="M 1298.4666 175.73334 C 1311.72 167.77334 1328.56 167.10668 1343.0266 171.97334 C 1342.96 187.98668 1343.0266 204 1342.9866 220.01334 C 1333.52 213.88 1321.7066 211.25334 1310.5333 212.38668 C 1296.9066 213.93334 1286.1066 224.4 1280.5066 236.4 C 1274.4266 249.10668 1273.28 263.48 1273.6666 277.37334 C 1273.6666 309.36 1273.68 341.34694 1273.6666 373.33334 C 1257.88 373.33334 1242.1066 373.33334 1226.3333 373.33334 C 1226.2933 306.48 1226.3866 239.61334 1226.2933 172.76001 C 1242.0933 172.56001 1257.8933 172.64001 1273.6933 172.72001 C 1273.6266 184.2 1273.6933 195.68 1273.6533 207.17334 C 1278.7866 194.68 1286.4266 182.54668 1298.4666 175.73334" fill="#777"/>
      <path d="M 953.9733 172.72001 C 969.8933 172.65334 985.8266 172.49334 1001.7466 172.80001 C 1001.56 239.64 1001.7333 306.49334 1001.6666 373.33334 C 985.7733 373.33334 969.88 373.33334 954 373.33334 C 953.96 306.46667 954.0133 239.6 953.9733 172.72001" fill="#777"/>
      <path d="M -14210855e-21 244.65334 C 74 244.68 148 244.64 222 244.68 C 222.01333 318.68 222 392.66667 222 466.66667 L -14210855e-21 466.66667 L -14210855e-21 244.65334" fill="#02a4ef"/>
      <path d="M 244.68 244.68 C 318.66666 244.65334 392.66666 244.66668 466.66665 244.66668 C 466.66665 318.66667 466.66665 392.66667 466.66665 466.66667 L 244.66666 466.66667 C 244.68 392.66667 244.65333 318.66667 244.68 244.68" fill="#ffb902"/>
    </g>
  </g>
</svg>
