<svg xmlns="http://www.w3.org/2000/svg" preserveAspectRatio="xMinYMin" viewBox="-1 0 2187 467" width="114pt">
  <path d="M0 .000015h222C221.98666 74.00001 222 148.00001 221.98666 222H0V.000015" fill="#f25022"/>
  <path d="M244.66666.000015h222c0 73.999995.01334 147.999995-.01336 221.999985-73.98664-.01332-147.98664 0-221.9733 0-.02667-73.99999-.01334-147.99999-.01334-221.999985" fill="#80ba01"/>
  <path d="M2001.9366 84.58651c20.459-13.31979 46.8974-14.55993 69.9708-8.21309.2011 13.70725.0268 27.42656.0939 41.14722-10.9669-4.8265-23.851-7.9731-35.3943-3.24046-9.1436 3.62658-14.5868 13.01412-16.008 22.40031-1.716 11.90669-.6032 23.97293-.8982 35.94667 23.4219.05362 46.8304.0134 70.239.02681.1742-15.20078-.1878-30.41363.2011-45.61307 15.9274-4.53422 31.6671-9.61411 47.5141-14.38698.134 20.02728-.1877 40.06662.1743 60.10596 15.8202-.22658 31.6672-.05228 47.5007-.10591V211.64c-15.8871-.65293-31.8012-.17296-47.6884-.22659.0671 22.41371.0134 44.82742.0268 67.25319.2548 12.4135-.6704 24.894.7776 37.26726.885 7.29337 3.5395 15.37374 10.377 19.14658 11.4495 6.41294 25.9826 3.61303 36.507-3.42694v39.3732c-13.7152 5.95992-29.0527 7.7735-43.8942 6.72036-14.0773-1.04011-28.664-6.16046-37.8478-17.3605-10.6183-12.65306-13.3533-29.78686-13.5678-45.8135-.1207-34.39951.0134-68.79902-.0536-103.21327-23.4219-.01207-46.8439-.02549-70.2658.01341-.0268 53.98703-.0134 107.97407-.0134 161.9603h-48.0102c0-53.97282-.067-107.93305.0268-161.90668-11.1277-.21317-22.2823.05363-33.41-.17295.0402-12.81301.0938-25.63942-.0269-38.46717 11.0741-.2534 22.1751-.14614 33.276-.06704.8179-17.03886-1.7831-34.57246 3.3115-51.17292 4.3037-14.98627 13.8762-28.50582 27.082-36.96023M973.96 87.38668c9.68-1.46667 20.16 1.84 26.5733 9.41333 7.52 8.29334 8.9067 21.49334 3.3333 31.18667-6.16 10.93333-19.9466 16.01333-31.96 13.38666-12.4666-2.24-22.8533-13.82666-22.2933-26.74666-.36-13.6 11.0133-25.72 24.3467-27.24M606 93.33335h69.82665C697.56 148.52001 719.4533 203.65334 741.2133 258.84c5.56 13.8 10.76 27.76 16.5867 41.45334 27.96-68.96 56.32-137.74666 84.0666-206.79999 22.3867-.36 44.7867-.08 67.1867-.13334C909 186.68 909.0266 280 909.04 373.31974c-16.16-.03947-32.3067.13333-48.4534-.0932.1734-68.86654-.0133-137.7332.08-206.6132.0267-3.09333-.08-6.18666-.2933-9.28-.9467 1.44-1.7867 2.93334-2.52 4.48C830.1066 232.30668 801.8266 302.6 774.24 373.15987c-11.49335.4136-23 .02653-34.5067.2136C711.10665 302.88 682.84 232.22668 654.36 161.68001c-.7467-1.46667-1.5467-2.89333-2.41335-4.26667-.58665 30.17334-.09335 60.37334-.25335 90.54666.01335 41.78667-.02665 83.57334.01335 125.35974-15.24.04013-30.48 0-45.70665.0136-.01335-93.33334-.0267-186.66666 0-279.99999M1106.0933 172.46668c23.1733-6.6 48.16-6.33334 71.32.21333 4.7733 1.33333 9.4 3.18667 13.6933 5.70667-.2666 15.29332 0 30.6-.1466 45.90666-15.48-11.82666-35.12-19.32-54.8-16.84-15.6267 1.41334-30.5334 9.52-39.88 22.14666-12.0134 15.65334-14.7867 36.44-12.72 55.58667 1.5466 14.98667 7.7466 29.96 19.4 39.89333 12.1066 10.76014 29.08 14.57307 44.92 13.37307 15.6533-1.8 30.4266-8.4264 43.08-17.67973.1333 14.49333-.0667 28.98653.1066 43.47973-19.6266 11.68027-43.16 14.69387-65.6266 13.58707-22.9867-1.2136-45.9067-9.9204-62.5467-26.08027-18.08-17.42653-27.8933-42.27987-29.0533-67.1732-1.1734-25.87999 4.0933-52.87999 18.9866-74.49333 12.48-18.44 32-31.49334 53.2667-37.62666M1431.3866 169.01334c-24.2 3.05334-47.76 14.44-63.12 33.73334-14.0266 17.22666-20.8533 39.36-22.16 61.32-1.9333 25.87999 2.3867 53.34666 17.5867 74.94692 12.9467 18.63947 33.3867 31.45307 55.4667 36.1728 18.4533 3.88027 37.76 3.89387 56.2133.05374 21.5867-4.44014 41.7467-16.38707 55.12-34.0136C1543.56 324.62667 1550.12 303.69334 1551.6 282.8c1.5066-21.4-.6534-43.56-9.5467-63.29332-8.3333-18.53334-23.3733-34.01334-41.9333-42.38667-21.3867-9.73333-45.6934-11.04-68.7334-8.10667m14.32 38.10666c14.4267-.94666 29.7867 3.13334 40.16 13.62668 11.0934 10.90666 15.3867 26.73332 16.5734 41.82666.8533 16.52.1733 33.73333-6.76 49.04-4.5867 10.32-12.9867 19.04-23.5867 23.17306-12.4 4.76054-26.3333 5.04014-39.1333 1.7204-13.0267-3.4268-24.08-12.84013-30.0934-24.8268-7.7333-15.44-8.8933-33.29333-7.2933-50.22666 1.4533-15.4 6.8133-31.24 18.5467-41.86666 8.5066-7.94668 20.1066-11.82668 31.5866-12.46668M1630.56 169.41334c22.2-3.90666 45.44-1.04 66.4533 6.92.0267 14.72 0 29.42666.0133 44.13334-14.68-10.09334-32.6133-15.52-50.4266-14.89334-8.9734.34666-18.84 4.14666-22.9334 12.68-3.2533 8.44-1 19.50666 6.96 24.56 13.6134 9.10666 29.8534 12.97334 43.96 21.13334 11.1067 6.23999 21.88 14.39999 27.5067 26.15999 10.5733 22.02667 6.0933 51.13347-12.4933 67.56-17.7467 16.5864-43.3067 21.17347-66.8134 20.2932-16.6933-1.0796-33.4666-4.37347-48.8133-11.2.0667-15.4796-.0933-30.94627.08-46.4132 12.9067 9.37333 27.8 16.07987 43.56 18.80027 10.9733 1.7864 22.9067 1.86666 33.1333-3.04014 9.7867-4.8668 11.5467-18.77346 5.7334-27.28013-5.44-6.56-13.4267-10.17333-20.96-13.72-14.1467-6.36-29.0134-11.68-41.44-21.21333-8.7334-6.81334-15.3467-16.41334-17.9334-27.24-3.84-15.96-2.64-33.94666 6.64-47.89334 10.6-16.25332 29.0134-25.99999 47.7734-29.34666M1814.0666 168.94668c-19.32 2.48-38.3066 9.81332-53.0533 22.76-18 15.50666-28.56 38.30666-31.6667 61.62666-2.96 23.32-1.96 47.88 7.5467 69.70666 9.12 21.41307 27.12 38.80014 48.7733 47.31987 21.3734 8.4136 45.1334 9.35987 67.6267 5.7204 23-3.8 44.7867-15.89387 59.0267-34.5068 15.2133-19.2268 21.76-44.1068 21.72-68.3468.3333-16.22667-1.6934-32.67999-7.4667-47.91999-7.3867-19.92-22.1733-37.14668-41.24-46.68-21.8667-11.04-47.3067-12.65334-71.2667-9.68m12.96 38.21332c13.56-.94666 28.04 2.18668 38.4667 11.34668 9.6133 7.97332 14.9333 19.92 17.3733 31.94666 2.7467 14.10666 2.72 28.70666.4 42.88-1.84 10.56-5.4933 21.09333-12.4133 29.45333-6.9733 8.4-17.3467 13.52013-28.0533 15.0936-11.4934 1.71973-23.6.8932-34.3467-3.73333-11.6-4.90694-20.5867-14.94694-25.32-26.4936-5.6933-13.76-6.8267-29-5.6933-43.72 1.0933-14.25334 5.1333-28.88 14.5466-39.96 8.5867-10.34666 21.76-16.06666 35.04-16.81334M1298.4666 175.73334c13.2534-7.96 30.0934-8.62666 44.56-3.76-.0666 16.01334 0 32.02666-.04 48.04-9.4666-6.13334-21.28-8.76-32.4533-7.62666-13.6267 1.54666-24.4267 12.01332-30.0267 24.01332-6.08 12.70668-7.2266 27.08-6.84 40.97334 0 31.98666.0134 63.9736 0 95.96h-47.3333c-.04-66.85334.0533-133.72-.04-200.57333 15.8-.2 31.6-.12 47.4-.04-.0667 11.47999 0 22.95999-.04 34.45333 5.1333-12.49334 12.7733-24.62666 24.8133-31.44M953.9733 172.72001c15.92-.06667 31.8533-.22667 47.7733.08-.1866 66.83999-.0133 133.69333-.08 200.53333H954c-.04-66.86667.0133-133.73334-.0267-200.61333" fill="#777"/>
  <path d="M0 244.65334c74 .02666 148-.01334 222 .02666.01333 74 0 147.98667 0 221.98667H0V244.65334" fill="#02a4ef"/>
  <path d="M244.68 244.68c73.98666-.02666 147.98666-.01332 221.98665-.01332v221.99999H244.66666c.01334-74-.01333-148 .01334-221.98667" fill="#ffb902"/>
</svg>