<?xml version="1.0" encoding="UTF-8"?>
<svg width="287px" height="64px" viewBox="0 0 287 64" version="1.1" xmlns="http://www.w3.org/2000/svg" xmlns:xlink="http://www.w3.org/1999/xlink">
    <!-- Generator: Sketch 52.5 (67469) - http://www.bohemiancoding.com/sketch -->
    <title>MoneyLion Horizontal</title>
    <desc>Created with Sketch.</desc>
    <defs>
        <path d="M22.846,3.517 C21.968,4.04 21.137,4.533 20.454,4.816 C19.707,5.126 18.729,5.382 17.694,5.653 C15.087,6.335 11.845,7.183 9.314,9.716 C6.782,12.246 5.934,15.488 5.252,18.093 C4.982,19.129 4.726,20.107 4.415,20.857 C4.133,21.536 3.641,22.366 3.119,23.243 C1.728,25.586 0,28.495 0,32.2 C0,35.906 1.728,38.814 3.116,41.153 C3.639,42.033 4.133,42.863 4.415,43.545 C4.726,44.294 4.982,45.272 5.252,46.308 C5.934,48.912 6.781,52.154 9.313,54.687 C11.845,57.218 15.086,58.065 17.69,58.747 C18.732,59.02 19.708,59.275 20.454,59.585 C21.137,59.868 21.967,60.361 22.846,60.883 C25.184,62.272 28.094,64 31.799,64 C35.505,64 38.415,62.272 40.753,60.883 C41.636,60.359 42.465,59.866 43.143,59.585 C43.891,59.275 44.866,59.02 45.899,58.749 C48.513,58.065 51.754,57.218 54.284,54.687 C56.816,52.155 57.664,48.914 58.346,46.31 C58.617,45.272 58.874,44.294 59.184,43.546 C59.467,42.863 59.96,42.033 60.483,41.154 C61.871,38.815 63.598,35.906 63.598,32.2 C63.598,28.496 61.871,25.587 60.484,23.25 C59.96,22.369 59.467,21.537 59.184,20.857 C58.874,20.108 58.617,19.13 58.347,18.095 C57.664,15.487 56.816,12.246 54.284,9.716 C51.754,7.183 48.512,6.335 45.907,5.654 C44.871,5.383 43.893,5.126 43.144,4.816 C42.462,4.533 41.631,4.04 40.752,3.517 C38.414,2.129 35.505,0.402 31.799,0.402 C28.094,0.402 25.186,2.129 22.846,3.517 M19.685,21.13 C19.257,21.024 18.821,20.884 18.491,20.589 C17.127,19.368 19.358,18.521 20.291,18.295 C24.962,17.166 29.768,16.642 34.571,16.577 C37.18,16.543 39.813,16.646 42.348,17.268 C43.487,17.547 44.627,17.946 45.539,18.687 C45.983,19.049 46.381,19.522 46.453,20.09 C46.524,20.657 46.149,21.302 45.581,21.355 C45.389,21.373 45.19,21.328 44.994,21.283 C44.688,21.213 44.389,21.142 44.142,21.31 C43.831,21.522 43.827,21.978 43.916,22.344 C44.439,24.48 46.831,25.719 47.49,27.819 C47.577,28.095 47.621,28.425 47.437,28.649 C47.287,28.833 47.032,28.884 46.798,28.924 C45.707,29.109 44.605,29.295 43.499,29.25 C42.393,29.206 41.266,28.912 40.396,28.226 C39.128,27.227 38.587,25.575 37.574,24.318 C36.481,22.962 34.869,22.123 33.168,21.692 C32.832,21.606 32.493,21.537 32.153,21.484 C30.094,21.155 27.993,21.318 25.91,21.439 C25.084,21.487 24.252,21.527 23.422,21.527 C22.161,21.527 20.906,21.434 19.685,21.13 M23.512,32.151 C22.914,31.986 22.287,31.779 21.884,31.307 C21.094,30.379 21.439,28.659 22.171,27.799 C22.99,26.837 24.384,26.484 25.568,26.25 C27.673,25.836 29.822,25.65 31.967,25.692 C32.851,25.71 33.788,25.784 34.51,26.299 C35.347,26.896 35.705,27.946 36.014,28.927 C36.07,29.106 36.128,29.292 36.139,29.477 C36.146,29.574 36.139,29.671 36.115,29.767 C36.046,30.03 35.844,30.236 35.642,30.418 C34.056,31.844 31.955,32.619 29.833,32.83 C29.389,32.875 28.944,32.895 28.499,32.895 C26.818,32.895 25.137,32.599 23.512,32.151 M49.942,39.718 C49.816,39.701 49.704,39.628 49.601,39.555 C49.019,39.148 48.463,38.681 48.087,38.079 C47.003,36.339 47.102,33.341 48.727,31.994 C48.817,31.919 48.916,31.847 49.031,31.831 C49.195,31.809 49.351,31.904 49.482,32.007 C50.7,32.954 51.128,34.587 51.366,36.113 C51.441,36.603 51.506,37.104 51.477,37.597 C51.468,37.76 51.448,37.923 51.414,38.085 C51.283,38.732 50.905,39.363 50.305,39.641 C50.21,39.687 50.106,39.722 50.002,39.722 C49.982,39.722 49.962,39.721 49.942,39.718 M38.39,40.46 C37.97,40.458 37.54,40.421 37.131,40.326 C36.193,40.106 35.258,39.863 34.336,39.585 C33.936,39.465 33.548,39.273 33.198,39.047 C32.851,38.822 32.707,38.451 32.736,38.025 C32.758,37.709 32.771,37.393 32.789,37.059 C32.789,36.761 32.799,36.444 32.787,36.127 C32.771,35.686 32.902,35.286 33.221,34.996 C33.556,34.691 33.919,34.399 34.316,34.187 C35.285,33.67 36.275,33.195 37.263,32.716 C38.138,32.29 39.047,32.201 39.98,32.51 C40.706,32.75 41.43,32.999 42.15,33.256 C43.007,33.562 43.524,34.136 43.546,35.086 C43.557,35.636 43.572,36.185 43.596,36.734 C43.635,37.672 43.182,38.325 42.396,38.764 C41.626,39.193 40.84,39.593 40.06,40.005 C39.541,40.279 38.99,40.46 38.403,40.46 C38.399,40.46 38.395,40.46 38.39,40.46 M42.589,48.753 C41.918,48.421 41.267,48.048 40.604,47.7 C39.947,47.355 39.695,46.816 39.885,46.103 C40.102,45.282 40.324,44.463 40.556,43.647 C40.757,42.936 41.221,42.413 41.837,42.046 C42.809,41.467 43.798,40.912 44.794,40.378 C45.41,40.046 46.035,40.038 46.619,40.499 C46.986,40.787 47.362,41.064 47.74,41.336 C48.378,41.792 48.547,42.44 48.458,43.167 C48.353,44.017 48.221,44.865 48.078,45.71 C47.945,46.489 47.551,47.106 46.85,47.501 C46.147,47.897 45.442,48.29 44.735,48.679 C44.357,48.887 43.952,49.004 43.497,49.06 C43.193,48.961 42.872,48.894 42.589,48.753" id="path-1"></path>
        <linearGradient x1="-15.8608404%" y1="49.9992325%" x2="124.048445%" y2="49.9992325%" id="linearGradient-3">
            <stop stop-color="#00CD87" offset="0%"></stop>
            <stop stop-color="#00C8D6" offset="100%"></stop>
        </linearGradient>
        <polygon id="path-4" points="0 64 286.718 64 286.718 0.401 0 0.401"></polygon>
    </defs>
    <g id="MoneyLion-Horizontal" stroke="none" stroke-width="1" fill="none" fill-rule="evenodd">
        <g id="Group-3" transform="translate(0.000000, -0.401000)">
            <mask id="mask-2" fill="white">
                <use xlink:href="#path-1"></use>
            </mask>
            <g id="Clip-2"></g>
            <path d="M22.846,3.517 C21.968,4.04 21.137,4.533 20.454,4.816 C19.707,5.126 18.729,5.382 17.694,5.653 C15.087,6.335 11.845,7.183 9.314,9.716 C6.782,12.246 5.934,15.488 5.252,18.093 C4.982,19.129 4.726,20.107 4.415,20.857 C4.133,21.536 3.641,22.366 3.119,23.243 C1.728,25.586 0,28.495 0,32.2 C0,35.906 1.728,38.814 3.116,41.153 C3.639,42.033 4.133,42.863 4.415,43.545 C4.726,44.294 4.982,45.272 5.252,46.308 C5.934,48.912 6.781,52.154 9.313,54.687 C11.845,57.218 15.086,58.065 17.69,58.747 C18.732,59.02 19.708,59.275 20.454,59.585 C21.137,59.868 21.967,60.361 22.846,60.883 C25.184,62.272 28.094,64 31.799,64 C35.505,64 38.415,62.272 40.753,60.883 C41.636,60.359 42.465,59.866 43.143,59.585 C43.891,59.275 44.866,59.02 45.899,58.749 C48.513,58.065 51.754,57.218 54.284,54.687 C56.816,52.155 57.664,48.914 58.346,46.31 C58.617,45.272 58.874,44.294 59.184,43.546 C59.467,42.863 59.96,42.033 60.483,41.154 C61.871,38.815 63.598,35.906 63.598,32.2 C63.598,28.496 61.871,25.587 60.484,23.25 C59.96,22.369 59.467,21.537 59.184,20.857 C58.874,20.108 58.617,19.13 58.347,18.095 C57.664,15.487 56.816,12.246 54.284,9.716 C51.754,7.183 48.512,6.335 45.907,5.654 C44.871,5.383 43.893,5.126 43.144,4.816 C42.462,4.533 41.631,4.04 40.752,3.517 C38.414,2.129 35.505,0.402 31.799,0.402 C28.094,0.402 25.186,2.129 22.846,3.517 M19.685,21.13 C19.257,21.024 18.821,20.884 18.491,20.589 C17.127,19.368 19.358,18.521 20.291,18.295 C24.962,17.166 29.768,16.642 34.571,16.577 C37.18,16.543 39.813,16.646 42.348,17.268 C43.487,17.547 44.627,17.946 45.539,18.687 C45.983,19.049 46.381,19.522 46.453,20.09 C46.524,20.657 46.149,21.302 45.581,21.355 C45.389,21.373 45.19,21.328 44.994,21.283 C44.688,21.213 44.389,21.142 44.142,21.31 C43.831,21.522 43.827,21.978 43.916,22.344 C44.439,24.48 46.831,25.719 47.49,27.819 C47.577,28.095 47.621,28.425 47.437,28.649 C47.287,28.833 47.032,28.884 46.798,28.924 C45.707,29.109 44.605,29.295 43.499,29.25 C42.393,29.206 41.266,28.912 40.396,28.226 C39.128,27.227 38.587,25.575 37.574,24.318 C36.481,22.962 34.869,22.123 33.168,21.692 C32.832,21.606 32.493,21.537 32.153,21.484 C30.094,21.155 27.993,21.318 25.91,21.439 C25.084,21.487 24.252,21.527 23.422,21.527 C22.161,21.527 20.906,21.434 19.685,21.13 M23.512,32.151 C22.914,31.986 22.287,31.779 21.884,31.307 C21.094,30.379 21.439,28.659 22.171,27.799 C22.99,26.837 24.384,26.484 25.568,26.25 C27.673,25.836 29.822,25.65 31.967,25.692 C32.851,25.71 33.788,25.784 34.51,26.299 C35.347,26.896 35.705,27.946 36.014,28.927 C36.07,29.106 36.128,29.292 36.139,29.477 C36.146,29.574 36.139,29.671 36.115,29.767 C36.046,30.03 35.844,30.236 35.642,30.418 C34.056,31.844 31.955,32.619 29.833,32.83 C29.389,32.875 28.944,32.895 28.499,32.895 C26.818,32.895 25.137,32.599 23.512,32.151 M49.942,39.718 C49.816,39.701 49.704,39.628 49.601,39.555 C49.019,39.148 48.463,38.681 48.087,38.079 C47.003,36.339 47.102,33.341 48.727,31.994 C48.817,31.919 48.916,31.847 49.031,31.831 C49.195,31.809 49.351,31.904 49.482,32.007 C50.7,32.954 51.128,34.587 51.366,36.113 C51.441,36.603 51.506,37.104 51.477,37.597 C51.468,37.76 51.448,37.923 51.414,38.085 C51.283,38.732 50.905,39.363 50.305,39.641 C50.21,39.687 50.106,39.722 50.002,39.722 C49.982,39.722 49.962,39.721 49.942,39.718 M38.39,40.46 C37.97,40.458 37.54,40.421 37.131,40.326 C36.193,40.106 35.258,39.863 34.336,39.585 C33.936,39.465 33.548,39.273 33.198,39.047 C32.851,38.822 32.707,38.451 32.736,38.025 C32.758,37.709 32.771,37.393 32.789,37.059 C32.789,36.761 32.799,36.444 32.787,36.127 C32.771,35.686 32.902,35.286 33.221,34.996 C33.556,34.691 33.919,34.399 34.316,34.187 C35.285,33.67 36.275,33.195 37.263,32.716 C38.138,32.29 39.047,32.201 39.98,32.51 C40.706,32.75 41.43,32.999 42.15,33.256 C43.007,33.562 43.524,34.136 43.546,35.086 C43.557,35.636 43.572,36.185 43.596,36.734 C43.635,37.672 43.182,38.325 42.396,38.764 C41.626,39.193 40.84,39.593 40.06,40.005 C39.541,40.279 38.99,40.46 38.403,40.46 C38.399,40.46 38.395,40.46 38.39,40.46 M42.589,48.753 C41.918,48.421 41.267,48.048 40.604,47.7 C39.947,47.355 39.695,46.816 39.885,46.103 C40.102,45.282 40.324,44.463 40.556,43.647 C40.757,42.936 41.221,42.413 41.837,42.046 C42.809,41.467 43.798,40.912 44.794,40.378 C45.41,40.046 46.035,40.038 46.619,40.499 C46.986,40.787 47.362,41.064 47.74,41.336 C48.378,41.792 48.547,42.44 48.458,43.167 C48.353,44.017 48.221,44.865 48.078,45.71 C47.945,46.489 47.551,47.106 46.85,47.501 C46.147,47.897 45.442,48.29 44.735,48.679 C44.357,48.887 43.952,49.004 43.497,49.06 C43.193,48.961 42.872,48.894 42.589,48.753" id="Fill-1" fill="url(#linearGradient-3)" mask="url(#mask-2)"></path>
        </g>
        <g id="Group-25" transform="translate(0.000000, -0.401000)">
            <path d="M113.6442,15.7752 C112.9802,15.7952 112.3442,15.9382 111.8092,16.3262 C111.3592,16.6522 111.0352,17.1192 110.7202,17.5762 C107.4782,22.2772 104.2382,26.9782 100.9972,31.6792 C98.0322,27.3912 95.0682,23.1032 92.1032,18.8152 C91.4522,17.8732 90.7762,16.9062 89.8142,16.2842 C89.2342,15.9092 88.5312,15.6872 87.8372,15.7142 C87.3762,15.7322 86.5362,15.8582 86.4432,16.4122 C86.3762,16.8112 86.4352,17.2662 86.4342,17.6712 C86.4332,18.1142 86.4322,18.5582 86.4312,19.0032 C86.4292,19.8912 86.4282,20.7782 86.4272,21.6672 C86.4222,25.2192 86.4212,28.7722 86.4252,32.3242 C86.4282,35.8772 86.4352,39.4292 86.4462,42.9822 C86.4472,43.2302 86.4482,43.4792 86.4492,43.7272 C88.2542,43.7252 90.0602,43.7232 91.8662,43.7212 C91.8862,38.5252 91.9062,33.3302 91.9262,28.1342 C94.3302,31.5632 96.7332,34.9922 99.1372,38.4212 C99.6202,39.1092 100.2942,39.8832 101.1232,39.7362 C101.5892,39.6522 101.9482,39.2882 102.2622,38.9322 C105.1382,35.6622 106.9972,31.5722 110.0322,28.4492 C110.0592,33.5322 110.0852,38.6162 110.1122,43.7002 C111.9312,43.7002 113.7482,43.7002 115.5672,43.7002 C115.5652,34.4512 115.5642,25.2032 115.5622,15.9542 C114.9392,15.8512 114.2792,15.7562 113.6442,15.7752" id="Fill-4" fill="#000000"></path>
            <path d="M169.6442,31.3626 C169.9652,28.8356 172.1212,27.0886 174.8602,27.1016 C177.4802,27.1136 179.4892,28.8496 179.7442,31.3626 L169.6442,31.3626 Z M180.0182,23.8856 C176.1152,21.8256 170.6062,22.4106 167.5062,25.3356 C163.9432,28.6956 163.2302,32.8876 164.6832,37.3606 C166.1412,41.8476 169.6242,43.9286 174.2112,44.2356 C177.8172,44.4756 181.1232,43.5626 184.2162,41.4396 C183.4942,40.1556 182.8252,38.9666 182.1642,37.7896 C175.4692,40.9846 170.2522,39.9896 169.6612,35.4356 L184.7742,35.4356 C184.8862,35.0196 185.0022,34.7226 185.0432,34.4156 C185.6362,29.9976 183.6232,25.7886 180.0182,23.8856 Z" id="Fill-6" fill="#000000"></path>
            <path d="M205.1085,23.2186 C204.2425,23.1986 203.3755,23.1826 202.5095,23.1676 C202.0185,23.1596 201.5005,23.1586 201.0745,23.4036 C200.4815,23.7446 200.2315,24.4576 200.0245,25.1096 C198.8035,28.9666 197.4865,32.7936 196.0755,36.5846 C194.4625,32.4946 192.8285,28.4116 191.1755,24.3386 C191.0375,23.9996 190.8835,23.6406 190.5795,23.4406 C190.2855,23.2466 189.9105,23.2396 189.5595,23.2396 C188.6785,23.2396 187.7975,23.2386 186.9175,23.2376 C186.4775,23.2376 186.0365,23.2366 185.5965,23.2366 C185.3855,23.2366 185.1735,23.2306 184.9625,23.2366 C184.7175,23.2426 184.6635,23.2386 184.7315,23.4766 C184.8485,23.8896 185.0945,24.3026 185.2675,24.6966 C185.4465,25.1016 185.6255,25.5086 185.8045,25.9146 C186.1615,26.7266 186.5195,27.5396 186.8775,28.3516 C188.3075,31.6006 189.7375,34.8506 191.1685,38.0996 C191.7405,39.3996 192.3135,40.6986 192.8845,41.9986 C193.1455,42.5896 193.4105,43.2016 193.4145,43.8476 C193.4185,44.4896 193.1585,45.1126 192.7955,45.6426 C191.4665,47.5846 188.6055,48.2796 186.5325,47.1646 C186.2335,48.6216 185.9355,50.0776 185.6365,51.5346 C187.7675,52.7186 190.4515,52.9876 192.6755,51.9886 C194.3175,51.2506 195.6175,49.8886 196.5765,48.3646 C197.5355,46.8406 198.1855,45.1466 198.8295,43.4646 C201.4095,36.7276 203.9905,29.9906 206.5705,23.2536 C206.0835,23.2406 205.5955,23.2296 205.1085,23.2186" id="Fill-8" fill="#000000"></path>
            <path d="M129.1481,39.4095 C125.9161,39.4505 123.3881,36.7895 123.4251,33.3855 C123.4601,30.1525 125.9701,27.6225 129.1371,27.6305 C132.2631,27.6365 134.8141,30.2415 134.8251,33.4385 C134.8351,36.7415 132.3361,39.3695 129.1481,39.4095 M129.1361,22.6725 C122.7701,22.6845 118.0851,27.2475 118.0751,33.4445 C118.0651,39.7325 122.7591,44.3575 129.1521,44.3585 C135.4741,44.3585 140.1921,39.6485 140.1651,33.3635 C140.1391,27.2945 135.3591,22.6605 129.1361,22.6725" id="Fill-10" fill="#000000"></path>
            <path d="M248.5939,39.4095 C245.3889,39.3605 242.9539,36.7585 242.9799,33.4095 C243.0049,30.1765 245.5039,27.6365 248.6689,27.6305 C251.8489,27.6235 254.4209,30.2885 254.3789,33.5475 C254.3359,36.8445 251.7569,39.4585 248.5939,39.4095 M248.7659,22.6725 C242.3999,22.6435 237.6649,27.1935 237.6329,33.3695 C237.5999,39.6805 242.2509,44.3275 248.6329,44.3585 C254.9769,44.3885 259.6789,39.7575 259.7229,33.4375 C259.7649,27.3945 254.9869,22.7005 248.7659,22.6725" id="Fill-12" fill="#000000"></path>
            <path d="M156.8063,23.0975 C153.4693,22.0975 150.3893,22.6175 148.0093,25.4655 C147.9403,25.5475 147.7953,25.5675 147.6343,25.6405 C147.5983,24.8315 147.5663,24.0905 147.5323,23.3225 L142.4543,23.3225 L142.4543,43.7545 L147.7533,43.7545 C147.7533,43.1985 147.7523,42.7145 147.7533,42.2315 C147.7643,38.9005 147.7163,35.5685 147.8063,32.2405 C147.8823,29.4585 149.7993,27.5955 152.3863,27.5885 C155.0233,27.5815 156.6713,29.2465 156.7393,32.1785 C156.8183,35.5525 156.7743,38.9295 156.7833,42.3055 C156.7843,42.7825 156.7833,43.2605 156.7833,43.7475 L162.0873,43.7475 C162.0873,39.0845 162.2513,34.4945 162.0333,29.9235 C161.8743,26.6105 160.0973,24.0835 156.8063,23.0975" id="Fill-14" fill="#000000"></path>
            <path d="M281.6315,30.2738 C281.5055,26.9138 279.8645,24.3608 276.5735,23.1458 C273.3675,21.9618 269.9805,22.8108 267.6935,25.2898 C267.5695,25.4238 267.4035,25.5188 267.1935,25.6798 C267.1515,24.7978 267.1155,24.0548 267.0785,23.2908 L262.0515,23.2908 L262.0515,43.7338 L267.3095,43.7338 C267.3095,43.1088 267.3075,42.5758 267.3095,42.0448 C267.3265,38.6688 267.2545,35.2898 267.3885,31.9198 C267.4945,29.2798 269.5385,27.5328 272.1305,27.5908 C274.5695,27.6458 276.1385,29.2858 276.2985,31.9608 C276.3305,32.4998 276.3365,33.0408 276.3375,33.5808 C276.3405,36.5058 276.3395,39.4318 276.3395,42.3568 L276.3395,43.7298 L281.6725,43.7298 C281.6725,39.1768 281.7985,34.7198 281.6315,30.2738" id="Fill-16" fill="#000000"></path>
            <polygon id="Fill-18" fill="#000000" points="213.8883 15.9574 208.4223 15.9574 208.4223 43.7434 228.0483 43.7434 228.0483 38.3874 213.8883 38.3874"></polygon>
            <mask id="mask-5" fill="white">
                <use xlink:href="#path-4"></use>
            </mask>
            <g id="Clip-21"></g>
            <polygon id="Fill-20" fill="#000000" mask="url(#mask-5)" points="230.212 43.753 235.413 43.753 235.413 23.311 230.212 23.311"></polygon>
            <path d="M232.8375,14.3739 C230.9285,14.3859 229.4835,15.8509 229.5435,17.7139 C229.6025,19.5459 231.0305,20.8999 232.8795,20.8739 C234.7435,20.8489 236.0765,19.4839 236.0765,17.6019 C236.0755,15.7439 234.6885,14.3619 232.8375,14.3739" id="Fill-22" fill="#000000" mask="url(#mask-5)"></path>
            <path d="M282.9313,20.5799 C281.2533,20.5799 280.0293,19.2649 280.0293,17.6089 C280.0293,15.9769 281.2533,14.6389 282.9083,14.6389 C284.5643,14.6389 285.7653,15.9769 285.7653,17.6319 C285.7653,19.2649 284.5643,20.5799 282.9313,20.5799 M282.9083,13.8909 C280.7773,13.8909 279.0763,15.5459 279.0763,17.6089 C279.0763,19.7189 280.7773,21.3739 282.9083,21.3739 C285.0633,21.3739 286.7183,19.7189 286.7183,17.6089 C286.7183,15.5459 285.0633,13.8909 282.9083,13.8909" id="Fill-23" fill="#000000" mask="url(#mask-5)"></path>
            <path d="M282.7501,17.451 L282.3421,17.451 L282.3421,16.385 C282.4321,16.362 282.5911,16.34 282.8181,16.34 C283.3621,16.34 283.6121,16.567 283.6121,16.907 C283.6121,17.292 283.2261,17.451 282.7501,17.451 M283.7701,17.723 L283.7701,17.678 C284.2241,17.541 284.5411,17.224 284.5411,16.816 C284.5411,16.453 284.3821,16.158 284.1781,15.999 C283.9061,15.841 283.5891,15.727 282.8861,15.727 C282.2731,15.727 281.7971,15.773 281.4571,15.841 L281.4571,19.56 L282.3191,19.56 L282.3191,18.063 L282.7271,18.063 C283.2031,18.063 283.4301,18.244 283.4981,18.653 C283.6121,19.083 283.6791,19.424 283.7931,19.56 L284.7231,19.56 C284.6321,19.424 284.5641,19.197 284.4511,18.63 C284.3371,18.131 284.1331,17.859 283.7701,17.723" id="Fill-24" fill="#000000" mask="url(#mask-5)"></path>
        </g>
    </g>
</svg>