<svg width="114px" height="26px" viewBox="0 0 114 26" version="1.1" xmlns="http://www.w3.org/2000/svg" xmlns:xlink="http://www.w3.org/1999/xlink">
    <g id="Page-1" stroke="none" stroke-width="1" fill="none" fill-rule="evenodd">
        <g id="monzo">
            <path d="M28.1500916,18.6694857 C28.1502943,19.0079369 28.0160691,19.3326127 27.7769319,19.5721176 L22.0601254,25.2889241 C21.9140208,25.4342601 21.694872,25.4775211 21.5044995,25.3986071 C21.3141269,25.3196932 21.1898537,25.1340756 21.1894194,24.9279957 L21.1894194,12.1180454 L28.0721426,5.27367473 L28.1515427,5.27367473 L28.1500916,18.6694857 Z" id="path4" fill="#E34B5F"></path>
            <path d="M23.588007,0.711590188 C23.3886076,0.512214557 23.0653424,0.512214557 22.865943,0.711590188 L14.3661945,9.21133873 L14.2482345,9.21133873 L14.2482345,18.8054817 L14.3661945,19.0575718 L21.1875536,12.2360053 L28.1498842,5.27367473 L23.588007,0.711590188 Z" id="path6" fill="#E7CE9C"></path>
            <path d="M0.5808462,18.6694857 C0.58053345,19.0080805 0.714767017,19.3329257 0.954005892,19.5725322 L6.67081237,25.2893387 C6.81691695,25.4346747 7.03606574,25.4779357 7.22643829,25.3990218 C7.41681084,25.3201078 7.54108404,25.1344902 7.54151832,24.9284103 L7.54151832,12.1180454 L0.66024629,5.27367473 L0.580845655,5.27367473 L0.5808462,18.6694857 Z" id="path8" fill="#1E7889"></path>
            <path d="M5.86499475,0.711590188 C5.66559531,0.512214557 5.34233019,0.512214557 5.14293075,0.711590188 L0.5808462,5.27367473 L7.54317681,12.2360053 L14.3653652,19.0584011 L14.3653652,9.21216797 L5.86499475,0.711590188 Z" id="path10" fill="#97BAA6"></path>
            <path d="M36.7060214,18.6694857 L36.7060214,5.88855898 L40.1094451,5.88855898 L40.1094451,7.60219121 C40.8949462,6.29322994 42.0374368,5.65056602 43.584391,5.65056602 C45.1313453,5.65056602 46.2976766,6.31707069 47.130652,7.69734693 C48.463454,6.29302263 49.4869481,5.65056602 51.0815839,5.65056602 C53.9615475,5.65056602 55.5802313,7.26904253 55.5802313,10.2441618 L55.5802313,18.6694857 L51.9149739,18.6694857 L51.9149739,11.7434345 C51.9149739,9.95828004 51.5341437,9.14914545 50.1298193,9.14914545 C48.7018616,9.14914545 47.9402012,10.0298023 47.9402012,11.7434345 L47.9402012,18.6694857 L44.2500665,18.6694857 L44.2500665,11.7434345 C44.2500665,9.95828004 43.8692363,9.14914545 42.464912,9.14914545 C41.0367469,9.14914545 40.2752938,10.0298023 40.2752938,11.7434345 L40.2752938,18.6694857 L36.7060214,18.6694857 Z" id="path12" fill="#000000"></path>
            <path d="M60.1041706,7.5545097 C62.0147039,5.62304414 64.8973092,5.02588678 67.4179213,6.0394011 C69.9385334,7.05291542 71.6053758,9.47936271 71.6470364,12.195787 C71.6470364,14.1237788 71.0043725,15.7182072 69.7190447,17.003535 C68.4449772,18.3102134 66.6883658,19.0335284 64.8636152,19.0028417 C62.91199,19.0028417 61.341195,18.3363371 60.0320264,16.9560608 C58.809769,15.6936845 58.1341981,14.0005116 58.1517162,12.2434685 C58.1454807,10.4815156 58.8492637,8.79133047 60.1041706,7.5545097 Z M64.8880779,15.4323254 C66.5542359,15.4323254 67.9108787,14.0280011 67.9108787,12.2905281 C67.9108787,10.5283851 66.5542359,9.12509738 64.8880779,9.12509738 C63.2219198,9.12509738 61.8654843,10.5294217 61.8654843,12.2905281 C61.8654843,14.0284157 63.2459679,15.4325327 64.8886998,15.4325327 L64.8880779,15.4323254 Z" id="path14" fill="#000000" fill-rule="nonzero"></path>
            <path d="M74.2201798,18.6694857 L74.2201798,5.88855898 L77.7902815,5.88855898 L77.7426,7.60219121 C78.5281012,6.31686338 79.7180659,5.65056602 81.4078574,5.65056602 C84.049828,5.65056602 85.7634603,7.31651674 85.7634603,10.2441618 L85.7634603,18.6694857 L82.0028398,18.6694857 L82.0028398,11.7434345 C82.0028398,9.95828004 81.6220096,9.14914545 80.1702111,9.14914545 C78.6945718,9.14914545 77.9090707,10.0298023 77.9090707,11.7434345 L77.9090707,18.6694857 L74.2201798,18.6694857 Z" id="path16" fill="#000000"></path>
            <path d="M101.875667,7.5545097 C103.786141,5.6226048 106.66903,5.02516649 109.189913,6.03873491 C111.710795,7.05230333 113.377739,9.47908789 113.419154,12.195787 C113.419154,14.1237788 112.77649,15.7182072 111.491163,17.003535 C110.217081,18.3101926 108.460479,19.0335037 106.635733,19.0028417 C104.684108,19.0028417 103.113106,18.3363371 101.804144,16.9560608 C100.581906,15.6936721 99.9063384,14.0005074 99.923834,12.2434685 C99.9174345,10.4816061 100.620988,8.791434 101.875667,7.5545097 Z M106.659574,15.4323254 C108.325524,15.4323254 109.682375,14.0280011 109.682375,12.2905281 C109.682375,10.5283851 108.325732,9.12509738 106.659574,9.12509738 C104.993416,9.12509738 103.636773,10.5294217 103.636773,12.2905281 C103.63698,14.0284157 105.017464,15.4325327 106.659781,15.4325327 L106.659574,15.4323254 Z" id="path18" fill="#000000" fill-rule="nonzero"></path>
            <polygon id="path20" fill="#000000" points="88.5911815 18.6694857 88.5911815 16.0036744 93.8510747 9.19661965 88.5911815 9.19661965 88.5911815 5.88855898 98.087681 5.88855898 98.087681 8.91115249 93.446611 15.3612178 98.1828368 15.3612178 98.1828368 18.6694857"></polygon>
        </g>
    </g>
</svg>
