<?xml version="1.0" encoding="UTF-8" standalone="no"?>
<!DOCTYPE svg PUBLIC "-//W3C//DTD SVG 1.1//EN" "http://www.w3.org/Graphics/SVG/1.1/DTD/svg11.dtd">
<svg xmlns:dc="http://purl.org/dc/elements/1.1/" xmlns:xl="http://www.w3.org/1999/xlink" version="1.1" xmlns="http://www.w3.org/2000/svg" preserveAspectRatio="xMinYMin" viewBox="2842171e-20 .004011055 364.31466 442.196">
  <defs/>
  <metadata> Produced by OmniGraffle 7.7.1 
    <dc:date>2018-03-09 12:51:48 +0000</dc:date>
  </metadata>
  <g id="Canvas_1" fill-opacity="1" stroke-dasharray="none" stroke="none" stroke-opacity="1" fill="none">
    <title>Canvas 1</title>
    <g id="Canvas_1: Layer 1">
      <title>Layer 1</title>
      <g id="Graphic_5">
        <title>path14</title>
        <path d="M 45.85933 43.234677 L 48.423465 43.234677 C 54.320265 43.234677 59.36933 43.31201 59.36933 50.686676 C 59.36933 57.82401 53.932265 57.82401 48.423465 57.82401 L 45.85933 57.82401 L 45.85933 43.234677 M 247.38266 42.613343 L 248.85866 42.613343 C 253.82933 42.613343 259.41733 43.54401 259.41733 49.909343 C 259.41733 56.27334 253.82933 57.20401 248.85866 57.20401 L 247.38266 57.20401 L 247.38266 42.613343 M 137.84933 43.234677 L 140.41333 43.234677 C 146.312 43.234677 151.36133 43.31201 151.36133 50.686676 C 151.36133 57.82401 145.924 57.82401 140.41333 57.82401 L 137.84933 57.82401 L 137.84933 43.234677 M 5684342e-20 .004011055 L 364.31466 .004011055 L 364.31466 442.2 L 5684342e-20 442.2 L 5684342e-20 .004011055 M 215.016 43.85601 L 215.016 30.97201 L 181.70666 30.97201 L 181.70666 89.49068 L 215.016 89.49068 L 215.016 76.60934 L 196.924 76.60934 L 196.924 66.51868 L 214.08533 66.51868 L 214.08533 53.634676 L 196.924 53.634676 L 196.924 43.85601 L 215.016 43.85601 L 215.016 43.85601 M 104.9344 30.97201 L 89.71666 30.97201 L 89.71666 89.49068 L 104.9344 89.49068 L 104.9344 30.97201 M 30.6412 89.49068 L 45.85933 89.49068 L 45.85933 70.08934 L 54.47653 70.08934 C 67.75573 70.08934 75.207865 64.03601 75.207865 50.218676 C 75.207865 36.793343 66.5136 30.97201 53.932265 30.97201 L 30.6412 30.97201 L 30.6412 89.49068 M 330.92266 34.230677 C 325.71733 31.281344 318.49866 29.418677 312.596 29.418677 C 300.872 29.418677 292.40933 37.181343 292.40933 49.05601 C 292.40933 60.38534 298.7 62.86934 308.24933 65.58801 C 311.51066 66.51868 317.48933 67.99334 317.48933 72.26134 C 317.48933 76.37468 313.68533 78.16001 310.112 78.16001 C 304.912 78.16001 300.408 75.44268 296.60133 72.10801 L 290.084 84.36934 C 296.06 88.56001 303.28133 91.04268 310.656 91.04268 C 316.55866 91.04268 322.68933 89.41601 327.272 85.53334 C 331.928 81.57468 333.32666 75.59868 333.32666 69.77868 C 333.32666 60.30934 327.04 56.19734 318.88666 53.790676 L 315.00533 52.626676 C 312.364 51.77201 308.24933 50.45201 308.24933 47.038677 C 308.24933 43.777343 311.97466 42.14801 314.772 42.14801 C 318.49866 42.14801 322.068 43.70001 324.864 46.02801 L 330.92266 34.230677 M 262.448 65.50934 C 270.752 64.03601 275.256 57.050676 275.256 48.978676 C 275.256 36.482677 266.48266 30.97201 254.916 30.97201 L 232.16533 30.97201 L 232.16533 89.49068 L 247.38266 89.49068 L 247.38266 66.98534 L 261.90266 89.49068 L 280.84666 89.49068 L 262.448 65.50934 L 262.448 65.50934 M 122.63226 89.49068 L 137.84933 89.49068 L 137.84933 70.08934 L 146.46933 70.08934 C 159.74666 70.08934 167.19866 64.03601 167.19866 50.218676 C 167.19866 36.793343 158.504 30.97201 145.924 30.97201 L 122.63226 30.97201 L 122.63226 89.49068 M 26.024 117.05467 L 26.024 416.19067 L 338.292 416.19067 L 338.292 117.05467 L 26.024 117.05467" fill="#231f20"/>
      </g>
    </g>
  </g>
</svg>
