<svg xmlns="http://www.w3.org/2000/svg" preserveAspectRatio="xMinYMin" viewBox="0 -1 133 24" width="114pt">
  <path d="M28.2864 5.9621334c-.682267 1.0703996-1.0052 2.7891196-1.0052 5.0937996 0 5.059893 1.751066 7.363027 5.644266 7.363027 3.8272 0 5.579734-2.303134 5.579734-7.29896 0-5.0614666-1.7188-7.3322665-5.579734-7.3322665-2.107733 0-3.764.7786665-4.639066 2.1743999M41.4896 3.4648c1.330666 1.7516 2.07653 4.604133 2.07653 7.947907 0 3.794266-1.20053 6.908853-3.34213 8.627599-1.621334 1.296882-4.086 2.011464-7.006267 2.011464-4.152667 0-7.428667-1.363024-9.116133-3.795317-1.2656-1.783853-1.881867-4.15208-1.881867-7.039053 0-4.151 1.135467-7.299533 3.2776-8.9869998 1.684933-1.362 4.3464-2.10773332 7.395867-2.10773332 3.859466 0 6.9428 1.20040002 8.5964 3.34213312M57.186 10.634067c1.23333 0 1.9468-.162507 2.43373-.617187.583335-.486987.940135-1.523413.940135-2.723947 0-1.427066-.583335-2.466133-1.588535-2.822933-.35773-.1302666-.941065-.195333-1.687465-.195333h-6.3584v6.3594H57.186M50.925465 22.05177H46.31773V.41533354H57.1224c3.794265 0 5.12493.38799996 6.55213 1.97813326C64.94013 3.7564 65.61973 5.540267 65.61973 7.4544c0 2.270813-.90613 4.379147-2.4 5.645813-1.264 1.068747-2.43333 1.393227-4.8984 1.393227h-7.395865v7.55833M85.8584 22.05177h-4.6068v-8.920317h-8.336535v8.920317H68.3084V.41533354h4.606665V9.27104H81.2516V.41533354h4.6068V22.05177M94.71973 5.9621334c-.68227 1.0703996-1.0052 2.7891196-1.0052 5.0937996 0 5.059893 1.75 7.363027 5.64387 7.363027 3.8276 0 5.58066-2.303134 5.58066-7.29896 0-5.0614666-1.71933-7.3322665-5.58066-7.3322665-2.1068 0-3.76307.7786665-4.63867 2.1743999M107.92346 3.4648c1.33014 1.7516 2.07494 4.604133 2.07494 7.947907 0 3.794266-1.20054 6.908853-3.34054 8.627599-1.6224 1.296882-4.08653 2.011464-7.0084 2.011464-4.15106 0-7.42653-1.363024-9.114-3.795317-1.26613-1.783853-1.8828-4.15208-1.8828-7.039053 0-4.151 1.1348-7.299533 3.276-8.9869998 1.68694-1.362 4.3484-2.10773332 7.39787-2.10773332 3.85947 0 6.9428 1.20040002 8.59693 3.34213312M.46875065 18.11844H11.75156c1.751106 0 2.710973-.165627 3.271906-.529694.695334-.4302 1.091067-1.157813 1.091067-2.017186 0-1.025-.528533-1.916667-1.4208-2.3474-.463067-.264573-1.321333-.395827-2.381227-.395827H7.605213c-2.64428 0-4.3645864-.463546-5.5218797-1.454693C.76145865 10.21636 0 8.430933 0 6.5116 0 3.7017335 1.5546933 1.2554669 3.8359332.46213354 4.82812.09760022 5.984373-.00133312 8.565106-.00133312H20.064V3.9336H9.6224c-2.0833335.0337335-2.889587.0337335-3.5833335.197867C5.1130265 4.3632 4.55104 5.222667 4.55104 6.3804c0 .992267.4630265 1.784933 1.256253 2.149467.6614535.296906 1.8307335.363573 3.418227.363573h3.537506c3.23964 0 4.992174.495827 6.28124 1.818747.992134.991146 1.6536 2.942706 1.6536 4.859373 0 2.34896-1.091066 4.531253-2.809866 5.588544-1.091067.692708-2.4792.893229-5.752587.893229H.46875065V18.11844M112.05626 18.11844h11.28067c1.7532 0 2.71413-.165627 3.27347-.529694.69586-.4302 1.09173-1.157813 1.09173-2.017186 0-1.025-.52867-1.916667-1.42187-2.3474-.46413-.264573-1.32093-.395827-2.3808-.395827h-4.70773c-2.64387 0-4.3652-.463546-5.52147-1.454693-1.32293-1.15728-2.08333-2.942707-2.08333-4.86204 0-2.8098665 1.55267-5.2561331 3.83333-6.04946646.9948-.36453332 2.15107-.46346666 4.7324-.46346666h11.4968V3.9336h-10.44013c-2.08333.0337335-2.888.0337335-3.58333.197867-.92707.231733-1.4896 1.0912-1.4896 2.248933 0 .992267.46413 1.784933 1.2584 2.149467.66146.296906 1.83026.363573 3.4192.363573h3.53653c3.2416 0 4.9916.495827 6.28387 1.818747.9896.991146 1.65106 2.942706 1.65106 4.859373 0 2.34896-1.09173 4.531253-2.8104 5.588544-1.09066.692708-2.47866.893229-5.75213.893229h-11.66667V18.11844" fill="#3568bb"/>
</svg>