<?xml version="1.0" encoding="UTF-8" standalone="no"?>
<!DOCTYPE svg PUBLIC "-//W3C//DTD SVG 1.1//EN" "http://www.w3.org/Graphics/SVG/1.1/DTD/svg11.dtd">
<svg xmlns="http://www.w3.org/2000/svg" xmlns:xl="http://www.w3.org/1999/xlink" version="1.1" preserveAspectRatio="xMinYMin" viewBox="0 -1 133 24" width="133pt" height="2pc" xmlns:dc="http://purl.org/dc/elements/1.1/">
  <metadata> Produced by OmniGraffle 7.5 
    <dc:date>2017-12-02 16:22:45 +0000</dc:date>
  </metadata>
  <defs/>
  <g>
    <title>Canvas 1</title>
    <g>
      <title>Layer 1</title>
      <path d="M 28.2864 5.9621334 C 27.604133 7.032533 27.2812 8.751253 27.2812 11.055933 C 27.2812 16.115826 29.032266 18.41896 32.925466 18.41896 C 36.752666 18.41896 38.5052 16.115826 38.5052 11.12 C 38.5052 6.0585334 36.7864 3.7877335 32.925466 3.7877335 C 30.817733 3.7877335 29.161466 4.5664 28.2864 5.9621334 L 28.2864 5.9621334 M 41.4896 3.4648 C 42.820266 5.2164 43.56613 8.068933 43.56613 11.412707 C 43.56613 15.206973 42.3656 18.32156 40.224 20.040306 C 38.602666 21.337188 36.138 22.05177 33.217733 22.05177 C 29.065066 22.05177 25.789066 20.688746 24.1016 18.256453 C 22.836 16.4726 22.219733 14.104373 22.219733 11.2174 C 22.219733 7.0664 23.3552 3.917867 25.497333 2.2304002 C 27.182266 .8684002 29.843733 .12266688 32.8932 .12266688 C 36.752666 .12266688 39.836 1.3230669 41.4896 3.4648" fill="#3568bb"/>
      <path d="M 57.186 10.634067 C 58.41933 10.634067 59.1328 10.47156 59.61973 10.01688 C 60.203065 9.529893 60.559865 8.493467 60.559865 7.292933 C 60.559865 5.865867 59.97653 4.8268 58.97133 4.47 C 58.6136 4.3397334 58.030265 4.274667 57.283865 4.274667 L 50.925465 4.274667 L 50.925465 10.634067 L 57.186 10.634067 M 50.925465 22.05177 L 46.31773 22.05177 L 46.31773 .41533354 L 57.1224 .41533354 C 60.916665 .41533354 62.24733 .8033335 63.67453 2.3934668 C 64.94013 3.7564 65.61973 5.540267 65.61973 7.4544 C 65.61973 9.725213 64.7136 11.833547 63.21973 13.100213 C 61.95573 14.16896 60.7864 14.49344 58.32133 14.49344 L 50.925465 14.49344 L 50.925465 22.05177" fill="#3568bb"/>
      <path d="M 85.8584 22.05177 L 81.2516 22.05177 L 81.2516 13.131453 L 72.915065 13.131453 L 72.915065 22.05177 L 68.3084 22.05177 L 68.3084 .41533354 L 72.915065 .41533354 L 72.915065 9.27104 L 81.2516 9.27104 L 81.2516 .41533354 L 85.8584 .41533354 L 85.8584 22.05177" fill="#3568bb"/>
      <path d="M 94.71973 5.9621334 C 94.03746 7.032533 93.71453 8.751253 93.71453 11.055933 C 93.71453 16.115826 95.46453 18.41896 99.3584 18.41896 C 103.186 18.41896 104.93906 16.115826 104.93906 11.12 C 104.93906 6.0585334 103.21973 3.7877335 99.3584 3.7877335 C 97.2516 3.7877335 95.59533 4.5664 94.71973 5.9621334 L 94.71973 5.9621334 M 107.92346 3.4648 C 109.2536 5.2164 109.9984 8.068933 109.9984 11.412707 C 109.9984 15.206973 108.79786 18.32156 106.65786 20.040306 C 105.03546 21.337188 102.57133 22.05177 99.64946 22.05177 C 95.4984 22.05177 92.22293 20.688746 90.53546 18.256453 C 89.26933 16.4726 88.65266 14.104373 88.65266 11.2174 C 88.65266 7.0664 89.78746 3.917867 91.92866 2.2304002 C 93.6156 .8684002 96.27706 .12266688 99.32653 .12266688 C 103.186 .12266688 106.26933 1.3230669 107.92346 3.4648" fill="#3568bb"/>
      <path d="M .46875065 18.11844 L 11.75156 18.11844 C 13.502666 18.11844 14.462533 17.952813 15.023466 17.588746 C 15.7188 17.158546 16.114533 16.430933 16.114533 15.57156 C 16.114533 14.54656 15.586 13.654893 14.693733 13.22416 C 14.230666 12.959587 13.3724 12.828333 12.312506 12.828333 L 7.605213 12.828333 C 4.960933 12.828333 3.2406266 12.364787 2.0833333 11.37364 C .76145865 10.21636 17763568e-22 8.430933 17763568e-22 6.5116 C 17763568e-22 3.7017335 1.5546933 1.2554669 3.8359332 .46213354 C 4.82812 .09760022 5.984373 -.0013331153 8.565106 -.0013331153 L 20.064 -.0013331153 L 20.064 3.9336 L 9.6224 3.9336 C 7.5390665 3.9673335 6.732813 3.9673335 6.0390665 4.131467 C 5.1130265 4.3632 4.55104 5.222667 4.55104 6.3804 C 4.55104 7.372667 5.0140665 8.165333 5.807293 8.529867 C 6.4687465 8.826773 7.6380265 8.89344 9.22552 8.89344 L 12.763026 8.89344 C 16.002666 8.89344 17.7552 9.389267 19.044266 10.712187 C 20.0364 11.703333 20.697866 13.654893 20.697866 15.57156 C 20.697866 17.92052 19.6068 20.102813 17.888 21.160104 C 16.796933 21.852812 15.4088 22.053333 12.135413 22.053333 L .46875065 22.053333 L .46875065 18.11844" fill="#3568bb"/>
      <path d="M 112.05626 18.11844 L 123.33693 18.11844 C 125.09013 18.11844 126.05106 17.952813 126.6104 17.588746 C 127.30626 17.158546 127.70213 16.430933 127.70213 15.57156 C 127.70213 14.54656 127.17346 13.654893 126.28026 13.22416 C 125.81613 12.959587 124.95933 12.828333 123.89946 12.828333 L 119.19173 12.828333 C 116.54786 12.828333 114.82653 12.364787 113.67026 11.37364 C 112.34733 10.21636 111.58693 8.430933 111.58693 6.5116 C 111.58693 3.7017335 113.1396 1.2554669 115.42026 .46213354 C 116.41506 .09760022 117.57133 -.0013331153 120.15266 -.0013331153 L 131.64946 -.0013331153 L 131.64946 3.9336 L 121.20933 3.9336 C 119.126 3.9673335 118.32133 3.9673335 117.626 4.131467 C 116.69893 4.3632 116.1364 5.222667 116.1364 6.3804 C 116.1364 7.372667 116.60053 8.165333 117.3948 8.529867 C 118.05626 8.826773 119.22506 8.89344 120.814 8.89344 L 124.35053 8.89344 C 127.59213 8.89344 129.34213 9.389267 130.6344 10.712187 C 131.624 11.703333 132.28546 13.654893 132.28546 15.57156 C 132.28546 17.92052 131.19373 20.102813 129.47506 21.160104 C 128.3844 21.852812 126.9964 22.053333 123.72293 22.053333 L 112.05626 22.053333 L 112.05626 18.11844" fill="#3568bb"/>
    </g>
  </g>
</svg>
