<svg width="871px" height="112px" viewBox="0 0 871 112" version="1.1" xmlns="http://www.w3.org/2000/svg" xmlns:xlink="http://www.w3.org/1999/xlink">
    <g id="Page-1" stroke="none" stroke-width="1" fill="none" fill-rule="evenodd">
        <g id="SOPRASTERIA_logo_CMJN_exe" transform="translate(-1.000000, -1.000000)">
            <g id="g10" transform="translate(436.666654, 56.666670) scale(-1, 1) rotate(-180.000000) translate(-436.666654, -56.666670) translate(0.666665, 0.666671)">
                <g id="g12" transform="translate(0.666667, 0.266667)">
                    <path d="M473.254655,20.6171995 C472.535988,20.1426662 471.669322,19.5999995 470.877322,19.1437329 L470.635988,19.0041329 L470.877322,18.9759995 C486.411988,14.7103996 501.793321,14.8707996 504.743987,24.5625327 C508.562654,37.0759991 483.851988,50.4999987 472.187988,56.8973319 C469.690655,58.2671985 468.603988,57.4114652 470.199988,55.5797319 C477.562655,47.1005322 488.051988,30.4171992 473.254655,20.6171995" id="path14" fill="#F47216"></path>
                    <path d="M607.177318,75.4893314 L594.087985,75.4893314 L594.087985,86.4546645 L607.177318,86.4546645 L607.177318,102.706664 L619.866651,102.706664 L619.866651,86.4546645 L640.742651,86.4546645 L640.742651,75.4893314 L619.866651,75.4893314 L619.866651,42.4863989 C619.866651,34.2291991 622.167984,29.9026659 632.742651,29.9026659 C636.789317,29.9026659 641.334651,31.0614659 641.334651,31.0614659 L641.334651,19.6401328 C636.923984,19.0426662 633.718651,18.6895995 628.715984,18.6895995 C608.725318,18.6895995 607.177318,33.0947992 607.177318,40.9958656 L607.177318,75.4893314" id="path16" fill="#231F20"></path>
                    <polyline id="path18" fill="#231F20" points="788.742647 18.5306662 775.745314 18.5306662 775.745314 86.5186645 788.742647 86.5186645 788.742647 18.5306662"></polyline>
                    <path d="M798.486647,53.1603987 C798.486647,78.727998 819.153313,87.4133311 833.510646,87.4133311 C849.819979,87.4133311 857.725312,78.059998 857.725312,78.059998 L858.398645,86.5146645 L870.267978,86.5146645 L870.267978,18.3958662 L858.379979,18.3958662 L857.725312,27.3947993 C857.725312,27.3947993 849.590645,18.3811995 833.366646,18.3811995 C817.085313,18.3811995 798.486647,27.8401326 798.486647,53.1603987 Z M811.694646,53.0250653 C811.694646,34.5067991 826.953313,29.8895993 834.185312,29.8895993 C847.986645,29.8895993 857.725312,37.6906657 857.725312,53.291732 C857.725312,68.8946649 846.653312,76.0386648 834.051979,76.0386648 C826.906646,76.0386648 811.694646,71.8386649 811.694646,53.0250653 Z" id="path20" fill="#231F20" fill-rule="nonzero"></path>
                    <path d="M790.74398,102.213331 C790.74398,106.906664 786.93998,110.713331 782.245314,110.713331 C777.551981,110.713331 773.745314,106.906664 773.745314,102.213331 C773.745314,97.5173309 777.551981,93.7119977 782.245314,93.7119977 C786.93998,93.7119977 790.74398,97.5173309 790.74398,102.213331" id="path22" fill="#231F20"></path>
                    <path d="M766.251981,74.8293315 L766.251981,86.3426645 C753.418648,87.5159978 744.411981,84.4399979 737.391982,77.1066647 L736.715982,86.4839978 L724.391982,86.4839978 L724.391982,18.4411995 L737.391982,18.4411995 L737.391982,53.696932 C737.391982,63.5327984 745.319981,76.0026648 766.251981,74.8293315" id="path24" fill="#231F20"></path>
                    <path d="M701.489316,58.7369319 C701.489316,67.9813316 692.185316,75.6879981 680.757316,75.6879981 C668.51865,75.6879981 658.39865,68.1373316 657.581317,58.7369319 L701.489316,58.7369319 Z M643.866651,52.9026653 C643.866651,74.1706648 659.581317,87.8253311 680.57865,87.8253311 C701.433316,87.8253311 715.762649,72.5853315 715.762649,54.0754653 C715.762649,54.0754653 715.762649,51.1863987 715.486649,48.5625321 L657.385317,48.3150655 C657.939984,37.8103991 670.06265,29.8947993 682.57865,29.8947993 C696.049316,29.8947993 704.037316,38.2349324 704.037316,38.2349324 L713.334649,30.0587992 C703.899982,20.9999995 693.606649,18.2426662 682.583983,18.2426662 C659.667984,18.2426662 643.866651,31.6349325 643.866651,52.376532 L643.866651,52.9026653 Z" id="path26" fill="#231F20" fill-rule="nonzero"></path>
                    <path d="M566.265319,59.0259985 C553.182653,61.3635985 540.31732,62.9963984 540.31732,69.0959983 C540.31732,73.0706648 544.262653,76.5666648 555.715986,76.5666648 C564.226653,76.5666648 574.043986,74.5959981 576.705319,68.5679983 L588.766652,73.6346648 C584.150652,82.9013313 570.501319,87.3639978 554.811986,87.3639978 C541.095986,87.3639978 526.374654,82.1706646 526.374654,68.2879983 C526.374654,56.2619986 537.319987,52.5234654 555.366653,49.1275988 C567.423986,46.8598655 578.542652,45.7093322 578.542652,39.2093324 C578.542652,35.1078658 573.073319,29.8505326 559.401319,29.8505326 C549.679986,29.8505326 539.874653,31.8895992 536.87732,38.806799 L525.18532,33.8983992 C529.978653,23.2103994 542.70532,17.6838662 557.450653,17.6838662 C586.895985,17.6838662 592.583985,31.6931992 592.583985,39.6426657 C592.583985,52.8843987 579.409319,56.6770652 566.265319,59.0259985" id="path28" fill="#231F20"></path>
                    <path d="M192.439995,18.3811995 C176.155996,18.3811995 168.087996,28.7291993 168.087996,28.7291993 L168.087996,0.0802666647 L155.538663,0.0802666647 L155.538663,86.5146645 L167.410662,86.5146645 L168.087996,78.059998 C168.087996,78.059998 175.986662,87.4106645 192.299995,87.4106645 C206.653328,87.4106645 227.319994,80.0933313 227.319994,53.1603987 C227.319994,26.2291993 208.725328,18.3811995 192.439995,18.3811995 Z M191.759995,76.0386648 C179.155996,76.0386648 168.087996,68.8933316 168.087996,53.291732 C168.087996,37.6906657 177.822662,29.8895993 191.625329,29.8895993 C198.854662,29.8895993 214.114661,32.8229325 214.114661,53.0250653 C214.114661,73.2279982 198.901328,76.0386648 191.759995,76.0386648 Z" id="path30" fill="#231F20" fill-rule="nonzero"></path>
                    <path d="M276.21466,53.1603987 C276.21466,78.727998 296.881326,87.4133311 311.242659,87.4133311 C327.547992,87.4133311 335.450658,78.059998 335.450658,78.059998 L336.122658,86.5146645 L347.997325,86.5146645 L347.997325,18.3958662 L336.150658,18.3958662 L335.450658,27.3947993 C335.450658,27.3947993 327.319992,18.3811995 311.095992,18.3811995 C294.811993,18.3811995 276.21466,27.8401326 276.21466,53.1603987 Z M289.423993,53.0250653 C289.423993,34.5067991 304.678659,29.8895993 311.914659,29.8895993 C325.715992,29.8895993 335.450658,37.6906657 335.450658,53.291732 C335.450658,68.8946649 324.382659,76.0386648 311.781326,76.0386648 C304.635992,76.0386648 289.423993,71.8386649 289.423993,53.0250653 Z" id="path32" fill="#231F20" fill-rule="nonzero"></path>
                    <path d="M277.163993,74.8293315 L277.163993,86.3426645 C264.33066,87.5159978 255.319994,84.4399979 248.299994,77.1066647 L247.627994,86.4839978 L235.297327,86.4839978 L235.297327,18.4411995 L248.299994,18.4411995 L248.299994,53.696932 C248.299994,63.5327984 256.229327,76.0026648 277.163993,74.8293315" id="path34" fill="#231F20"></path>
                    <path d="M41.143199,59.0259985 C28.0583993,61.3635985 15.1978663,62.9963984 15.1978663,69.0959983 C15.1978663,73.0706648 19.1406662,76.5666648 30.5921326,76.5666648 C39.101599,76.5666648 48.9193321,74.5959981 51.5806654,68.5679983 L63.6483984,73.6346648 C59.0286652,82.9013313 45.3775989,87.3639978 29.6926659,87.3639978 C15.9765329,87.3639978 1.24999997,82.1706646 1.24999997,68.2879983 C1.24999997,56.2619986 12.195333,52.5234654 30.2473326,49.1275988 C42.2994656,46.8598655 53.424532,45.7093322 53.424532,39.2093324 C53.424532,35.1078658 47.9505321,29.8505326 34.2802658,29.8505326 C24.5598661,29.8505326 14.7526663,31.8895992 11.7551997,38.806799 L0.065066665,33.8983992 C4.85413321,23.2103994 17.5833329,17.6838662 32.3306659,17.6838662 C61.7682651,17.6838662 67.4639983,31.6931992 67.4639983,39.6426657 C67.4639983,52.8843987 54.2890653,56.6770652 41.143199,59.0259985" id="path36" fill="#231F20"></path>
                    <path d="M110.629331,29.8895993 C99.9439975,29.8895993 85.8733312,34.5067991 85.8733312,53.0250653 C85.8733312,71.8386649 101.479997,75.6613314 110.629331,75.6613314 C119.77733,75.6613314 135.383997,71.8386649 135.383997,53.0250653 C135.383997,34.5067991 121.31333,29.8895993 110.629331,29.8895993 Z M110.629331,87.4133311 C93.241331,87.4133311 72.6639982,78.727998 72.6639982,53.1603987 C72.6639982,27.8401326 91.1786644,18.0026662 110.629331,18.0026662 C130.079997,18.0026662 148.59333,27.8401326 148.59333,53.1603987 C148.59333,78.727998 128.015997,87.4133311 110.629331,87.4133311 Z" id="path38" fill="#231F20" fill-rule="nonzero"></path>
                    <path d="M470.650655,19.0103995 C470.650655,19.0103995 451.091989,6.71719983 416.574656,6.71719983 C403.201323,6.71719983 391.942657,8.76506645 387.181324,13.4494663 C382.166657,18.3811995 379.446657,26.690666 379.446657,34.3306658 C379.446657,40.8770656 382.166657,46.3811988 387.833324,46.3811988 C402.389323,46.3811988 447.722655,23.3229328 470.650655,19.0103995" id="path40" fill="#DB1D2B"></path>
                    <path d="M405.469323,90.2933311 C406.18799,90.7679977 407.05599,91.3093311 407.846656,91.765331 L408.089323,91.9066644 L407.846656,91.9346644 C392.313324,96.1999976 376.931991,96.0386643 373.981324,86.3479978 C370.162657,73.8346648 394.873323,60.4103985 406.537323,54.0130653 C409.034656,52.6431987 410.11999,53.498932 408.52399,55.3306653 C401.162657,63.8093317 390.67199,80.4933313 405.469323,90.2933311" id="path42" fill="#F47216"></path>
                    <path d="M408.073323,91.8999977 C408.073323,91.8999977 427.631989,104.193331 462.150655,104.193331 C475.523988,104.193331 486.782654,102.145331 491.543988,97.4613309 C496.558654,92.5279977 499.278654,84.2199979 499.278654,76.5799981 C499.278654,70.0333316 496.558654,64.5279984 490.891988,64.5279984 C476.335988,64.5279984 431.001323,87.5879978 408.073323,91.8999977" id="path44" fill="#DB1D2B"></path>
                </g>
            </g>
        </g>
    </g>
</svg>
