<svg width="513px" height="71px" viewBox="0 0 513 71" version="1.1" xmlns="http://www.w3.org/2000/svg" xmlns:xlink="http://www.w3.org/1999/xlink">
    <g id="Page-1" stroke="none" stroke-width="1" fill="none" fill-rule="evenodd">
        <g id="sticker-mule">
            <path d="M102.5,66.1 C95.3,66.1 88.7,65.3 82.9,59.5 L90.4,52 C94.2,55.8 99.1,56.3 102.7,56.3 C106.7,56.3 110.8,55 110.8,51.5 C110.8,49.2 109.6,47.6 105.9,47.3 L98.7,46.6 C90.4,45.8 85.3,42.2 85.3,33.7 C85.3,24.2 93.7,19 103.1,19 C110.3,19 116.3,20.2 120.7,24.4 L113.6,31.6 C110.9,29.2 106.9,28.5 102.9,28.5 C98.3,28.5 96.4,30.6 96.4,32.9 C96.4,34.6 97.1,36.5 101.2,36.9 L108.4,37.6 C117.5,38.5 122.1,43.3 122.1,51.1 C122.1,61.3 113.4,66.1 102.5,66.1 Z" id="Path" fill="#4E2817"></path>
            <path d="M142.1,65.6 C132.7,65.6 128.8,59 128.8,52.4 L128.8,29.6 L123.9,29.6 L123.9,20.9 L128.8,20.9 L128.8,7.3 L140.3,7.3 L140.3,20.9 L148.4,20.9 L148.4,29.6 L140.3,29.6 L140.3,51.7 C140.3,54.3 141.5,55.9 144.3,55.9 L148.5,55.9 L148.5,65.6 L142.1,65.6 Z" id="Path" fill="#4E2817"></path>
            <path d="M153.5,11.7 L153.5,2.3 L165.3,2.3 L165.3,11.7 L153.5,11.7 Z M153.7,65.6 L153.7,19.6 L165.2,19.6 L165.2,65.6 L153.7,65.6 Z" id="Shape" fill="#4E2817" fill-rule="nonzero"></path>
            <path d="M191.1,66.1 C181.9,66.1 170.5,61.2 170.5,42.5 C170.5,23.9 181.9,19 191.1,19 C197.5,19 202.2,20.9 206.3,25.2 L198.5,33 C196.1,30.4 194.1,29.4 191.1,29.4 C188.4,29.4 186.2,30.4 184.6,32.4 C182.8,34.6 182,37.7 182,42.6 C182,47.5 182.8,50.6 184.6,52.9 C186.3,54.9 188.4,55.9 191.1,55.9 C194.1,55.9 196.1,54.8 198.5,52.3 L206.3,60 C202.2,64.1 197.5,66.1 191.1,66.1 Z" id="Path" fill="#4E2817"></path>
            <polygon id="Path" fill="#4E2817" points="238 65.6 226.7 46.4 221.8 51.9 221.8 65.6 210.3 65.6 210.3 2.7 221.8 2.7 221.8 38.4 237.1 19.6 251 19.6 234.6 38.2 252.3 65.7 238 65.7"></polygon>
            <path d="M261.8,46.1 C261.8,52 265.4,56.3 271.9,56.3 C276.9,56.3 279.4,54.9 282.3,52 L289.3,58.8 C284.6,63.5 280.1,66 271.8,66 C260.9,66 250.5,61.1 250.5,42.4 C250.5,27.4 258.6,18.9 270.6,18.9 C283.4,18.9 290.7,28.3 290.7,40.9 L290.7,46 L261.8,46 L261.8,46.1 Z M278.3,33.3 C277.1,30.6 274.5,28.5 270.6,28.5 C266.7,28.5 264.1,30.5 262.9,33.3 C262.2,35 261.9,36.2 261.8,38.2 L279.3,38.2 C279.2,36.2 279,35 278.3,33.3 Z" id="Shape" fill="#4E2817" fill-rule="nonzero"></path>
            <path d="M321.1,32.1 C319.3,30.3 317.8,29.4 315,29.4 C311.5,29.4 307.6,32.1 307.6,37.9 L307.6,65.6 L296.1,65.6 L296.1,19.6 L307.3,19.6 L307.3,24 C309.5,21.3 313.9,19.1 318.9,19.1 C323.4,19.1 326.6,20.2 329.8,23.4 L321.1,32.1 Z" id="Path" fill="#4E2817"></path>
            <path d="M47.5,70.7 C46.8,71 45.9,70.9 45,71 C44.2,71 43.1,71 42.6,70.6 C42.3,70.4 42.3,69.9 42.3,69.6 C42.3,69.3 42.4,68.8 42.4,68.5 C42.5,68.1 42.6,67.5 42.4,67.2 C42.2,66.9 41.5,67 41.1,66.8 C40.7,66.6 40.6,66 40.5,65.4 C40.5,65.2 40.3,65 40.3,64.9 C40.2,64 40.5,62.7 40.7,61.8 C40.9,60.8 41.2,59.9 41.4,58.9 C41.7,57.5 41.7,55.9 41.6,54.4 C41.6,53.6 41.4,53 41.6,52.4 C41.7,51.8 42,51.3 42.1,50.7 C42.1,50.5 42.1,50.3 42.1,50.1 C42.1,49.9 42.2,49.8 42.2,49.6 C42.2,49.2 42.1,48.7 42.1,48.2 C42,46.9 42.1,45 42.2,43.9 C42.2,43.5 42.4,43.1 42.1,42.9 C40.7,42.9 39.5,43.1 38.2,43.3 C34.8,43.7 30.4,43.8 27.1,43.1 C26.8,43 26.5,43 26.2,43 C23.8,42.5 21.7,41.4 20,40.1 C19.7,39.9 19.4,39.7 19.1,39.4 C18.8,39.2 18.5,38.9 18.2,38.7 C16.9,38.1 15.1,38.8 14.5,39.7 C14.3,40 14.1,40.5 13.9,40.9 C13.7,41.3 13.5,41.7 13.4,42.1 C12.5,44.1 11.5,46.1 10.6,48.1 C10.1,49.3 9.5,50.6 9.1,51.9 C8.3,54.7 9,58.4 9.7,61.1 C9.8,61.3 9.9,61.6 10,61.9 C10.2,62.5 10.6,63.4 11.1,63.8 C11.4,64 11.8,64.2 12.1,64.4 C12.5,64.7 12.7,65.3 13,65.9 C13.1,66.1 13.3,66.4 13.4,66.7 C13.7,67.3 13.9,67.8 13.2,68.2 C12.7,68.5 11.9,68.5 11.2,68.6 C10.9,68.7 11,69.1 10.8,69.3 C10.7,69.4 10.2,69.6 10,69.7 C9.1,70 7.5,70 6.8,69.7 C6.4,69.6 6,69.3 5.9,69 C5.7,68.4 6.2,67.7 5.8,67.3 C5.6,67.1 5.2,67.1 4.9,67 C4.4,66.8 4,66.3 3.7,65.8 C3.2,64.4 3.5,62.3 3.4,60.6 C3.4,60.1 3.3,59.6 3.3,59 C3.3,58 3,57 2.9,56 C2.8,55.5 2.7,55.1 2.6,54.7 C2.4,54 2.3,53.2 2.1,52.5 C1.9,51.7 1.9,50.9 2.1,50.3 C2.2,50.1 2.4,49.9 2.5,49.7 C2.7,49.3 2.7,48.9 2.7,48.5 C2.6,48.3 2.1,48.5 2,48.3 C1.7,46.1 1.4,44 1.2,41.7 C1.1,40.9 1.1,40.2 1.1,39.4 C1,37.9 1.1,36.3 0.9,34.8 C0.8,34.1 0.7,33.4 0.6,32.7 C0.3,30.7 -0.2,28.2 0.2,26.1 C0.5,24.8 0.9,23.7 1.7,22.7 C2.2,22 2.8,21.4 3.4,20.7 C4,20.1 4.7,19.5 5.4,19 C5.9,18.7 6.4,18.3 6.9,18 C8,17.5 9.5,17 11.1,16.9 C12.7,16.8 14.5,16.8 16,17.1 C17.5,17.4 19,17.6 20.5,17.9 C21.9,18.2 23.3,18.6 24.7,18.9 C24.9,18.9 25,19.1 25.2,19.1 C25.6,19.2 26.1,19.2 26.6,19.4 C27.9,19.7 29.5,19.9 31.1,19.9 C32.8,19.9 34.3,19.9 35.7,19.5 C35.9,19.4 36.1,19.3 36.3,19.3 C36.5,19.2 36.8,19.2 37,19.2 C37.1,19.2 37.3,19 37.4,18.9 C38.2,18.5 38.9,18.1 39.6,17.6 C40.2,17.2 40.6,16.9 41.4,16.6 C41.7,16.5 42.1,16.3 42.4,16.2 C43.1,16 43.9,15.8 44.4,15.4 C45.3,14.9 45.9,14.1 46.6,13.4 C47.3,12.8 48.1,12.1 48.9,11.5 C50.5,10.2 52.1,9.1 53.6,7.9 C54.4,7.3 55.2,6.7 56.1,6.2 C57.8,5.2 59.6,4.1 62.1,3.9 C63.1,3.8 64.1,3.8 65.1,3.9 C65.4,3.9 65.7,4.1 66,4 C66.3,3.9 66.5,3.5 66.6,3.2 C67,2.5 67.2,2.1 67.6,1.3 C67.8,0.8 67.7,0.3 68.2,0.3 C68.7,0.3 68.6,1.6 68.6,2.1 C68.6,2.7 68.5,3.5 68.6,3.9 C68.7,4.2 69.1,4.6 69.5,4.6 C69.8,4.6 70,4.4 70.2,4.2 C70.5,4 70.7,4 70.9,3.8 C71.3,3.5 71.8,3 72.2,2.6 C72.5,2.3 73.1,1.4 73.6,1.5 C74.6,1.6 73.6,3.1 73.4,3.5 C72.9,4.6 72.4,5.5 71.8,6.5 C71.6,6.9 71,7.5 71,8 C71,8.3 71.3,8.5 71.4,8.9 C71.5,9.1 71.5,9.2 71.6,9.4 C71.9,10.2 72.2,11.3 72.5,12.2 C72.7,13 72.9,13.8 73.2,14.5 C73.5,15.2 73.9,15.9 74.2,16.7 C74.3,16.9 74.3,17.1 74.4,17.3 C75,18.9 75.6,20.7 76.4,22.3 C76.7,22.9 77.1,23.7 77.1,24.6 C77.1,25.6 76.6,26.1 76.1,26.9 C75.9,27.3 75.5,27.9 75.1,28 C74.8,28.1 74.5,28 74.2,28 C73.8,28.1 73.5,28.3 73.2,28.3 C72.3,28.4 71.4,27.7 71.2,27 C71.1,26.8 71.2,26.5 71.1,26.2 C70.9,25.1 70.3,24.6 69.6,23.8 C69.1,23.3 68.7,23 68.1,22.7 C67.2,22.2 66.3,22 65.3,21.5 C65,21.3 64.5,21.1 64.2,21.2 C63.7,21.3 63.2,22.1 62.8,22.6 C60.4,25.8 58.2,29.1 55.9,32.2 C54.3,34.3 52.7,36.4 51.4,38.7 C51.1,39.3 50.9,40 50.6,40.7 C50.4,41.4 50.2,42.1 50,42.9 C49.1,45.5 48.8,48.7 48,51.4 C47.9,51.7 47.9,52 47.8,52.3 C47.4,53.7 47,55.3 46.6,56.8 C46.3,57.9 46.2,59.4 46.1,60.8 C46.1,62.2 46,64.1 46.5,64.9 C46.8,65.4 47.7,65.5 48,66 C48.2,66.3 48.4,67 48.7,67.4 C48.9,67.7 49.4,68.3 49.3,68.8 C49.3,69.1 49,69.4 48.7,69.5 C48.4,69.6 48,69.6 47.7,69.7 C47.7,70.1 47.8,70.5 47.5,70.7 Z" id="Path" fill="#4E2817"></path>
            <path d="M381.4,19 C375.7,19 371.5,20.8 367.6,24.8 C364.7,20.8 360.5,19 355.4,19 C351.2,19 346.9,20.7 343.9,23.8 L343.9,19.6 L332.7,19.6 L332.7,65.6 L344.2,65.6 L344.2,37.8 C344.2,31.5 348.3,29.4 351.9,29.4 C355.5,29.4 359.5,31.5 359.5,37.8 L359.5,65.6 L371,65.6 L371,37.5 C371,31.5 375.2,29.4 378.7,29.4 C382.3,29.4 386.3,31.5 386.3,37.8 L386.3,65.6 L397.8,65.6 L397.8,36.2 C397.8,31.2 396.5,26.8 392.8,23.1 C390.1,20.5 386,19 381.4,19 Z" id="Path" fill="#F26922"></path>
            <path d="M431.3,47.4 C431.3,53.7 427.2,55.8 423.6,55.8 C420,55.8 416,53.7 416,47.4 L416,19.5 L404.5,19.5 L404.5,49 C404.5,54 405.5,58.4 409.2,62.1 C411.8,64.7 415.5,66.2 420.1,66.2 C424.3,66.2 428.6,64.6 431.6,61.4 L431.6,65.6 L442.8,65.6 L442.8,19.6 L431.3,19.6 L431.3,47.4 Z" id="Path" fill="#F26922"></path>
            <path d="M461.6,51.7 L461.6,2.7 L450.1,2.7 L450.1,52.4 C450.1,58.9 454.1,65.6 463.5,65.6 L470,65.6 L470,55.9 L465.6,55.9 C462.7,55.9 461.6,54.5 461.6,51.7 Z" id="Path" fill="#F26922"></path>
            <path d="M512.2,41 C512.2,28.4 505,19 492.1,19 C480.2,19 472,27.5 472,42.5 C472,61.1 482.4,66.1 493.3,66.1 C501.6,66.1 506.1,63.5 510.8,58.9 L503.8,52.1 C500.9,55 498.4,56.4 493.4,56.4 C486.9,56.4 483.3,52.1 483.3,46.2 L512.1,46.2 L512.1,41 L512.2,41 Z M483.4,38.3 C483.5,36.3 483.8,35 484.5,33.4 C485.7,30.7 488.3,28.6 492.2,28.6 C496.1,28.6 498.6,30.6 499.9,33.4 C500.6,35.1 500.9,36.3 501,38.3 L483.4,38.3 Z" id="Shape" fill="#F26922" fill-rule="nonzero"></path>
        </g>
    </g>
</svg>
