<?xml version="1.0" encoding="UTF-8" standalone="no"?>
<!DOCTYPE svg PUBLIC "-//W3C//DTD SVG 1.1//EN" "http://www.w3.org/Graphics/SVG/1.1/DTD/svg11.dtd">
<svg xmlns="http://www.w3.org/2000/svg" xmlns:xl="http://www.w3.org/1999/xlink" version="1.1" preserveAspectRatio="xMinYMin" viewBox="15 30 105 60" width="105pt" height="5pc" xmlns:dc="http://purl.org/dc/elements/1.1/">
  <metadata> Produced by OmniGraffle 7.5 
    <dc:date>2018-01-16 01:14:47 +0000</dc:date>
  </metadata>
  <defs/>
  <g>
    <title>Canvas 1</title>
    <g>
      <title>Layer 1</title>
      <path d="M 81.806265 75.58324 C 76.590265 75.58324 71.974265 71.07524 71.974265 65.160576 C 71.974265 59.728576 76.646265 55.11524 81.750265 55.11524 C 87.2356 55.11524 91.79426 59.456576 91.79426 65.53791 C 91.79426 71.23924 87.18093 75.58324 81.806265 75.58324 M 81.96893 50.120576 C 78.27693 50.120576 74.910265 51.52991 72.1956 54.34991 L 72.1956 54.34191 C 72.1956 54.292576 72.194265 54.24191 72.1916 54.192576 L 72.1916 54.164576 L 72.190265 54.164576 C 72.098265 52.780576 70.9476 51.68191 69.53693 51.68191 C 68.1276 51.68191 66.9756 52.780576 66.88493 54.164576 L 66.8716 54.164576 L 66.8716 89.38191 L 72.1396 89.38191 L 72.1396 76.39791 C 74.962265 79.27658 78.330265 80.68858 82.29293 80.68858 C 86.6916 80.68858 90.11426 79.27658 93.0436 76.18324 C 95.7596 73.35791 97.2796 69.55524 97.2796 65.484576 C 97.2796 56.74324 90.8196 50.120576 81.96893 50.120576" fill="#001641"/>
      <path d="M 49.37493 75.57418 C 44.160266 75.57418 39.5456 71.06484 39.5456 65.14884 C 39.5456 59.718176 44.21493 55.10351 49.31893 55.10351 C 54.8056 55.10351 59.3656 59.446176 59.3656 65.52884 C 59.3656 71.23018 54.748266 75.57418 49.37493 75.57418 M 49.5376 50.10751 C 45.844266 50.10751 42.4816 51.518176 39.766933 54.33951 L 39.766933 54.33151 C 39.766933 54.28484 39.7656 54.23684 39.762933 54.190176 L 39.762933 54.15284 L 39.7616 54.15284 C 39.668266 52.76884 38.516266 51.67151 37.1056 51.67151 C 35.6976 51.67151 34.544266 52.76884 34.452266 54.15284 L 34.440266 54.15284 L 34.440266 89.37151 L 39.706933 89.37151 L 39.706933 76.38884 C 42.532266 79.26751 45.8976 80.67951 49.86293 80.67951 C 54.26293 80.67951 57.6816 79.26751 60.616266 76.17284 C 63.332265 73.34884 64.85093 69.54618 64.85093 65.474176 C 64.85093 56.73284 58.3896 50.10751 49.5376 50.10751" fill="#001641"/>
      <path d="M 25.44 70.46511 L 25.44 56.807776 L 29.442666 56.803776 L 29.442666 56.80244 L 29.464 56.80244 C 30.917333 56.80244 32.092 55.62644 32.092 54.175776 C 32.092 52.72511 30.917333 51.54911 29.464 51.54911 L 29.442666 51.54911 L 25.44 51.55311 L 25.44 46.526443 L 25.438666 46.526443 C 25.413333 44.966443 24.144 43.707777 22.577333 43.707777 C 21.012 43.707777 19.742667 44.966443 19.72 46.526443 L 19.705333 46.526443 L 19.705333 51.55311 L 17.753333 51.55311 C 17.710667 51.54911 17.666667 51.54911 17.624 51.54911 C 16.176 51.54911 15 52.72511 15 54.175776 C 15 55.62644 16.176 56.80111 17.624 56.80111 L 17.656 56.80111 L 17.656 56.807776 L 19.705333 56.807776 L 19.705333 70.57844 L 19.709333 70.57844 L 19.709333 70.64778 C 19.709333 77.27178 24.626666 80.64911 31.98 80.64911 L 31.98 75.28644 L 31.497333 75.28644 C 28.1 75.28644 25.578666 73.91844 25.44 70.46511" fill="#001641"/>
      <path d="M 100.31453 44.622577 C 100.31453 44.622577 100.8052 45.66391 101.3052 50.437243 C 101.3052 50.437243 99.36653 57.22124 98.7772 62.478576 C 98.7772 62.478576 98.53586 57.10124 94.19853 52.846576 C 94.19853 52.846576 98.59053 48.469243 100.31453 44.622577" fill="#39607a"/>
      <path d="M 89.51386 32.488577 C 89.51386 32.488577 100.97653 34.768577 102.15653 47.720577 C 102.15653 47.720577 104.7432 40.184577 110.32053 35.471243 C 110.32053 35.471243 102.8232 25.736577 89.51386 32.488577" fill="#39607a"/>
      <path d="M 107.86026 31.756044 C 107.86026 31.756044 109.99226 32.789377 111.3256 34.480044 C 111.3256 34.480044 115.1096 32.133377 119.34693 32.525377 C 119.34693 32.525377 113.9056 27.397377 107.86026 31.756044" fill="#39607a"/>
    </g>
  </g>
</svg>
