<svg xmlns="http://www.w3.org/2000/svg" preserveAspectRatio="xMinYMin" viewBox="15 30 105 60" width="114pt">
  <path d="M81.806265 75.58324c-5.216 0-9.832-4.508-9.832-10.422664 0-5.432 4.672-10.045336 9.776-10.045336 5.485335 0 10.043995 4.341336 10.043995 10.42267 0 5.70133-4.61333 10.04533-9.987995 10.04533m.162665-25.462664c-3.692 0-7.058665 1.409334-9.77333 4.229334v-.008c0-.049334-.001335-.1-.004-.149334v-.028h-.001335c-.092-1.384-1.242665-2.482666-2.653335-2.482666-1.40933 0-2.56133 1.098666-2.652 2.482666h-.01333V89.38191h5.268v-12.984c2.822665 2.87867 6.190665 4.29067 10.15333 4.29067 4.39867 0 7.82133-1.412 10.75067-4.50534 2.716-2.82533 4.236-6.628 4.236-10.698664 0-8.741336-6.46-15.364-15.31067-15.364M49.37493 75.57418c-5.214664 0-9.82933-4.50934-9.82933-10.42534 0-5.430664 4.66933-10.04533 9.77333-10.04533 5.48667 0 10.04667 4.342666 10.04667 10.42533 0 5.70134-4.617334 10.04534-9.99067 10.04534m.16267-25.46667c-3.693334 0-7.056 1.410666-9.770667 4.232v-.008c0-.04667-.001333-.09467-.004-.141334v-.037336H39.7616c-.093334-1.384-1.245334-2.48133-2.656-2.48133-1.408 0-2.561334 1.09733-2.653334 2.48133h-.012v35.21867h5.266667V76.38884c2.825333 2.87867 6.190667 4.29067 10.155997 4.29067 4.4 0 7.81867-1.412 10.753336-4.50667 2.715999-2.824 4.234664-6.62666 4.234664-10.698664 0-8.741336-6.46133-15.366666-15.31333-15.366666M25.44 70.46511V56.807776l4.002666-.004v-.001336H29.464c1.453333 0 2.628-1.176 2.628-2.626664 0-1.450666-1.174667-2.626666-2.628-2.626666h-.021334l-4.002666.004v-5.026667h-.001334c-.025333-1.56-1.294666-2.818666-2.861333-2.818666-1.565333 0-2.834666 1.258666-2.857333 2.818666h-.014667v5.026667h-1.952c-.042666-.004-.086666-.004-.129333-.004-1.448 0-2.624 1.176-2.624 2.626666 0 1.450664 1.176 2.625334 2.624 2.625334h.032v.006666h2.049333V70.57844h.004v.06934c0 6.624 4.917333 10.00133 12.270667 10.00133v-5.36267h-.482667c-3.397333 0-5.918667-1.368-6.057333-4.82133" fill="#001641"/>
  <path d="M100.31453 44.622577s.49067 1.041333.99067 5.814666c0 0-1.93867 6.783997-2.528 12.041333 0 0-.24134-5.377336-4.57867-9.632 0 0 4.392-4.377333 6.116-8.223999" fill="#39607a"/>
  <path d="M89.51386 32.488577s11.46267 2.28 12.64267 15.232c0 0 2.58667-7.536 8.164-12.249334 0 0-7.49733-9.734666-20.80667-2.982666M107.86026 31.756044s2.132 1.033333 3.46534 2.724c0 0 3.784-2.346667 8.02133-1.954667 0 0-5.44133-5.128-11.48667-.769333" fill="#39607a"/>
</svg>