<svg width="235px" height="40px" viewBox="0 0 235 40" version="1.1" xmlns="http://www.w3.org/2000/svg" xmlns:xlink="http://www.w3.org/1999/xlink">
    <g id="Page-1" stroke="none" stroke-width="1" fill="none" fill-rule="evenodd">
        <g id="tw_horizontal_blue_navy_rgb" transform="translate(-1.000000, 0.000000)">
            <g id="Layer_1" fill="#00B9FF">
                <polygon id="Path" points="4.8 0.36 9.97 9.03 0.92 17.69 16.56 17.69 18.04 14.22 9.4 14.22 14.63 9.01 11.57 3.83 25.81 3.83 13.31 33.43 17.6 33.43 31.57 0.36"></polygon>
            </g>
            <g id="Layer_2" transform="translate(31.000000, 13.000000)" fill="#37517E">
                <rect id="Rectangle" x="163.73" y="7.64" width="3.57" height="18.93"></rect>
                <rect id="Rectangle" x="163.57" y="1.24" width="3.89" height="3.84"></rect>
                <polygon id="Path" points="157.62 1.24 153.18 20.92 153.02 20.92 148.42 7.64 145.23 7.64 139.98 20.92 139.82 20.92 136.3 1.24 132.46 1.24 137.27 26.57 140.84 26.57 146.53 12.55 146.69 12.55 151.61 26.57 155.18 26.57 161.29 1.24"></polygon>
                <path d="M108,23.8 C104.54,23.8 102.16,21.08 102.16,17.13 C102.16,13.45 104.22,10.3 107.57,10.3 C111.41,10.3 112.44,13.5 112.57,15.47 L105.93,15.47 L104.69,18.35 L116.2,18.35 C116.25,17.6 116.25,17.35 116.25,17.02 C116.25,11.58 113.49,7.26 107.54,7.26 C102.4,7.26 98.45,11.42 98.45,17.13 C98.45,23 102.24,26.89 107.64,26.89 C110.605007,27.0173715 113.47471,25.8277623 115.48,23.64 L113.32,21.56 C111.935195,23.0017802 110.01907,23.8116145 108.02,23.8" id="Path"></path>
                <path d="M93.84,7.27 C93.84,4.92 94.98,3.59 97.14,3.59 C98.210808,3.6237616 99.26997,3.82277612 100.28,4.18 L101.41,1.57 C100.040723,0.920297534 98.5455704,0.578938571 97.03,0.57 C93.4,0.57 90.27,2.38 90.27,7.24 L90.27,7.83 L87.89,7.83 L87.89,10.83 L90.27,10.83 L90.27,26.56 L93.84,26.56 L93.84,10.84 L97.46,10.84 L98.7,7.84 L93.83,7.84 L93.84,7.27 Z" id="Path"></path>
                <path d="M61.65,7.27 C59.4132157,7.1001217 57.2569432,8.142002 56,10 L55.84,10 L55.84,7.6 L52.4,7.6 L52.4,26.53 L56,26.53 L56,16.33 C56,12.6 57.89,10.33 60.87,10.33 C63.68,10.33 65.36,11.82 65.36,15.33 L65.36,26.58 L68.93,26.58 L68.93,14.68 C68.93,9.88 66.12,7.27 61.68,7.27" id="Path"></path>
                <path d="M44.72,19.27 C44.72,22.1 42.39,23.91 39.15,23.91 C37.2,23.91 35.53,23 35.53,20.76 C35.53,18.68 37.26,17.29 39.91,17.29 C42.29,17.29 43.86,17.72 44.72,18.36 L44.72,19.27 Z M39.72,7.27 C37.8041642,7.23631263 35.8976671,7.54446759 34.09,8.18 L34.68,11.06 C36.1454444,10.5767337 37.6769883,10.3237254 39.22,10.31 C42.22,10.31 44.74,11.7 44.74,14.79 L44.74,15.32 C43.2383907,14.7395401 41.6397841,14.4510442 40.03,14.47 C35.16,14.47 31.97,16.92 31.97,20.92 C31.97,25.08 35.11,26.92 38.62,26.92 C40.9145824,27.0768966 43.145452,26.125059 44.62,24.36 L44.78,24.36 L44.78,26.55 L48.24,26.55 L48.24,14.73 C48.24,9.56 44.89,7.26 39.75,7.26 L39.72,7.27 Z" id="Shape" fill-rule="nonzero"></path>
                <polygon id="Path" points="0.57 1.24 0.57 4.65 8.58 4.65 8.58 26.57 12.37 26.57 12.37 4.65 20.37 4.65 20.37 1.24"></polygon>
                <path d="M32.11,8 C31.1272706,7.62580748 30.0812812,7.44581579 29.03,7.47 C27.1032122,7.3856905 25.2497281,8.21605136 24.03,9.71 L23.87,9.71 L23.87,7.64 L20.41,7.64 L20.41,26.57 L24,26.57 L24,16.23 C24,12.23 25.95,10.63 28.81,10.63 C29.6505891,10.6246118 30.4880883,10.7322422 31.3,10.95 L32.11,8 Z" id="Path"></path>
                <path d="M131.49,8.07 C130.509674,7.68104067 129.464669,7.48086111 128.41,7.48 C126.430259,7.40331151 124.522192,8.22683184 123.22,9.72 L123,9.72 L123,7.64 L119.54,7.64 L119.54,26.57 L123.11,26.57 L123.11,16.23 C123.11,12.23 125.27,10.63 128.11,10.63 C128.950633,10.6238806 129.78823,10.7315236 130.6,10.95 L131.49,8.07 Z" id="Path"></path>
                <path d="M196.55,23.8 C193.09,23.8 190.71,21.08 190.71,17.13 C190.71,13.45 192.77,10.3 196.12,10.3 C199.96,10.3 200.99,13.5 201.12,15.47 L194.48,15.47 L193.24,18.35 L204.75,18.35 C204.8,17.6 204.8,17.35 204.8,17.02 C204.8,11.58 202.04,7.26 196.09,7.26 C190.95,7.26 187,11.42 187,17.13 C187,23 190.79,26.89 196.2,26.89 C199.165007,27.0173715 202.03471,25.8277623 204.04,23.64 L201.88,21.56 C200.495195,23.0017802 198.57907,23.8116145 196.58,23.8" id="Path"></path>
                <path d="M79.83,15.64 C77.07,15.27 75.45,14.73 75.45,12.92 C75.45,11.27 77.07,10.25 79.08,10.25 C80.8668823,10.285244 82.6046174,10.8413192 84.08,11.85 L85.81,9.29 C83.8696795,7.91817024 81.5351405,7.21605324 79.16,7.29 C74.99,7.29 71.91,9.8 71.91,13.1 C71.91,16.89 74.35,18.1 78.46,18.75 C80.79,19.12 82.79,19.39 82.79,21.36 C82.79,23.01 81.17,23.92 79,23.92 C76.8793681,23.9566584 74.8129475,23.2489801 73.16,21.92 L71.59,24.75 C72.94,25.98 75.76,26.94 78.89,26.94 C83.22,26.94 86.36,24.43 86.36,21.07 C86.36,17.02 83.11,16.07 79.87,15.68" id="Path"></path>
                <path d="M178.61,15.65 C175.85,15.28 174.23,14.74 174.23,12.93 C174.23,11.28 175.85,10.26 177.86,10.26 C179.646882,10.295244 181.384617,10.8513192 182.86,11.86 L184.59,9.3 C182.64968,7.92817024 180.31514,7.22605324 177.94,7.3 C173.78,7.3 170.69,9.81 170.69,13.11 C170.69,16.9 173.12,18.11 177.23,18.76 C179.56,19.13 181.56,19.4 181.56,21.37 C181.56,23.02 179.94,23.93 177.77,23.93 C175.649234,23.9675081 173.582532,23.2597335 171.93,21.93 L170.36,24.76 C171.71,25.99 174.52,26.95 177.66,26.95 C181.99,26.95 185.12,24.44 185.12,21.08 C185.12,17.03 181.87,16.08 178.63,15.69" id="Path"></path>
            </g>
        </g>
    </g>
</svg>
