<?xml version="1.0" encoding="UTF-8" standalone="no"?>
<!-- Created with Inkscape (http://www.inkscape.org/) -->

<svg
   xmlns:dc="http://purl.org/dc/elements/1.1/"
   xmlns:cc="http://creativecommons.org/ns#"
   xmlns:rdf="http://www.w3.org/1999/02/22-rdf-syntax-ns#"
   xmlns:svg="http://www.w3.org/2000/svg"
   xmlns="http://www.w3.org/2000/svg"
   xmlns:sodipodi="http://sodipodi.sourceforge.net/DTD/sodipodi-0.dtd"
   xmlns:inkscape="http://www.inkscape.org/namespaces/inkscape"
   width="209.62328mm"
   height="74.173935mm"
   viewBox="0 0 209.62328 74.173935"
   version="1.1"
   id="svg3973"
   inkscape:version="0.92.3 (2405546, 2018-03-11)"
   sodipodi:docname="wolfram.svg">
  <defs
     id="defs3967">
    <clipPath
       clipPathUnits="userSpaceOnUse"
       id="clipPath3729">
      <path
         d="M 0,261.168 H 719.827 V 0 H 0 Z"
         id="path3727"
         inkscape:connector-curvature="0" />
    </clipPath>
  </defs>
  <sodipodi:namedview
     id="base"
     pagecolor="#ffffff"
     bordercolor="#666666"
     borderopacity="1.0"
     inkscape:pageopacity="0.0"
     inkscape:pageshadow="2"
     inkscape:zoom="0.98994949"
     inkscape:cx="573.37107"
     inkscape:cy="257.17852"
     inkscape:document-units="mm"
     inkscape:current-layer="layer1"
     showgrid="false"
     inkscape:window-width="1920"
     inkscape:window-height="1057"
     inkscape:window-x="-8"
     inkscape:window-y="-8"
     inkscape:window-maximized="1" />
  <metadata
     id="metadata3970">
    <rdf:RDF>
      <cc:Work
         rdf:about="">
        <dc:format>image/svg+xml</dc:format>
        <dc:type
           rdf:resource="http://purl.org/dc/dcmitype/StillImage" />
        <dc:title></dc:title>
      </cc:Work>
    </rdf:RDF>
  </metadata>
  <g
     inkscape:label="Layer 1"
     inkscape:groupmode="layer"
     id="layer1"
     transform="translate(8.1601002e-8,-222.82607)">
    <g
       transform="matrix(0.29531601,0,0,-0.29531601,-1.4765506,298.47652)"
       clip-path="url(#clipPath3729)"
       id="g3725">
      <g
         transform="translate(148.2504,159.8121)"
         id="g3731">
        <path
           inkscape:connector-curvature="0"
           id="path3733"
           style="fill:#000222;fill-opacity:1;fill-rule:evenodd;stroke:none"
           d="m 0,0 c -4.809,4.834 -14.452,10.939 -14.452,10.939 0,0 -1.919,11.237 -3.215,15.399 C -8.995,34.71 -7.7,35.981 0.648,44.004 1.296,27.957 0.972,19.61 0,0" />
      </g>
      <g
         transform="translate(155.003,126.0987)"
         id="g3735">
        <path
           inkscape:connector-curvature="0"
           id="path3737"
           style="fill:#000222;fill-opacity:1;fill-rule:evenodd;stroke:none"
           d="M 0,0 C -5.781,-1.595 -6.429,-1.919 -12.21,-3.538 -18.314,0 -23.771,1.919 -28.904,1.296 c 0.648,3.189 1.594,5.457 2.566,8.347 C -15.424,11.238 -7.401,5.457 0,0" />
      </g>
      <g
         transform="translate(243.6342,130.5838)"
         id="g3739">
        <path
           inkscape:connector-curvature="0"
           id="path3741"
           style="fill:#000222;fill-opacity:1;fill-rule:evenodd;stroke:none"
           d="m 0,0 c 0,-29.976 -11.91,-58.73 -33.09,-79.935 -6.08,-6.08 -12.758,-11.387 -19.934,-15.872 0,0 -0.025,-0.025 -0.05,-0.025 l -38.772,48.314 32.119,-3.538 c 0,0 15.424,-1.595 18.937,0 3.215,1.271 20.557,25.69 20.557,25.69 0,0 -49.785,31.471 -66.804,48.813 1.944,29.229 -2.242,68.1 -2.242,67.776 -12.534,-12.509 -14.128,-14.452 -26.662,-26.014 -5.457,17.666 -8.023,23.771 -13.48,41.438 -16.396,-13.481 -28.904,-36.305 -37.9,-62.967 -1.968,-2.167 -3.862,-4.46 -5.73,-6.902 -1.221,-1.619 -2.443,-3.264 -3.614,-4.958 -2.417,-3.439 -4.734,-7.052 -6.951,-10.839 -1.57,-2.667 -3.115,-5.408 -4.61,-8.198 -10.441,-19.61 -19.012,-42.086 -26.438,-62.319 -0.05,0.075 -0.099,0.175 -0.124,0.249 -7.376,15.225 -11.313,32.044 -11.313,49.287 0,30.001 11.911,58.755 33.116,79.96 21.204,21.205 49.959,33.115 79.935,33.115 30,0 58.755,-11.91 79.96,-33.115 C -11.91,58.755 0,30.001 0,0" />
      </g>
      <g
         transform="translate(148.2504,159.8121)"
         id="g3743">
        <path
           inkscape:connector-curvature="0"
           id="path3745"
           style="fill:#dd1100;fill-opacity:1;fill-rule:evenodd;stroke:none"
           d="m 0,0 c -4.809,4.834 -14.452,10.939 -14.452,10.939 0,0 -1.919,11.237 -3.215,15.399 C -8.995,34.71 -7.7,35.981 0.648,44.004 1.296,27.957 0.972,19.61 0,0" />
      </g>
      <g
         transform="translate(155.003,126.0987)"
         id="g3747">
        <path
           inkscape:connector-curvature="0"
           id="path3749"
           style="fill:#dd1100;fill-opacity:1;fill-rule:evenodd;stroke:none"
           d="M 0,0 C -5.781,-1.595 -6.429,-1.919 -12.21,-3.538 -18.314,0 -23.771,1.919 -28.904,1.296 c 0.648,3.189 1.594,5.457 2.566,8.347 C -15.424,11.238 -7.401,5.457 0,0" />
      </g>
      <g
         transform="translate(243.6342,130.5838)"
         id="g3751">
        <path
           inkscape:connector-curvature="0"
           id="path3753"
           style="fill:#dd1100;fill-opacity:1;fill-rule:evenodd;stroke:none"
           d="m 0,0 c 0,-29.976 -11.91,-58.73 -33.09,-79.935 -6.08,-6.08 -12.758,-11.387 -19.934,-15.872 0,0 -0.025,-0.025 -0.05,-0.025 l -38.772,48.314 32.119,-3.538 c 0,0 15.424,-1.595 18.937,0 3.215,1.271 20.557,25.69 20.557,25.69 0,0 -49.785,31.471 -66.804,48.813 1.944,29.229 -2.242,68.1 -2.242,67.776 -12.534,-12.509 -14.128,-14.452 -26.662,-26.014 -5.457,17.666 -8.023,23.771 -13.48,41.438 -16.396,-13.481 -28.904,-36.305 -37.9,-62.967 -1.968,-2.167 -3.862,-4.46 -5.73,-6.902 -1.221,-1.619 -2.443,-3.264 -3.614,-4.958 -2.417,-3.439 -4.734,-7.052 -6.951,-10.839 -1.57,-2.667 -3.115,-5.408 -4.61,-8.198 -10.441,-19.61 -19.012,-42.086 -26.438,-62.319 -0.05,0.075 -0.099,0.175 -0.124,0.249 -7.376,15.225 -11.313,32.044 -11.313,49.287 0,30.001 11.911,58.755 33.116,79.96 21.204,21.205 49.959,33.115 79.935,33.115 30,0 58.755,-11.91 79.96,-33.115 C -11.91,58.755 0,30.001 0,0" />
      </g>
      <g
         transform="translate(148.2504,159.8121)"
         id="g3755">
        <path
           inkscape:connector-curvature="0"
           id="path3757"
           style="fill:#ffffff;fill-opacity:1;fill-rule:evenodd;stroke:none"
           d="m 0,0 c -4.809,4.834 -14.452,10.939 -14.452,10.939 0,0 -1.919,11.237 -3.215,15.399 C -8.995,34.71 -7.7,35.981 0.648,44.004 1.296,27.957 0.972,19.61 0,0" />
      </g>
      <g
         transform="translate(155.003,126.0987)"
         id="g3759">
        <path
           inkscape:connector-curvature="0"
           id="path3761"
           style="fill:#ffffff;fill-opacity:1;fill-rule:evenodd;stroke:none"
           d="M 0,0 C -5.781,-1.595 -6.429,-1.919 -12.21,-3.538 -18.314,0 -23.771,1.919 -28.904,1.296 c 0.648,3.189 1.594,5.457 2.566,8.347 C -15.424,11.238 -7.401,5.457 0,0" />
      </g>
      <g
         transform="translate(155.003,126.0987)"
         id="g3763">
        <path
           inkscape:connector-curvature="0"
           id="path3765"
           style="fill:#000000;fill-opacity:1;fill-rule:evenodd;stroke:none"
           d="M 0,0 C -5.781,-1.595 -6.429,-1.919 -12.21,-3.538 -18.314,0 -23.771,1.919 -28.904,1.296 c 0.648,3.189 1.594,5.457 2.566,8.347 C -15.424,11.238 -7.401,5.457 0,0" />
      </g>
      <g
         transform="translate(151.7886,83.0662)"
         id="g3767">
        <path
           inkscape:connector-curvature="0"
           id="path3769"
           style="fill:#000222;fill-opacity:1;fill-rule:evenodd;stroke:none"
           d="m 0,0 38.772,-48.315 c 0.024,0 0.049,0.025 0.049,0.025 z m -122.943,-1.769 c 0.025,-0.075 0.075,-0.174 0.125,-0.249 7.425,20.233 15.997,42.708 26.437,62.318 -10.515,-19.535 -19.161,-41.936 -26.562,-62.069" />
      </g>
      <g
         transform="translate(210.5439,50.6488)"
         id="g3771">
        <path
           inkscape:connector-curvature="0"
           id="path3773"
           style="fill:#000000;fill-opacity:1;fill-rule:evenodd;stroke:none"
           d="m 0,0 c -6.08,-6.08 -12.758,-11.387 -19.934,-15.872 0,0 -0.025,-0.025 -0.05,-0.025 l -38.771,48.314 32.118,-3.538 c 0,0 15.424,-1.595 18.937,0 3.215,1.271 20.557,25.69 20.557,25.69 0,0 -49.785,31.471 -66.803,48.813 1.943,29.229 -2.243,68.1 -2.243,67.776 -12.533,-12.509 -14.128,-14.452 -26.661,-26.014 -5.457,17.666 -8.024,23.771 -13.481,41.438 -16.395,-13.481 -28.904,-36.305 -37.899,-62.967 -1.969,-2.167 -3.862,-4.46 -5.731,-6.902 -1.221,-1.619 -2.442,-3.264 -3.613,-4.958 -2.417,-3.439 -4.735,-7.052 -6.952,-10.839 -1.57,-2.667 -3.115,-5.408 -4.61,-8.198 -0.648,-1.221 -1.296,-2.467 -1.943,-3.713 -9.569,-18.688 -17.542,-39.644 -24.494,-58.606 -0.05,0.075 -0.1,0.175 -0.125,0.249 -7.376,15.225 -11.313,32.044 -11.313,49.287 0,30.001 11.911,58.755 33.116,79.96 21.205,21.205 49.959,33.115 79.935,33.115 30.001,0 58.755,-11.91 79.96,-33.115 C 21.18,138.69 33.09,109.936 33.09,79.935 33.09,49.959 21.18,21.205 0,0 m -79.96,135.501 c 8.671,8.372 9.967,9.643 18.314,17.666 0.648,-16.046 0.324,-24.394 -0.648,-44.004 -4.809,4.834 -14.452,10.939 -14.452,10.939 0,0 -1.918,11.238 -3.214,15.399 m 40.142,-161.864 c -69.271,-25.042 -119.33,21.056 -130.019,37.177 0.05,0.15 0.074,0.274 0.099,0.424 9.619,40.665 21.479,89.329 40.641,103.706 9.967,17.368 12.857,43.057 30.823,56.538 4.51,-13.481 11.586,-41.438 16.395,-54.918 21.205,-21.205 53.324,-47.543 74.827,-58.457 2.243,-1.295 5.133,-10.29 5.133,-10.29 l -8.671,-10.914 -92.493,9.319 c -2.069,0.174 -4.137,0.249 -6.205,0.249 -5.93,0 -12.01,-0.673 -19.161,-1.844 4.485,11.238 14.128,20.233 14.128,20.233 0,0 -8.995,5.457 -15.748,6.404 1.944,4.51 7.077,10.291 8.372,11.885 -2.591,-0.946 -21.204,-9.294 -23.148,-16.37 8.995,-2.243 15.424,-5.133 15.424,-5.133 0,0 -9.942,-9.967 -11.886,-27.31 0,0 29.552,4.51 51.729,1.62 0.623,-0.324 0.947,-0.324 1.271,-0.324 l 11.561,-0.324 36.729,-61.147 0.299,-0.474 c -0.05,-0.025 -0.075,-0.05 -0.1,-0.05 M 8.846,168.741 c -23.547,23.547 -55.492,36.778 -88.806,36.778 -33.29,0 -65.234,-13.231 -88.806,-36.778 -23.547,-23.547 -36.778,-55.491 -36.778,-88.806 0,-33.29 13.231,-65.234 36.778,-88.781 23.572,-23.572 55.516,-36.803 88.806,-36.803 33.314,0 65.259,13.231 88.806,36.803 23.547,23.547 36.778,55.491 36.778,88.781 0,33.315 -13.231,65.259 -36.778,88.806" />
      </g>
      <g
         transform="translate(128.6653,135.7417)"
         id="g3775">
        <path
           inkscape:connector-curvature="0"
           id="path3777"
           style="fill:#ffffff;fill-opacity:1;fill-rule:evenodd;stroke:none"
           d="m 0,0 c 10.914,1.595 18.937,-4.186 26.338,-9.643 -5.781,-1.595 -6.429,-1.919 -12.21,-3.538 C 8.023,-9.643 2.566,-7.724 -2.567,-8.347 -1.919,-5.158 -0.972,-2.89 0,0 m -46.571,-40.466 c 7.152,1.171 13.231,1.844 19.162,1.844 2.068,0 4.136,-0.075 6.204,-0.249 l 92.494,-9.319 8.671,10.914 c 0,0 -2.89,8.995 -5.133,10.291 C 53.323,-16.072 21.205,10.266 0,31.471 -4.809,44.951 -11.886,72.908 -16.396,86.389 -34.361,72.908 -37.252,47.219 -47.219,29.851 -66.38,15.474 -78.241,-33.19 -87.859,-73.855 c -0.025,-0.15 -0.05,-0.274 -0.1,-0.424 10.69,-16.121 60.749,-62.219 130.02,-37.177 0.024,0 0.049,0.025 0.099,0.05 l -0.299,0.474 -36.728,61.147 -11.562,0.324 c -0.324,0 -0.648,0 -1.271,0.324 -22.176,2.89 -51.728,-1.62 -51.728,-1.62 1.943,17.343 11.885,27.31 11.885,27.31 0,0 -6.428,2.89 -15.423,5.133 1.943,7.076 20.556,15.424 23.148,16.371 -1.296,-1.595 -6.429,-7.376 -8.372,-11.886 6.752,-0.947 15.747,-6.404 15.747,-6.404 0,0 -9.643,-8.995 -14.128,-20.233" />
      </g>
      <g
         transform="translate(317.0587,234.8087)"
         id="g3779">
        <path
           inkscape:connector-curvature="0"
           id="path3781"
           style="fill:#000000;fill-opacity:1;fill-rule:nonzero;stroke:none"
           d="M 0,0 H 14.591 L 27.827,-61.596 38.04,0 H 50.443 L 35.748,-79.104 H 21.47 L 7.295,-13.966 -6.879,-79.104 H -21.157 L -35.854,0 h 12.403 l 10.215,-61.596 z" />
      </g>
      <g
         transform="translate(370.5201,182.6974)"
         id="g3783">
        <path
           inkscape:connector-curvature="0"
           id="path3785"
           style="fill:#000000;fill-opacity:1;fill-rule:nonzero;stroke:none"
           d="M 0,0 C 0,16.05 4.586,27.306 23.139,27.306 41.689,27.306 46.274,16.05 46.274,0 46.274,-16.051 41.689,-27.306 23.139,-27.306 4.586,-27.306 0,-16.051 0,0 m 34.498,0 c 0,11.151 -1.459,17.509 -11.359,17.509 -9.903,0 -11.363,-6.358 -11.363,-17.509 0,-11.152 1.46,-17.51 11.363,-17.51 9.9,0 11.359,6.358 11.359,17.51" />
      </g>
      <g
         transform="translate(425.7535,169.4606)"
         id="g3787">
        <path
           inkscape:connector-curvature="0"
           id="path3789"
           style="fill:#000000;fill-opacity:1;fill-rule:nonzero;stroke:none"
           d="M 0,0 V 65.349 H 11.673 V 0.104 c 0,-2.919 1.042,-3.959 4.378,-3.959 v -9.486 c 0,0 -1.043,-0.208 -2.294,-0.208 C 4.274,-13.549 0,-8.963 0,0" />
      </g>
      <g
         transform="translate(485.5749,224.9076)"
         id="g3791">
        <path
           inkscape:connector-curvature="0"
           id="path3793"
           style="fill:#000000;fill-opacity:1;fill-rule:nonzero;stroke:none"
           d="m 0,0 c -1.876,0.625 -4.065,1.042 -7.712,1.042 -5.212,0 -9.381,-1.98 -9.381,-7.921 v -9.277 h 14.696 v -9.9 h -14.696 v -42.21 h -11.672 v 42.21 h -9.486 v 7.191 l 9.486,2.709 v 10.319 c 0,11.153 6.253,16.989 20.219,16.989 3.44,0 6.566,-0.522 8.546,-1.252 z" />
      </g>
      <g
         transform="translate(519.9657,199.373)"
         id="g3795">
        <path
           inkscape:connector-curvature="0"
           id="path3797"
           style="fill:#000000;fill-opacity:1;fill-rule:nonzero;stroke:none"
           d="m 0,0 c -1.252,0.417 -3.336,0.625 -5.733,0.625 -6.149,0 -10.735,-1.459 -13.34,-3.127 v -40.229 h -11.672 v 52.11 h 6.877 l 1.877,-4.167 c 3.856,3.125 9.692,5.418 16.467,5.418 2.188,0 4.065,-0.313 5.524,-0.625 z" />
      </g>
      <g
         transform="translate(543.9349,199.9982)"
         id="g3799">
        <path
           inkscape:connector-curvature="0"
           id="path3801"
           style="fill:#000000;fill-opacity:1;fill-rule:nonzero;stroke:none"
           d="M 0,0 C -6.774,0 -12.297,-1.563 -16.258,-3.128 V 6.983 c 4.064,1.771 10.942,3.022 17.092,3.022 17.093,0 21.054,-7.504 21.054,-18.551 v -34.81 h -6.88 l -1.876,4.168 c -4.169,-3.439 -10.004,-5.419 -15.737,-5.419 -13.445,0 -17.927,8.336 -17.927,16.675 0,11.257 7.296,16.052 19.073,16.99 l 11.672,0.936 V -7.4 C 10.213,-2.084 7.712,0 0,0 m -0.729,-19.282 c -5.212,-0.625 -8.234,-2.604 -8.234,-8.024 0,-3.96 1.668,-7.713 8.025,-7.713 4.691,0 7.921,1.355 11.151,3.44 v 13.548 z" />
      </g>
      <g
         transform="translate(637.0031,193.4322)"
         id="g3803">
        <path
           inkscape:connector-curvature="0"
           id="path3805"
           style="fill:#000000;fill-opacity:1;fill-rule:nonzero;stroke:none"
           d="m 0,0 c 0,4.899 -2.815,6.67 -7.4,6.67 -5.107,0 -8.546,-1.563 -11.256,-3.231 0.208,-1.876 0.312,-3.647 0.312,-5.731 v -34.5 H -30.017 V 0 c 0,4.899 -2.709,6.67 -7.398,6.67 -4.797,0 -8.235,-1.458 -10.944,-3.023 V -36.792 H -60.033 V 15.32 h 6.879 l 1.875,-4.168 c 4.378,3.439 10.632,5.419 15.738,5.419 6.982,0 11.152,-1.98 13.34,-5.21 4.691,3.334 10.944,5.21 16.677,5.21 C 6.774,16.571 11.673,9.9 11.673,0 V -36.792 H 0 Z" />
      </g>
      <g
         transform="translate(292.8405,63.1495)"
         id="g3807">
        <path
           inkscape:connector-curvature="0"
           id="path3809"
           style="fill:#000000;fill-opacity:1;fill-rule:nonzero;stroke:none"
           d="m 0,0 h 33.977 v -10.736 h -45.65 V 67.432 H 0 Z" />
      </g>
      <g
         transform="translate(349.6378,95.7714)"
         id="g3811">
        <path
           inkscape:connector-curvature="0"
           id="path3813"
           style="fill:#000000;fill-opacity:1;fill-rule:nonzero;stroke:none"
           d="M 0,0 C -6.775,0 -12.299,-1.563 -16.258,-3.128 V 6.983 c 4.064,1.771 10.942,3.022 17.092,3.022 17.093,0 21.054,-7.504 21.054,-18.551 v -34.81 h -6.88 l -1.876,4.168 c -4.169,-3.439 -10.004,-5.419 -15.737,-5.419 -13.445,0 -17.927,8.336 -17.927,16.675 0,11.257 7.296,16.052 19.073,16.99 l 11.672,0.936 V -7.4 C 10.213,-2.084 7.712,0 0,0 m -0.729,-19.282 c -5.212,-0.625 -8.234,-2.604 -8.234,-8.024 0,-3.96 1.667,-7.713 8.025,-7.713 4.691,0 7.921,1.355 11.151,3.44 v 13.548 z" />
      </g>
      <g
         transform="translate(414.5656,52.4145)"
         id="g3815">
        <path
           inkscape:connector-curvature="0"
           id="path3817"
           style="fill:#000000;fill-opacity:1;fill-rule:nonzero;stroke:none"
           d="m 0,0 v 35.748 c 0,5.316 -2.711,7.714 -8.235,7.714 -5.418,0 -9.171,-1.46 -11.984,-3.023 V 0 h -11.674 v 52.112 h 6.879 l 1.875,-4.169 c 5.316,3.648 11.257,5.419 16.885,5.419 13.237,0 17.926,-6.566 17.926,-16.57 L 11.672,0 Z" />
      </g>
      <g
         transform="translate(457.0834,66.1716)"
         id="g3819">
        <path
           inkscape:connector-curvature="0"
           id="path3821"
           style="fill:#000000;fill-opacity:1;fill-rule:nonzero;stroke:none"
           d="m 0,0 c -2.19,0 -4.274,0.104 -6.045,0.417 -0.834,-0.834 -1.459,-1.98 -1.459,-3.022 0,-1.773 0.938,-2.711 3.126,-3.023 l 18.865,-2.293 c 10.319,-1.25 13.966,-5.939 13.966,-14.591 0,-13.444 -14.175,-18.552 -29.287,-18.552 -13.965,0 -24.076,4.482 -24.076,15.216 0,7.089 5.316,11.257 10.84,12.924 v 0.104 c -2.605,1.459 -4.064,4.378 -4.064,7.192 0,3.857 2.291,6.567 4.689,8.443 -5.941,3.334 -8.337,9.379 -8.337,16.988 0,11.881 5.836,19.802 21.782,19.802 3.753,0 6.879,-0.417 9.588,-1.25 h 18.031 v -7.4 l -7.4,-2.084 C 21.261,26.16 21.782,23.139 21.782,19.803 21.782,7.922 15.946,0 0,0 m -3.649,-15.32 c -5.314,-0.938 -10.108,-3.335 -10.108,-8.338 0,-5.837 4.169,-8.129 13.757,-8.129 9.173,0 17.196,2.709 17.196,8.963 0,3.542 -1.771,5.105 -6.045,5.628 z M 0,9.275 c 8.754,0 10.736,4.587 10.736,10.528 0,5.94 -1.982,10.527 -10.736,10.527 -8.754,0 -10.736,-4.587 -10.736,-10.527 0,-5.941 1.982,-10.528 10.736,-10.528" />
      </g>
      <g
         transform="translate(503.1467,104.526)"
         id="g3823">
        <path
           inkscape:connector-curvature="0"
           id="path3825"
           style="fill:#000000;fill-opacity:1;fill-rule:nonzero;stroke:none"
           d="m 0,0 v -35.748 c 0,-5.316 2.709,-7.712 8.233,-7.712 5.42,0 9.173,1.458 11.985,3.021 V 0 h 11.675 v -52.112 h -6.881 l -1.875,4.169 c -5.316,-3.646 -11.255,-5.418 -16.884,-5.418 -13.236,0 -17.926,6.565 -17.926,16.571 V 0 Z" />
      </g>
      <g
         transform="translate(563.0698,95.7714)"
         id="g3827">
        <path
           inkscape:connector-curvature="0"
           id="path3829"
           style="fill:#000000;fill-opacity:1;fill-rule:nonzero;stroke:none"
           d="M 0,0 C -6.775,0 -12.299,-1.563 -16.258,-3.128 V 6.983 c 4.063,1.771 10.942,3.022 17.092,3.022 17.093,0 21.054,-7.504 21.054,-18.551 v -34.81 h -6.88 l -1.876,4.168 c -4.169,-3.439 -10.004,-5.419 -15.737,-5.419 -13.445,0 -17.927,8.336 -17.927,16.675 0,11.257 7.295,16.052 19.073,16.99 l 11.672,0.936 V -7.4 C 10.213,-2.084 7.712,0 0,0 m -0.729,-19.282 c -5.212,-0.625 -8.234,-2.604 -8.234,-8.024 0,-3.96 1.668,-7.713 8.025,-7.713 4.691,0 7.921,1.355 11.151,3.44 v 13.548 z" />
      </g>
      <g
         transform="translate(615.9074,66.1716)"
         id="g3831">
        <path
           inkscape:connector-curvature="0"
           id="path3833"
           style="fill:#000000;fill-opacity:1;fill-rule:nonzero;stroke:none"
           d="m 0,0 c -2.188,0 -4.274,0.104 -6.045,0.417 -0.834,-0.834 -1.459,-1.98 -1.459,-3.022 0,-1.773 0.938,-2.711 3.126,-3.023 l 18.865,-2.293 c 10.319,-1.25 13.966,-5.939 13.966,-14.591 0,-13.444 -14.175,-18.552 -29.287,-18.552 -13.965,0 -24.076,4.482 -24.076,15.216 0,7.089 5.316,11.257 10.84,12.924 v 0.104 c -2.605,1.459 -4.064,4.378 -4.064,7.192 0,3.857 2.291,6.567 4.689,8.443 -5.941,3.334 -8.337,9.379 -8.337,16.988 0,11.881 5.836,19.802 21.782,19.802 3.753,0 6.879,-0.417 9.588,-1.25 h 18.031 v -7.4 l -7.4,-2.084 C 21.261,26.16 21.782,23.139 21.782,19.803 21.782,7.922 15.945,0 0,0 m -3.649,-15.32 c -5.314,-0.938 -10.109,-3.335 -10.109,-8.338 0,-5.837 4.17,-8.129 13.758,-8.129 9.173,0 17.196,2.709 17.196,8.963 0,3.542 -1.772,5.105 -6.044,5.628 z M 0,9.275 c 8.754,0 10.736,4.587 10.736,10.528 0,5.94 -1.982,10.527 -10.736,10.527 -8.754,0 -10.736,-4.587 -10.736,-10.527 0,-5.941 1.982,-10.528 10.736,-10.528" />
      </g>
      <g
         transform="translate(672.3921,105.7768)"
         id="g3835">
        <path
           inkscape:connector-curvature="0"
           id="path3837"
           style="fill:#000000;fill-opacity:1;fill-rule:nonzero;stroke:none"
           d="m 0,0 c 18.342,0 21.261,-12.09 21.261,-26.473 0,-1.771 -0.106,-3.438 -0.208,-5.107 h -32.414 c 0.208,-7.817 3.023,-12.922 13.653,-12.922 6.566,0 11.986,1.144 16.573,3.126 v -10.005 c -5.941,-2.502 -12.716,-3.232 -18.344,-3.232 -17.406,0 -23.659,10.423 -23.659,27.307 C -23.138,-10.527 -16.989,0 0,0 M -11.361,-23.451 H 9.484 c 0,7.089 -0.417,13.34 -9.484,13.34 -8.548,0 -10.944,-5.522 -11.361,-13.34" />
      </g>
      <g
         transform="translate(702.3619,115.864)"
         id="g3839">
        <path
           inkscape:connector-curvature="0"
           id="path3841"
           style="fill:#000000;fill-opacity:1;fill-rule:nonzero;stroke:none"
           d="M 0,0 H 3.254 L 6.26,-7.749 9.211,0 h 3.254 v -11.472 h -2.096 v 8.77 h -0.055 l -3.226,-8.77 h -1.71 l -3.227,8.77 H 2.096 v -8.77 H 0 Z m -8.328,-1.93 h -3.53 V 0 h 9.155 v -1.93 h -3.53 v -9.542 h -2.095 z" />
      </g>
    </g>
  </g>
</svg>
