<?xml version="1.0" encoding="UTF-8" standalone="no"?>
<!DOCTYPE svg PUBLIC "-//W3C//DTD SVG 1.1//EN" "http://www.w3.org/Graphics/SVG/1.1/DTD/svg11.dtd">
<svg xmlns="http://www.w3.org/2000/svg" xmlns:xl="http://www.w3.org/1999/xlink" version="1.1" viewBox="0 0 356 356" width="356pt" height="356pt" xmlns:dc="http://purl.org/dc/elements/1.1/">
  <defs/>
  <g stroke="none" stroke-opacity="1" stroke-dasharray="none" fill="none" fill-opacity="1">
    <title>Canvas 1</title>
    <g>
      <title>Facebook</title>
      <path d="M 336.21732 355.86 C 347.06266 355.86 355.85732 347.06532 355.85732 336.22 L 355.85732 19.641333 C 355.85732 8.792 347.06266 2842171e-20 336.21732 2842171e-20 L 19.64 2842171e-20 C 8.790666 2842171e-20 2842171e-20 8.792 2842171e-20 19.641333 L 2842171e-20 336.22 C 2842171e-20 347.06532 8.790666 355.86 19.64 355.86 Z" fill="black"/>
      <path d="M 245.53506 355.86 L 245.53506 218.05333 L 291.7924 218.05333 L 298.71773 164.34666 L 245.53506 164.34666 L 245.53506 130.05733 C 245.53506 114.508 249.8524 103.912 272.15106 103.912 L 300.59106 103.89866 L 300.59106 55.864 C 295.67106 55.210665 278.78973 53.748 259.14973 53.748 C 218.14573 53.748 190.07506 78.776 190.07506 124.74 L 190.07506 164.34666 L 143.7004 164.34666 L 143.7004 218.05333 L 190.07506 218.05333 L 190.07506 355.86 Z" fill="white"/>
    </g>
  </g>
</svg>
