<?xml version="1.0" encoding="UTF-8" standalone="no"?>
<!DOCTYPE svg PUBLIC "-//W3C//DTD SVG 1.1//EN" "http://www.w3.org/Graphics/SVG/1.1/DTD/svg11.dtd">
<svg xmlns="http://www.w3.org/2000/svg" xmlns:xl="http://www.w3.org/1999/xlink" version="1.1" viewBox="0 0 672 672" width="56pc" height="56pc" xmlns:dc="http://purl.org/dc/elements/1.1/">
  <defs/>
  <g stroke="none" stroke-opacity="1" stroke-dasharray="none" fill="none" fill-opacity="1">
    <title>Canvas 1</title>
    <g>
      <title>Instagram</title>
      <path d="M 335.89466 0 C 244.67066 0 233.232 .38666666 197.40533 2.0213333 C 161.65333 3.652 137.236 9.330666 115.87026 17.633333 C 93.78226 26.217333 75.05053 37.702666 56.37653 56.376 C 37.703066 75.04933 26.217733 93.78266 17.633866 115.87066 C 9.330733 137.236 3.6526 161.65333 2.02084 197.40533 C .38645866 233.232 0 244.67066 0 335.89466 C 0 427.1173 .38645866 438.556 2.02084 474.38265 C 3.6526 510.13465 9.330733 534.552 17.633866 555.9172 C 26.217733 578.0052 37.703066 596.73745 56.37653 615.412 C 75.05053 634.0853 93.78226 645.5708 115.87026 654.15465 C 137.236 662.45725 161.65333 668.1359 197.40533 669.7666 C 233.232 671.401 244.67066 671.788 335.89466 671.788 C 427.1173 671.788 438.556 671.401 474.38265 669.7666 C 510.13465 668.1359 534.552 662.45725 555.9173 654.15465 C 578.0053 645.5708 596.7373 634.0853 615.412 615.412 C 634.0853 596.73745 645.57065 578.0052 654.15465 555.9172 C 662.4573 534.552 668.136 510.13465 669.76665 474.38265 C 671.4013 438.556 671.788 427.1173 671.788 335.89466 C 671.788 244.67066 671.4013 233.232 669.76665 197.40533 C 668.136 161.65333 662.4573 137.236 654.15465 115.87066 C 645.57065 93.78266 634.0853 75.04933 615.412 56.376 C 596.7373 37.702666 578.0053 26.217333 555.9173 17.633333 C 534.552 9.330666 510.13465 3.652 474.38265 2.0213333 C 438.556 .38666666 427.1173 0 335.89466 0 M 335.89466 60.52133 C 425.5813 60.52133 436.2053 60.864 471.624 62.48 C 504.3733 63.97333 522.15865 69.44533 533.99465 74.04533 C 549.6733 80.13866 560.86265 87.41733 572.616 99.17066 C 584.37065 110.92533 591.6493 122.11466 597.74265 137.79333 C 602.34265 149.62933 607.81465 167.41466 609.308 200.164 C 610.924 235.58266 611.26665 246.20666 611.26665 335.89466 C 611.26665 425.5813 610.924 436.2053 609.308 471.624 C 607.81465 504.3733 602.34265 522.15865 597.74265 533.99465 C 591.6493 549.67345 584.37065 560.8625 572.616 572.6161 C 560.86265 584.3708 549.6733 591.64945 533.99465 597.74265 C 522.15865 602.34265 504.3733 607.8145 471.624 609.3077 C 436.21066 610.924 425.588 611.26665 335.89466 611.26665 C 246.2 611.26665 235.57866 610.924 200.164 609.3077 C 167.41466 607.8145 149.62933 602.34265 137.79333 597.74265 C 122.11453 591.64945 110.92546 584.3708 99.17186 572.6161 C 87.41826 560.8625 80.13853 549.67345 74.04533 533.99465 C 69.44533 522.15865 63.974 504.3733 62.47973 471.624 C 60.8636 436.2053 60.52133 425.5813 60.52133 335.89466 C 60.52133 246.20666 60.8636 235.58266 62.47973 200.164 C 63.974 167.41466 69.44533 149.62933 74.04533 137.79333 C 80.13853 122.11466 87.41773 110.92533 99.17133 99.172 C 110.92546 87.41733 122.11453 80.13866 137.79333 74.04533 C 149.62933 69.44533 167.41466 63.97333 200.164 62.48 C 235.58266 60.864 246.20666 60.52133 335.89466 60.52133" fill="#100f0d"/>
      <path d="M 335.89466 447.85866 C 274.05733 447.85866 223.92933 397.73066 223.92933 335.89466 C 223.92933 274.05733 274.05733 223.92933 335.89466 223.92933 C 397.73066 223.92933 447.85866 274.05733 447.85866 335.89466 C 447.85866 397.73066 397.73066 447.85866 335.89466 447.85866 M 335.89466 163.408 C 240.632 163.408 163.408 240.632 163.408 335.89466 C 163.408 431.156 240.632 508.38 335.89466 508.38 C 431.156 508.38 508.38 431.156 508.38 335.89466 C 508.38 240.632 431.156 163.408 335.89466 163.408" fill="#100f0d"/>
      <path d="M 555.50265 156.5933 C 555.50265 178.85463 537.456 196.89997 515.19465 196.89997 C 492.93465 196.89997 474.888 178.85463 474.888 156.5933 C 474.888 134.33197 492.93465 116.2853 515.19465 116.2853 C 537.456 116.2853 555.50265 134.33197 555.50265 156.5933" fill="#100f0d"/>
    </g>
  </g>
</svg>
