<?xml version="1.0" encoding="UTF-8" standalone="no"?>
<!DOCTYPE svg PUBLIC "-//W3C//DTD SVG 1.1//EN" "http://www.w3.org/Graphics/SVG/1.1/DTD/svg11.dtd">
<svg xmlns="http://www.w3.org/2000/svg" xmlns:xl="http://www.w3.org/1999/xlink" version="1.1" viewBox="0 0 250 204" width="250pt" height="17pc" xmlns:dc="http://purl.org/dc/elements/1.1/">
  <defs/>
  <g stroke="none" stroke-opacity="1" stroke-dasharray="none" fill="none" fill-opacity="1">
    <title>Canvas 1</title>
    <g>
      <title>Twitter</title>
      <path d="M 78.62 203.1397 C 172.96 203.1397 224.56 124.97969 224.56 57.19969 C 224.56 54.97969 224.56 52.76969 224.41 50.56969 C 234.4483 43.3088 243.11355 34.318484 250 24.01969 C 240.6388 28.167708 230.7083 30.887977 220.54 32.08969 C 231.24744 25.67951 239.26124 15.59741 243.09 3.7196903 C 233.02157 9.694243 222.00646 13.90481 210.52 16.16969 C 194.62083 -.7363669 169.3572 -4.874184 148.8955 6.0764896 C 128.43379 17.027163 117.86275 40.34295 123.11 62.94969 C 81.86896 60.882186 43.44476 41.402923 17.4 9.35969 C 3.7862276 32.796138 10.739879 62.778285 33.28 77.82969 C 25.117412 77.58777 17.132794 75.38582 10 71.40969 C 10 71.61969 10 71.83969 10 72.05969 C 10.006681 96.47562 27.217515 117.50504 51.15 122.33969 C 43.598696 124.39909 35.675806 124.70013 27.99 123.21969 C 34.70948 144.11392 53.965746 158.42753 75.91 158.83969 C 57.74735 173.114 35.310595 180.86297 12.21 180.8397 C 8.129036 180.83186 4.0520407 180.58477 0 180.0997 C 23.45636 195.15246 50.749134 203.13686 78.62 203.0997" fill="black"/>
    </g>
  </g>
</svg>
