<?xml version="1.0" encoding="UTF-8" standalone="no"?>
<?xml-stylesheet type="text/css" href="{{ asset('styles/hc-2018/all-stylesheets.css') }}"?>
<!DOCTYPE svg PUBLIC "-//W3C//DTD SVG 1.1//EN" "http://www.w3.org/Graphics/SVG/1.1/DTD/svg11.dtd">
<svg xmlns="http://www.w3.org/2000/svg" xmlns:xl="http://www.w3.org/1999/xlink" version="1.1" xmlns:dc="http://purl.org/dc/elements/1.1/">
  <metadata> Produced by OmniGraffle 7.4.3 
    <dc:date>2017-10-02 07:27:14 +0000</dc:date>
  </metadata>
  <defs/>
  <g stroke="none" stroke-opacity="1" stroke-dasharray="none" fill="none" fill-opacity="1">
    <title>Canvas 1</title>
    <rect fill="white" width="57" height="57"/>
    <g>
      <title>Layer 1</title>
      <path id="icon" d="M 0 0 L 0 57 L 57 57 L 57 0 Z M 13.60227 19.063067 L 13.60227 19.063067 C 13.649845 18.593007 13.47059 18.128406 13.119593 17.812038 L 9.544215 13.504925 L 9.544215 12.861538 L 20.645766 12.861538 L 29.226675 31.680586 L 36.770725 12.861538 L 47.353846 12.861538 L 47.353846 13.504925 L 44.296897 16.435906 C 44.033355 16.636794 43.902624 16.966967 43.957236 17.293755 L 43.957236 38.82932 C 43.902624 39.15611 44.033355 39.486283 44.296897 39.68717 L 47.28234 42.61815 L 47.28234 43.26154 L 32.265747 43.26154 L 32.265747 42.61815 L 35.35845 39.615683 C 35.662357 39.31186 35.662357 39.222503 35.662357 38.757835 L 35.662357 21.350663 L 27.06357 43.19005 L 25.901573 43.19005 L 15.890512 21.350663 L 15.890512 35.9877 C 15.807044 36.60308 16.011423 37.222637 16.444696 37.667653 L 20.466997 42.546665 L 20.466997 43.19005 L 9.061538 43.19005 L 9.061538 42.546665 L 13.08384 37.667653 C 13.513958 37.2219 13.70642 36.598234 13.60227 35.9877 Z"/>
    </g>
  </g>
</svg>
