<?xml version="1.0" encoding="UTF-8" standalone="no"?>
<?xml-stylesheet type="text/css" href="/assets/styles/hc-2018/all-stylesheets.css"?>
<!DOCTYPE svg PUBLIC "-//W3C//DTD SVG 1.1//EN" "http://www.w3.org/Graphics/SVG/1.1/DTD/svg11.dtd">
<svg xmlns="http://www.w3.org/2000/svg" xmlns:xl="http://www.w3.org/1999/xlink" version="1.1" xmlns:dc="http://purl.org/dc/elements/1.1/">
  <metadata> Produced by OmniGraffle 7.4.3 
    <dc:date>2017-10-02 07:21:56 +0000</dc:date>
  </metadata>
  <defs/>
  <symbol id="icon" viewBox="0 0 57 57">
    <g>
      <path d="M 17.92536 46.31585 C 39.43488 46.31585 51.19968 28.49537 51.19968 13.04153 C 51.19968 12.53537 51.19968 12.031489 51.16548 11.529889 C 53.45421 9.874406 55.42989 7.824614 57 5.476489 C 54.865646 6.422237 52.60149 7.042459 50.28312 7.316449 C 52.724416 5.854928 54.55156 3.5562094 55.42452 .8480893 C 53.12892 2.2102873 50.61747 3.1702966 47.99856 3.6866893 C 44.37355 -.16789172 38.61344 -1.111314 33.948174 1.3854396 C 29.282904 3.882193 26.872707 9.198193 28.06908 14.35253 C 18.666123 13.881138 9.905405 9.439866 3.9672 2.1340093 C .8632599 7.477519 2.4486924 14.313449 7.58784 17.74517 C 5.72677 17.690011 3.906277 17.187967 2.28 16.28141 C 2.28 16.32929 2.28 16.37945 2.28 16.42961 C 2.2815233 21.99644 6.2055934 26.79115 11.6622 27.89345 C 9.940503 28.362992 8.134084 28.43163 6.38172 28.09409 C 7.913761 32.857974 12.30419 36.121477 17.30748 36.21545 C 13.166396 39.46999 8.050816 41.236757 2.78388 41.23145 C 1.8534202 41.229664 .9238653 41.173327 0 41.06273 C 5.34805 44.49476 11.570803 46.315204 17.92536 46.30673"/>
    </g>
  </symbol>
</svg>
