<?xml version="1.0" encoding="UTF-8" standalone="no"?>
<!-- Created with Inkscape (http://www.inkscape.org/) -->
<svg id="svg2" xmlns:rdf="http://www.w3.org/1999/02/22-rdf-syntax-ns#" xmlns="http://www.w3.org/2000/svg" xml:space="preserve" viewBox="0 0 915 208.75" version="1.1" xmlns:cc="http://creativecommons.org/ns#" xmlns:dc="http://purl.org/dc/elements/1.1/"><metadata id="metadata8"><rdf:RDF><cc:Work rdf:about=""><dc:format>image/svg+xml</dc:format><dc:type rdf:resource="http://purl.org/dc/dcmitype/StillImage"/><dc:title/></cc:Work></rdf:RDF></metadata><defs id="defs6"><clipPath id="clipPath16" clipPathUnits="userSpaceOnUse"><path id="path18" d="M0,167,732,167,732,0,0,0,0,167z"/></clipPath></defs><g id="g10" transform="matrix(1.25,0,0,-1.25,0,208.75)"><g id="g12" fill="#FFF"><g id="g14" fill="#FFF" clip-path="url(#clipPath16)"><g id="g20" transform="translate(172.8096,121.3599)"><path id="path22" fill-rule="nonzero" fill="#FFF" d="m0,0c0,13.3-27.342,22.33-36.13,2.56-6.836,15.38-28.438,14.87-34.326-0.12l0.004,7.85c0,1.19-1.086,2.28-2.278,2.28h-12.267c-1.192,0-2.279-1.09-2.279-2.28v-66.36c0-1.19,1.087-2.28,2.279-2.28h13.184c1.193,0,2.245,1.09,2.245,2.28v42.08c0,4.75,2.007,10.11,7.037,11.22,5.532,1.23,10.044-1.83,10.044-8.22l-0.003-45.08c0-1.19,1.085-2.28,2.278-2.28h13.406c1.193,0,2.279,1.09,2.279,2.28l0.003,44.71c0,10.14,16.868,12.76,16.869,0v-44.71c0-1.19,1.087-2.28,2.278-2.28h13.101c1.192,0,2.277,1.09,2.277,2.28l-0.001,56.07z"/></g><g id="g24" transform="translate(303.9219,131.54)"><path id="path26" fill-rule="nonzero" fill="#FFF" d="m0,0c0,1.19-1.085,2.27-2.278,2.27h-43.367c-0.6,0-1.197-0.25-1.62-0.67-0.422-0.43-0.611-1.02-0.611-1.62v-9.22c0-1.18,1.152-2.24,2.337-2.24h22.796l-25.974-38.03c-1.484-2.17-1.23-3.52-1.229-3.97l0.022-10.58c0-2.27,0.842-3.28,3.443-2.18,15.883,6.71,32.805,7.11,45.561-0.52,1.044-0.63,2.305,0.05,2.305,1.83l0.003,11.88c0,0.77-0.416,1.52-1.065,1.92-7.368,4.65-16.74,5.89-25.833,5.75l24.283,33.75c1.163,1.62,1.229,3.35,1.229,3.82l-0.002,7.81z"/></g><g id="g28" transform="translate(370.7778,98.6099)"><path id="path30" fill-rule="nonzero" fill="#FFF" d="M0,0c-0.009,21.16-12.429,37.24-29.662,37.04-17.329-0.2-29.685-16.46-29.661-37.19,0.024-21.25,12.624-37.51,29.969-37.04,17.265,0.47,29.363,16.64,29.354,37.19m-19.518-0.23c0-12.86-0.461-23.28-10.144-23.28-9.221,0-10.143,10.42-10.143,23.28s0.769,23.44,10.143,23.29c9.068-0.15,10.144-10.43,10.144-23.29"/></g><g id="g32" transform="translate(433.8564,116.4399)"><path id="path34" fill-rule="nonzero" fill="#FFF" d="M0,0c0,10.52-6.368,19.21-21.275,18.75-6.915-0.21-12.308-5.47-15.302-12.91v9.56c0,1.2-1.086,2.28-2.278,2.28h-12.724c-1.192,0-2.277-1.08-2.277-2.28v-66.61c0-1.19,1.085-2.27,2.277-2.27h13.308c1.192,0,2.278,1.08,2.278,2.27v41.84c0,6.23,5.338,11.49,10.261,11.68,4.059,0.15,8.123-3.75,8.123-8.15v-45.37c0-1.19,1.083-2.27,2.275-2.27h13.059c1.191,0,2.278,1.08,2.276,2.27l-0.001,51.21z"/></g><g id="g36" transform="translate(240.542,117.8496)"><path id="path38" fill-rule="nonzero" fill="#FFF" d="M0,0c0,11.19-9.684,18.32-28.445,17.66-11.455-0.4-22.353-4.66-25.163-18.5-0.127-0.62,0.017-1.29,0.387-1.8,0.37-0.509,0.96-0.85,1.586-0.92l11.684-1.339c1.119-0.121,2.266,0.71,2.491,1.809,0.843,4.361,4.153,7.59,9.015,7.59,7.241,0,10.376-3.729,10.376-8.67v-6.47l-14.435-1.1c-12.208-0.93-23.57-8.89-23.809-24.14-0.219-14.04,9.107-20.73,21.834-20.08,7.58,0.4,14.19,3.64,19.2,9.22l7.206-8.02c0.406-0.45,1-0.73,1.608-0.75s1.221,0.21,1.661,0.63l9.377,8.96c0.786,0.76,0.91,2.1,0.275,2.981l-3.45,4.54c-0.701,0.92-1.398,5.019-1.398,7.349v31.05zm-17.912-20.45,0-8.63c0-6.69-4.439-12.39-8.108-13.49-7.233-2.18-11.928,3.44-11.751,9.43,0.224,7.57,6.883,12.19,12.505,12.4l7.354,0.29z"/></g><g id="g40" transform="translate(69.8848,117.8701)"><path id="path42" fill-rule="nonzero" fill="#FFF" d="M0,0c0,11.19-9.683,18.32-28.444,17.66-11.455-0.4-22.353-4.66-25.163-18.51-0.127-0.61,0.017-1.28,0.387-1.79s0.96-0.86,1.586-0.93l11.684-1.33c1.119-0.13,2.266,0.7,2.491,1.81,0.843,4.36,4.153,7.58,9.015,7.58,7.241,0,10.376-3.72,10.376-8.66v-6.48l-14.436-1.09c-12.207-0.93-23.569-8.89-23.808-24.14-0.219-14.05,9.106-20.74,21.833-20.08,7.581,0.39,14.191,3.63,19.201,9.22l7.206-8.02c0.406-0.45,1-0.73,1.608-0.761,0.608-0.019,1.221,0.211,1.66,0.631l9.378,8.97c0.786,0.75,0.91,2.1,0.274,2.98l-3.45,4.53c-0.7,0.93-1.398,5.03-1.398,7.36v31.05zm-17.912-20.46,0-8.62c0-6.691-4.438-12.39-8.108-13.49-7.232-2.18-11.927,3.44-11.75,9.43,0.224,7.57,6.883,12.18,12.505,12.4l7.353,0.28z"/></g><g id="g44" transform="translate(454.75,67.9399)"><path id="path46" fill-rule="nonzero" fill="#FFF" d="m0,0c0,3.54-2.868,6.41-6.407,6.41s-6.407-2.87-6.407-6.41,2.868-6.4,6.407-6.4,6.407,2.86,6.407,6.4"/></g><g id="g48" transform="translate(505.6064,109.9897)"><path id="path50" fill-rule="nonzero" fill="#FFF" d="M0,0c0.391,0,0.777,0.16,1.042,0.45,0.267,0.28,0.406,0.68,0.379,1.07-0.955,13.36-9.431,24.44-24.981,24.14-18.752-0.35-25.724-20.58-25.972-36.27-0.269-16.98,5.686-36.88,25.972-37.96,14.56-0.77,24.329,11.8,24.999,25.1,0.019,0.38-0.121,0.77-0.383,1.05-0.264,0.28-0.643,0.47-1.028,0.47h-6.65c-0.681,0-1.319-0.51-1.42-1.19-1.255-8.5-7.687-16.12-14.287-16.21-11.988-0.15-16.263,16.61-16.445,28.13-0.154,9.68,4.303,27.35,15.983,27.51,8.645,0.11,13.657-6.7,14.757-15.06,0.089-0.67,0.727-1.23,1.41-1.23h6.624z"/></g><g id="g52" transform="translate(585.7471,67.9399)"><path id="path54" fill-rule="nonzero" fill="#FFF" d="m0,0c0,3.54-2.868,6.41-6.407,6.41s-6.407-2.87-6.407-6.41,2.868-6.4,6.407-6.4,6.407,2.86,6.407,6.4"/></g><g id="g56" transform="translate(570.1309,98.5996)"><path id="path58" fill-rule="nonzero" fill="#FFF" d="M0,0c0,20.57-9.872,37.09-28.344,37.24-18.323-0.15-28.045-16.23-28.045-36.8-0.15-22.879,8.376-36.64,27.821-37.54,16.901-0.15,28.568,14.36,28.568,37.1m-11.816-0.08c0-15.569-4.936-28.19-16.603-28.19-11.518,0.74-16.602,12.621-16.602,28.19,0,15.57,5.384,28.351,16.602,28.2,11.067-0.15,16.603-12.63,16.603-28.2"/></g><g id="g60" transform="translate(641.1836,132.6201)"><path id="path62" fill-rule="nonzero" fill="#FFF" d="m0,0c0,0.74-0.68,1.42-1.426,1.42h-7.474c-0.746,0-1.424-0.68-1.424-1.42l-0.002-41.95c0-3.89-3.739-18.1-15.405-19.75-9.805-1.38-13.055,9.88-13.055,16.91l-0.001,44.79c0,0.74-0.679,1.42-1.425,1.42h-7.881c-0.746,0-1.424-0.68-1.424-1.42l0.002-46.44c0-13.01,7.01-25.01,20.342-25.13,8.777-0.07,15.6,4.9,19.512,12.12v-8.81c0-0.75,0.677-1.43,1.423-1.43h6.813c0.745,0,1.425,0.68,1.425,1.43v68.26z"/></g><g id="g64" transform="translate(701.0078,130.5898)"><path id="path66" fill-rule="nonzero" fill="#FFF" d="m0,0c1.102,1.44,2.243,3.16-0.299,3.16l-7.996,0.01c-0.424,0-0.84-0.22-1.102-0.55l-26.95-34.66,0.001,59.19c0,0.75-0.677,1.43-1.424,1.43h-7.774c-0.745,0-1.424-0.68-1.424-1.43v-93.41c0-0.75,0.679-1.43,1.424-1.43h7.881c0.746,0,1.425,0.68,1.425,1.43v19.89c0,0.32,0.106,0.63,0.297,0.88l12.308,16.01,16.973-37.38c0.224-0.49,0.754-0.83,1.295-0.83h8.48c0.481,0,0.951,0.26,1.207,0.67,0.255,0.41,0.283,0.95,0.074,1.38l-21.148,43.83,16.752,21.81z"/></g><g id="g68" transform="translate(719.2852,124.0801)"><path id="path70" fill-rule="nonzero" fill="#FFF" d="m0,0c0,0.03-0.018,0.07-0.034,0.13-0.019,0.06-0.062,0.16-0.121,0.3l-0.816,1.69c-0.104,0.19-0.199,0.36-0.285,0.52-0.102,0.15-0.197,0.29-0.301,0.41-0.102,0.11-0.222,0.21-0.343,0.3s-0.257,0.15-0.404,0.21c0.257,0.08,0.499,0.18,0.722,0.29,0.215,0.11,0.403,0.25,0.559,0.41,0.155,0.15,0.267,0.33,0.352,0.53,0.085,0.21,0.129,0.44,0.129,0.7s-0.052,0.5-0.137,0.72c-0.095,0.22-0.232,0.41-0.413,0.58-0.189,0.17-0.412,0.31-0.679,0.42-0.276,0.11-0.593,0.19-0.937,0.25-0.12,0.01-0.257,0.01-0.412,0.03-0.155,0.01-0.352,0.02-0.576,0.02h-1.935c-0.11,0-0.215-0.04-0.308-0.09-0.095-0.07-0.138-0.18-0.138-0.33v-7.09c0-0.03,0.009-0.06,0.026-0.08,0.017-0.03,0.043-0.05,0.095-0.06,0.043-0.01,0.102-0.02,0.188-0.03,0.078-0.01,0.172-0.01,0.293-0.01,0.12,0,0.215,0,0.291,0.01,0.079,0.01,0.138,0.02,0.182,0.03,0.043,0.01,0.076,0.03,0.103,0.06,0.016,0.02,0.034,0.05,0.034,0.08v3.26h0.808c0.275,0,0.506-0.03,0.705-0.11,0.198-0.07,0.369-0.16,0.516-0.29,0.146-0.13,0.274-0.27,0.378-0.44,0.103-0.17,0.206-0.36,0.309-0.56l0.834-1.81c0.016-0.05,0.043-0.08,0.069-0.11,0.025-0.04,0.059-0.07,0.111-0.08,0.043-0.02,0.103-0.02,0.181-0.04h0.301,0.342c0.079,0.02,0.139,0.02,0.199,0.04,0.043,0.01,0.069,0.03,0.086,0.06,0.016,0.02,0.026,0.05,0.026,0.08m-1.822,5.38c0-0.19-0.043-0.36-0.112-0.51-0.078-0.16-0.189-0.3-0.344-0.42-0.154-0.11-0.353-0.21-0.584-0.27-0.232-0.07-0.507-0.09-0.826-0.09h-1.177v2.58h1.015c0.24,0,0.428-0.01,0.584-0.02,0.146-0.01,0.275-0.04,0.395-0.06,0.378-0.09,0.644-0.24,0.808-0.45,0.155-0.2,0.241-0.46,0.241-0.76"/></g><g id="g72" transform="translate(722.2314,127.5601)"><path id="path74" fill-rule="nonzero" fill="#FFF" d="m0,0c0,0.94-0.216,1.87-0.622,2.71-0.549,1.13-1.451,2.09-2.549,2.7-2.125,1.19-4.975,0.98-6.865-0.55-1.809-1.46-2.744-3.98-2.192-6.25,0.29-1.18,0.901-2.3,1.803-3.13,1.717-1.56,4.341-2.11,6.494-1.24,1.75,0.72,3.16,2.23,3.686,4.05,0.161,0.56,0.245,1.14,0.245,1.71m-8.147-4.88c-2.699,1.08-4.012,4.14-2.932,6.84,1.079,2.7,4.141,4.01,6.84,2.93,2.697-1.08,4.01-4.14,2.93-6.84-1.079-2.7-4.141-4.01-6.838-2.93"/></g><g id="g76" transform="translate(278.8149,22.8398)"><path id="path78" fill-rule="nonzero" fill="#FFF" d="m0,0c-2.669-6.38,3.832-2.22,4.633-1.49,8.77,7.94,15.223,31.77,11.252,35.41-5.006,4.58-28.252,4.54-38.553-2.98-4.302-3.15-1.893-3.76,2.648-3.48,7.942,0.5,15.078,1.02,21.179,0.5,5.791-0.5,6.118-3.32,4.632-9.43-1.725-7.1-2.812-11.42-5.791-18.53"/></g><g id="g80" transform="translate(269.29,42.0298)"><path id="path82" fill-rule="nonzero" fill="#FFF" d="m0,0c-59.968-24.49-129.16-21.09-186.08,8.92-0.786,0.41-3.574,2.01-6.752,3.6-2.484,1.24-2.955,0.83-3.357,0.39-0.556-0.6-0.346-1.69,0.538-2.49,33.423-30.11,73.606-44.589,117.48-42.69,33.489,1.46,64.695,13.74,82.565,26.81,2.636,1.93,3.581,4.44,2.482,5.62-1.123,1.21-4.092,0.98-6.877-0.16"/></g></g></g></g></svg>
