<svg width="200" height="23" viewBox="0 0 200 23" version="1.1" xmlns="http://www.w3.org/2000/svg" xmlns:xlink="http://www.w3.org/1999/xlink" xmlns:figma="http://www.figma.com/figma/ns">
<title>argon-design-logo</title>
<desc>Created using Figma</desc>
<g id="Canvas" transform="translate(0 -135)" figma:type="canvas">
<g id="argon-design-logo" style="mix-blend-mode:normal;" figma:type="frame">
<g id="Group" style="mix-blend-mode:normal;" figma:type="frame">
<g id="Vector" style="mix-blend-mode:normal;" figma:type="vector">
<use xlink:href="#path0_fill" transform="translate(0 136.023)" style="mix-blend-mode:normal;"/>
</g>
<g id="Vector" style="mix-blend-mode:normal;" figma:type="vector">
<use xlink:href="#path1_fill" transform="translate(19.0991 136.395)" style="mix-blend-mode:normal;"/>
</g>
<g id="Vector" style="mix-blend-mode:normal;" figma:type="vector">
<use xlink:href="#path2_fill" transform="translate(37.1171 136.106)" style="mix-blend-mode:normal;"/>
</g>
<g id="Vector" style="mix-blend-mode:normal;" figma:type="vector">
<use xlink:href="#path3_fill" transform="translate(80.8008 135.961)" style="mix-blend-mode:normal;"/>
</g>
<g id="Vector" style="mix-blend-mode:normal;" figma:type="vector">
<use xlink:href="#path4_fill" transform="translate(106.747 136.359)" fill="#808285" style="mix-blend-mode:normal;"/>
</g>
<g id="Vector" style="mix-blend-mode:normal;" figma:type="vector">
<use xlink:href="#path5_fill" transform="translate(125.285 136.401)" fill="#808285" style="mix-blend-mode:normal;"/>
</g>
<g id="Vector" style="mix-blend-mode:normal;" figma:type="vector">
<use xlink:href="#path6_fill" transform="translate(140.725 136.161)" fill="#808285" style="mix-blend-mode:normal;"/>
</g>
<g id="Vector" style="mix-blend-mode:normal;" figma:type="vector">
<use xlink:href="#path7_fill" transform="translate(156.837 136.041)" fill="#808285" style="mix-blend-mode:normal;"/>
</g>
<g id="Vector" style="mix-blend-mode:normal;" figma:type="vector">
<use xlink:href="#path8_fill" transform="translate(163.604 136.119)" fill="#808285" style="mix-blend-mode:normal;"/>
</g>
<g id="Vector" style="mix-blend-mode:normal;" figma:type="vector">
<use xlink:href="#path9_fill" transform="translate(181.702 135.961)" fill="#808285" style="mix-blend-mode:normal;"/>
</g>
<g id="Vector" style="mix-blend-mode:normal;" figma:type="vector">
<use xlink:href="#path10_fill" transform="translate(54.3744 135)" fill="#4069B2" style="mix-blend-mode:normal;"/>
</g>
<g id="Vector" style="mix-blend-mode:normal;" figma:type="vector">
<use xlink:href="#path11_fill" transform="translate(62.3824 137.562)" fill="#4069B2" style="mix-blend-mode:normal;"/>
</g>
</g>
</g>
</g>
<defs>
<path id="path0_fill" fill-rule="evenodd" d="M 13.0931 20.3581C 13.1732 20.5984 13.4535 20.7585 13.8539 20.8787C 14.2543 20.9988 14.7347 21.0388 15.2152 21.0789C 15.6957 21.1189 16.0961 21.1189 16.3764 21.1189C 16.6166 21.1189 16.8969 21.0789 17.2172 20.9587C 17.4975 20.8386 17.6577 20.6384 17.6977 20.3181C 17.6977 20.2781 17.6977 20.198 17.6977 20.1579C 17.6977 20.1179 17.6577 20.0779 17.6577 19.9978L 10.9309 0.498276C 10.8509 0.338116 10.6106 0.217996 10.2102 0.137916C 9.80981 0.0578356 9.36937 0.0177955 8.88889 0.0177955C 8.40841 0.0177955 8.08809 -0.0222445 7.80781 0.0177955C 7.56757 0.0177955 7.36737 0.0578356 7.16717 0.177956C 6.96697 0.258036 6.80681 0.418196 6.76677 0.578356L 0.04004 19.9978C 0.04004 20.0378 0 20.0779 0 20.1579C 0 20.198 0 20.2781 0 20.3181C 0.04004 20.6384 0.2002 20.8386 0.480481 20.9587C 0.760761 21.0789 1.04104 21.1189 1.32132 21.1189C 1.6016 21.1189 2.002 21.1189 2.48248 21.0789C 2.96296 21.0388 3.4034 20.9988 3.84384 20.8787C 4.24424 20.7585 4.52452 20.5984 4.6046 20.3581L 5.72573 16.6344L 12.012 16.6344L 13.0931 20.3581ZM 8.80881 6.14392L 10.8108 12.8306L 6.80681 12.8306L 8.80881 6.14392Z"/>
<path id="path1_fill" fill-rule="evenodd" d="M 3.05481e-07 20.026C 0.0400403 20.2262 0.240241 20.3864 0.680681 20.5065C 1.12112 20.6266 1.56156 20.6667 2.08208 20.7067C 2.6026 20.7467 2.96296 20.7467 3.24324 20.7467C 3.52352 20.7467 3.76376 20.6667 3.96396 20.5465C 4.16416 20.4264 4.28428 20.2262 4.28428 20.026L 4.28428 12.6987L 7.00701 12.6987L 11.4915 19.986C 11.6116 20.1461 11.8919 20.3063 12.2923 20.3864C 12.6927 20.5065 13.1331 20.5866 13.6136 20.6266C 14.0941 20.6667 14.4545 20.7067 14.6947 20.7067C 14.8949 20.7067 15.1351 20.6667 15.3754 20.6266C 15.6557 20.5465 15.8158 20.4264 15.9359 20.1862C 16.0561 19.9459 15.976 19.6256 15.6957 19.1451L 11.6116 12.2983C 12.8128 11.978 13.7337 11.3373 14.3744 10.4164C 14.975 9.4955 15.2953 8.13413 15.2953 6.33233C 15.2953 4.61061 15.015 3.28929 14.4545 2.36837C 13.8939 1.44745 13.013 0.806807 11.8919 0.486486C 10.7307 0.126126 9.32933 -0.034034 7.60761 0.00600601L 1.04104 0.00600601C 0.76076 0.00600601 0.520521 0.0860861 0.32032 0.206206C 0.12012 0.326326 3.05481e-07 0.526527 3.05481e-07 0.726727L 3.05481e-07 20.026ZM 7.56757 3.80981C 8.92893 3.76977 9.84985 3.96997 10.2503 4.29029C 10.6507 4.65065 10.8508 5.33133 10.8108 6.33233C 10.8508 7.33333 10.6507 8.01401 10.2503 8.37437C 9.84985 8.73473 8.92893 8.89489 7.56757 8.85485L 4.28428 8.85485L 4.28428 3.80981L 7.56757 3.80981Z"/>
<path id="path2_fill" d="M 8.84885 3.77887C 9.60961 3.77887 10.3303 3.85895 11.0511 3.97907C 11.7317 4.09919 12.4124 4.25935 13.0531 4.41951C 13.2533 4.45955 13.4134 4.29939 13.6136 4.01911C 13.7738 3.69879 13.9339 3.37847 14.0941 2.97807C 14.2543 2.57767 14.3343 2.29739 14.4144 2.05715C 14.4945 1.77687 14.5345 1.53663 14.4545 1.37647C 14.4144 1.17627 14.2543 1.05615 14.014 0.93603C 13.1331 0.57567 12.2923 0.335429 11.4114 0.215309C 10.5706 0.0951891 9.68969 0.015109 8.84885 0.015109L 8.60861 0.015109C 5.72572 -0.105011 3.52352 0.495589 2.12212 1.65675C 0.680681 2.85795 -1.22193e-06 4.89999 -1.22193e-06 7.78288L -1.22193e-06 13.1082C -1.22193e-06 16.0311 0.720721 18.0732 2.12212 19.2343C 3.56356 20.4355 5.72573 20.9961 8.64865 20.956L 8.88889 20.956C 10.0501 20.956 11.1311 20.8359 12.2122 20.5957C 13.2533 20.3554 14.2943 19.9951 15.2152 19.4746C 15.4154 19.3544 15.5355 19.1943 15.5756 18.9941C 15.6156 18.7939 15.6557 18.5937 15.6557 18.4335L 15.6557 11.1462C 15.6557 10.906 15.5355 10.7058 15.3353 10.5456C 15.1351 10.3855 14.8949 10.2654 14.6146 10.2654C 14.3343 10.2654 13.9339 10.3054 13.4535 10.3454C 12.9329 10.3855 12.4925 10.4656 12.0521 10.5857C 11.6116 10.7058 11.4114 10.866 11.3714 11.0662L 11.3714 16.872C 10.8909 16.9921 10.4505 17.0722 10.0901 17.1122C 9.68969 17.1522 9.28929 17.1522 8.88889 17.1522L 8.64865 17.1522C 7.36737 17.1522 6.40641 16.9921 5.8058 16.6317C 5.2052 16.2714 4.80481 15.7508 4.64465 14.9901C 4.48449 14.2694 4.40441 13.3484 4.44445 12.2273L 4.44445 8.66376C 4.40441 7.54264 4.48449 6.62172 4.64465 5.90099C 4.80481 5.18027 5.2052 4.61971 5.8058 4.25935C 6.40641 3.89899 7.36737 3.73883 8.64865 3.73883L 8.84885 3.73883L 8.84885 3.77887Z"/>
<path id="path3_fill" d="M 18.2983 20.4204L 18.2983 0.800801C 18.2983 0.560561 18.1782 0.4004 17.978 0.28028C 17.7778 0.16016 17.5375 0.08008 17.2573 0.08008C 16.977 0.08008 16.5766 0.0800801 16.0961 0.12012C 15.5756 0.16016 15.1351 0.2002 14.6947 0.28028C 14.2543 0.36036 14.0541 0.52052 14.014 0.720721L 14.014 13.3333L 4.28428 0.760761C 4.12412 0.560561 3.96397 0.4004 3.72373 0.24024C 3.52353 0.0800801 3.24324 3.81852e-08 3.003 3.81852e-08C 2.72272 3.81852e-08 2.36236 0 1.88188 0.04004C 1.4014 0.0800801 1.001 0.12012 0.600602 0.2002C 0.200201 0.28028 1.22193e-06 0.44044 1.22193e-06 0.640641L 1.22193e-06 20.3003C 0.0400413 20.5005 0.24024 20.6607 0.680681 20.7808C 1.12112 20.9009 1.56156 20.981 2.08208 21.021C 2.6026 21.0611 2.96296 21.1011 3.24324 21.1011C 3.52352 21.1011 3.76376 21.021 3.96396 20.8208C 4.16416 20.6607 4.28428 20.4605 4.28428 20.2202L 4.28428 7.80781L 14.014 20.4204C 14.1742 20.5806 14.4545 20.7007 14.8549 20.8208C 15.2553 20.9009 15.6957 20.981 16.1762 21.021C 16.6166 21.0611 16.977 21.1011 17.2573 21.1011C 17.5375 21.1011 17.7778 21.021 17.978 20.9009C 18.1782 20.8208 18.2983 20.6607 18.2983 20.4204Z"/>
<path id="path4_fill" fill-rule="evenodd" d="M 1.04105 0.00200056C 0.760766 0.00200056 0.520518 0.0820806 0.320318 0.202201C 0.120118 0.322321 2.44385e-06 0.522521 2.44385e-06 0.722721L 2.44385e-06 19.7417C 0.0400425 19.9019 0.160155 20.022 0.480476 20.1822C 0.760756 20.3023 1.08108 20.3824 1.4014 20.3824L 7.40741 20.3824C 10.3303 20.4224 12.4925 19.8619 13.9339 18.6607C 15.3754 17.4595 16.0561 15.4174 16.0561 12.5345L 16.0561 7.84985C 16.0561 4.92692 15.3353 2.88488 13.9339 1.72372C 12.4925 0.522521 10.3303 -0.0380395 7.40741 0.00200056L 1.04105 0.00200056L 1.04105 0.00200056ZM 7.40741 3.84584C 8.68869 3.84584 9.60961 4.006 10.2102 4.36636C 10.8108 4.72673 11.2112 5.24725 11.3714 6.00801C 11.5315 6.72873 11.6116 7.64965 11.6116 8.77077L 11.6116 11.6937C 11.6116 12.8148 11.5716 13.7357 11.3714 14.4565C 11.2112 15.1772 10.8108 15.7377 10.2102 16.0981C 9.60961 16.4585 8.64865 16.6186 7.40741 16.6186L 4.32432 16.6186L 4.32432 3.84584L 7.40741 3.84584Z"/>
<path id="path5_fill" d="M -2.44385e-06 19.7397C 0.0400376 19.8999 0.200203 20.02 0.480483 20.1802C 0.800803 20.3003 1.12112 20.3804 1.44144 20.3804L 13.0531 20.3804C 13.2533 20.3403 13.3734 20.1802 13.4935 19.8198C 13.5736 19.4595 13.6537 19.0591 13.6537 18.6186C 13.6937 18.1782 13.6937 17.8178 13.6937 17.5776C 13.6937 17.2973 13.6136 17.0971 13.4935 16.8969C 13.3734 16.6967 13.2132 16.6166 12.973 16.5766L 4.28429 16.5766L 4.28429 11.9319L 11.6917 11.9319C 11.8919 11.8919 12.012 11.7317 12.1321 11.3714C 12.2122 11.011 12.2923 10.6106 12.2923 10.1702C 12.3323 9.72973 12.3323 9.36937 12.3323 9.12913C 12.3323 8.84885 12.2523 8.64865 12.1321 8.44845C 12.012 8.24825 11.8518 8.16817 11.6116 8.12813L 4.28429 8.12813L 4.28429 3.8038L 13.0531 3.8038C 13.2533 3.76376 13.3734 3.6036 13.4935 3.24324C 13.5736 2.88288 13.6537 2.48248 13.6537 2.04204C 13.6937 1.6016 13.6937 1.24124 13.6937 1.001C 13.6937 0.720721 13.6136 0.520521 13.4935 0.32032C 13.3734 0.12012 13.2132 0.04004 12.973 0L 1.04104 0C 0.760761 0 0.520525 0.0800801 0.320325 0.2002C 0.120125 0.32032 -2.44385e-06 0.520521 -2.44385e-06 0.720721L -2.44385e-06 19.7397L -2.44385e-06 19.7397Z"/>
<path id="path6_fill" d="M 1.45721 16.2162C 1.25701 16.1762 1.05682 16.3363 0.896657 16.6567C 0.696456 16.977 0.536291 17.3373 0.416171 17.7377C 0.256011 18.1381 0.175936 18.4585 0.0958558 18.6987C -0.0242643 18.979 -0.0242668 19.2192 0.0558133 19.4194C 0.135893 19.6196 0.256016 19.7397 0.496256 19.8599C 1.37714 20.2202 2.25801 20.5005 3.21897 20.6607C 4.13989 20.8208 5.10086 20.9009 6.02178 20.9009C 7.38314 20.9009 8.62438 20.7808 9.78554 20.4605C 10.9467 20.1401 11.8676 19.6196 12.5883 18.8589C 13.3091 18.0981 13.6694 17.017 13.7095 15.6557C 13.6694 14.1742 13.229 12.9329 12.3481 11.9319C 11.4672 10.9309 10.4662 10.01 9.30506 9.16917C 8.1439 8.36837 7.06281 7.52753 6.14189 6.64665C 5.82157 6.32633 5.58134 6.00601 5.42118 5.76577C 5.26102 5.48549 5.22098 5.28529 5.22098 5.08509C 5.26102 4.56457 5.58134 4.24424 6.22198 4.04404C 6.86262 3.84384 7.5433 3.76376 8.26402 3.76376C 8.82458 3.76376 9.38514 3.8038 9.90566 3.92392C 10.4262 4.04404 10.9467 4.12412 11.4272 4.28428C 11.5873 4.32432 11.7475 4.36436 11.8676 4.4044C 11.9877 4.44444 12.0678 4.4044 12.1879 4.36436C 12.4282 4.16416 12.6684 3.8038 12.8686 3.28328C 13.0688 2.76276 13.229 2.36236 13.3491 2.04204C 13.3891 1.92192 13.4292 1.76176 13.4292 1.64164C 13.4292 1.52152 13.4292 1.4014 13.3891 1.28128C 13.269 1.001 12.9887 0.760761 12.4282 0.600601C 11.9077 0.44044 11.3471 0.28028 10.7065 0.2002C 10.1059 0.12012 9.62538 0.04004 9.26502 0.04004C 9.06482 0.04004 8.90466 3.81852e-08 8.70446 3.81852e-08C 8.50426 3.81852e-08 8.3441 3.81852e-08 8.18394 3.81852e-08C 6.94269 3.81852e-08 5.78154 0.16016 4.70046 0.48048C 3.61938 0.800801 2.69845 1.36136 2.01777 2.08208C 1.33709 2.84284 0.976727 3.8038 0.936687 5.04505C 0.976727 6.24625 1.25701 7.24725 1.85762 8.08809C 2.45822 8.92893 3.17894 9.68969 4.05982 10.3303C 4.9407 10.971 5.82158 11.6517 6.70246 12.2923C 7.58334 12.9329 8.3441 13.6937 8.90466 14.4945C 8.98474 14.6146 9.06482 14.7347 9.10486 14.8148C 9.18494 14.9349 9.22498 15.015 9.26502 15.1351C 9.30506 15.2553 9.34509 15.3754 9.34509 15.4955C 9.34509 15.6156 9.38514 15.7357 9.38514 15.8559C 9.38514 16.2563 9.10485 16.5766 8.54429 16.8168C 8.02377 17.017 7.30306 17.1371 6.46222 17.1371C 5.70146 17.1371 4.90066 17.017 4.01977 16.8569C 3.09885 16.6166 2.25802 16.4164 1.45721 16.2162Z"/>
<path id="path7_fill" d="M 4.28428 20.3403L 4.28428 0.720721C 4.28428 0.48048 4.16417 0.32032 3.96397 0.2002C 3.76377 0.08008 3.52352 -3.81852e-08 3.24324 -3.81852e-08C 2.96296 -3.81852e-08 2.6026 1.78993e-08 2.08208 0.0400401C 1.56156 0.0800801 1.12112 0.12012 0.680678 0.2002C 0.240238 0.28028 0.0400449 0.44044 4.8877e-06 0.640641L 4.8877e-06 20.4605C 0.0400449 20.6607 0.240238 20.8208 0.680678 20.9009C 1.12112 20.981 1.56156 21.0611 2.08208 21.0611C 2.6026 21.1011 2.96296 21.1011 3.24324 21.1011C 3.52352 21.1011 3.76377 21.021 3.96397 20.9009C 4.16417 20.7407 4.28428 20.5806 4.28428 20.3403Z"/>
<path id="path8_fill" d="M 8.88888 3.76576C 9.64964 3.76576 10.3704 3.84584 11.0911 3.96596C 11.7718 4.08608 12.4524 4.24624 13.0931 4.4064C 13.2933 4.44644 13.4535 4.28628 13.6537 4.006C 13.8138 3.68568 13.974 3.36536 14.1341 2.96496C 14.2943 2.56456 14.3744 2.28428 14.4545 2.04404C 14.5345 1.76376 14.5746 1.52352 14.4945 1.36336C 14.4545 1.16316 14.2943 1.04304 14.0541 0.922921C 13.1732 0.562561 12.3323 0.322321 11.4515 0.202201C 10.6106 0.0820806 9.72972 0.0020005 8.88888 0.0020005L 8.64865 0.0020005C 5.72573 -0.0380395 3.56356 0.522521 2.12212 1.72372C 0.680678 2.92492 2.44385e-06 4.96697 2.44385e-06 7.84985L 2.44385e-06 13.1752C 2.44385e-06 16.0981 0.720718 18.1401 2.12212 19.3013C 3.56356 20.5025 5.72573 21.0631 8.64865 21.023L 8.88888 21.023C 10.05 21.023 11.1311 20.9029 12.2122 20.6627C 13.2533 20.4224 14.2943 20.0621 15.2152 19.5415C 15.4154 19.4214 15.5355 19.2613 15.5756 19.0611C 15.6156 18.8609 15.6557 18.6607 15.6557 18.5005L 15.6557 11.1331C 15.6557 10.8929 15.5355 10.6927 15.3353 10.5325C 15.1351 10.3724 14.8949 10.2523 14.6146 10.2523C 14.3343 10.2523 13.9339 10.2923 13.4535 10.3323C 12.9329 10.3724 12.4925 10.4525 12.0521 10.5726C 11.6116 10.6927 11.4114 10.8529 11.3714 11.0531L 11.3714 16.8589C 10.8909 16.979 10.4504 17.0591 10.0901 17.0991C 9.68968 17.1391 9.28928 17.1391 8.88888 17.1391L 8.64865 17.1391C 7.36737 17.1391 6.40641 16.979 5.80581 16.6186C 5.20521 16.2583 4.80481 15.7377 4.64465 14.977C 4.48449 14.2563 4.40441 13.3353 4.44445 12.2142L 4.44445 8.65065C 4.40441 7.52953 4.48449 6.60861 4.64465 5.88789C 4.80481 5.16717 5.20521 4.6066 5.80581 4.24624C 6.40641 3.88588 7.36737 3.72572 8.64865 3.72572L 8.88888 3.72572L 8.88888 3.76576Z"/>
<path id="path9_fill" d="M 18.2983 20.4204L 18.2983 0.800801C 18.2983 0.560561 18.1782 0.4004 17.978 0.28028C 17.7778 0.16016 17.5375 0.08008 17.2573 0.08008C 16.977 0.08008 16.5766 0.0800801 16.0961 0.12012C 15.5756 0.16016 15.1351 0.2002 14.6947 0.28028C 14.2543 0.36036 14.054 0.52052 14.014 0.720721L 14.014 13.3333L 4.28428 0.760761C 4.12412 0.560561 3.96397 0.4004 3.72373 0.24024C 3.52353 0.0800801 3.24324 3.81852e-08 3.003 3.81852e-08C 2.72272 3.81852e-08 2.36236 0 1.88188 0.04004C 1.4014 0.0800801 1.001 0.12012 0.600596 0.2002C 0.200195 0.28028 -4.8877e-06 0.44044 -4.8877e-06 0.640641L -4.8877e-06 20.3003C 0.0400352 20.5005 0.24024 20.6607 0.680681 20.7808C 1.12112 20.9009 1.56156 20.981 2.08208 21.021C 2.6026 21.0611 2.96296 21.1011 3.24324 21.1011C 3.52352 21.1011 3.76377 21.021 3.96397 20.8208C 4.16417 20.6607 4.28428 20.4605 4.28428 20.2202L 4.28428 7.80781L 14.014 20.4204C 14.1742 20.5806 14.4545 20.7007 14.8549 20.8208C 15.2553 20.9009 15.6957 20.981 16.1762 21.021C 16.6166 21.0611 16.977 21.1011 17.2573 21.1011C 17.5375 21.1011 17.7778 21.021 17.978 20.9009C 18.1782 20.8208 18.2583 20.6607 18.2983 20.4204Z"/>
<path id="path10_fill" d="M 11.011 22.7027C 4.88489 22.5025 1.22193e-06 17.4575 1.22193e-06 11.2913C 1.22193e-06 5.52553 4.28429 0.760761 9.80981 0C 5.64565 1.96196 2.8028 6.20621 2.8028 11.0911C 2.8028 16.4565 6.20621 21.021 11.011 22.7027Z"/>
<path id="path11_fill" d="M 13.7738 8.28861C 13.7738 12.8932 10.05 16.6169 5.44544 16.6169C 3.68368 16.6169 2.04204 16.0564 0.720723 15.1355C 1.36136 15.3357 2.04204 15.4558 2.76276 15.4558C 6.64665 15.4558 9.76977 12.3327 9.76977 8.44877C 9.76977 4.56488 6.64665 1.44176 2.76276 1.44176C 1.8018 1.44176 0.840842 1.64196 1.22193e-06 2.00232C 1.44144 0.761081 3.36336 0.000319942 5.44544 0.000319942C 10.05 -0.0397201 13.7738 3.684 13.7738 8.28861Z"/>
</defs>
</svg>
