<?xml version="1.0" encoding="utf-8"?>
<!-- Generator: Adobe Illustrator 21.0.0, SVG Export Plug-In . SVG Version: 6.00 Build 0)  -->
<svg version="1.1" id="Layer_1" xmlns="http://www.w3.org/2000/svg" xmlns:xlink="http://www.w3.org/1999/xlink" x="0px" y="0px"
	 viewBox="0 0 162.9 25.4" style="enable-background:new 0 0 162.9 25.4;" xml:space="preserve">
<style type="text/css">
	.st0{fill:#183D64;}
</style>
<path class="st0" d="M35.2,25.4L19.8,1.2c-0.9-1.6-3.5-1.6-4.5,0.1L0,25.4h5l4.6-7.3h9.8l2.6-4.2h-9.8l5.4-8.4l12.5,19.9H35.2z"/>
<path class="st0" d="M162.9,25.4L147.5,1.2c-0.9-1.6-3.5-1.6-4.5,0.1l-15.3,24.2h5l4.6-7.3h9.8l2.6-4.2H140l5.4-8.4l12.5,19.9H162.9
	z"/>
<path class="st0" d="M57.7,15.1c4.2,0,7.5-3.4,7.5-7.5c0-4.2-3.4-7.5-7.5-7.5L37,0v25.4h4.7V4.1h16.1c1.9,0,3.4,1.5,3.4,3.4
	c0,1.9-1.5,3.4-3.4,3.4H44.5l15,14.4h6L54.7,15.1L57.7,15.1z"/>
<polygon class="st0" points="110.7,0 108,4.1 119.3,4.1 119.3,25.4 123.9,25.4 123.9,4.1 133.9,4.1 133.9,0 "/>
<path class="st0" d="M100,10.7L100,10.7H86.7h0c-1.8,0-3.2-1.4-3.2-3.2c0-1.8,1.4-3.2,3.2-3.2l16.5,0l2.6-4.2L86.7,0
	c-4.1,0-7.4,3.3-7.4,7.4c0,4.1,3.3,7.4,7.4,7.4h0H100h0c1.8,0,3.2,1.4,3.2,3.2c0,1.8-1.4,3.2-3.2,3.2h0l-17.4,0L80,25.4l20,0
	c4.1,0,7.4-3.3,7.4-7.4S104.1,10.7,100,10.7"/>
<polygon class="st0" points="70.1,0.1 70.1,25.4 74.8,25.4 74.8,0.1 "/>
</svg>
