<svg width="200" height="64" viewBox="0 0 200 64" version="1.1" xmlns="http://www.w3.org/2000/svg" xmlns:xlink="http://www.w3.org/1999/xlink" xmlns:figma="http://www.figma.com/figma/ns">
<title>arm-logo</title>
<desc>Created using Figma</desc>
<g id="Canvas" transform="translate(-250 -611)" figma:type="canvas">
<g id="arm-logo" style="mix-blend-mode:normal;" figma:type="frame">
<g id="Group" style="mix-blend-mode:normal;" figma:type="frame">
<g id="Group" style="mix-blend-mode:normal;" figma:type="frame">
<g id="Vector" style="mix-blend-mode:normal;" figma:type="vector">
<use xlink:href="#path0_fill" transform="translate(250 611.835)" fill="#128CAB" style="mix-blend-mode:normal;"/>
</g>
<g id="Vector" style="mix-blend-mode:normal;" figma:type="vector">
<use xlink:href="#path1_fill" transform="translate(324.187 611.835)" fill="#128CAB" style="mix-blend-mode:normal;"/>
</g>
<g id="Vector" style="mix-blend-mode:normal;" figma:type="vector">
<use xlink:href="#path2_fill" transform="translate(383.079 611.835)" fill="#128CAB" style="mix-blend-mode:normal;"/>
</g>
</g>
</g>
</g>
</g>
<defs>
<path id="path0_fill" d="M 70.6809 62.1951L 54.0142 62.1951L 48.9329 49.8984L 21.0874 49.8984L 16.4126 62.1951L 0 62.1951L 25.0508 0L 43.0386 0L 70.6809 62.1951ZM 34.2988 14.8374L 25.1524 39.0244L 44.3089 39.0244L 34.2988 14.8374Z"/>
<path id="path1_fill" d="M 27.8455 0C 40.5996 0 48.1707 8.5874 48.1707 17.8862C 48.1707 24.7459 44.6138 29.8272 37.5 33.1301C 43.9024 36.3313 45.7825 44.0041 54.5732 62.1951L 37.5 62.1951C 30.8435 48.8821 28.4045 36.9411 19.9695 36.9411L 15.498 36.9411L 15.498 62.1951L 0 62.1951L 0 0L 27.8455 0ZM 15.5488 25.5081L 23.7297 25.5081C 27.998 25.5081 32.2154 23.6789 32.2154 18.3943C 32.2154 13.7195 29.2175 11.3821 23.374 11.3821L 15.5488 11.3821L 15.5488 25.5081Z"/>
<path id="path2_fill" d="M 53.4045 0L 66.9207 0L 66.9207 62.1951L 51.4228 62.1951L 51.4228 23.3232L 34.6545 42.8354L 32.2663 42.8354L 15.498 23.3232L 15.498 62.1443L -3.10138e-06 62.1443L -3.10138e-06 0L 13.5163 0L 33.4858 23.0691L 53.4045 0Z"/>
</defs>
</svg>
