<?xml version="1.0" encoding="UTF-8" standalone="no"?>
<svg id="svg2" xmlns:rdf="http://www.w3.org/1999/02/22-rdf-syntax-ns#" xmlns="http://www.w3.org/2000/svg" height="3.9807cm" width="13.437cm" version="1.0" xmlns:cc="http://creativecommons.org/ns#" xmlns:dc="http://purl.org/dc/elements/1.1/" viewBox="110.7266 72.2266 1904.5156 564.1953">
 <metadata id="metadata22">
  <rdf:RDF>
   <cc:Work rdf:about="">
    <dc:format>image/svg+xml</dc:format>
    <dc:type rdf:resource="http://purl.org/dc/dcmitype/StillImage"/>
    <dc:title/>
   </cc:Work>
  </rdf:RDF>
 </metadata>
 <desc id="desc4">Exported by the ArtWorks SVGExport module.
  Source document: Mem::Memphis.$.Untitled1</desc>
 <g id="g6" stroke-linejoin="bevel" fill-rule="evenodd" transform="matrix(1 0 0 -1 0 708.6484)" stroke-linecap="butt" clip-rule="evenodd" stroke-miterlimit="16" fill="#FFF">
  <g id="g8" fill="#FFF">
   <g id="g10" fill-rule="nonzero" fill="#FFF">
    <path id="path12" d="M728.38,72.227,582.42,72.227,537.84,184.02,294.57,184.02,254.03,72.227,110.73,72.227,329.81,636.42,486.88,636.42,728.38,72.227zm-318.2,429.52-79.67-219.08,167.5,0-87.83,219.08z"/>
    <path id="path14" d="M1002.9,636.42c111.6,0,177.7-77.41,177.7-161.82,0-62.01-31-108.61-93.3-138.25,55.7-29.02,72.7-98.49,149.2-264.12h-149.2c-58.3,121.05-79.6,229.27-153.15,229.27h-38.98v-229.27h-135.52v564.19h243.25zm-107.73-231.3,71.97,0c37.36,0,74.06,16.34,74.06,64.5,0,42.09-26.3,63.64-77.41,63.64h-68.62v-128.14z"/>
    <path id="path16" d="M1741,636.42,1859.1,636.42,1859.1,72.227,1723.6,72.227,1723.6,424.8,1577.1,247.81,1556.1,247.81,1409.4,424.8,1409.4,72.227,1273.8,72.227,1273.8,636.42,1391.8,636.42,1566.5,427.3,1741,636.42z"/>
   </g>
  </g>
 </g>
</svg>
