<?xml version="1.0" encoding="UTF-8" standalone="no"?>
<!-- Created with Inkscape (http://www.inkscape.org/) -->
<svg id="svg2" xmlns:rdf="http://www.w3.org/1999/02/22-rdf-syntax-ns#" xmlns="http://www.w3.org/2000/svg" xml:space="preserve" viewBox="0 0 787.29 203.46" version="1.1" xmlns:cc="http://creativecommons.org/ns#" xmlns:dc="http://purl.org/dc/elements/1.1/"><metadata id="metadata8"><rdf:RDF><cc:Work rdf:about=""><dc:format>image/svg+xml</dc:format><dc:type rdf:resource="http://purl.org/dc/dcmitype/StillImage"/><dc:title/></cc:Work></rdf:RDF></metadata><defs id="defs6"><clipPath id="clipPath16" clipPathUnits="userSpaceOnUse"><path id="path18" d="m0,14400,14400,0v-14400h-14400v14400z"/></clipPath></defs><g id="g10" transform="matrix(1.25,0,0,-1.25,-8607.8832,9100.7921)"><g id="g12"><g id="g14" clip-path="url(#clipPath16)"><g id="g20" transform="translate(7057.6914,7208.1123)"><path id="path22" fill-rule="nonzero" fill="#ffffff" d="m0,0c-2.932,0-4.216,2.606-4.216,11.792,0,8.401,0.857,11.504,4.216,11.504,3.335,0,4.19-3.103,4.19-11.504,0-9.186-1.303-11.792-4.19-11.792m0,30.655c-10.954,0-16.396-8.027-16.396-18.863,0-11.279,5.223-19.162,16.396-19.162,11.146,0,16.369,7.883,16.369,19.162,0,10.836-5.426,18.863-16.369,18.863"/></g><g id="g24" transform="translate(7081.6392,7241.8652)"><path id="path26" fill-rule="nonzero" fill="#ffffff" d="m0,0,0-4.032-4.801,0,0-8.267,4.801,0,0-28.044,11.747,0,0,28.044,6.377,0,0,8.267-6.377,0,0,3.658c0,2.217,1.1,3.424,4.2,3.424,0.657,0,1.514-0.139,2.177-0.294v8.967c-1.902,0.219-3.643,0.438-5.95,0.438-7.749,0-12.174-3.258-12.174-12.161"/></g><g id="g28" transform="translate(6944.6724,7210.7666)"><path id="path30" fill-rule="nonzero" fill="#ffffff" d="m0,0c-1.007-1.309-2.43-2.259-3.771-2.259-2.109,0-3.41,1.324-3.41,3.862,0,4.619,3.074,6.184,7.181,6.585v-8.188zm11.741,16.855c0,8.027-7.308,11.056-14.355,11.056-6.668,0-13.192-2.874-14.5-10.057l10.222-2.088c0.115,2.115,1.038,4.774,3.845,4.774,2.035,0,3.047-1.441,3.047-3.6v-3.124c-7.75-0.891-18.458-3.701-18.716-13.132-0.18-6.671,4.283-10.623,10.15-10.623,3.447,0,6.913,1.912,8.932,4.011,0.058-0.614,0.141-2.313,0.365-3.322h12.102c-0.437,0.497-1.092,1.741-1.092,5.848v20.257z"/></g><g id="g32" transform="translate(6985.2134,7238.6875)"><path id="path34" fill-rule="nonzero" fill="#ffffff" d="m0,0c-4.574,0-7.806-2.115-10.244-4.582h-0.138l-0.048,3.728h-11.502v-36.312h11.742v25.956c1.079,1.378,2.494,2.249,3.818,2.249,1.974,0,2.719-1.138,2.719-3.221v-24.984h11.752v28.712c0,4.977-2.959,8.454-8.099,8.454"/></g><g id="g36" transform="translate(7032.8096,7237.833)"><path id="path38" fill-rule="nonzero" fill="#ffffff" d="m0,0-11.667,0-8.652-10.975-0.147,0,0,26.154-11.746,0,0-51.49,11.746,0,0,12.999,2.462,2.841,0.147,0,5.741-15.84,12.169,0l-9.883,25.128,9.83,11.183z"/></g><g id="g40" transform="translate(6903.7598,7211.0713)"><path id="path42" fill-rule="nonzero" fill="#ffffff" d="m0,0-4.78,0,0,12.871,4.78,0c4.217,0,6.591-2.548,6.591-6.377,0-5.266-3.763-6.494-6.591-6.494m-4.78,32.824,4.567,0c2.974,0,6.288-0.791,6.288-5.704,0-3.039-1.858-5.581-6.572-5.581h-4.283v11.285zm14.46-15.59,0,0.39c3.736,1.458,8.417,4.999,8.417,11.744,0,7.092-6.005,12.583-15.143,12.583h-20.404v-51.5h19.878c9.805,0,16.9,4.966,16.9,13.774,0,6.6-4.054,11.167-9.648,13.009"/></g><g id="g44" transform="translate(7337.8281,7210.7666)"><path id="path46" fill-rule="nonzero" fill="#ffffff" d="m0,0c-1.03-1.309-2.445-2.259-3.775-2.259-2.1,0-3.418,1.324-3.418,3.862,0,4.619,3.07,6.184,7.193,6.585v-8.188zm11.734-3.402,0,20.257c0,8.027-7.317,11.056-14.356,11.056-6.676,0-13.202-2.874-14.494-10.057l10.2-2.088c0.149,2.115,1.041,4.774,3.867,4.774,2.008,0,3.049-1.441,3.049-3.6v-3.124c-7.775-0.891-18.479-3.701-18.729-13.132-0.176-6.671,4.261-10.623,10.136-10.623,3.461,0,6.933,1.912,8.941,4.011,0.052-0.614,0.144-2.313,0.352-3.322h12.113c-0.438,0.497-1.079,1.741-1.079,5.848"/></g><g id="g48" transform="translate(7225.8457,7224.1074)"><path id="path50" fill-rule="nonzero" fill="#ffffff" d="M0,0-8.765,0c-0.192,3.408,1.004,7.306,4.337,7.306,4.07,0,4.539-3.947,4.428-7.306m-4.332,14.666c-10.81,0-16.182-8.673-16.182-18.949,0-10.04,5.069-19.088,16.311-19.088,10.457,0,14.066,8.241,14.58,9.913l-7.921,2.905c-0.582-2.943-2.985-4.999-5.794-4.999-4.732,0-5.598,5.367-5.427,8.599h19.644v2.462c0,9.464-3.92,19.157-15.211,19.157"/></g><g id="g52" transform="translate(7268.3945,7201.522)"><path id="path54" fill-rule="nonzero" fill="#ffffff" d="m0,0,6.291,0,5.453,0,0,36.311h-11.744v-36.311z"/></g><g id="g56" transform="translate(7268.3945,7242.6025)"><path id="path58" fill-rule="nonzero" fill="#ffffff" d="m0,0,11.744,0,0,10.414-6.041,0h-5.703v-10.414z"/></g><g id="g60" transform="translate(7302.2061,7231.4082)"><path id="path62" fill-rule="nonzero" fill="#ffffff" d="M0,0c1.886,0,2.836-1.009,3.413-2.457,0.513-1.383,0.582-3.118,0.582-4.571h10.003c0,3.626-1.891,14.393-14.345,14.393-11.092,0-16.599-9.907-16.599-19.808,0-8.968,5.507-18.218,16.107-18.218,8.546,0,13.609,4.615,14.485,13.437l-9.127,1.304c0-2.74-0.391-6.927-4.519-6.927-3.022,0-4.342,2.654-4.342,10.852,0,7.215,0.439,11.995,4.342,11.995"/></g><g id="g64" transform="translate(7123.459,7221.042)"><path id="path66" fill-rule="nonzero" fill="#ffffff" d="m0,0,4.348,20.983,0.275,0l3.701-20.983h-8.324zm-3.266,31.964-12.107-51.484,11.298,0,2.249,10.404,11.981,0,2.03-10.404,12.676,0-11.037,51.484-17.09,0z"/></g><g id="g68" transform="translate(7253.2432,7232.8984)"><path id="path70" fill-rule="nonzero" fill="#ffffff" d="m0,0-0.214,0-0.101,4.935-11.375,0,0-36.311,11.749,0,0,23.504c1.41,1.623,3.444,2.809,6.44,2.809,2.041,0,3.472-0.497,4.807-1.009v11.861c-4.529,0-8.919-1.955-11.306-5.789"/></g><g id="g72" transform="translate(7192.0361,7238.6875)"><path id="path74" fill-rule="nonzero" fill="#ffffff" d="m0,0c-4.911,0-8.433-2.648-10.479-4.854h-0.175c-1.082,2.798-3.472,4.854-7.032,4.854-4.387,0-8.083-2.253-10.518-4.561h-0.163l-0.051,3.707h-11.472v-36.312h11.523v25.892c0.996,1.325,2.761,2.238,3.992,2.238,2.182,0,2.767-1.303,2.767-3.258v-24.872h11.522v25.892c0.756,1.004,2.446,2.238,4.011,2.238,2.137,0,2.734-1.303,2.734-3.258v-24.872h11.531v28.941c0,5.01-3.317,8.225-8.19,8.225"/></g><g id="g76" transform="translate(6886.3066,7180.3672)"><path id="path78" fill-rule="nonzero" fill="#ffffff" d="m0,0,18.313,0,5.6-28.925,0.15,0l6.617,28.925h17.805v-51.617h-13.087v38.127h-0.142l-8.935-38.127h-7.93l-8.209,39.429h-0.147v-39.429h-10.035v51.617z"/></g><g id="g80" transform="translate(6959.8105,7151.2871)"><path id="path82" fill-rule="nonzero" fill="#ffffff" d="M0,0c-0.067,3.402-0.355,7.317-4.425,7.317-3.343,0-4.371-3.915-4.371-7.317h8.796zm-8.796-6.953c0-3.193,0.662-8.625,5.317-8.625,2.833,0,5.223,2.024,5.959,4.999l7.916-2.905c-0.505-1.667-4.14-9.934-14.602-9.934-11.277,0-16.358,9.068-16.358,19.13,0,10.308,5.375,19.002,16.214,19.002,11.338,0,15.264-9.709,15.264-19.205v-2.462h-19.71z"/></g><g id="g84" transform="translate(6974.9512,7165.1357)"><path id="path86" fill-rule="nonzero" fill="#ffffff" d="m0,0,11.56,0,0-5.512,0.149,0c1.448,4.567,6.682,6.377,11.336,6.377v-11.883c-1.602,0.572-3.132,1.015-4.796,1.015-3.931,0-5.167-1.015-6.481-2.825v-23.558h-11.768v36.386z"/></g><g id="g88" transform="translate(7001.999,7165.1357)"><path id="path90" fill-rule="nonzero" fill="#ffffff" d="m0,0,11.56,0,0-5.512,0.155,0c1.442,4.567,6.676,6.377,11.319,6.377v-11.883c-1.586,0.572-3.116,1.015-4.796,1.015-3.917,0-5.156-1.015-6.459-2.825v-23.558h-11.779v36.386z"/></g><g id="g92" transform="translate(7030.2139,7165.1357)"><path id="path94" fill-rule="nonzero" fill="#ffffff" d="m0,0,11.779,0,0-36.386-5.934,0-5.845,0v36.386zm0,15.231,4.67,0,7.109,0,0-10.429-11.779,0,0,10.429z"/></g><g id="g96" transform="translate(7049.1172,7146.4219)"><path id="path98" fill-rule="nonzero" fill="#ffffff" d="m0,0,0,33.945,11.768,0,0-51.623h-11.768v17.678z"/></g><g id="g100" transform="translate(7066.5732,7180.3672)"><path id="path102" fill-rule="nonzero" fill="#ffffff" d="m0,0,11.773,0,0-18.131,0-33.486h-11.773v51.617z"/></g><g id="g104" transform="translate(7104.0195,7180.3672)"><path id="path106" fill-rule="nonzero" fill="#ffffff" d="m0,0,13.082,0,0-42.49,17.733,0,0-9.127h-30.815v51.617z"/></g><g id="g108" transform="translate(7148.8809,7165.1357)"><path id="path110" fill-rule="nonzero" fill="#ffffff" d="m0,0,4.291-21.096,0.147,0l5.015,21.096h9.221l-12.286-37.556c-2.468-7.53-7.854-9.715-14.816-9.715-1.167,0-2.331,0.151-3.49,0.3v8.326c1.018-0.219,2.105-0.352,3.127-0.352,3.557,0,6.612,1.015,6.612,4.342,0,0.87-0.158,2.109-0.512,3.268l-9.456,31.387h12.147z"/></g><g id="g112" transform="translate(7171.5732,7165.1357)"><path id="path114" fill-rule="nonzero" fill="#ffffff" d="m0,0,11.771,0,0-4.859,0.141,0c2.473,3.695,6.18,5.724,10.396,5.724,4.721,0,7.787-3.182,7.787-8.186v-29.065h-11.784v25.737c0,1.949-0.649,3.257-2.829,3.257-1.247,0-2.251-0.506-3.049-1.521l-0.662-0.876v-26.597h-11.771v36.386z"/></g><g id="g116" transform="translate(7226.9082,7151.5811)"><path id="path118" fill-rule="nonzero" fill="#ffffff" d="m0,0c0,1.442-0.075,3.188-0.599,4.562-0.576,1.462-1.516,2.461-3.407,2.461-3.931,0-4.368-4.78-4.368-12.027,0-8.198,1.313-10.874,4.368-10.874,4.145,0,4.502,4.203,4.502,6.959l9.16-1.318c-0.876-8.824-5.955-13.475-14.538-13.475-10.606,0-16.128,9.281-16.128,18.271,0,9.927,5.522,19.867,16.641,19.867,12.498,0,14.393-10.805,14.393-14.426h-10.024z"/></g><g id="g120" transform="translate(7241.6055,7180.3672)"><path id="path122" fill-rule="nonzero" fill="#ffffff" d="m0,0,11.771,0,0-20.086,0.133,0c2.479,3.695,6.18,5.726,10.405,5.726,4.714,0,7.775-3.189,7.775-8.199v-29.058h-11.776v25.736c0,1.955-0.662,3.258-2.836,3.258-1.244,0-2.248-0.507-3.06-1.522l-0.641-0.881v-26.591h-11.771v51.617z"/></g><g id="g124" transform="translate(7420.5391,7261.2573)"><path id="path126" fill-rule="evenodd" fill="#ffffff" d="m0,0c4.604-1.858,9.213-3.824,13.758-5.864-14.42-5.81-28.36-12.807-41.653-20.658-4.48,2.308-9.051,4.551-13.661,6.606,13.273,7.729,27.168,14.41,41.556,19.916"/></g><g id="g128" transform="translate(7403.3428,7267.3032)"><path id="path130" fill-rule="evenodd" fill="#ffffff" d="m0,0c-14.954-4.748-29.31-10.906-43.02-18.436,4.374-1.56,8.69-3.231,12.999-5.025,13.17,7.792,27.147,14.291,41.69,19.471-3.829,1.41-7.733,2.745-11.669,3.99"/></g><g id="g132" transform="translate(7451.7773,7261.8398)"><path id="path134" fill-rule="evenodd" fill="#ffffff" d="m0,0c-11.713,5.677-23.959,10.473-36.541,14.254-4.406-1.271-8.764-2.638-13.133-4.118,12.941-3.84,25.561-8.699,37.641-14.473,3.931,1.501,7.936,2.969,12.033,4.337"/></g><g id="g136" transform="translate(7470.9502,7267.5327)"><path id="path138" fill-rule="evenodd" fill="#ffffff" d="M0,0c-12.032,5.261-24.519,9.645-37.188,13.101-4.058-0.833-8.096-1.757-12.053-2.751,12.62-3.706,24.866-8.352,36.733-13.933,4.15,1.281,8.294,2.483,12.508,3.583"/></g><g id="g140" transform="translate(7501.7607,7257.209)"><path id="path142" fill-rule="evenodd" fill="#ffffff" d="m0,0c-30.17-10.12-58.448-24.609-84.02-42.704,6.334-3.915,12.61-8.043,18.682-12.454,24.129,19.066,50.875,34.96,79.715,47.056-4.743,2.858-9.507,5.576-14.377,8.102"/></g><g id="g144" transform="translate(7481.0547,7267.0576)"><path id="path146" fill-rule="evenodd" fill="#ffffff" d="m0,0c-31.419-8.278-60.899-21.646-87.539-39.206,6.014-2.991,11.883-6.137,17.667-9.437,26.041,17.96,54.966,32.028,85.809,41.241-5.213,2.654-10.591,5.094-15.937,7.402"/></g><g id="g148" transform="translate(7449.6406,7202.2056)"><path id="path150" fill-rule="nonzero" fill="#ffffff" d="m0,0c-1.404,0-2.537,1.074-2.537,2.473,0,1.346,1.133,2.419,2.537,2.419,1.416,0,2.548-1.073,2.548-2.419,0-1.399-1.132-2.473-2.548-2.473m0,5.485c-1.714,0-3.141-1.367-3.141-3.012,0-1.704,1.427-3.066,3.141-3.066,1.736,0,3.146,1.362,3.146,3.066,0,1.645-1.41,3.012-3.146,3.012"/></g><g id="g152" transform="translate(7449.5879,7204.9561)"><path id="path154" fill-rule="nonzero" fill="#ffffff" d="m0,0-0.583,0,0,1.02,0.908,0c0.439,0,0.828-0.069,0.828-0.497,0-0.608-0.673-0.523-1.153-0.523m1.671,0.502c0,0.283-0.139,0.598-0.384,0.753-0.278,0.128-0.577,0.15-0.86,0.15h-1.528v-3.403h0.518v1.571h0.609l1.004-1.571h0.599l-1.079,1.571c0.624,0.016,1.121,0.256,1.121,0.929"/></g></g></g></g></svg>
