<?xml version="1.0" encoding="UTF-8" standalone="no"?>
<svg width="300px" height="110px" viewBox="0 0 300 110" version="1.1" xmlns="http://www.w3.org/2000/svg" xmlns:xlink="http://www.w3.org/1999/xlink" xmlns:sketch="http://www.bohemiancoding.com/sketch/ns">
    <!-- Generator: Sketch 3.4.2 (15855) - http://www.bohemiancoding.com/sketch -->
    <title>cambridgelive-logo</title>
    <desc>Created with Sketch.</desc>
    <defs></defs>
    <g id="Logos" stroke="none" stroke-width="1" fill="none" fill-rule="evenodd" sketch:type="MSPage">
        <g id="Artboard-1" sketch:type="MSArtboardGroup" transform="translate(-25.000000, -404.000000)" fill="#FEFEFE">
            <g id="cambridgelive-logo" sketch:type="MSLayerGroup" transform="translate(25.000000, 404.000000)">
                <path d="M152.366636,19.3590993 L147.805974,19.3590993 L150.101195,13.5763787 L152.366636,19.3590993 Z M161.522702,27.3780331 L152.860754,6.89365809 L147.423805,6.89365809 L138.767371,27.3780331 L144.693474,27.3780331 L146.148805,23.7482537 L153.992923,23.7482537 L155.475276,27.3780331 L161.522702,27.3780331 Z M200.890533,20.9875919 C200.890533,22.1820772 199.903952,22.851011 198.190533,22.851011 L193.832261,22.851011 L193.832261,19.1004596 L198.132077,19.1004596 C200.020312,19.1004596 200.890533,19.8245404 200.890533,20.9285846 L200.890533,20.9875919 Z M200.048437,13.3734375 C200.048437,14.5651654 199.091085,15.1475184 197.373805,15.1475184 L193.832261,15.1475184 L193.832261,11.5695772 L197.492371,11.5695772 C199.181526,11.5695772 200.048437,12.2136949 200.048437,13.317739 L200.048437,13.3734375 Z M202.489246,16.7462316 C204.289798,15.9642463 205.630974,14.5651654 205.630974,12.2136949 L205.630974,12.1502757 C205.630974,10.7561581 205.134099,9.68244485 204.317923,8.87012868 C203.126746,7.67895221 201.327849,7.03924632 198.770129,7.03924632 L188.337408,7.03924632 L188.337408,27.3769301 L198.82693,27.3769301 C203.680423,27.3769301 206.530423,25.2570772 206.530423,21.7717831 L206.530423,21.7188419 C206.530423,18.9559743 204.965349,17.5590993 202.489246,16.7462316 L202.489246,16.7462316 Z M221.535386,14.3925551 C221.535386,15.8749081 220.431342,16.8008272 218.51057,16.8008272 L214.793658,16.8008272 L214.793658,11.920864 L218.482996,11.920864 C220.375092,11.920864 221.535386,12.7359375 221.535386,14.3335478 L221.535386,14.3925551 Z M227.200643,14.0412684 L227.200643,13.9866728 C227.200643,11.9787684 226.58796,10.4136949 225.398989,9.24954044 C224.029687,7.85487132 221.882261,7.03924632 218.775827,7.03924632 L209.15432,7.03924632 L209.15432,27.3780331 L214.793658,27.3780331 L214.793658,21.2181066 L217.260386,21.2181066 L221.357261,27.3780331 L227.868474,27.3780331 L223.017187,20.2905331 C225.544026,19.214614 227.200643,17.1499081 227.200643,14.0412684 L227.200643,14.0412684 Z M253.091636,17.2414522 C253.091636,20.5243566 250.854871,22.3844669 247.482077,22.3844669 L245.189063,22.3844669 L245.189063,12.0388787 L247.482077,12.0388787 C250.854871,12.0388787 253.091636,13.9238051 253.091636,17.1824449 L253.091636,17.2414522 Z M258.876011,17.1499081 L258.876011,17.0936581 C258.876011,11.2249081 254.662224,7.03924632 247.396048,7.03924632 L239.553033,7.03924632 L239.553033,27.3780331 L247.284099,27.3780331 C254.604871,27.3780331 258.876011,23.0230699 258.876011,17.1499081 L258.876011,17.1499081 Z M121.653033,37.9149816 L121.653033,96.8313419 L164.417371,96.8313419 L164.417371,85.045864 L134.74329,85.045864 L134.74329,37.9149816 L121.653033,37.9149816 Z M170.599908,96.8335478 L183.697335,96.8335478 L183.697335,37.9149816 L170.599908,37.9149816 L170.599908,96.8335478 Z M234.63171,37.9149816 L219.075276,79.4087316 L203.516636,37.9149816 L189.064246,37.9149816 L213.12546,97.2570772 L224.687592,97.2570772 L248.746599,37.9149816 L234.63171,37.9149816 Z M254.029136,37.9149816 L254.029136,96.8313419 L299.340165,96.8313419 L299.340165,85.2945772 L267.033915,85.2945772 L267.033915,72.9300551 L295.088879,72.9300551 L295.088879,61.3982537 L267.033915,61.3982537 L267.033915,49.4484375 L298.916636,49.4484375 L298.916636,37.9149816 L254.029136,37.9149816 Z M129.56443,27.7894301 C134.072151,27.7894301 136.656342,25.8421875 138.576562,23.1956801 L134.33079,20.1714154 C133.11204,21.6554228 131.859651,22.6420037 129.742004,22.6420037 C126.890901,22.6420037 124.884099,20.2585478 124.884099,17.2111213 L124.884099,17.1499081 C124.884099,14.1890625 126.890901,11.7730699 129.742004,11.7730699 C131.685937,11.7730699 133.023805,12.7050551 134.187408,14.1576287 L138.43318,10.8747243 C136.626011,8.37601103 133.956893,6.63226103 129.798254,6.63226103 C123.638327,6.63226103 119.071599,11.2817096 119.071599,17.2111213 L119.071599,17.2651654 C119.071599,23.3423713 123.756893,27.7894301 129.56443,27.7894301 L129.56443,27.7894301 Z M163.360202,27.3780331 L168.873254,27.3780331 L168.873254,15.7585478 L174.047151,23.6589154 L174.163511,23.6589154 L179.366085,15.697886 L179.366085,27.3780331 L184.975643,27.3780331 L184.975643,7.03373162 L179.015901,7.03373162 L174.163511,14.9125919 L169.311673,7.03373162 L163.360202,7.03373162 L163.360202,27.3780331 Z M229.93318,27.3769301 L235.59954,27.3769301 L235.59954,7.03373162 L229.93318,7.03373162 L229.93318,27.3769301 Z M271.689982,27.7894301 C275.384283,27.7894301 278.37546,26.4217831 280.528401,24.6532169 L280.528401,15.4943934 L271.172702,15.4943934 L271.172702,19.6227022 L275.177482,19.6227022 L275.177482,22.0960478 C274.334283,22.6420037 273.292555,22.9359375 271.927114,22.9359375 C268.699908,22.9359375 266.402482,20.5806066 266.402482,17.2977022 L266.402482,17.2414522 C266.402482,14.1306066 268.667371,11.6611213 271.603952,11.6611213 C273.610202,11.6611213 275.06443,12.3548713 276.517555,13.5780331 L279.827482,9.5953125 C277.677298,7.74181985 275.149357,6.63226103 271.574724,6.63226103 C265.271415,6.63226103 260.616452,11.2817096 260.616452,17.2111213 L260.616452,17.2651654 C260.616452,23.4295037 265.357996,27.7894301 271.689982,27.7894301 L271.689982,27.7894301 Z M282.982445,27.3780331 L299.481893,27.3780331 L299.481893,22.5840993 L288.558364,22.5840993 L288.558364,19.3590993 L298.318842,19.3590993 L298.318842,14.9125919 L288.558364,14.9125919 L288.558364,11.8320772 L299.340165,11.8320772 L299.340165,7.03373162 L282.982445,7.03373162 L282.982445,27.3780331 Z" id="Fill-1" sketch:type="MSShapeGroup"></path>
                <path d="M69.8493199,37.6265625 L96.5140257,19.6420037 C95.2985846,18.0807904 94.034614,16.6502757 92.4789154,15.0940257 C90.0160478,12.6311581 87.2024449,10.3530331 84.2824081,8.45652574 C81.3607169,6.55946691 78.9325919,5.29659926 75.7026287,3.99071691 C72.4737684,2.68648897 69.8493199,1.90891544 66.4313051,1.24384191 C63.0132904,0.579319853 60.2884743,0.317922794 56.806489,0.317922794 C53.3234007,0.317922794 49.7239522,0.695680147 46.3164154,1.41920956 C42.9094301,2.14329044 40.2987684,2.9671875 37.0930699,4.32766544 C34.5761581,5.39696691 32.5434375,6.44917279 30.3921507,7.78814338 L48.4153125,34.7092831 C48.8410478,34.4837316 49.2767096,34.2730699 49.7228493,34.0772978 C50.7756066,33.6206801 51.8840625,33.2644301 53.0278125,33.0046875 C54.2493199,32.7328125 55.5099816,32.5778493 56.806489,32.5579963 C56.9079596,32.554136 57.0088787,32.5403493 57.1125551,32.5403493 C58.1995037,32.5403493 59.2566728,32.6534007 60.2917831,32.8331801 C61.4631066,33.0344669 62.5919669,33.3460478 63.678364,33.7585478 C64.7868199,34.1787684 65.8417831,34.701011 66.8371875,35.3153493 C67.9224816,35.9842831 68.9300184,36.7574449 69.8493199,37.6265625 L69.8493199,37.6265625 Z M37.4316728,28.7175551 L19.399136,1.77987132 C17.028364,3.45027574 15.1086949,5.05726103 12.9552022,7.21020221 C10.9042831,9.26498162 9.0028125,11.5679228 7.32358456,13.9657169 L34.6296507,31.4969669 C35.0338787,31.0320772 35.4419669,30.5710478 35.8770772,30.1348346 C36.3717463,29.6379596 36.9006066,29.1752757 37.4316728,28.7175551 L37.4316728,28.7175551 Z M7.73994485,31.1054228 C6.60446691,33.922886 5.87652574,36.3090993 5.26549632,39.136489 L36.9800184,45.2715993 C37.1774449,44.5662684 37.4029963,43.8719669 37.6748713,43.1980699 C37.9781801,42.4420037 38.3371875,41.7173713 38.7265257,41.0120404 L11.5517096,23.5668199 C10.0131066,26.0440257 8.88755515,28.2686581 7.73994485,31.1054228 L7.73994485,31.1054228 Z M32.1546507,50.2386949 L0.707591912,44.1554228 C0.217334559,46.9938419 5.51470588e-05,49.4749081 5.51470588e-05,52.5024816 C5.51470588e-05,55.9861213 0.378363971,59.5861213 1.10244485,62.9925551 C1.82707721,66.398989 2.64987132,69.0090993 4.01090074,72.2159007 C5.16954044,74.9451287 6.31273897,77.105239 7.8215625,79.4655331 L34.3809375,61.5515625 C34.099136,60.9311581 33.8371875,60.2986213 33.6061213,59.6528493 C33.2112684,58.561489 32.871011,57.445864 32.6311213,56.2899816 C32.3763419,55.0607537 32.243989,53.7907169 32.1761581,52.5024816 C32.1535478,52.063511 32.1094301,51.632261 32.1094301,51.1877757 C32.1094301,50.8662684 32.1342463,50.5535846 32.1546507,50.2386949 L32.1546507,50.2386949 Z M40.9478493,64.1098346 L14.4601654,81.9774816 C16.212739,84.5043199 17.8660478,86.4741728 20.1160478,88.7258272 C22.0996875,90.7105699 24.321011,92.555239 26.6355331,94.1964154 L44.140864,67.2405331 C43.6660478,66.8688419 43.1995037,66.4910846 42.7621875,66.0818934 C42.1086949,65.4703125 41.514761,64.8030331 40.9478493,64.1098346 L40.9478493,64.1098346 Z M45.7665993,75.3741728 L28.2458272,102.355974 C30.6700919,103.853768 32.8765257,104.976011 35.6614522,106.099908 C38.8903125,107.405239 41.5136581,108.181158 44.9338787,108.847886 C47.8506066,109.413695 50.2853493,109.673438 53.092886,109.742371 L53.092886,77.6203125 C52.4140257,77.5160846 51.7395772,77.394761 51.0761581,77.2403493 C49.9318566,76.972886 48.817886,76.6287684 47.7342463,76.2168199 C47.0636581,75.9631434 46.4101654,75.679136 45.7665993,75.3741728 L45.7665993,75.3741728 Z M58.886636,101.67546 C61.8728493,101.578952 64.9048346,101.235386 67.8017096,100.622151 C71.2092463,99.8953125 73.8199081,99.0730699 77.028364,97.7136949 C80.2318566,96.3515625 82.6384743,95.0451287 85.5232169,93.098989 C88.4112684,91.1500919 90.5222978,89.4090993 92.9868199,86.9467831 C95.1761581,84.7568934 97.1995037,82.2835478 98.9586949,79.7098346 L91.7989522,75.0824449 L71.889761,62.2999081 C71.3818566,62.9721507 70.8441728,63.6179228 70.2518934,64.2118566 C69.4263419,65.0418199 68.5202757,65.789614 67.5518934,66.4513787 C66.5851654,67.1081801 65.5550184,67.6717831 64.474136,68.1410846 C63.4059375,68.6026654 62.2881066,68.9594669 61.1278125,69.2170037 C60.3965625,69.379136 59.6476654,69.4888787 58.886636,69.5594669 L58.886636,101.67546 Z" id="Fill-3" sketch:type="MSShapeGroup"></path>
            </g>
        </g>
    </g>
</svg>