<?xml version="1.0" encoding="UTF-8" standalone="no"?>
<svg
   xmlns:dc="http://purl.org/dc/elements/1.1/"
   xmlns:cc="http://creativecommons.org/ns#"
   xmlns:rdf="http://www.w3.org/1999/02/22-rdf-syntax-ns#"
   xmlns:svg="http://www.w3.org/2000/svg"
   xmlns="http://www.w3.org/2000/svg"
   viewBox="0 0 1889.3333 473.16"
   height="473.16"
   width="1889.3333"
   xml:space="preserve"
   id="svg2"
   version="1.1"><metadata
     id="metadata8"><rdf:RDF><cc:Work
         rdf:about=""><dc:format>image/svg+xml</dc:format><dc:type
           rdf:resource="http://purl.org/dc/dcmitype/StillImage" /></cc:Work></rdf:RDF></metadata><defs
     id="defs6" /><g
     transform="matrix(1.3333333,0,0,-1.3333333,0,473.16)"
     id="g10"><g
       transform="scale(0.1)"
       id="g12"><path
         id="path14"
         style="fill:#656263;fill-opacity:1;fill-rule:nonzero;stroke:none"
         d="m 4691.21,1549.02 c -102.61,45.07 -211.43,61.56 -322.23,61.56 -437.14,0 -757.32,-293.57 -757.32,-734.842 0,-455.508 301.71,-747.019 755.31,-747.019 84.14,0 217.51,6.09 326.29,51.32 l -12.31,199.141 c -71.83,-43.129 -209.37,-69.899 -311.97,-69.899 -297.6,0 -539.75,223.828 -539.75,560.36 0,322.119 219.63,560.229 550.04,560.229 104.6,0 205.21,-26.6 295.51,-80.01 l 16.43,199.16 v 0" /><path
         id="path16"
         style="fill:#656263;fill-opacity:1;fill-rule:evenodd;stroke:none"
         d="m 5024.87,676.77 c 0,198.968 121.08,391.89 328.36,391.89 205.25,0 326.33,-192.922 326.33,-391.89 0,-186.79 -100.57,-392.02 -326.33,-392.02 -227.8,0 -328.36,205.23 -328.36,392.02 z m -205.24,0 c 0,-299.661 217.59,-548.051 533.6,-548.051 313.98,0 531.56,248.39 531.56,548.051 0,318.121 -213.46,547.88 -531.56,547.88 -320.17,0 -533.6,-229.759 -533.6,-547.88 v 0" /><path
         id="path18"
         style="fill:#656263;fill-opacity:1;fill-rule:nonzero;stroke:none"
         d="m 6070.67,153.43 h 192.91 v 484.218 c 0,254.641 98.56,431.012 318.15,431.012 168.26,-10.31 221.66,-129.25 221.66,-373.461 V 153.43 h 192.9 v 621.808 c 0,281.212 -121.1,449.412 -392.01,449.412 -145.72,0 -285.26,-71.83 -342.74,-190.82 h -4.09 v 166.3 h -186.78 v -1046.7 0" /><path
         id="path20"
         style="fill:#656263;fill-opacity:1;fill-rule:nonzero;stroke:none"
         d="m 7204.77,186.141 c 88.19,-47.161 188.9,-57.422 287.32,-57.422 186.8,0 365.27,102.633 365.27,326.312 0,334.469 -453.42,272.879 -453.42,486.469 0,86.08 86.08,127.16 184.67,127.16 45.07,0 160.02,-26.66 203.18,-53.25 l 16.34,168.19 c -75.84,22.63 -149.92,41.05 -240.16,41.05 -207.2,0 -369.44,-104.72 -369.44,-322.099 0,-293.571 453.6,-277.09 453.6,-468.063 0,-112.847 -108.71,-149.738 -196.89,-149.738 -55.47,0 -164.36,24.531 -240.2,73.898 l -10.27,-172.507 v 0" /><path
         id="path22"
         style="fill:#656263;fill-opacity:1;fill-rule:nonzero;stroke:none"
         d="m 8964.96,1200.13 h -192.89 v -484.4 c 0,-254.449 -98.47,-430.98 -318.13,-430.98 C 8285.6,295.02 8232.4,413.98 8232.4,658.172 V 1200.13 H 8039.35 V 578.148 c 0,-281.046 121.24,-449.429 392.03,-449.429 145.75,0 285.23,71.84 342.79,190.832 h 3.98 V 153.43 h 186.81 v 1046.7 0" /><path
         id="path24"
         style="fill:#656263;fill-opacity:1;fill-rule:nonzero;stroke:none"
         d="m 9204.16,153.43 h 193.07 v 1539.23 h -193.07 v -1539.23 0" /><path
         id="path26"
         style="fill:#656263;fill-opacity:1;fill-rule:nonzero;stroke:none"
         d="m 10275.1,1200.13 h -277.09 v 303.64 l -192.85,-61.53 V 1200.13 H 9569.1 V 1044.1 h 236.06 V 432.398 c 0,-209.199 123.12,-303.679 322.24,-303.679 61.6,0 120.9,16.363 164,28.73 v 164.192 c -28.7,-18.43 -71.6,-36.891 -131.3,-36.891 -88.2,0 -162.09,65.578 -162.09,186.801 V 1044.1 h 277.09 v 156.03 0" /><path
         id="path28"
         style="fill:#656263;fill-opacity:1;fill-rule:evenodd;stroke:none"
         d="m 11148.6,559.73 c 0,-156 -100.4,-274.98 -291.3,-274.98 -88.2,0 -195,59.449 -195,170.281 0,184.707 258.6,201.199 363.2,201.199 41.2,0 82.2,-4.171 123.1,-4.171 V 559.73 Z m -562.3,402.282 c 78.1,65.568 195,106.648 303.9,106.648 192.8,0 258.4,-92.41 258.4,-272.91 -75.8,4.148 -129.2,4.148 -205.1,4.148 -199.1,0 -486.4,-82.078 -486.4,-344.867 0,-227.859 158.1,-326.312 383.7,-326.312 176.6,0 279.1,96.57 324.3,160.019 h 4.2 V 153.43 h 180.5 c -4.2,30.769 -8.2,86.109 -8.2,205.218 v 432.93 c 0,285.402 -121,433.072 -420.7,433.072 -133.4,0 -248.3,-41.05 -344.9,-98.47 l 10.3,-164.168 v 0" /><path
         id="path30"
         style="fill:#656263;fill-opacity:1;fill-rule:nonzero;stroke:none"
         d="m 11554.9,153.43 h 192.9 v 484.218 c 0,254.641 98.5,431.012 318.1,431.012 168.3,-10.31 221.6,-129.25 221.6,-373.461 V 153.43 h 193 v 621.808 c 0,281.212 -121.2,449.412 -392,449.412 -145.7,0 -285.2,-71.83 -342.8,-190.82 h -4 v 166.3 h -186.8 v -1046.7 0" /><path
         id="path32"
         style="fill:#656263;fill-opacity:1;fill-rule:nonzero;stroke:none"
         d="m 13312.8,1200.13 h -277 v 303.64 l -192.9,-61.53 v -242.11 h -236 V 1044.1 h 236 V 432.398 c 0,-209.199 123.1,-303.679 322.1,-303.679 61.6,0 121.1,16.363 164.2,28.73 v 164.192 c -28.7,-18.43 -71.8,-36.891 -131.3,-36.891 -88.2,0 -162.1,65.578 -162.1,186.801 V 1044.1 h 277 v 156.03 0" /><path
         id="path34"
         style="fill:#656263;fill-opacity:1;fill-rule:nonzero;stroke:none"
         d="m 13517.5,186.141 c 88.1,-47.161 188.8,-57.422 287.3,-57.422 186.8,0 365.2,102.633 365.2,326.312 0,334.469 -453.6,272.879 -453.6,486.469 0,86.08 86.3,127.16 184.7,127.16 45.2,0 160.2,-26.66 203.4,-53.25 l 16.3,168.19 c -75.9,22.63 -149.8,41.05 -240.2,41.05 -207.2,0 -369.4,-104.72 -369.4,-322.099 0,-293.571 453.7,-277.09 453.7,-468.063 0,-112.847 -108.8,-149.738 -197,-149.738 -55.5,0 -164.4,24.531 -240.2,73.898 l -10.2,-172.507 v 0" /><path
         id="path36"
         style="fill:#656263;fill-opacity:1;fill-rule:nonzero;stroke:none"
         d="m 4691.21,3404.24 c -102.61,45.16 -211.43,61.58 -322.23,61.58 -437.14,0 -757.32,-293.47 -757.32,-734.71 0,-455.65 301.71,-747.06 755.31,-747.06 84.14,0 217.51,6.13 326.29,51.29 l -12.31,199.07 c -71.83,-43.11 -209.37,-69.75 -311.97,-69.75 -297.6,0 -539.75,223.68 -539.75,560.29 0,322.18 219.63,560.23 550.04,560.23 104.6,0 205.21,-26.7 295.51,-80 l 16.43,199.06 v 0" /><path
         id="path38"
         style="fill:#656263;fill-opacity:1;fill-rule:evenodd;stroke:none"
         d="m 5572.78,2414.98 c 0,-155.97 -100.51,-274.95 -291.41,-274.95 -88.27,0 -195,59.49 -195,170.35 0,184.73 258.61,201.1 363.27,201.1 41.09,0 82.12,-4.11 123.14,-4.11 v -92.39 z m -562.36,402.31 c 78,65.66 194.98,106.72 303.75,106.72 192.95,0 258.61,-92.34 258.61,-272.94 -75.92,4.08 -129.28,4.08 -205.2,4.08 -199.07,0 -486.41,-82.12 -486.41,-344.77 0,-227.85 158.04,-326.33 383.8,-326.33 176.49,0 279.12,96.43 324.23,160.06 h 4.14 v -135.46 h 180.6 c -4.08,30.82 -8.22,86.21 -8.22,205.25 v 433.09 c 0,285.2 -121.1,433 -420.74,433 -133.41,0 -248.31,-41.06 -344.78,-98.53 l 10.22,-164.17 v 0" /><path
         id="path40"
         style="fill:#656263;fill-opacity:1;fill-rule:nonzero;stroke:none"
         d="m 5997.38,2008.65 h 192.97 v 527.44 c 0,195.02 77.99,387.92 274.97,387.92 155.98,0 186.77,-162.14 186.77,-291.45 v -623.91 h 192.92 v 527.44 c 0,195.02 78,387.92 275.07,387.92 155.89,0 186.67,-162.14 186.67,-291.45 v -623.91 h 192.9 v 671.15 c 0,227.8 -96.36,400.19 -363.13,400.19 -94.44,0 -252.5,-53.35 -324.32,-203.19 -55.4,141.63 -176.48,203.19 -297.64,203.19 -153.88,0 -258.52,-55.44 -332.39,-176.49 H 6178 v 151.85 h -180.62 v -1046.7 0" /><path
         id="path42"
         style="fill:#656263;fill-opacity:1;fill-rule:evenodd;stroke:none"
         d="m 8521.13,2536.09 c 4.17,-164.14 -82.09,-396.06 -289.4,-396.06 -217.39,0 -307.85,215.49 -307.85,389.89 0,195.03 100.71,394.09 309.94,394.09 209.39,0 291.48,-199.06 287.31,-387.92 z m -790.11,-527.44 h 184.68 v 147.8 h 4.16 c 51.32,-78.01 170.28,-172.4 357.09,-172.4 316.03,0 449.45,279.08 449.45,566.45 0,281.17 -147.69,529.49 -451.54,529.49 -182.59,0 -287.31,-71.83 -346.81,-168.31 h -4.17 v 636.22 h -192.86 v -1539.25 0" /><path
         id="path44"
         style="fill:#656263;fill-opacity:1;fill-rule:nonzero;stroke:none"
         d="m 8912.38,2008.65 h 192.88 v 476.15 c 0,262.69 112.89,426.88 285.24,426.88 32.84,0 71.83,-4.08 106.77,-18.43 v 172.35 c -41.03,8.19 -69.92,14.39 -127.27,14.39 -110.83,0 -221.6,-78 -272.93,-186.74 h -4.16 v 162.1 h -180.53 v -1046.7 0" /><path
         id="path46"
         style="fill:#656263;fill-opacity:1;fill-rule:evenodd;stroke:none"
         d="m 9929.57,3506.86 h -217.43 v -217.58 h 217.43 v 217.58 z M 9724.33,2008.65 h 193.06 v 1046.7 h -193.06 v -1046.7 0" /><path
         id="path48"
         style="fill:#656263;fill-opacity:1;fill-rule:evenodd;stroke:none"
         d="m 10333.4,2536.09 c -4.1,190.9 78,387.92 287.2,387.92 209.4,0 310.1,-199.06 310.1,-394.09 0,-174.4 -90.4,-389.89 -307.8,-389.89 -207.4,0 -293.6,231.92 -289.5,396.06 z m 605.3,-527.44 h 184.9 V 3547.9 h -192.9 v -636.22 h -4.2 c -59.5,96.48 -164.1,168.31 -346.8,168.31 -303.8,0 -451.5,-248.32 -451.5,-529.49 0,-285.32 133.3,-566.45 449.4,-566.45 186.9,0 305.8,94.39 357.1,172.4 h 4 v -147.8 0" /><path
         id="path50"
         style="fill:#656263;fill-opacity:1;fill-rule:evenodd;stroke:none"
         d="m 11826.7,2164.66 c -180.7,0 -291.5,172.36 -291.5,369.39 0,178.55 96.5,389.96 291.5,389.96 205.2,0 305.7,-186.76 305.7,-404.35 0,-194.9 -125.2,-355 -305.7,-355 z m 498.6,890.69 h -178.5 v -155.97 h -4.1 c -57.4,112.82 -160.2,180.61 -344.9,180.61 -316,0 -467.8,-287.32 -467.8,-556.16 0,-270.95 147.8,-515.18 447.5,-515.18 133.2,0 268.7,53.4 350.8,162.15 h 4.1 v -102.61 c 0,-221.64 -121,-359.16 -324.2,-359.16 -141.6,0 -229.9,26.61 -377.7,94.42 l -20.4,-178.59 c 168.2,-57.42 264.6,-71.85 375.5,-71.85 375.5,0 539.7,182.63 539.7,500.83 v 1001.51 0" /><path
         id="path52"
         style="fill:#656263;fill-opacity:1;fill-rule:evenodd;stroke:none"
         d="m 12736.9,2632.56 c 14.5,135.45 92.4,291.45 281.2,291.45 166.3,0 260.8,-131.34 260.8,-291.45 h -542 z m 667.2,-387.9 c -47.3,-38.97 -195,-104.63 -322.3,-104.63 -182.6,0 -344.9,141.61 -344.9,348.83 h 747.2 c 0,336.65 -112.9,591.13 -461.8,591.13 -295.5,0 -490.5,-219.67 -490.5,-529.49 0,-340.69 170.3,-566.45 541.8,-566.45 172.4,0 256.5,41.03 330.5,67.72 v 192.89 0" /><path
         id="path54"
         style="fill:#b2b1b1;fill-opacity:1;fill-rule:nonzero;stroke:none"
         d="M 0,3281.13 H 570.117 V 3052.09 C 336.703,2924.54 139.965,2738.18 0,2512.86 v 768.27 z M 2342.05,570.121 h 450.4 L 2792.45,0 H 0 V 893.879 C 270.918,457.922 754.273,167.52 1305.47,167.52 c 399.52,0 763.41,152.5 1036.58,402.601 v 0" /><path
         id="path56"
         style="fill:#1c418b;fill-opacity:1;fill-rule:nonzero;stroke:none"
         d="M 453.762,3548.74 H 3246.19 V 453.75 H 2198.55 c 389.14,278.66 642.75,734.49 642.75,1249.65 0,848.22 -687.63,1535.86 -1535.83,1535.86 -315.095,0 -607.966,-94.86 -851.708,-257.58 v 567.06 0" /></g></g></svg>