<?xml version="1.0" encoding="UTF-8" standalone="no"?>
<svg id="svg2" xmlns:rdf="http://www.w3.org/1999/02/22-rdf-syntax-ns#" xmlns="http://www.w3.org/2000/svg" viewBox="0 0 409.25 115.02" version="1.1" xmlns:cc="http://creativecommons.org/ns#" xmlns:dc="http://purl.org/dc/elements/1.1/">
 <metadata id="metadata12">
  <rdf:RDF>
   <cc:Work rdf:about="">
    <dc:format>image/svg+xml</dc:format>
    <dc:type rdf:resource="http://purl.org/dc/dcmitype/StillImage"/>
    <dc:title/>
   </cc:Work>
  </rdf:RDF>
 </metadata>
 <path id="path4" fill="#FFF" d="M156.24,32.188c9.7288,0,14.736,5.4565,14.736,5.4565l-3.49,5.401s-4.5588-4.2188-10.914-4.2188c-8.4375,0-13.388,6.2989-13.388,13.723,0,7.5952,5.1188,14.287,13.444,14.287,6.9175,0,11.588-5.062,11.588-5.062l3.825,5.2305s-5.5138,6.4698-15.694,6.4698c-12.206,0-20.644-9.0562-20.644-20.812,0-11.588,8.7762-20.475,20.532-20.475m46.58,7.594s-0.9,3.938-1.6888,6.188l-3.5425,10.686h10.461l-3.5438-10.686c-0.73125-2.25-1.575-6.188-1.575-6.188h-0.11125zm7.0288,22.781h-14.006l-3.3738,10.237h-7.48l14.061-39.935h7.59l14.062,39.935h-7.48l-3.3775-10.237m27.23-29.699h7.2525l15.132,23.062c1.5188,2.3048,3.3175,6.1855,3.3175,6.1855h0.115s-0.39375-3.8232-0.39375-6.1855v-23.062h7.1988v39.935h-7.1988l-15.132-23.005c-1.5175-2.3058-3.3175-6.1866-3.3175-6.1866h-0.11375s0.3925,3.8258,0.3925,6.1866v23.005h-7.2525v-39.935m62.27,6.245h-13.104v-6.2436h33.468v6.244h-13.115v33.691h-7.2575v-33.691m47.42,0.674s-0.90125,3.938-1.69,6.188l-3.5425,10.686h10.461l-3.5438-10.686c-0.73125-2.25-1.5738-6.188-1.5738-6.188h-0.12zm7.0288,22.781h-14.008l-3.375,10.237h-7.48l14.061-39.935h7.5938l14.062,39.935h-7.48l-3.3762-10.237m42.25,3.994c3.7112,0,5.7925-2.4194,5.7925-5.7935,0-3.3179-2.1375-5.7372-5.7925-5.7372h-7.7638v11.531h7.7638zm-0.73-17.381c3.1512,0,4.95-2.2495,4.95-5.1196,0-2.8686-1.6862-4.9488-5.0612-4.9488h-6.92v10.068h7.03zm-14.285-16.312h14.28c7.2,0,12.319,3.7119,12.319,10.293,0,3.7119-1.7988,6.9189-4.8362,8.5508v0.11225c4.3875,1.294,6.4688,5.3419,6.4688,9.3921,0,7.9882-6.4125,11.587-13.782,11.587h-14.455v-39.935m-235.76,54.066c2.8688,0,4.3362,1.5714,4.3362,1.5714l-0.825,1.2485s-1.3838-1.2998-3.445-1.2998c-2.6675,0-4.4038,2.0249-4.4038,4.5556,0,2.5488,1.7725,4.7095,4.4212,4.7095,2.245,0,3.68-1.5528,3.68-1.5528l0.89375,1.1996s-1.6362,1.8911-4.625,1.8911c-3.5775,0-6.0938-2.7358-6.0938-6.2295,0-3.4604,2.6-6.0938,6.0612-6.0938m18.18,1.842s-0.26875,1.0791-0.4725,1.686l-1.3325,3.7828h3.6125l-1.3162-3.7828c-0.2025-0.60688-0.45625-1.686-0.45625-1.686h-0.035zm2.2462,6.853h-4.4912l-1.18,3.4252h-1.73l4.29-11.917h1.7562l4.2875,11.917h-1.7388l-1.1988-3.4252m16.36-2.431c1.435,0,2.3138-0.8935,2.3138-2.3291,0-1.4355-0.87875-2.2778-2.2975-2.2778h-2.43v4.6065h2.4138zm-4.08-6.061h4.3562c2.1775,0,3.7475,1.4682,3.7475,3.7314,0,2.2608-1.57,3.7818-3.7475,3.7818h-2.6838v4.4042h-1.6725v-11.917m17.83,11.917h1.6714v-11.917h-1.675v11.917zm15.05-10.463h-4.0862v-1.454h9.8425v1.4536h-4.085v10.464h-1.6712v-10.464m17.99,0.185s-0.26875,1.0791-0.47125,1.686l-1.3338,3.7828h3.6138l-1.3175-3.7828c-0.20375-0.60688-0.455-1.686-0.455-1.686h-0.03625zm2.2475,6.853h-4.4912l-1.1825,3.4252h-1.7212l4.28-11.917h1.755l4.29,11.917h-1.7412l-1.1962-3.4252m12.27-8.492h1.6712v10.466h5.34v1.4511h-7.005v-11.917m32.54,6.061c1.435,0,2.3125-0.8935,2.3125-2.3291,0-1.4355-0.8775-2.2778-2.2962-2.2778h-2.43v4.6065h2.4138zm-4.08-6.061h4.3562c2.1775,0,3.7475,1.4682,3.7475,3.7314,0,2.2608-1.57,3.7818-3.7475,3.7818h-2.6838v4.4042h-1.6725v-11.917m21.06,1.639s-0.27,1.0791-0.47375,1.686l-1.3338,3.7828h3.6138l-1.3162-3.7828c-0.20375-0.60688-0.45625-1.686-0.45625-1.686h-0.03375zm2.245,6.853h-4.4912l-1.1812,3.4252h-1.7212l4.28-11.917h1.7562l4.2888,11.917h-1.74l-1.1975-3.4252m16.35-2.768c1.3,0,2.1088-0.82762,2.1088-2.1606,0-0.879-0.3375-1.504-0.945-1.8409-0.32125-0.16938-0.70875-0.2685-1.6362-0.2685h-1.9238v4.27h2.39zm-4.07-5.724h3.645c1.25,0,1.7725,0.102,2.2288,0.271,1.2162,0.455,2.0088,1.6552,2.0088,3.2236,0,1.5185-0.845,2.8028-2.145,3.225v0.03325s0.13625,0.15238,0.35625,0.5405l2.5312,4.624h-1.895l-2.5125-4.7436h-2.5488v4.7436h-1.6725v-11.917m20.96,1.454h-4.085v-1.454h9.8425v1.4536h-4.09v10.464h-1.6712v-10.464m15.05-1.454h1.6538l5.3012,7.749c0.43875,0.64062,0.99625,1.7211,0.99625,1.7211h0.0325s-0.1175-1.062-0.1175-1.7211v-7.749h1.6712v11.917h-1.63l-5.32-7.729c-0.4375-0.65775-0.99375-1.7384-0.99375-1.7384h-0.03625s0.11875,1.062,0.11875,1.7384v7.7294h-1.67v-11.917m20.37,0h6.92v1.4536h-5.25v3.728h4.27v1.4541h-4.27v3.8305h5.5362v1.4511h-7.2075v-11.918m21.33,5.724c1.3,0,2.1088-0.82762,2.1088-2.1606,0-0.879-0.33625-1.504-0.945-1.8409-0.32-0.16938-0.7075-0.2685-1.6362-0.2685h-1.925v4.27h2.3975zm-4.07-5.724h3.6462c1.2475,0,1.7725,0.102,2.2275,0.271,1.2162,0.455,2.0075,1.6552,2.0075,3.2236,0,1.5185-0.8425,2.8028-2.1425,3.225v0.03325s0.135,0.15238,0.355,0.5405l2.5325,4.624h-1.8925l-2.5138-4.7436h-2.5488v4.7436h-1.6712v-11.917m18.43,9.286s1.2662,1.2831,3.0388,1.2831c1.1138,0,2.0588-0.62638,2.0588-1.7568,0-2.583-5.7712-2.0264-5.7712-5.6885,0-1.8565,1.6025-3.3252,3.8488-3.3252,2.2088,0,3.3738,1.1978,3.3738,1.1978l-0.76,1.3844s-1.09-1.029-2.61-1.029c-1.2675,0-2.1612,0.795-2.1612,1.7398,0,2.4644,5.7712,1.8052,5.7712,5.67,0,1.8408-1.4162,3.3608-3.7812,3.3608-2.5288,0-3.9488-1.5712-3.9488-1.5712l0.945-1.2646"/>
 <path id="path6" fill="#FFF" d="M66.579,67.002l23.974-13.862v-0.056125l0.02775,0.043875-0.02775,0.01225,0.02775,13.664-24.002,13.877-0.021,0.12938-0.019-13.713,0.04-0.09525zm-12.059-7.429l0.0445,55.452,0.02725-0.25391,11.966-6.9238-0.019-13.398,0.04-0.090375,35.922-21.044,0.05375-41.662-47.962,27.734-0.07175,0.18312m-42.728-6.775l36.015,21.319v-14.656l-47.803-27.564v55.396l47.803,27.561v-13.011l-36.015-21.326v-27.725m15.616-25.069l-0.025875-0.038625,23.908-13.829,35.851,20.666,12.031-6.958-48.067-27.568-47.619,27.8,47.619,27.568,12.132-7.02-35.829-20.62"/>
</svg>
