<svg xmlns="http://www.w3.org/2000/svg" width="409.25" height="115.025"><path d="M156.2425 32.188125c9.72875 0 14.73625 5.4565 14.73625 5.4565L167.4925 43.045s-4.55875-4.21875-10.91375-4.21875c-8.4375 0-13.3875 6.298875-13.3875 13.723125 0 7.59525 5.11875 14.287125 13.44375 14.287125 6.9175 0 11.5875-5.062 11.5875-5.062l3.825 5.2305s-5.51375 6.46975-15.69375 6.46975c-12.20625 0-20.64375-9.05625-20.64375-20.811625 0-11.588375 8.77625-20.475 20.5325-20.475M202.81625 39.780875s-.9 3.938-1.68875 6.188l-3.5425 10.686h10.46125l-3.54375-10.686c-.73125-2.25-1.575-6.188-1.575-6.188h-.11125zm7.02875 22.78075h-14.00625l-3.37375 10.23675h-7.48l14.06125-39.935H206.64l14.0625 39.935h-7.48l-3.3775-10.23675M237.0725 32.863375h7.2525l15.1325 23.0625c1.51875 2.30475 3.3175 6.1855 3.3175 6.1855h.115s-.39375-3.82325-.39375-6.1855v-23.0625h7.19875v39.935h-7.19875l-15.1325-23.00525c-1.5175-2.30575-3.3175-6.186625-3.3175-6.186625h-.11375s.3925 3.82575.3925 6.186625v23.00525h-7.2525v-39.935M299.3375 39.107h-13.10375v-6.243625h33.4675V39.107H306.595v33.691375h-7.2575V39.107M346.76 39.780875s-.90125 3.938-1.69 6.188l-3.5425 10.686h10.46125l-3.54375-10.686c-.73125-2.25-1.57375-6.188-1.57375-6.188H346.76zm7.02875 22.78075H339.7825l-3.375 10.23675h-7.48l14.06125-39.935h7.59375l14.0625 39.935h-7.48l-3.37625-10.23675M396.0325 66.55575c3.71125 0 5.7925-2.419375 5.7925-5.7935 0-3.317875-2.1375-5.73725-5.7925-5.73725h-7.76375v11.53075h7.76375zM395.3 49.175375c3.15125 0 4.95-2.2495 4.95-5.119625 0-2.868625-1.68625-4.94875-5.06125-4.94875h-6.92v10.068375H395.3zm-14.285-16.312H395.3c7.2 0 12.31875 3.711875 12.31875 10.293 0 3.711875-1.79875 6.918875-4.83625 8.55075v.11225c4.3875 1.294 6.46875 5.341875 6.46875 9.392125 0 7.98825-6.4125 11.586875-13.7825 11.586875H381.015v-39.935M145.2575 86.92925c2.86875 0 4.33625 1.571375 4.33625 1.571375l-.825 1.2485s-1.38375-1.29975-3.445-1.29975c-2.6675 0-4.40375 2.024875-4.40375 4.555625 0 2.54875 1.7725 4.7095 4.42125 4.7095 2.245 0 3.68-1.55275 3.68-1.55275l.89375 1.199625s-1.63625 1.891125-4.625 1.891125c-3.5775 0-6.09375-2.73575-6.09375-6.2295 0-3.460375 2.6-6.09375 6.06125-6.09375M163.44625 88.770125s-.26875 1.079125-.4725 1.686l-1.3325 3.78275h3.6125l-1.31625-3.78275c-.2025-.606875-.45625-1.686-.45625-1.686h-.035zm2.24625 6.853h-4.49125l-1.18 3.42525H158.3L162.58625 87.131h1.75625l4.2875 11.917375h-1.73875l-1.19875-3.42525M182.06125 93.1915c1.435 0 2.31375-.8935 2.31375-2.329125 0-1.4355-.87875-2.27775-2.2975-2.27775h-2.43V93.1915h2.41375zM177.975 87.131h4.35625c2.1775 0 3.7475 1.46825 3.7475 3.731375 0 2.26075-1.57 3.78175-3.7475 3.78175h-2.68375v4.40425h-1.6725V87.131M195.815 99.048375h1.6713875V87.1309H195.815v11.917475zM210.8675 88.584625h-4.08625V87.131h9.8425v1.453625h-4.085v10.46375h-1.67125v-10.46375M228.855 88.770125s-.26875 1.079125-.47125 1.686l-1.33375 3.78275h3.61375l-1.3175-3.78275c-.20375-.606875-.455-1.686-.455-1.686h-.03625zm2.2475 6.853h-4.49125l-1.1825 3.42525h-1.72125L227.995 87.131h1.755l4.29 11.917375h-1.74125l-1.19625-3.42525M243.385 87.131h1.67125v10.46625H250.39v1.451125h-7.005V87.131M275.92125 93.1915c1.435 0 2.3125-.8935 2.3125-2.329125 0-1.4355-.8775-2.27775-2.29625-2.27775h-2.43V93.1915h2.41375zM271.835 87.131h4.35625c2.1775 0 3.7475 1.46825 3.7475 3.731375 0 2.26075-1.57 3.78175-3.7475 3.78175h-2.68375v4.40425h-1.6725V87.131M292.9125 88.770125s-.27 1.079125-.47375 1.686l-1.33375 3.78275h3.61375l-1.31625-3.78275c-.20375-.606875-.45625-1.686-.45625-1.686h-.03375zm2.245 6.853h-4.49125l-1.18125 3.42525h-1.72125L292.05 87.131h1.75625l4.28875 11.917375h-1.74l-1.1975-3.42525M311.51 92.854625c1.3 0 2.10875-.827625 2.10875-2.160625 0-.879-.3375-1.504-.945-1.840875-.32125-.169375-.70875-.2685-1.63625-.2685h-1.92375v4.27H311.51zM307.44125 87.131h3.645c1.25 0 1.7725.102 2.22875.271 1.21625.455 2.00875 1.65525 2.00875 3.223625 0 1.5185-.845 2.80275-2.145 3.225v.03325s.13625.152375.35625.5405l2.53125 4.624H314.175l-2.5125-4.743625h-2.54875v4.743625h-1.6725V87.131M328.39875 88.584625h-4.085V87.131h9.8425v1.453625H330.07v10.46375h-1.67125v-10.46375M343.45 87.131h1.65375l5.30125 7.749c.43875.640625.99625 1.721125.99625 1.721125h.0325s-.1175-1.062-.1175-1.721125v-7.749h1.67125v11.917375H351.35L346.0325 91.319c-.4375-.65775-.99375-1.738375-.99375-1.738375h-.03625s.11875 1.062.11875 1.738375v7.729375H343.45V87.131M363.81875 87.131H370.74v1.453625h-5.25v3.728h4.27v1.454125h-4.27v3.8305h5.53625v1.451125h-7.2075V87.131M385.15125 92.854625c1.3 0 2.10875-.827625 2.10875-2.160625 0-.879-.33625-1.504-.945-1.840875-.32-.169375-.7075-.2685-1.63625-.2685h-1.925v4.27h2.3975zM381.0825 87.131h3.64625c1.2475 0 1.7725.102 2.2275.271 1.21625.455 2.0075 1.65525 2.0075 3.223625 0 1.5185-.8425 2.80275-2.1425 3.225v.03325s.135.152375.355.5405l2.5325 4.624h-1.8925l-2.51375-4.743625h-2.54875v4.743625h-1.67125V87.131M399.525 96.416625s1.26625 1.283125 3.03875 1.283125c1.11375 0 2.05875-.626375 2.05875-1.75675 0-2.583-5.77125-2.026375-5.77125-5.6885 0-1.8565 1.6025-3.32525 3.84875-3.32525 2.20875 0 3.37375 1.19775 3.37375 1.19775l-.76 1.384375S404.21875 88.482 402.7 88.482c-1.2675 0-2.16125.795-2.16125 1.73975 0 2.464375 5.77125 1.80525 5.77125 5.67 0 1.84075-1.41625 3.36075-3.78125 3.36075-2.52875 0-3.94875-1.57125-3.94875-1.57125l.945-1.264625" fill="#ffffff"/><path d="M66.578625 67.0025L90.55325 53.14025v-.056125l.02775.043875-.02775.01225.02775 13.6645-24.002375 13.877-.021.129375-.019-13.713375.04-.09525zM54.52 59.573375l.0445 55.451625.02725-.25390625 11.965875-6.92383125-.019-13.3983875.04-.090375L102.5 73.3185l.05375-41.662125-47.962 27.733875-.07175.183125M11.7876 52.798375L47.80325 74.11675V59.461L0 31.896625v55.3965l47.80325 27.56097625V101.84875L11.7876 80.523V52.798375M27.40425 27.729125l-.025875-.038625 23.90825-13.828625L87.13675 34.527l12.03075-6.958L51.101125.001125l-47.6187 27.80025 47.6187 27.567875 12.13225-7.02L27.40425 27.729125" fill="#ffffff"/></svg>
