<?xml version="1.0" encoding="UTF-8" standalone="no"?>
<svg id="svg2" xmlns:sketch="http://www.bohemiancoding.com/sketch/ns" xmlns:rdf="http://www.w3.org/1999/02/22-rdf-syntax-ns#" height="100%" xmlns="http://www.w3.org/2000/svg" viewBox="0 0 1999 695" width="100%" version="1.1" xmlns:cc="http://creativecommons.org/ns#" xmlns:xlink="http://www.w3.org/1999/xlink" xmlns:dc="http://purl.org/dc/elements/1.1/">
 <metadata id="metadata39">
  <rdf:RDF>
   <cc:Work rdf:about="">
    <dc:format>image/svg+xml</dc:format>
    <dc:type rdf:resource="http://purl.org/dc/dcmitype/StillImage"/>
    <dc:title>Logo</dc:title>
   </cc:Work>
  </rdf:RDF>
 </metadata>
<!-- Generator: Sketch 3.4 (15588) - http://www.bohemiancoding.com/sketch -->
 <title id="title4">Logo</title>
 <desc id="desc6">Created with Sketch.</desc>
 <defs id="defs8">
  <path id="path-1" d="M0.27211,4.4172h1997.9v693.99h-1997.9v-693.99z"/>
  <path id="path-3" d="M1852.6,68.916c-129.8-143.14-964.82-14.385-1319.9,63.184l-8.27,1.8c-1.7,0.3-2.83,1.93-2.55,3.62,0.31,1.72,1.92,2.86,3.64,2.57l8.21-1.61c294.21-52.371,906.01-125.01,1037.7,5.54,40.2,39.82,30.6,91.14-16,151.67,25.1,16.13,43,41.5,51,73.25,181.9-120.96,304-236.26,246.2-300.02zm-540.4,437.44c-0.1,0.07-0.1,0.13-0.2,0.18-82.4,58.3-179.9,119.52-284.8,183.77l-4.1,2.41c-1.4,1-1.8,2.94-0.8,4.36s2.9,1.75,4.4,0.77l3.5-1.85c88.9-46.44,191.1-101.58,294-158.12,0.5-0.31,1.1-0.62,1.6-0.91-5.6-9.27-10.3-19.45-13.6-30.61z"/>
 </defs>
 <g id="Page-1" fill-rule="evenodd" sketch:type="MSPage" stroke="none" stroke-width="1" fill="none">
  <g id="Logo" sketch:type="MSLayerGroup" transform="translate(0.000000, -4.000000)">
   <g id="Boomerang">
    <mask id="mask-2" sketch:name="Clip 2" fill="white">
     <use id="use16" xlink:href="#path-1"/>
    </mask>
    <g id="Fill-1">
     <use id="use20" fill="none" xlink:href="#path-3" mask="url(#mask-2)" sketch:type="MSShapeGroup"/>
     <use id="use22" xlink:href="#path-3" fill="none"/>
     <use id="use24" xlink:href="#path-3" fill="#ffffff" fill-rule="evenodd"/>
    </g>
   </g>
   <path id="Fill-16" d="M1975.8,355.58c-1.4-0.75-3.5-1.13-6.5-1.13h-4.6v11h4.9c2.2,0,3.9-0.23,5.1-0.68,2.1-0.83,3.1-2.41,3.1-4.75,0-2.21-0.7-3.69-2-4.44zm-5.8-4.79c3.8,0,6.5,0.37,8.3,1.1,3.1,1.31,4.7,3.87,4.7,7.69,0,2.72-1,4.71-3,6-1,0.67-2.5,1.16-4.3,1.46,2.3,0.38,4.1,1.37,5.2,2.98,1.1,1.6,1.6,3.17,1.6,4.7v2.22c0,0.7,0,1.45,0.1,2.26,0,0.8,0.1,1.33,0.3,1.58l0.1,0.38h-5v-0.31c-0.1-0.1-0.1-0.21-0.1-0.33l-0.1-0.98v-2.4c0-3.51-1-5.82-2.9-6.95-1.1-0.65-3.1-0.97-6-0.97h-4.2v11.94h-5.3v-30.37h10.6zm-16.3-1.54c-4.6,4.65-6.9,10.26-6.9,16.84,0,6.63,2.3,12.28,6.9,16.95s10.2,7.01,16.8,7.01,12.3-2.34,16.9-7.01,6.9-10.32,6.9-16.95c0-6.58-2.3-12.19-6.9-16.84-4.7-4.67-10.3-7.01-16.9-7.01-6.5,0-12.1,2.34-16.8,7.01zm36.4,36.42c-5.4,5.43-11.9,8.14-19.6,8.14-7.6,0-14.2-2.71-19.5-8.14-5.4-5.39-8.1-11.94-8.1-19.62,0-7.61,2.7-14.11,8.1-19.51,5.4-5.37,11.9-8.06,19.5-8.06,7.7,0,14.2,2.69,19.6,8.06s8.1,11.88,8.1,19.51c0,7.66-2.7,14.2-8.1,19.62z" fill="#FFF" sketch:type="MSShapeGroup"/>
   <path id="Fill-14" d="M1910.2,513.53l6.3,4.23c-15.8,32.13-48,58-85.7,58-30.9,0-56.2-20.55-57.5-59.14-2.5-69.15,62.3-133.4,115.4-133.4,22.7,0,43.8,9.95,44.8,34.46,1.9,54.99-75.3,71.8-126.2,72.94-1.6,5.75-2.3,11.52-2,20.31,0.9,22.8,14.7,41.98,43.2,41.98,24.6,0,49.3-19.82,61.7-39.38zm-6.9-99.31c-0.4-13.01-7-21.75-20.4-21.75-32.3,0-66.7,63.37-72.7,88.91,53.1,0,94.4-31.61,93.1-67.16z" fill="#FFF" sketch:type="MSShapeGroup"/>
   <path id="Fill-15" d="M1593.8,412.4c5.5-0.72,14.3-1.69,18.1-1.69,5.9,0,11.3,1.09,11.6,6.84,0.1,3.4-6.1,27.91-7.4,33.59l-12.3,54.24c-5,22.21-10.3,45.45-15.1,63.8h31.6l17.8-85.92c54.2-56.48,75-74.87,87.8-74.87,5.8,0,9.7,3.02,10,9.91,0.3,9.94-5.8,32.51-8,38.97l-18.1,62.67c-4.1,14.09-7.2,26.79-6.9,35.86,0.6,13.76,8.9,19.88,21.2,19.88,23.1,0,39.9-24.07,54.6-47.72l-4.3-7.77c-6,9.52-19.7,30.27-30.5,30.27-3.4,0-6.6-2.27-6.7-8-0.3-7.34,2.8-18.26,4.9-25.56l20.1-73.4c5.4-20.23,8-33.25,7.9-40.16-0.5-13.73-8.5-20.15-20.8-20.15-20.8,0-48.4,15.2-106.9,82.49h-0.8l7.4-32.84c4-17.95,7.9-36.69,11.7-49.65-20.2,7.31-49.2,15.46-67.1,18.91l0.2,10.3" fill="#FFF" sketch:type="MSShapeGroup"/>
   <path id="Fill-4" d="M1322.2,466.09c-3-85.95,64.4-173.85,162.2-173.85,65.4,0,108.2,43.59,110.6,110.35,3.1,90.65-59.8,173.87-162.2,173.87-65.4,0-108.2-43.51-110.6-110.37zm42.5,2.7c1.7,50.35,33.6,91.6,75.2,91.6,80.5,0,114.8-98.89,112.4-164.97-1.7-50.5-34.4-91.66-75.9-91.66-69.3,0-114,98.48-111.7,165.03z" fill="#FFF" sketch:type="MSShapeGroup"/>
   <path id="Fill-12" d="M1191.7,517.93l40.4-225.09,78.2,2.19-38.3,222.78-80.3,0.12z" fill="#FFF" sketch:type="MSShapeGroup"/>
   <path id="Fill-7" d="M1192,390.8c-0.4,7.93-1.8,14.9-3.9,26.88l-14.3,80.84c-1.3,7.12,1.4,12.71,8,16.69l-0.5,2.81-82.3,0.15-0.7-20.58c-12,7.29-26.5,13.36-39.6,16.9-13.1,3.44-23.6,4.85-39.6,4.85-26.55,0-41.68-2.67-52.23-11.95-10.74-9.55-15.93-15.81-15.35-28.87,0.3-7.57,4.25-17.3,9.93-23.96,5.7-6.95,13.48-11.36,21.98-15.33,8.49-4.01,18.57-6.97,32.87-9.39,14.7-2.26,35-4.72,62.2-6.99,14.1-1.18,22.8-4.4,26.9-5.97,5.8-2.21,8-4.7,8.9-9.34,1.4-8.14-1.2-13-12.1-15.21-29.8-5.89-85.3,3.77-113.97,10.9l15.47-42c38-5.55,73.3-9.09,110.6-9.09,59.2,0,78.1,16.99,77.7,38.66zm-85,52.96c-3.6,1.22-8.2,2.51-13.7,3.8-5.6,1.32-15.8,2.96-30.7,5.39-10.1,1.61-17.3,3.74-21.2,6.65-3.8,2.77-6,6.2-6.9,10.37-0.8,4.45,0.9,8.05,4.6,10.73,3.9,2.73,10.5,4.07,19.8,4.07,6.9,0,13.6-1.03,20.2-3.1,6.7-2.25,12.3-5.13,16.7-8.83,3-2.73,5.4-6.29,7-10.47,1-2.71,2.4-8.92,4.2-18.61z" fill="#FFF" sketch:type="MSShapeGroup"/>
   <path id="Fill-11" d="M870.32,355.66l5.67-32.85,82.48-17.95-8.78,50.8h40.41l-7.68,32.5-39.18-0.09-23.81,129.74s-79.43-0.52-79.71,0l23.71-129.43h-29.98l6.08-32.72h30.79" fill="#FFF" sketch:type="MSShapeGroup"/>
   <path id="Fill-6" d="M752.35,319.23c2.37-13.26,23.3-24.02,46.68-24.02,23.43,0,40.53,10.76,38.26,24.02-2.47,13.26-23.36,24.04-46.8,24.04-23.51,0-40.51-10.78-38.14-24.04zm-32.96,198.7l28.6-161.33h78.86l-28.58,161.33h-78.88z" fill="#FFF" sketch:type="MSShapeGroup"/>
   <path id="Fill-13" d="M471.47,573.63l38.39-216.24h69.26l-5.36,27.61c6.01-8.25,15.61-15,28.86-20.52,13.37-5.48,28.4-9.52,44.74-9.52,18.07,0,29.23,0.96,42.75,7.98,13.45,7.06,22.82,17.27,27.94,30.61,5.2,13.12,6.28,27.87,3.47,43.94-4.69,26.64-17.69,47.66-38.98,63.1-21.16,15.43-40.16,19.48-67.34,19.59-9.62,0-17.66-1.01-24.35-2.63-6.53-1.7-11.73-3.77-15.7-6.32-3.79-2.54-7.82-6.07-12.99-11.72l-12.9,74.12h-77.79zm143.6-179.22c-10.32,0-19.69,3.12-28,9.39-8.23,6.29-13.47,15.43-15.6,27.62-2.48,14.09-1.03,24.2,4.55,30.45,5.64,6.19,13.74,9.32,24.39,9.32,7.16,0,14.61-1.29,20.07-4,6.75-3.57,11.41-7.33,15.44-13.26,4.36-6.26,7.2-13.21,8.67-21.3,2.26-12.74,0.34-22.28-5.57-28.58-5.73-6.46-13.65-9.64-23.95-9.64z" fill="#FFF" sketch:type="MSShapeGroup"/>
   <path id="Fill-5" d="M480.63,390.5c-0.35,7.89-1.7,14.81-3.82,26.87l-14.4,80.77c-1.24,7.15,1.43,12.79,8.09,16.64l-0.44,3.15-82.38-0.12-0.74-20.52c-12,7.23-26.47,13.33-39.57,16.91-13.05,3.35-23.61,4.83-39.47,4.83-26.62,0-41.86-2.75-52.37-11.98-10.69-9.52-15.86-15.83-15.35-28.91,0.41-7.53,4.31-17.18,9.96-23.95,5.7-6.87,13.46-11.37,21.92-15.31,8.5-4.06,18.5-7,33.05-9.29,14.58-2.37,34.86-4.73,62.04-7,14.28-1.19,22.98-4.49,27.07-6.12,5.68-2.2,7.9-4.64,8.74-9.26,1.52-8.31-1.14-13.04-12.15-15.23-29.69-5.83-85.3,3.78-113.98,10.95l15.6-42.03c37.8-5.51,73.24-9.05,110.54-9.05,59.27,0,78.26,16.92,77.66,38.65zm-85.03,52.88c-3.5,1.3-8.01,2.62-13.6,3.79-5.58,1.27-15.79,3.09-30.61,5.41-10.19,1.61-17.27,3.75-21.31,6.64-3.86,2.86-6.13,6.25-6.78,10.42-0.8,4.43,0.65,7.97,4.5,10.75,3.9,2.72,10.45,4.13,19.71,4.13,6.93,0,13.73-1.12,20.31-3.22,6.66-2.18,12.27-5.14,16.6-8.81,3.17-2.74,5.44-6.25,7.14-10.41,0.98-2.75,2.38-8.95,4.04-18.7z" fill="#FFF" sketch:type="MSShapeGroup"/>
   <path id="Fill-9" d="M229.4,459.95c-25.68,5.08-40.12,7.05-65.5,7.05-37.68,0-67.61-18.72-65.991-53.01,1.152-22.83,28.221-71.04,96.971-71.04,21.62,0,38.54,3.84,61.3,16.8l9.98-56.04c-30.93-11.69-51.42-13.44-77.97-13.16-90.086,0.96-176.67,41.94-187.39,125.24-10.921,84.65,92.467,105.93,138.37,105.74,26.5-0.09,54.05-1.16,79.77-3.83l10.46-57.75" fill="#FFF" sketch:type="MSShapeGroup"/>
  </g>
 </g>
</svg>
