<?xml version="1.0" encoding="UTF-8" standalone="no"?>
<svg id="svg2" xmlns:rdf="http://www.w3.org/1999/02/22-rdf-syntax-ns#" xmlns="http://www.w3.org/2000/svg" viewBox="0 0 440.72 164.79" version="1.1" xmlns:cc="http://creativecommons.org/ns#" xmlns:dc="http://purl.org/dc/elements/1.1/">
 <metadata id="metadata14">
  <rdf:RDF>
   <cc:Work rdf:about="">
    <dc:format>image/svg+xml</dc:format>
    <dc:type rdf:resource="http://purl.org/dc/dcmitype/StillImage"/>
    <dc:title/>
   </cc:Work>
  </rdf:RDF>
 </metadata>
 <g id="g4" fill="#FFF">
  <path id="path6" d="M106.79,30.794c8.4884,0,15.395-6.9062,15.395-15.394,0-8.49-6.9066-15.396-15.395-15.396-8.479-0.00025-15.384,6.906-15.384,15.396,0,8.4875,6.9052,15.394,15.394,15.394m-12.315,96.736h24.814v-90.105h-24.814v90.108zm212.58,6.47c-8.4875,0-15.394,6.9062-15.394,15.394,0,8.4873,6.9062,15.395,15.394,15.395,8.4888,0,15.395-6.9077,15.395-15.395,0-8.4874-6.9062-15.394-15.395-15.394m-12.49-6.46h24.814v-90.105h-24.814v90.108zm-225.15-33.182l-0.78512,1.0064c-2.6855,3.4439-5.8648,6.0405-9.1944,7.5118-3.6035,1.5922-7.3046,2.3999-11,2.3999-6.6356,0-12.133-2.0971-16.339-6.2314-4.2031-4.1304-6.3345-9.5094-6.3345-15.985,0-6.9766,2.1069-12.677,6.2626-16.942,4.149-4.261,9.671-6.421,16.41-6.421,3.8038,0,7.523,0.79775,11.055,2.3735,3.9258,1.7475,6.7339,4.0586,9.1055,7.4951l0.81788,1.184,13.588-20.711-0.61388-0.55612c-7.107-6.44-14.806-10.658-22.883-12.541-3.9795-0.92625-8.5308-1.395-13.526-1.395-13.117,0-24.177,4.518-32.874,13.426-8.6892,8.904-13.095,20.219-13.095,33.628,0,13.411,4.397,24.686,13.07,33.515,8.6781,8.8301,19.746,13.309,32.898,13.309,5.3516,0,9.7549-0.46725,13.463-1.4296,4.0968-1.0655,14.577-4.5675,23.398-14.101l0.54388-0.58838-13.969-18.952m60.276-56.923v22.152h23.621v67.956h24.894v-67.952h23.515v-22.152h-72.024m124.52,31.805c0,3.5591-1.0525,6.0899-3.2175,7.7392-2.2138,1.6865-5.7825,2.5415-10.605,2.5415h-3.2v-21.477h3.6012c4.95,0,8.475,0.872,10.475,2.5928,1.9562,1.6836,2.9475,4.5791,2.9475,8.6035zm6.7338,22.776c5.9225-1.5186,10.555-4.3745,13.785-8.503,3.4712-4.4389,5.2312-10.222,5.2312-17.186,0-9.9404-3.0475-17.335-9.0575-21.98-5.93-4.586-16.27-6.912-30.74-6.912h-27.865v90.109h24.9v-31.682l18.694,31.686h29.402l-24.33-35.523m110.51,7.028l18.519,28.499h28.665l-31.89-47.618,28.812-42.487h-28.735l-15.34,23.633-15.406-23.633h-28.735l28.812,42.487-31.884,47.622h28.666l18.518-28.499m58.3-41.679c-5.05,0-9.1562-4.107-9.1562-9.1552,0-5.0371,4.1062-9.1362,9.1562-9.1362,5.0425,0,9.1438,4.0991,9.1438,9.1362,0,5.0482-4.1012,9.1552-9.1438,9.1552zm0-20.114c-6.0538,0-10.98,4.9162-10.98,10.959,0,6.0531,4.9262,10.978,10.98,10.978,6.0425,0,10.959-4.9254,10.959-10.978,0-6.0425-4.9162-10.959-10.959-10.959"/>
  <path id="path8" d="M432.95,45.627c0,1.2826-0.71,1.8545-2.3038,1.8545h-3.35v-3.71h3.35c1.5938,0,2.3038,0.57225,2.3038,1.8555zm1.9362,0c0-3.1255-2.5-3.5928-3.99-3.5928h-5.5375v12.2h1.9375v-5.0156h2.7325l3.1325,4.9292,0.05625,0.086375h2.3375l-3.2888-5.1694c2.2712-0.5015,2.62-2.3521,2.62-3.4375"/>
 </g>
</svg>
