<svg xmlns="http://www.w3.org/2000/svg" width="440.725" height="164.7875"><g fill="#ffffff"><path d="M106.79 30.79375c8.488375 0 15.395-6.90625 15.395-15.39375 0-8.49-6.906625-15.39625-15.395-15.39625C98.30125.00375 91.396 6.91 91.396 15.4c0 8.4875 6.90525 15.39375 15.394 15.39375M94.475125 127.533625h24.814V37.42525h-24.814v90.108375zM307.0475 133.998875c-8.4875 0-15.39375 6.90625-15.39375 15.393625 0 8.4872875 6.90625 15.395 15.39375 15.395 8.48875 0 15.395-6.9077125 15.395-15.395 0-8.487375-6.90625-15.393625-15.395-15.393625M294.54875 127.533625h24.8135V37.42525h-24.8135v90.108375zM69.40425 94.348l-.785125 1.006375c-2.6855 3.443875-5.86475 6.0405-9.194375 7.51175-3.6035 1.59225-7.304625 2.399875-11 2.399875-6.635625 0-12.13275-2.097125-16.33875-6.231375-4.203125-4.130375-6.3345-9.509375-6.3345-15.984875 0-6.976625 2.106875-12.67725 6.262625-16.942C36.1645 61.851 41.686 59.690875 48.42475 59.690875c3.80375 0 7.523.79775 11.05525 2.3735 3.92575 1.7475 6.733875 4.058625 9.1055 7.495125l.817875 1.184L82.99175 50.032125l-.613875-.556125C75.271 43.0365 67.57175 38.8175 59.495125 36.935c-3.9795-.92625-8.53075-1.395-13.526375-1.395-13.11675 0-24.17675 4.518-32.8735 13.42575C4.4057625 57.8695 0 69.185 0 82.594125c0 13.410625 4.396975 24.686 13.070375 33.514625 8.678125 8.830125 19.7465 13.308625 32.898375 13.308625 5.351625 0 9.754875-.46725 13.462875-1.429625 4.09675-1.0655 14.576625-4.5675 23.3985-14.101125l.543875-.588375L69.40425 94.348M129.68125 37.425v22.1525h23.62125v67.956125h24.89375V59.5775H201.705V37.425h-72.02375M254.20375 69.230375c0 3.559125-1.0525 6.089875-3.2175 7.73925-2.21375 1.6865-5.7825 2.5415-10.605 2.5415H237.18v-21.477h3.60125c4.95 0 8.475.872 10.475 2.59275 1.95625 1.683625 2.9475 4.579125 2.9475 8.6035zm6.73375 22.776375c5.9225-1.518625 10.555-4.3745 13.785-8.503 3.47125-4.438875 5.23125-10.222125 5.23125-17.186 0-9.940375-3.0475-17.335-9.0575-21.98C264.965 39.75125 254.62 37.425 240.1525 37.425h-27.865v90.108625H237.18V95.848l18.69375 31.685625h29.4025L260.9375 92.00675M371.44875 99.034625l18.51875 28.499h28.665L386.74875 79.912l28.8125-42.487h-28.735L371.4775 61.058l-15.40625-23.633h-28.735l28.8125 42.487-31.88375 47.621625h28.66625l18.5175-28.499M429.765 57.3515c-5.05 0-9.15625-4.107-9.15625-9.15525 0-5.037125 4.10625-9.13625 9.15625-9.13625 5.0425 0 9.14375 4.099125 9.14375 9.13625 0 5.04825-4.10125 9.15525-9.14375 9.15525zm0-20.114c-6.05375 0-10.98 4.91625-10.98 10.95875 0 6.053125 4.92625 10.9785 10.98 10.9785 6.0425 0 10.95875-4.925375 10.95875-10.9785 0-6.0425-4.91625-10.95875-10.95875-10.95875"/><path d="M432.95 45.627375c0 1.282625-.71 1.8545-2.30375 1.8545h-3.35v-3.71h3.35c1.59375 0 2.30375.57225 2.30375 1.8555zm1.93625 0c0-3.1255-2.5-3.59275-3.99-3.59275h-5.5375V54.23425h1.9375v-5.015625h2.7325l3.1325 4.92925.05625.086375h2.3375l-3.28875-5.169375c2.27125-.5015 2.62-2.352125 2.62-3.4375"/></g></svg>
