<?xml version="1.0" encoding="UTF-8" standalone="no"?>
<svg id="svg2" xmlns:sketch="http://www.bohemiancoding.com/sketch/ns" xmlns:rdf="http://www.w3.org/1999/02/22-rdf-syntax-ns#" xmlns="http://www.w3.org/2000/svg" version="1.1" xmlns:cc="http://creativecommons.org/ns#" viewBox="0 0 801 601" xmlns:dc="http://purl.org/dc/elements/1.1/">
 <metadata id="metadata21">
  <rdf:RDF>
   <cc:Work rdf:about="">
    <dc:format>image/svg+xml</dc:format>
    <dc:type rdf:resource="http://purl.org/dc/dcmitype/StillImage"/>
    <dc:title>Slice 1</dc:title>
   </cc:Work>
  </rdf:RDF>
 </metadata>
<!-- Generator: Sketch 3.4.2 (15855) - http://www.bohemiancoding.com/sketch -->
 <title id="title4">Slice 1</title>
 <desc id="desc6">Created with Sketch.</desc>
 <g id="Page-1" fill-rule="evenodd" sketch:type="MSPage" stroke="none" stroke-width="1">
  <path id="Path-1" sketch:type="MSShapeGroup" fill="#CCC" d="M800.06,200.74l-0.11-199.95-799.39,0.0664-0.46581,599.28,800.16,0.03-0.12-201.15-598.65,0.49,0.39-198.6,598.18-0.17z"/>
  <path id="Path-2" sketch:type="MSShapeGroup" fill="#FFF" d="M800.53,219.26l-0.18,158.95-29.63,0.53-27.19-127.9,6.07,127.6-24.89,0.15,0.02-159.04,28.98-0.03,25.39,117.47-4.36-117.78,25.79,0.05z"/>
  <path id="Path-3" sketch:type="MSShapeGroup" fill="#FFF" d="M701.93,378.57l-0.46-158.63-25.67-0.35-0.38,158.71,26.51,0.27z"/>
  <path id="Path-4" sketch:type="MSShapeGroup" fill="#FFF" d="M662.04,377.84l-19.86-158.63-36.55,0.17-19.41,158.5,24.47-0.01,2.99-32.58,17.63,0.08,3.24,32.49,27.49-0.02zm-39.4-135.75l-7.41,82.61,15.08,0.37-7.67-82.98z"/>
  <path id="Path-6" sketch:type="MSShapeGroup" fill="#FFF" d="M586.46,239.44l-0.02-19.9-59.96-0.15,0.23,19.9h17.98l-0.14,138.83,26.37-0.15-0.08-138.51,15.62-0.02z"/>
  <path id="Path-7" sketch:type="MSShapeGroup" fill="#FFF" d="M522.5,270.31s2.3-34.96-7.48-44c-9.77-9.04-18.72-9.27-26.13-9.27s-17.99,1.45-24.08,8.24c-6.1,6.79-8.41,16.26-8.41,18.84s-0.46,25.05-0.46,25.05-1.42,10.48,13.94,25.73,27.11,23.83,27.11,36.23c0,12.41,1.52,29.8-6.5,29.8-10.07,0-8.71-8.02-8.71-21.73s0.01-18.62,0.01-18.62l-25.82-0.09-0.16,31.67s1.87,14.33,7.97,20.34c6.1,6,13.35,9,24.91,9s21.81-3.79,26.32-10.07c4.52-6.28,8.27-14.92,8.27-25.65s0.34-27.57-5.65-37.55-18.07-19.96-20.74-22.94c-2.66-2.97-14.9-11.91-14.9-20.36,0-8.44-0.16-15.18-0.16-19.84s5.08-6.56,7.44-6.56,6.97,1.86,6.97,9.73,0.22,21.64,0.22,21.64l26.04,0.41z"/>
  <path id="Path-8" sketch:type="MSShapeGroup" fill="#FFF" d="M440.7,242.19c0-11.92-14.58-24.69-32.52-24.69-17.93,0-32.41,10.53-32.41,23.66s-0.62,106.33-0.62,115.55,11.87,25.28,33.37,25.28,31.46-17.47,32.53-26.44c1.06-8.97-0.35-101.44-0.35-113.36zm-24.81,1.31c0.04,3.17-0.03,106.12-0.03,109.82,0,3.69-1.49,7.06-6.66,7.06-5.16,0-8.95-2.74-8.95-7.13,0-4.38,0.32-105.53,0.32-108.98s3.46-5.31,7.76-5.31,7.53,1.36,7.56,4.54z"/>
  <path id="Path-10" sketch:type="MSShapeGroup" fill="#FFF" d="M359.95,320.45s-0.31,27.44-0.31,38.95c0,11.52-15.06,22.51-32.95,22.51s-31.86-12.13-31.86-23.77c0-11.63-0.6-109.91-0.6-117.54,0-10.83,16.35-23.54,33.21-23.54,16.88,0,31.97,12.75,31.66,23.52s0.31,29.27,0.31,29.27l-24.83,0.11s-0.27-22.74-0.27-26.57c0-3.82-3.82-4.56-6.95-4.56s-7.44,2.3-7.44,5.81-0.38,104.49-0.38,108.11c0,3.63,3.2,7.35,7.9,7.35,4.71,0,6.61-3.48,6.61-6.36,0-2.87-0.1-33.29-0.1-33.29h26z"/>
 </g>
</svg>
