<?xml version="1.0" encoding="UTF-8" standalone="no"?>
<svg width="300px" height="82px" viewBox="0 0 300 82" version="1.1" xmlns="http://www.w3.org/2000/svg" xmlns:xlink="http://www.w3.org/1999/xlink" xmlns:sketch="http://www.bohemiancoding.com/sketch/ns">
    <!-- Generator: Sketch 3.4.2 (15855) - http://www.bohemiancoding.com/sketch -->
    <title>darktrace-logo</title>
    <desc>Created with Sketch.</desc>
    <defs>
        <path id="path-1" d="M0,0.0998886414 L299.735078,0.0998886414 L299.735078,81.1804009 L0,81.1804009"></path>
        <path id="path-3" d="M0,0.0998886414 L299.735078,0.0998886414 L299.735078,81.1804009 L0,81.1804009"></path>
    </defs>
    <g id="Logos" stroke="none" stroke-width="1" fill="none" fill-rule="evenodd" sketch:type="MSPage">
        <g id="Artboard-1" sketch:type="MSArtboardGroup" transform="translate(-25.000000, -25.000000)">
            <g id="darktrace-logo" sketch:type="MSLayerGroup" transform="translate(25.000000, 25.000000)">
                <path d="M88.4583073,59.6041203 L83.9573051,59.6041203 L83.9573051,41.5182628 L88.4583073,41.5182628 C92.8764588,41.5182628 95.1475056,44.6976615 95.1475056,50.5613586 C95.1475056,56.4250557 92.8764588,59.6041203 88.4583073,59.6041203 M88.4583073,36.1082405 L79.2084187,36.1082405 C78.0518486,36.1082405 77.555412,36.6040089 77.555412,37.760245 L77.555412,63.3621381 C77.555412,64.5187082 78.0518486,65.0144766 79.2084187,65.0144766 L88.4583073,65.0144766 C96.9655457,65.0144766 101.672673,59.894098 101.672673,50.5613586 C101.672673,41.2289532 96.9655457,36.1082405 88.4583073,36.1082405" id="Fill-1" fill="#FEFEFE" sketch:type="MSShapeGroup"></path>
                <path d="M112.905267,53.7410913 L115.341347,46.3904232 C115.590568,45.6891982 115.961058,43.7482183 115.961058,43.7482183 L116.126425,43.7482183 C116.126425,43.7482183 116.539343,45.8538976 116.74647,46.3904232 L119.100033,53.7410913 L112.905267,53.7410913 Z M119.512617,36.8933185 C119.264065,36.2321826 118.356715,36.0257238 117.159053,36.0257238 L115.011615,36.0257238 C113.814287,36.0257238 112.905267,36.2321826 112.657049,36.8933185 L103.572862,63.4453229 C103.491013,63.7342984 103.407494,63.9821826 103.407494,64.1889755 C103.407494,64.7662584 104.192572,65.0969933 105.926425,65.0969933 L107.578764,65.0969933 C108.569633,65.0969933 109.27186,64.8494432 109.478318,64.2300668 L111.130323,59.1915367 L120.87598,59.1915367 L122.526648,64.2300668 C122.733441,64.8902004 123.642461,65.0969933 124.840457,65.0969933 L126.656826,65.0969933 C128.10137,65.0969933 128.720746,64.7662584 128.720746,64.1889755 C128.720746,63.9821826 128.679989,63.7342984 128.597806,63.4453229 L119.512617,36.8933185 Z" id="Fill-3" fill="#FEFEFE" sketch:type="MSShapeGroup"></path>
                <path d="M141.853597,48.207461 L137.93088,48.207461 L137.93088,41.5182628 L141.565624,41.5182628 C143.71206,41.5182628 145.033664,42.7566815 145.033664,44.6565702 C145.033664,46.6386414 143.547361,48.207461 141.853597,48.207461 L141.853597,48.207461 Z M149.699699,54.4022272 C148.997806,52.6262806 147.759053,51.0157016 146.726425,50.602784 L146.726425,50.4374165 C149.575757,49.3640312 151.558497,47.0512249 151.558497,43.8718263 C151.558497,38.9164811 148.419521,36.1082405 141.275646,36.1082405 L133.223419,36.1082405 C132.066849,36.1082405 131.572082,36.6040089 131.572082,37.760245 L131.572082,63.7753898 C131.572082,64.6423163 132.315401,65.0969933 134.04892,65.0969933 L135.454042,65.0969933 C137.187561,65.0969933 137.93088,64.6423163 137.93088,63.7753898 L137.93088,53.6993318 L139.541459,53.6993318 C142.226091,53.6993318 142.886893,54.524833 143.71206,56.1771715 L146.97431,64.2300668 C147.221526,64.8902004 148.172305,65.0969933 149.369633,65.0969933 L151.062728,65.0969933 C152.755156,65.0969933 153.540234,64.7662584 153.540234,64.2714922 C153.540234,64.0643653 153.458051,63.8171492 153.334109,63.4860802 L149.699699,54.4022272 Z" id="Fill-5" fill="#FEFEFE" sketch:type="MSShapeGroup"></path>
                <path d="M168.945167,49.7358575 L176.914543,37.5126949 C177.161091,37.1408686 177.244276,36.8522272 177.244276,36.6454343 C177.244276,36.273608 176.542717,36.0257238 174.932806,36.0257238 L172.991826,36.0257238 C171.793163,36.0257238 170.885813,36.1910913 170.51265,36.8104677 L163.327684,48.4553452 L163.16265,48.414588 L163.16265,37.3473274 C163.16265,36.4800668 162.420334,36.0257238 160.685145,36.0257238 L159.239933,36.0257238 C157.506414,36.0257238 156.761759,36.4800668 156.761759,37.3473274 L156.761759,63.7753898 C156.761759,64.6423163 157.506414,65.0969933 159.239933,65.0969933 L160.685145,65.0969933 C162.420334,65.0969933 163.16265,64.6423163 163.16265,63.7753898 L163.16265,51.8007795 L163.327684,51.758686 L171.091938,64.3129176 C171.46343,64.9319599 172.412873,65.0969933 173.611537,65.0969933 L176.005857,65.0969933 C177.616102,65.0969933 178.318664,64.8494432 178.318664,64.477951 C178.318664,64.2714922 178.235813,63.9821826 177.987929,63.6100223 L168.945167,49.7358575 Z" id="Fill-7" fill="#FEFEFE" sketch:type="MSShapeGroup"></path>
                <path d="M61.2398218,5.37026726 C58.4248998,6.44899777 57.0164365,9.60634744 58.095167,12.4209354 C59.1738976,15.2368597 62.3309131,16.6449889 65.1458352,15.5662584 C67.9610913,14.4875278 69.3695546,11.3301782 68.29049,8.51458797 C67.2120935,5.7 64.0537416,4.29153675 61.2398218,5.37026726" id="Fill-9" fill="#FEFEFE" sketch:type="MSShapeGroup"></path>
                <path d="M201.491793,36.1082405 L182.124087,36.1082405 C181.546136,36.1082405 181.298586,36.4800668 181.298586,37.3473274 L181.298586,38.0077951 C181.298586,38.8750557 181.546136,39.246882 182.124087,39.246882 L190.052706,39.246882 L190.052706,64.1889755 C190.052706,64.7662584 190.548474,65.0969933 191.705045,65.0969933 L192.034443,65.0969933 C193.191013,65.0969933 193.686782,64.7662584 193.686782,64.1889755 L193.686782,39.246882 L201.491793,39.246882 C202.070412,39.246882 202.31696,38.8750557 202.31696,38.0077951 L202.31696,37.3473274 C202.31696,36.4800668 202.070412,36.1082405 201.491793,36.1082405" id="Fill-11" fill="#FEFEFE" sketch:type="MSShapeGroup"></path>
                <path d="M216.234555,49.1569042 L210.785111,49.1569042 L210.785111,39.246882 L215.945913,39.246882 C219.291347,39.246882 221.520969,40.7335189 221.520969,44.077951 C221.520969,46.8033408 219.208163,49.1569042 216.234555,49.1569042 L216.234555,49.1569042 Z M224.245356,55.7234967 C223.171971,52.9981069 222.263285,51.1396437 220.529432,50.5613586 L220.529432,50.3966592 C223.419855,49.2400891 225.278987,46.9693764 225.278987,43.4171492 C225.278987,38.214588 221.768853,36.1082405 215.327539,36.1082405 L208.38912,36.1082405 C207.522528,36.1082405 207.149699,36.4800668 207.149699,37.3473274 L207.149699,64.1889755 C207.149699,64.7662584 207.645134,65.0969933 208.801704,65.0969933 L209.131437,65.0969933 C210.289343,65.0969933 210.785111,64.7662584 210.785111,64.1889755 L210.785111,52.2958797 L214.500702,52.2958797 C217.720857,52.2958797 219.41529,53.122049 220.653374,56.3432071 L223.791347,64.4355234 C223.958051,64.8494432 224.618185,65.0969933 225.44402,65.0969933 L225.856604,65.0969933 C227.053931,65.0969933 227.590791,64.8494432 227.590791,64.4355234 C227.590791,64.3129176 227.549699,64.1061247 227.466514,63.8579065 L224.245356,55.7234967 Z" id="Fill-13" fill="#FEFEFE" sketch:type="MSShapeGroup"></path>
                <path d="M235.974087,54.524833 L240.311058,42.2198218 L240.971526,39.825167 L241.508385,42.2198218 L245.842684,54.524833 L235.974087,54.524833 Z M243.240902,36.6865256 C243.077539,36.1910913 242.415735,36.0257238 241.590234,36.0257238 L240.392906,36.0257238 C239.567405,36.0257238 238.906938,36.1910913 238.740902,36.6865256 L228.95549,63.8171492 C228.871971,64.0643653 228.830212,64.2300668 228.830212,64.3947661 C228.830212,64.8494432 229.366737,65.0969933 230.606158,65.0969933 L230.812951,65.0969933 C231.638786,65.0969933 232.299254,64.9319599 232.464287,64.4355234 L234.817517,57.6644766 L246.958163,57.6644766 L249.394911,64.4355234 C249.55961,64.9319599 250.221748,65.0969933 251.047249,65.0969933 L251.376648,65.0969933 C252.616403,65.0969933 253.151592,64.8080178 253.151592,64.3947661 C253.151592,64.2300668 253.110501,64.0643653 253.028987,63.8579065 L243.240902,36.6865256 Z" id="Fill-15" fill="#FEFEFE" sketch:type="MSShapeGroup"></path>
                <path d="M276.402261,60.0594655 C275.865735,60.0594655 273.552929,62.1240535 269.300479,62.1240535 C262.816737,62.1240535 259.760278,58.530735 259.760278,50.602784 C259.760278,42.467706 262.859165,38.9989978 269.465178,38.9989978 C273.430323,38.9989978 275.41206,40.8160356 275.865735,40.8160356 C276.402261,40.8160356 277.270189,39.1229399 277.270189,38.4207127 C277.270189,37.3055679 273.47108,35.8610245 269.381993,35.8610245 C260.545022,35.8610245 256.002595,40.6920935 256.002595,50.5613586 C256.002595,60.6374165 260.257383,65.2623608 269.300479,65.2623608 C274.131548,65.2623608 277.847472,63.4038976 277.847472,62.2887528 C277.847472,61.7929844 276.938786,60.0594655 276.402261,60.0594655" id="Fill-17" fill="#FEFEFE" sketch:type="MSShapeGroup"></path>
                <g id="Group-21">
                    <g id="Clip-20"></g>
                    <path d="M298.90961,61.8761693 L286.852149,61.8761693 L286.852149,51.8007795 L297.629098,51.8007795 C298.206715,51.8007795 298.454599,51.4289532 298.454599,50.5613586 L298.454599,49.9005568 C298.454599,49.0329621 298.206715,48.661804 297.629098,48.661804 L286.852149,48.661804 L286.852149,39.246882 L298.867183,39.246882 C299.44647,39.246882 299.693018,38.8750557 299.693018,38.0077951 L299.693018,37.3473274 C299.693018,36.4800668 299.44647,36.1082405 298.867183,36.1082405 L284.456158,36.1082405 C283.588898,36.1082405 283.216737,36.4800668 283.216737,37.3473274 L283.216737,63.7753898 C283.216737,64.6423163 283.588898,65.0144766 284.456158,65.0144766 L298.90961,65.0144766 C299.487227,65.0144766 299.735111,64.6423163 299.735111,63.7753898 L299.735111,63.1142539 C299.735111,62.2479955 299.487227,61.8761693 298.90961,61.8761693" id="Fill-19" fill="#FEFEFE" sketch:type="MSShapeGroup"></path>
                </g>
                <g id="Group-24">
                    <path d="M70.8525167,13.8851893 C69.9391537,15.9320713 68.2841425,17.5008909 66.1918263,18.3023385 C65.2260134,18.6721604 64.2167706,18.8599109 63.1928285,18.8599109 C59.7411581,18.8599109 56.5914922,16.6937639 55.3560802,13.469265 C54.5556347,11.3799555 54.618441,9.10122494 55.5321381,7.05233853 C56.4461693,5.00345212 58.0998441,3.43463252 60.1891537,2.63452116 C61.1546325,2.26403118 62.1638753,2.0766147 63.1881514,2.0766147 C66.6401559,2.0766147 69.7891537,4.24242762 71.0242316,7.46592428 C71.8263474,9.55824053 71.7652116,11.8376392 70.8525167,13.8851893 M43.6924944,37.5517817 C46.7095323,45.4252784 42.7580846,54.2856347 34.884588,57.3033408 C33.1236748,57.9775056 31.2842539,58.3195991 29.4174388,58.3195991 C23.1261247,58.3195991 17.3867038,54.3708241 15.1357016,48.4934298 C13.6744543,44.6806236 13.7857016,40.526392 15.4490646,36.7957684 C17.1127617,33.0651448 20.1287973,30.2061247 23.9419376,28.7452116 C25.7025167,28.0707127 27.5422717,27.7286192 29.4094209,27.7286192 C35.7017372,27.7286192 41.4418263,31.676392 43.6924944,37.5517817 M37.0223385,71.0538976 C37.4379287,70.9206013 37.867216,70.852784 38.2988419,70.852784 C40.1185523,70.852784 41.7151002,72.0180401 42.2720045,73.7522272 C42.6124276,74.8139198 42.5195546,75.9447661 42.009755,76.936971 C41.4999555,77.9281737 40.6346993,78.661804 39.5726726,79.0025612 C39.1574165,79.1361915 38.7277951,79.2036748 38.2971715,79.2036748 C36.4781292,79.2036748 34.8815813,78.0380846 34.324343,76.3028953 C33.9832517,75.2415367 34.0767929,74.1113586 34.5865924,73.1194878 C35.0957238,72.127951 35.96098,71.3946548 37.0223385,71.0538976 M8.60953229,23.9465479 C8.26276169,24.8448775 7.58659243,25.5541203 6.70596882,25.9439866 C6.24193764,26.1491091 5.75184855,26.2533408 5.25006682,26.2533408 C3.82256125,26.2533408 2.52734967,25.4101336 1.95073497,24.1055679 C1.14628062,22.2885301 1.97077951,20.1554566 3.78848552,19.3510022 C4.25184855,19.1458797 4.74193764,19.0419822 5.24438753,19.0419822 C6.67155902,19.0419822 7.9667706,19.8841871 8.54405345,21.1880846 C8.93391982,22.0687082 8.95697105,23.0485523 8.60953229,23.9465479 M63.1881514,0.0998886414 C61.9213363,0.0998886414 60.6745657,0.331737194 59.4819154,0.788752784 C54.1447216,2.83296214 51.4657684,8.83864143 53.5103118,14.1761693 C53.8560802,15.0785078 54.3287973,15.9096882 54.8940535,16.6620267 L41.3826949,29.6943207 C38.1478396,26.8002227 33.8993987,25.0840757 29.4094209,25.0840757 C27.217216,25.0840757 25.0594209,25.4849666 22.9958352,26.2757238 C20.5186637,27.224833 18.3297996,28.6783964 16.5371492,30.5288419 L9.95418708,24.9621381 C10.0216704,24.8241648 10.0858129,24.6841871 10.1419376,24.5391982 C10.6473942,23.2316258 10.6133185,21.8051225 10.0460579,20.5229399 C9.20552339,18.6253898 7.32100223,17.3993318 5.24438753,17.3993318 C4.51175947,17.3993318 3.79817372,17.5506682 3.12367483,17.8493318 C0.478129176,19.0202673 -0.721870824,22.1244989 0.448396437,24.7697105 C1.28792873,26.668931 3.17278396,27.8959911 5.25006682,27.8959911 C5.9823608,27.8959911 6.69594655,27.7446548 7.37044543,27.445657 C7.67412027,27.3113586 7.95942094,27.1493318 8.22701559,26.9652561 L14.8427171,32.5596882 C14.1428285,33.5385301 13.5351448,34.5942094 13.0336971,35.7187082 C11.0823608,40.094098 10.9517372,44.9669265 12.6655457,49.4398664 C15.3060802,56.3328508 22.0380401,60.9641425 29.4174388,60.9641425 C30.5937194,60.9641425 31.7593096,60.8448775 32.9068597,60.6157016 L35.409755,69.6013363 C34.3089755,70.1842984 33.4103118,71.0839644 32.8283519,72.2158129 C32.0773497,73.6773942 31.9403786,75.3434298 32.4424944,76.9072383 C33.2629844,79.4629176 35.6155457,81.1804009 38.2971715,81.1804009 C38.9335857,81.1804009 39.565657,81.0808463 40.1763474,80.8847439 C41.7411581,80.3826281 43.0163252,79.301559 43.7673274,77.8406459 C44.5186637,76.3793987 44.6559688,74.7126949 44.153853,73.1485523 C43.3343653,70.5932071 40.9814699,68.876392 38.2988419,68.876392 C38.184588,68.876392 38.0710022,68.8834076 37.9574165,68.889755 L35.4548552,59.9071269 C35.5801336,59.8623608 35.7060802,59.8206013 35.8306904,59.7728285 C45.0658797,56.2336303 49.7008463,45.8408686 46.1626503,36.6053452 C45.4544098,34.7572383 44.4498441,33.0741648 43.2197773,31.597216 L56.7341425,18.5612472 C58.5378174,19.9974388 60.8065256,20.836637 63.1928285,20.836637 C64.4599777,20.836637 65.7067483,20.6051225 66.8990646,20.1477728 C69.4844766,19.1575724 71.5296882,17.219265 72.6575278,14.6903118 C73.7857016,12.1610245 73.8612027,9.34443207 72.8703341,6.75868597 C71.3442762,2.77550111 67.4532962,0.0998886414 63.1881514,0.0998886414" id="Fill-22" fill="#FEFEFE" sketch:type="MSShapeGroup"></path>
                </g>
                <path d="M29.2307238,31.7510245 C27.9241537,31.7670601 26.5985412,32.0095991 25.3073385,32.5046993 C19.4486526,34.7496882 16.5191425,41.3219599 18.7644655,47.1806459 C20.5190312,51.7608241 24.9164699,54.5513586 29.5511024,54.4795323 C30.8573385,54.4634967 32.182951,54.2206236 33.4741537,53.7261915 C39.3335078,51.4808686 42.2650223,44.9106013 40.0200334,39.0499109 C38.2647996,34.470735 33.8663586,31.6795323 29.2307238,31.7510245" id="Fill-25" fill="#FEFEFE" sketch:type="MSShapeGroup"></path>
                <path d="M39.196804,77.3742762 C40.4923497,76.8778396 41.1407906,75.4249443 40.64402,74.1290646 C40.1479176,72.833853 38.6943541,72.1857461 37.3991425,72.6821826 C36.103931,73.1786192 35.4558241,74.6315145 35.9519265,75.9267261 C36.4486971,77.2226058 37.9012584,77.8707127 39.196804,77.3742762" id="Fill-27" fill="#FEFEFE" sketch:type="MSShapeGroup"></path>
                <path d="M4.59524499,20.9412027 C3.65281737,21.3023385 3.18143653,22.35902 3.54257238,23.3011136 C3.90370824,24.2435412 4.96038976,24.714922 5.9024833,24.3537862 C6.84457684,23.9926503 7.31629176,22.9359688 6.9551559,21.9935412 C6.59402004,21.0514477 5.53700445,20.5800668 4.59524499,20.9412027" id="Fill-29" fill="#FEFEFE" sketch:type="MSShapeGroup"></path>
            </g>
        </g>
    </g>
</svg>
