<svg id="Layer_1" data-name="Layer 1" xmlns="http://www.w3.org/2000/svg" viewBox="0 0 357.41 66.1"><defs><style>.cls-1{fill:#01b5bb;}</style></defs><title>datascope-logo</title><path class="cls-1" d="M27.5,45.5a9,9,0,0,1-1.73,2.27,11.17,11.17,0,0,1-2.48,1.8,15.13,15.13,0,0,1-3.06,1.22,12.15,12.15,0,0,1-3.31.47A16.62,16.62,0,0,1,10,49.86,16.28,16.28,0,0,1,4.68,46a16.89,16.89,0,0,1-3.46-5.76A20.9,20.9,0,0,1,0,33a20.89,20.89,0,0,1,1.22-7.24,16.91,16.91,0,0,1,3.46-5.76A16.29,16.29,0,0,1,10,16.24a16.62,16.62,0,0,1,6.88-1.4,12.15,12.15,0,0,1,3.31.47,14,14,0,0,1,3.06,1.26,11.44,11.44,0,0,1,2.48,1.87,10.36,10.36,0,0,1,1.73,2.23V0h11V50.4h-11Zm-8.28-3.6a7.78,7.78,0,0,0,3.38-.72,8.28,8.28,0,0,0,2.59-1.91,8.72,8.72,0,0,0,1.69-2.81A9.61,9.61,0,0,0,27.5,33a9.29,9.29,0,0,0-2.3-6.19,8,8,0,0,0-2.59-1.94,7.78,7.78,0,0,0-3.38-.72,7.78,7.78,0,0,0-3.38.72,8,8,0,0,0-2.59,1.94A9.3,9.3,0,0,0,10.94,33a9.58,9.58,0,0,0,.61,3.42,8.68,8.68,0,0,0,1.69,2.81,8.28,8.28,0,0,0,2.59,1.91A7.78,7.78,0,0,0,19.22,41.9Z"/><path class="cls-1" d="M82.08,15.7V50.4h-11V45.5a9,9,0,0,1-1.73,2.27,11.17,11.17,0,0,1-2.48,1.8,15.13,15.13,0,0,1-3.06,1.22,12.15,12.15,0,0,1-3.31.47,16.62,16.62,0,0,1-6.88-1.4A16.28,16.28,0,0,1,48.24,46a16.89,16.89,0,0,1-3.46-5.76A20.9,20.9,0,0,1,43.56,33a20.89,20.89,0,0,1,1.22-7.24,16.91,16.91,0,0,1,3.46-5.76,16.29,16.29,0,0,1,5.36-3.82,16.62,16.62,0,0,1,6.88-1.4,12.15,12.15,0,0,1,3.31.47,14,14,0,0,1,3.06,1.26,11.44,11.44,0,0,1,2.48,1.87,10.36,10.36,0,0,1,1.73,2.23v-5ZM62.78,41.9a7.78,7.78,0,0,0,3.38-.72,8.28,8.28,0,0,0,2.59-1.91,8.72,8.72,0,0,0,1.69-2.81A9.61,9.61,0,0,0,71.06,33a9.29,9.29,0,0,0-2.3-6.19,8,8,0,0,0-2.59-1.94,8.31,8.31,0,0,0-6.77,0,8,8,0,0,0-2.59,1.94A9.3,9.3,0,0,0,54.5,33a9.58,9.58,0,0,0,.61,3.42,8.68,8.68,0,0,0,1.69,2.81,8.28,8.28,0,0,0,2.59,1.91A7.78,7.78,0,0,0,62.78,41.9Z"/><path class="cls-1" d="M112.39,50.4q-1.23.22-3.06.4T105,51a31.2,31.2,0,0,1-4.1-.29,9.62,9.62,0,0,1-4-1.48,8.68,8.68,0,0,1-3-3.67,16,16,0,0,1-1.19-6.8V23.9H87.26V15.7h5.47V5.4h10.94V15.7h7.92V23.9h-7.92V36.26a10.65,10.65,0,0,0,.36,3.09,4,4,0,0,0,1,1.76,3.35,3.35,0,0,0,1.51.83,7.68,7.68,0,0,0,1.87.21h2.09a8.48,8.48,0,0,0,1.87-.18Z"/><path class="cls-1" d="M154.44,15.7V50.4h-11V45.5a9,9,0,0,1-1.73,2.27,11.17,11.17,0,0,1-2.48,1.8,15.13,15.13,0,0,1-3.06,1.22,12.15,12.15,0,0,1-3.31.47,16.62,16.62,0,0,1-6.88-1.4A16.28,16.28,0,0,1,120.6,46a16.89,16.89,0,0,1-3.46-5.76A20.9,20.9,0,0,1,115.92,33a20.89,20.89,0,0,1,1.22-7.24,16.91,16.91,0,0,1,3.46-5.76A16.29,16.29,0,0,1,126,16.24a16.62,16.62,0,0,1,6.88-1.4,12.15,12.15,0,0,1,3.31.47,14,14,0,0,1,3.06,1.26,11.44,11.44,0,0,1,2.48,1.87,10.36,10.36,0,0,1,1.73,2.23v-5ZM135.14,41.9a7.78,7.78,0,0,0,3.38-.72,8.28,8.28,0,0,0,2.59-1.91,8.72,8.72,0,0,0,1.69-2.81,9.61,9.61,0,0,0,.61-3.42,9.29,9.29,0,0,0-2.3-6.19,8,8,0,0,0-2.59-1.94,8.31,8.31,0,0,0-6.77,0,8,8,0,0,0-2.59,1.94,9.3,9.3,0,0,0-2.3,6.19,9.58,9.58,0,0,0,.61,3.42,8.68,8.68,0,0,0,1.69,2.81,8.28,8.28,0,0,0,2.59,1.91A7.78,7.78,0,0,0,135.14,41.9Z"/><path class="cls-1" d="M180.57,30q2.3.65,4.32,1.4a14.47,14.47,0,0,1,3.53,1.87A8.38,8.38,0,0,1,190.83,36a8.67,8.67,0,0,1,.9,4.18,10.31,10.31,0,0,1-1.22,5.22,9.73,9.73,0,0,1-3.38,3.46,15.18,15.18,0,0,1-5,1.91,30.64,30.64,0,0,1-6.08.58q-7.42,0-11.7-3.24t-4.28-9.29h10.8a4.63,4.63,0,0,0,1.55,3.92,6.37,6.37,0,0,0,4,1.19,6.31,6.31,0,0,0,3.28-.76,2.67,2.67,0,0,0,1.26-2.48,2.36,2.36,0,0,0-.54-1.62,5.28,5.28,0,0,0-1.66-1.15,20.82,20.82,0,0,0-2.88-1.08q-1.77-.54-4.21-1.33-2.16-.65-4.1-1.4a14.89,14.89,0,0,1-3.42-1.84,7.81,7.81,0,0,1-2.34-2.74,9,9,0,0,1-.86-4.18,8.77,8.77,0,0,1,4.14-8q4.14-2.59,11.2-2.59a21.89,21.89,0,0,1,6.59.9,13.18,13.18,0,0,1,4.68,2.48,10.34,10.34,0,0,1,2.77,3.74,11.49,11.49,0,0,1,.94,4.61H180.36a4.7,4.7,0,0,0-1.12-3.35A4.48,4.48,0,0,0,175.82,22a5.37,5.37,0,0,0-2.88.76,2.56,2.56,0,0,0-1.22,2.34,2.16,2.16,0,0,0,.58,1.55A5.26,5.26,0,0,0,174,27.72a23.16,23.16,0,0,0,2.77,1Q178.41,29.23,180.57,30Z"/><path class="cls-1" d="M221.61,29.3a6.27,6.27,0,0,0-1.91-3.74q-1.55-1.44-4.93-1.44a7.73,7.73,0,0,0-3.42.72,6.67,6.67,0,0,0-2.41,1.94,8.52,8.52,0,0,0-1.4,2.84,12.71,12.71,0,0,0,0,6.84A8.12,8.12,0,0,0,209,39.31a6.82,6.82,0,0,0,2.52,1.94,8.73,8.73,0,0,0,3.71.72,6.67,6.67,0,0,0,4.32-1.19,7.13,7.13,0,0,0,2.16-3.42h11A17.82,17.82,0,0,1,231,42.88a14,14,0,0,1-3.53,4.43,16.61,16.61,0,0,1-5.44,3,22.84,22.84,0,0,1-7.31,1.08,20,20,0,0,1-8-1.51,17.48,17.48,0,0,1-5.87-4A16.55,16.55,0,0,1,197.24,40a20.71,20.71,0,0,1,0-13.82,16.58,16.58,0,0,1,3.56-5.83,17.5,17.5,0,0,1,5.87-4,20,20,0,0,1,8-1.51A21.59,21.59,0,0,1,222.33,16a16.64,16.64,0,0,1,5.44,3.24,14.21,14.21,0,0,1,3.38,4.64,17.51,17.51,0,0,1,1.48,5.44Z"/><path class="cls-1" d="M255.53,51.34a20.83,20.83,0,0,1-8-1.48,18.39,18.39,0,0,1-6-4,17.14,17.14,0,0,1-3.82-5.79,19.36,19.36,0,0,1,0-14.11,17.17,17.17,0,0,1,3.82-5.8,18.39,18.39,0,0,1,6-4,22.76,22.76,0,0,1,16.13,0,18.39,18.39,0,0,1,6,4,17.18,17.18,0,0,1,3.82,5.8,19.36,19.36,0,0,1,0,14.11,17.16,17.16,0,0,1-3.82,5.79,18.39,18.39,0,0,1-6,4A21,21,0,0,1,255.53,51.34Zm0-9.43a8.36,8.36,0,0,0,3.42-.68,7.48,7.48,0,0,0,2.63-1.91,9.24,9.24,0,0,0,1.69-2.81,9.52,9.52,0,0,0,.61-3.46,9.62,9.62,0,0,0-.61-3.42,8.7,8.7,0,0,0-1.69-2.81,8.15,8.15,0,0,0-2.63-1.91,8,8,0,0,0-3.42-.72,7.78,7.78,0,0,0-3.38.72,8.08,8.08,0,0,0-4.25,4.72,10.54,10.54,0,0,0,0,6.88,8.67,8.67,0,0,0,1.66,2.81,7.57,7.57,0,0,0,2.59,1.91A8.11,8.11,0,0,0,255.53,41.9Z"/><path class="cls-1" d="M289.94,20.66a10.36,10.36,0,0,1,1.73-2.23,11.1,11.1,0,0,1,2.52-1.87,15,15,0,0,1,3.06-1.26,12,12,0,0,1,3.35-.47,16.62,16.62,0,0,1,6.88,1.4,16.3,16.3,0,0,1,5.36,3.82,17,17,0,0,1,3.46,5.76A20.93,20.93,0,0,1,317.52,33a20.93,20.93,0,0,1-1.22,7.24A16.93,16.93,0,0,1,312.84,46a16.28,16.28,0,0,1-5.36,3.82,16.62,16.62,0,0,1-6.88,1.4,12,12,0,0,1-3.35-.47,14.9,14.9,0,0,1-3.06-1.26,11.68,11.68,0,0,1-2.52-1.84,9,9,0,0,1-1.73-2.27V66.1h-11V15.7h11Zm8.35,3.53a8,8,0,0,0-3.42.72,8.14,8.14,0,0,0-2.63,1.91,8.68,8.68,0,0,0-1.69,2.81,9.87,9.87,0,0,0,0,6.84,8.69,8.69,0,0,0,1.69,2.81,8.16,8.16,0,0,0,2.63,1.91,8,8,0,0,0,3.42.72,7.62,7.62,0,0,0,3.31-.72,8.28,8.28,0,0,0,2.59-1.91,8.71,8.71,0,0,0,1.69-2.81,9.86,9.86,0,0,0,0-6.84,8.7,8.7,0,0,0-1.69-2.81,8.26,8.26,0,0,0-2.59-1.91A7.62,7.62,0,0,0,298.29,24.19Z"/><path class="cls-1" d="M332.06,35.71a13.14,13.14,0,0,0,.47,3,6.29,6.29,0,0,0,1.3,2.45,6.23,6.23,0,0,0,2.34,1.66,9.23,9.23,0,0,0,3.6.61,7,7,0,0,0,4.36-1.15,6,6,0,0,0,2.05-2.81H357a12,12,0,0,1-1.69,4.61,13.5,13.5,0,0,1-3.53,3.78,17.42,17.42,0,0,1-5.18,2.56,24.77,24.77,0,0,1-14.76-.4,16,16,0,0,1-5.87-3.78,16.18,16.18,0,0,1-3.6-5.8A21.33,21.33,0,0,1,321.12,33a21,21,0,0,1,1.19-7.13,16.45,16.45,0,0,1,3.53-5.8,16.69,16.69,0,0,1,5.76-3.92,20.39,20.39,0,0,1,8-1.44,19.93,19.93,0,0,1,7.38,1.3,17.89,17.89,0,0,1,5.62,3.46,15,15,0,0,1,4.86,11.09q0,1.08,0,2.3a19.3,19.3,0,0,1-.32,2.81Zm7.42-13.61A7.68,7.68,0,0,0,334.15,24a6.87,6.87,0,0,0-2.09,5.4H346.6a7.13,7.13,0,0,0-2-5.33A7,7,0,0,0,339.48,22.1Z"/></svg>