<?xml version="1.0" encoding="UTF-8" standalone="no"?>
<svg width="299px" height="66px" viewBox="0 0 299 66" version="1.1" xmlns="http://www.w3.org/2000/svg" xmlns:xlink="http://www.w3.org/1999/xlink" xmlns:sketch="http://www.bohemiancoding.com/sketch/ns">
    <!-- Generator: Sketch 3.4.2 (15855) - http://www.bohemiancoding.com/sketch -->
    <title>deshaw-logo</title>
    <desc>Created with Sketch.</desc>
    <defs>
        <path id="path-1" d="M0,0.425 L298.709375,0.425 L298.709375,65.625 L0,65.625 L0,0.425 Z"></path>
    </defs>
    <g id="Logos" stroke="none" stroke-width="1" fill="none" fill-rule="evenodd" sketch:type="MSPage">
        <g id="Artboard-1" sketch:type="MSArtboardGroup" transform="translate(-374.000000, -33.000000)">
            <g id="deshaw-logo" sketch:type="MSLayerGroup" transform="translate(374.000000, 33.000000)">
                <path d="M67.57125,29.5578125 L67.57125,38.75625 L66.0040625,38.75625 C64.40875,32.1734375 63.3634375,31.3015625 57.930625,31.3015625 L51.9525,31.3015625 L51.9525,45.4390625 C59.43375,45.33125 60.586875,44.140625 60.7978125,39.9203125 L62.50875,39.9203125 L62.50875,52.640625 L60.7978125,52.640625 C60.586875,48.4484375 59.43375,47.234375 51.9525,47.1875 L51.9525,63.3265625 L52.94,63.3265625 C64.499375,63.3265625 65.830625,60.6359375 66.67125,54.403125 L68.399375,54.403125 L67.52125,65.06875 L42.015,65.06875 L42.015,63.3265625 L46.5415625,63.3265625 L46.5415625,31.3015625 L42.015,31.3015625 L42.015,29.5578125 L67.57125,29.5578125 Z" id="Fill-1" fill="#FEFEFE" sketch:type="MSShapeGroup"></path>
                <mask id="mask-2" sketch:name="Clip 4" fill="white">
                    <use xlink:href="#path-1"></use>
                </mask>
                <g id="Clip-4"></g>
                <path d="M297.017188,17.103125 L239.614063,17.103125 L239.614063,18.871875 L297.017188,18.871875 L297.017188,17.103125 Z" id="Fill-3" fill="#FEFEFE" sketch:type="MSShapeGroup" mask="url(#mask-2)"></path>
                <path d="M233.691406,0.425625 C233.691406,0.425625 194.285156,16.92875 193.778906,17.131875 L0.00078125,17.131875 L0.00078125,18.91 L194.105469,18.91 L234.374219,2.063125 L233.691406,0.425625 Z" id="Fill-5" fill="#FEFEFE" sketch:type="MSShapeGroup" mask="url(#mask-2)"></path>
                <path d="M20.813125,32.5346875 C18.5115625,31.46125 15.11,31.3065625 12.513125,31.3065625 L9.931875,31.3065625 L9.931875,63.326875 L12.513125,63.326875 C15.11,63.326875 18.5115625,63.1815625 20.813125,62.114375 C24.9428125,60.1846875 26.6959375,55.8175 26.6959375,47.3159375 C26.6959375,38.83625 24.9396875,34.4565625 20.813125,32.5346875 M22.0615625,64.0940625 C19.2896875,64.92375 16.6646875,65.07375 12.513125,65.07375 L0.0053125,65.07375 L0.0053125,63.326875 L4.519375,63.326875 L4.519375,31.3065625 L0.0053125,31.3065625 L0.0053125,29.558125 L12.513125,29.558125 C16.6646875,29.558125 19.2896875,29.7175 22.0615625,30.539375 C29.0740625,32.6346875 32.6803125,38.3003125 32.6803125,47.3159375 C32.6803125,56.3378125 29.0740625,62.005 22.0615625,64.0940625" id="Fill-6" fill="#FEFEFE" sketch:type="MSShapeGroup" mask="url(#mask-2)"></path>
                <path d="M185.392813,65.0970313 L190.961563,41.2439063 L194.458438,41.2439063 L194.458438,39.4892187 L184.767812,39.4892187 L184.767812,41.2439063 L189.063125,41.2439063 L184.6975,59.7501563 L183.658438,55.5282812 L179.669375,41.9173438 L176.055313,41.9173438 L170.935,59.8001563 L170.085,55.5064062 L166.683437,41.2439063 L170.542812,41.2439063 L170.542812,39.4892187 L158.685,39.4892187 L158.685,41.2439063 L162.042812,41.2439063 L167.764688,65.0970313 L171.385,65.0970313 L176.585,46.7798437 L177.758438,51.4735937 L181.77875,65.0970313 L185.392813,65.0970313 Z" id="Fill-7" fill="#FEFEFE" sketch:type="MSShapeGroup" mask="url(#mask-2)"></path>
                <path d="M286.834844,40.6875 C283.933281,40.6875 280.312969,42.0875 280.312969,52.2703125 C280.312969,62.4078125 283.933281,63.8484375 286.834844,63.8484375 C289.742656,63.8484375 293.392656,62.4078125 293.392656,52.2703125 C293.392656,42.0875 289.742656,40.6875 286.834844,40.6875 M286.834844,38.990625 C294.878594,38.990625 298.709844,43.096875 298.709844,52.2703125 C298.709844,61.440625 294.878594,65.5546875 286.834844,65.5546875 C278.795781,65.5546875 275.008281,61.440625 275.008281,52.2703125 C275.008281,43.096875 278.795781,38.990625 286.834844,38.990625" id="Fill-8" fill="#FEFEFE" sketch:type="MSShapeGroup" mask="url(#mask-2)"></path>
                <path d="M270.910781,30.6029688 C268.279531,29.5279688 264.737344,28.9857813 260.929531,28.9857813 C249.063906,28.9857813 243.049844,35.3607813 243.049844,47.2717187 C243.049844,58.8951562 248.998281,65.5545312 260.901406,65.5545312 C265.460781,65.5545312 268.618594,64.5357812 270.852969,63.6123438 L271.629531,54.4467188 L269.923281,54.4467188 C268.763906,60.3232812 265.645156,63.6842187 260.493594,63.6842187 C257.462344,63.6842187 255.185781,62.9560938 253.507656,61.3435937 C250.831094,58.7717187 249.395156,54.1420313 249.395156,47.2717187 C249.395156,40.2592188 250.867031,35.4373438 253.813906,32.8935938 C255.442031,31.4732812 257.490469,30.8217188 259.942031,30.8217188 C265.412344,30.8217188 268.363906,34.2373438 269.343594,38.7060938 L270.910781,38.7060938 L270.910781,30.6029688 Z" id="Fill-9" fill="#FEFEFE" sketch:type="MSShapeGroup" mask="url(#mask-2)"></path>
                <path d="M101.374844,30.7175 C99.0545313,29.6815625 95.6295312,29.0925 92.4310938,29.0925 C84.9732812,29.0925 80.7092188,32.695625 80.7092188,38.3815625 C80.7092188,43.4565625 83.4514063,46.0565625 88.1857813,48.005 C88.1857813,48.005 88.9717188,48.358125 93.0264063,50.03625 C97.0592188,51.726875 98.0467187,53.9690625 98.0467187,57.2284375 C98.0467187,61.455 95.6592188,63.805 91.1654688,63.805 C86.6482813,63.805 83.0451563,60.47375 81.6732813,54.4534375 L80.1514063,54.4534375 L80.9264062,63.7175 C83.5279688,64.8878125 86.4685938,65.6034375 90.3279688,65.6034375 C97.9514063,65.6034375 103.029531,61.695625 103.029531,54.94875 C103.029531,49.2690625 99.9404688,46.983125 95.1732813,45.06125 C95.1732813,45.06125 92.0545312,43.7925 90.4810937,43.1346875 C87.2326563,41.81125 85.7342188,40.133125 85.7342188,36.5378125 C85.7342188,32.8065625 88.3982813,30.908125 91.7920313,30.908125 C96.2029687,30.908125 98.6920313,33.608125 99.6998437,38.814375 L101.374844,38.814375 L101.374844,30.7175 Z" id="Fill-10" fill="#FEFEFE" sketch:type="MSShapeGroup" mask="url(#mask-2)"></path>
                <path d="M129.740937,46.1929687 C129.753437,41.0414062 126.453437,38.8710937 122.7175,38.8710937 C118.706562,38.8710937 115.747187,40.8898437 114.2175,43.5726562 L114.2175,29.5726562 L105.775312,29.5726562 L105.775312,31.2773437 L109.256562,31.2851562 L109.256562,63.3414062 L105.775312,63.3414062 L105.775312,65.0976562 L117.856562,65.0976562 L117.856562,63.3414062 L114.2175,63.3414062 L114.2175,49.2773438 C114.2175,47.4023438 114.664375,45.6960938 115.426875,44.4601562 C116.703437,42.3710938 118.753437,41.2445312 120.837812,41.2445312 C123.390938,41.2445312 124.784687,43.0210937 124.784687,46.2289062 L124.784687,63.3414062 L121.13625,63.3414062 L121.13625,65.0976562 L133.170625,65.0976562 L133.170625,63.3414062 L129.740937,63.3414062 L129.740937,46.1929687 Z" id="Fill-11" fill="#FEFEFE" sketch:type="MSShapeGroup" mask="url(#mask-2)"></path>
                <path d="M150.706563,57.2479687 C150.706563,61.3964062 149.012812,63.3214063 145.864375,63.3214063 C143.07375,63.3214063 141.483125,61.4479688 141.503438,58.3135937 C141.533125,53.9104687 143.78,53.1135937 146.787813,52.0745312 L150.706563,50.7573438 L150.706563,57.2479687 Z M155.622187,57.2089062 L155.622187,45.9510937 C155.622187,40.7854687 151.906563,38.9573437 146.150313,38.9573437 C140.584688,38.9573437 136.458125,40.9698437 136.458125,44.6620312 C136.458125,46.4026562 137.819063,47.3042187 139.414375,47.3042187 C140.795625,47.3042187 141.420625,46.8885937 141.851875,46.3870312 L141.851875,45.1776562 C141.855,42.2401562 143.297188,40.6010937 146.150313,40.6010937 C148.809687,40.6010937 150.706563,41.9573437 150.706563,45.0229687 L150.706563,48.8323437 L142.156563,51.5026563 C139.815938,52.3432812 135.878438,53.7370313 135.869063,58.3010937 C135.825312,63.3979687 139.403438,65.5964063 144.031563,65.5964063 C147.784687,65.5964063 150.289375,64.2917188 151.559688,61.4620312 C152.262812,64.6682812 155.331562,65.8573437 158.814375,65.1323437 L158.814375,63.6214062 C157.064375,63.0714062 155.622187,60.9323438 155.622187,57.2089062 L155.622187,57.2089062 Z" id="Fill-12" fill="#FEFEFE" sketch:type="MSShapeGroup" mask="url(#mask-2)"></path>
                <path d="M217.845156,63.4567188 C214.501406,63.4567188 211.446719,62.2754688 209.245156,60.0723438 C207.006094,57.8192188 205.763906,54.6364063 205.763906,51.1770312 C205.763906,47.9629688 206.662344,45.3817188 208.409219,43.9192187 C211.131094,49.4270312 215.946719,55.5864063 221.009219,60.5926563 C221.706094,61.2739063 222.307656,61.8239063 222.954531,62.3114063 C221.402969,63.0848438 219.756094,63.4567188 217.845156,63.4567188 M228.009219,60.5567188 C231.065469,57.4410938 232.542031,53.4020313 232.542031,48.2895312 C232.542031,45.9317188 231.951406,43.3989062 231.512344,42.0801563 L223.113906,42.0801563 L223.113906,43.6785938 C225.059219,43.7317187 226.870156,44.0223437 228.412344,45.5160937 C229.771719,46.8301563 230.235781,48.6582813 230.259219,50.8426563 C230.293594,54.1145313 228.992031,57.0895313 226.849844,59.4457813 C226.481094,59.0551563 225.848281,58.4364063 225.485781,58.0598438 C219.559219,51.9301563 215.670156,46.6317188 212.290469,40.4707813 C211.579531,39.1692187 211.043594,37.3848438 211.043594,35.8910938 C211.043594,32.6035938 213.188906,30.7629688 216.146719,30.7629688 C219.457656,30.7629688 222.040469,32.7192188 223.146719,38.5410938 L224.712344,38.5410938 L224.712344,30.6176563 C222.432656,29.5270313 219.987344,28.9723438 216.745156,28.9723438 C210.812344,28.9723438 206.615469,31.7707813 206.615469,37.4660937 C206.615469,39.0645313 207.081094,40.9832812 207.945156,42.8989062 C203.732656,44.4426562 201.120156,48.0457813 201.120156,52.8598437 C201.120156,59.0082813 205.746719,65.6254688 215.193594,65.6254688 C218.762344,65.6254688 221.845156,64.8785938 224.434219,63.3614063 C226.646719,64.6676562 229.020156,65.1035938 232.731094,65.5457813 L233.213906,64.1926562 C231.048281,63.0223438 229.277969,61.7020313 228.009219,60.5567188" id="Fill-13" fill="#FEFEFE" sketch:type="MSShapeGroup" mask="url(#mask-2)"></path>
            </g>
        </g>
    </g>
</svg>