<?xml version="1.0" encoding="UTF-8" standalone="no"?>
<svg
   xmlns:dc="http://purl.org/dc/elements/1.1/"
   xmlns:cc="http://creativecommons.org/ns#"
   xmlns:rdf="http://www.w3.org/1999/02/22-rdf-syntax-ns#"
   xmlns:svg="http://www.w3.org/2000/svg"
   xmlns="http://www.w3.org/2000/svg"
   viewBox="0 0 312.21332 95.693336"
   height="95.693336"
   width="312.21332"
   xml:space="preserve"
   id="svg2"
   version="1.1"><metadata
     id="metadata8"><rdf:RDF><cc:Work
         rdf:about=""><dc:format>image/svg+xml</dc:format><dc:type
           rdf:resource="http://purl.org/dc/dcmitype/StillImage" /></cc:Work></rdf:RDF></metadata><defs
     id="defs6" /><g
     transform="matrix(1.3333333,0,0,-1.3333333,0,95.693333)"
     id="g10"><g
       transform="scale(0.1)"
       id="g12"><path
         id="path14"
         style="fill:#231f20;fill-opacity:1;fill-rule:nonzero;stroke:none"
         d="m 1835.24,546.836 h -159.15 v 159.129 h 159.15 V 546.836" /><path
         id="path16"
         style="fill:#231f20;fill-opacity:1;fill-rule:nonzero;stroke:none"
         d="m 207.656,138.406 c 64.942,0 99.039,23.449 99.039,171.438 v 112.879 c 0,129.914 -34.097,152.265 -101.168,152.265 H 157.598 V 138.406 Z M 0,705.965 h 215.078 c 173.594,0 257.711,-109.656 257.711,-344.988 0,-240.684 -88.391,-348.1957 -263.008,-348.1957 L 0,12.7813 V 705.965" /><path
         id="path18"
         style="fill:#231f20;fill-opacity:1;fill-rule:nonzero;stroke:none"
         d="m 769.883,372.684 c 54.305,0 76.687,22.355 76.687,81.972 v 44.739 c 0,62.832 -25.574,78.789 -78.82,78.789 h -50.039 v -205.5 z M 947.715,229.988 1026.52,12.7813 H 864.668 L 773.102,268.34 H 719.844 V 12.7813 H 561.191 V 705.965 h 212.954 c 145.878,0 234.275,-60.692 234.275,-226.793 0,-105.434 -35.166,-168.246 -132.053,-191.684 l 71.348,-57.5" /><path
         id="path20"
         style="fill:#231f20;fill-opacity:1;fill-rule:nonzero;stroke:none"
         d="M 1416.26,313.047 V 423.77 c 0,144.832 -25.55,166.132 -86.23,166.132 -59.64,0 -84.14,-23.418 -84.14,-170.371 V 309.844 c 0,-163.977 27.68,-189.551 85.18,-189.551 59.64,0 85.19,29.844 85.19,192.754 z m -336.49,47.93 c 0,224.675 74.56,356.718 251.3,356.718 178.89,0 251.3,-129.933 251.3,-354.609 C 1582.37,141.602 1507.84,0 1330.03,0 1152.19,0 1079.77,140.555 1079.77,360.977" /><path
         id="path22"
         style="fill:#231f20;fill-opacity:1;fill-rule:nonzero;stroke:none"
         d="m 1676.09,504.98 h 8.99 l 71.34,-57.335 78.36,-217.235 V 12.7813 H 1676.09 V 504.98" /><path
         id="path24"
         style="fill:#231f20;fill-opacity:1;fill-rule:nonzero;stroke:none"
         d="m 1918.91,546.836 v 159.129 h 422.72 V 546.836 H 2209.6 V 12.7813 H 2050.93 V 546.836 h -132.02" /></g></g></svg>