<?xml version="1.0" encoding="UTF-8" standalone="no"?>
<!DOCTYPE svg PUBLIC "-//W3C//DTD SVG 1.1//EN" "http://www.w3.org/Graphics/SVG/1.1/DTD/svg11.dtd">
<svg width="100%" height="100%" viewBox="0 0 3242 1384" version="1.1" xmlns="http://www.w3.org/2000/svg" xmlns:xlink="http://www.w3.org/1999/xlink" xml:space="preserve" style="fill-rule:evenodd;clip-rule:evenodd;stroke-linejoin:round;stroke-miterlimit:1.41421;">
    <g transform="matrix(4.16667,0,0,4.16667,0,0)">
        <clipPath id="_clip1">
            <rect x="0.06" y="0.445" width="777.026" height="331.555"/>
        </clipPath>
        <g clip-path="url(#_clip1)">
            <path d="M205.319,239.035C203.484,226.313 200.264,213.793 196.106,201.526C193.218,193.056 190.084,184.631 186.751,176.235C185.253,177.786 183.788,179.363 182.383,180.994C176.775,187.289 172.016,194.219 168.037,201.6C172.437,214.057 175.528,226.938 177.272,239.916C180.719,264.72 179.879,289.657 176.908,314.07C183.813,313.56 190.603,312.571 197.249,311.131C201.485,300.272 204.347,288.934 205.803,277.478C207.404,264.69 207.143,251.751 205.319,239.035" style="fill:rgb(15,157,217);fill-rule:nonzero;"/>
            <path d="M234.662,286.787C236.558,281.736 238.261,276.624 239.677,271.452C242.535,261.121 244.267,250.547 244.466,240C244.68,229.444 243.291,218.988 240.815,208.673C238.372,198.334 234.688,188.154 231.768,177.35C229.054,167.547 226.868,157.092 226.773,146.38C220.603,149.943 214.578,153.667 208.854,157.749C204.305,160.879 199.925,164.216 195.765,167.768C199.656,177.762 203.431,187.875 206.408,198.31C210.121,211.222 213.049,224.496 214.224,238.012C215.443,251.508 214.99,265.198 212.601,278.516C210.686,289.249 207.503,299.687 203.354,309.673C212.3,307.329 220.943,304.17 229.197,300.256C229.916,298.224 230.847,296.283 231.652,294.314C232.707,291.822 233.701,289.311 234.662,286.787" style="fill:rgb(11,97,172);fill-rule:nonzero;"/>
            <path d="M304.682,146.607C303.013,152.576 300.929,158.301 299.011,163.939C297.128,169.592 295.251,175.096 293.725,180.622C290.713,191.661 289.062,202.827 289.101,214.391C289.104,220.16 289.47,226.009 290.317,231.835C290.739,234.75 291.254,237.66 291.85,240.564C292.037,241.478 292.243,242.378 292.444,243.279C302.292,227.073 309.189,208.721 312.257,188.851C315.523,167.695 314.194,146.546 308.622,126.521C308.004,133.351 306.547,140.135 304.682,146.607" style="fill:rgb(115,32,96);fill-rule:nonzero;"/>
            <path d="M106.615,63.878C107.403,76.404 109.72,88.729 113.815,100.368C117.173,110.467 122.052,119.843 127.576,129.036C128.625,127.336 129.649,125.621 130.736,123.944C134.62,118.063 138.791,112.374 143.15,106.836C147.529,101.315 152.069,95.912 156.935,90.806C157.098,90.636 157.271,90.478 157.435,90.308C157.358,89.809 157.267,89.317 157.196,88.817C155.268,75.293 155.587,61.149 159.251,47.827C162.16,37.085 167.204,27.034 173.548,18.145C150.188,16.874 127.665,21.169 107.322,29.896C106.919,34.945 106.5,39.954 106.37,44.99C106.164,51.307 106.209,57.615 106.615,63.878" style="fill:rgb(15,157,217);fill-rule:nonzero;"/>
            <path d="M166.517,49.581C164.275,60.207 164.362,71.143 165.996,81.907C168.048,79.983 170.109,78.066 172.231,76.214C191.822,59.121 214.588,45.288 239.36,37.487C223.799,28.593 206.599,22.504 188.354,19.687C185.852,19.301 183.309,18.972 180.799,18.714C180.439,18.677 180.083,18.664 179.727,18.631C177.032,22.829 174.546,27.092 172.502,31.573C169.818,37.359 167.803,43.406 166.517,49.581" style="fill:rgb(11,97,172);fill-rule:nonzero;"/>
            <path d="M126.305,278.359C122.877,267.124 117.364,256.642 111.053,246.56C107.63,241.033 103.925,235.623 100.137,230.21C98.158,241.196 96.956,252.339 96.647,263.527C96.457,270.308 96.591,277.104 97.061,283.885C97.297,287.275 97.613,290.661 98.018,294.038C98.193,295.468 98.382,296.936 98.526,298.415C108.871,303.659 119.868,307.693 131.356,310.412C131.267,305.389 130.938,300.445 130.246,295.538C129.426,289.681 127.985,283.968 126.305,278.359" style="fill:rgb(214,29,91);fill-rule:nonzero;"/>
            <path d="M245.446,41.164C233.162,45.524 221.463,51.247 210.578,58.327C199.219,65.646 188.762,74.276 179.045,83.623C175.422,87.117 171.96,90.773 168.578,94.496C167.426,95.763 166.25,97.007 165.127,98.295C163.448,100.209 161.805,102.153 160.165,104.099C157.46,107.309 154.801,110.553 152.267,113.898C148.173,119.256 144.325,124.798 140.639,130.443C138.527,133.619 136.501,136.856 134.53,140.122C140.005,148.586 145.735,157.074 151.04,166.017C155.196,173.07 159.094,180.375 162.509,187.916C165.79,182.729 169.458,177.791 173.521,173.206C176.213,170.185 179.057,167.322 182,164.578C185.012,161.77 188.133,159.093 191.357,156.562C195.008,153.697 198.771,150.999 202.618,148.472C210.708,143.309 219.086,138.8 227.56,134.658C228.771,125.916 231.256,117.397 234.925,109.585C239.623,99.117 245.854,89.654 252.583,80.774C255.934,76.317 259.442,72.008 263.044,67.804C265.201,65.32 267.375,62.841 269.614,60.436C262.217,53.139 254.118,46.697 245.446,41.164" style="fill:rgb(214,29,91);fill-rule:nonzero;"/>
            <path d="M296.348,143.647C306.696,121.381 300.922,105.204 299.261,101.778C298.495,100.2 297.731,98.624 296.908,97.072C293.534,90.702 289.678,84.531 285.341,78.609C281.613,73.518 277.576,68.742 273.311,64.227C271.479,66.674 269.649,69.111 267.878,71.601C264.73,76.018 261.689,80.492 258.863,85.078C253.229,94.255 248.345,103.805 244.685,113.599C242.902,118.514 241.474,123.493 240.345,128.484C240.33,128.56 240.318,128.635 240.302,128.711C239.523,132.353 239.003,136.028 238.757,139.715C238.669,141.021 238.614,142.33 238.596,143.638C238.249,153.802 240.034,164.052 242.755,174.414C245.511,184.759 248.674,195.421 250.817,206.51C253.012,217.574 253.918,229.087 253.009,240.413C252.152,251.744 249.664,262.829 246.083,273.412C244.303,278.713 242.244,283.895 240,288.976C238.868,291.51 237.705,294.028 236.482,296.514C236.474,296.53 236.464,296.547 236.457,296.564C257.328,285.224 275.324,268.978 288.71,249.113C288.252,248.278 287.896,247.402 287.555,246.518C287.017,245.113 286.48,243.634 285.977,242.196C284.959,239.297 284.019,236.361 283.167,233.384C281.474,227.435 280.099,221.329 279.297,215.079C277.667,202.601 278.736,189.476 282.452,177.407C285.965,165.238 291.418,154.252 296.348,143.647" style="fill:rgb(38,59,130);fill-rule:nonzero;"/>
            <path d="M171.925,298.069C171.888,291.71 171.723,285.366 171.352,279.046C170.733,266.403 169.42,253.849 167.222,241.517C165.663,233.118 163.707,224.82 161.208,216.713C160.045,212.941 158.778,209.206 157.358,205.528C156.756,203.935 156.076,202.374 155.428,200.8C151.356,190.902 146.482,181.338 140.865,172.072C136.798,165.218 132.407,158.446 128.052,151.539C125.69,147.793 123.344,144.008 121.064,140.131C120.93,139.9 120.786,139.674 120.648,139.442C114.093,128.168 108.352,116.025 104.705,103.235C101.074,90.431 99.55,77.193 99.459,64.132C99.401,57.593 99.719,51.082 100.291,44.616C100.676,40.547 101.122,36.481 101.698,32.447C95.078,35.622 88.716,39.272 82.657,43.372C78.46,54.247 74.505,65.177 71.616,76.377C68.576,88.011 66.479,99.851 65.88,111.696C65.275,123.53 66.138,135.345 68.774,146.732C70.079,152.431 71.869,157.998 73.966,163.457C76.02,168.933 78.469,174.278 81.219,179.503C85.588,187.861 90.777,195.855 96.145,203.864C97.5,205.889 98.866,207.916 100.236,209.948C101.316,211.523 102.402,213.11 103.489,214.693C109.31,223.187 115.142,231.837 120.385,241.014C126.561,251.903 131.697,263.679 134.699,276.059C136.259,282.23 136.998,288.588 137.295,294.897C137.551,300.487 137.31,306.104 136.619,311.584C138.767,312.011 140.922,312.409 143.098,312.746C145.114,313.058 147.152,313.299 149.179,313.528C149.672,313.584 150.167,313.667 150.658,313.72C151.881,313.845 153.097,313.911 154.316,314.007C160.181,314.465 166,314.604 171.749,314.384C171.848,308.932 171.925,303.494 171.925,298.069" style="fill:rgb(98,160,67);fill-rule:nonzero;"/>
            <path d="M92.716,295.138L92.717,295.138C92.702,295.055 92.708,295.096 92.716,295.138" style="fill:rgb(13,101,52);fill-rule:nonzero;"/>
            <path d="M92.717,295.138L92.716,295.138C92.723,295.181 92.731,295.224 92.717,295.138" style="fill:rgb(13,101,52);fill-rule:nonzero;"/>
            <path d="M61.398,256.222C60.097,248.815 57.972,241.598 55.29,234.602C49.926,220.587 42.475,207.424 35.119,193.8C31.464,186.977 27.918,179.961 24.992,172.577C22.258,165.69 20.015,158.54 18.257,151.297C13.489,198.455 31.355,242.612 63.082,273.065C63.025,271.195 62.939,269.321 62.797,267.433C62.513,263.666 62.046,259.924 61.398,256.222" style="fill:rgb(110,63,24);fill-rule:nonzero;"/>
            <path d="M182.766,1.326C91.846,-8.041 10.249,58.31 0.882,149.235C-8.485,240.158 57.869,321.751 148.791,331.118C239.716,340.485 321.306,274.135 330.672,183.211C340.04,92.286 273.693,10.695 182.766,1.326ZM181.942,9.327C268.456,18.241 331.585,95.874 322.672,182.386C313.759,268.899 236.127,332.029 149.615,323.115C63.102,314.202 -0.028,236.571 8.884,150.059C17.797,63.546 95.431,0.415 181.942,9.327" style="fill:rgb(146,148,151);fill-rule:nonzero;"/>
            <path d="M427.907,183.058C427.75,171.424 420.104,164.112 407.613,164.112C395.835,164.112 388.529,171.591 387.025,183.058L427.907,183.058ZM387.025,198.016C388.359,209.818 397.325,216.964 408.458,216.964C418.436,216.964 424.916,212.306 429.901,206.157L444.198,216.964C434.892,228.428 423.107,232.918 410.47,232.918C386.371,232.918 367.086,216.13 367.086,191.039C367.086,165.94 386.371,149.158 410.47,149.158C432.737,149.158 447.85,164.782 447.85,192.533L447.85,198.016L387.025,198.016" style="fill:rgb(146,148,151);fill-rule:nonzero;"/>
            <path d="M468.282,113.26L489.23,113.26L489.23,211.972L539.253,211.972L539.253,230.924L468.282,230.924L468.282,113.26" style="fill:rgb(109,111,113);fill-rule:nonzero;"/>
            <rect x="554.039" y="113.26" width="20.955" height="117.664" style="fill:rgb(109,111,113);fill-rule:nonzero;"/>
            <path d="M600.759,113.26L676.705,113.26L676.705,132.211L621.697,132.211L621.697,163.117L673.545,163.117L673.545,182.064L621.697,182.064L621.697,230.924L600.759,230.924L600.759,113.26" style="fill:rgb(109,111,113);fill-rule:nonzero;"/>
            <path d="M696.136,113.26L774.082,113.26L774.082,132.211L717.088,132.211L717.088,161.13L771.086,161.13L771.086,180.07L717.088,180.07L717.088,211.972L777.086,211.972L777.086,230.924L696.136,230.924L696.136,113.26" style="fill:rgb(109,111,113);fill-rule:nonzero;"/>
            <path d="M92.717,295.138C92.128,291.695 91.561,287.914 91.147,284.442C90.315,277.499 89.828,270.509 89.672,263.507C89.363,249.497 90.384,235.445 92.604,221.571C92.694,221.009 92.798,220.449 92.891,219.885C92.124,218.792 91.355,217.706 90.592,216.604C83.503,206.577 76.712,196.061 70.971,184.801C68.106,179.174 65.528,173.357 63.368,167.362C61.246,161.355 59.606,155.161 58.424,148.895C56.051,136.356 55.674,123.518 57.012,111.005C59.295,89.395 65.911,68.882 74.385,49.41C40.398,73.877 15.146,127.294 23.772,147.926C26.693,154.912 30.233,161.612 34.069,168.177C37.913,174.742 41.798,181.341 45.539,188.144C52.986,201.719 60.173,216.093 64.398,231.633C66.523,239.374 67.945,247.32 68.622,255.293C68.952,259.281 69.086,263.278 69.025,267.259C68.996,269.241 68.908,271.243 68.784,273.246L68.548,276.21C68.485,276.745 68.401,277.278 68.297,277.811C75.792,284.351 83.956,290.178 92.716,295.138C92.708,295.096 92.702,295.055 92.717,295.138" style="fill:rgb(13,101,52);fill-rule:nonzero;"/>
        </g>
    </g>
</svg>
