<?xml version="1.0" encoding="UTF-8" standalone="no"?>
<!DOCTYPE svg PUBLIC "-//W3C//DTD SVG 1.1//EN" "http://www.w3.org/Graphics/SVG/1.1/DTD/svg11.dtd">
<svg width="100%" height="100%" viewBox="0 0 2363 863" version="1.1" xmlns="http://www.w3.org/2000/svg" xmlns:xlink="http://www.w3.org/1999/xlink" xml:space="preserve" style="fill-rule:evenodd;clip-rule:evenodd;stroke-linejoin:round;stroke-miterlimit:1.41421;">
    <g transform="matrix(4.16667,0,0,4.16667,0,0)">
        <rect x="283.465" y="137.244" width="283.465" height="56.218" style="fill:white;fill-rule:nonzero;"/>
        <path d="M306.517,170.489C307.169,171.567 308.416,172.107 310.257,172.107C312.097,172.107 313.339,171.576 313.981,170.518C314.624,169.457 314.944,167.682 314.944,165.189C314.944,162.695 314.614,160.883 313.953,159.75C313.291,158.618 312.059,158.053 310.257,158.053C308.454,158.053 307.217,158.618 306.546,159.75C305.874,160.883 305.539,162.687 305.539,165.161C305.539,167.637 305.865,169.412 306.517,170.489ZM316.483,172.462C315.305,173.996 313.229,174.764 310.257,174.764C307.284,174.764 305.203,173.991 304.015,172.448C302.825,170.905 302.23,168.481 302.23,165.176C302.23,161.869 302.83,159.412 304.029,157.806C305.227,156.198 307.303,155.395 310.257,155.395C313.209,155.395 315.279,156.193 316.47,157.791C317.658,159.391 318.253,161.852 318.253,165.176C318.253,168.499 317.663,170.929 316.483,172.462Z" style="fill:rgb(35,31,32);fill-rule:nonzero;"/>
        <path d="M327.236,168.462C327.236,170.892 328.578,172.107 331.263,172.107C333.948,172.107 335.29,170.892 335.29,168.462L335.29,155.696L338.512,155.696L338.512,168.407C338.512,170.617 337.903,172.23 336.685,173.243C335.467,174.256 333.655,174.764 331.249,174.764C328.842,174.764 327.035,174.256 325.827,173.243C324.619,172.23 324.014,170.617 324.014,168.407L324.014,155.696L327.236,155.696L327.236,168.462Z" style="fill:rgb(35,31,32);fill-rule:nonzero;"/>
        <path d="M344.032,158.683L344.032,155.971L358.415,155.971L358.415,158.683L352.863,158.683L352.863,174.736L349.642,174.736L349.642,158.683L344.032,158.683Z" style="fill:rgb(35,31,32);fill-rule:nonzero;"/>
        <path d="M369.96,158.326C367.524,158.326 366.307,159.14 366.307,160.765C366.307,161.605 366.595,162.202 367.17,162.56C367.744,162.916 369.015,163.354 370.98,163.874C372.945,164.395 374.331,165.016 375.137,165.736C375.942,166.459 376.346,167.596 376.346,169.148C376.346,171.12 375.756,172.596 374.576,173.571C373.396,174.55 371.79,175.038 369.759,175.038C368.129,175.038 366.325,174.855 364.351,174.489L363.314,174.298L363.632,171.859C366.221,172.189 368.195,172.353 369.557,172.353C371.935,172.353 373.123,171.349 373.123,169.34C373.123,168.555 372.854,167.975 372.318,167.6C371.78,167.226 370.572,166.815 368.693,166.366C366.814,165.92 365.414,165.304 364.494,164.518C363.573,163.732 363.113,162.49 363.113,160.792C363.113,159.094 363.693,157.811 364.854,156.942C366.014,156.075 367.619,155.642 369.672,155.642C371.148,155.642 372.894,155.806 374.906,156.135L375.913,156.3L375.654,158.765C372.97,158.473 371.071,158.326 369.96,158.326Z" style="fill:rgb(35,31,32);fill-rule:nonzero;"/>
        <path d="M383.188,174.736L383.188,155.971L388.74,155.971L393.142,170.627L397.542,155.971L403.122,155.971L403.122,174.736L399.9,174.736L399.9,159.34L399.47,159.34L394.81,173.97L391.473,173.97L386.813,159.34L386.381,159.34L386.381,174.736L383.188,174.736Z" style="fill:rgb(35,31,32);fill-rule:nonzero;"/>
        <path d="M416.942,158.519L414.497,168.024L420.796,168.024L418.38,158.519L416.942,158.519ZM409.607,174.736L414.468,155.971L420.825,155.971L425.715,174.736L422.494,174.736L421.43,170.709L413.864,170.709L412.8,174.736L409.607,174.736Z" style="fill:rgb(35,31,32);fill-rule:nonzero;"/>
        <path d="M442.799,161.97C442.799,159.724 441.667,158.6 439.405,158.6L435.119,158.6L435.119,165.422L439.462,165.422C440.613,165.422 441.456,165.107 441.993,164.477C442.53,163.847 442.799,163.011 442.799,161.97ZM435.119,168.052L435.119,174.736L431.926,174.736L431.926,155.97L439.405,155.97C443.854,155.97 446.078,157.961 446.078,161.943C446.078,164.609 445.004,166.417 442.856,167.367L446.107,174.736L442.597,174.736L439.75,168.052L435.119,168.052Z" style="fill:rgb(35,31,32);fill-rule:nonzero;"/>
        <path d="M451.834,158.683L451.834,155.971L466.216,155.971L466.216,158.683L460.665,158.683L460.665,174.736L457.443,174.736L457.443,158.683L451.834,158.683Z" style="fill:rgb(35,31,32);fill-rule:nonzero;"/>
        <path d="M494.544,161.695C494.544,159.449 493.412,158.325 491.15,158.325L486.864,158.325L486.864,165.148L491.207,165.148C492.357,165.148 493.201,164.833 493.738,164.202C494.275,163.572 494.544,162.736 494.544,161.695ZM486.864,167.777L486.864,174.462L483.671,174.462L483.671,155.695L491.15,155.695C495.598,155.695 497.823,157.687 497.823,161.669C497.823,164.335 496.749,166.143 494.601,167.093L497.852,174.462L494.342,174.462L491.495,167.777L486.864,167.777Z" style="fill:rgb(35,31,32);fill-rule:nonzero;"/>
        <rect x="505.113" y="155.696" width="3.193" height="18.766" style="fill:rgb(35,31,32);fill-rule:nonzero;"/>
        <path d="M521.749,158.052C519.314,158.052 518.097,158.865 518.097,160.49C518.097,161.33 518.385,161.928 518.959,162.285C519.534,162.642 520.805,163.079 522.771,163.6C524.736,164.12 526.121,164.741 526.928,165.462C527.732,166.185 528.136,167.321 528.136,168.873C528.136,170.847 527.545,172.321 526.366,173.297C525.188,174.275 523.58,174.764 521.547,174.764C519.918,174.764 518.115,174.58 516.141,174.215L515.104,174.024L515.421,171.585C518.011,171.914 519.985,172.078 521.347,172.078C523.724,172.078 524.913,171.074 524.913,169.065C524.913,168.28 524.645,167.7 524.107,167.325C523.57,166.951 522.362,166.54 520.482,166.092C518.604,165.646 517.203,165.029 516.284,164.243C515.362,163.458 514.903,162.216 514.903,160.518C514.903,158.819 515.482,157.536 516.643,156.668C517.804,155.801 519.409,155.367 521.461,155.367C522.938,155.367 524.684,155.531 526.697,155.86L527.703,156.025L527.445,158.49C524.76,158.198 522.861,158.052 521.749,158.052Z" style="fill:rgb(35,31,32);fill-rule:nonzero;"/>
        <path d="M537.348,174.462L534.155,174.462L534.155,155.695L537.348,155.695L537.348,164.161L540.282,163.941L544.309,155.695L547.962,155.695L543.101,165.12L548.164,174.462L544.453,174.462L540.282,166.627L537.348,166.818L537.348,174.462Z" style="fill:rgb(35,31,32);fill-rule:nonzero;"/>
        <rect x="283.465" y="193.462" width="14.757" height="13.538" style="fill:rgb(80,32,66);fill-rule:nonzero;"/>
        <rect x="298.235" y="193.462" width="14.757" height="13.538" style="fill:rgb(130,54,107);fill-rule:nonzero;"/>
        <rect x="313.006" y="193.462" width="14.757" height="13.538" style="fill:rgb(201,70,132);fill-rule:nonzero;"/>
        <rect x="327.777" y="193.462" width="14.757" height="13.538" style="fill:rgb(238,30,88);fill-rule:nonzero;"/>
        <rect x="445.942" y="193.462" width="14.757" height="13.538" style="fill:rgb(238,30,88);fill-rule:nonzero;"/>
        <rect x="342.547" y="193.462" width="14.757" height="13.538" style="fill:rgb(237,31,38);fill-rule:nonzero;"/>
        <rect x="431.171" y="193.462" width="14.757" height="13.538" style="fill:rgb(237,31,38);fill-rule:nonzero;"/>
        <rect x="357.318" y="193.462" width="14.757" height="13.538" style="fill:rgb(239,64,35);fill-rule:nonzero;"/>
        <rect x="416.401" y="193.462" width="14.757" height="13.538" style="fill:rgb(239,64,35);fill-rule:nonzero;"/>
        <rect x="372.089" y="193.462" width="14.757" height="13.538" style="fill:rgb(243,116,38);fill-rule:nonzero;"/>
        <rect x="401.63" y="193.462" width="14.757" height="13.538" style="fill:rgb(243,116,38);fill-rule:nonzero;"/>
        <rect x="386.859" y="193.462" width="14.757" height="13.538" style="fill:rgb(252,180,20);fill-rule:nonzero;"/>
        <rect x="0" y="0.232" width="283.465" height="137.012" style="fill:white;fill-rule:nonzero;"/>
        <path d="M40.104,28.674L40.104,24.013L23.777,24.013L23.777,47.792L29.082,47.792L29.082,38.469L39.561,38.469L39.561,33.813L29.082,33.813L29.082,28.674L40.104,28.674Z" style="fill:rgb(35,31,32);fill-rule:nonzero;"/>
        <path d="M65.388,43.101L65.388,38.168L76.038,38.168L76.038,33.643L65.388,33.643L65.388,28.745L77.23,28.745L77.23,24.012L60.083,24.012L60.083,47.792L77.602,47.792L77.602,43.101L65.388,43.101Z" style="fill:rgb(35,31,32);fill-rule:nonzero;"/>
        <path d="M102.261,37.997L105.258,31.087L108.215,37.997L102.261,37.997ZM107.808,24.013L102.673,24.013L92.4,47.792L98.047,47.792L100.255,42.652L110.221,42.652L112.435,47.792L118.081,47.792L107.808,24.013Z" style="fill:rgb(35,31,32);fill-rule:nonzero;"/>
        <path d="M132.25,24.012L132.25,28.608L138.983,28.608L138.983,47.792L144.293,47.792L144.293,28.608L151.026,28.608L151.026,24.012L132.25,24.012Z" style="fill:rgb(35,31,32);fill-rule:nonzero;"/>
        <path d="M182.918,23.776L182.918,36.91C182.918,38.811 182.48,40.315 181.606,41.416C180.737,42.517 179.55,43.065 178.056,43.065C176.558,43.065 175.366,42.517 174.48,41.416C173.596,40.315 173.154,38.811 173.154,36.91L173.154,23.776L167.849,23.776L167.849,37.081C167.849,40.506 168.809,43.146 170.725,45.006C172.641,46.862 175.084,47.792 178.056,47.792C181.022,47.792 183.461,46.872 185.368,45.021C187.273,43.176 188.224,40.526 188.224,37.081L188.224,23.776L182.918,23.776Z" style="fill:rgb(35,31,32);fill-rule:nonzero;"/>
        <path d="M217.691,34.728C217.033,35.321 215.8,35.613 213.985,35.613L210.108,35.613L210.108,28.573L214.086,28.573C215.791,28.573 216.978,28.81 217.662,29.287C218.34,29.765 218.683,30.64 218.683,31.922C218.683,33.204 218.351,34.14 217.691,34.728ZM219.567,39.289C222.58,38.178 224.087,35.719 224.087,31.907C224.087,29.141 223.304,27.13 221.725,25.883C220.146,24.636 217.51,24.012 213.814,24.012L204.804,24.012L204.804,47.792L210.108,47.792L210.108,40.209L213.785,40.209L219.055,47.792L225.586,47.792L219.567,39.289Z" style="fill:rgb(35,31,32);fill-rule:nonzero;"/>
        <path d="M247.471,43.101L247.471,38.168L258.121,38.168L258.121,33.643L247.471,33.643L247.471,28.745L259.312,28.745L259.312,24.018L242.166,24.018L242.166,47.793L259.685,47.793L259.685,43.101L247.471,43.101Z" style="fill:rgb(35,31,32);fill-rule:nonzero;"/>
        <path d="M174.582,108.774L174.582,103.84L185.231,103.84L185.231,99.315L174.582,99.315L174.582,94.418L186.423,94.418L186.423,89.69L169.276,89.69L169.276,113.465L186.795,113.465L186.795,108.774L174.582,108.774Z" style="fill:rgb(35,31,32);fill-rule:nonzero;"/>
        <path d="M71.887,101.17C71.253,101.884 70.052,102.241 68.282,102.241L64.707,102.241L64.707,94.247L67.739,94.247C69.483,94.247 70.772,94.538 71.595,95.117C72.425,95.694 72.837,96.67 72.837,98.043C72.837,99.411 72.522,100.456 71.887,101.17ZM75.779,91.813C74.115,90.399 71.455,89.69 67.804,89.69L59.401,89.69L59.401,113.465L64.707,113.465L64.707,106.832L67.875,106.832C71.389,106.832 74,106.153 75.714,104.79C77.428,103.433 78.283,101.281 78.283,98.345C78.283,95.408 77.448,93.235 75.779,91.813Z" style="fill:rgb(35,31,32);fill-rule:nonzero;"/>
        <path d="M102.264,103.67L105.261,96.766L108.218,103.67L102.264,103.67ZM107.81,89.691L102.671,89.691L92.397,113.464L98.049,113.464L100.258,108.33L110.224,108.33L112.437,113.464L118.084,113.464L107.81,89.691Z" style="fill:rgb(35,31,32);fill-rule:nonzero;"/>
        <path d="M142.843,108.502C140.941,108.502 139.317,107.827 137.979,106.495C136.643,105.152 135.974,103.378 135.974,101.17C135.974,98.958 136.683,97.198 138.101,95.896C139.519,94.593 141.224,93.94 143.22,93.94C145.713,93.94 147.801,94.986 149.48,97.072L152.779,93.331C150.148,90.359 146.88,88.871 142.983,88.871C139.489,88.871 136.537,90.053 134.119,92.411C131.705,94.769 130.498,97.711 130.498,101.235C130.498,104.761 131.68,107.682 134.053,109.994C136.421,112.309 139.438,113.465 143.099,113.465C146.765,113.465 149.942,111.945 152.643,108.908L149.239,105.403C147.584,107.466 145.453,108.502 142.843,108.502Z" style="fill:rgb(35,31,32);fill-rule:nonzero;"/>
        <path d="M40.183,101.421C39.122,100.477 37.689,99.732 35.894,99.189L35.889,99.189C35.577,99.094 35.26,99.003 34.928,98.923C32.67,98.37 31.232,97.887 30.609,97.48C29.985,97.067 29.674,96.519 29.674,95.825C29.674,95.136 29.925,94.578 30.438,94.161C30.946,93.744 31.645,93.532 32.53,93.532C34.526,93.532 36.467,94.176 38.353,95.468L38.861,94.699L40.972,91.501C39.942,90.737 38.77,90.133 37.463,89.686C35.874,89.143 34.285,88.871 32.701,88.871C30.272,88.871 28.245,89.484 26.626,90.706C25.007,91.933 24.193,93.673 24.193,95.931C24.193,98.184 24.836,99.843 26.118,100.894C26.963,101.592 28.14,102.206 29.638,102.724C30.403,102.996 31.253,103.242 32.188,103.463C32.449,103.528 32.696,103.594 32.932,103.66L32.937,103.66C34.27,104.022 35.19,104.383 35.693,104.741C36.281,105.157 36.578,105.726 36.578,106.44C36.578,107.153 36.301,107.723 35.743,108.14C35.19,108.562 34.42,108.769 33.45,108.769C32.379,108.769 31.263,108.496 30.096,107.953C29.382,107.621 28.653,107.19 27.904,106.647C27.607,106.44 27.31,106.214 27.009,105.968L23.846,109.869C26.687,112.268 29.855,113.465 33.344,113.465C35.954,113.465 38.056,112.801 39.655,111.474C41.254,110.146 42.054,108.416 42.054,106.289C42.054,104.157 41.43,102.533 40.183,101.421Z" style="fill:rgb(35,31,32);fill-rule:nonzero;"/>
    </g>
</svg>
