<svg width="200" height="86" viewBox="0 0 200 86" version="1.1" xmlns="http://www.w3.org/2000/svg" xmlns:xlink="http://www.w3.org/1999/xlink" xmlns:figma="http://www.figma.com/figma/ns">
<title>frontier-logo</title>
<desc>Created using Figma</desc>
<g id="Canvas" transform="translate(-250 -293)" figma:type="canvas">
<g id="frontier-logo" style="mix-blend-mode:normal;" figma:type="frame">
<g id="Group" style="mix-blend-mode:normal;" figma:type="frame">
<g id="Vector" style="mix-blend-mode:normal;" figma:type="vector">
<use xlink:href="#path0_fill" transform="translate(284.965 319.958)" style="mix-blend-mode:normal;"/>
</g>
</g>
<g id="Group" style="mix-blend-mode:normal;" figma:type="frame">
<g id="Vector" style="mix-blend-mode:normal;" figma:type="vector">
<use xlink:href="#path1_fill" transform="translate(305.721 319.958)" style="mix-blend-mode:normal;"/>
</g>
</g>
<g id="Group" style="mix-blend-mode:normal;" figma:type="frame">
<g id="Vector" style="mix-blend-mode:normal;" figma:type="vector">
<use xlink:href="#path2_fill" transform="translate(353.185 319.958)" style="mix-blend-mode:normal;"/>
</g>
</g>
<g id="Group" style="mix-blend-mode:normal;" figma:type="frame">
<g id="Vector" style="mix-blend-mode:normal;" figma:type="vector">
<use xlink:href="#path3_fill" transform="translate(376.351 319.958)" style="mix-blend-mode:normal;"/>
</g>
</g>
<g id="Group" style="mix-blend-mode:normal;" figma:type="frame">
<g id="Vector" style="mix-blend-mode:normal;" figma:type="vector">
<use xlink:href="#path4_fill" transform="translate(397.978 319.958)" style="mix-blend-mode:normal;"/>
</g>
</g>
<g id="Group" style="mix-blend-mode:normal;" figma:type="frame">
<g id="Vector" style="mix-blend-mode:normal;" figma:type="vector">
<use xlink:href="#path5_fill" transform="translate(407.239 319.958)" style="mix-blend-mode:normal;"/>
</g>
</g>
<g id="Group" style="mix-blend-mode:normal;" figma:type="frame">
<g id="Vector" style="mix-blend-mode:normal;" figma:type="vector">
<use xlink:href="#path6_fill" transform="translate(428.46 319.958)" style="mix-blend-mode:normal;"/>
</g>
</g>
<g id="Group" style="mix-blend-mode:normal;" figma:type="frame">
<g id="Vector" style="mix-blend-mode:normal;" figma:type="vector">
<use xlink:href="#path7_fill" transform="translate(328.335 319.493)" style="mix-blend-mode:normal;"/>
</g>
</g>
<g id="Vector" style="mix-blend-mode:normal;" figma:type="vector">
<use xlink:href="#path8_fill" transform="translate(250 293)" style="mix-blend-mode:normal;"/>
</g>
</g>
</g>
<defs>
<path id="path0_fill" d="M 4.12541e-15 4.42962e-07L 18.2018 4.42962e-07L 18.2018 5.25443L 6.73496 5.25443L 6.73496 13.2667L 15.5601 13.2667L 15.5601 18.5211L 6.73496 18.5211L 6.73496 30.6557L 4.12541e-15 30.6557L 4.12541e-15 4.42962e-07L 4.12541e-15 4.42962e-07Z"/>
<path id="path1_fill" d="M 0.0290318 4.42962e-07L 9.66699 4.42962e-07C 11.5249 4.42962e-07 12.9764 0.0870908 13.9634 0.261271C 14.9504 0.435451 15.9665 0.899929 16.9825 1.65471C 17.9986 2.40949 18.8114 3.45457 19.363 4.76092C 19.9436 6.06727 20.2339 7.5478 20.2339 9.17348C 20.2339 13.0054 18.7824 15.7052 15.9084 17.2728L 21.5403 30.6847L 14.1957 30.6847L 10.1024 18.5502L 6.73496 18.5502L 6.73496 30.6847L -1.65016e-14 30.6847L -1.65016e-14 4.42962e-07L 0.0290318 4.42962e-07ZM 6.76399 4.96413L 6.76399 13.557L 9.72505 13.557C 12.3668 13.557 13.6731 12.0765 13.6731 9.14445C 13.6731 8.1284 13.4699 7.28653 13.0925 6.64787C 12.7151 6.00921 12.2507 5.54473 11.7281 5.31249C 11.2056 5.08025 10.4508 4.96413 9.43475 4.96413L 6.76399 4.96413Z"/>
<path id="path2_fill" d="M 0 4.42962e-07L 7.48973 4.42962e-07L 15.3859 19.0437L 15.3859 4.42962e-07L 20.5823 4.42962e-07L 20.5823 30.6557L 14.5731 30.6557L 5.2254 8.47676L 5.2254 30.6557L 0 30.6557L 0 4.42962e-07Z"/>
<path id="path3_fill" d="M -3.5437e-06 4.42962e-07L 19.1017 4.42962e-07L 19.1017 5.74794L 12.8313 5.74794L 12.8313 30.6557L 6.09629 30.6557L 6.09629 5.74794L -3.5437e-06 5.74794L -3.5437e-06 4.42962e-07Z"/>
<path id="path4_fill" d="M -3.5437e-06 4.42962e-07L 6.73496 4.42962e-07L 6.73496 30.6557L -3.5437e-06 30.6557L -3.5437e-06 4.42962e-07Z"/>
<path id="path5_fill" d="M 3.5437e-06 4.42962e-07L 18.6373 4.42962e-07L 18.6373 5.25443L 6.73496 5.25443L 6.73496 12.3668L 15.9955 12.3668L 15.9955 17.6212L 6.73496 17.6212L 6.73496 25.169L 18.6373 25.169L 18.6373 30.6557L 3.5437e-06 30.6557L 3.5437e-06 4.42962e-07Z"/>
<path id="path6_fill" d="M 0.0290371 4.42962e-07L 9.66698 4.42962e-07C 11.5249 4.42962e-07 12.9764 0.0870908 13.9634 0.261271C 14.9505 0.435451 15.9665 0.899929 16.9825 1.65471C 17.9986 2.40949 18.8114 3.45457 19.363 4.76092C 19.9436 6.06727 20.2339 7.5478 20.2339 9.17348C 20.2339 13.0054 18.7824 15.7052 15.9084 17.2728L 21.5403 30.6847L 14.1957 30.6847L 10.1024 18.5502L 6.73496 18.5502L 6.73496 30.6847L -3.5437e-06 30.6847L -3.5437e-06 4.42962e-07L 0.0290371 4.42962e-07ZM 6.76398 4.96413L 6.76398 13.557L 9.72504 13.557C 12.3668 13.557 13.6731 12.0765 13.6731 9.14445C 13.6731 8.1284 13.4699 7.28653 13.0925 6.64787C 12.7151 6.00921 12.2507 5.54473 11.7281 5.31249C 11.2056 5.08025 10.4508 4.96413 9.43474 4.96413L 6.76398 4.96413Z"/>
<path id="path7_fill" d="M 22.266 15.7923C 22.266 26.3302 18.5502 31.6137 11.1475 31.6137C 7.4607 31.6137 4.67383 30.2783 2.81591 27.5785C 0.957991 24.8787 -1.77185e-06 20.9597 -1.77185e-06 15.7923C -1.77185e-06 5.25443 3.71584 8.85925e-07 11.1185 8.85925e-07C 14.7472 8.85925e-07 17.5051 1.30635 19.392 3.94808C 21.308 6.58981 22.266 10.5379 22.266 15.7923ZM 15.1537 15.7923C 15.1537 11.6701 14.8343 8.91221 14.1957 7.5478C 13.557 6.18339 12.5119 5.48667 11.1185 5.48667C 9.72505 5.48667 8.709 6.18339 8.07034 7.5478C 7.43168 8.91221 7.11235 11.6701 7.11235 15.7923C 7.11235 19.8275 7.43168 22.5563 8.07034 23.9788C 8.709 25.4012 9.72504 26.127 11.1475 26.127C 12.541 26.127 13.557 25.4593 14.2247 24.0949C 14.8343 22.7015 15.1537 19.9436 15.1537 15.7923Z"/>
<path id="path8_fill" d="M 47.3894 0.279359C 24.0202 -2.3914 2.91542 14.3879 0.273693 37.7571C -2.36804 61.1262 14.4113 82.231 37.7514 84.8727C 61.1205 87.5435 82.2253 70.7351 84.8671 47.395C 87.5378 24.0259 70.7585 2.92109 47.3894 0.279359ZM 9.67941 58.3103C 6.66029 52.0689 5.29588 44.8984 6.13775 37.4958C 8.51821 16.6523 27.3296 1.6728 48.2022 4.02423C 52.4406 4.51774 56.4467 5.67894 60.1045 7.39171C 27.2716 6.75305 8.77948 34.4767 9.67941 58.3103ZM 81.6738 46.0887C 79.2933 66.9322 60.4819 81.9117 39.6093 79.5603C 34.7903 79.0087 30.2907 77.5862 26.2265 75.467C 8.98269 63.4776 14.121 39.5279 23.6719 26.7547C 36.5612 11.7752 63.8494 5.50476 75.9258 21.3261C 80.4545 28.4094 82.6898 37.0604 81.6738 46.0887Z"/>
</defs>
</svg>
