<svg xmlns="http://www.w3.org/2000/svg" viewBox="0 0 183.9 42.9"><g fill="#FFF"><path d="M51.5 22.7c0-6.4 3.9-10.5 10.9-10.5 3.2 0 6.2.9 7.9 1.8v5.2h-3.6V16c-1.2-.4-2.7-.7-4.2-.7-4.6 0-7.2 2.8-7.2 7.3 0 4.8 3 7.1 7.2 7.1 1.4 0 2.8-.3 4.1-.7v-4.2h-4.2v-3h9.4v3h-1.6V31c-1.5.9-4.3 1.9-7.9 1.9-6.5.1-10.8-3.6-10.8-10.2M77.4 24h6.3c-.1-1.7-.8-3.4-3-3.4-2.1.1-3.1 1.7-3.3 3.4m-3.7 1.5c0-4.3 2.5-7.5 7-7.5s6.5 3.2 6.5 7.1c0 .5 0 1.1-.1 1.6h-9.6c.4 2.2 1.7 3.5 4.3 3.5 1.9 0 3.5-.7 4.6-1.3v2.9c-1.1.6-2.8 1.3-5.1 1.3-5.2-.2-7.6-3.3-7.6-7.6M100.1 25.5c0-2.6-1.1-4.7-3.7-4.7-2.5 0-3.7 2.1-3.7 4.7s1.1 4.7 3.7 4.7c2.6-.1 3.7-2.1 3.7-4.7m-11.2 0c0-4.4 2.7-7.5 7.5-7.5s7.5 3.1 7.5 7.5-2.7 7.5-7.5 7.5c-4.8-.1-7.5-3.1-7.5-7.5M106.6 32v-4.1h1.1v3.3c1.5.5 3.6.8 5.3.8 3.9 0 5.8-1.6 5.8-4 0-6.1-11.8-3.9-11.8-10.8 0-2.7 1.8-5 6.6-5 1.9 0 4 .4 5.6.9v4.1H118v-3.3c-1.2-.3-2.8-.6-4.4-.6-4.2 0-5.5 1.9-5.5 3.9 0 5.8 11.8 3.7 11.8 10.8 0 3.3-2.5 5.1-6.9 5.1-2.1-.1-4.6-.5-6.4-1.1M125.7 22.1v7.5c1.1 1.2 2.6 2.3 4.8 2.3 3.4 0 5.1-2.8 5.1-6.3 0-3.2-1.5-6.2-4.9-6.2-2.3 0-3.8 1.4-5 2.7m-3.9 16h2.8V19.7h-2.8v-1h3.9v2.2c1.2-1.4 2.9-2.6 5.2-2.6 3.9 0 5.9 3.5 5.9 7.2 0 3.9-2.1 7.3-6.2 7.3-2.2 0-3.8-1-4.9-2.2V38h3.2v1h-7.1v-.9zM151.6 25.7c0-3.9-2.2-6.3-5.4-6.3-3.3 0-5.4 2.3-5.4 6.3 0 3.9 2.2 6.3 5.4 6.3 3.2-.1 5.4-2.4 5.4-6.3m-12 0c0-4.6 2.9-7.3 6.6-7.3 3.7 0 6.6 2.6 6.6 7.3 0 4.7-2.9 7.3-6.6 7.3s-6.6-2.7-6.6-7.3M155.6 25.7c0-4.4 2.7-7.3 7-7.3 1.7 0 3.5.5 4.6 1V23h-1.1v-3c-.8-.3-2.3-.6-3.6-.6-3.9 0-5.8 2.7-5.8 6.2 0 3.9 2.3 6.3 5.8 6.3 1.7 0 3.4-.6 4.8-1.5v1.1c-1.3.8-2.8 1.4-4.8 1.4-4.2 0-6.9-2.9-6.9-7.2M178.5 30.3l-4-4.6v-.1l5.8-5.9h-2.8v-1h6.4v1h-2.2l-5.7 5.9 3.5 4.1c.9 1.1 2.1 2.2 3.5 2.2.2 0 .5 0 .9-.2v1.1c-.4.1-.7.2-1.1.2-1.7-.1-3-1.3-4.3-2.7m-9.5 1.3h2.8V10.3H169v-1h3.9v22.3h2.8v1H169v-1z"/></g><path fill="#FFF" d="M21.5 0C9.6 0 0 9.6 0 21.5 0 33.3 9.6 43 21.5 43 33.3 43 43 33.4 43 21.5 42.9 9.6 33.3 0 21.5 0zm0 38.4c-10.3 0-17-8.7-17-17s6.7-17 17-17c10.8 0 14.7 8.5 14.7 8.5h-2.7s-4.1-7-11.7-7C10.1 6 7.3 17.4 7.3 21.5S10.6 36.9 22 36.9c9.3 0 13.2-8 13.6-10.2.6-3-1.2-4.1-3.8-3.9-4.3.3-9.5 3.4-13 3.6-.5 0-2.2-.3-2.2-1.6 0-1.9 4.5-4.6 4.5-4.6s-4 3.1-2.7 4c2 1.3 10.5-4.7 16.3-4.7.5 0 2.6.2 3.3 2.2s-.1 5.1-1.1 7.1c-.8 1.8-5 9.6-15.4 9.6z"/></svg>