<?xml version="1.0" encoding="UTF-8" standalone="no"?>
<!-- Created with Inkscape (http://www.inkscape.org/) -->
<svg id="svg2" xmlns:rdf="http://www.w3.org/1999/02/22-rdf-syntax-ns#" xmlns="http://www.w3.org/2000/svg" xml:space="preserve" viewBox="0 0 1045 340" version="1.1" xmlns:cc="http://creativecommons.org/ns#" xmlns:dc="http://purl.org/dc/elements/1.1/"><metadata id="metadata8"><rdf:RDF><cc:Work rdf:about=""><dc:format>image/svg+xml</dc:format><dc:type rdf:resource="http://purl.org/dc/dcmitype/StillImage"/><dc:title/></cc:Work></rdf:RDF></metadata><defs id="defs6"><clipPath id="clipPath16" clipPathUnits="userSpaceOnUse"><path id="path18" d="M0,272,836,272,836,0,0,0,0,272z"/></clipPath></defs><g id="g10" transform="matrix(1.25,0,0,-1.25,0,340)"><g id="g12" fill="#FFF"><g id="g14" fill="#FFF" clip-path="url(#clipPath16)"><g id="g20" transform="translate(108.0003,147.326)"><path id="path22" fill-rule="nonzero" fill="#FFF" d="m0,0,0,28.674,96,0c0.98-5.054,1.553-11.067,1.553-17.58,0-21.504-5.887-48.129-24.832-67.074-18.434-19.202-41.987-29.442-73.221-29.442-57.857,0-106.5,47.106-106.5,104.96,0,57.857,48.643,104.96,106.5,104.96,32.002,0,54.787-12.545,71.939-28.93l-20.224-20.216c-12.289,11.519-28.93,20.48-51.715,20.48-42.242,0-75.268-34.049-75.268-76.291s33.026-76.293,75.268-76.293c27.395,0,43.01,11.01,52.994,20.994,8.135,8.134,13.494,19.802,15.573,35.756h-68.067z"/></g><g id="g24" transform="translate(322.1458,129.4901)"><path id="path26" fill-rule="nonzero" fill="#FFF" d="m0,0c0,24.322-17.664,40.963-38.145,40.963-20.482,0-38.146-16.641-38.146-40.963,0-24.064,17.664-40.961,38.146-40.961,20.481,0,38.145,16.897,38.145,40.961m29.697,0c0-38.914-30.465-67.586-67.842-67.586-37.378,0-67.843,28.672-67.843,67.586,0,39.17,30.465,67.588,67.843,67.588,37.379,0,67.844-28.418,67.844-67.588"/></g><g id="g28" transform="translate(470.1458,129.4901)"><path id="path30" fill-rule="nonzero" fill="#FFF" d="m0,0c0,24.322-17.664,40.963-38.145,40.963-20.482,0-38.146-16.641-38.146-40.963,0-24.064,17.664-40.961,38.146-40.961,20.481,0,38.145,16.897,38.145,40.961m29.697,0c0-38.914-30.465-67.586-67.842-67.586-37.378,0-67.843,28.672-67.843,67.586,0,39.17,30.465,67.588,67.843,67.588,37.379,0,67.844-28.418,67.844-67.588"/></g><g id="g32" transform="translate(615.5872,129.2342)"><path id="path34" fill-rule="nonzero" fill="#FFF" d="M0,0c0,23.811-15.873,41.219-36.098,41.219-20.482,0-37.634-17.408-37.634-41.219,0-23.553,17.152-40.705,37.634-40.705,20.225,0,36.098,17.152,36.098,40.705m26.113,63.748,0-121.35c0-49.923-29.441-70.404-64.259-70.404-32.77,0-52.483,22.018-59.907,39.938l25.858,10.754c4.607-11.01,15.871-24.067,34.049-24.067,22.273,0,36.097,13.826,36.097,39.682v9.728h-1.023c-6.657-8.191-19.457-15.359-35.586-15.359-33.795,0-64.772,29.441-64.772,67.33,0,38.146,30.977,67.844,64.772,67.844,16.129,0,28.929-7.168,35.586-15.106h1.023v11.01h28.162z"/></g><path id="path36" fill-rule="nonzero" d="m692,66-29.697,0,0,198,29.697,0,0-198z"/><g id="g38" transform="translate(735.764,131.5389)"><path id="path40" fill-rule="nonzero" fill="#FFF" d="M0,0,60.418,25.09c-3.328,8.447-13.313,14.336-25.088,14.336-15.105,0-36.098-13.313-35.33-39.426m70.916-24.32,23.041-15.362c-7.426-11.007-25.346-29.953-56.324-29.953-38.401,0-67.074,29.697-67.074,67.586,0,40.195,28.929,67.588,63.746,67.588,35.074,0,52.226-27.906,57.859-43.01l3.072-7.679-90.373-37.379c6.914-13.569,17.666-20.481,32.77-20.481,15.105,0,25.601,7.424,33.283,18.69"/></g></g></g></g></svg>
