<?xml version="1.0" encoding="UTF-8" standalone="no"?>
<!-- Created with Inkscape (http://www.inkscape.org/) -->
<svg id="svg2" xmlns:rdf="http://www.w3.org/1999/02/22-rdf-syntax-ns#" xmlns="http://www.w3.org/2000/svg" xml:space="preserve" viewBox="0 0 145.71 116.78" version="1.1" xmlns:cc="http://creativecommons.org/ns#" xmlns:dc="http://purl.org/dc/elements/1.1/"><metadata id="metadata8"><rdf:RDF><cc:Work rdf:about=""><dc:format>image/svg+xml</dc:format><dc:type rdf:resource="http://purl.org/dc/dcmitype/StillImage"/><dc:title/></cc:Work></rdf:RDF></metadata><g id="g10" transform="matrix(1.25,0,0,-1.25,0,116.775)"><g id="g12" fill-rule="nonzero" fill="#FFF" transform="scale(0.1,0.1)"><path id="path14" d="m1026.8,394.2c-0.97-4.785-2.05-3.867-3.22-8.574h-0.14c-2.17-8.984-4.71-17.832-7.58-26.523-0.53-1.563-1.06-3.125-1.61-4.688-0.71-2.031-1.44-4.062-2.17-6.074-42.78-114.66-145.57-202.88-275.06-220.69-187.61-25.78-361.24,105.84-387.04,293.45-8.77,63.785,0.703,125.93,24.336,181.23,1.477,3.398,2.988,6.758,4.57,10.078,0.469,1.035,0.938,2.059,1.426,3.086,55.645,114.79,173.34,194.13,309.25,194.13,91.738,0,177.99-35.723,242.87-100.57l86.791,86.816c-15.28,15.273-13.17,14.976-30.08,27.82l-17.234,15.723c-99.3,75.2-221.89,107.29-345.25,90.32-160.55-22.07-290.84-123.93-356.49-259.98-1.504-3.086-2.899-6.227-4.336-9.348-1.398-3.059-2.832-6.105-4.16-9.191-24.64-56.76-38.38-119.32-38.38-185.03,0-257.06,209.15-466.2,466.21-466.2,201.7,0,373.84,128.79,438.65,308.42,1.06,2.91,2.01,5.84,3.02,8.75,0.91,2.676,1.87,5.332,2.71,8.027,9.06,27.989,13.28,41.68,16.88,71.407l-123.99-2.403"/><path id="path16" d="m600.08,490.34c5.227,0,10.051,4.277,10.051,10.695,0,6.856-3.254,11.707-10.449,11.707h-6.782v-22.402h7.18zm5.488-29.867c-2.343,9.566-6.406,10.719-10.324,10.719h-1.304v-38.981h-24.575v99.672h36.465c18.418,0,28.891-8.438,28.891-26.844,0-14.699-9.551-20.722-17.531-22.844v-0.437c5.234-1.856,8.632-4.563,12.292-18.414l8.254-31.133h-25.371l-6.797,28.262"/><path id="path18" d="m647.91,531.88,55.918,0,0-19.695-31.894,0,0-19.141,30.324,0,0-19.719-30.324,0,0-21.41,33.586,0,0-19.707-57.61,0,0,99.672"/><path id="path20" d="m717.03,456.19c2.996-1.875,11.887-5.976,20.645-5.976,9.265,0,12.539,4.414,12.539,10.664,0,6.598-4.043,8.453-11.106,11.461l-5.359,2.265c-15.02,6.446-19.578,15.282-19.578,29.434,0,18.848,13.836,29.57,33.172,29.57,6.914,0,15.547-0.722,23-4.004l-1.059-19.57c-4.305,2.422-11.758,4.988-18.797,4.988-7.336,0-11.777-3.281-11.777-9.421,0-5.137,2.352-7.422,10.461-11.426l10.973-5.43c8.234-4.141,15.414-10.41,15.414-25.269,0-21.836-14.36-32.969-35.664-32.969-10.977,0-19.739,2.539-24.309,3.828l1.445,21.855"/><path id="path22" d="m788.1,531.88,55.918,0,0-19.695-31.875,0,0-19.141,30.293,0,0-19.719-30.293,0,0-21.41,33.575,0,0-19.707-57.618,0,0,99.672"/><path id="path24" d="m892.77,511.62-0.266,0-9.805-39.121,18.035,0-7.964,39.121zm12.539-58.277-26.77,0-5.89-21.133-23.512,0,30.301,99.672,27.043,0,29.011-99.672-25.351,0-4.832,21.133"/><path id="path26" d="m973.52,490.34c5.222,0,10.047,4.277,10.047,10.695,0,6.856-3.27,11.707-10.45,11.707h-6.773v-22.402h7.176zm5.468-29.867c-2.336,9.566-6.386,10.719-10.3,10.719h-1.321v-38.981h-24.558v99.672h36.453c18.437,0,28.882-8.438,28.882-26.844,0-14.699-9.535-20.722-17.495-22.844v-0.437c5.222-1.856,8.613-4.563,12.275-18.414l8.21-31.133h-25.329l-6.817,28.262"/><path id="path28" d="m1086.5,434.34c-7.69-2.559-15.54-3.828-22.47-3.828-26.52,0-45.48,17.246-45.48,52.242,0,29.434,15.43,50.859,45.36,50.859,11.89,0,19.85-3.574,22.08-4.589l-1.31-21.985c-2.87,1.848-10.05,5.703-17.78,5.703-15.66,0-22.98-11.14-22.98-30.547,0-17.156,8.62-30.277,24.03-30.277,8.76,0,15.15,3.848,17.52,5.566l1.03-23.144"/><path id="path30" d="m1141.2,472.75-19.09,0,0-40.543-24.55,0,0,99.672,24.55,0,0-38.27,19.09,0,0,38.27,24.55,0,0-99.672-24.55,0,0,40.543"/><path id="path32" d="M1135.9,396.68,987.18,272.64,569.4,398.96,1135.9,396.68"/><path id="path34" d="M5.0703,797.23c-4.7578,17.86-5.0703,31.17-5.0703,40.86,0,28.14,14.902,60.676,56.738,60.676,41.699,0,57.715-28,57.715-66.735,0-6.957-0.793-21.637-4.922-31.922l-24.082,2.27c5.3828,8.769,7.1289,19.062,7.1289,25.722,0,22.852-9.9804,41.61-35.84,41.61-21.707,0-34.863-14.68-34.863-35.254,0-3.781,0.6367-7.414,1.8945-9.988h21.875v16.488h20.938v-43.731h-61.512"/><path id="path36" d="m34.082,741.29,20.918,0,0,41.012-20.918,0,0-41.012z"/><path id="path38" d="m64.988,708.93,0-12.856c0-14.375,6.664-22.844,17.277-22.844,9.9922,0,16.336,7.258,16.336,21.184v14.516h-33.613zm47.563,15.133,0-25.872c0-20.886-3.488-40.988-29.953-40.988-13.488,0-23,9.516-25.215,21.77h-0.3125c-1.914,8.17-4.277,5.9-11.113,2.57l-44.062-19.973v17.25l38.371,16.199c10.777,4.68,10.777,9.68,10.777,17.696v9.078h-49.148v15.133h110.66"/><path id="path40" d="m112.55,635.6,0-59.161-13.949,0,0,44.024-32.352,0,0-40.098-13.945,0,0,40.098-36.457,0,0-44.024-13.953,0,0,59.161,110.66,0"/><path id="path42" d="m95.898,504.29c3.1758,7.734,4.6096,11.953,4.6096,19.824,0,8.477-3.1838,18.457-14.746,18.457-21.25,0-16.328-45.39-52.793-45.39-23.616,0-32.971,17.41-32.971,38.6,0,7.422,2.2188,14.668,4.5898,21.621l14.746-1.503c-2.2265-5.137-5.3906-14.219-5.3906-21.934,0-8.633,5.0781-20.723,18.066-20.723,24.727,0,17.918,45.371,52.316,45.371,19.656,0,30.125-14.804,30.125-33.886,0-6.953-1.269-15.274-3.965-22.539l-14.59,2.109"/><path id="path44" d="m112.55,481.44,0-59.156-13.949,0,0,44.02-32.352,0,0-40.094-13.945,0,0,40.094-36.457,0,0-44.02-13.953,0,0,59.156,110.66,0"/><path id="path46" d="m97.656,360.92-54.863,21.035,0-42.07,54.863,21.035zm14.895,7.402,0-15.879-110.66-44.648,0,16.504,27.91,10.742,0,51.758-27.91,10.742,0,15.879l110.66-45.09"/><path id="path48" d="m65.723,281.95,0-12.851c0-14.395,6.6601-22.852,17.273-22.852,9.9922,0,16.34,7.246,16.34,21.191v14.512h-33.613zm47.558,15.137,0-25.879c0-20.879-3.496-40.996-29.961-40.996-13.476,0-22.988,9.531-25.215,21.777h-0.3125c-1.9024-4.687-4.2774-6.953-11.102-10.293l-44.065-7.11v17.246l38.359,16.192c10.773,4.687,10.773,9.687,10.773,17.695v9.082h-49.133v15.137h110.66"/><path id="path50" d="m95.039,136.44c4.1289,6.66,6.1909,14.082,6.1909,21.778,0,24.375-18.398,40.566-43.281,40.566-25.996,0-43.281-17.851-43.281-39.805,0-7.558,2.0703-17.695,5.3906-22.988l-15.372-0.91c-3.4883,8.027-3.9648,17.871-3.9648,24.063,0,33.457,22.52,55.683,57.695,55.683,34.094,0,56.758-23.594,56.758-55.84,0-8.164-1.27-16.171-4.754-23.75l-15.383,1.211"/><path id="path52" d="m113.28,116.21,0-15.137-46.289,0,0-50.527,46.289,0,0-15.137-110.66,0,0,15.137,50.41,0,0,50.527-50.41,0,0,15.137,110.66,0"/></g></g></svg>
