<?xml version="1.0" encoding="UTF-8" standalone="no"?>
<svg width="300px" height="182px" viewBox="0 0 300 182" version="1.1" xmlns="http://www.w3.org/2000/svg" xmlns:xlink="http://www.w3.org/1999/xlink" xmlns:sketch="http://www.bohemiancoding.com/sketch/ns">
    <!-- Generator: Sketch 3.4.4 (17249) - http://www.bohemiancoding.com/sketch -->
    <title>gsa-logo</title>
    <desc>Created with Sketch.</desc>
    <defs></defs>
    <g id="Logos" stroke="none" stroke-width="1" fill="none" fill-rule="evenodd" sketch:type="MSPage">
        <g id="Artboard-1" sketch:type="MSArtboardGroup" transform="translate(-699.000000, -368.000000)" fill="#FFFFFF">
            <g id="gsa-logo" sketch:type="MSLayerGroup" transform="translate(699.000000, 368.000000)">
                <g id="svg2" sketch:type="MSShapeGroup">
                    <g id="Layer_1" transform="translate(0.000000, 41.627660)">
                        <g id="g5">
                            <path d="M42.287399,86.7936702 C16.5305331,86.7936702 0,68.7485638 0,44.430266 C0,18.961883 18.3247173,0.404175532 45.8757674,0.404175532 C56.6399031,0.404175532 64.8411955,2.83600532 70.3512116,5.13956383 L70.2232633,18.0659202 C64.0725363,14.8663989 55.9991922,11.7946649 46.7728595,11.7946649 C24.8602585,11.7946649 14.4804523,25.616984 14.4804523,43.1504574 C14.4804523,62.0920106 26.3980614,75.4022128 45.7478191,75.4022128 C52.026979,75.4022128 56.8962843,74.2501915 59.9718901,72.5865372 L59.9718901,43.5343032 L73.4268174,43.5343032 L73.4268174,79.3694255 C66.6319871,82.9610213 55.4849758,86.7994787 42.2844911,86.7994787 L42.287399,86.7936702 Z" id="path7"></path>
                            <path d="M110.975767,86.7936702 C99.3145396,86.7936702 91.3696284,82.9537606 85.9875606,79.4986649 L91.6260097,69.387984 C95.8550889,72.3314468 102.518578,75.6587553 110.463005,75.6587553 C117.382876,75.6587553 125.45622,72.5870213 125.45622,64.9081702 C125.45622,51.9822979 105.081422,49.4221968 94.8300485,38.0321915 C91.3701131,34.1922819 89.0636511,29.4573777 89.0636511,22.9300638 C89.0636511,10.6436117 98.5463651,0.405143617 115.589176,0.405143617 C124.559612,0.405143617 131.223102,2.70918617 135.579645,5.01274468 L135.451696,17.5552553 C129.685299,14.0996755 123.149758,11.6678457 116.229887,11.6678457 C108.925687,11.6678457 102.902908,14.7395798 102.902908,21.3946809 C102.902908,38.0326755 139.808239,37.5205585 139.808239,63.3732713 C139.803393,77.5799202 127.246042,86.7960904 110.971405,86.7960904 L110.975767,86.7936702 Z" id="path9"></path>
                            <path d="M204.518578,85.5157979 L196.061389,64.0146277 L164.793538,64.0146277 L156.848627,85.5157979 L143.521648,85.5157979 L176.198384,0.919680851 L185.55315,0.919680851 L218.999031,85.5157979 L204.52391,85.5157979 L204.518578,85.5157979 Z M183.886914,30.223617 C182.477544,25.9998617 181.324071,22.544766 180.811309,19.8568777 L180.68336,19.8568777 C179.914216,22.8008245 178.889176,26.128133 177.351373,30.0953457 L169.021648,52.7485372 L191.703393,52.7485372 L183.885945,30.2260372 L183.886914,30.223617 Z" id="path11"></path>
                        </g>
                        <g id="g13" transform="translate(87.237480, 94.872340)">
                            <path d="M15.2810985,34.4783511 C6.01017771,34.4783511 0.257350565,27.8305106 0.257350565,18.7135691 C0.257350565,9.64454787 6.62810985,2.47394149 15.8515347,2.47394149 C19.6075929,2.47394149 22.4127625,3.42363298 23.8386107,4.3258883 L23.8386107,8.02929787 C21.6043619,6.60524468 19.4171244,5.60763298 15.7085622,5.60763298 C8.71987076,5.60763298 3.96542811,11.2104255 3.96542811,18.4759043 C3.96542811,25.9306436 8.33941842,31.2962553 15.6610662,31.2962553 C18.323748,31.2962553 20.9384491,30.4414362 23.0306947,29.302 L24.0765751,32.1510745 C21.1735057,33.7532553 18.1783522,34.4696383 15.2752827,34.4696383 L15.2810985,34.4783511 Z" id="path15"></path>
                            <path d="M42.3344103,33.9991489 L41.4310178,31.8146649 C40.0521809,33.1443298 37.8654281,34.4739947 34.5373183,34.4739947 C30.876252,34.4739947 27.6431341,31.8621011 27.6431341,27.5884894 C27.6431341,23.1725691 30.7332795,20.4658032 36.6765751,20.2760585 L41.2405493,20.13375 L41.2405493,19.0891862 C41.2405493,15.242984 39.2437803,13.9607553 36.3911147,13.9607553 C33.4909532,13.9607553 31.684168,15.1476277 30.4957997,16.049883 L29.0694669,13.5333457 C31.7796446,11.5865266 34.1568659,10.9688883 37.0095315,10.9688883 C41.2885299,10.9688883 44.7116317,12.8208351 44.7116317,18.5664202 L44.7116317,25.4040053 C44.7116317,31.7672287 44.9016155,33.2861543 45.1870759,33.9986649 L42.3339257,33.9986649 L42.3344103,33.9991489 Z M41.2439418,23.2243617 L36.7749596,23.3666702 C32.7339257,23.5094628 31.1171244,24.8865638 31.1171244,27.3556649 C31.1171244,29.6345372 32.5434572,31.486484 35.4911147,31.486484 C38.4387722,31.486484 40.1975767,30.0145106 41.2439418,28.9225106 L41.2439418,23.228234 L41.2439418,23.2243617 Z" id="path17"></path>
                            <path d="M57.9305331,34.4783511 C56.2662359,34.4783511 55.1253635,34.1453298 54.174475,33.7658404 L54.174475,45.2565266 L50.7038772,45.2565266 L50.7038772,12.4926543 C52.2252019,11.9703723 54.8403877,10.9727606 58.073021,10.9727606 C64.8717286,10.9727606 69.1982229,15.3412447 69.1982229,22.511367 C69.1982229,30.3431755 63.5423263,34.4768989 57.9300485,34.4768989 L57.9305331,34.4783511 Z M58.0274637,14.105 C56.411147,14.105 55.222294,14.3421809 54.1764136,14.6752021 L54.1764136,30.5818085 C55.4127625,31.1520106 56.3161551,31.4840638 57.7899838,31.4840638 C62.4964459,31.4840638 65.6825525,28.1127074 65.6825525,22.5573511 C65.6825525,16.6713936 62.1155089,14.1059681 58.0298869,14.1059681 L58.0274637,14.105 Z" id="path19"></path>
                            <path d="M76.5218094,6.83952128 C75.1904685,6.83952128 74.0970921,5.74703723 74.0970921,4.41785638 C74.0970921,3.08819149 75.1904685,1.99619149 76.5218094,1.99619149 C77.8531502,1.99619149 78.9465267,3.08819149 78.9465267,4.41785638 C78.9465267,5.7489734 77.8560582,6.83806915 76.5232633,6.83806915 L76.5218094,6.83952128 Z M74.8109855,33.9991489 L74.8109855,11.5395745 L78.2815832,11.5395745 L78.2815832,33.9991489 L74.8100162,33.9991489 L74.8109855,33.9991489 Z" id="path21"></path>
                            <path d="M91.4491115,34.4783511 C88.2159935,34.4783511 86.6471729,32.578484 86.6471729,29.6824574 L86.6471729,14.4873936 L82.9865913,14.4873936 L82.9865913,11.5434468 L86.6471729,11.5434468 L86.6471729,6.60524468 L90.1177706,5.4178883 L90.1177706,11.5434468 L97.0119548,11.5434468 L95.7756058,14.4873936 L90.1177706,14.4873936 L90.1177706,28.6374096 C90.1177706,30.5367926 90.8311793,31.3911277 92.3050081,31.3911277 C93.9218094,31.3911277 95.3956381,30.4888723 96.298546,29.7768457 L97.3924071,32.2459468 C95.7300485,33.4802553 93.5442649,34.477383 91.4505654,34.477383 L91.4491115,34.4783511 Z" id="path23"></path>
                            <path d="M114.891761,33.9991489 L113.988368,31.8146649 C112.609532,33.1443298 110.422779,34.4739947 107.094184,34.4739947 C103.433118,34.4739947 100.200485,31.8621011 100.200485,27.5884894 C100.200485,23.1725691 103.29063,20.4658032 109.233926,20.2760585 L113.7979,20.13375 L113.7979,19.0891862 C113.7979,15.242984 111.801131,13.9607553 108.948465,13.9607553 C106.048304,13.9607553 104.241519,15.1476277 103.05315,16.049883 L101.626817,13.5333457 C104.336995,11.5865266 106.714216,10.9688883 109.566882,10.9688883 C113.84588,10.9688883 117.268982,12.8208351 117.268982,18.5664202 L117.268982,25.4040053 C117.268982,31.7672287 117.459451,33.2861543 117.744426,33.9986649 L114.883037,33.9986649 L114.891761,33.9991489 Z M113.796446,23.2243617 L109.327464,23.3666702 C105.285945,23.5094628 103.669628,24.8865638 103.669628,27.3556649 C103.669628,29.6345372 105.095477,31.486484 108.043134,31.486484 C110.990792,31.486484 112.750081,30.0145106 113.795961,28.9225106 L113.795961,23.228234 L113.796446,23.2243617 Z" id="path25"></path>
                            <path d="M127.201939,34.4783511 C124.444265,34.4783511 123.255412,32.7212766 123.255412,30.3470479 L123.255412,0.38481383 L126.72601,0.38481383 L126.72601,28.7802021 C126.72601,30.91725 127.24895,31.3446596 128.580291,31.3446596 C128.817771,31.3446596 129.198223,31.3446596 129.768659,31.201867 L130.196607,33.7184043 C129.154604,34.2411702 128.345234,34.4783511 127.201454,34.4783511 L127.201939,34.4783511 Z" id="path27"></path>
                        </g>
                    </g>
                    <g id="Layer_3" transform="translate(214.216478, 0.000000)">
                        <path d="M4.6914378,61.5750532 C4.68998384,61.5721489 4.68901454,61.5697287 4.68756058,61.5668245 C4.453958,61.072617 4.24216478,60.5929309 4.05218094,60.1321223 C4.05024233,60.1272819 4.04830372,60.1224415 4.04636511,60.1176011 C4.00420032,60.0145 3.96542811,59.9147872 3.92568659,59.8136223 C3.88012924,59.6984202 3.83408724,59.582734 3.7914378,59.4704362 C3.79095315,59.4704362 3.79095315,59.4699521 3.79095315,59.4699521 C3.78562197,59.4563989 3.7812601,59.4438138 3.77689822,59.4307447 C3.70371567,59.2366436 3.63392569,59.0459309 3.56898223,58.8595745 C3.51276252,58.6979043 3.45848142,58.5381702 3.4085622,58.3827926 C3.40807754,58.3813404 3.40759289,58.3803723 3.40710824,58.3789202 C3.39596123,58.3435851 3.38529887,58.3092181 3.37463651,58.274367 C3.37366721,58.2714628 3.3726979,58.2680745 3.37172859,58.2651702 C3.34119548,58.1678777 3.31357027,58.0734894 3.28497577,57.9791011 C3.26171244,57.9006862 3.23747981,57.8213032 3.21567044,57.7448245 C3.21518578,57.7428883 3.21421648,57.7404681 3.21373183,57.7380479 C3.16865913,57.5778298 3.12600969,57.420516 3.08869144,57.2690106 C2.92245557,56.5961915 2.78239095,55.9320851 2.6549273,55.2723351 C2.65444265,55.270883 2.65444265,55.2689468 2.653958,55.2674947 C2.63990307,55.1944043 2.62827141,55.1222819 2.61470113,55.0491915 C2.34184168,53.5898032 2.15476575,52.1604255 2.05977383,50.766867 C2.05977383,50.7649309 2.05928918,50.7629947 2.05928918,50.7610585 C2.02633279,50.2716915 2.00355412,49.7866809 1.99095315,49.3060266 L1.99095315,49.3055426 C1.98077544,48.9279894 1.98319871,48.5562447 1.98610662,48.184016 C1.98659128,48.0852713 1.98368336,47.9850745 1.98513732,47.8868138 L1.98513732,47.8853617 C1.98707593,47.7609628 1.9914378,47.6375319 1.99483037,47.5141011 L1.99483037,47.5102287 C1.99870759,47.3698564 2.00694669,47.2319043 2.01227787,47.0925 C2.0825525,45.2976702 2.28707593,43.5652819 2.62051696,41.9040479 C2.62100162,41.9030798 2.62148627,41.9016277 2.62148627,41.9001755 C2.67479806,41.632984 2.73634895,41.3701489 2.79644588,41.1063457 C2.84054927,40.9117606 2.88174475,40.7152394 2.92924071,40.5225904 C3.0276252,40.1227713 3.13279483,39.7263404 3.2447496,39.335234 C3.2457189,39.3313617 3.24717286,39.3270053 3.24814216,39.323133 C3.25444265,39.3018351 3.25977383,39.2805372 3.26607431,39.2592394 C3.26655897,39.2573032 3.26752827,39.254883 3.26801292,39.2529468 C3.28933764,39.1798564 3.31405493,39.1096702 3.3358643,39.0370638 C3.44345719,38.675484 3.55298869,38.3153564 3.67221325,37.9615213 C3.67318255,37.958617 3.67415186,37.9552287 3.67512116,37.9523245 C3.81712439,37.5302394 3.96688207,37.1134787 4.12390953,36.7025266 C4.12584814,36.6967181 4.12827141,36.6913936 4.13069467,36.6855851 C4.28675283,36.2775372 4.45008078,35.8743298 4.62116317,35.4764468 C4.63134087,35.4522447 4.64297254,35.4294947 4.65315024,35.4052926 C4.81647819,35.0267713 4.98562197,34.6521223 5.16106624,34.28425 C5.22019386,34.158883 5.27883683,34.0325479 5.33941842,33.9081489 C5.34232633,33.9018564 5.34523425,33.8955638 5.34862682,33.8887872 C5.36510501,33.8553883 5.38206785,33.8224734 5.39903069,33.7895585 C5.41890145,33.7518032 5.43828756,33.7140479 5.45718901,33.6758085 C8.79886914,26.9277713 14.2114701,21.8385479 20.5105008,18.3519894 C21.1245557,18.0049309 21.750727,17.67675 22.3827141,17.358734 C22.5523425,17.2730585 22.7210016,17.1859309 22.8925687,17.1026755 C22.8940226,17.1021915 22.8949919,17.1017074 22.8964459,17.1012234 C23.1901454,16.9584309 23.4877221,16.8214468 23.7852989,16.6849468 C23.7877221,16.6839787 23.7901454,16.6830106 23.7925687,16.6815585 C23.7930533,16.6815585 23.7940226,16.6810745 23.7945073,16.6805904 C24.1928918,16.4976223 24.5946688,16.3209468 24.9998384,16.1495957 C25.0022617,16.1486277 25.0051696,16.1471755 25.0075929,16.1462074 C25.0114701,16.1447553 25.015832,16.1428191 25.0192246,16.141367 C26.1877221,15.6471596 27.380937,15.1999043 28.5978998,14.8049255 C28.5978998,14.8049255 28.5988691,14.8044415 28.5998384,14.8044415 C28.6027464,14.8034734 28.6061389,14.8025053 28.6095315,14.8015372 C29.8434572,14.40075 31.1001616,14.0507872 32.3757674,13.7555213 C32.3956381,13.7506809 32.4150242,13.7453564 32.434895,13.741 L32.4353796,13.741 C32.9990307,13.6112766 33.5660743,13.4926862 34.1369952,13.3842606 C34.3235864,13.3484415 34.511147,13.3174628 34.6987076,13.2840638 C34.7001616,13.2840638 34.7021002,13.2835798 34.7035541,13.2835798 C35.931664,13.0652766 37.1738288,12.8919894 38.4285945,12.773883 L38.4300485,12.773883 C38.5483037,12.76275 38.6660743,12.7554894 38.7838449,12.7453245 C38.7867528,12.7453245 38.7891761,12.7453245 38.792084,12.7448404 C39.344588,12.6969202 39.8990307,12.660133 40.455412,12.6320585 C40.5988691,12.6247979 40.7423263,12.6170532 40.8857835,12.6112447 L40.8877221,12.6112447 C41.5221325,12.5851064 42.1579968,12.5671968 42.796769,12.5671968 C42.9198708,12.5671968 43.0415186,12.5715532 43.1641357,12.5730053 L43.1655897,12.5730053 L43.1757674,12.5730053 C43.4675283,12.5763936 43.7578352,12.5817181 44.0466882,12.592367 C44.3825525,12.6020479 44.7150242,12.6218936 45.047496,12.6417394 L45.0484653,12.6417394 C48.125525,12.8261596 51.0552504,13.4578351 53.7557351,14.4559309 C53.8061389,14.4743245 53.8560582,14.492234 53.9059774,14.5106277 C54.2001616,14.6214734 54.4904685,14.7371596 54.7793215,14.856234 C54.8510501,14.8857606 54.9232633,14.9152872 54.9945073,14.9452979 C55.2707593,15.0619521 55.5436187,15.1829628 55.8140549,15.3073617 C55.893538,15.3436649 55.9720517,15.3804521 56.0510501,15.4177234 C56.3156704,15.5421223 56.5778675,15.6699096 56.8371567,15.8015691 C56.9156704,15.8417447 56.9936995,15.8824043 57.0717286,15.9230638 C57.3305331,16.0581117 57.5878837,16.1950957 57.841357,16.3369202 C57.9092084,16.3746755 57.9751212,16.414367 58.0424879,16.4526064 C58.3042003,16.6021755 58.5644588,16.7536809 58.8198708,16.9105106 C58.857189,16.9337447 58.8940226,16.9584309 58.9313409,16.9811809 C60.0634895,17.6854628 61.1273021,18.4628351 62.1155089,19.3026489 C62.1862682,19.3626702 62.2579968,19.4207553 62.3277868,19.4807766 C62.5114701,19.6405106 62.6903069,19.8046011 62.8686591,19.9686915 C62.9626817,20.0553351 63.0581583,20.1410106 63.1502423,20.2286223 C63.3140549,20.384 63.4739903,20.5422819 63.6324717,20.7015319 C63.7337641,20.8031809 63.8355412,20.9048298 63.934895,21.0079309 C64.0836834,21.1618564 64.2285945,21.3182021 64.373021,21.4750319 C64.476252,21.5882979 64.5785137,21.7020479 64.6798061,21.816766 C64.8150242,21.9706915 64.9487884,22.1255851 65.0796446,22.2819309 C65.1828756,22.4053617 65.2836834,22.5302447 65.3840065,22.6551277 C65.5071082,22.8090532 65.63021,22.9629787 65.7494346,23.1193245 C65.850727,23.2524362 65.9481422,23.3879681 66.046042,23.5225319 C66.1575121,23.6759734 66.2699515,23.8284468 66.3775444,23.9843085 C66.4788368,24.1309734 66.5743134,24.2805426 66.6717286,24.4296277 C66.7686591,24.5777447 66.8684976,24.7244096 66.9615509,24.8744628 C67.0822294,25.0685638 67.1951535,25.2660532 67.3095315,25.4630585 C67.4185784,25.650867 67.5242326,25.8391596 67.6264943,26.0293883 C67.7466882,26.2520479 67.8663974,26.4751915 67.9783522,26.7012394 C68.042811,26.8319309 68.1009693,26.9645585 68.1625202,27.0962181 C68.2512116,27.2854787 68.3399031,27.4742553 68.4227787,27.6654521 C68.4833603,27.8058245 68.5386107,27.9476489 68.5957997,28.0889894 C68.6709208,28.2753457 68.7465267,28.4617021 68.815832,28.6499947 C68.8696284,28.7947234 68.9195477,28.9409043 68.9694669,29.0866011 C69.034895,29.2748936 69.0978998,29.4636702 69.1570275,29.6538989 C69.2030695,29.8010479 69.2466882,29.9491649 69.288853,30.097766 C69.3436187,30.2899309 69.3959612,30.4830638 69.4444265,30.6771649 C69.4817447,30.8252819 69.5180937,30.9733989 69.552504,31.122 C69.5975767,31.3209415 69.6387722,31.5208511 69.6775444,31.7212447 C69.7061389,31.8669415 69.7347334,32.0126383 69.7599354,32.1593032 C69.7957997,32.3698617 69.8253635,32.5813883 69.853958,32.793883 C69.8728595,32.9323191 69.8941842,33.0702713 69.9096931,33.2091915 C69.9363489,33.4444362 69.9552504,33.681133 69.9731826,33.9183138 C69.982391,34.0359362 69.9945073,34.1530745 70.0017771,34.2711809 C70.0216478,34.6264681 70.0332795,34.9836915 70.0332795,35.3428511 C70.0332795,35.7024947 70.0211632,36.0597181 70.0017771,36.4154894 C69.9940226,36.5500532 69.9819063,36.6836489 69.9717286,36.8172447 C69.9557351,37.0321596 69.9378029,37.2470745 69.9145396,37.4605372 C69.8961228,37.6318883 69.8743134,37.8022713 69.8510501,37.9726543 C69.8287561,38.1367447 69.8045234,38.3003511 69.7783522,38.4634734 C69.7463651,38.6648351 69.7124394,38.8657128 69.6746365,39.0656223 C69.6547658,39.1667872 69.6324717,39.266984 69.611147,39.3681489 C69.36979,40.5313032 69.0266559,41.666383 68.5880452,42.7675798 C68.5875606,42.7685479 68.5870759,42.77 68.5865913,42.7714521 C64.9701131,51.8409574 54.9300485,58.5415585 42.8418417,58.5415585 C27.8631664,58.5415585 19.5198708,49.3379734 16.9657512,42.5560532 C16.9657512,42.5560532 16.9555735,42.5274947 16.9424879,42.4892553 C16.9105008,42.5700904 16.8765751,42.6504415 16.8455574,42.7317606 C16.7980614,42.8547074 16.7520194,42.9786223 16.7069467,43.1030213 C16.6347334,43.3029309 16.5654281,43.5038085 16.4995153,43.7056543 C16.4655897,43.8087553 16.431664,43.9113723 16.3996769,44.0149574 C16.3250404,44.2574628 16.2542811,44.5009362 16.1883683,44.7463457 C16.1709208,44.8097553 16.1529887,44.8731649 16.1365105,44.9365745 C16.0560582,45.2478138 15.9819063,45.5614734 15.9159935,45.8765851 C15.8946688,45.978234 15.8718901,46.0793989 15.8520194,46.1815319 C15.8127625,46.3833777 15.7798061,46.5871596 15.7463651,46.7914255 C15.7206785,46.9530957 15.6959612,47.11525 15.6746365,47.2778883 C15.6513732,47.4487553 15.6300485,47.6196223 15.611147,47.7914574 C15.5883683,48.0044362 15.5704362,48.218383 15.5544426,48.4328138 C15.5515347,48.4734734 15.5486268,48.514133 15.5452342,48.5547926 C15.5384491,48.6486968 15.5297254,48.742117 15.5243942,48.8360213 C15.5050081,49.1908245 15.4928918,49.5475638 15.4928918,49.9062394 C15.4928918,50.2828245 15.5045234,50.6579574 15.5268174,51.0316383 C15.5311793,51.1061809 15.5408724,51.1797553 15.5462036,51.2538138 C15.5515347,51.3046383 15.5558966,51.3554628 15.5597738,51.4062872 C15.5796446,51.6550851 15.5980614,51.9033989 15.6276252,52.1502606 C15.6363489,52.2214149 15.6494346,52.2920851 15.658643,52.3632394 C15.6702746,52.4402021 15.6814216,52.5176489 15.6925687,52.5950957 C15.7240711,52.8163032 15.7536349,53.0375106 15.7928918,53.2562979 C15.7972536,53.2805 15.8030695,53.3047021 15.807916,53.3289043 C15.8340872,53.4707287 15.8655897,53.6111011 15.8951535,53.7524415 C15.9358643,53.9499309 15.9741519,54.1474202 16.0211632,54.3434574 C16.0609047,54.509484 16.1088853,54.6735745 16.152504,54.8381489 C16.2038772,55.031766 16.2542811,55.225867 16.3119548,55.4180319 C16.3318255,55.4838617 16.3546042,55.5487234 16.3759289,55.6140691 C16.4069467,55.714266 16.4408724,55.8139787 16.4733441,55.9136915 C16.534895,56.0995638 16.5945073,56.2854362 16.6609047,56.4688883 C16.6996769,56.5748936 16.7432956,56.6789628 16.7835218,56.784484 C16.8058158,56.8401489 16.8266559,56.8967819 16.8489499,56.9529309 C16.9216478,57.1383191 16.9933764,57.3241915 17.0714055,57.5076436 C17.098546,57.5705691 17.1276252,57.6330106 17.1562197,57.6954521 C17.1998384,57.7956489 17.2453958,57.8948777 17.2904685,57.9941064 C17.3714055,58.1702979 17.4513732,58.3469734 17.5371567,58.5217128 C17.6147011,58.6804787 17.6980614,58.8368245 17.7804523,58.9936543 C17.8710824,59.1664574 17.9607431,59.3392606 18.0557351,59.5096436 C18.1119548,59.6103245 18.1720517,59.7090691 18.23021,59.809266 C18.2626817,59.8649309 18.2951535,59.9215638 18.3281099,59.9772287 C18.4279483,60.1456755 18.5268174,60.3136383 18.6315024,60.4796649 C18.6508885,60.5101596 18.6712439,60.5401702 18.69063,60.5706649 C18.7691438,60.6931277 18.8486268,60.8151064 18.9295638,60.9366011 C19.0376414,61.0992394 19.1457189,61.2618777 19.258643,61.4220957 C19.3638126,61.5721489 19.4723748,61.720266 19.5819063,61.8678989 C19.6982229,62.0252128 19.8150242,62.1820426 19.9357027,62.3374202 C20.0045234,62.425516 20.0752827,62.5121596 20.146042,62.5997713 C20.1930533,62.6583404 20.2390953,62.7173936 20.2870759,62.7754787 C20.4096931,62.9255319 20.5327948,63.074133 20.6592892,63.2212819 C20.7174475,63.2885638 20.7775444,63.3548777 20.8366721,63.4221596 C20.9025848,63.4967021 20.9680129,63.5717287 21.0344103,63.6457872 C21.1657512,63.7919681 21.2990307,63.9371809 21.4347334,64.0804574 C21.5306947,64.1821064 21.6290792,64.2823032 21.7274637,64.3825 C21.7623586,64.4183191 21.796769,64.4546223 21.8321486,64.4899574 C21.9688207,64.6283936 22.107916,64.7653777 22.2484653,64.9013936 C22.338126,64.9875532 22.4297254,65.0722606 22.5208401,65.1569681 C22.5717286,65.2048883 22.6221325,65.2532926 22.6735057,65.3007287 C22.8179321,65.4333564 22.9642973,65.5645319 23.1116317,65.6942553 C23.1741519,65.7489521 23.2376414,65.8021968 23.3006462,65.8559255 C23.3869144,65.929984 23.4722132,66.0050106 23.5594507,66.077617 C23.7096931,66.2039521 23.8623586,66.327867 24.0159935,66.4508138 C24.171567,66.5756968 24.3290792,66.6991277 24.4885299,66.8206223 C24.6450727,66.9401809 24.8040388,67.0573191 24.9634895,67.1739734 C25.1277868,67.2935319 25.2925687,67.4121223 25.4592892,67.5278085 C25.6206785,67.6401064 25.7854604,67.7495 25.9502423,67.8584096 C26.0268174,67.909234 26.1048465,67.9590904 26.182391,68.0094309 C26.2768982,68.0704202 26.3704362,68.1333457 26.4659128,68.1938511 C26.6311793,68.2974362 26.7988691,68.3986011 26.9660743,68.4992819 C27.1216478,68.5927021 27.277706,68.6851543 27.4352181,68.7761543 C27.4584814,68.7892234 27.4807754,68.8032606 27.5040388,68.8163298 C27.6756058,68.9141064 27.8500808,69.0084947 28.0240711,69.103367 C28.1558966,69.1750053 28.2886914,69.2456755 28.4214863,69.3153777 C28.4757674,69.3439362 28.5290792,69.3734628 28.5833603,69.4015372 C28.7592892,69.4920532 28.9376414,69.5786968 29.1169628,69.6658245 C29.2473344,69.729234 29.3781906,69.7926436 29.5100162,69.854117 C29.5720517,69.8841277 29.6331179,69.9146223 29.6961228,69.9436649 C29.8764136,70.0264362 30.0596123,70.1053351 30.2418417,70.1847181 C30.382391,70.2457074 30.5229402,70.3066968 30.6649435,70.366234 C30.7235864,70.3909202 30.7812601,70.4170585 30.8408724,70.4417447 C31.0245557,70.5167713 31.2121163,70.5874415 31.3977383,70.6590798 C31.6042003,70.7389468 31.8096931,70.8192979 32.0185784,70.8943245 C32.2080775,70.9620904 32.4,71.025016 32.5919225,71.0893936 C32.6684976,71.1150479 32.746042,71.139734 32.8231018,71.1658723 C32.9568659,71.2099202 33.0896607,71.2568723 33.2243942,71.298984 C33.4114701,71.3570691 33.6004847,71.4098298 33.7899838,71.4645266 C33.9019386,71.4969574 34.014378,71.5293883 34.1273021,71.5608511 C34.2353796,71.5918298 34.3429725,71.6242606 34.452504,71.6533032 C34.6458805,71.7046117 34.8436187,71.7501117 35.0389338,71.7975479 C35.2638126,71.8522447 35.4867528,71.9093617 35.7135703,71.9592181 C35.9025848,72.0003617 36.0940226,72.0356968 36.2844911,72.0729681 C36.4337641,72.1029787 36.5820679,72.1329894 36.7323102,72.1605798 C36.8195477,72.1775213 36.9053312,72.1963989 36.9930533,72.2114043 C37.187399,72.2452872 37.385622,72.2719096 37.5814216,72.3024043 C37.6924071,72.3198298 37.8029079,72.3353191 37.9138934,72.3527447 C38.0432956,72.3716223 38.1702746,72.3943723 38.3006462,72.4117979 C38.4576737,72.4321277 38.6171244,72.447133 38.7756058,72.4640745 C38.7983845,72.4669787 38.8211632,72.4689149 38.8439418,72.4718191 C39.4579968,72.5410372 40.0768982,72.59525 40.7035541,72.6281649 C40.7830372,72.6325213 40.8615509,72.640266 40.9415186,72.6441383 L40.9444265,72.6441383 C40.9546042,72.6446223 40.9652666,72.6451064 40.9754443,72.6455904 C40.9870759,72.6460745 40.9982229,72.6465585 41.0098546,72.6470426 C41.4567044,72.6664043 41.9059774,72.6765691 42.3581583,72.6765691 C42.8457189,72.6765691 43.3357027,72.6678564 43.8271405,72.652367 C44.0108239,72.6465585 44.1954766,72.6344574 44.3796446,72.6262287 C44.687399,72.6126755 44.9946688,72.6005745 45.3033926,72.5807287 C45.5403877,72.5657234 45.7788368,72.5434574 46.0168013,72.5245798 C46.2717286,72.50425 46.5266559,72.4863404 46.7820679,72.4621383 C47.0544426,72.436 47.3268174,72.4030851 47.5996769,72.3721064 C47.8206785,72.3474202 48.0411955,72.3246702 48.2621971,72.2965957 C48.5607431,72.2583564 48.8588045,72.2138245 49.1578352,72.1702606 C49.3526656,72.1417021 49.547496,72.1155638 49.7418417,72.0845851 C50.0626817,72.0337606 50.3835218,71.9761596 50.7048465,71.9185585 C50.8754443,71.8880638 51.046042,71.8590213 51.2166397,71.8265904 C51.5588045,71.7612447 51.9004847,71.6896064 52.2421648,71.617 C52.3899838,71.5855372 52.5368336,71.5555266 52.684168,71.5226117 C53.0447496,71.4422606 53.4043619,71.355617 53.7644588,71.2670372 C53.8914378,71.2355745 54.0184168,71.2055638 54.1453958,71.173133 C54.5219709,71.0768085 54.8980614,70.9741915 55.2731826,70.8691543 C55.3802908,70.8386596 55.4869144,70.809617 55.593538,70.7786383 C55.9861066,70.6653723 56.376252,70.5462979 56.7663974,70.422383 C56.8546042,70.3943085 56.9418417,70.3672021 57.0295638,70.3386436 C57.4342488,70.2079521 57.8369952,70.0709681 58.2382876,69.9291436 C58.3095315,69.9039734 58.3812601,69.8788032 58.452504,69.8531489 C58.8678514,69.7040638 59.2812601,69.5486862 59.6927302,69.3875 C59.7470113,69.3666862 59.8012924,69.3449043 59.8550889,69.3236064 C60.2806139,69.1551596 60.7027464,68.9809043 61.1229402,68.7998723 C61.1621971,68.7829309 61.201454,68.7655053 61.2407108,68.7485638 C61.6735057,68.5607553 62.1024233,68.3661702 62.5294023,68.1648085 C62.5541195,68.1531915 62.5793215,68.1410904 62.6035541,68.1289894 C63.0416801,67.9208511 63.4768982,67.7059362 63.9077544,67.4837606 C63.9198708,67.4774681 63.9319871,67.4711755 63.9441034,67.4643989 C64.3861066,67.2359309 64.8242326,67.0002021 65.2584814,66.7562447 L65.2589661,66.7562447 C70.9318255,63.5673723 75.8660743,59.0696489 79.1878837,53.2209628 C79.3027464,53.0147606 79.4147011,52.803234 79.5276252,52.5931596 C79.6294023,52.404383 79.7355412,52.2185106 79.8339257,52.0268298 C79.834895,52.0253777 79.8358643,52.0239255 79.8368336,52.0219894 C79.903231,51.893234 79.9676898,51.7639947 80.0336026,51.6357234 C80.1276252,51.4464628 80.2240711,51.2601064 80.3151858,51.0684255 C80.3171244,51.0645532 80.3185784,51.0611649 80.320517,51.0572926 C80.5085622,50.6598936 80.6878837,50.2566862 80.8613893,49.8481543 C80.9403877,49.6622819 81.0150242,49.4725372 81.0915994,49.2842447 C81.2122779,48.9851064 81.3295638,48.6830638 81.4424879,48.377633 C81.5030695,48.2140266 81.5636511,48.0509043 81.6218094,47.8853617 C81.7894992,47.411 81.9499192,46.9313138 82.0972536,46.4424309 C82.2407108,45.9671011 82.371567,45.4956436 82.4912763,45.0285426 C82.5300485,44.8765532 82.5610662,44.7274681 82.5974152,44.5764468 C82.673021,44.2632713 82.7500808,43.9491277 82.8159935,43.6393404 C82.8537964,43.4602447 82.8838449,43.2845372 82.9182553,43.1068936 C82.9720517,42.8290532 83.0287561,42.5502447 83.0747981,42.2762766 C83.1063005,42.0889521 83.1305331,41.905016 83.158643,41.7196277 C83.1978998,41.4587287 83.23958,41.1973457 83.2720517,40.9403191 C83.2957997,40.7505745 83.3132472,40.5651862 83.3336026,40.3773777 C83.3607431,40.1285798 83.3893376,39.8788138 83.4106624,39.6329202 C83.4266559,39.4436596 83.4373183,39.2582713 83.4499192,39.0714309 C83.4663974,38.8318298 83.4838449,38.5917447 83.4949919,38.3555319 C83.5037157,38.1682074 83.5066236,37.9842713 83.5124394,37.799367 C83.5192246,37.5684787 83.5260097,37.3366223 83.5279483,37.1091223 C83.5294023,36.9261543 83.5260097,36.7460904 83.5245557,36.5650585 C83.5221325,36.3404628 83.5201939,36.115383 83.5138934,35.8936915 C83.5085622,35.7150798 83.4993538,35.5398564 83.4911147,35.3631809 C83.480937,35.1453617 83.4707593,34.9280266 83.4562197,34.7140798 C83.4450727,34.5398245 83.4295638,34.3684734 83.4155089,34.1966383 C83.3980614,33.9855957 83.3801292,33.7745532 83.3588045,33.567383 C83.341357,33.3994202 83.3214863,33.2343617 83.3021002,33.0688191 C83.2773829,32.8635851 83.2521809,32.6583511 83.2245557,32.4565053 C83.2022617,32.2948351 83.1775444,32.1351011 83.1537964,31.9758511 C83.1232633,31.7769096 83.0917609,31.5789362 83.0583199,31.383867 C83.0311793,31.2280053 83.0030695,31.0745638 82.974475,30.9211223 C82.938126,30.7284734 82.9012924,30.5372766 82.8625202,30.3485 C82.8319871,30.1994149 82.8,30.052266 82.7680129,29.9060851 C82.7268174,29.7202128 82.6851373,29.5353085 82.6415186,29.3537926 C82.6080775,29.211484 82.5726979,29.0711117 82.5378029,28.9317074 C82.4922456,28.7521277 82.4462036,28.574484 82.3987076,28.3992606 C82.3623586,28.2646968 82.325525,28.1311011 82.2877221,27.9989574 C82.2382876,27.8261543 82.1883683,27.6557713 82.1374798,27.4873245 C82.0991922,27.3605053 82.06042,27.2341702 82.0216478,27.1097713 C81.9693053,26.9432606 81.9155089,26.7791702 81.8621971,26.6175 C81.8229402,26.4989096 81.7831987,26.3808032 81.7434572,26.264633 C81.6882068,26.1048989 81.6324717,25.9485532 81.576252,25.7936596 C81.5360258,25.6828138 81.4957997,25.5719681 81.4555735,25.4630585 C81.3983845,25.3110691 81.3411955,25.1629521 81.2840065,25.0162872 C81.2437803,24.9131862 81.2035541,24.8096011 81.1628433,24.7089202 C81.104685,24.5646755 81.046042,24.4243032 80.9878837,24.285383 C80.9486268,24.1914787 80.9088853,24.0961223 80.8691438,24.0041543 C80.8095315,23.8657181 80.7504039,23.7321223 80.6912763,23.6004628 C80.6534733,23.5157553 80.6156704,23.4300798 80.5778675,23.3482766 C80.5182553,23.2175851 80.4591276,23.0927021 80.4,22.9687872 C80.3641357,22.8927926 80.3277868,22.8148617 80.2914378,22.7412872 C80.2318255,22.6178564 80.1731826,22.5007181 80.1145396,22.3840638 C80.0820679,22.3187181 80.0481422,22.2509521 80.0161551,22.1880266 C79.9560582,22.0704043 79.8978998,21.9600426 79.8397415,21.8506489 C79.8106624,21.7959521 79.7810985,21.7383511 79.752504,21.6855904 C79.6933764,21.5747447 79.6361874,21.4721277 79.5799677,21.3704787 C79.5557351,21.3269149 79.5305331,21.2799628 79.5072698,21.2383351 C79.4481422,21.1332979 79.3924071,21.0369734 79.3371567,20.9425851 C79.3187399,20.9111223 79.2993538,20.8762713 79.2814216,20.8457766 C79.2203554,20.7417074 79.1631664,20.6463511 79.1084006,20.5563191 C79.0991922,20.5417979 79.0894992,20.5253404 79.0807754,20.5113032 C78.8287561,20.099383 78.6523425,19.8428404 78.5898223,19.7537766 C78.5932149,19.7591011 78.5922456,19.7576489 78.5970921,19.7639415 C78.5951535,19.7615213 78.5912763,19.7557128 78.5898223,19.7537766 C78.5917609,19.7566809 78.5912763,19.7561968 78.5936995,19.7591011 C78.5946688,19.7605532 78.5966074,19.7629734 78.5980614,19.7653936 C78.5995153,19.7668457 78.601454,19.76975 78.6024233,19.7712021 L78.6029079,19.7716862 C78.6218094,19.7987926 78.6494346,19.838484 78.6819063,19.8864043 C78.6949919,19.90625 78.7100162,19.9275479 78.725525,19.9507819 C78.7550889,19.9943457 78.7875606,20.043234 78.8243942,20.0988989 C78.8423263,20.1260053 78.8583199,20.1506915 78.8781906,20.1807021 C78.9324717,20.2639574 78.992084,20.3564096 79.0589661,20.4619309 C79.0638126,20.4691915 79.0672052,20.4740319 79.0710824,20.4812926 C79.1423263,20.5935904 79.2213247,20.7208936 79.3042003,20.8569096 C79.325525,20.8917606 79.3473344,20.9280638 79.3691438,20.964367 C79.4369952,21.0761809 79.5077544,21.1952553 79.5819063,21.3215904 C79.6075929,21.3646702 79.6318255,21.4062979 79.6575121,21.4513138 C79.7563813,21.6212128 79.8581583,21.7983723 79.9662359,21.9915053 C79.9667205,21.9919894 79.9672052,21.9929574 79.9676898,21.9939255 C80.0248788,22.0965426 80.0869144,22.2127128 80.1465267,22.3225904 C80.2085622,22.4363404 80.2681745,22.5437979 80.3326333,22.6643245 C75.6193861,13.4883298 63.7085622,0.13456383 42.9072698,0.13456383 C17.4741519,0.13456383 0.186106624,20.6371543 0.186106624,42.588484 C0.186106624,51.3627234 3.00048465,58.3522979 5.00210016,62.2164096 C4.91970921,61.9792287 4.81793215,61.76625 4.71615509,61.5532713 L4.6914378,61.5750532 Z" id="path32"></path>
                        <path d="M80.3263328,22.6488351 C80.2042003,22.4189149 80.0854604,22.2006117 79.971567,21.9963457 C79.9710824,21.9953777 79.9705977,21.9948936 79.9701131,21.9939255 C79.8620355,21.8007926 79.7602585,21.6231489 79.6613893,21.453734 C79.6352181,21.4087181 79.6109855,21.3675745 79.5857835,21.3240106 C79.5116317,21.1976755 79.4403877,21.0786011 79.373021,20.9667872 C79.361874,20.9479096 79.350727,20.929516 79.33958,20.9111223 C79.3279483,20.8922447 79.3153473,20.8709468 79.3042003,20.8525532 C79.2227787,20.7194415 79.1452342,20.5940745 79.0749596,20.4837128 C79.0705977,20.4764521 79.0672052,20.4716117 79.0628433,20.4643511 C78.9983845,20.3631862 78.9416801,20.2746064 78.888853,20.1937713 C78.8621971,20.1535957 78.8384491,20.1163245 78.8147011,20.0809894 C78.7851373,20.0364574 78.7575121,19.9953138 78.7332795,19.9590106 C78.7250404,19.9473936 78.7172859,19.9357766 78.7100162,19.9251277 C78.7017771,19.9130266 78.693538,19.9004415 78.6857835,19.8893085 C78.6770598,19.8767234 78.6731826,19.8704309 78.6649435,19.8592979 C78.7560582,19.9933777 78.9106624,20.2281383 79.1074313,20.5509947 C79.1088853,20.5538989 79.1108239,20.5563191 79.1122779,20.5592234 C79.1161551,20.565516 79.120517,20.5732606 79.1243942,20.5795532 C79.1752827,20.6642606 79.2285945,20.7513883 79.2852989,20.8486809 C79.303231,20.8791755 79.3226171,20.9140266 79.3410339,20.9454894 C79.3449111,20.9517819 79.3487884,20.9590426 79.3521809,20.9653351 C79.4021002,21.0510106 79.4515347,21.1366862 79.5043619,21.2310745 C79.5067851,21.2344628 79.5087237,21.2378511 79.5106624,21.2412394 C79.5305331,21.2765745 79.5513732,21.3148138 79.5717286,21.3520851 C79.7117932,21.6042713 79.8610662,21.8811436 80.0180937,22.1885106 C80.019063,22.1894787 80.0195477,22.1904468 80.0200323,22.1918989 C80.0520194,22.2548245 80.0859451,22.3230745 80.1184168,22.3879362 L80.1184168,22.3884202 C80.2909532,22.7320904 80.4702746,23.1062553 80.6529887,23.5104309 C80.6670436,23.5418936 80.6815832,23.5728723 80.6956381,23.6043351 C80.6961228,23.6057872 80.6970921,23.6072394 80.6975767,23.6086915 C80.8526656,23.955266 81.0096931,24.3212021 81.1662359,24.7094043 C81.1667205,24.7108564 81.1672052,24.7118245 81.1676898,24.7132766 C81.1831987,24.752484 81.1987076,24.7926596 81.2147011,24.8323511 C81.2956381,25.0351649 81.3760905,25.2423351 81.4565428,25.4557979 C81.4579968,25.4596702 81.4594507,25.4635426 81.4609047,25.4674149 C81.4885299,25.5419574 81.5161551,25.6184362 81.5437803,25.6944309 C81.6116317,25.8793351 81.6785137,26.0661755 81.7449111,26.2583404 C81.7463651,26.2617287 81.7473344,26.2656011 81.7487884,26.2689894 C81.7885299,26.3846755 81.8282714,26.5027819 81.8675283,26.6218564 C81.8684976,26.6242766 81.8689822,26.6266968 81.8699515,26.629117 C81.922294,26.7869149 81.9741519,26.9461649 82.0250404,27.1088032 C82.025525,27.1107394 82.0264943,27.1126755 82.026979,27.1146117 C82.0657512,27.2390106 82.1045234,27.3653457 82.142811,27.4921649 C82.1932149,27.6577074 82.2421648,27.8251862 82.29063,27.9955691 C82.2915994,27.9984734 82.292084,28.0008936 82.2930533,28.0037979 C82.3197092,28.0977021 82.3453958,28.1925745 82.371567,28.2874468 C82.4297254,28.4994574 82.4864297,28.7134043 82.5421648,28.9321915 C82.5421648,28.9336436 82.5426494,28.9350957 82.5431341,28.9365479 C82.5552504,28.9864043 82.5678514,29.0372287 82.5799677,29.0880532 C82.7253635,29.6737447 82.858643,30.2817021 82.9768982,30.9124096 C82.9778675,30.91725 82.9788368,30.9216064 82.9798061,30.9259628 C83.0050081,31.0624628 83.03021,31.1999309 83.0544426,31.338367 C83.0907916,31.5465053 83.1247173,31.7575479 83.157189,31.9700426 C83.1581583,31.9734309 83.158643,31.9768191 83.1591276,31.9802074 C83.1722132,32.065883 83.1848142,32.1530106 83.1974152,32.2391702 C83.2361874,32.5078138 83.2725363,32.7788777 83.3054927,33.0547819 C83.306462,33.0610745 83.3069467,33.066883 83.307916,33.0731755 C83.3273021,33.2387181 83.3471729,33.4042606 83.3646204,33.5717394 C83.3646204,33.5736755 83.365105,33.5756117 83.365105,33.5775479 C83.3864297,33.7813298 83.4033926,33.9885 83.4208401,34.1961543 C83.4208401,34.1976064 83.4213247,34.1995426 83.4213247,34.2014787 C83.4252019,34.2450426 83.4281099,34.2890904 83.4315024,34.3326543 C83.4581583,34.670516 83.4799677,35.012734 83.4964459,35.3597926 C83.4964459,35.3626968 83.4969305,35.3656011 83.4969305,35.3685053 C83.5003231,35.4435319 83.503231,35.5195266 83.5066236,35.5945532 C83.5192246,35.910633 83.5274637,36.2305851 83.5303716,36.5544096 C83.5308562,36.559734 83.5308562,36.5645745 83.5308562,36.570383 C83.5323102,36.7233404 83.5337641,36.8758138 83.5337641,37.0297394 C83.5323102,37.2780532 83.5260097,37.5297553 83.5192246,37.7819415 C83.5192246,37.7896862 83.5187399,37.7969468 83.5187399,37.8042074 C83.5129241,37.9891117 83.5095315,38.1730479 83.5012924,38.3603723 L83.5012924,38.3623085 C83.49063,38.5975532 83.4726979,38.8366702 83.4562197,39.0753032 L83.4562197,39.0757872 C83.4436187,39.2626277 83.4329564,39.4485 83.4169628,39.6372766 C83.3922456,39.9247979 83.3588045,40.2171596 83.3258481,40.5090372 C83.3108239,40.653766 83.2962843,40.7980106 83.2778675,40.9441915 C83.2778675,40.9456436 83.2773829,40.9470957 83.2773829,40.9485479 C83.2453958,41.2026702 83.2042003,41.4606649 83.1654281,41.7176915 C83.1649435,41.7196277 83.1649435,41.7215638 83.1644588,41.7235 C83.1504039,41.8183723 83.1353796,41.9137287 83.1213247,42.008117 C83.0641357,42.3658245 82.9982229,42.7269202 82.9279483,43.0899521 C82.9264943,43.0967287 82.925525,43.1035053 82.9240711,43.1102819 C82.8896607,43.2879255 82.8596123,43.463633 82.8218094,43.6427287 C82.8213247,43.6441809 82.8213247,43.645633 82.8208401,43.6466011 C82.7418417,44.0188298 82.6512116,44.3954149 82.5576737,44.7734521 C82.5382876,44.8591277 82.5193861,44.9448032 82.4970921,45.0314468 C82.4966074,45.0328989 82.4961228,45.0343511 82.4956381,45.0358032 C82.3764136,45.5014521 82.2455574,45.9714574 82.1025848,46.4453351 C81.9547658,46.9342181 81.7943457,47.4134202 81.6271405,47.888266 C81.5689822,48.0538085 81.5084006,48.2169309 81.4478191,48.3805372 C81.3353796,48.685484 81.217609,48.9875266 81.0969305,49.2871489 C81.0959612,49.2895691 81.0949919,49.2915053 81.0940226,49.2939255 C81.093538,49.2948936 81.0930533,49.2963457 81.0925687,49.2977979 C81.0179321,49.4822181 80.9442649,49.6680904 80.8672052,49.8500904 C80.6936995,50.2586223 80.5138934,50.6623138 80.3258481,51.0601968 C80.3253635,51.0606809 80.3248788,51.0616489 80.3248788,51.062617 C80.3239095,51.0645532 80.3229402,51.0664894 80.3219709,51.0684255 C80.3214863,51.0693936 80.3210016,51.0703617 80.320517,51.0713298 C80.2294023,51.2630106 80.1329564,51.4498511 80.0389338,51.6386277 C79.9725363,51.7668989 79.9080775,51.8966223 79.8421648,52.0248936 C79.8411955,52.0263457 79.8402262,52.0277979 79.8392569,52.029734 C79.6226171,52.4513351 79.3962843,52.8656755 79.1631664,53.2742074 C78.958643,53.6323989 78.7487884,53.986234 78.5321486,54.3342606 C78.4473344,54.4707606 78.3581583,54.6029043 78.2714055,54.7379521 C78.1250404,54.9654521 77.9796446,55.1934362 77.8289176,55.4165798 C77.7256866,55.5690532 77.6180937,55.7176543 77.5129241,55.8681915 C77.3723748,56.0685851 77.2323102,56.2699468 77.0878837,56.4669521 C76.974475,56.6213617 76.8567044,56.772383 76.7408724,56.9248564 C76.5978998,57.1121809 76.4558966,57.2999894 76.3095315,57.4839255 C76.1883683,57.6363989 76.0638126,57.7859681 75.9397415,57.9365053 C75.7928918,58.115117 75.6465267,58.2932447 75.4962843,58.467984 C75.368336,58.6165851 75.2384491,58.762766 75.1085622,58.9094309 C74.9568659,59.0807819 74.8042003,59.2511649 74.6491115,59.4186436 C74.5163166,59.5628883 74.3806139,59.7051968 74.2453958,59.8470213 C74.0883683,60.0115957 73.9303716,60.1747181 73.7699515,60.3363883 C73.6323102,60.4753085 73.4932149,60.6127766 73.3531502,60.7492766 C73.1898223,60.9085266 73.0245557,61.0658404 72.8583199,61.2221862 C72.7168013,61.3548138 72.5743134,61.4869574 72.4308562,61.6171649 C72.2607431,61.7710904 72.0896607,61.9230798 71.9171244,62.073617 C71.7722132,62.2004362 71.6268174,62.3267713 71.4799677,62.4516543 C71.3035541,62.6017074 71.1242326,62.7488564 70.9449111,62.8955213 C70.7980614,63.0150798 70.6521809,63.1346383 70.5043619,63.2517766 C70.3187399,63.3984415 70.1311793,63.5417181 69.9436187,63.6849947 C69.7962843,63.7968085 69.6504039,63.9095904 69.5016155,64.0194681 C69.3067851,64.1632287 69.1090468,64.3036011 68.9117932,64.4439734 C68.7659128,64.5475585 68.6214863,64.6525957 68.4746365,64.7542447 C68.2657512,64.8980053 68.0544426,65.0378936 67.8431341,65.1777819 C67.7035541,65.270234 67.5659128,65.3646223 67.4253635,65.4551383 C67.188853,65.6076117 66.9489499,65.7557287 66.7085622,65.9033617 C66.5903069,65.9759681 66.4739903,66.0514787 66.3547658,66.123117 C65.9946688,66.3404521 65.6311793,66.5524628 65.2642973,66.7586649 L65.2638126,66.7586649 C64.8295638,67.0026223 64.3914378,67.2383511 63.9494346,67.4668191 C63.9373183,67.4731117 63.9252019,67.4794043 63.9130856,67.4861809 C63.4817447,67.7083564 63.0470113,67.9232713 62.6088853,68.1314096 C62.584168,68.1430266 62.5589661,68.1551277 62.5347334,68.1672287 C62.1077544,68.3685904 61.6783522,68.5626915 61.246042,68.750984 C61.2067851,68.7679255 61.1675283,68.7853511 61.1282714,68.8022926 C60.7080775,68.9833245 60.2859451,69.1575798 59.86042,69.3260266 C59.8066236,69.3473245 59.7523425,69.3686223 59.6980614,69.3899202 C59.2865913,69.5511064 58.8736672,69.706484 58.4578352,69.8555691 C58.3865913,69.8812234 58.3148627,69.9063936 58.2436187,69.9315638 C57.8423263,70.0733883 57.43958,70.2103723 57.034895,70.3410638 C56.9471729,70.3696223 56.8599354,70.3967287 56.7717286,70.4248032 C56.3815832,70.548234 55.9914378,70.6677926 55.5988691,70.7810585 C55.4922456,70.8120372 55.385622,70.8415638 55.2785137,70.8715745 C54.9033926,70.9770957 54.5273021,71.0792287 54.150727,71.1755532 C54.023748,71.207984 53.896769,71.2379947 53.76979,71.2694574 C53.4101777,71.3580372 53.0505654,71.4446809 52.6894992,71.5250319 C52.5421648,71.5579468 52.395315,71.5879574 52.247496,71.6194202 C51.9058158,71.6920266 51.5641357,71.7636649 51.2219709,71.8290106 C51.0513732,71.8614415 50.8807754,71.890484 50.7101777,71.9209787 C50.388853,71.9785798 50.0680129,72.0361809 49.7471729,72.0870053 C49.5528271,72.117984 49.3579968,72.1441223 49.1631664,72.1726809 C48.8646204,72.2162447 48.566559,72.2607766 48.2675283,72.299016 C48.0465267,72.3270904 47.8260097,72.3498404 47.6050081,72.3745266 C47.3321486,72.4055053 47.0597738,72.4384202 46.787399,72.4645585 C46.5319871,72.4892447 46.2770598,72.5066702 46.0221325,72.527 C45.7846527,72.5458777 45.5462036,72.5676596 45.3087237,72.5831489 C44.9995153,72.6029947 44.6927302,72.6150957 44.3849758,72.6286489 C44.2008078,72.6368777 44.0161551,72.6489787 43.8324717,72.6547872 C43.3405493,72.6707606 42.8510501,72.6789894 42.3634895,72.6789894 C41.9108239,72.6789894 41.4620355,72.6688245 41.0151858,72.6494628 L41.0122779,72.6494628 C41.0025848,72.6489787 40.9928918,72.6484947 40.9831987,72.6480106 L40.9802908,72.6480106 C40.9701131,72.6475266 40.9594507,72.6470426 40.949273,72.6465585 L40.9463651,72.6465585 C40.8663974,72.6431702 40.7878837,72.6349415 40.7084006,72.6305851 C40.3948304,72.6141277 40.0831987,72.5923457 39.773021,72.5662074 C39.4773829,72.5410372 39.1831987,72.5115106 38.8904685,72.4785957 C38.8768982,72.4771436 38.8623586,72.4761755 38.8487884,72.4747234 L38.8483037,72.4747234 C38.8458805,72.4747234 38.8439418,72.4742394 38.8415186,72.4742394 C38.6621971,72.4539096 38.4814216,72.4379362 38.3030695,72.4147021 C38.0621971,72.3832394 37.8252019,72.3425798 37.5862682,72.3053085 C37.3904685,72.2748138 37.1922456,72.2481915 36.9978998,72.2143085 C36.7657512,72.1736489 36.5374798,72.1247606 36.3077544,72.0792606 C36.1105008,72.0400532 35.9117932,72.00375 35.7159935,71.9611543 C35.4911147,71.9117819 35.2701131,71.8546649 35.0476575,71.8004521 C34.8508885,71.7525319 34.6526656,71.7070319 34.4573506,71.6552394 C34.2392569,71.5976383 34.0250404,71.5332606 33.80937,71.4708191 C33.8059774,71.4698511 33.8025848,71.468883 33.7991922,71.4679149 C33.7977383,71.4674309 33.7957997,71.4669468 33.7943457,71.4664628 C33.679483,71.4330638 33.5655897,71.3991809 33.4512116,71.366266 C33.3760905,71.344484 33.3,71.3231862 33.2253635,71.2999521 C33.0135703,71.2336383 32.8056543,71.161516 32.5962843,71.0913298 C32.4038772,71.0264681 32.2105008,70.9635426 32.020517,70.8952926 C31.8150242,70.821234 31.6134087,70.7423351 31.4108239,70.6639202 C31.4084006,70.6629521 31.4059774,70.661984 31.4035541,70.661016 C31.4030695,70.661016 31.4025848,70.661016 31.4021002,70.6605319 C31.2159935,70.5888936 31.028433,70.5182234 30.8452342,70.4431968 C30.646042,70.3618777 30.450727,70.275234 30.253958,70.1900426 C30.2515347,70.1890745 30.2491115,70.1881064 30.2462036,70.1866543 L30.2457189,70.1866543 C30.0634895,70.1072713 29.8802908,70.0283723 29.7,69.9456011 C29.5071082,69.8565372 29.317609,69.7636011 29.1271405,69.6711489 C28.9463651,69.5830532 28.7655897,69.4954415 28.5877221,69.4039574 C28.533441,69.375883 28.4801292,69.3463564 28.4258481,69.3177979 C28.2930533,69.2480957 28.1602585,69.1774255 28.028433,69.1057872 C27.8544426,69.0109149 27.679483,68.9165266 27.5084006,68.81875 C27.4851373,68.8056809 27.4628433,68.7916436 27.43958,68.7785745 C27.3644588,68.7354947 27.2903069,68.6904787 27.2161551,68.6469149 C27.1371567,68.5994787 27.0567044,68.5534947 26.977706,68.5060585 C26.9767367,68.5055745 26.9757674,68.5050904 26.9743134,68.5041223 C26.9733441,68.5036383 26.9718901,68.5026702 26.9704362,68.5017021 C26.8027464,68.4010213 26.6355412,68.2998564 26.4702746,68.1962713 C26.4693053,68.1957872 26.4678514,68.1948191 26.4668821,68.1943351 C26.4663974,68.1938511 26.4654281,68.1938511 26.4649435,68.193367 C26.4203554,68.1652926 26.377706,68.13625 26.3336026,68.1081755 C26.2846527,68.0762287 26.2357027,68.0442819 26.1862682,68.0123351 C26.1092084,67.9619947 26.0311793,67.9121383 25.9541195,67.8613138 C25.7893376,67.7524043 25.6245557,67.6430106 25.4631664,67.5307128 C25.4626817,67.5307128 25.4626817,67.5302287 25.4621971,67.5302287 C25.4607431,67.5292606 25.4592892,67.5282926 25.4578352,67.5273245 C25.3749596,67.4697234 25.2940226,67.4106702 25.2121163,67.3521011 C25.1306947,67.2935319 25.0483037,67.2359309 24.9668821,67.1768777 C24.8869144,67.1183085 24.8084006,67.0587713 24.7294023,67.0002021 C24.6494346,66.9406649 24.5689822,66.8825798 24.4899838,66.8220745 C24.3324717,66.7020319 24.1773829,66.5800532 24.0232633,66.4566223 C24.022294,66.4556543 24.0213247,66.4551702 24.0198708,66.4542021 L24.0193861,66.4537181 C23.8657512,66.3307713 23.712601,66.2068564 23.5628433,66.0805213 C23.4751212,66.0074309 23.3903069,65.9328883 23.3040388,65.8588298 C23.2410339,65.8051011 23.1775444,65.7513723 23.1150242,65.6971596 C22.9672052,65.5674362 22.8213247,65.4362606 22.6768982,65.303633 C22.534895,65.1729415 22.3948304,65.0412819 22.2562197,64.9086543 L22.2557351,64.9081702 C22.2547658,64.9072021 22.2533118,64.90575 22.2518578,64.9047819 C22.1883683,64.8437926 22.1268174,64.7813511 22.0642973,64.7198777 C21.9877221,64.644367 21.9101777,64.5693404 21.8340872,64.4928617 C21.8025848,64.4609149 21.771567,64.428 21.7400646,64.3955691 L21.7303716,64.3858883 C21.6319871,64.2856915 21.5336026,64.1854947 21.4376414,64.0838457 C21.3019386,63.9405691 21.1686591,63.7953564 21.0373183,63.6491755 C20.9529887,63.5557553 20.8705977,63.460883 20.7872375,63.3669787 C20.7455574,63.3195426 20.7029079,63.2725904 20.6617124,63.2251543 C20.5909532,63.1433511 20.5235864,63.0596117 20.4542811,62.9768404 C20.398546,62.9095585 20.3418417,62.8432447 20.2861066,62.7754787 C20.1688207,62.6317181 20.0520194,62.4874734 19.938126,62.3412926 C19.8174475,62.1863989 19.7006462,62.0290851 19.5843296,61.8717713 C19.4747981,61.7236543 19.3662359,61.5760213 19.2610662,61.4259681 C19.1486268,61.265266 19.0400646,61.1031117 18.9319871,60.9404734 C18.8510501,60.8189787 18.771567,60.697 18.6930533,60.5745372 C18.6736672,60.5440426 18.6533118,60.5140319 18.6339257,60.4835372 C18.5292407,60.3175106 18.4303716,60.1495479 18.3305331,59.9811011 C18.2394184,59.8266915 18.1473344,59.67325 18.0596123,59.5169043 C18.0591276,59.5159362 18.0581583,59.514484 18.0576737,59.513516 C17.9626817,59.343133 17.8725363,59.1703298 17.782391,58.9975266 C17.7,58.8406968 17.6166397,58.6843511 17.5390953,58.5255851 C17.4533118,58.3513298 17.3733441,58.1741702 17.2924071,57.9979787 C17.2919225,57.9965266 17.2909532,57.9950745 17.2904685,57.9936223 C17.2899838,57.9926543 17.2890145,57.9912021 17.2885299,57.98975 C17.2163166,57.8305 17.1416801,57.6722181 17.0733441,57.511516 C16.995315,57.3280638 16.9235864,57.1421915 16.8508885,56.9568032 C16.7878837,56.7970691 16.7229402,56.6378191 16.6642973,56.476633 C16.6642973,56.476633 16.6642973,56.4761489 16.6638126,56.4756649 C16.6638126,56.4746968 16.6633279,56.4737287 16.6628433,56.4727606 C16.5964459,56.2893085 16.5368336,56.1029521 16.4752827,55.9175638 C16.4641357,55.8831968 16.4529887,55.8483457 16.4418417,55.8139787 C16.3982229,55.6832872 16.3531502,55.5535638 16.3138934,55.4219043 C16.2547658,55.225383 16.2033926,55.0269255 16.1505654,54.8284681 C16.107916,54.668734 16.061874,54.5099681 16.0231018,54.349266 L16.0231018,54.3487819 C16.0231018,54.3482979 16.0226171,54.3478138 16.0226171,54.3473298 C15.9756058,54.1517766 15.9373183,53.9538032 15.8966074,53.7563138 C15.8966074,53.7558298 15.8961228,53.7553457 15.8961228,53.7543777 C15.8946688,53.7461489 15.8927302,53.7379202 15.8907916,53.7296915 C15.8588045,53.5733457 15.8224556,53.417484 15.7943457,53.2601702 C15.7550889,53.0408989 15.725525,52.8196915 15.6940226,52.5989681 C15.6726979,52.4513351 15.6465267,52.3051543 15.6285945,52.1565532 C15.5990307,51.9092074 15.5806139,51.6599255 15.5607431,51.4101596 C15.5563813,51.3593351 15.5520194,51.3085106 15.5471729,51.2576862 C15.5462036,51.2421968 15.5442649,51.2271915 15.542811,51.2117021 C15.5374798,51.1545851 15.5311793,51.096984 15.5277868,51.039383 C15.5054927,50.664734 15.4938611,50.2881489 15.4938611,49.9101117 C15.4938611,49.5504681 15.5059774,49.1932447 15.5253635,48.8369894 C15.5331179,48.7029096 15.5452342,48.5702819 15.555412,48.4366862 C15.5714055,48.2222553 15.5893376,48.0083085 15.6121163,47.7953298 C15.6310178,47.6239787 15.6523425,47.4526277 15.6756058,47.2817606 C15.6974152,47.1191223 15.7221325,46.9569681 15.7473344,46.7952979 C15.7478191,46.7928777 15.7483037,46.7899734 15.7487884,46.7875532 C15.7807754,46.5876436 15.8142165,46.3882181 15.8520194,46.1897606 C15.8723748,46.0861755 15.8951535,45.9835585 15.9169628,45.8804574 C15.9828756,45.5648617 16.0570275,45.2516862 16.1374798,44.9404468 C16.1374798,44.9394787 16.1379645,44.9385106 16.1384491,44.9375426 C16.1975767,44.7090745 16.2649435,44.4830266 16.3318255,44.2564947 C16.3555735,44.1775957 16.3764136,44.0977287 16.4006462,44.0188298 C16.4011309,44.0178617 16.4011309,44.0168936 16.4016155,44.0159255 C16.4709208,43.793266 16.5470113,43.5725426 16.6235864,43.3523032 C16.6521809,43.270984 16.6783522,43.1886968 16.707916,43.1073777 C16.7084006,43.1068936 16.7084006,43.1059255 16.7088853,43.1054415 C20.1058158,33.7213085 30.3261712,26.7133404 42.6891761,26.7133404 C57.6678514,26.7133404 66.0130856,35.9169255 68.5594507,42.7007819 C68.5594507,42.7007819 68.5705977,42.7312766 68.5875606,42.7767766 C68.6995153,42.4955479 68.8051696,42.2114149 68.9050081,41.9258298 C68.9704362,41.7385053 69.0290792,41.5492447 69.0886914,41.3604681 C69.1192246,41.2660798 69.1512116,41.1726596 69.1798061,41.0782713 C69.2558966,40.825117 69.3261712,40.5700266 69.392084,40.3139681 C69.3993538,40.2858936 69.4071082,40.2587872 69.414378,40.2307128 C69.4861066,39.9470638 69.552504,39.6614787 69.6121163,39.3739574 C69.6329564,39.2742447 69.6552504,39.1755 69.6746365,39.0757872 C69.693538,38.9780106 69.7080775,38.879266 69.725525,38.7814894 C69.7429725,38.6774202 69.7623586,38.5738351 69.7788368,38.469766 C69.8054927,38.3066436 69.8292407,38.1430372 69.8515347,37.9789468 C69.8684976,37.8535798 69.8830372,37.7277287 69.898546,37.6023617 C69.9038772,37.5563777 69.9101777,37.5108777 69.9150242,37.4648936 C69.9382876,37.252883 69.9562197,37.0394202 69.9722132,36.8259574 C69.982391,36.6909096 69.9945073,36.5558617 70.0022617,36.4203298 C70.0216478,36.0650426 70.0337641,35.7083032 70.0337641,35.3496277 C70.0337641,34.9919202 70.0221325,34.6356649 70.0022617,34.2813457 C69.9949919,34.1574309 69.9819063,34.034484 69.9722132,33.9110532 C69.9547658,33.6787128 69.9363489,33.4468564 69.9101777,33.2164521 C69.9082391,33.2009628 69.9058158,33.1859574 69.9038772,33.1704681 C69.888853,33.0470372 69.8714055,32.9240904 69.853958,32.8006596 C69.8248788,32.589133 69.7957997,32.3776064 69.76042,32.168016 C69.7361874,32.0271596 69.7085622,31.8872713 69.6814216,31.747383 C69.6799677,31.7410904 69.6789984,31.7343138 69.6775444,31.7280213 C69.6392569,31.5290798 69.5980614,31.3311064 69.5534733,31.133133 C69.5311793,31.0348723 69.506462,30.9375798 69.4827141,30.8398032 C69.4701131,30.7880106 69.4579968,30.73525 69.4449111,30.6834574 C69.3964459,30.4908085 69.3450727,30.2996117 69.2907916,30.1084149 C69.2757674,30.0551702 69.2592892,30.0024096 69.2432956,29.9496489 C69.2147011,29.8528404 69.1870759,29.7560319 69.1570275,29.6601915 C69.0978998,29.4699628 69.034895,29.2811862 68.9694669,29.0928936 C68.919063,28.9471968 68.8696284,28.8005319 68.815832,28.6562872 C68.747496,28.471867 68.6738288,28.289383 68.6006462,28.1068989 C68.5415186,27.9607181 68.4843296,27.8140532 68.4218094,27.6693245 C68.3394184,27.4790957 68.2502423,27.2908032 68.1625202,27.1025106 C68.147496,27.0695957 68.1319871,27.0366809 68.1164782,27.003766 C68.0689822,26.9035691 68.0253635,26.8024043 67.9759289,26.7031755 C67.8649435,26.4785798 67.7457189,26.2568883 67.6264943,26.0356809 C67.5242326,25.8454521 67.4180937,25.6566755 67.3095315,25.4693511 C67.1956381,25.2723457 67.0822294,25.0748564 66.9615509,24.8807553 C66.8689822,24.7307021 66.7691438,24.5840372 66.6717286,24.4359202 C66.5747981,24.2873191 66.4793215,24.138234 66.3785137,23.9920532 C66.3407108,23.9378404 66.3004847,23.8845957 66.2626817,23.830867 C66.1909532,23.7301862 66.1192246,23.6295053 66.0465267,23.5293085 C65.9491115,23.3952287 65.8521809,23.2606649 65.7518578,23.1285213 C65.6306947,22.9692713 65.5056543,22.8129255 65.3801292,22.6560957 C65.2812601,22.5331489 65.1819063,22.4102021 65.0806139,22.2882234 C64.949273,22.1309096 64.8145396,21.9755319 64.6783522,21.8211223 C64.579483,21.7093085 64.4796446,21.5979787 64.3788368,21.487133 C64.233441,21.327883 64.0861066,21.1700851 63.9353796,21.0137394 C63.8360258,20.9106383 63.7342488,20.8089894 63.6329564,20.7073404 C63.474475,20.5480904 63.3145396,20.3898085 63.150727,20.2344309 C63.058643,20.1468191 62.9631664,20.0611436 62.8691438,19.9745 C62.8105008,19.9207713 62.7504039,19.8680106 62.6917609,19.8142819 C62.5696284,19.7039202 62.4504039,19.5925904 62.3258481,19.4841649 C62.2565428,19.4246277 62.1857835,19.3670266 62.1159935,19.3079734 C61.131664,18.4710638 60.0712439,17.6965957 58.9439418,16.99425 C58.9376414,16.9908617 58.9323102,16.9869894 58.9264943,16.983117 C58.8915994,16.9613351 58.8562197,16.9381011 58.8208401,16.9163191 C58.6434572,16.8069255 58.4612278,16.7033404 58.2804523,16.5978191 C58.2009693,16.5513511 58.1229402,16.5034309 58.0429725,16.4574468 C57.9756058,16.4192074 57.9096931,16.379516 57.8418417,16.3417606 C57.6726979,16.2468883 57.5001616,16.1563723 57.3276252,16.0653723 C57.241357,16.0193883 57.1565428,15.9719521 57.06979,15.9264521 C56.9932149,15.8862766 56.9166397,15.8461011 56.8386107,15.8068936 C56.6084006,15.6897553 56.3747981,15.5764894 56.1402262,15.4651596 C56.1101777,15.4511223 56.0810985,15.435633 56.0510501,15.4215957 C55.9720517,15.3843245 55.893538,15.3480213 55.8140549,15.311234 C55.5431341,15.1868351 55.2707593,15.0658245 54.9945073,14.9491702 C54.9232633,14.9186755 54.8510501,14.889633 54.7793215,14.8601064 C54.4904685,14.7410319 54.2006462,14.6248617 53.9059774,14.5145 C53.8589661,14.4965904 53.8114701,14.480133 53.7639742,14.4627074 C53.7508885,14.457867 53.7368336,14.4535106 53.723748,14.4486702 C52.4340872,13.9738245 51.0911147,13.5841702 49.706462,13.285516 C49.6483037,13.2729309 49.59063,13.2579255 49.5324717,13.2458245 C49.2770598,13.1920957 49.0182553,13.1456277 48.7599354,13.0981915 C48.6411955,13.0764096 48.5234249,13.0522074 48.4042003,13.0318777 C48.2956381,13.013 48.185622,12.9989628 48.0770598,12.9815372 C47.6306947,12.9128032 47.182391,12.8493936 46.7311793,12.7980851 C46.7021002,12.7946968 46.6735057,12.7913085 46.6444265,12.7879202 C46.1156704,12.728383 45.5835218,12.6804628 45.0479806,12.6460957 C44.7150242,12.62625 44.3830372,12.6059202 44.0471729,12.5967234 C43.7583199,12.5860745 43.4680129,12.58075 43.176252,12.5773617 L43.1718901,12.5773617 C43.0468498,12.5759096 42.922294,12.5715532 42.7977383,12.5715532 C42.1589661,12.5715532 41.5226171,12.5894628 40.8886914,12.6156011 L40.8872375,12.6156011 C40.7432956,12.6214096 40.5998384,12.6291543 40.4563813,12.6364149 C39.9004847,12.6644894 39.3455574,12.7012766 38.7930533,12.7491968 C38.7901454,12.7491968 38.7877221,12.7491968 38.7848142,12.7496809 C38.6670436,12.7598457 38.549273,12.7671064 38.4315024,12.7782394 C38.4106624,12.7801755 38.3903069,12.7835638 38.3699515,12.7855 C37.7675283,12.8431011 37.1675283,12.9128032 36.5709208,12.9946064 C36.555412,12.9965426 36.5403877,12.9989628 36.5243942,13.001383 C35.9142165,13.0856064 35.3074313,13.1814468 34.7040388,13.2884202 C34.7025848,13.2884202 34.7006462,13.2889043 34.6991922,13.2889043 C34.5116317,13.3223032 34.3240711,13.3532819 34.1374798,13.3891011 C33.566559,13.4980106 32.9995153,13.616117 32.4358643,13.7458404 L32.4353796,13.7458404 C32.4135703,13.7506809 32.3917609,13.7564894 32.3694669,13.7618138 C31.7747981,13.899766 31.1854604,14.0517553 30.5995153,14.2129415 C30.5147011,14.2361755 30.4303716,14.2603777 30.3465267,14.2836117 C29.7634895,14.4472181 29.1843296,14.6200213 28.6105008,14.8063777 C28.6071082,14.8073457 28.6037157,14.8083138 28.6008078,14.8092819 C28.5998384,14.8092819 28.5993538,14.809766 28.5993538,14.809766 C28.0027464,15.003383 27.4124394,15.2105532 26.8274637,15.4288564 C26.8129241,15.4341809 26.7974152,15.4395053 26.782391,15.4448298 C26.1886914,15.6665213 25.6012924,15.9007979 25.0201939,16.1466915 C25.0163166,16.1481436 25.0119548,16.1495957 25.0085622,16.1515319 C24.6004847,16.3243351 24.195315,16.5024628 23.793538,16.686883 C23.7552504,16.7043085 23.7174475,16.7227021 23.6796446,16.7401277 C23.4179321,16.8606543 23.1562197,16.9806968 22.8978998,17.1065479 C22.8964459,17.1070319 22.8954766,17.107516 22.8940226,17.108 C22.7210016,17.1922234 22.5499192,17.2803191 22.3783522,17.3674468 C22.1660743,17.4744202 21.9562197,17.5842979 21.7453958,17.6932074 C21.6053312,17.7667819 21.4652666,17.8393883 21.3261712,17.9144149 C21.0537964,18.0605957 20.7804523,18.2053245 20.5119548,18.3573138 C20.5100162,18.3582819 20.5075929,18.359734 20.5056543,18.3607021 L20.5051696,18.3607021 C14.6471729,21.6042713 9.55880452,26.2360745 6.18852989,32.2977394 C6.10516963,32.452633 6.02229402,32.6075266 5.93844911,32.7619362 C5.77802908,33.0610745 5.61760905,33.3602128 5.46591276,33.6666117 C5.45864297,33.6801649 5.45185784,33.693234 5.4450727,33.7067872 C5.41357027,33.7692287 5.38061389,33.8307021 5.34959612,33.8936277 C5.34620355,33.8999202 5.34329564,33.9062128 5.34038772,33.9129894 C5.32584814,33.943 5.31179321,33.9734947 5.29725363,34.0035053 C5.25169628,34.0988617 5.20662359,34.1947021 5.16203554,34.2895745 C5.02197092,34.5824202 4.88966074,34.8825266 4.75783522,35.1816649 C4.72390953,35.2586277 4.68707593,35.3331702 4.65411955,35.410133 C4.64394184,35.4343351 4.63231018,35.4570851 4.62213247,35.4812872 C4.49515347,35.7765532 4.37641357,36.0776277 4.25815832,36.3791862 C4.21647819,36.4847074 4.17092084,36.5873245 4.13021002,36.6933298 C4.12827141,36.6976862 4.12633279,36.7025266 4.12487884,36.706883 C4.06672052,36.8593564 4.01437803,37.0171543 3.95815832,37.1710798 C3.86268174,37.4334309 3.76429725,37.6943298 3.67463651,37.9610372 C3.67415186,37.9624894 3.67366721,37.9639415 3.67318255,37.9658777 C3.553958,38.3197128 3.44394184,38.6798404 3.3368336,39.0414202 C3.31502423,39.1140266 3.29030695,39.1842128 3.26898223,39.2573032 C3.26122779,39.2844096 3.253958,39.312 3.2457189,39.3395904 C3.13376414,39.7311809 3.02859451,40.1271277 2.93021002,40.5269468 C2.8822294,40.7191117 2.84151858,40.9146649 2.79789984,41.1082819 C2.73780291,41.3725691 2.67625202,41.6363723 2.62245557,41.9045319 C2.62197092,41.9079202 2.62100162,41.9108245 2.62051696,41.9142128 C2.57011309,42.1634947 2.52940226,42.417133 2.48529887,42.6693191 C2.45282714,42.8542234 2.4174475,43.0381596 2.38788368,43.224516 C2.3365105,43.5556011 2.29192246,43.8905585 2.25024233,44.2269681 C2.23909532,44.3160319 2.22552504,44.4041277 2.21486268,44.4936755 C2.16736672,44.9022074 2.12714055,45.3141277 2.09466882,45.7299202 C2.09321486,45.7454096 2.0917609,45.7604149 2.0907916,45.7759043 C2.05686591,46.2125106 2.03117932,46.6529894 2.01373183,47.0968564 C2.00840065,47.2362606 2.00016155,47.3742128 1.99628433,47.5145851 L1.99628433,47.5184574 C1.99386107,47.604617 1.99192246,47.6902926 1.98949919,47.7769362 C1.98852989,47.8151755 1.98707593,47.8534149 1.98659128,47.8916543 C1.98513732,47.9899149 1.98804523,48.0901117 1.98756058,48.1888564 C1.98465267,48.5610851 1.9822294,48.9333138 1.99240711,49.310383 L1.99240711,49.310867 C2.00452342,49.7920053 2.0273021,50.277016 2.06074313,50.7658989 C2.06704362,50.8549628 2.07673667,50.9449947 2.08352181,51.0345426 C2.10969305,51.3786968 2.14216478,51.7257553 2.17802908,52.0737819 C2.20226171,52.2964415 2.226979,52.5195851 2.25508885,52.7441809 C2.27495961,52.9058511 2.29919225,53.0689734 2.32148627,53.2320957 C2.40533118,53.8318245 2.50080775,54.4363936 2.61421648,55.0472553 C2.62827141,55.1222819 2.64038772,55.1968245 2.6549273,55.2723351 C2.65541195,55.2742713 2.65589661,55.2762074 2.65589661,55.2781436 C2.70193861,55.5148404 2.75137318,55.7525053 2.80129241,55.9906543 C2.89095315,56.4161277 2.98303716,56.8425691 3.08966074,57.2738511 C3.126979,57.4253564 3.16962843,57.5826702 3.21470113,57.7428883 C3.21567044,57.7462766 3.21712439,57.7501489 3.2180937,57.7540213 C3.23796446,57.8232394 3.25928918,57.8953617 3.28061389,57.966516 C3.31066236,58.0667128 3.34022617,58.1669096 3.37221325,58.2700106 C3.38432956,58.3092181 3.39644588,58.3479415 3.40904685,58.387633 C3.45945073,58.5430106 3.51324717,58.7027447 3.56946688,58.8644149 C3.63441034,59.0507713 3.70371567,59.241484 3.77738288,59.4355851 C3.7822294,59.4486543 3.78659128,59.4612394 3.7914378,59.4743085 L3.79192246,59.4747926 C3.83457189,59.5870904 3.88109855,59.7027766 3.92617124,59.8179787 C3.96591276,59.9186596 4.00468498,60.0188564 4.04684976,60.1219574 C4.05121163,60.1321223 4.05508885,60.1418032 4.05848142,60.151484 C4.15056543,60.3751117 4.24798061,60.6026117 4.35072698,60.8344681 C4.35315024,60.8402766 4.35605816,60.8460851 4.35848142,60.8518936 C4.4631664,61.0881064 4.5726979,61.3277074 4.68804523,61.5711809 C4.68949919,61.5740851 4.6904685,61.5765053 4.69192246,61.5794096 C4.79224556,61.7909362 4.89499192,62.0043989 5.00355412,62.22125 C5.00258481,62.2193138 5.00113086,62.2168936 5.00016155,62.2149574 C9.5815832,71.3938564 21.5336026,85.1125904 42.6213247,85.1125904 C68.0636511,85.1125904 85.3424879,64.6172606 85.3424879,42.6664149 C85.3327948,33.5862606 82.3231018,26.4200106 80.3166397,22.647383 L80.3263328,22.6488351 Z" id="path46" opacity="0.7"></path>
                    </g>
                </g>
            </g>
        </g>
    </g>
</svg>