<?xml version="1.0" encoding="UTF-8" standalone="no"?>
<svg width="122px" height="122px" viewBox="0 0 122 122" version="1.1" xmlns="http://www.w3.org/2000/svg" xmlns:xlink="http://www.w3.org/1999/xlink" xmlns:sketch="http://www.bohemiancoding.com/sketch/ns">
    <!-- Generator: Sketch 3.4 (15575) - http://www.bohemiancoding.com/sketch -->
    <title>hc-logo-sm-white-col</title>
    <desc>Created with Sketch.</desc>
    <defs>
        <linearGradient x1="0%" y1="100%" x2="80.6474337%" y2="0%" id="linearGradient-1">
            <stop stop-color="#FB8F58" offset="0%"></stop>
            <stop stop-color="#DE0866" offset="43.1301818%"></stop>
            <stop stop-color="#AC41EC" offset="100%"></stop>
        </linearGradient>
    </defs>
    <g id="Page-1" stroke="none" stroke-width="1" fill="none" fill-rule="evenodd" sketch:type="MSPage">
        <g id="Logo-Comp" sketch:type="MSArtboardGroup" transform="translate(-483.000000, -292.000000)">
            <g id="hc-logo-sm-white-col" sketch:type="MSLayerGroup" transform="translate(483.000000, 292.000000)">
                <path d="M72.682,27 L40,94.002 L49.06,94.002 L81.742,27 L72.682,27 Z" id="Fill-1" fill="url(#linearGradient-1)" sketch:type="MSShapeGroup"></path>
                <path d="M38.448,62.35 L38.448,41.326 C38.448,39.472 38.382,37.912 38.256,36.634 C38.124,35.356 37.866,34.324 37.482,33.538 C37.092,32.752 36.552,32.188 35.844,31.834 C35.142,31.48 34.218,31.306 33.072,31.306 C32.298,31.306 31.47,31.462 30.588,31.762 C29.712,32.068 28.824,32.482 27.918,33.01 C27.018,33.538 26.106,34.15 25.194,34.84 C24.282,35.53 23.4,36.25 22.56,37 L22.56,62.35 L15,62.35 L15,10 L22.56,10 L22.56,30.604 C23.352,29.806 24.246,29.032 25.23,28.282 C26.214,27.532 27.252,26.872 28.338,26.296 C29.43,25.726 30.558,25.264 31.716,24.928 C32.874,24.586 34.044,24.418 35.214,24.418 C37.254,24.418 38.964,24.712 40.344,25.294 C41.73,25.882 42.834,26.74 43.668,27.88 C44.502,29.014 45.096,30.412 45.462,32.062 C45.822,33.718 46.008,35.608 46.008,37.738 L46.008,62.35 L38.448,62.35 Z" id="Fill-5" fill="#FFFFFF" sketch:type="MSShapeGroup"></path>
                <path d="M100.635,92.004 C100.047,93.108 99.369,94.092 98.595,94.956 C97.821,95.826 96.921,96.558 95.889,97.152 C94.857,97.752 93.693,98.208 92.391,98.526 C91.089,98.844 89.631,99 88.011,99 C85.131,99 82.713,98.508 80.757,97.524 C78.795,96.54 77.217,95.184 76.011,93.462 C74.799,91.74 73.935,89.694 73.407,87.33 C72.879,84.96 72.615,82.392 72.615,79.626 C72.615,76.626 72.903,73.914 73.479,71.49 C74.049,69.066 74.955,67.002 76.185,65.304 C77.415,63.606 78.999,62.292 80.931,61.368 C82.863,60.438 85.203,59.976 87.945,59.976 C90.849,59.976 93.279,60.552 95.241,61.698 C97.197,62.85 98.841,64.62 100.179,67.008 L96.453,69.258 C95.961,68.346 95.433,67.554 94.869,66.882 C94.305,66.216 93.681,65.664 92.991,65.232 C92.295,64.8 91.527,64.47 90.687,64.248 C89.841,64.026 88.881,63.912 87.801,63.912 C84.123,63.912 81.453,65.25 79.785,67.92 C78.123,70.596 77.289,74.544 77.289,79.77 C77.289,82.068 77.475,84.15 77.835,86.028 C78.201,87.9 78.795,89.514 79.629,90.864 C80.463,92.208 81.561,93.252 82.935,93.99 C84.303,94.728 86.001,95.1 88.011,95.1 C89.163,95.1 90.177,94.974 91.053,94.728 C91.935,94.482 92.727,94.128 93.429,93.654 C94.131,93.186 94.761,92.622 95.325,91.95 C95.889,91.284 96.429,90.54 96.945,89.718 L100.635,92.004 Z" id="Fill-2" fill="#FFFFFF" sketch:type="MSShapeGroup"></path>
            </g>
        </g>
    </g>
</svg>