<svg xmlns="http://www.w3.org/2000/svg" viewBox="0 0 330.4688 113.6818"><defs><style>.cls-1{fill:#fff;}</style></defs><title>hc2017_logo_vertical_light</title><g id="Layer_2" data-name="Layer 2"><g id="Layer_1-2" data-name="Layer 1"><g id="Logo_Vertical_Light" data-name="Logo Vertical Light"><path class="cls-1" d="M11.4224,81.1909v-6.998H3.5493v6.998H0V64.52H3.5493v6.5488h7.873V64.52h3.5742V81.1909Z"/><path class="cls-1" d="M38.5225,81.1909l-1.0249-2.8242H30.3491l-1.05,2.8242H25.25L31.6987,64.52h4.4492l6.4233,16.6709ZM33.9233,68.0688l-2.5991,7.1738h5.1987Z"/><path class="cls-1" d="M51.2246,72.8676c0-5.123,3.874-8.623,8.873-8.623a7.6316,7.6316,0,0,1,6.9731,4.0742l-3.0493,1.5a4.518,4.518,0,0,0-3.9238-2.4248,5.48,5.48,0,0,0,0,10.9473,4.47,4.47,0,0,0,3.9238-2.4238l3.0493,1.4746a7.6775,7.6775,0,0,1-6.9731,4.0986C55.0986,81.4907,51.2246,77.9916,51.2246,72.8676Z"/><path class="cls-1" d="M87.8472,81.1909,82.7983,74.517l-1.3,1.55v5.124H77.9492V64.52h3.5493v7.4482L87.397,64.52h4.374l-6.6235,7.8232,7.0732,8.8477Z"/><path class="cls-1" d="M116.9492,72.8676c0-5.123,3.874-8.623,8.873-8.623a7.6316,7.6316,0,0,1,6.9731,4.0742l-3.0493,1.5a4.518,4.518,0,0,0-3.9238-2.4248,5.48,5.48,0,0,0,0,10.9473,4.47,4.47,0,0,0,3.9238-2.4238l3.0493,1.4746a7.6775,7.6775,0,0,1-6.9731,4.0986C120.8232,81.4907,116.9492,77.9916,116.9492,72.8676Z"/><path class="cls-1" d="M154.9966,81.1909l-1.0249-2.8242h-7.1484l-1.05,2.8242h-4.0488L148.1729,64.52h4.4492l6.4233,16.6709Zm-4.5991-13.1221-2.5991,7.1738h5.1987Z"/><path class="cls-1" d="M183.8457,81.1909V69.519l-4.6992,11.6719h-1.55L172.8975,69.519V81.1909h-3.5488V64.52h4.9736l4.05,10.0723L182.4209,64.52h4.998V81.1909Z"/><path class="cls-1" d="M199.4736,81.1909V64.52h8.7734c3.1738,0,4.7988,2.0244,4.7988,4.249a3.7036,3.7036,0,0,1-2.875,3.8242,4.0393,4.0393,0,0,1,3.1992,4.0986c0,2.499-1.6738,4.499-4.8486,4.499Zm9.9473-11.7969a1.7936,1.7936,0,0,0-1.9492-1.8252h-4.4492v3.624h4.4492A1.7741,1.7741,0,0,0,209.4209,69.394Zm.3252,6.7979a1.9479,1.9479,0,0,0-2.1494-1.9492h-4.5742v3.874h4.5742C208.9463,78.1166,209.7461,77.392,209.7461,76.1918Z"/><path class="cls-1" d="M234.2207,81.1909l-3.2744-5.9238h-2.6v5.9238h-3.5488V64.52h7.7979c3.4746,0,5.5986,2.2744,5.5986,5.374a4.7835,4.7835,0,0,1-3.6484,4.9482l3.749,6.3486Zm.35-11.2969a2.2632,2.2632,0,0,0-2.499-2.25h-3.7246v4.499h3.7246A2.263,2.263,0,0,0,234.57,69.894Z"/><path class="cls-1" d="M249.623,81.1909V64.52h3.55V81.1909Z"/><path class="cls-1" d="M265.2227,81.1909V64.52h6.5732c5.2236,0,8.8486,3.3242,8.8486,8.3477s-3.625,8.3232-8.8486,8.3232ZM277.02,72.8676a4.878,4.878,0,0,0-5.2236-5.2236h-3.0234V78.0668h3.0234A4.99,4.99,0,0,0,277.02,72.8676Z"/><path class="cls-1" d="M291.1221,72.8676c0-5.2734,3.999-8.623,8.873-8.623a7.795,7.795,0,0,1,6.8984,3.7246l-2.9492,1.6a4.7218,4.7218,0,0,0-3.9492-2.1748,5.48,5.48,0,0,0,0,10.9473,5.621,5.621,0,0,0,3.5488-1.2744v-1.999h-4.3984v-3.1h7.9482v6.3984a9.2551,9.2551,0,0,1-7.0986,3.1494C295.1211,81.5161,291.1221,78.1166,291.1221,72.8676Z"/><path class="cls-1" d="M318.6719,81.1909V64.52h11.7969v3.124h-8.2471v3.5244h8.0723v3.124h-8.0723v3.7744h8.2471v3.124Z"/><path class="cls-1" d="M84.6772,113.3038,80.5,108.4786H74.5044v4.8252h-1.53V100.7h8.4624c2.8086,0,4.8252,1.4043,4.8252,3.8887,0,2.1973-1.5845,3.5654-3.9072,3.835l4.3032,4.88Zm-3.3486-6.2295c2.0342,0,3.3848-.7744,3.3848-2.4854s-1.3506-2.4844-3.3848-2.4844H74.4863v4.97Z"/><path class="cls-1" d="M114.4136,111.9v1.4043H102.2241V100.7h12.0093v1.4043H103.7363v4.0869h8.8945v1.4043h-8.8945V111.9Z"/><path class="cls-1" d="M141.4312,109.8644l1.44.7207c-1.188,1.8906-3.3848,3.0967-6.4639,3.0967-4.6992,0-7.58-2.5928-7.58-6.68s2.8809-6.68,7.6343-6.68a7.2153,7.2153,0,0,1,6.41,3.0967l-1.44.72c-.99-1.6738-2.7905-2.4121-4.9873-2.4121-3.6553,0-6.0679,1.8-6.0679,5.2754s2.4126,5.2754,6.0679,5.2754C138.6406,112.2775,140.459,111.5577,141.4312,109.8644Z"/><path class="cls-1" d="M171.3833,100.7v6.6621c0,3.6729-2.3047,6.3193-6.644,6.3193s-6.6621-2.6465-6.6621-6.3193V100.7H159.59v6.5713c0,3.0977,1.8545,5.0059,5.1494,5.0059,3.2769,0,5.1313-1.9082,5.1313-5.0059V100.7Z"/><path class="cls-1" d="M199.6069,113.3038l-4.1768-4.8252h-5.9961v4.8252h-1.53V100.7h8.4619c2.81,0,4.8262,1.4043,4.8262,3.8887,0,2.1973-1.585,3.5654-3.9072,3.835l4.3027,4.88Zm-3.3486-6.2295c2.0342,0,3.3848-.7744,3.3848-2.4854s-1.3506-2.4844-3.3848-2.4844h-6.8428v4.97Z"/><path class="cls-1" d="M229.7573,109.6485c0,2.3232-2.3584,4.0332-6.4639,4.0332a11.0832,11.0832,0,0,1-7.3643-2.5928l1.0625-1.1338a9.1046,9.1046,0,0,0,6.3916,2.3223c3.043,0,4.8252-.9541,4.8252-2.5205,0-1.53-1.8545-1.9092-5.2568-2.1973-3.3672-.2881-6.5908-1.0254-6.5908-3.5107,0-2.377,2.9893-3.7266,6.3564-3.7266a9.693,9.693,0,0,1,6.4463,2.25l-1.1885,1.0088a7.3779,7.3779,0,0,0-5.1855-1.8545c-2.251-.0186-4.88.6123-4.88,2.2686,0,1.5664,2.377,1.8906,5.3477,2.124C227.0923,106.4259,229.7573,107.1642,229.7573,109.6485Z"/><path class="cls-1" d="M257.4946,111.9v1.4043H245.3052V100.7h12.01v1.4043H246.8179v4.0869h8.8945v1.4043h-8.8945V111.9Z"/><path class="cls-1" d="M180.0445,22.4679c.7189-.1477,1.4039-.3064,2.0506-.4757v7.2115l-1.0253.592-14.81,8.5506-1.0253.592-1.0253-.592-14.81-8.5506-1.0253-.592V21.9926c.17.0443.3413.0882.5171.1314q.7373.181,1.5335.344V28.02l14.81,8.5506,14.81-8.5506Zm-7.677-5.7941a4.32,4.32,0,0,1,3.3025,1.5345l1.7977-1.0379a6.38,6.38,0,1,0,0,7.6651L175.67,23.7976a4.3279,4.3279,0,1,1-3.3025-7.1238Zm9.7277-3.4552V9.7346l-1.0253-.592L166.26.592,165.2344,0l-1.0253.592-14.81,8.5506-1.0253.592v3.4841c-3.5088.9644-5.6392,2.2319-5.6392,3.62,0,1.9442,4.1758,3.6509,10.4656,4.62v5.6952h2.0506V21.74c2.1539.26,4.5032.4378,6.98.5182v4.8962h2.0506V14.851h-2.0506V20.219c-2.503-.0663-4.8582-.2248-6.98-.4477v-4.92H153.2v4.6756c-5.1-.6858-8.4149-1.7461-8.4149-2.6875,0-.718,1.3253-1.3842,3.5886-1.9342v2.21c.5509.1468,1.2264.3032,2.0506.4626v-6.659l14.81-8.5506,14.81,8.5506v6.69c.7853-.1573,1.4684-.32,2.0506-.4791V14.8885c2.2633.5153,3.5886,1.1133,3.5886,1.9507,0,1.0725-4.6995,2.4767-11.5174,3.07a2.1058,2.1058,0,1,0,.1326,1.9361c7.9117-.8474,13.4354-2.77,13.4354-5.006C187.7344,15.4505,185.604,14.1831,182.0951,13.2187Z"/></g></g></g></svg>