<svg xmlns="http://www.w3.org/2000/svg" viewBox="0 0 394.7862 38.9383"><defs><style>.cls-1{fill:#fff;}</style></defs><title>hc2017_logo_horizontal_light</title><g id="Layer_2" data-name="Layer 2"><g id="Layer_1-2" data-name="Layer 1"><g id="Logo_Horizontal_Dark" data-name="Logo Horizontal Dark"><path class="cls-1" d="M37.31,22.4679c.7189-.1477,1.4039-.3064,2.0506-.4757v7.2115l-1.0253.592-14.81,8.5506-1.0253.592-1.0253-.592-14.81-8.5506-1.0253-.592V21.9926c.17.0443.3413.0882.5171.1314q.7373.181,1.5335.344V28.02L22.5,36.57,37.31,28.02Zm-7.677-5.7941a4.32,4.32,0,0,1,3.3025,1.5345L34.7333,17.17a6.38,6.38,0,1,0,0,7.6651l-1.7977-1.0379a4.3279,4.3279,0,1,1-3.3025-7.1238Zm9.7277-3.4552V9.7346l-1.0253-.592L23.5253.592,22.5,0,21.4747.592,6.6646,9.1426l-1.0253.592v3.4841C2.13,14.1831,0,15.4505,0,16.8391c0,1.9442,4.1758,3.6509,10.4656,4.62v5.6952h2.0506V21.74c2.1539.26,4.5032.4378,6.98.5182v4.8962h2.0506V14.851H19.4962V20.219c-2.503-.0663-4.8582-.2248-6.98-.4477v-4.92H10.4656v4.6756c-5.1-.6858-8.4149-1.7461-8.4149-2.6875,0-.718,1.3253-1.3842,3.5886-1.9342v2.21c.5509.1468,1.2264.3032,2.0506.4626v-6.659L22.5,2.3679l14.81,8.5506v6.69c.7853-.1573,1.4684-.32,2.0506-.4791V14.8885c2.2633.5153,3.5886,1.1133,3.5886,1.9507,0,1.0725-4.6995,2.4767-11.5174,3.07a2.1058,2.1058,0,1,0,.1326,1.9361C39.4763,20.9977,45,19.0754,45,16.8391,45,15.4505,42.87,14.1831,39.3608,13.2187Z"/><path class="cls-1" d="M75.74,27.78v-6.998h-7.873V27.78H64.3175V11.1088h3.5493v6.5488H75.74V11.1088h3.5742V27.78Z"/><path class="cls-1" d="M102.84,27.78l-1.0249-2.8242H94.6666l-1.05,2.8242H89.568l6.4482-16.6709h4.4492L106.8888,27.78ZM98.2408,14.6576l-2.5991,7.1738H100.84Z"/><path class="cls-1" d="M115.5421,19.4564c0-5.123,3.874-8.623,8.873-8.623a7.6316,7.6316,0,0,1,6.9731,4.0742l-3.0493,1.5a4.518,4.518,0,0,0-3.9238-2.4248,5.1912,5.1912,0,0,0-5.2236,5.4736,5.1912,5.1912,0,0,0,5.2236,5.4736,4.47,4.47,0,0,0,3.9238-2.4238l3.0493,1.4746a7.6775,7.6775,0,0,1-6.9731,4.0986C119.4161,28.0795,115.5421,24.58,115.5421,19.4564Z"/><path class="cls-1" d="M152.1646,27.78l-5.0488-6.6738-1.3,1.55V27.78h-3.5493V11.1088h3.5493V18.557l5.8984-7.4482h4.374l-6.6235,7.8232,7.0732,8.8477Z"/><path class="cls-1" d="M181.2667,19.4564c0-5.123,3.874-8.623,8.873-8.623a7.6316,7.6316,0,0,1,6.9731,4.0742l-3.0493,1.5a4.518,4.518,0,0,0-3.9238-2.4248,5.1912,5.1912,0,0,0-5.2236,5.4736A5.1912,5.1912,0,0,0,190.14,24.93a4.47,4.47,0,0,0,3.9238-2.4238l3.0493,1.4746a7.6775,7.6775,0,0,1-6.9731,4.0986C185.1407,28.0795,181.2667,24.58,181.2667,19.4564Z"/><path class="cls-1" d="M219.3141,27.78l-1.0249-2.8242h-7.1484l-1.05,2.8242h-4.0488L212.49,11.1088H216.94L223.3629,27.78Zm-4.5991-13.1221-2.5991,7.1738h5.1987Z"/><path class="cls-1" d="M248.1632,27.78V16.1078L243.464,27.78h-1.55l-4.6992-11.6719V27.78h-3.5488V11.1088H238.64l4.05,10.0723,4.0488-10.0723h4.998V27.78Z"/><path class="cls-1" d="M263.7911,27.78V11.1088h8.7734c3.1738,0,4.7988,2.0244,4.7988,4.249a3.7036,3.7036,0,0,1-2.875,3.8242,4.0393,4.0393,0,0,1,3.1992,4.0986c0,2.499-1.6738,4.499-4.8486,4.499Zm9.9473-11.7969a1.7936,1.7936,0,0,0-1.9492-1.8252H267.34v3.624h4.4492A1.7741,1.7741,0,0,0,273.7384,15.9828Zm.3252,6.7979a1.9479,1.9479,0,0,0-2.1494-1.9492H267.34v3.874h4.5742C273.2638,24.7055,274.0636,23.9808,274.0636,22.7806Z"/><path class="cls-1" d="M298.5382,27.78l-3.2744-5.9238h-2.6V27.78h-3.5488V11.1088h7.7979c3.4746,0,5.5986,2.2744,5.5986,5.374a4.7835,4.7835,0,0,1-3.6484,4.9482l3.749,6.3486Zm.35-11.2969a2.2632,2.2632,0,0,0-2.499-2.25h-3.7246v4.499h3.7246A2.263,2.263,0,0,0,298.8878,16.4828Z"/><path class="cls-1" d="M313.9405,27.78V11.1088h3.55V27.78Z"/><path class="cls-1" d="M329.54,27.78V11.1088h6.5732c5.2236,0,8.8486,3.3242,8.8486,8.3477s-3.625,8.3232-8.8486,8.3232Zm11.7969-8.3232a4.878,4.878,0,0,0-5.2236-5.2236H333.09V24.6556h3.0234A4.99,4.99,0,0,0,341.337,19.4564Z"/><path class="cls-1" d="M355.44,19.4564c0-5.2734,3.999-8.623,8.873-8.623a7.795,7.795,0,0,1,6.8984,3.7246l-2.9492,1.6a4.7218,4.7218,0,0,0-3.9492-2.1748,5.1912,5.1912,0,0,0-5.2236,5.4736,5.1912,5.1912,0,0,0,5.2236,5.4736,5.621,5.621,0,0,0,3.5488-1.2744v-1.999H363.463v-3.1h7.9482v6.3984a9.2551,9.2551,0,0,1-7.0986,3.1494C359.4386,28.1049,355.44,24.7055,355.44,19.4564Z"/><path class="cls-1" d="M382.9894,27.78V11.1088h11.7969v3.124h-8.2471v3.5244h8.0723v3.124h-8.0723v3.7744h8.2471V27.78Z"/></g></g></g></svg>