<svg width="1214" height="386" viewBox="0 0 1214 386" xmlns="http://www.w3.org/2000/svg" xmlns:xlink="http://www.w3.org/1999/xlink"><title>Group 5</title><defs><path id="a" d="M.149 147.915h108.617V.458H.15z"/><path id="c" d="M93.859 110.332V.405H.219v109.927h93.64z"/><path id="e" d="M0 197.532h694.725V.12H0z"/></defs><g fill="none" fill-rule="evenodd"><path d="M237.07 385.246c132.825 0 207.024-52.144 226.785-95.48C458.652 187.328 368.2 0 235.375 0 102.551 0 13.578 156.566 0 289.766c23.785 54.199 104.246 95.48 237.07 95.48z" fill="#ABDEFF"/><path d="M232.62 353.744c110.732 0 177.077-31.73 199.808-75.244 0-29.715-89.767-65.5-200.5-65.5s-200.5 32.379-200.5 65.5c20.054 42.344 90.458 75.244 201.191 75.244z" fill="#15C66C"/><g transform="translate(98.428 28)"><path fill="#A8A382" d="M46 165l48-18v105l-48 18zm172-47l48-12v141l-48 21z"/><path fill="#F8F3C9" d="M218 118l48-12-47.459-12-43 11z"/><path fill="#CAC59D" d="M218 118l-42-13v148l42 15zM46 165L0 122v124l46 24z"/><path fill="#F8F3C9" d="M46 165l48-18-47-44.07-47 19z"/><path fill="#5D98B0" d="M132 76l56.924-14.406L202 276l-70 25z"/><path fill="#87C6DE" d="M132 76L75.924 61.594 63 276l69 25z"/><path fill="#DEF4FF" opacity=".9" d="M132 76L75.924 61.594 132 46.152l56.86 15.442z"/><rect fill="#5D98B0" x="115" y="41" width="6" height="27" rx="3"/><rect fill="#5D98B0" x="117" y="12" width="2" height="47" rx="1"/><rect fill="#5D98B0" x="143" y="29" width="6" height="27" rx="3"/><rect fill="#5D98B0" x="145" width="2" height="47" rx="1"/></g><path fill="#000" d="M519 139.492v150.534h28.973v-65.365h63.863v65.368h28.94v-150.51h-29.022v59.226h-63.858v-59.253z"/><g transform="translate(519 132.348)"><g transform="translate(170.94 49.617)"><mask id="b" fill="#fff"><use xlink:href="#a"/></mask><path d="M31.555 38.49c.077.732.13 2.18.395 3.587.964 5.146 3.37 9.39 7.904 12.25 3.978 2.509 8.362 3.137 12.91 2.532 5.367-.713 9.68-3.258 12.545-7.971C68.51 43.62 69.059 37.92 67.854 32c-.889-4.37-3.021-8.054-6.54-10.863-4.066-3.248-8.789-4.232-13.834-3.686-4.815.522-8.794 2.69-11.731 6.63-3.035 4.072-4.13 8.724-4.194 14.409m21.702 93.877c3.332.084 8.331-.319 13.235-1.525 4.693-1.156 9.14-2.82 12.538-6.52 4.095-4.459 3.015-10.74-2.36-13.503-4.084-2.1-8.528-2.931-13.002-3.552-9.642-1.336-19.368-2.095-28.902-4.184-.378-.083-.914-.06-1.202.15-3.942 2.897-7.619 6.027-9.699 10.646-1.87 4.153-1.25 8.612 1.913 11.763 1.926 1.918 4.31 3.155 6.873 4.048 6.123 2.133 12.475 2.626 20.606 2.677M27.11 68.63c-3.927-1.996-7.387-4.265-10.332-7.252-5.454-5.532-8.521-12.17-9.238-19.903-.724-7.82.628-15.22 4.636-22.02 4.313-7.317 10.64-12.313 18.48-15.404C41.417-.19 52.429-.532 63.574 2.262a40.044 40.044 0 0 1 15.26 7.512c.545.43.962.463 1.565.247 7.852-2.81 15.71-5.602 23.567-8.397.364-.13.732-.249 1.303-.442l3.498 20.927-19.07 1.311c.485 1.429 1.011 2.71 1.355 4.037 2.865 11.07 1.38 21.409-5.587 30.643-4.253 5.64-9.963 9.446-16.536 11.964-8.476 3.248-17.223 4.009-26.186 2.86-.54-.07-1.268.127-1.677.474-1.003.847-2.001 1.76-2.763 2.819-1.67 2.322-.911 4.817 1.88 5.605 3.584 1.013 7.234 1.917 10.916 2.442 6.747.96 13.548 1.53 20.308 2.411 6.31.823 12.517 2.174 18.436 4.582 4.853 1.974 9.272 4.625 12.32 9.034 3.499 5.058 4.108 10.747 3.191 16.659-1.5 9.678-7.253 16.4-15.296 21.387-7.764 4.813-16.364 7.265-25.345 8.51-12.826 1.778-25.58 1.36-38.228-1.431-5.922-1.307-11.604-3.306-16.64-6.794-4.725-3.272-8.25-7.425-9.332-13.276-1.245-6.736.768-12.521 5.168-17.592 3.989-4.597 8.996-7.883 14.118-10.85-1.238-1.424-2.654-2.74-3.694-4.306-3.216-4.84-2.922-10.224.644-15.106 2.456-3.362 5.71-5.82 9.15-8.066.35-.228.698-.458 1.212-.795" fill="#000" mask="url(#b)"/></g><path d="M290.515 4.253L316.58.121v65.466c.821-.71 1.414-1.215 2-1.728 4.775-4.171 9.865-7.872 15.744-10.359 9.732-4.116 19.627-4.737 29.557-.885 7.325 2.842 11.898 8.393 14.415 15.73 1.428 4.162 2.018 8.47 2.022 12.846.024 24.965.012 49.93.012 74.894v1.591h-26.19v-1.462c0-22.507.005-45.014-.005-67.521-.001-3.018-.389-5.972-1.705-8.744-1.848-3.892-5.004-5.959-9.192-6.507-5.763-.754-10.917 1.017-15.747 3.98-3.88 2.38-7.245 5.393-10.369 8.676-.339.357-.467 1.042-.468 1.575-.023 17.241-.019 34.482-.019 51.723v18.296h-26.12V4.253z" fill="#000"/><g transform="translate(600.866 49.617)"><mask id="d" fill="#fff"><use xlink:href="#c"/></mask><path d="M26.643 44.095h41.773c0-.389.036-.698-.005-.997-.544-3.97-1.275-7.896-2.78-11.635-2.963-7.364-7.964-12.132-16.236-12.778-5.694-.444-10.662 1.21-14.615 5.324-5.325 5.542-7.16 12.571-8.137 20.086m67.065 16.478h-67.54c.218 1.823.362 3.513.628 5.184.894 5.606 2.67 10.86 6.315 15.34 4.016 4.939 9.34 7.562 15.516 8.46 8.63 1.254 16.985-.043 25.077-3.178 5.84-2.263 11.199-5.415 16.339-8.96.185-.127.383-.235.723-.443l.863 5.727c.69 4.575 1.37 9.153 2.084 13.724.116.747-.083 1.188-.733 1.62-9.345 6.227-19.548 10.16-30.705 11.578-9.65 1.226-19.211.989-28.611-1.764-10.567-3.094-19.015-9.083-24.96-18.426-3.42-5.373-5.6-11.247-6.846-17.475-2.174-10.87-2.232-21.747.098-32.594C3.65 31.48 6.759 24.2 11.747 17.791c4.356-5.598 9.689-9.987 16.172-12.91C40.024-.58 52.43-.924 64.926 3.188c9.285 3.054 16.228 9.142 21.15 17.57 4.397 7.531 6.71 15.722 7.426 24.335.402 4.84.263 9.723.357 14.587.005.26-.086.522-.151.892" fill="#000" mask="url(#d)"/></g><path d="M512.375 127.895c3.396 1.807 6.675 3.735 10.104 5.344 9.65 4.527 19.744 7.21 30.506 6.77 3.447-.142 6.78-.8 9.915-2.368 7.058-3.527 6.715-13.294 1.148-16.865-3.23-2.07-6.77-3.328-10.391-4.393-6.014-1.77-12.102-3.3-18.078-5.185-5.195-1.64-10.167-3.834-14.621-7.087-5.651-4.128-8.917-9.645-9.907-16.533-.74-5.145-.668-10.245.887-15.268 2.215-7.158 6.736-12.432 13.132-16.184 5.856-3.435 12.26-5.07 18.975-5.534 13.29-.916 26.197.916 38.676 5.62 1.162.439 2.284.984 3.565 1.541l-3.468 21.757c-.694-.341-1.308-.626-1.907-.939-7.405-3.874-15.189-6.646-23.465-7.924-4.99-.77-10.01-1.143-14.968.157-3.33.873-6.132 2.524-7.262 6.078-1.242 3.903.152 7.573 3.66 9.797 3.565 2.259 7.548 3.479 11.543 4.658 5.64 1.666 11.338 3.15 16.928 4.968 5.257 1.708 10.298 3.95 14.79 7.278 5.843 4.33 9.026 10.163 9.897 17.31.667 5.467.521 10.892-1.076 16.21-2.32 7.72-7.231 13.281-14.29 17.038-6.3 3.353-13.118 4.748-20.153 5.317-12.73 1.03-25.032-1.018-36.99-5.295-3.213-1.15-6.288-2.686-9.435-4.025-.898-.382-1.245-.889-1.065-1.954 1.11-6.606 2.138-13.225 3.199-19.839.029-.18.117-.353.15-.45m-52.142-51.82c-4.783.41-9.313 1.272-13.686 2.878-9.397 3.45-17.119 9.118-22.896 17.332a3.943 3.943 0 0 0-.675 2.127c-.036 19.229-.028 38.457-.028 57.686v1.583h-26.108V52.366h22.169l3.279 21.073c7.755-13.203 17.945-22.309 33.804-23.329l4.141 25.965" fill="#000"/><mask id="f" fill="#fff"><use xlink:href="#e"/></mask><path fill="#000" mask="url(#f)" d="M137.773 157.689h25.984V52.344h-25.984zm333.644-.004h25.978V52.348h-25.978zM485.28 34.63c-6.513-.109-11.618-2.327-14.65-7.968-4.857-9.034.792-20.2 10.956-21.91 7.43-1.25 14.206 1.95 17.152 8.503 3.857 8.578-.193 18.619-10.408 20.944-1.093.25-2.228.318-3.05.43M166.457 19.624c.197 8.123-6.417 14.781-14.86 14.959-9.285.195-16.256-5.96-16.345-14.555-.092-8.841 6.332-15.135 14.66-15.48 9.57-.395 16.322 5.896 16.545 15.076"/></g></g></svg>