<svg xmlns="http://www.w3.org/2000/svg" width="1042.525" height="483.688"><path d="M386.418 128.056H25.766V61.184h360.651v66.872zM0 35.42v118.394h412.18V35.42H0" fill="#36ae7c"/><path d="M560.58-.005v76.55h-20.074V46.25H510.96v30.296h-20.074V-.004h20.074v29.05h29.546V-.005h20.074M603.36 16.826h-11.596v19.2h11.595c7.23 0 10.47-3.866 10.47-9.6 0-5.86-3.24-9.6-10.47-9.6zm-11.596 35.908v23.812H571.94V-.004h33.536c16.584 0 27.806 9.35 27.806 26.43 0 16.957-11.222 26.308-27.806 26.308h-13.712M696.63-.005V17.2H661.59v11.97h32.043V46h-32.042v13.216h35.036v17.33h-54.736V-.004h54.735M801.242-.005v76.55H781.17V46.25H751.62v30.296H731.55V-.004h20.072v29.05h29.547V-.005h20.072M842.896 57.595c-1.242-2.37-4.363-3.865-7.85-3.865-3.866 0-7.73 1.62-7.73 5.36 0 3.866 3.864 5.488 7.73 5.488 3.486 0 6.608-1.497 7.85-3.74v-3.243zm0-14.837c0-4.362-3.986-7.48-11.966-7.48-5.364 0-10.85 1.372-15.336 3.99v-15.71c4.614-2.493 12.094-4.364 20.074-4.364 16.58 0 26.058 7.855 26.058 22.692v34.66h-18.83V73.68c-1.87 1.87-7.228 3.864-13.215 3.864-11.094 0-20.572-6.234-20.572-18.078 0-10.847 9.478-17.83 21.572-17.83 4.738 0 9.974 1.497 12.216 3.118v-1.996M887.044 76.546L865.72 20.44h19.95l10.724 32.17 10.473-32.17h19.202l-21.446 56.106h-17.58M945.9 42.01h16.83c-.494-4.735-3.365-7.98-8.1-7.98-4.238 0-7.36 2.87-8.73 7.98zm-.25 10.974c1.62 6.732 7.107 9.476 14.336 9.476 5.986 0 10.6-1.125 16.21-4.49v14.838c-4.365 3.238-11.216 4.986-19.325 4.986-17.95 0-30.173-10.848-30.173-28.925 0-17.582 11.723-29.676 27.182-29.676 17.457 0 26.31 11.347 26.31 28.054v5.736h-34.54M988.046 20.44h19.574v4.865c3.12-3.493 8.607-6.11 15.088-6.11 12.472 0 19.823 8.104 19.823 20.573v36.778h-19.445V44.504c0-4.61-2.37-7.98-7.357-7.98-3.865 0-7.108 2.244-8.108 6.11v33.912h-19.574V20.44M524.3 119.296c-14.71 0-24.688 12.59-24.688 30.546 0 17.953 9.977 30.547 24.688 30.547 14.835 0 24.81-12.595 24.81-30.548 0-17.955-9.975-30.546-24.81-30.546zm0 69.944c-20.073 0-34.535-16.334-34.535-39.398 0-23.19 14.463-39.4 34.535-39.4 20.196 0 34.66 16.21 34.66 39.4 0 23.064-14.464 39.398-34.66 39.398M575.18 132.762h9.35v6.98c3.24-4.362 9.228-8.105 16.333-8.105 12.593 0 19.45 8.104 19.45 20.2v36.282h-9.476V153.33c0-7.73-3.863-13.09-12.218-13.09-6.484 0-12.095 4.364-14.09 10.347v37.53h-9.35V132.76M664.586 179.267c17.33 0 27.553-11.472 27.553-29.425 0-17.955-10.224-29.55-27.554-29.55H650v58.975h14.586zm-24.44-67.7h24.564c22.442 0 37.155 14.96 37.155 38.275 0 23.314-14.713 38.277-37.155 38.277h-24.563v-76.553M724.44 154.704h28.55c-.374-8.104-4.49-15.088-13.465-15.088-7.354 0-13.34 4.865-15.086 15.088zm-.5 7.357c.374 12.842 8.478 18.95 18.58 18.95 6.23 0 10.72-1.496 15.708-5.236v8.605c-4.49 3.49-10.223 4.86-16.83 4.86-15.96 0-26.683-10.848-26.683-28.303 0-17.206 9.973-29.3 24.685-29.3 14.963 0 22.692 10.848 22.692 27.057v3.367h-38.15M834.168 131.637c11.216 0 17.452 7.858 17.452 19.827v36.655h-9.474v-35.163c0-7.73-3.37-12.84-10.478-12.84-5.608 0-10.473 3.864-12.217 9.85v38.152h-9.35v-35.163c0-7.73-3.364-12.84-10.473-12.84-5.607 0-10.472 3.864-12.214 9.85v38.152h-9.352V132.76h9.353v6.483c2.742-4.365 8.1-7.608 14.958-7.608 6.98 0 12.345 3.618 14.96 8.854 3.494-4.985 9.1-8.853 16.837-8.853M901.51 168.67c-1.5-4.115-6.988-6.86-12.845-6.86-6.736 0-13.216 2.995-13.216 9.603 0 6.73 6.48 9.847 13.215 9.847 5.857 0 11.344-2.742 12.844-6.857v-5.733zm0-17.33c0-6.86-5.116-11.1-13.218-11.1-6.113 0-11.1 1.872-15.715 4.862v-8.85c3.744-2.618 10.352-4.614 17.21-4.614 13.093 0 20.823 7.232 20.823 18.95v37.53h-9.1v-4.114c-2.123 2.244-7.86 5.11-14.345 5.11-11.344 0-20.567-6.73-20.567-17.7 0-10.35 9.223-17.33 21.067-17.33 5.736 0 11.473 2.366 13.844 4.485v-7.23M929.82 132.762h9.35v6.98c3.236-4.362 9.223-8.105 16.33-8.105 12.594 0 19.453 8.104 19.453 20.2v36.282h-9.48V153.33c0-7.73-3.865-13.09-12.215-13.09-6.487 0-12.095 4.364-14.088 10.347v37.53h-9.35V132.76M1030.565 149.217c-2.865-5.732-8.35-9.1-14.21-9.1-10.6 0-16.83 8.604-16.83 20.323 0 11.72 6.23 20.324 16.83 20.324 5.86 0 11.345-3.368 14.21-9.104v-22.443zm0 32.418c-2.744 3.99-8.723 7.605-15.58 7.605-16.21 0-24.94-13.09-24.94-28.8 0-15.584 8.73-28.803 24.94-28.803 6.858 0 12.836 3.618 15.58 7.608v-32.168h9.48v81.042h-9.48v-6.485" fill="#fff"/></svg>