<svg xmlns="http://www.w3.org/2000/svg" width="1042.531" height="189.245"><path d="M386.418 128.06H25.766V61.19h360.65v66.87zM0 35.426V153.82h412.18V35.424H0" fill="#ffffff"/><path d="M560.58 0v76.55h-20.074V46.255H510.96V76.55h-20.074V0h20.074v29.05h29.546V0h20.074m42.78 16.83h-11.596v19.2h11.595c7.23 0 10.47-3.865 10.47-9.6 0-5.86-3.24-9.6-10.47-9.6zm-11.596 35.91v23.81H571.94V0h33.536c16.584 0 27.806 9.35 27.806 26.43 0 16.958-11.222 26.31-27.806 26.31h-13.712M696.63 0v17.205h-35.04v11.97h32.043v16.83H661.59V59.22h35.037v17.33H641.89V0h54.736m104.616 0v76.55H781.17V46.255h-29.55V76.55h-20.07V0h20.072v29.05h29.547V0h20.07m41.656 57.6c-1.242-2.37-4.363-3.865-7.85-3.865-3.866 0-7.73 1.62-7.73 5.36 0 3.866 3.864 5.488 7.73 5.488 3.486 0 6.608-1.497 7.85-3.74V57.6zm0-14.837c0-4.362-3.986-7.48-11.966-7.48-5.364 0-10.85 1.372-15.336 3.99v-15.71c4.614-2.493 12.094-4.364 20.074-4.364 16.58 0 26.058 7.854 26.058 22.69v34.66h-18.83v-2.865c-1.87 1.87-7.228 3.864-13.215 3.864-11.093 0-20.57-6.235-20.57-18.08 0-10.846 9.477-17.83 21.57-17.83 4.74 0 9.975 1.498 12.217 3.12v-1.997m44.147 33.788L865.72 20.446h19.95l10.724 32.17 10.473-32.17h19.202L904.622 76.55h-17.58M945.9 42.016h16.83c-.494-4.735-3.365-7.98-8.1-7.98-4.238 0-7.36 2.87-8.73 7.98zm-.25 10.974c1.62 6.73 7.107 9.475 14.336 9.475 5.986 0 10.6-1.125 16.21-4.49v14.838C971.83 76.05 964.98 77.8 956.87 77.8c-17.95 0-30.172-10.85-30.172-28.926 0-17.582 11.723-29.676 27.182-29.676 17.457 0 26.31 11.347 26.31 28.054v5.736h-34.54m42.396-32.543h19.574v4.865c3.12-3.493 8.607-6.11 15.088-6.11 12.472 0 19.823 8.104 19.823 20.573V76.55h-19.444V44.51c0-4.61-2.37-7.98-7.357-7.98-3.866 0-7.11 2.243-8.11 6.11v33.91h-19.573V20.446M524.3 119.3c-14.71 0-24.688 12.59-24.688 30.547 0 17.953 9.977 30.547 24.688 30.547 14.835 0 24.81-12.595 24.81-30.548 0-17.955-9.975-30.546-24.81-30.546zm0 69.945c-20.073 0-34.535-16.334-34.535-39.398 0-23.19 14.463-39.4 34.535-39.4 20.196 0 34.66 16.21 34.66 39.4 0 23.064-14.464 39.398-34.66 39.398m50.88-56.478h9.35v6.98c3.24-4.362 9.228-8.105 16.333-8.105 12.593 0 19.45 8.104 19.45 20.2v36.282h-9.476v-34.79c0-7.73-3.863-13.09-12.218-13.09-6.485 0-12.096 4.365-14.09 10.348v37.53h-9.35v-55.357m89.406 46.507c17.33 0 27.553-11.472 27.553-29.425 0-17.955-10.225-29.55-27.555-29.55H650v58.975h14.586zm-24.44-67.7h24.564c22.442 0 37.155 14.96 37.155 38.275 0 23.314-14.713 38.277-37.155 38.277h-24.563V111.57m84.293 43.14h28.55c-.374-8.105-4.49-15.09-13.465-15.09-7.354 0-13.34 4.866-15.086 15.09zm-.5 7.356c.374 12.842 8.478 18.95 18.58 18.95 6.23 0 10.72-1.496 15.708-5.236v8.605c-4.49 3.49-10.223 4.86-16.83 4.86-15.96 0-26.683-10.848-26.683-28.303 0-17.206 9.973-29.3 24.685-29.3 14.963 0 22.692 10.848 22.692 27.057v3.366h-38.15m110.226-30.424c11.216 0 17.452 7.858 17.452 19.827v36.654h-9.474V152.96c0-7.73-3.37-12.84-10.478-12.84-5.608 0-10.473 3.865-12.217 9.85v38.153h-9.35V152.96c0-7.73-3.363-12.84-10.472-12.84-5.607 0-10.472 3.864-12.214 9.85v38.152h-9.352v-55.357h9.353v6.483c2.742-4.365 8.1-7.608 14.958-7.608 6.98 0 12.345 3.618 14.96 8.854 3.494-4.985 9.1-8.853 16.837-8.853m67.34 37.035c-1.5-4.115-6.988-6.86-12.845-6.86-6.736 0-13.216 2.995-13.216 9.603 0 6.73 6.48 9.847 13.214 9.847 5.857 0 11.344-2.742 12.844-6.857v-5.733zm0-17.33c0-6.86-5.116-11.1-13.218-11.1-6.113 0-11.1 1.872-15.715 4.862v-8.85c3.744-2.618 10.352-4.614 17.21-4.614 13.093 0 20.823 7.232 20.823 18.95v37.53h-9.1v-4.114c-2.123 2.243-7.86 5.11-14.345 5.11-11.344 0-20.567-6.73-20.567-17.7 0-10.35 9.223-17.33 21.067-17.33 5.736 0 11.473 2.365 13.844 4.484v-7.23m28.31-18.577h9.35v6.98c3.236-4.362 9.223-8.105 16.33-8.105 12.594 0 19.453 8.104 19.453 20.2v36.282h-9.48v-34.79c0-7.73-3.865-13.09-12.215-13.09-6.487 0-12.095 4.365-14.088 10.348v37.53h-9.35v-55.357m100.745 16.457c-2.865-5.732-8.35-9.1-14.21-9.1-10.6 0-16.83 8.604-16.83 20.323 0 11.72 6.23 20.324 16.83 20.324 5.86 0 11.345-3.37 14.21-9.105v-22.443zm0 32.418c-2.744 3.99-8.723 7.605-15.58 7.605-16.21 0-24.94-13.09-24.94-28.8 0-15.584 8.73-28.803 24.94-28.803 6.858 0 12.836 3.618 15.58 7.608v-32.168h9.48v81.042h-9.48v-6.485" fill="#fff"/></svg>
