<svg width="200" height="35" viewBox="0 0 200 35" version="1.1" xmlns="http://www.w3.org/2000/svg" xmlns:xlink="http://www.w3.org/1999/xlink" xmlns:figma="http://www.figma.com/figma/ns">
<title>improbable-logo</title>
<desc>Created using Figma</desc>
<g id="Canvas" transform="translate(0 -291)" figma:type="canvas">
<g id="improbable-logo" style="mix-blend-mode:normal;" figma:type="frame">
<g id="Group" style="mix-blend-mode:normal;" figma:type="frame">
<g id="Group" style="mix-blend-mode:normal;" figma:type="frame">
<g id="Group" style="mix-blend-mode:normal;" figma:type="frame">
<g id="Vector" style="mix-blend-mode:normal;" figma:type="vector">
<use xlink:href="#path0_fill" transform="translate(47.343 299.298)" style="mix-blend-mode:normal;"/>
</g>
<g id="Vector" style="mix-blend-mode:normal;" figma:type="vector">
<use xlink:href="#path1_fill" transform="translate(55.0725 299.298)" style="mix-blend-mode:normal;"/>
</g>
<g id="Vector" style="mix-blend-mode:normal;" figma:type="vector">
<use xlink:href="#path2_fill" transform="translate(75.5234 299.298)" style="mix-blend-mode:normal;"/>
</g>
<g id="Vector" style="mix-blend-mode:normal;" figma:type="vector">
<use xlink:href="#path3_fill" transform="translate(91.4654 299.298)" style="mix-blend-mode:normal;"/>
</g>
<g id="Vector" style="mix-blend-mode:normal;" figma:type="vector">
<use xlink:href="#path4_fill" transform="translate(107.311 299.107)" style="mix-blend-mode:normal;"/>
</g>
<g id="Vector" style="mix-blend-mode:normal;" figma:type="vector">
<use xlink:href="#path5_fill" transform="translate(124.155 299.298)" style="mix-blend-mode:normal;"/>
</g>
<g id="Vector" style="mix-blend-mode:normal;" figma:type="vector">
<use xlink:href="#path6_fill" transform="translate(138.841 299.298)" style="mix-blend-mode:normal;"/>
</g>
<g id="Vector" style="mix-blend-mode:normal;" figma:type="vector">
<use xlink:href="#path7_fill" transform="translate(157.005 299.298)" style="mix-blend-mode:normal;"/>
</g>
<g id="Vector" style="mix-blend-mode:normal;" figma:type="vector">
<use xlink:href="#path8_fill" transform="translate(173.591 299.298)" style="mix-blend-mode:normal;"/>
</g>
<g id="Vector" style="mix-blend-mode:normal;" figma:type="vector">
<use xlink:href="#path9_fill" transform="translate(188.084 299.298)" style="mix-blend-mode:normal;"/>
</g>
</g>
</g>
<g id="improbable-emblem-logo" style="mix-blend-mode:normal;" figma:type="frame">
<g id="Vector" style="mix-blend-mode:normal;" figma:type="vector">
<use xlink:href="#path10_fill" transform="translate(0 291)" style="mix-blend-mode:normal;"/>
</g>
<g id="Vector" style="mix-blend-mode:normal;" figma:type="vector">
<use xlink:href="#path11_fill" transform="translate(15.62 301.692)" style="mix-blend-mode:normal;"/>
</g>
<g id="Vector" style="mix-blend-mode:normal;" figma:type="vector">
<use xlink:href="#path12_fill" transform="translate(25.2496 295.771)" style="mix-blend-mode:normal;"/>
</g>
</g>
</g>
</g>
</g>
<defs>
<path id="path0_fill" d="M 0 17.8729L 0 0L 3.54267 0L 3.54267 17.8729L 0 17.8729Z"/>
<path id="path1_fill" d="M 12.7214 17.8729L 12.7214 7.4045L 9.29147 14.2026L 6.92432 14.2026L 3.38164 7.4045L 3.38164 17.8729L 0 17.8729L 0 0L 3.39775 0L 8.09984 9.63861L 12.7697 0L 16.2641 0L 16.2641 17.8729L 12.7214 17.8729Z"/>
<path id="path2_fill" d="M 6.97262 11.011L 3.54267 11.011L 3.54267 17.8729L 0 17.8729L 0 0L 6.97262 0C 10.6924 0 12.9147 2.47348 12.9147 5.5055C 12.9147 8.53751 10.6763 11.011 6.97262 11.011ZM 6.79549 3.03201L 3.54267 3.03201L 3.54267 7.97898L 6.79549 7.97898C 8.3897 7.97898 9.40419 6.97363 9.40419 5.52146C 9.38809 4.06928 8.3897 3.03201 6.79549 3.03201Z"/>
<path id="path3_fill" d="M 9.48471 17.8729L 5.95813 10.6918L 3.38164 10.6918L 3.38164 17.8729L 0 17.8729L 0 0L 6.97262 0C 10.6441 0 12.818 2.45753 12.818 5.44167C 12.818 7.94707 11.2721 9.5269 9.53301 10.1493L 13.5588 17.8729L 9.48471 17.8729ZM 6.74719 3.03201L 3.38164 3.03201L 3.38164 7.8194L 6.74719 7.8194C 8.29308 7.8194 9.30757 6.79809 9.30757 5.42571C 9.30757 4.05332 8.29308 3.03201 6.74719 3.03201Z"/>
<path id="path4_fill" d="M 11.4977 16.1814C 10.2417 17.4261 8.69578 18.1282 6.65069 18.1282C 4.6056 18.1282 3.0436 17.4261 1.77146 16.1814C -0.0481825 14.3781 0.000126743 12.144 0.000126743 9.06412C 0.000126743 5.98424 -0.0481825 3.75012 1.77146 1.94687C 3.0436 0.70215 4.6056 -1.2175e-07 6.65069 -1.2175e-07C 8.69578 -1.2175e-07 10.2417 0.70215 11.4977 1.94687C 13.3174 3.75012 13.2852 5.98424 13.2852 9.06412C 13.3013 12.16 13.3174 14.3781 11.4977 16.1814ZM 8.90512 4.06928C 8.40592 3.4948 7.61687 3.1118 6.65069 3.1118C 5.6845 3.1118 4.87935 3.4948 4.38015 4.06928C 3.70382 4.81931 3.52669 5.64912 3.52669 9.08008C 3.52669 12.511 3.70382 13.3409 4.38015 14.0909C 4.87935 14.6654 5.70061 15.0484 6.65069 15.0484C 7.61687 15.0484 8.38982 14.6654 8.90512 14.0909C 9.58145 13.3409 9.79078 12.511 9.79078 9.08008C 9.79078 5.63316 9.58145 4.81931 8.90512 4.06928Z"/>
<path id="path5_fill" d="M 7.56844 17.8729L 0 17.8729L 0 0L 7.27859 0C 10.7891 0 12.8341 1.93091 12.8341 4.99484C 12.8341 6.97363 11.5137 8.25027 10.6119 8.66517C 11.7069 9.15987 13.0918 10.3248 13.0918 12.7025C 13.0918 16.0378 10.7891 17.8729 7.56844 17.8729ZM 6.98873 3.03201L 3.54267 3.03201L 3.54267 7.18108L 6.98873 7.18108C 8.48632 7.18108 9.30757 6.33531 9.30757 5.10655C 9.32367 3.87779 8.48632 3.03201 6.98873 3.03201ZM 7.23028 10.3727L 3.54267 10.3727L 3.54267 14.6813L 7.23028 14.6813C 8.82448 14.6813 9.58132 13.7238 9.58132 12.511C 9.58132 11.3142 8.80838 10.3727 7.23028 10.3727Z"/>
<path id="path6_fill" d="M 12.2222 17.8729L 11.1594 14.6813L 4.7665 14.6813L 3.6715 17.8729L 1.96571e-06 17.8729L 6.57005 0L 9.32367 0L 15.8937 17.8729L 12.2222 17.8729ZM 8.03542 5.15442L 5.7488 11.6493L 10.2254 11.6493L 8.03542 5.15442Z"/>
<path id="path7_fill" d="M 7.48792 17.8729L 0 17.8729L 0 0L 7.18196 0C 10.6924 0 12.7375 1.93091 12.7375 4.99484C 12.7375 6.97363 11.4171 8.25027 10.5153 8.66517C 11.6103 9.15987 12.9952 10.3248 12.9952 12.7025C 12.9952 16.0378 10.6924 17.8729 7.48792 17.8729ZM 6.90822 3.03201L 3.54267 3.03201L 3.54267 7.18108L 6.90822 7.18108C 8.4058 7.18108 9.22706 6.33531 9.22706 5.10655C 9.22706 3.87779 8.3897 3.03201 6.90822 3.03201ZM 7.13365 10.3727L 3.54267 10.3727L 3.54267 14.6813L 7.13365 14.6813C 8.72786 14.6813 9.48471 13.7238 9.48471 12.511C 9.48471 11.3142 8.72786 10.3727 7.13365 10.3727Z"/>
<path id="path8_fill" d="M 0 17.8729L 0 0L 3.54267 0L 3.54267 14.6813L 11.7552 14.6813L 11.7552 17.8729L 0 17.8729Z"/>
<path id="path9_fill" d="M 0 17.8729L 0 0L 11.9163 0L 11.9163 3.03201L 3.54267 3.03201L 3.54267 7.18108L 10.628 7.18108L 10.628 10.3727L 3.54267 10.3727L 3.54267 14.6813L 11.9163 14.6813L 11.9163 17.8729L 0 17.8729Z"/>
<path id="path10_fill" d="M 0 0L 0 34.3096L 34.6216 34.3096L 34.6216 0L 0 0ZM 31.2399 30.9585L 3.54267 30.9585L 3.54267 3.51075L 31.2399 3.51075L 31.2399 30.9585Z"/>
<path id="path11_fill" d="M 3.38164 0L 0 0L 0 13.0855L 3.38164 13.0855L 3.38164 0Z"/>
<path id="path12_fill" d="M 2.30274 4.56398C 3.57488 4.56398 4.60547 3.54267 4.60547 2.28199C 4.60547 1.02131 3.57488 -6.08748e-08 2.30274 -6.08748e-08C 1.0306 -6.08748e-08 4.91426e-07 1.02131 4.91426e-07 2.28199C 4.91426e-07 3.54267 1.0306 4.56398 2.30274 4.56398ZM 2.30274 1.13302C 2.94686 1.13302 3.46216 1.64367 3.46216 2.28199C 3.46216 2.92031 2.94686 3.43096 2.30274 3.43096C 1.65862 3.43096 1.14332 2.92031 1.14332 2.28199C 1.14332 1.64367 1.67472 1.13302 2.30274 1.13302Z"/>
</defs>
</svg>
