<?xml version="1.0" encoding="UTF-8" standalone="no"?>
<!-- Created with Inkscape (http://www.inkscape.org/) -->
<svg id="svg2" xmlns:rdf="http://www.w3.org/1999/02/22-rdf-syntax-ns#" xmlns="http://www.w3.org/2000/svg" xml:space="preserve" viewBox="0 0 750 750" version="1.1" xmlns:cc="http://creativecommons.org/ns#" xmlns:dc="http://purl.org/dc/elements/1.1/"><metadata id="metadata8"><rdf:RDF><cc:Work rdf:about=""><dc:format>image/svg+xml</dc:format><dc:type rdf:resource="http://purl.org/dc/dcmitype/StillImage"/><dc:title/></cc:Work></rdf:RDF></metadata><defs id="defs6"><clipPath id="clipPath20" clipPathUnits="userSpaceOnUse"><path id="path22" d="M0,600,600,600,600,0,0,0,0,600z"/></clipPath></defs><g id="g10" transform="matrix(1.25,0,0,-1.25,0,750)"><path id="path12" fill-rule="nonzero" fill="#ffffff" d="M0,0,600,0,600,600,0,600,0,0zm60,540,480,0,0-480-480,0,0,480z"/><path id="path14" fill-rule="nonzero" fill="#ffffff" d="m330,180-60,0,0,240,60,0,0-240z"/><g id="g16"><g id="g18" clip-path="url(#clipPath20)"><g id="g24" transform="translate(500,470)"><path id="path26" stroke-linejoin="miter" d="m0,0c0-16.569-13.431-30-30-30s-30,13.431-30,30,13.431,30,30,30,30-13.431,30-30z" stroke="#ffffff" stroke-linecap="butt" stroke-miterlimit="10" stroke-dasharray="none" stroke-width="20" fill="none"/></g></g></g></g></svg>
