<?xml version="1.0" encoding="UTF-8" standalone="no"?>
<!DOCTYPE svg PUBLIC "-//W3C//DTD SVG 1.1//EN" "http://www.w3.org/Graphics/SVG/1.1/DTD/svg11.dtd">
<svg width="100%" height="100%" viewBox="0 0 200 35" version="1.1" xmlns="http://www.w3.org/2000/svg" xmlns:xlink="http://www.w3.org/1999/xlink" xml:space="preserve" style="fill-rule:evenodd;clip-rule:evenodd;stroke-linejoin:round;stroke-miterlimit:1.41421;">
    <g id="Group" transform="matrix(1,0,0,1,0,-291)">
        <g id="Group1">
            <g id="path0_fill" transform="matrix(1,0,0,1,47.343,299.298)">
                <rect x="0" y="0" width="3.543" height="17.873" style="fill:white;fill-rule:nonzero;"/>
            </g>
            <g id="path1_fill" transform="matrix(1,0,0,1,55.0725,299.298)">
                <path d="M12.721,17.873L12.721,7.404L9.291,14.203L6.924,14.203L3.382,7.404L3.382,17.873L0,17.873L0,0L3.398,0L8.1,9.639L12.77,0L16.264,0L16.264,17.873L12.721,17.873Z" style="fill:white;fill-rule:nonzero;"/>
            </g>
            <g id="path2_fill" transform="matrix(1,0,0,1,75.5234,299.298)">
                <path d="M6.973,11.011L3.543,11.011L3.543,17.873L0,17.873L0,0L6.973,0C10.692,0 12.915,2.473 12.915,5.505C12.915,8.538 10.676,11.011 6.973,11.011ZM6.795,3.032L3.543,3.032L3.543,7.979L6.795,7.979C8.39,7.979 9.404,6.974 9.404,5.521C9.388,4.069 8.39,3.032 6.795,3.032Z" style="fill:white;fill-rule:nonzero;"/>
            </g>
            <g id="path3_fill" transform="matrix(1,0,0,1,91.4654,299.298)">
                <path d="M9.485,17.873L5.958,10.692L3.382,10.692L3.382,17.873L0,17.873L0,0L6.973,0C10.644,0 12.818,2.458 12.818,5.442C12.818,7.947 11.272,9.527 9.533,10.149L13.559,17.873L9.485,17.873ZM6.747,3.032L3.382,3.032L3.382,7.819L6.747,7.819C8.293,7.819 9.308,6.798 9.308,5.426C9.308,4.053 8.293,3.032 6.747,3.032Z" style="fill:white;fill-rule:nonzero;"/>
            </g>
            <g id="path4_fill" transform="matrix(1,0,0,1,107.311,299.107)">
                <path d="M11.498,16.181C10.242,17.426 8.696,18.128 6.651,18.128C4.606,18.128 3.044,17.426 1.771,16.181C-0.048,14.378 0,12.144 0,9.064C0,5.984 -0.048,3.75 1.771,1.947C3.044,0.702 4.606,0 6.651,0C8.696,0 10.242,0.702 11.498,1.947C13.317,3.75 13.285,5.984 13.285,9.064C13.301,12.16 13.317,14.378 11.498,16.181ZM8.905,4.069C8.406,3.495 7.617,3.112 6.651,3.112C5.685,3.112 4.879,3.495 4.38,4.069C3.704,4.819 3.527,5.649 3.527,9.08C3.527,12.511 3.704,13.341 4.38,14.091C4.879,14.665 5.701,15.048 6.651,15.048C7.617,15.048 8.39,14.665 8.905,14.091C9.581,13.341 9.791,12.511 9.791,9.08C9.791,5.633 9.581,4.819 8.905,4.069Z" style="fill:white;fill-rule:nonzero;"/>
            </g>
            <g id="path5_fill" transform="matrix(1,0,0,1,124.155,299.298)">
                <path d="M7.568,17.873L0,17.873L0,0L7.279,0C10.789,0 12.834,1.931 12.834,4.995C12.834,6.974 11.514,8.25 10.612,8.665C11.707,9.16 13.092,10.325 13.092,12.703C13.092,16.038 10.789,17.873 7.568,17.873ZM6.989,3.032L3.543,3.032L3.543,7.181L6.989,7.181C8.486,7.181 9.308,6.335 9.308,5.107C9.324,3.878 8.486,3.032 6.989,3.032ZM7.23,10.373L3.543,10.373L3.543,14.681L7.23,14.681C8.824,14.681 9.581,13.724 9.581,12.511C9.581,11.314 8.808,10.373 7.23,10.373Z" style="fill:white;fill-rule:nonzero;"/>
            </g>
            <g id="path6_fill" transform="matrix(1,0,0,1,138.841,299.298)">
                <path d="M12.222,17.873L11.159,14.681L4.767,14.681L3.672,17.873L0,17.873L6.57,0L9.324,0L15.894,17.873L12.222,17.873ZM8.035,5.154L5.749,11.649L10.225,11.649L8.035,5.154Z" style="fill:white;fill-rule:nonzero;"/>
            </g>
            <g id="path7_fill" transform="matrix(1,0,0,1,157.005,299.298)">
                <path d="M7.488,17.873L0,17.873L0,0L7.182,0C10.692,0 12.738,1.931 12.738,4.995C12.738,6.974 11.417,8.25 10.515,8.665C11.61,9.16 12.995,10.325 12.995,12.703C12.995,16.038 10.692,17.873 7.488,17.873ZM6.908,3.032L3.543,3.032L3.543,7.181L6.908,7.181C8.406,7.181 9.227,6.335 9.227,5.107C9.227,3.878 8.39,3.032 6.908,3.032ZM7.134,10.373L3.543,10.373L3.543,14.681L7.134,14.681C8.728,14.681 9.485,13.724 9.485,12.511C9.485,11.314 8.728,10.373 7.134,10.373Z" style="fill:white;fill-rule:nonzero;"/>
            </g>
            <g id="path8_fill" transform="matrix(1,0,0,1,173.591,299.298)">
                <path d="M0,17.873L0,0L3.543,0L3.543,14.681L11.755,14.681L11.755,17.873L0,17.873Z" style="fill:white;fill-rule:nonzero;"/>
            </g>
            <g id="path9_fill" transform="matrix(1,0,0,1,188.084,299.298)">
                <path d="M0,17.873L0,0L11.916,0L11.916,3.032L3.543,3.032L3.543,7.181L10.628,7.181L10.628,10.373L3.543,10.373L3.543,14.681L11.916,14.681L11.916,17.873L0,17.873Z" style="fill:white;fill-rule:nonzero;"/>
            </g>
        </g>
        <g id="improbable-emblem-logo">
            <g id="path10_fill" transform="matrix(1,0,0,1,0,291)">
                <path d="M0,0L0,34.31L34.622,34.31L34.622,0L0,0ZM31.24,30.959L3.543,30.959L3.543,3.511L31.24,3.511L31.24,30.959Z" style="fill:white;fill-rule:nonzero;"/>
            </g>
            <g id="path11_fill" transform="matrix(1,0,0,1,15.62,301.692)">
                <rect x="0" y="0" width="3.382" height="13.086" style="fill:white;fill-rule:nonzero;"/>
            </g>
            <g id="path12_fill" transform="matrix(1,0,0,1,25.2496,295.771)">
                <path d="M2.303,4.564C3.575,4.564 4.605,3.543 4.605,2.282C4.605,1.021 3.575,0 2.303,0C1.031,0 0,1.021 0,2.282C0,3.543 1.031,4.564 2.303,4.564ZM2.303,1.133C2.947,1.133 3.462,1.644 3.462,2.282C3.462,2.92 2.947,3.431 2.303,3.431C1.659,3.431 1.143,2.92 1.143,2.282C1.143,1.644 1.675,1.133 2.303,1.133Z" style="fill:white;fill-rule:nonzero;"/>
            </g>
        </g>
    </g>
</svg>
