<?xml version="1.0" encoding="UTF-8" standalone="no"?>
<svg width="300px" height="118px" viewBox="0 0 300 118" version="1.1" xmlns="http://www.w3.org/2000/svg" xmlns:xlink="http://www.w3.org/1999/xlink" xmlns:sketch="http://www.bohemiancoding.com/sketch/ns">
    <!-- Generator: Sketch 3.4.2 (15855) - http://www.bohemiancoding.com/sketch -->
    <title>janestreet-logo</title>
    <desc>Created with Sketch.</desc>
    <defs></defs>
    <g id="Logos" stroke="none" stroke-width="1" fill="none" fill-rule="evenodd" sketch:type="MSPage">
        <g id="Artboard-1" sketch:type="MSArtboardGroup" transform="translate(-699.000000, -25.000000)" fill="#FFFFFF">
            <g id="janestreet-logo" sketch:type="MSLayerGroup" transform="translate(699.000000, 25.000000)">
                <path d="M179.628333,49.7649074 C182.129259,49.7649074 184.017222,48.7084259 185.295926,47.2639815 L185.295926,41.5408333 C180.684815,41.819537 176.184815,42.9862037 176.184815,46.7649074 C176.184815,48.5426852 177.571852,49.7649074 179.628333,49.7649074 M185.295926,37.0399074 L185.295926,34.4297222 C185.295926,32.2065741 184.017222,30.8732407 181.185741,30.8732407 C178.351481,30.8732407 175.351481,32.0399074 171.682037,33.8167593 L168.794074,27.8167593 C172.794074,25.8167593 177.461667,24.4269444 181.518148,24.4269444 C190.073704,24.4269444 193.408889,28.595463 193.408889,34.7065741 L193.408889,47.1528704 C193.408889,48.7639815 194.354259,49.4871296 195.853333,49.4871296 L195.853333,55.0991667 C190.242222,55.0991667 187.907037,54.2649074 186.24037,51.4315741 C183.74037,54.0991667 180.960741,55.5991667 176.960741,55.5991667 C171.739444,55.5991667 168.072778,52.4315741 168.072778,47.7084259 C168.072778,41.2065741 174.239444,37.8186111 185.295926,37.0399074" id="Fill-1" sketch:type="MSShapeGroup"></path>
                <path d="M200.888426,25.0949074 L208.556019,25.0949074 L208.944907,28.5393519 C211.113426,26.2615741 214.280093,24.3717593 218.003241,24.3717593 C224.669907,24.3717593 227.503241,28.4837963 227.503241,35.2069444 L227.503241,54.9328704 L219.336574,54.9328704 L219.336574,34.9847222 C219.336574,32.3180556 218.226389,30.4837963 215.446759,30.4837963 C212.944907,30.4837963 210.779167,31.7606481 209.001389,33.9847222 L209.001389,54.9328704 L200.888426,54.9328704 L200.888426,25.0949074 Z" id="Fill-3" sketch:type="MSShapeGroup"></path>
                <path d="M154.040556,16.0363889 L154.040556,41.9299074 C154.040556,45.9299074 152.096111,48.2086111 148.708148,48.2086111 C146.436852,48.2086111 144.649815,47.0947222 143.253519,45.2021296 L137.678519,50.2521296 C140.553519,53.7169444 144.448889,55.5993519 149.152593,55.5993519 C157.26463,55.5993519 162.432222,50.9873148 162.432222,42.0975 L162.432222,16.0363889 L154.040556,16.0363889 Z" id="Fill-5" sketch:type="MSShapeGroup"></path>
                <path d="M153.167037,80.1766667 C148.901296,79.097037 145.216111,78.1646296 145.216111,74.9942593 C145.216111,72.347963 147.740185,70.5692593 151.497593,70.5692593 C155.026296,70.5692593 158.655926,71.4331481 162.014259,73.0674074 L164.942037,66.847037 C160.348519,64.7025926 155.817963,63.66 151.104074,63.66 C142.742037,63.66 136.902222,68.3664815 136.902222,75.1053704 C136.902222,83.6637037 143.911481,85.4859259 150.096667,87.0961111 C154.430926,88.222963 158.174444,89.197037 158.174444,92.4414815 C158.174444,95.2831481 155.679074,96.9794444 151.497593,96.9794444 C147.878148,96.9794444 143.799444,95.7562963 139.992963,93.5275926 L136.20963,99.7303704 C140.363333,102.261852 146.355,103.888704 151.554074,103.888704 C160.767963,103.888704 166.492037,99.46 166.492037,92.3303704 C166.492037,83.547037 159.104074,81.6775926 153.167037,80.1766667" id="Fill-7" sketch:type="MSShapeGroup"></path>
                <path d="M173.072685,79.1575926 L168.348611,79.1575926 L168.348611,73.3788889 L173.072685,73.3788889 L173.072685,65.9335185 L181.239352,65.9335185 L181.239352,73.3788889 L187.918056,73.3788889 L187.918056,79.1575926 L181.239352,79.1575926 L181.239352,93.9927778 C181.239352,96.2159259 182.073611,97.327037 183.963426,97.327037 C185.464352,97.327037 186.853241,96.827037 188.019907,95.9937037 L191.021759,100.883519 C188.741204,102.661296 185.574537,103.883519 182.297685,103.883519 C176.072685,103.883519 173.072685,100.827037 173.072685,94.1594444 L173.072685,79.1575926 Z" id="Fill-9" sketch:type="MSShapeGroup"></path>
                <path d="M194.725185,73.3787037 L202.228889,73.3787037 L202.781667,77.9898148 C205.062222,73.9888889 207.89463,72.5453704 211.283519,72.5453704 C212.672407,72.5453704 213.951111,72.7675926 214.951111,73.1564815 L213.782593,80.6027778 C212.727963,80.212963 211.449259,79.9342593 209.782593,79.9342593 C206.726111,79.9342593 204.671481,81.825 202.84,85.2703704 L202.84,103.217593 L194.725185,103.217593 L194.725185,73.3787037 Z" id="Fill-11" sketch:type="MSShapeGroup"></path>
                <path d="M281.8925,79.1575926 L277.168426,79.1575926 L277.168426,73.3788889 L281.8925,73.3788889 L281.8925,65.9335185 L290.059167,65.9335185 L290.059167,73.3788889 L296.736019,73.3788889 L296.736019,79.1575926 L290.059167,79.1575926 L290.059167,93.9927778 C290.059167,96.2159259 290.891574,97.327037 292.781389,97.327037 C294.282315,97.327037 295.669352,96.827037 296.83787,95.9937037 L299.83787,100.883519 C297.561019,102.661296 294.3925,103.883519 291.115648,103.883519 C284.890648,103.883519 281.8925,100.827037 281.8925,94.1594444 L281.8925,79.1575926 Z" id="Fill-13" sketch:type="MSShapeGroup"></path>
                <path d="M247.557222,30.192037 C251.447037,30.192037 252.890556,33.0809259 252.890556,36.8605556 L240.833148,36.8605556 C241.610926,32.5262963 244.223889,30.192037 247.557222,30.192037 M247.335,24.3012963 C239.05537,24.3012963 232.387778,30.192037 232.387778,39.7494444 C232.387778,49.7512963 238.610926,55.5855556 247.390556,55.5855556 C251.835926,55.5855556 256.004444,54.2512963 259.672037,51.6957407 L256.281296,46.5290741 C253.782222,48.0827778 251.002593,49.0846296 248.001667,49.0846296 C243.876667,49.0846296 241.529444,46.9772222 240.824815,42.7318519 L260.062778,42.7318519 C260.285,41.4624074 260.61463,40.1272222 260.61463,37.9161111 C260.61463,29.9142593 255.892407,24.3012963 247.335,24.3012963" id="Fill-15" sketch:type="MSShapeGroup"></path>
                <path d="M261.764444,78.4912037 C265.652407,78.4912037 267.097778,81.3791667 267.097778,85.1587963 L255.04037,85.1587963 C255.818148,80.825463 258.429259,78.4912037 261.764444,78.4912037 M261.542222,72.599537 C253.260741,72.599537 246.593148,78.4912037 246.593148,88.0486111 C246.593148,98.049537 252.818148,103.883796 261.595926,103.883796 C266.041296,103.883796 270.209815,102.550463 273.877407,99.9939815 L270.488519,94.8273148 C267.987593,96.3819444 265.209815,97.3837963 262.207037,97.3837963 C258.082037,97.3837963 255.736667,95.275463 255.031111,91.0310185 L274.27,91.0310185 C274.492222,89.7615741 274.821852,88.425463 274.821852,86.2152778 C274.821852,78.2125 270.097778,72.599537 261.542222,72.599537" id="Fill-17" sketch:type="MSShapeGroup"></path>
                <path d="M230.575926,78.4902778 C234.465741,78.4902778 235.909259,81.3782407 235.909259,85.1578704 L223.851852,85.1578704 C224.62963,80.824537 227.242593,78.4902778 230.575926,78.4902778 M230.353704,72.5986111 C222.074074,72.5986111 215.406481,78.4902778 215.406481,88.0476852 C215.406481,98.0486111 221.62963,103.88287 230.409259,103.88287 C234.85463,103.88287 239.023148,102.549537 242.690741,99.9930556 L239.3,94.8263889 C236.800926,96.3810185 234.021296,97.3828704 231.02037,97.3828704 C226.89537,97.3828704 224.548148,95.274537 223.843519,91.0300926 L243.081481,91.0300926 C243.303704,89.7606481 243.633333,88.424537 243.633333,86.2143519 C243.633333,78.2115741 238.911111,72.5986111 230.353704,72.5986111" id="Fill-19" sketch:type="MSShapeGroup"></path>
                <path d="M18.7062037,82.3865741 C26.7108333,96.0337963 41.5450926,105.206019 58.4747222,105.159722 C83.8034259,105.091204 104.353426,84.4291667 104.283981,59.099537 C104.215463,33.7708333 83.5534259,13.2208333 58.2237963,13.2902778 C32.8960185,13.3587963 12.3460185,34.0208333 12.415463,59.3486111 C12.4237963,62.4291667 12.7469444,65.4356481 13.3376852,68.3467593 C13.4349074,68.7217593 13.8173148,68.925463 14.1775,68.8356481 L20.5700926,67.2439815 C20.9358333,67.150463 21.1932407,66.7930556 21.1043519,66.4069444 L21.1071296,66.4069444 C20.665463,64.1134259 20.4265741,61.7476852 20.4200926,59.3273148 C20.3636111,38.4134259 37.3321296,21.3513889 58.2460185,21.2949074 C79.1599074,21.2384259 96.2219444,38.2069444 96.2793519,59.1208333 C96.3358333,80.0356481 79.3673148,97.0986111 58.4525,97.1541667 C44.6015741,97.1921296 32.4497222,89.7560185 25.7987963,78.6578704 L25.7987963,78.6587963 C25.6191667,78.3263889 25.2080556,78.1689815 24.8571296,78.3467593 L19.0071296,81.4375 C18.664537,81.6171296 18.5136111,82.0523148 18.7062037,82.3865741" id="Fill-21" sketch:type="MSShapeGroup"></path>
                <path d="M82.5267593,69.1469444 L88.3600926,72.2756481 C88.704537,72.4562037 89.1637963,72.3469444 89.3091667,71.9839815 C90.9100926,68.1293519 91.8147222,63.9182407 91.8526852,59.5043519 C92.005463,41.0321296 77.1017593,25.8784259 58.6286111,25.7228704 L58.3452778,25.7219444 C40.0276852,25.7219444 25.0008333,40.6256481 24.8471296,58.9432407 C24.6934259,77.4182407 39.5952778,92.5728704 58.0684259,92.7275 L58.3526852,92.7293519 C67.1008333,92.7293519 75.0934259,89.3247222 81.079537,83.7784259 C81.3721296,83.5219444 81.4323148,83.0700926 81.1591667,82.7775 L76.1813889,78.289537 C75.8971296,78.0312037 75.4563889,78.0784259 75.1887963,78.3247222 L75.1878704,78.3237963 C70.6869444,82.2997222 64.7887963,84.7228704 58.3526852,84.7228704 L58.1360185,84.7219444 C44.0767593,84.6043519 32.7350926,73.0700926 32.8526852,59.0117593 C32.9693519,45.0700926 44.404537,33.7275 58.3452778,33.7275 L58.5619444,33.7275 C72.6212037,33.8460185 83.9647222,45.3793519 83.8471296,59.4376852 C83.8212037,62.5126852 83.2387963,65.4580556 82.205463,68.1858333 L82.2063889,68.1858333 C82.0517593,68.5691667 82.1878704,68.9478704 82.5267593,69.1469444" id="Fill-23" sketch:type="MSShapeGroup"></path>
                <path d="M92.0875926,11.6255556 C91.7764815,11.4135185 91.3422222,11.4764815 91.1255556,11.7968519 L87.3912963,17.2125926 C87.1755556,17.5255556 87.2051852,17.9690741 87.5218519,18.1977778 L87.5218519,18.1968519 C100.346852,27.3357407 108.734815,42.3172222 108.731111,59.232037 C108.728333,87.0005556 86.1357407,109.588519 58.3662963,109.586667 C30.5931481,109.586667 8.00333333,86.9931481 8.00611111,59.2172222 C8.00981481,31.4524074 30.6014815,8.86351852 58.3746296,8.87 C64.4190741,8.86444444 70.2135185,9.95148148 75.5894444,11.9125926 L75.5894444,11.907037 C75.9357407,12.0357407 76.332963,11.8662963 76.4801852,11.5042593 L78.832963,5.32740741 C78.9644444,4.98203704 78.7987037,4.58759259 78.457037,4.43851852 C72.1903704,2.13388889 65.4283333,0.861666667 58.3746296,0.862592593 C26.1922222,0.856111111 0.00425925926,27.0375926 -0.00037037037,59.2209259 C-0.00222222222,91.4033333 26.182963,117.591296 58.3644444,117.592222 C90.5468519,117.594074 116.734815,91.4144444 116.736667,59.2348148 C116.734815,39.6005556 106.991296,22.2125926 92.0875926,11.6255556" id="Fill-25" sketch:type="MSShapeGroup"></path>
            </g>
        </g>
    </g>
</svg>