<svg width="200" height="111" viewBox="0 0 200 111" version="1.1" xmlns="http://www.w3.org/2000/svg" xmlns:xlink="http://www.w3.org/1999/xlink" xmlns:figma="http://www.figma.com/figma/ns">
<title>jetbrains-logo</title>
<desc>Created using Figma</desc>
<g id="Canvas" transform="translate(0 -519)" figma:type="canvas">
<g id="jetbrains-logo" style="mix-blend-mode:normal;" figma:type="frame">
<g id="Group" style="mix-blend-mode:normal;" figma:type="frame">
<g id="Vector" style="mix-blend-mode:normal;" figma:type="vector">
<use xlink:href="#path0_fill" transform="translate(11.2368 519)" fill="url(#paint0_radial)" style="mix-blend-mode:normal;"/>
</g>
<g id="Vector" style="mix-blend-mode:normal;" figma:type="vector">
<use xlink:href="#path1_fill" transform="translate(45.2 519.001)" fill="url(#paint1_radial)" style="mix-blend-mode:normal;"/>
</g>
<g id="Vector" style="mix-blend-mode:normal;" figma:type="vector">
<use xlink:href="#path2_fill" transform="translate(45.2001 539.153)" fill="url(#paint2_radial)" style="mix-blend-mode:normal;"/>
</g>
<g id="Vector" style="mix-blend-mode:normal;" figma:type="vector">
<use xlink:href="#path3_fill" transform="translate(0 548.152)" fill="url(#paint3_linear)" style="mix-blend-mode:normal;"/>
</g>
<g id="Vector" style="mix-blend-mode:normal;" figma:type="vector">
<use xlink:href="#path4_fill" transform="translate(52.613 557.957)" style="mix-blend-mode:normal;"/>
</g>
<g id="Vector" style="mix-blend-mode:normal;" figma:type="vector">
<use xlink:href="#path5_fill" transform="translate(57.2604 601.733)" fill="#FFFFFF" style="mix-blend-mode:normal;"/>
</g>
<g id="Group" style="mix-blend-mode:normal;" figma:type="frame">
<g id="Vector" style="mix-blend-mode:normal;" figma:type="vector">
<use xlink:href="#path6_fill" transform="translate(57.0333 564.691)" fill="#FFFFFF" style="mix-blend-mode:normal;"/>
</g>
<g id="Vector" style="mix-blend-mode:normal;" figma:type="vector">
<use xlink:href="#path7_fill" transform="translate(63.9578 564.691)" fill="#FFFFFF" style="mix-blend-mode:normal;"/>
</g>
<g id="Vector" style="mix-blend-mode:normal;" figma:type="vector">
<use xlink:href="#path8_fill" transform="translate(71.5802 564.691)" fill="#FFFFFF" style="mix-blend-mode:normal;"/>
</g>
<g id="Vector" style="mix-blend-mode:normal;" figma:type="vector">
<use xlink:href="#path9_fill" transform="translate(57.259 575.515)" fill="#FFFFFF" style="mix-blend-mode:normal;"/>
</g>
<g id="Vector" style="mix-blend-mode:normal;" figma:type="vector">
<use xlink:href="#path10_fill" transform="translate(65.4758 575.463)" fill="#FFFFFF" style="mix-blend-mode:normal;"/>
</g>
<g id="Vector" style="mix-blend-mode:normal;" figma:type="vector">
<use xlink:href="#path11_fill" transform="translate(82.4861 575.525)" fill="#FFFFFF" style="mix-blend-mode:normal;"/>
</g>
<g id="Vector" style="mix-blend-mode:normal;" figma:type="vector">
<use xlink:href="#path12_fill" transform="translate(85.5215 575.525)" fill="#FFFFFF" style="mix-blend-mode:normal;"/>
</g>
<g id="Vector" style="mix-blend-mode:normal;" figma:type="vector">
<use xlink:href="#path13_fill" transform="translate(93.9666 575.371)" fill="#FFFFFF" style="mix-blend-mode:normal;"/>
</g>
</g>
</g>
</g>
</g>
<defs>
<radialGradient id="paint0_radial" cx="0.5" cy="0.5" r="0.5" gradientUnits="userSpaceOnUse" gradientTransform="matrix(75475.1 0 0 44095.1 -2098.5 -21629.9)">
<stop offset="0.04515" stop-color="#9F77A8"/>
<stop offset="1" stop-color="#00AEEF"/>
</radialGradient>
<radialGradient id="paint1_radial" cx="0.5" cy="0.5" r="0.5" gradientUnits="userSpaceOnUse" gradientTransform="matrix(41738.1 0 0 11133.1 -13342.3 -4260.19)">
<stop offset="0.10347" stop-color="#ED037C"/>
<stop offset="1" stop-color="#9F77A8"/>
</radialGradient>
<radialGradient id="paint2_radial" cx="0.5" cy="0.5" r="0.5" gradientUnits="userSpaceOnUse" gradientTransform="matrix(9225.79 0 0 12338.5 2132.06 1564.86)">
<stop offset="0.14688" stop-color="#5C2D91"/>
<stop offset="1" stop-color="#ED037C"/>
</radialGradient>
<linearGradient id="paint3_linear" x1="0" y1="0" x2="1" y2="0" gradientUnits="userSpaceOnUse" gradientTransform="matrix(9561.1 4707.88 -6601.03 6819 3915.99 -1025.71)">
<stop offset="0" stop-color="#44C8F5"/>
<stop offset="1" stop-color="#5C2D91"/>
</linearGradient>
<path id="path0_fill" d="M 184.773 14.5217C 185.668 14.0257 186.455 13.3576 187.09 12.5558C 187.725 11.7539 188.195 10.8343 188.472 9.85003C 188.75 8.86571 188.83 7.83615 188.708 6.82076C 188.585 5.80536 188.263 4.82422 187.76 3.93394C 187.257 3.04366 186.582 2.26187 185.775 1.63366C 184.968 1.00546 184.044 0.543278 183.058 0.273784C 182.071 0.00429108 181.041 -0.0671799 180.027 0.0634948C 179.012 0.194169 178.034 0.524403 177.148 1.03514L 1.69972 103.617C 1.03091 104.033 0.516901 104.657 0.236338 105.393C -0.044224 106.129 -0.0758963 106.937 0.146167 107.693C 0.36823 108.449 0.831801 109.111 1.46597 109.579C 2.10013 110.046 2.86997 110.293 3.65773 110.281C 4.18248 110.273 4.69876 110.148 5.16944 109.916L 184.773 14.5217Z"/>
<path id="path1_fill" d="M 148.492 15.3592C 150.42 14.9935 152.137 13.9099 153.297 12.3273C 154.457 10.7447 154.973 8.78093 154.741 6.83252C 154.509 4.88411 153.547 3.0962 152.048 1.82978C 150.55 0.563363 148.626 -0.0872135 146.666 0.00940621C 146.507 0.0172799 146.348 0.0307985 146.192 0.0488795L 8.80284 20.3005C 6.13809 20.7522 3.74761 22.2075 2.12287 24.3674C 0.498135 26.5273 -0.237399 29.2276 0.0674921 31.9131C 0.372383 34.5986 1.69453 37.0653 3.76211 38.8059C 5.82969 40.5466 8.48558 41.4291 11.1838 41.2719C 11.4931 41.2539 11.7974 41.22 12.098 41.1751L 148.492 15.3592Z"/>
<path id="path2_fill" d="M 18.8825 4.04207C 17.2246 1.93071 14.8255 0.529279 12.1721 0.122242C 9.51867 -0.284795 6.80979 0.333064 4.59529 1.85041C 2.38079 3.36775 0.826628 5.67087 0.248257 8.29228C -0.330113 10.9137 0.110651 13.657 1.48109 15.9653L 41.452 82.124C 42.3959 83.6256 43.6299 84.9237 45.0818 85.9424C 46.5337 86.9611 48.1743 87.6798 49.9074 88.0565C 51.6406 88.4332 53.4315 88.4602 55.1752 88.136C 56.919 87.8118 58.5805 87.1429 60.0625 86.1684C 61.5444 85.194 62.8171 83.9336 63.8058 82.4612C 64.7945 80.9887 65.4795 79.3338 65.8206 77.5933C 66.1617 75.8527 66.152 74.0617 65.7922 72.3249C 65.4323 70.5882 64.7295 68.9407 63.7249 67.479L 18.8825 4.04207Z"/>
<path id="path3_fill" d="M 6.78869 0.51447C 5.77688 -0.00500174 4.61002 -0.136517 3.50797 0.144704C 2.40591 0.425926 1.44474 1.10047 0.805551 2.04124C 0.166362 2.98201 -0.106717 4.12406 0.0377656 5.25222C 0.182248 6.38038 0.734315 7.41675 1.58995 8.16608L 89.9576 76.7041C 91.4302 77.805 93.1145 78.5893 94.9048 79.0079C 96.6951 79.4264 98.5527 79.4701 100.361 79.1362C 102.169 78.8022 103.888 78.0979 105.411 77.0674C 106.933 76.0369 108.226 74.7026 109.208 73.1483C 110.191 71.5941 110.841 69.8534 111.118 68.0358C 111.395 66.2182 111.293 64.363 110.818 62.5867C 110.343 60.8105 109.506 59.1516 108.36 57.7144C 107.213 56.2771 105.782 55.0926 104.155 54.2353L 6.78869 0.51447Z"/>
<path id="path4_fill" d="M 53.8782 0L 0 0L 0 53.8782L 53.8782 53.8782L 53.8782 0Z"/>
<path id="path5_fill" d="M 20.2043 0L 0 0L 0 3.3674L 20.2043 3.3674L 20.2043 0Z"/>
<path id="path6_fill" d="M 3.08604 8.9321C 3.52661 8.95164 3.96664 8.88292 4.38028 8.72996C 4.79391 8.577 5.17279 8.3429 5.49466 8.04141C 5.80183 7.71161 6.03733 7.32173 6.18631 6.89637C 6.33529 6.47101 6.39452 6.01939 6.36026 5.57L 6.36026 -1.84143e-06L 3.93908 -1.84143e-06L 3.93908 5.55749C 3.96945 5.70531 3.96675 5.85803 3.93118 6.00469C 3.89561 6.15135 3.82805 6.28833 3.73333 6.40582C 3.63862 6.5233 3.5191 6.61839 3.38332 6.68427C 3.24755 6.75015 3.09888 6.78519 2.94798 6.78688C 2.67017 6.76852 2.40056 6.68517 2.16086 6.54353C 1.92117 6.40189 1.71809 6.20594 1.568 5.97145L -1.02017e-06 7.45179C 0.35026 7.93618 0.81605 8.32534 1.35502 8.58387C 1.89398 8.8424 2.48903 8.96211 3.08604 8.9321L 3.08604 8.9321Z"/>
<path id="path7_fill" d="M 7.12517 6.71204L 2.40835 6.71204L 2.40835 5.31917L 6.62374 5.31917L 6.62374 3.39965L 2.40835 3.39965L 2.40835 2.05829L 7.06315 2.05829L 7.06315 7.37856e-07L -4.17049e-07 7.37856e-07L -4.17049e-07 8.7819L 7.12517 8.7819L 7.12517 6.71204Z"/>
<path id="path8_fill" d="M 2.62174 8.7819L 5.05532 8.7819L 5.05532 2.13293L 7.68967 2.13293L 7.68967 7.37856e-07L 3.01559e-06 7.37856e-07L 3.01559e-06 2.13293L 2.62174 2.13293L 2.62174 8.7819Z"/>
<path id="path9_fill" d="M 6.10932 4.20035C 6.51219 4.05797 6.85995 3.79225 7.10318 3.44093C 7.34641 3.08962 7.47274 2.67058 7.46421 2.24337L 7.46421 2.21821C 7.47044 1.95421 7.4237 1.69165 7.32674 1.44602C 7.22978 1.20039 7.08458 0.976684 6.89971 0.788122C 6.57103 0.50737 6.19022 0.294162 5.77908 0.160696C 5.36793 0.0272291 4.93451 -0.0238779 4.5036 0.0102934L -6.58296e-07 0.0102934L -6.58296e-07 8.79181L 4.52866 8.79181C 6.62366 8.79181 7.85305 7.87604 7.85305 6.37068L 7.85305 6.34553C 7.86484 5.83904 7.6958 5.34493 7.37624 4.95181C 7.05669 4.55868 6.60752 4.29227 6.10932 4.20035L 6.10932 4.20035ZM 2.37096 1.96734L 3.96422 1.96734C 4.6793 1.96734 5.06811 2.23079 5.06811 2.72001L 5.06811 2.7451C 5.06811 3.25942 4.64157 3.51038 3.90147 3.51038L 2.37096 3.51038L 2.37096 1.96735L 2.37096 1.96734ZM 5.41939 6.03191C 5.41939 6.54623 5.00542 6.83476 4.25275 6.83476L 2.37096 6.83476L 2.37096 5.21651L 4.22765 5.21651C 5.04308 5.21651 5.41939 5.53014 5.41939 6.00685L 5.41939 6.03194L 5.41939 6.03191Z"/>
<path id="path10_fill" d="M 10.6378 -7.94318e-07L 7.3566 7.78874L 5.98398 5.78318C 6.53158 5.57857 7.00082 5.20667 7.32508 4.72027C 7.64934 4.23387 7.81214 3.65768 7.79038 3.07351L 7.79038 3.04844C 7.80804 2.67245 7.7481 2.29686 7.61429 1.94506C 7.48048 1.59325 7.27568 1.27276 7.01262 1.00355C 6.62238 0.664427 6.16842 0.406549 5.6773 0.244999C 5.18619 0.0834504 4.66778 0.0214752 4.15242 0.0627049L -1.60403e-07 0.0627049L -1.60403e-07 8.84422L 2.43364 8.84422L 2.43364 6.18463L 3.51258 6.18463L 5.28138 8.84422L 9.45854 8.84422L 10.0858 7.26361L 13.4855 7.26361L 14.1127 8.84422L 16.7222 8.84422L 12.9837 1.92561e-05L 10.6378 1.92561e-05L 10.6378 -7.94318e-07ZM 5.35669 3.23658C 5.35052 3.39484 5.31034 3.54991 5.23889 3.69126C 5.16743 3.8326 5.06637 3.95689 4.94258 4.05569C 4.81879 4.15449 4.67518 4.22547 4.52151 4.2638C 4.36784 4.30214 4.20772 4.30693 4.05204 4.27786L 2.43369 4.27786L 2.43369 2.15775L 4.03946 2.15775C 4.1972 2.12522 4.36016 2.12785 4.51677 2.16546C 4.67337 2.20307 4.81975 2.27473 4.94552 2.37534C 5.07128 2.47595 5.17332 2.60304 5.24439 2.74757C 5.31546 2.89209 5.3538 3.0505 5.35669 3.21153L 5.35669 3.23655L 5.35669 3.23658ZM 10.801 5.36928L 11.7921 2.88533L 12.7705 5.36928L 10.801 5.36928Z"/>
<path id="path11_fill" d="M 2.4337 0L 0 0L 0 8.78151L 2.4337 8.78151L 2.4337 0Z"/>
<path id="path12_fill" d="M 5.88368 4.64219L 2.27064 4.8121e-07L -3.91384e-06 4.8121e-07L -3.91384e-06 8.78189L 2.4094 8.78189L 2.4094 3.9652L 6.17276 8.78189L 8.29307 8.78189L 8.29307 4.8121e-07L 5.88368 4.8121e-07L 5.88368 4.64219Z"/>
<path id="path13_fill" d="M 4.40327 3.4665C 3.17388 3.19055 2.87283 3.01493 2.87283 2.61348L 2.87283 2.58835C 2.87283 2.26216 3.16136 2.02385 3.75094 2.02385C 4.64024 2.05169 5.49914 2.35403 6.2098 2.88938L 7.42662 1.17075C 6.39785 0.367446 5.11798 -0.0458555 3.81369 0.00404386C 1.70612 0.00404386 0.413971 1.18333 0.413971 2.81412L 0.413971 2.8392C 0.413971 4.63315 1.85664 5.16005 3.72591 5.5866C 4.93016 5.87514 5.21865 6.06326 5.21865 6.43969L 5.21865 6.46471C 5.21865 6.84104 4.86736 7.06693 4.20253 7.06693C 3.16061 7.05215 2.15534 6.68015 1.35477 6.01314L 2.0044e-06 7.63143C 1.14789 8.60266 2.61148 9.12029 4.11474 9.08668C 6.2474 9.08668 7.66504 8.02032 7.66504 6.22643L 7.66504 6.20128C 7.66504 4.55791 6.41044 3.90559 4.40327 3.4665Z"/>
</defs>
</svg>
