<?xml version="1.0" encoding="UTF-8" standalone="no"?>
<svg width="300px" height="173px" viewBox="0 0 300 173" version="1.1" xmlns="http://www.w3.org/2000/svg" xmlns:xlink="http://www.w3.org/1999/xlink" xmlns:sketch="http://www.bohemiancoding.com/sketch/ns">
    <!-- Generator: Sketch 3.4.2 (15855) - http://www.bohemiancoding.com/sketch -->
    <title>kcg-logo</title>
    <desc>Created with Sketch.</desc>
    <defs>
        <path id="path-1" d="M0,0.191066282 L299.723343,0.191066282 L299.723343,172.04611 L0,172.04611"></path>
    </defs>
    <g id="Logos" stroke="none" stroke-width="1" fill="none" fill-rule="evenodd" sketch:type="MSPage">
        <g id="Artboard-1" sketch:type="MSArtboardGroup" transform="translate(-25.000000, -149.000000)">
            <g id="kcg-logo" sketch:type="MSLayerGroup" transform="translate(25.000000, 149.000000)">
                <path d="M194.602133,141.83317 L215.427493,119.305504 L220.590605,119.305504 L203.122305,137.944409 L221.924611,160.844697 L216.917118,160.844697 L200.46121,140.820778 L194.602133,147.103487 L194.602133,160.844697 L190.873314,160.844697 L190.873314,119.305504 L194.602133,119.305504 L194.602133,141.83317 Z" id="Fill-1" fill="#FEFEFE" sketch:type="MSShapeGroup"></path>
                <g id="Group-15">
                    <path d="M244.130749,157.915245 C251.318646,157.915245 254.778588,155.517839 255.845447,150.195648 L259.679741,150.51121 C258.452075,156.799107 254.195014,161.376916 244.130749,161.376916 C231.879164,161.376916 226.550922,153.067695 226.550922,140.072594 C226.550922,127.078357 231.879164,118.774323 244.130749,118.774323 C254.195014,118.774323 258.452075,123.352997 259.679741,129.634841 L255.845447,129.955591 C254.778588,124.633401 251.318646,122.23513 244.130749,122.23513 C233.316916,122.23513 230.493285,130.487291 230.493285,140.072594 C230.493285,149.663084 233.316916,157.915245 244.130749,157.915245" id="Fill-2" fill="#FEFEFE" sketch:type="MSShapeGroup"></path>
                    <g id="Group-6">
                        <mask id="mask-2" sketch:name="Clip 5" fill="white">
                            <use xlink:href="#path-1"></use>
                        </mask>
                        <g id="Clip-5"></g>
                        <path d="M266.493458,140.072853 C266.493458,127.078617 271.817378,118.773718 284.068963,118.773718 C294.133228,118.773718 298.391153,123.353256 299.618818,129.635101 L295.78366,129.95585 C294.717666,124.63366 291.256859,122.235389 284.068963,122.235389 C273.25513,122.235389 270.435821,130.48755 270.435821,140.072853 C270.435821,149.663343 273.25513,157.915504 284.068963,157.915504 C288.806715,157.915504 293.333516,156.639424 295.998069,154.775447 L295.998069,142.897349 L286.940144,142.897349 L286.940144,139.382939 L299.723429,139.382939 L299.723429,157.119251 C294.396916,160.471124 290.139856,161.430778 284.068963,161.377176 C271.817378,161.272565 266.493458,153.067089 266.493458,140.072853" id="Fill-4" fill="#FEFEFE" sketch:type="MSShapeGroup" mask="url(#mask-2)"></path>
                    </g>
                    <path d="M85.9284726,13.3866571 C43.0492219,13.3866571 8.28466859,48.1468876 8.28466859,91.0304611 C8.28466859,133.911441 43.0492219,168.670807 85.9284726,168.670807 C128.810317,168.670807 163.569683,133.911441 163.569683,91.0304611 C163.569683,48.1468876 128.810317,13.3866571 85.9284726,13.3866571 M166.944899,91.0304611 C166.944899,135.772824 130.675159,172.046023 85.9284726,172.046023 C41.1861095,172.046023 4.90945245,135.772824 4.90945245,91.0304611 C4.90945245,46.2829107 41.1861095,10.0114409 85.9284726,10.0114409 C130.675159,10.0114409 166.944899,46.2829107 166.944899,91.0304611" id="Fill-7" fill="#FEFEFE" sketch:type="MSShapeGroup"></path>
                    <path d="M81.0164265,3.56628242 C38.1345821,3.56628242 3.37521614,38.3273775 3.37521614,81.2092219 C3.37521614,124.091066 38.1345821,158.850432 81.0164265,158.850432 C123.895677,158.850432 158.660231,124.091066 158.660231,81.2092219 C158.660231,38.3273775 123.895677,3.56628242 81.0164265,3.56628242 M162.035447,81.2092219 C162.035447,125.95245 125.75879,162.226513 81.0164265,162.226513 C36.2688761,162.226513 0,125.95245 0,81.2092219 C0,36.462536 36.2688761,0.191066282 81.0164265,0.191066282 C125.75879,0.191066282 162.035447,36.462536 162.035447,81.2092219" id="Fill-9" fill="#FEFEFE" sketch:type="MSShapeGroup"></path>
                    <path d="M95.7475504,6.0210951 C52.8657061,6.0210951 18.1063401,40.7813256 18.1063401,83.6640346 C18.1063401,126.546744 52.8657061,161.305245 95.7475504,161.305245 C138.625072,161.305245 173.388761,126.546744 173.388761,83.6640346 C173.388761,40.7813256 138.625072,6.0210951 95.7475504,6.0210951 M176.763977,83.6640346 C176.763977,128.407262 140.489914,164.68219 95.7475504,164.68219 C51,164.68219 14.7311239,128.407262 14.7311239,83.6640346 C14.7311239,38.9182133 51,2.64587896 95.7475504,2.64587896 C140.489914,2.64587896 176.763977,38.9182133 176.763977,83.6640346" id="Fill-11" fill="#FEFEFE" sketch:type="MSShapeGroup"></path>
                    <path d="M85.9284726,13.3866571 C43.0492219,13.3866571 8.28466859,48.1468876 8.28466859,91.0304611 C8.28466859,133.911441 43.0492219,168.670807 85.9284726,168.670807 L85.9284726,172.046023 C41.1861095,172.046023 4.90945245,135.772824 4.90945245,91.0304611 C4.90945245,46.2829107 41.1861095,10.0114409 85.9284726,10.0114409 L85.9284726,13.3866571 Z" id="Fill-13" fill="#FEFEFE" sketch:type="MSShapeGroup"></path>
                </g>
            </g>
        </g>
    </g>
</svg>