<?xml version="1.0" encoding="UTF-8" standalone="no"?>
<svg width="191px" height="22px" viewBox="0 0 191 22" version="1.1" xmlns="http://www.w3.org/2000/svg" xmlns:xlink="http://www.w3.org/1999/xlink">
    <!-- Generator: Sketch 40.1 (33804) - http://www.bohemiancoding.com/sketch -->
    <title>LastmileBlack@2x</title>
    <desc>Created with Sketch.</desc>
    <defs></defs>
    <g id="Last-Mile" stroke="none" stroke-width="1" fill="none" fill-rule="evenodd">
        <g id="Version-1.3" transform="translate(-874.000000, -347.000000)" fill="#000000">
            <g id="Page-4">
                <g id="LastmileBlack" transform="translate(874.000000, 347.000000)">
                    <path d="M51.7119,16.3158 L44.5329,16.3158 L44.5329,2.5458 C44.5329,2.0768 44.1619,1.6798 43.6919,1.6798 L41.9129,1.6798 C41.4429,1.6798 41.0719,2.0768 41.0719,2.5458 L41.0719,18.6408 C41.0719,19.1108 41.4429,19.4828 41.9129,19.4828 L51.7119,19.4828 C52.1819,19.4828 52.5519,19.1108 52.5519,18.6408 L52.5519,17.1568 C52.5519,16.6868 52.1819,16.3158 51.7119,16.3158" id="Fill-175"></path>
                    <path d="M64.0625,12.3373 C64.4335,11.4703 64.8045,10.5313 65.1755,9.4683 C65.5705,8.4043 65.8925,7.5383 66.1385,6.8223 L66.6595,5.5133 C66.7815,5.8093 67.3265,7.3663 68.1185,9.4683 L69.2305,12.3373 L64.0625,12.3373 Z M68.4395,2.4223 C68.2655,1.9273 67.9195,1.6803 67.4005,1.6803 L65.9165,1.6803 C65.3985,1.6803 65.0515,1.9273 64.8785,2.4223 L57.6845,18.5403 C57.4865,19.0123 57.8075,19.4833 58.3275,19.4833 L60.3785,19.4833 C60.8735,19.4833 61.2445,19.2093 61.4665,18.6903 L62.9015,15.2543 L70.4165,15.2543 L71.8515,18.6903 C72.0735,19.2093 72.4455,19.4833 72.9395,19.4833 L74.9925,19.4833 C75.4855,19.4833 75.8325,19.0363 75.6345,18.5663 L68.4395,2.4223 Z" id="Fill-177"></path>
                    <path d="M87.5479,8.6264 C85.3719,8.2564 84.2829,7.5894 84.2829,6.5744 C84.2829,5.3144 85.3969,4.5724 87.2499,4.5724 C88.7599,4.5724 90.1939,5.1174 91.5269,6.2294 C91.8989,6.5264 92.4179,6.5014 92.7149,6.1324 L93.7029,4.9194 C93.9999,4.5484 93.9509,4.0544 93.5799,3.7564 C91.7259,2.1744 89.6239,1.3844 87.2759,1.3844 C85.4949,1.3844 83.9629,1.8784 82.6779,2.8664 C81.3909,3.8324 80.7479,5.0924 80.7479,6.6004 C80.7479,9.2944 82.6779,11.1504 86.2619,11.7674 C89.4509,12.3374 90.7119,12.9794 90.7119,14.2644 C90.7119,15.7224 89.3769,16.5894 87.3009,16.5894 C85.6939,16.5894 84.2099,16.0214 82.8499,14.8834 C82.4789,14.5854 81.9599,14.6104 81.6629,14.9814 L80.6509,16.1684 C80.3279,16.5894 80.3519,16.9844 80.7739,17.3554 C82.4789,18.9624 84.6539,19.7774 87.2499,19.7774 C89.3029,19.7774 90.9849,19.2594 92.2939,18.2214 C93.6039,17.1564 94.2469,15.8204 94.2469,14.1664 C94.2469,11.2724 92.0229,9.4434 87.5479,8.6264" id="Fill-179"></path>
                    <path d="M113.6738,1.6801 L100.2238,1.6801 C99.7288,1.6801 99.3578,2.0521 99.3578,2.5201 L99.3578,4.0051 C99.3578,4.4741 99.7288,4.8691 100.2238,4.8691 L105.2168,4.8691 L105.2168,18.6161 C105.2168,19.1111 105.5878,19.4831 106.0588,19.4831 L107.8378,19.4831 C108.3088,19.4831 108.6788,19.1111 108.6788,18.6161 L108.6788,4.8691 L113.6738,4.8691 C114.1428,4.8691 114.5138,4.4741 114.5138,4.0051 L114.5138,2.5201 C114.5138,2.0521 114.1428,1.6801 113.6738,1.6801" id="Fill-181"></path>
                    <path d="M138.0273,1.6801 L136.4683,1.6801 C136.0003,1.6801 135.4063,2.0521 135.1333,2.5201 L129.9663,11.4961 L124.7983,2.5201 C124.5773,2.0521 123.9593,1.6801 123.4643,1.6801 L121.9313,1.6801 C121.4373,1.6801 121.0413,2.0521 121.0413,2.5201 L120.4723,18.6161 C120.4483,19.1111 120.8183,19.4831 121.2893,19.4831 L123.0683,19.4831 C123.5393,19.4831 123.9333,19.1111 123.9593,18.6161 L124.2073,11.4701 C124.2073,11.1511 124.1813,9.9881 124.1073,8.0081 L124.2563,8.0081 L128.4593,15.5011 C128.7303,15.9711 129.2503,16.3411 129.7443,16.3411 L130.2153,16.3411 C130.7333,16.3411 131.1783,16.0691 131.5003,15.5011 L135.6773,8.0081 L135.8273,8.0081 C135.7523,9.8651 135.7283,11.0261 135.7523,11.4701 C135.7773,11.7181 135.8513,14.0911 136.0003,18.6161 C136.0003,19.1111 136.3943,19.4831 136.8653,19.4831 L138.6443,19.4831 C139.1153,19.4831 139.4853,19.1111 139.4853,18.6161 L138.8923,2.5201 C138.8923,2.0521 138.5213,1.6801 138.0273,1.6801" id="Fill-183"></path>
                    <path d="M149.5391,1.6801 L147.7601,1.6801 C147.2901,1.6801 146.9191,2.0521 146.9191,2.5461 L146.9191,18.6411 C146.9191,19.1111 147.2901,19.4831 147.7601,19.4831 L149.5391,19.4831 C150.0101,19.4831 150.3801,19.1111 150.3801,18.6411 L150.3801,2.5461 C150.3801,2.0521 150.0101,1.6801 149.5391,1.6801" id="Fill-185"></path>
                    <path d="M169.6367,16.3158 L162.4567,16.3158 L162.4567,2.5458 C162.4567,2.0768 162.0857,1.6798 161.6167,1.6798 L159.8367,1.6798 C159.3667,1.6798 158.9957,2.0768 158.9957,2.5458 L158.9957,18.6408 C158.9957,19.1108 159.3667,19.4828 159.8367,19.4828 L169.6367,19.4828 C170.1057,19.4828 170.4767,19.1108 170.4767,18.6408 L170.4767,17.1568 C170.4767,16.6868 170.1057,16.3158 169.6367,16.3158" id="Fill-187"></path>
                    <path d="M189.4473,4.8695 C189.9163,4.8695 190.2873,4.4485 190.2873,4.0285 L190.2873,2.5465 C190.2873,2.0765 189.9163,1.6805 189.4473,1.6805 L177.9513,1.6805 C177.4803,1.6805 177.1103,2.0765 177.1103,2.5465 L177.1103,18.6405 C177.1103,19.1105 177.4803,19.4825 177.9513,19.4825 L189.4473,19.4825 C189.9163,19.4825 190.2873,19.1105 190.2873,18.6405 L190.2873,17.1565 C190.2873,16.6865 189.9163,16.3155 189.4473,16.3155 L180.5713,16.3155 L180.5713,11.9645 L188.3093,11.9645 C188.7793,11.9645 189.1763,11.5945 189.1763,11.1245 L189.1763,9.6415 C189.1763,9.1725 188.7793,8.7755 188.3093,8.7755 L180.5713,8.7755 L180.5713,4.8695 L189.4473,4.8695 Z" id="Fill-189"></path>
                    <path d="M29.9297,12.1908 L22.5687,12.1908 L22.5687,15.6518 L29.9297,15.6518 C30.4247,15.6518 30.7957,15.2818 30.7957,14.8118 L30.7957,13.0318 C30.7957,12.5618 30.4247,12.1908 29.9297,12.1908" id="Fill-191"></path>
                    <path d="M9.3418,14.8119 L9.3418,13.0319 C9.3418,12.5619 9.7128,12.1909 10.1838,12.1909 L22.5688,12.1909 L22.5688,1.4159 C22.5688,0.8699 22.1198,0.4199 21.5718,0.4199 L1.6098,0.4199 C1.0608,0.4199 0.6128,0.8699 0.6128,1.4159 L0.6128,20.8829 C0.6128,21.4299 1.0608,21.8779 1.6098,21.8779 L21.5718,21.8779 C22.1198,21.8779 22.5688,21.4299 22.5688,20.8829 L22.5688,15.6519 L10.1838,15.6519 C9.7128,15.6519 9.3418,15.2819 9.3418,14.8119" id="Fill-193"></path>
                </g>
            </g>
        </g>
    </g>
</svg>