<?xml version="1.0" encoding="UTF-8" standalone="no"?>
<!-- Created with Inkscape (http://www.inkscape.org/) -->
<svg id="svg2" xmlns:rdf="http://www.w3.org/1999/02/22-rdf-syntax-ns#" xmlns="http://www.w3.org/2000/svg" xml:space="preserve" viewBox="0 0 4519.5 1589.3" version="1.1" xmlns:cc="http://creativecommons.org/ns#" xmlns:dc="http://purl.org/dc/elements/1.1/"><metadata id="metadata8"><rdf:RDF><cc:Work rdf:about=""><dc:format>image/svg+xml</dc:format><dc:type rdf:resource="http://purl.org/dc/dcmitype/StillImage"/><dc:title/></cc:Work></rdf:RDF></metadata><g id="g10" transform="matrix(1.25,0,0,-1.25,0,1589.3125)"><g id="g12" fill-rule="nonzero" fill="#FFF" transform="scale(0.246489,0.246489)"><path id="path14" d="m1340.2,1317.7,518.9,575.72,4034.7,2221.7,396.33,77.88-4950-2875.3"/><path id="path16" d="M2394.1,3755.1,0,4512.2l1331.4,24.06,1062.7-781.16m2991.5,723.91-832.53,115.45,1402.2,25.33-569.72-140.78"/><path id="path18" d="m1611.8,1757.2,735.17,1075.1,105.81,711.28,4193.4,985.76-752.29-414.24-3049.6-599.26-434.42-1011.5-550.68-610.97-247.39-136.23"/><path id="path20" d="m1859.1,1893.4,550.68,610.97,434.42,1011.5,3049.6,599.26-4034.7-2221.7"/><path id="path22" d="m2426.6,3731.2-32.44,23.85,27.16-8.59,2964.4,732.5,205.6-28.5-3164.7-719.26m-1095.2,805.01-846.2,622,2307.5-319.69,1760.4-244.11-3221.7-58.2"/><path id="path24" d="m2421.3,3746.5-27.16,8.59-1062.7,781.16,3221.7,58.2,832.53-115.45-2964.4-732.5"/><path id="path26" d="m10593,3661.5,226.3,31.14-78-440.51-222-30.62,73.7,439.99zm-275-2820.5c-40-229.95-63-280.74-550.2-658.45l-116.47,159.68c373.31,304.07,420.21,339.16,455.61,541.77l351,1986.7,225.7,31.03-366.1-2060.7"/><path id="path28" d="m12004,2488.8c0,171.7-112.8,249.37-311.2,249.37-339.4,0-517.9-175.52-584.7-549.52l-42.5-241.2s73.6,19.23,440,116.76c354.8,93.73,498.4,222.08,498.4,424.59zm-1021-1004.7c-3.7-35.69-7.2-70.32-7.2-101.89,0-159.78,61.8-241.71,326.7-241.71,218.6,0,436.5,74.27,670.2,183.5l54.8-167.57c-230-120.79-494.8-206.43-751.5-206.43-355.2,0-441.2,151-518.8,428.19-6.7,23.81,2.4,92.52,20.2,187.3l112,639.11c86.4,482.79,335.9,720.69,822.5,720.69,307.8,0,502.8-155.76,502.8-440.19,0-304.19-202.6-467.92-721.2-612.1-366-101.06-463.5-128.27-463.5-128.27l-47-260.63"/><path id="path30" d="m12433,1203.2c0,23.26,4.1,47.17,7.8,74.26l249,1421.5h-362.2l30.8,187.2h366.1l81.9,463.39,221.7,31.02-85.4-494.41h569.2l-43.2-187.2h-561.1l-244.7-1398.4c-4.6-27.41-8.7-50.25-8.7-70.53,0-73.64,38.5-92.87,128.6-92.87,105.6,0,237.6,30.82,378.2,89.24l54.8-147.71c-144.6-81.789-308.2-128.73-471.8-128.73-190.4,0-311.5,81.5-311.5,253.18"/><path id="path32" d="m4477.7,2687.4c249.05,136.13,544.97,237.9,767.05,237.9,198.59,0,295.91-101.77,331.09-241.51,268.37,155.45,561.2,241.51,779.22,241.51,260.74,0,346.71-171.8,346.71-378.04,0-66.09-7.67-128.77-19.88-186.69l-240.98-1371.7h-467.49l237.25,1351.8c3.94,19.85,3.94,42.61,3.94,51.2,0,49.95-23.49,80.98-97.21,80.98-124.75,0-389.55-116.77-564.73-221.76l-222.36-1262.3h-467.73l237.99,1351.8c4.25,19.85,4.25,42.61,4.25,51.2,0,49.95-23.2,80.98-97.65,80.98-124.55,0-389.51-116.77-565.13-221.76l-222-1262.1h-467.21l251.23,1417.5"/><path id="path34" d="m8018.8,2504.2c-85.97,15.92-171.16,27.4-268.81,27.4-299.93,0-358.92-124.74-401.03-373.67l-117.13-666.21c-3.73-23.77-3.73-35.16-3.73-46.75,0-70.33,42.76-101.46,128.48-101.46,147.64,0,361.97,140.56,506.23,284.32l155.99,876.37zm199.2-1515.4-394.14,0-4.25,210.38c-163.2-148.2-366.3-249.18-618.9-249.18-327.43,0-440.58,175.1-440.58,432.21,0,62.79,8.07,128.88,19.96,198.81l96.92,553.25c89.58,514.44,210.68,791.02,942.56,791.02,183.29,0,522.61-58.34,716.86-121.02l-318.5-1815.3"/><path id="path36" d="m8981,3661.5,478.84,65.89-92.86-529.66-479.18-70.02,93.2,533.79zm-143.79-810.16,479.09,65.57-339.04-1928-467.4,0,327.35,1862.5"/><path id="path38" d="m9760.2,3661.5,478.82,65.89-482.52-2738.5-467.68,0,471.38,2672.6"/><path id="path40" d="m13952,2586.1-39.5,0,74.4,423.95-141.3,0,6.4,35.16,322,0-6.4-35.16-141.3,0-74.3-423.95"/><path id="path42" d="m14625,3005.9-195.4-361.27-65.7,0-68.8,361.27-84.4-419.81-39.1,0,95,459.11,57.2,0,75.9-377.4,206.7,377.4,62.2,0-67.1-459.11-39.2,0,62.7,419.81"/></g></g></svg>
