<svg width="200" height="69" viewBox="0 0 200 69" version="1.1" xmlns="http://www.w3.org/2000/svg" xmlns:xlink="http://www.w3.org/1999/xlink" xmlns:figma="http://www.figma.com/figma/ns">
<title>man-ahl-logo</title>
<desc>Created using Figma</desc>
<g id="Canvas" transform="translate(-250 -105)" figma:type="canvas">
<g id="man-ahl-logo" style="mix-blend-mode:normal;" figma:type="frame">
<g id="Group" style="mix-blend-mode:normal;" figma:type="frame">
<g id="Vector" style="mix-blend-mode:normal;" figma:type="vector">
<use xlink:href="#path0_fill" transform="translate(327.869 105)" fill="#004C93" style="mix-blend-mode:normal;"/>
</g>
<g id="Vector" style="mix-blend-mode:normal;" figma:type="vector">
<use xlink:href="#path1_fill" transform="translate(250 105)" fill="#004C93" style="mix-blend-mode:normal;"/>
</g>
<g id="Vector" style="mix-blend-mode:normal;" figma:type="vector">
<use xlink:href="#path2_fill" transform="translate(368.852 111.102)" fill="#76C9DF" style="mix-blend-mode:normal;"/>
</g>
<g id="Vector" style="mix-blend-mode:normal;" figma:type="vector">
<use xlink:href="#path3_fill" transform="translate(346.539 122.122)" fill="#00A2C7" style="mix-blend-mode:normal;"/>
</g>
<g id="Vector" style="mix-blend-mode:normal;" figma:type="vector">
<use xlink:href="#path4_fill" transform="translate(389.344 107.437)" fill="#76C9DF" style="mix-blend-mode:normal;"/>
</g>
<g id="Vector" style="mix-blend-mode:normal;" figma:type="vector">
<use xlink:href="#path5_fill" transform="translate(379.053 111.069)" fill="#00A2C7" style="mix-blend-mode:normal;"/>
</g>
<g id="Vector" style="mix-blend-mode:normal;" figma:type="vector">
<use xlink:href="#path6_fill" transform="translate(357.923 122.031)" fill="#007EB4" style="mix-blend-mode:normal;"/>
</g>
<g id="Vector" style="mix-blend-mode:normal;" figma:type="vector">
<use xlink:href="#path7_fill" transform="translate(387.978 115.656)" fill="#007EB4" style="mix-blend-mode:normal;"/>
</g>
<g id="Vector" style="mix-blend-mode:normal;" figma:type="vector">
<use xlink:href="#path8_fill" transform="translate(374.954 122.942)" fill="#0069A2" style="mix-blend-mode:normal;"/>
</g>
<g id="Vector" style="mix-blend-mode:normal;" figma:type="vector">
<use xlink:href="#path9_fill" transform="translate(337.432 133.78)" fill="#76C9DF" style="mix-blend-mode:normal;"/>
</g>
<g id="Vector" style="mix-blend-mode:normal;" figma:type="vector">
<use xlink:href="#path10_fill" transform="translate(419.945 118.479)" fill="#76C8DE" style="mix-blend-mode:normal;"/>
</g>
<g id="Vector" style="mix-blend-mode:normal;" figma:type="vector">
<use xlink:href="#path11_fill" transform="translate(420.492 118.479)" fill="#76C8DE" style="mix-blend-mode:normal;"/>
</g>
<g id="Vector" style="mix-blend-mode:normal;" figma:type="vector">
<use xlink:href="#path12_fill" transform="translate(395.719 118.843)" fill="#0069A2" style="mix-blend-mode:normal;"/>
</g>
<g id="Vector" style="mix-blend-mode:normal;" figma:type="vector">
<use xlink:href="#path13_fill" transform="translate(384.335 124.581)" fill="#00508B" style="mix-blend-mode:normal;"/>
</g>
<g id="Vector" style="mix-blend-mode:normal;" figma:type="vector">
<use xlink:href="#path14_fill" transform="translate(337.432 139.608)" fill="#00A2C7" style="mix-blend-mode:normal;"/>
</g>
<g id="Vector" style="mix-blend-mode:normal;" figma:type="vector">
<use xlink:href="#path15_fill" transform="translate(412.113 121.211)" fill="#76C8DE" style="mix-blend-mode:normal;"/>
</g>
<g id="Vector" style="mix-blend-mode:normal;" figma:type="vector">
<use xlink:href="#path16_fill" transform="translate(394.353 123.397)" fill="#76C8DE" style="mix-blend-mode:normal;"/>
</g>
<g id="Vector" style="mix-blend-mode:normal;" figma:type="vector">
<use xlink:href="#path17_fill" transform="translate(337.432 145.073)" fill="#007EB4" style="mix-blend-mode:normal;"/>
</g>
<g id="Vector" style="mix-blend-mode:normal;" figma:type="vector">
<use xlink:href="#path18_fill" transform="translate(402.095 118.57)" fill="#00508B" style="mix-blend-mode:normal;"/>
</g>
<g id="Vector" style="mix-blend-mode:normal;" figma:type="vector">
<use xlink:href="#path19_fill" transform="translate(416.211 118.661)" fill="#76C8DE" style="mix-blend-mode:normal;"/>
</g>
<g id="Vector" style="mix-blend-mode:normal;" figma:type="vector">
<use xlink:href="#path20_fill" transform="translate(394.353 123.397)" fill="#00407B" style="mix-blend-mode:normal;"/>
</g>
<g id="Vector" style="mix-blend-mode:normal;" figma:type="vector">
<use xlink:href="#path21_fill" transform="translate(414.39 140.883)" fill="#004C93" style="mix-blend-mode:normal;"/>
</g>
<g id="Vector" style="mix-blend-mode:normal;" figma:type="vector">
<use xlink:href="#path22_fill" transform="translate(435.792 140.96)" fill="#004C93" style="mix-blend-mode:normal;"/>
</g>
<g id="Vector" style="mix-blend-mode:normal;" figma:type="vector">
<use xlink:href="#path23_fill" transform="translate(389.344 140.519)" fill="#004C93" style="mix-blend-mode:normal;"/>
</g>
<g id="Vector" style="mix-blend-mode:normal;" figma:type="vector">
<use xlink:href="#path24_fill" transform="translate(337.432 124.581)" fill="#76C9DF" style="mix-blend-mode:normal;"/>
</g>
<g id="Vector" style="mix-blend-mode:normal;" figma:type="vector">
<use xlink:href="#path25_fill" transform="translate(337.432 107.55)" fill="#004C93" style="mix-blend-mode:normal;"/>
</g>
</g>
</g>
</g>
<defs>
<path id="path0_fill" d="M 1.18397 67.8506L 0 67.8506L 0 0L 1.18397 0L 1.18397 67.8506Z"/>
<path id="path1_fill" d="M 24.5902 38.7067C 15.3005 25.9563 15.3005 25.9563 15.3005 25.9563C 15.3005 38.7067 15.3005 38.7067 15.3005 38.7067C 0 38.7067 0 38.7067 0 38.7067C 0 0 0 0 0 0C 20.0364 0 20.0364 0 20.0364 0C 29.5993 12.9326 29.5993 12.9326 29.5993 12.9326C 38.98 0 38.98 0 38.98 0C 59.0164 0 59.0164 0 59.0164 0C 59.0164 38.7067 59.0164 38.7067 59.0164 38.7067C 43.7158 38.7067 43.7158 38.7067 43.7158 38.7067C 43.7158 25.9563 43.7158 25.9563 43.7158 25.9563C 34.4262 38.7067 34.4262 38.7067 34.4262 38.7067L 24.5902 38.7067ZM 39.3443 57.8324C 38.8889 58.561 37.9781 58.561 37.5228 58.7432C 33.6976 59.3807 29.1439 59.3807 29.1439 62.8415C 29.1439 65.1184 30.9654 66.3024 33.2423 66.3024C 36.4299 66.3024 39.4353 64.2987 39.4353 60.8379L 39.4353 57.8324L 39.3443 57.8324ZM 40.5282 67.8506C 40.0729 67.8506 39.4353 67.3953 39.4353 66.7577C 39.4353 65.3916 39.4353 65.3916 39.4353 65.3916C 37.796 67.3953 36.4299 68.306 32.969 68.306C 29.5082 68.306 26.776 66.4845 26.776 63.0237C 26.776 58.0146 31.7851 57.5592 36.612 56.8306C 38.4335 56.8306 39.3443 56.3752 39.3443 54.2805C 39.3443 51.7304 36.7942 51.0929 34.3352 51.0929C 31.6029 51.0929 29.0528 52.1858 28.8707 55.1913C 27.9599 55.1913 27.9599 55.1913 27.9599 55.1913C 27.9599 55.1913 26.867 55.1913 27.0492 53.8251C 27.7778 50.6375 30.8743 49.2714 34.5173 49.2714C 37.7049 49.2714 41.6211 50.1821 41.6211 54.918C 41.6211 64.4809 41.6211 64.4809 41.6211 64.4809C 41.6211 66.4845 41.8033 67.6685 41.8033 67.6685L 40.5282 67.6685L 40.5282 67.8506ZM 45.5373 49.9089C 46.6302 49.9089 46.6302 49.9089 46.6302 49.9089C 46.6302 51.9126 46.6302 51.9126 46.6302 51.9126C 47.7231 49.9089 50.7286 49.3625 52.0947 49.3625C 57.1038 49.3625 58.9253 53.0055 58.9253 56.1931C 58.9253 66.6667 58.9253 66.6667 58.9253 66.6667C 58.9253 67.3953 58.4699 67.7596 57.8324 67.7596C 56.7395 67.7596 56.7395 67.7596 56.7395 67.7596C 56.7395 56.6485 56.7395 56.6484 56.7395 56.6484C 56.7395 53.4608 55.6466 51.3661 52.0036 51.3661C 48.816 51.3661 46.7213 53.9162 46.7213 57.286C 46.7213 67.7596 46.7213 67.7596 46.7213 67.7596C 45.6284 67.7596 45.6284 67.7596 45.6284 67.7596C 44.8998 67.7596 44.5355 67.3042 44.5355 66.6667C 44.5355 51.0018 44.5355 51.0018 44.5355 51.0018C 44.4444 50.2732 44.8087 49.9089 45.5373 49.9089ZM 20.9472 44.6266C 21.1293 44.1712 21.6758 43.898 22.0401 43.898C 23.133 43.898 23.133 43.898 23.133 43.898C 23.8616 43.898 24.2259 44.3534 24.2259 44.9909C 24.2259 66.6667 24.2259 66.6667 24.2259 66.6667C 24.2259 67.3953 23.7705 67.7596 23.133 67.7596C 22.0401 67.7596 22.0401 67.7596 22.0401 67.7596C 22.0401 46.9945 22.0401 46.9945 22.0401 46.9945C 13.388 67.7596 13.388 67.7596 13.388 67.7596C 11.1111 67.7596 11.1111 67.7596 11.1111 67.7596C 2.27687 47.1767 2.27687 47.1767 2.27687 47.1767C 2.27687 67.9417 2.27687 67.9417 2.27687 67.9417C 1.18397 67.9417 1.18397 67.9417 1.18397 67.9417C 0.455373 67.8506 0 67.3953 0 66.6667C 0 44.9909 0 44.9909 0 44.9909C 0 44.2623 0.455373 43.898 1.0929 43.898C 2.18579 43.898 2.18579 43.898 2.18579 43.898C 2.64117 43.898 3.09654 44.0801 3.27869 44.6266C 12.204 65.1184 12.204 65.1184 12.204 65.1184L 20.9472 44.6266Z"/>
<path id="path2_fill" d="M 11.8397 8.6521C 14.5719 4.82696 17.4863 1.82149 20.4918 -1.73711e-07C 13.9344 0.455373 7.28597 2.91439 1.82149 10.4736C 1.0929 11.3843 0.455373 12.4772 0 13.388C 3.46084 11.7486 6.8306 11.1111 10.2004 10.8379C 10.6557 10.2914 11.2022 9.38069 11.8397 8.6521Z"/>
<path id="path3_fill" d="M 0 39.5264C 11.3843 32.969 11.3843 32.969 11.3843 32.969C 24.5902 24.3169 20.9472 17.3042 32.5137 -6.94845e-07C 29.0528 0.182149 25.6831 0.910747 22.3133 2.55009C 16.2113 13.1148 18.2149 24.9545 0 39.5264Z"/>
<path id="path4_fill" d="M 39.6175 6.21489C 49.9089 0.295031 49.9089 0.295031 49.9089 0.295031C 36.0656 8.49175 16.6667 -6.53557 0 3.75587C 14.1166 3.02727 29.326 11.9526 39.6175 6.21489Z"/>
<path id="path5_fill" d="M 1.63934 8.68525C 0.910747 9.41385 0.546445 10.3246 -2.77938e-06 10.9621C 2.91439 10.9621 5.91985 11.1443 8.65209 11.8729C 21.5847 -1.05974 33.6976 11.8729 46.7213 4.40474C 49.9089 2.58325 49.9089 2.58325 49.9089 2.58325C 39.7086 8.22988 24.408 -0.604363 10.2914 0.0331592C 7.37705 1.94573 4.37158 4.86012 1.63934 8.68525Z"/>
<path id="path6_fill" d="M 18.4882 19.8543C 22.3133 10.5647 26.2295 4.55373 30.1457 0.910747C 27.2313 0.18215 24.2259 6.94845e-07 21.2204 6.94845e-07C 9.56284 17.3953 13.2058 24.408 0 33.0601C 17.122 23.0419 17.122 23.0419 17.122 23.0419C 17.5774 22.1311 17.9417 21.0383 18.4882 19.8543Z"/>
<path id="path7_fill" d="M 0 7.37705C 2.55009 7.83242 5.00911 8.2878 7.74135 9.01639C 17.031 1.73042 25.2277 6.73953 32.1494 3.36976C 32.3315 3.18761 32.6047 3.18761 32.878 2.91439C 37.8871 -4.34278e-07 37.8871 -1.73711e-07 37.8871 -1.73711e-07C 24.8634 7.37705 12.7505 -5.64663 0 7.37705Z"/>
<path id="path8_fill" d="M -2.77938e-06 22.1311C 9.28961 16.6667 9.28961 16.6667 9.28961 16.6667C 13.1147 8.92532 17.031 4.37158 20.6739 1.63934C 17.9417 0.910747 15.3916 0.546449 12.9326 6.94845e-07C 9.10746 3.64299 5.19126 9.56284 1.27505 18.9435C 0.910752 20.1275 0.546445 21.2204 -2.77938e-06 22.1311Z"/>
<path id="path9_fill" d="M 42.0765 16.7577C 36.612 31.1475 22.4954 23.3151 1.29425e-14 33.3333C 23.6794 24.0437 41.439 37.4317 48.4517 18.0328C 51.3661 10.0182 54.0984 4.18944 56.8306 3.47422e-07C 46.8124 5.64663 46.8124 5.64663 46.8124 5.64663C 45.3552 9.01639 43.7158 12.6594 42.0765 16.7577Z"/>
<path id="path10_fill" d="M 0.546445 0.182149L 0.728592 1.73711e-07C 0.546443 0.18215 0.27323 0.18215 5.55876e-06 0.455374C 0.182155 0.364299 0.364296 0.182149 0.546445 0.182149Z"/>
<path id="path11_fill" d="M -2.77938e-06 0.182149C 0.182147 0 0.182144 1.73711e-07 0.182144 1.73711e-07L -2.77938e-06 0.182149Z"/>
<path id="path12_fill" d="M 24.408 -1.73711e-07C 17.5774 3.46084 9.38069 -1.63934 0 5.64663C 2.00364 5.82878 4.09836 6.37523 6.37523 6.37523C 12.5683 2.09472 18.3971 3.00546 24.408 -1.73711e-07Z"/>
<path id="path13_fill" d="M 0 15.0273C 10.0182 9.38069 10.0182 9.38069 10.0182 9.38069C 12.7505 5.28233 15.3005 2.55009 17.7596 0.728597C 15.4827 0.728597 13.388 0.273224 11.3843 0C 7.74135 2.73224 3.91621 7.28597 0 15.0273Z"/>
<path id="path14_fill" d="M 42.0765 10.929C 43.7158 6.8306 45.2641 3.18761 46.8124 0C 37.5228 5.46448 37.5228 5.46448 37.5228 5.46448C 29.7814 21.4025 23.133 15.0273 1.29425e-14 27.5045C 22.5865 17.4863 36.612 25.3188 42.0765 10.929Z"/>
<path id="path15_fill" d="M 0 2.18579L 4.09836 -6.94845e-07L 0 2.18579Z"/>
<path id="path16_fill" d="M 0 10.5647L 17.7596 6.94845e-07L 0 10.5647Z"/>
<path id="path17_fill" d="M 37.5228 0C -3.47422e-06 22.0401 0 22.0401 0 22.0401C 23.224 9.56284 29.8725 15.9381 37.5228 0Z"/>
<path id="path18_fill" d="M 10.0182 4.82696C 14.1166 2.55009 14.1166 2.55009 14.1166 2.55009C 18.4882 6.51417e-07 18.4882 -3.47422e-07 18.4882 -3.47422e-07C 18.306 -3.47422e-07 18.0328 0.18215 18.0328 0.18215C 12.1129 3.09654 6.19308 2.18579 0 6.55738C 3.46084 6.92168 6.8306 6.64845 10.0182 4.82696Z"/>
<path id="path19_fill" d="M 0 2.55009L 4.28051 0L 0 2.55009Z"/>
<path id="path20_fill" d="M 7.74135 1.82149C 5.19126 3.64299 2.73224 6.37523 0 10.4736C 17.7596 8.68556e-07 17.7596 6.94845e-07 17.7596 6.94845e-07C 14.5719 1.82149 11.2022 2.09472 7.74135 1.82149Z"/>
<path id="path21_fill" d="M 14.8452 1.63934C 14.8452 0.546449 15.3006 1.38969e-06 16.4845 1.38969e-06C 16.9399 1.38969e-06 17.2131 1.38969e-06 17.5774 1.38969e-06C 17.7596 0.182151 18.0328 0.182148 18.0328 0.182148C 18.0328 21.5847 18.0328 21.5847 18.0328 21.5847C 14.8452 21.5847 14.8452 21.5847 14.8452 21.5847C 14.8452 11.7486 14.8452 11.7486 14.8452 11.7486C 3.46084 11.7486 3.46084 11.7486 3.46084 11.7486C 3.46084 21.5847 3.46084 21.5847 3.46084 21.5847C 2.82281e-06 21.5847 0 21.5847 0 21.5847C 0 1.54827 0 1.54827 0 1.54827C 0 0.819671 0 0.455372 0.455373 0.182148C 0.637523 -1.39783e-06 1.18397 1.38969e-06 1.82149 1.38969e-06C 2.00364 1.38969e-06 2.55009 1.38969e-06 2.73224 1.38969e-06C 2.91439 0.182151 3.18762 0.182148 3.46084 0.182148C 3.46084 8.83424 3.46084 8.83424 3.46084 8.83424C 14.8452 8.83424 14.8452 8.83424 14.8452 8.83424L 14.8452 1.63934Z"/>
<path id="path22_fill" d="M 0 1.56284C 0 0.834245 0.182149 0.469946 0.455373 0.196722C 0.728597 -0.076502 1.18397 0.0145719 1.82149 0.0145719C 2.27687 0.0145719 2.55009 0.0145719 2.73224 0.0145719C 3.18761 0.196721 3.46084 0.196722 3.46084 0.196722C 3.46084 18.5938 3.46084 18.5938 3.46084 18.5938C 14.2077 18.5938 14.2077 18.5938 14.2077 18.5938C 14.2077 21.5082 14.2077 21.5082 14.2077 21.5082C 0.0910802 21.5082 0.0910802 21.5082 0.0910802 21.5082L 0.0910802 1.56284L 0 1.56284Z"/>
<path id="path23_fill" d="M 10.929 0C 13.6612 0 14.5719 3.64299 15.6648 6.37523C 17.031 9.10747 22.0401 22.0401 22.0401 22.0401C 18.5792 22.0401 18.5792 22.0401 18.5792 22.0401C 16.5756 16.3934 16.5756 16.3934 16.5756 16.3934C 5.46448 16.3934 5.46448 16.3934 5.46448 16.3934C 3.46084 22.0401 3.46084 22.0401 3.46084 22.0401C 2.82281e-06 22.0401 2.5885e-14 22.0401 2.5885e-14 22.0401C 2.5885e-14 22.0401 5.00911 9.10747 6.37523 6.37523C 7.46812 3.64299 8.37887 0 10.929 0ZM 10.929 3.18761C 10.7468 3.18761 6.55737 13.388 6.55737 13.388C 15.2095 13.388 15.2095 13.388 15.2095 13.388C 15.2095 13.388 11.1111 3.18761 10.929 3.18761Z"/>
<path id="path24_fill" d="M 31.4208 0C 28.8707 1.36612 26.1384 3.18761 23.6794 5.64663C 11.8397 17.3042 21.4026 28.4153 0 42.2587C 9.10747 36.9763 9.10747 36.9763 9.10747 36.9763C 27.3224 22.4954 25.3188 10.6557 31.4208 0Z"/>
<path id="path25_fill" d="M 0 59.8361L 0 59.3807L 101.821 -4.34278e-08L 101.821 0.364299L 0 59.8361Z"/>
</defs>
</svg>
