<?xml version="1.0" encoding="UTF-8" standalone="no"?>
<svg width="300px" height="103px" viewBox="0 0 300 103" version="1.1" xmlns="http://www.w3.org/2000/svg" xmlns:xlink="http://www.w3.org/1999/xlink" xmlns:sketch="http://www.bohemiancoding.com/sketch/ns">
    <!-- Generator: Sketch 3.4.2 (15855) - http://www.bohemiancoding.com/sketch -->
    <title>manahl-logo</title>
    <desc>Created with Sketch.</desc>
    <defs></defs>
    <g id="Logos" stroke="none" stroke-width="1" fill="none" fill-rule="evenodd" sketch:type="MSPage">
        <g id="Artboard-1" sketch:type="MSArtboardGroup" transform="translate(-699.000000, -192.000000)">
            <g id="manahl-logo" sketch:type="MSLayerGroup" transform="translate(699.000000, 192.000000)">
                <g id="Layer_1" transform="translate(115.909091, 0.000000)"></g>
                <rect id="Rectangle-path" fill="#FFFFFF" sketch:type="MSShapeGroup" x="116.454545" y="0" width="1.63636364" height="101.727273"></rect>
                <path d="M36.6818182,57.9545455 L22.9090909,38.8636364 L22.9090909,57.9545455 L0,57.9545455 L0,0 L30.1363636,0 L44.1818182,19.6363636 L58.0909091,0 L88.2272727,0 L88.2272727,57.9545455 L65.3181818,57.9545455 L65.3181818,38.8636364 L51.5454545,57.9545455 L36.6818182,57.9545455 L36.6818182,57.9545455 Z M58.9090909,86.8636364 L58.9090909,86.8636364 C58.3636364,87.6818182 56.8636364,87.9545455 56.0454545,88.0909091 C50.4545455,89.0454545 43.6363636,89.0454545 43.6363636,94.2272727 C43.6363636,97.5 46.5,99.5454545 49.6363636,99.5454545 C54.6818182,99.5454545 59.0454545,96.4090909 59.0454545,91.0909091 L58.9090909,86.8636364 L58.9090909,86.8636364 L58.9090909,86.8636364 Z M60.6818182,101.727273 C59.7272727,101.727273 59.0454545,101.045455 59.0454545,100.090909 L58.9090909,98.0454545 C56.4545455,100.909091 54.5454545,102.272727 49.3636364,102.272727 C44.3181818,102.272727 40.3636364,99.8181818 40.3636364,94.5 C40.3636364,87.1363636 47.7272727,86.3181818 54.8181818,85.5 C57.5454545,85.2272727 59.0454545,84.5454545 59.0454545,81.6818182 C59.0454545,78 55.3636364,76.7727273 51.4090909,76.7727273 C47.3181818,76.7727273 43.6363636,78.6818182 43.5,82.9090909 L41.8636364,82.9090909 C41.8636364,82.9090909 40.0909091,82.9090909 40.5,81 C41.5909091,76.0909091 46.3636364,74.0454545 51.8181818,74.0454545 C56.5909091,74.0454545 62.3181818,75.4090909 62.3181818,82.6363636 L62.3181818,96.8181818 C62.3181818,99.9545455 62.7272727,101.727273 62.7272727,101.727273 L60.6818182,101.727273 L60.6818182,101.727273 Z M68.0454545,74.8636364 L69.6818182,74.8636364 L69.6818182,77.7272727 L69.8181818,77.7272727 C71.5909091,74.5909091 75.9545455,74.0454545 78,74.0454545 C85.5,74.0454545 88.2272727,79.6363636 88.2272727,84.4090909 L88.2272727,99.9545455 C88.2272727,100.909091 87.5454545,101.590909 86.5909091,101.590909 L84.9545455,101.590909 L84.9545455,84.9545455 C84.9545455,80.3181818 83.0454545,77.1818182 77.7272727,77.1818182 C72.9545455,77.1818182 69.8181818,80.7272727 69.6818182,86.0454545 L69.6818182,101.727273 L68.0454545,101.727273 C67.0909091,101.727273 66.4090909,101.045455 66.4090909,100.090909 L66.4090909,76.5 C66.4090909,75.5454545 67.2272727,74.8636364 68.0454545,74.8636364 L68.0454545,74.8636364 Z M31.5,66.9545455 C31.7727273,66.4090909 32.3181818,66 33,66 L34.9090909,66 C35.8636364,66 36.5454545,66.6818182 36.5454545,67.6363636 L36.5454545,99.9545455 C36.5454545,100.909091 35.8636364,101.590909 34.9090909,101.590909 L33.2727273,101.590909 L33.2727273,70.7727273 L20.0454545,101.590909 L16.6363636,101.590909 L3.27272727,70.9090909 L3.27272727,101.727273 L1.63636364,101.727273 C0.681818182,101.727273 7.81597009e-14,100.909091 7.81597009e-14,100.090909 L7.81597009e-14,67.6363636 C7.81597009e-14,66.6818182 0.681818182,66 1.63636364,66 L3.54545455,66 C4.22727273,66 4.77272727,66.4090909 5.04545455,66.9545455 L18.2727273,97.6363636 L31.5,66.9545455 L31.5,66.9545455 Z" id="Shape" fill="#FFFFFF" sketch:type="MSShapeGroup"></path>
                <path d="M195.545455,22.2272727 C199.772727,16.3636364 204.136364,12.2727273 208.772727,9.40909091 C198.681818,9.95454545 188.863636,13.7727273 180.681818,25.0909091 C179.590909,26.5909091 178.636364,27.9545455 177.818182,29.4545455 C183,26.8636364 188.045455,25.9090909 193.090909,25.7727273 C193.909091,24.6818182 194.727273,23.4545455 195.545455,22.2272727" id="Shape" opacity="0.3" fill="#FFFFFF" sketch:type="MSShapeGroup"></path>
                <path d="M144.409091,85.0909091 L161.590909,75.1363636 C181.5,62.0454545 175.909091,51.8181818 193.227273,25.7727273 C188.181818,25.9090909 183.136364,26.8636364 177.954545,29.4545455 C168.818182,45.6818182 171.681818,63.4090909 144.409091,85.0909091" id="Shape" opacity="0.45" fill="#FFFFFF" sketch:type="MSShapeGroup"></path>
                <path d="M267.818182,13.2272727 L283.090909,4.36363636 C262.5,16.5 233.318182,-5.72727273 208.772727,9.40909091 C229.636364,8.31818182 252.409091,21.5454545 267.818182,13.2272727" id="Shape" opacity="0.3" fill="#FFFFFF" sketch:type="MSShapeGroup"></path>
                <path d="M195.545455,22.2272727 C194.727273,23.4545455 193.909091,24.6818182 193.090909,25.7727273 C197.590909,25.6363636 201.954545,26.1818182 206.318182,27 C225.681818,7.5 243.818182,27.1363636 263.181818,15.9545455 L263.181818,15.9545455 L263.181818,15.9545455 L267.818182,13.2272727 C252.409091,21.5454545 229.636364,8.31818182 208.772727,9.40909091 C204.136364,12.2727273 199.772727,16.3636364 195.545455,22.2272727" id="Shape" opacity="0.45" fill="#FFFFFF" sketch:type="MSShapeGroup"></path>
                <path d="M189.272727,55.5 C195.136364,41.5909091 200.863636,32.7272727 206.454545,27 C202.090909,26.1818182 197.727273,25.6363636 193.227273,25.7727273 C175.909091,51.8181818 181.5,62.0454545 161.590909,75.1363636 L187.227273,60.2727273 C187.772727,58.7727273 188.590909,57.2727273 189.272727,55.5" id="Shape" opacity="0.6" fill="#FFFFFF" sketch:type="MSShapeGroup"></path>
                <path d="M206.318182,27 C210.272727,27.6818182 214.090909,28.6363636 217.909091,29.3181818 C231.954545,18.4090909 244.363636,25.9090909 254.454545,21 C254.863636,20.7272727 255.272727,20.5909091 255.681818,20.3181818 L263.181818,15.9545455 C243.818182,27.1363636 225.681818,7.5 206.318182,27" id="Shape" opacity="0.6" fill="#FFFFFF" sketch:type="MSShapeGroup"></path>
                <path d="M187.090909,60.2727273 L201,52.0909091 C206.863636,40.5 212.454545,33.5454545 217.909091,29.3181818 C214.090909,28.6363636 210.272727,27.6818182 206.318182,27 C200.727273,32.5909091 195,41.5909091 189.136364,55.5 C188.590909,57.2727273 187.772727,58.7727273 187.090909,60.2727273" id="Shape" opacity="0.75" fill="#FFFFFF" sketch:type="MSShapeGroup"></path>
                <path d="M193.909091,68.4545455 C185.590909,90 164.454545,78.2727273 130.772727,93.1363636 C166.227273,79.2272727 192.954545,99.4090909 203.590909,70.5 C207.954545,58.5 212.181818,49.7727273 216.272727,43.3636364 L201.136364,52.2272727 C198.681818,56.7272727 196.363636,62.1818182 193.909091,68.4545455" id="Shape" opacity="0.3" fill="#FFFFFF" sketch:type="MSShapeGroup"></path>
                <path id="Shape" fill="#76C8DE" sketch:type="MSShapeGroup" d="M255.818182,20.3181818 L255.818182,20.3181818 L255.681818,20.4545455 C255.681818,20.3181818 255.681818,20.3181818 255.818182,20.3181818"></path>
                <path d="M255.272727,20.5909091 C255.409091,20.5909091 255.545455,20.4545455 255.681818,20.3181818 L255.818182,20.1818182 C255.409091,20.4545455 255,20.7272727 254.590909,20.8636364 C254.727273,20.8636364 255,20.7272727 255.272727,20.5909091 L255.272727,20.5909091 Z" id="Shape" fill="#76C8DE" sketch:type="MSShapeGroup"></path>
                <path id="Shape" fill="#76C8DE" sketch:type="MSShapeGroup" d="M255.272727,20.5909091 L255.681818,20.3181818 C255.545455,20.4545455 255.409091,20.4545455 255.272727,20.5909091 L255.272727,20.5909091 Z"></path>
                <path d="M254.454545,21 C244.363636,25.9090909 231.954545,18.4090909 217.909091,29.3181818 C221.181818,30 224.318182,30.4090909 227.454545,30.6818182 C236.863636,23.8636364 245.727273,25.5 254.454545,21" id="Shape" opacity="0.75" fill="#FFFFFF" sketch:type="MSShapeGroup"></path>
                <path d="M201.136364,52.0909091 L216.272727,43.2272727 C220.227273,37.0909091 223.909091,33.2727273 227.590909,30.5454545 C224.454545,30.4090909 221.318182,29.8636364 218.045455,29.1818182 C212.590909,33.5454545 206.863636,40.5 201.136364,52.0909091" id="Shape" opacity="0.9" fill="#FFFFFF" sketch:type="MSShapeGroup"></path>
                <path d="M193.909091,68.4545455 C196.363636,62.3181818 198.681818,56.8636364 201,52.2272727 L187.090909,60.4090909 C175.5,84.2727273 165.545455,74.7272727 130.772727,93.2727273 C164.454545,78.2727273 185.590909,89.8636364 193.909091,68.4545455" id="Shape" opacity="0.45" fill="#FFFFFF" sketch:type="MSShapeGroup"></path>
                <path d="M242.863636,27.8181818 L249,24.2727273 L242.863636,27.8181818 L242.863636,27.8181818 Z" id="Shape" fill="#76C8DE" sketch:type="MSShapeGroup"></path>
                <path d="M216.136364,43.3636364 L242.863636,27.8181818 L242.863636,27.8181818 L216.136364,43.3636364 Z" id="Shape" fill="#76C8DE" sketch:type="MSShapeGroup"></path>
                <path d="M187.090909,60.2727273 L130.772727,93 C165.545455,74.5909091 175.5,84.1363636 187.090909,60.2727273" id="Shape" opacity="0.6" fill="#FFFFFF" sketch:type="MSShapeGroup"></path>
                <path d="M242.863636,27.8181818 L249,24.2727273 L255.409091,20.5909091 C255.136364,20.7272727 254.863636,20.8636364 254.590909,21 C245.863636,25.5 237,23.8636364 227.590909,30.6818182 C232.909091,30.9545455 237.954545,30.4090909 242.863636,27.8181818" id="Shape" opacity="0.9" fill="#FFFFFF" sketch:type="MSShapeGroup"></path>
                <path d="M248.863636,24.2727273 L255.272727,20.5909091 L248.863636,24.2727273 L248.863636,24.2727273 Z" id="Shape" fill="#76C8DE" sketch:type="MSShapeGroup"></path>
                <path d="M227.590909,30.6818182 C223.909091,33.2727273 220.090909,37.2272727 216.272727,43.3636364 L242.863636,27.8181818 C237.954545,30.4090909 232.909091,30.9545455 227.590909,30.6818182" id="Shape" fill="#FFFFFF" sketch:type="MSShapeGroup"></path>
                <path d="M268.090909,56.3181818 C268.090909,54.6818182 268.909091,53.8636364 270.681818,53.8636364 C271.227273,53.8636364 271.772727,54 272.181818,54.1363636 C272.590909,54.2727273 272.863636,54.4090909 273.136364,54.4090909 L273.136364,86.4545455 L268.090909,86.4545455 L268.090909,71.7272727 L251.181818,71.7272727 L251.181818,86.4545455 L246,86.4545455 L246,56.3181818 C246,55.5 246.272727,54.9545455 246.681818,54.5454545 C247.090909,54.1363636 247.772727,54 248.727273,54 C249.272727,54 249.818182,54.1363636 250.227273,54.2727273 C250.636364,54.4090909 251.045455,54.5454545 251.181818,54.6818182 L251.181818,67.6363636 L268.090909,67.6363636 L268.090909,56.3181818 L268.090909,56.3181818 Z" id="Shape" fill="#FFFFFF" sketch:type="MSShapeGroup"></path>
                <path d="M278.181818,56.3181818 C278.181818,55.5 278.454545,54.9545455 278.863636,54.5454545 C279.272727,54.1363636 279.954545,54 280.909091,54 C281.454545,54 282,54.1363636 282.409091,54.2727273 C282.818182,54.4090909 283.227273,54.5454545 283.363636,54.6818182 L283.363636,82.2272727 L299.181818,82.2272727 L299.181818,86.5909091 L278.181818,86.5909091 L278.181818,56.3181818 L278.181818,56.3181818 Z" id="Shape" fill="#FFFFFF" sketch:type="MSShapeGroup"></path>
                <path d="M225.136364,53.3181818 C229.090909,53.3181818 230.590909,58.7727273 232.227273,62.8636364 C234,66.9545455 241.772727,86.5909091 241.772727,86.5909091 L236.590909,86.5909091 L233.454545,78.1363636 L216.681818,78.1363636 L213.545455,86.5909091 L208.363636,86.5909091 C208.363636,86.5909091 216.136364,66.9545455 217.909091,62.8636364 C219.681818,58.7727273 221.181818,53.3181818 225.136364,53.3181818 M225,58.0909091 C224.590909,58.0909091 218.454545,73.5 218.454545,73.5 L231.409091,73.5 C231.409091,73.6363636 225.409091,58.0909091 225,58.0909091" id="Shape" fill="#FFFFFF" sketch:type="MSShapeGroup"></path>
                <path d="M177.818182,29.4545455 C174,31.3636364 170.181818,34.2272727 166.227273,38.0454545 C148.636364,55.5 162.954545,72.1363636 130.772727,93 L144.272727,85.0909091 C171.681818,63.4090909 168.818182,45.6818182 177.818182,29.4545455" id="Shape" opacity="0.3" fill="#FFFFFF" sketch:type="MSShapeGroup"></path>
                <path d="M130.772727,93.5454545 L130.772727,92.7272727 L283.227273,3.95454545 L283.227273,4.77272727 L130.772727,93.5454545 Z" id="Shape" fill="#FFFFFF" sketch:type="MSShapeGroup"></path>
            </g>
        </g>
    </g>
</svg>