<?xml version="1.0" encoding="UTF-8" standalone="no"?>
<!-- Created with Inkscape (http://www.inkscape.org/) -->
<svg id="svg3384" xmlns:rdf="http://www.w3.org/1999/02/22-rdf-syntax-ns#" xmlns="http://www.w3.org/2000/svg" viewBox="0 0 360 45" version="1.0" xmlns:cc="http://creativecommons.org/ns#" xmlns:dc="http://purl.org/dc/elements/1.1/">
 <defs id="defs3386"></defs>
 <metadata id="metadata3389">
  <rdf:RDF>
   <cc:Work rdf:about="">
    <dc:format>image/svg+xml</dc:format>
    <dc:type rdf:resource="http://purl.org/dc/dcmitype/StillImage"/>
    <dc:title/>
    <dc:date>2008.11.23</dc:date>
    <dc:creator>
     <cc:Agent>
      <dc:title>McKinsey &amp; Company</dc:title>
     </cc:Agent>
    </dc:creator>
    <dc:source>Frank Trampe</dc:source>
   </cc:Work>
  </rdf:RDF>
 </metadata>
 <g id="layer1">
  <path id="path157" fill-rule="nonzero" fill="#ffffff" d="m210.59,5.6133c-8.1297,0-13.555,6.3359-13.555,15.039,0,8.3234,4.9594,13.555,12.852,13.555,5.1375,0,9.15-2.5344,10.625-4.9609l-0.74219-0.85938c-1.6172,2.1891-5.1031,3.7891-8.6719,3.7891-6.3766,0-10.195-5.3359-10.195-13.281,0-7.6562,3.7156-11.953,9.8047-11.953,4.7047,0,7.4203,2.4016,8.75,7.1094h0.82032l-0.29-8.1252h-0.78125c-0.28594,0.57031-0.77188,0.82031-1.4844,0.82031-1.6188,0-3.1047-1.1328-7.1484-1.1328zm-201.06,0.664v0.82031c1.4266,0.2875,3.5016,0.64844,3.3594,3.7891l-0.85938,16.68c-0.19062,3.5656-1.2,4.8719-3.6719,5.1562v0.82031h8.75v-0.82031c-2.6625-0.475-3.4234-1.4031-3.2812-4.9219l0.78125-16.758,8.75,22.305h1.0938l8.5547-22.305,0.82031,17.852c0.14375,2.7609-0.61094,3.5906-2.6562,3.8281v0.82031h9.8438v-0.82031c-2.4266-0.2375-3.3719-1.3703-3.5156-4.6484l-0.821-17.071c-0.094-2.4735,0.947-3.5235,3.086-3.711v-0.85938h-6.7969l-8.0469,20.977-8.2031-21.133h-7.1875zm48.711,0,0,0.82031c2.95,0.2375,3.125,0.85156,3.125,7.8906v9.4141c0,7.6109-0.31563,8.0828-3.125,8.3203v0.82031h9.7656v-0.82031c-3.0938-0.425-3.0859-0.65-3.0859-8.8281v-1.5234l1.2891-1.4453c3.2344,3.9953,6.7109,8.3844,10.469,12.617h6.4844,8.9844v-0.82031c-2.6641-0.1875-2.7344-0.13906-2.7344-6.1328v-10.039h-6.3672v0.82031c2.7562,0.09688,3.0859,0.24219,3.0859,5v4.1797c0,5.9788-0.06134,6.0348-2.9688,6.1719-1.5219-0.14219-3.0453-0.56875-7.8516-6.1328-1.8531-2.1891-4.9125-5.8719-6.7188-8.2031l5.8203-6.4844c2.854-3.1413,4.406-4.7085,7.071-4.8053v-0.82031h-9.1406v0.82031c1.1891,0.2375,1.6406,0.66875,1.6406,1.5234,0,0.57188-0.11563,1.575-1.875,3.4766l-7.1875,7.9297v-5.1172c0-6.9891,0.325-7.4328,3.0859-7.8125v-0.82031h-9.7656zm29.375,1.0938c-1.2375,0-2.1484,0.95312-2.1484,2.1875,0,1.2375,0.91094,2.1875,2.1484,2.1875s2.1875-0.95,2.1875-2.1875c0-1.2344-0.95-2.1875-2.1875-2.1875zm89.727,0.3125c-2.5656,0-5.2344,1.6016-5.2344,5.1172,0,1.3344,0.41875,2.5547,1.1328,3.9844-3.5203,1.0938-5.3906,4.1469-5.3906,7.6172,0,6.3266,4.8125,9.7656,10.234,9.7656,3.3766-0.000001,6.0406-1.0703,8.5156-3.1641,1.5203,1.0969,3.0406,2.1578,3.9453,2.5391h5.8594v-0.82031c-1.9047-0.18906-4.7719-1.7484-7.8125-3.9844,1.0922-1.8062,1.3562-4.4188,1.6406-6.3672,0.24061-1.6641,1.4609-1.6234,2.2656-1.7188v-0.74219h-7.6953v0.74219c1.8078,0.2375,3.5547,0.47344,3.5547,3.2812,0.00001,1.475-0.23125,2.9453-0.89844,3.9453-6.7531-5.2797-12.969-12.589-12.969-16.25-0.00001-1.8094,1.0922-2.6563,2.8516-2.6563,2.189,0,4.275,1.4406,5.2734,4.2969h0.74219l-0.0781-5.1172h-0.78125c-0.0453,0.33281-0.35938,0.54688-0.54688,0.54688-0.95156,0-2.275-1.0156-4.6094-1.0156zm-55.43,8.5156c-3.5188,0-5.5469,2.1906-5.5469,4.8047,0,5.7094,9.7656,4.5578,9.7656,9.2188,0,1.5688-1.475,2.5-3.9453,2.5-2.4266,0-4.4922-1.2906-5.1562-4.3359h-1.0156c0,1.2391,0.19219,3.5234,0.42969,3.9062,0.66719,1.0938,3.3891,1.6797,5.625,1.6797,4.0422,0,6.5234-2.35,6.5234-5.1562,0-6.2797-9.6875-5.2906-9.6875-9.3359,0-1.4266,1.2828-2.1484,2.8516-2.1484,3.1859,0,4.5984,2.9453,4.8828,3.9453h0.74219c0-2.4734-0.27656-4.0297-0.46875-4.2188-0.19062-0.19062-2.6219-0.85938-5-0.85938zm17.891,0c-4.9484,0-8.2812,3.9422-8.2812,9.4141,0,4.2781,2.1891,8.3984,8.0859,8.3984,2.4234,0.000002,5.3375-0.97812,6.9531-2.7344l-0.39062-0.82031c-1.5688,0.95156-3.2938,1.4062-4.9609,1.4062-4.7094-0.000002-6.6656-4.2328-6.5234-8.0859h11.875c0.19063-3.9-1.8609-7.5781-6.7578-7.5781zm91.836,0c-5.3297,0-9.1016,3.8719-9.1016,8.8672,0,3.3297,1.3266,6.0953,3.75,7.6172,1.4297,0.90156,3.2766,1.2891,5.2734,1.2891,5.2797,0,9.0625-3.8172,9.0625-8.9062-0.00001-3.2812-1.3234-6.0188-3.75-7.5391-1.4266-0.90469-3.2375-1.3281-5.2344-1.3281zm-180.7,0.117c-5.0906,0-8.9063,4.5672-8.9062,9.6094,0,3.9953,2.2359,8.0859,8.0859,8.0859,2.4234,0,5.3375-0.97656,6.9531-2.7344l-0.391-0.82c-1.5688,0.95-3.2969,1.4062-4.9609,1.4062-4.7094,0-6.4844-3.9781-6.4844-8.1641,0-1.9484,0.47031-3.3609,1.3281-4.2188,0.80625-0.80938,1.9469-1.0938,3.0859-1.0938,1.6641,0,3.5812,0.65156,4.9609,2.4609l0.3125-0.03906c0.52344-0.66406,1.0437-2.0062,1.0938-3.0078-1.1891-0.95-2.9859-1.4844-5.0781-1.4844zm55.117,0c-2.1891,0-4.4906,1.0422-6.25,3.2812v-3.0469h-6.3672v0.82031c2.7578,0.09531,3.0859,0.24219,3.0859,5v4.1797c0,6.0391-0.01251,6.0297-3.0078,6.1719v0.82031h9.0625v-0.82031c-2.6672-0.1875-2.7734-0.14062-2.7734-6.1328v-4.6094c0-1.5719,2.1578-3.5156,4.7266-3.5156,2.0906,0,3.75,0.90938,3.75,5v3.3984c0,5.6625-0.19063,5.7172-2.6172,5.8594v0.82031h8.9062v-0.82031c-2.99-0.141-3.01-0.195-3.01-5.858v-3.7891c0-5.1375-2.7969-6.7578-5.5078-6.7578zm148.48,0c-2.3312,0-4.6062,1.4719-5.9375,3.2812v-3.0469h-6.3672v0.82031c2.7625,0.09531,3.0859,0.24219,3.0859,5v4.8438c0,5.4719-0.0781,5.4625-2.9297,5.5078v0.82031h8.9844v-0.82031c-2.5203-0.2375-2.7734-0.24219-2.7734-5.6641v-4.9219c0-1.7594,2.2328-3.6719,4.6094-3.6719,2.5688,0,3.6719,1.4297,3.6719,4.8047v3.4375c0,5.6141-0.12344,5.8734-2.5,6.0156v0.82031h8.4375v-0.82031c-2.8062-0.2375-2.7344-0.48438-2.7344-5.8594v-4.7656c0-1.7125,2.1672-3.6328,4.6875-3.6328,2.1422,0,3.5156,1.2859,3.5156,4.8047v3.9062c0,5.1375-0.0266,5.3594-2.5,5.5469v0.82031h8.9453v-0.82031c-3.0906-0.14219-2.9688-0.56094-2.9688-5.5078v-4.4141c0-4.7109-2.55-6.4844-5.5469-6.4844-2.7078,0-4.9156,1.525-6.4844,3.7109-0.66719-2.3297-2.3406-3.7109-5.1953-3.7109zm32.539,0c-2.4734,0-4.4812,1.1562-5.8594,2.7734v-2.5391h-6.2109v0.82031c2.6156,0.09531,2.9297,0.25469,2.9297,5.8203v11.602c0,6.0422,0.13593,6.4984-2.8125,6.6406v0.82031h9.1016v-0.82031c-3.2328-0.09219-3.0078-0.62656-3.0078-6.9531v-2.3047c1.2844,1.2844,3.3109,1.7969,5.1172,1.7969,5.1359,0.000001,8.3594-3.8469,8.3594-8.9844-0.00001-4.9453-3.1969-8.6719-7.6172-8.6719zm16.602,0c-1.8563,0-4.5797,0.66875-6.0547,1.9531,0.0953,0.80781,0.81406,2.3766,1.2891,2.8516l0.42969-0.07813c0.75937-1.8547,2.0578-3.2031,4.1016-3.2031,2.2375,0,3.1641,1.5828,3.1641,3.4375v1.9531c0,1.2844-5.6781,1.525-8.0078,3.4766-0.80937,0.7125-1.4062,1.6156-1.4062,2.8516,0,2.6641,1.8844,4.4141,4.6875,4.4141,1.7594,0.000001,3.275-0.58281,4.8438-2.3438,0.2375,1.2359,1.2656,1.9141,2.9297,1.9141h4.0234,8.7891v-0.82031c-2.6641-0.1875-2.7734-0.14062-2.7734-6.1328v-4.6094c0-1.5719,2.161-3.5156,4.7266-3.5156,2.0938,0,3.75,0.90938,3.75,5v3.3984c0,5.6625-0.19375,5.7172-2.6172,5.8594v0.82031h8.9062v-0.82031c-2.9984-0.14219-3.0078-0.19688-3.0078-5.8594v-3.7891c0-5.1375-2.7937-6.7578-5.5078-6.7578-2.1859,0-4.4906,1.0422-6.25,3.2812v-3.0469h-6.3672v0.82031c2.7578,0.09531,3.0859,0.24219,3.0859,5v4.1797c0,6.0391-0.0516,6.0297-3.0469,6.1719h-0.70313c-2.38,0-2.66-0.803-2.66-4.18v-5.7031c0-1.0922-0.11719-2.0828-0.35156-2.8906-0.80938-2.6641-2.9812-3.6328-5.9766-3.6328zm-156.29,0.46875,0,0.82031c1.9484,0.09531,2.1109,0.37031,4.7266,6.1719l4.4531,9.8438c-1.5219,3.9-3.9047,6.0156-8.7109,7.1094,0.24063,0.80938,1.1297,2.2266,1.6016,2.6562,6.3281-2.5688,7.5703-6.7594,9.8047-13.086l3.3594-9.6094c0.75937-2.1891,1.9781-3.0859,3.1641-3.0859v-0.82031h-6.1328v0.82031c1.4766,0.09531,2.2516,0.91406,1.6797,2.5781l-3.2812,9.6484-3.1641-7.4609c-0.85312-2.0438-1.1719-2.8422-1.1719-3.5547,0-0.66719,0.36718-1.0656,1.6016-1.2109v-0.82031h-7.9297zm185.86,0,0,0.82031c1.9484,0.09531,2.15,0.37031,4.7656,6.1719l4.4141,9.8438c-1.5234,3.9-3.9063,6.0156-8.7109,7.1094,0.23906,0.80938,1.1281,2.2266,1.6016,2.6562,6.3281-2.5688,7.5703-6.7594,9.8047-13.086l3.3984-9.6094c0.75938-2.1891,1.9375-3.0859,3.125-3.0859v-0.82031h-6.1328v0.82031c1.4766,0.09531,2.2906,0.91406,1.7188,2.5781l-3.2812,9.6484-3.2031-7.4609c-0.85625-2.0438-1.1719-2.8422-1.1719-3.5547,0-0.66719,0.36719-1.0656,1.6016-1.2109v-0.82031h-7.9297zm-194.1,0.82031c2.6609,0,4.2891,1.7438,4.3359,4.8828h-8.75c0.28438-3.1391,1.7031-4.8828,4.4141-4.8828zm92.031,0c3.0437,0,6.0547,2.9453,6.0547,8.5547,0.00001,3.9484-1.7438,6.3672-5.3125,6.3672-3.0906,0-5.9766-2.8375-5.9766-8.5938,0-4.0906,1.9484-6.3281,5.2344-6.3281zm-57.305,0.42969c2.3797,4.2328,6.8219,8.725,11.484,12.148-1.4297,1.0953-3.8328,1.4062-5.7812,1.4062-4.9953,0-8.9453-3.5312-8.9453-8.2422,0-2.9484,1.2906-4.7891,3.2422-5.3125zm111.68,0.42969c3.5156,0.000001,5.7031,2.625,5.7031,6.9531,0,4.4234-1.8422,7.2656-5.3125,7.2656-2.236,0.000002-4.7266-1.2656-4.7266-2.9297v-8.4375c0-1.4266,2.0531-2.8516,4.3359-2.8516zm21.055,6.3672,0,4.6875c0,1.4266-1.8766,2.5781-3.3984,2.5781-1.4266,0.000001-2.6172-0.9-2.6172-2.8516,0-3.4703,3.5922-3.0828,6.0156-4.4141z"/>
  <rect id="rect3708" height="45" width="360" y="0" x="0" fill="none"/>
 </g>
</svg>
