<?xml version="1.0" encoding="UTF-8" standalone="no"?>
<svg id="svg2989" xmlns:rdf="http://www.w3.org/1999/02/22-rdf-syntax-ns#" xmlns="http://www.w3.org/2000/svg" viewBox="0 0 897.16 140.14" version="1.1" xmlns:cc="http://creativecommons.org/ns#" xmlns:dc="http://purl.org/dc/elements/1.1/">
 <metadata id="metadata2999">
  <rdf:RDF>
   <cc:Work rdf:about="">
    <dc:format>image/svg+xml</dc:format>
    <dc:type rdf:resource="http://purl.org/dc/dcmitype/StillImage"/>
    <dc:title/>
   </cc:Work>
  </rdf:RDF>
 </metadata>
 <g id="g2991" fill="#fff">
  <path id="path2993" d="M391.83,109c-2.2938,0-13.905-0.22712-17.775-0.58988-1.6588-0.16112-3.9238-0.37938-3.9238-2.1372,0-0.791,0.47375-1.4672,1.2112-1.7739,0.0725-0.3135,0.145-1.084-0.02625-2.4561l-4.62-47.28-23.499,48.103c-2.1825,4.4872-2.9525,5.9096-4.6225,5.9096-1.6525,0-2.4212-1.4038-4.4812-5.1562-2.785-5.0879-9.6025-17.91-12.16-23.264-0.93375-1.9405-2.365-4.8579-3.9488-8.0928-2.76-5.618-6.03-12.301-7.95-16.396l-3.73,42.029c-0.11,1.4805-0.11,3.335-0.11,4.9731,0,0.59912,0.16875,1.4366,1.6375,1.775,1.5575,0.41838,2.995,0.56388,3.7612,0.56388,0.88125,0,1.9038,0.77638,1.9038,1.7832,0,0.92288-0.51375,2.023-2.9638,2.023-2.6912,0-5.8112-0.16262-7.8762-0.271-0.8875-0.048875-1.5338-0.082125-1.785-0.082125-0.335,0-1.1938,0.046375-2.2838,0.105-1.9462,0.105-4.6125,0.24812-6.4362,0.24812-2.5675,0-2.845-1.4161-2.845-2.023,0-0.98488,0.96-1.7832,2.1388-1.7832,0.7025,0,1.3175-0.097625,2.6638-0.309l0.23375-0.036625c2.205-0.37938,2.5562-2.4585,2.9838-6.0996l0.11875-0.97562,7.535-65.374c0.185-1.6548,1.0688-2.7261,2.2525-2.7261,0.75625,0,2.1612,0.27738,3.0862,2.1295l30.355,60.252,29.206-60.124c0.39875-0.79538,1.13-2.2574,2.6225-2.2574,0.97625,0,2.22,0.63438,2.6,3.6554l7.0738,61.51c0.42375,4.2739,1.2662,8.3632,4.57,9.4642,2.7688,0.89112,5.3875,0.89112,6.3725,0.89112,1.1038,0,1.9038,0.74812,1.9038,1.7832,0,1.2295-1.255,2.023-3.1975,2.023m49,0.24c-6.4125,0-11.524-0.15625-15.631-0.28462l-2.4212-0.07325c-4.3575-0.232-7.0975-0.232-8.5688-0.232-0.52,0-2.3738,0.008875-4.42,0.11875-1.92,0.10838-4.3488,0.23438-6.0675,0.23438-2.3762,0-2.7325-1.1939-2.7325-1.9044,0-0.9365,0.71375-1.9019,1.9075-1.9019,0.49125,0,1.17-0.13175,1.8262-0.25875,0.43375-0.082,0.8525-0.16112,1.22-0.2075,1.0162-0.18062,1.2688-1.1978,1.7225-4.0542l0.05625-0.34662c0.575-4.0284,0.575-12.128,0.575-21.505v-17.68c0-15.542,0-18.341-0.23375-21.482-0.22625-3.25-0.66375-4.1806-3.3088-4.5459-0.7875-0.11325-2.4938-0.2275-3.3888-0.2275-0.94375,0-1.9075-0.96-1.9075-1.9034,0-0.87112,0.47375-1.9072,2.7312-1.9072,3.4925,0,8.0312,0.12888,10.47,0.19775,0.8325,0.0235,1.3962,0.039125,1.55,0.039125l1.355,0.005375c3.005,0.014125,10.37,0.04825,16.078,0.04825,4.1338,0,6.5725-0.018,7.2525-0.05175,1.5212-0.09025,2.9825-0.32375,3.95-0.478,0.2625-0.0415,0.4875-0.076125,0.66625-0.102,0.0225-0.01225,0.14875-0.07425,0.2775-0.13388,0.345-0.15325,0.77375-0.34512,1.2875-0.34512,0.715,0,1.55,0.52925,1.55,2.0195,0,0.40325-0.105,0.81588-0.2375,1.3389-0.19125,0.75825-0.4575,1.7998-0.59625,3.4658-0.04,0.3585-0.0925,1.1031-0.15625,1.984-0.15875,2.2094-0.29,3.9619-0.44375,4.7334-0.25,0.98775-0.9575,1.9278-2.0012,1.9278-0.44875,0-1.91-0.1705-1.91-2.376,0-0.74762-0.13625-2.1992-0.51-3.1324-0.4525-1.0538-0.985-1.6972-6.5512-2.3916-1.5475-0.2065-11.722-0.32362-14.338-0.34125v27.168c7.0975-0.0025,15.064-0.064,16.721-0.22862l0.2025-0.019c2.3288-0.21975,3.48-0.35738,4.2038-1.082,0.15-0.15038,0.2875-0.293,0.41625-0.42575,0.63875-0.66362,1.1438-1.188,1.88-1.188,0.83125,0,1.6712,0.58938,1.6712,1.9058,0,0.31588-0.07625,0.67675-0.1925,1.2241-0.19375,0.91262-0.4875,2.292-0.6375,4.3886-0.23875,2.0391-0.47125,5.77-0.47125,6.4039,0,1.7992-0.79125,2.9634-2.0188,2.9634-0.89,0-1.785-0.62362-1.785-2.0225,0-0.88912,0-1.8101-0.4075-2.9214l-0.03625-0.11325c-0.165-0.671-0.44375-1.7906-4.3788-2.2535-2.5675-0.31975-12.452-0.45062-15.166-0.46188l-0.00125,7.9902c0,0.95988-0.01,2.5718-0.02,4.4345-0.0275,4.7192-0.065,11.179,0.0175,12.584,0.20125,5.7628,1.1962,6.9946,11.291,6.9946,2.6062,0,7.4575,0,9.975-0.98775,2.1062-0.9155,3.4625-2.2178,4.0375-6.1035,0.1775-0.89112,0.48875-2.4536,2.13-2.4536,0.53625,0,1.7838,0.25638,1.7838,2.6138,0,0.79688-0.83625,7.7368-1.45,9.9449-0.925,3.3876-2.7725,3.3876-6.8162,3.3876m95.43,0.47c-1.52,0-2.6962-0.96775-8.6212-6.4072-1.0162-0.90475-15.969-15.608-27.031-27.148-10.094-10.59-20.179-21.181-24.926-26.288l1.11,44.367c0.23375,8.23,1.2138,9.9145,3.1888,10.408,1.7575,0.44038,3.9862,0.559,4.92,0.559,1.0675,0,1.9038,0.835,1.9038,1.9019,0,0.7105-0.38375,1.9044-2.9638,1.9044-4.2375,0-7.5088-0.17725-9.4638-0.28575-0.7275-0.038-1.2362-0.067375-1.4962-0.067375-0.28125,0-0.87875,0.03325-1.7025,0.079625-1.8788,0.10112-5.0238,0.2735-8.3112,0.2735-0.675,0-2.7275,0-2.7275-1.9044,0-1.0669,0.83625-1.9019,1.9038-1.9019,0.75,0,2.535-0.11612,3.9212-0.54438,1.785-0.48588,2.1862-2.626,2.1862-11.455v-57.374c0-3.1919,0.3025-6.1475,2.495-6.1475,1.3612,0,2.6925,1.2549,4.2912,2.8951l0.4775,0.48238c0.5475,0.54975,2.5112,2.6138,5.485,5.7388,6.1638,6.4824,16.482,17.33,27.276,28.44,6.64,6.889,13.56,14.228,18.61,19.588,1.5438,1.6382,2.8912,3.0679,3.9675,4.2041l-1.0062-47.399c-0.115-6.669-0.81375-7.8619-2.9988-8.2671-1.8125-0.34075-4.1025-0.4555-4.8712-0.4555-1.12,0-1.9025-0.83212-1.9025-2.023,0-1.7876,2.24-1.7876,3.0862-1.7876,3.1575,0,6.4225,0.1065,8.5838,0.17625,1.065,0.03375,1.8612,0.060625,2.2488,0.060625,0.39625,0,1.0562-0.028875,1.9188-0.065,1.6388-0.068375,4.1175-0.17188,6.92-0.17188,0.7325,0,2.9625,0,2.9625,1.7876,0,0.9555-0.9625,2.023-2.2538,2.023-0.44625,0-1.1912,0-2.265,0.21625-2.445,0.50688-2.785,1.4355-2.785,7.6572l-0.23625,58.675c0,6.8384,0,8.2618-1.9038,8.2618m44.86-72.804c-2.0688,0-5.1538,0.37-5.86,0.63612-0.49625,0.18562-0.59875,0.22325-0.59875,0.99375v33.457c0,10.664,0,19.875,0.11375,21.726,0.23125,4.7349,0.6475,6.1974,0.95625,6.5919,1.65,2.3984,7.135,3.5889,16.342,3.5889,9.3088,0,17.445-3.0348,23.53-8.7759,4.8062-4.4932,7.7912-13.309,7.7912-23.013,0-12.93-5.9288-20.794-9.4612-24.33-8.9475-9.0566-19.191-10.875-32.814-10.875zm10.84,72.924c-3.7925,0-8.3312-0.249-12.34-0.46875l-2.2112-0.12112c-4.5362-0.36125-8.0138-0.58838-8.425-0.58838-0.055,0-0.19875,0.007375-0.40875,0.017125-0.7175,0.03425-2.2138,0.104-3.8325,0.104-1.975,0.106-4.5288,0.232-6.2412,0.232-2.3712,0-2.7275-1.1939-2.7275-1.9044,0-0.9365,0.71125-1.9019,1.9012-1.9019,0.86625,0,2.1138-0.23925,2.9162-0.44425,1.1575-0.27,1.4025-1.2379,1.8662-4.1592l0.0425-0.26362c0.5725-4.0284,0.5725-12.128,0.5725-21.505v-17.68c0-15.541,0-18.341-0.2325-21.481-0.22375-3.2505-0.65875-4.1811-3.31-4.5464-0.78375-0.11325-2.4912-0.2275-3.385-0.2275-0.945,0-1.9062-0.96-1.9062-1.9034,0-0.87112,0.4725-1.9072,2.7262-1.9072,3.5012,0,8.0388,0.12888,10.482,0.19775,0.82625,0.0235,1.3862,0.039125,1.5362,0.039125,0.35625,0,1.2112-0.022,2.3962-0.05225,2.7062-0.069375,7.2375-0.18462,11.506-0.18462,0.65375,0,3.6662-0.016625,4.52-0.016625,12.944,0,27.568,1.3985,37.836,11.767,4.765,4.7646,10.449,13.185,10.449,26.209,0,10.914-4.1925,21.451-11.501,28.912-7.5762,7.7636-18.722,11.869-32.23,11.869m94.93-0.59c-6.4062,0-11.518-0.15625-15.626-0.28462l-2.4262-0.07325c-4.355-0.232-6.9938-0.232-8.575-0.232-0.51625,0-2.365,0.008875-4.415,0.11875-1.92,0.10838-4.345,0.23438-6.065,0.23438-2.3788,0-2.7325-1.1939-2.7325-1.9044,0-0.9365,0.71375-1.9019,1.9088-1.9019,0.49125,0,1.1662-0.13175,1.8188-0.25775,0.435-0.083,0.855-0.16212,1.2262-0.2085,1.015-0.18062,1.27-1.2002,1.7225-4.0591l0.05625-0.34175c0.5775-4.0284,0.5775-12.128,0.5775-21.505v-17.68c0-15.541,0-18.341-0.235-21.482-0.225-3.25-0.66125-4.1806-3.31-4.5459-0.785-0.11325-2.4925-0.2275-3.3888-0.2275-0.9425,0-1.9075-0.96-1.9075-1.9034,0-0.87112,0.47375-1.9072,2.7338-1.9072,3.4988,0,8.0438,0.12888,10.484,0.19775,0.8225,0.0235,1.38,0.039125,1.5262,0.039125l1.365,0.005375c3.01,0.014125,10.37,0.04825,16.076,0.04825,4.135,0,6.5712-0.018,7.2475-0.05175,1.5312-0.09025,2.9962-0.32375,3.9638-0.4795l0.65375-0.1005c0.02375-0.01225,0.15-0.07525,0.28-0.13438,0.345-0.15375,0.77375-0.34462,1.285-0.34462,0.7175,0,1.5525,0.52925,1.5525,2.0195,0,0.40288-0.10125,0.8145-0.23625,1.3359-0.19,0.76025-0.45375,1.8004-0.59125,3.4679-0.04625,0.37838-0.10125,1.1714-0.16875,2.0981-0.15625,2.1558-0.28875,3.8648-0.44,4.6201-0.24375,0.98538-0.95,1.9278-2,1.9278-0.44875,0-1.9075-0.1705-1.9075-2.376,0-0.74325-0.1375-2.1914-0.51375-3.1309-0.45125-1.0556-0.98375-1.6988-6.5538-2.3931-1.5425-0.2065-11.728-0.32512-14.335-0.34125v27.168c7.1-0.0025,15.06-0.064,16.72-0.22862l0.20125-0.019c2.3312-0.21975,3.4838-0.35738,4.2038-1.081,0.1575-0.15625,0.2975-0.30088,0.42875-0.43562,0.6375-0.65912,1.1438-1.1791,1.8738-1.1791,0.83,0,1.6688,0.58938,1.6688,1.9058,0,0.31538-0.075,0.67525-0.1925,1.2211-0.19375,0.91262-0.485,2.291-0.63375,4.3901-0.2375,2.0269-0.4675,5.7632-0.4675,6.4054,0,1.7992-0.79375,2.9634-2.0238,2.9634-0.88875,0-1.7862-0.62362-1.7862-2.0225,0-0.88912,0-1.8101-0.4075-2.9244l-0.03125-0.10738c-0.16875-0.67188-0.45-1.7935-4.38-2.2564-2.5688-0.31975-12.46-0.45062-15.171-0.46188l0.01,7.991c0,0.95988-0.0075,2.5708-0.0175,4.4336-0.0275,4.7216-0.06375,11.18,0.0175,12.586,0.2025,5.7618,1.1975,6.9936,11.296,6.9936,2.6038,0,7.4525,0,9.9675-0.98775,2.1125-0.9165,3.4675-2.2178,4.0425-6.1021,0.17875-0.8935,0.49125-2.455,2.1275-2.455,0.53625,0,1.7838,0.25638,1.7838,2.6138,0,0.80812-0.83875,7.7598-1.4512,9.9488-0.925,3.3838-2.7725,3.3838-6.8162,3.3838m64.44,0c-7.3812,0-13.128-0.11375-18.081-0.35788l-3.3788-0.084c-3.1362-0.0845-5.6112-0.148-7.8762-0.148-1.4638,0-2.87,0.039125-4.1775,0.11875-2.0562,0.10838-4.3775,0.23438-6.0712,0.23438-2.375,0-2.7312-1.1939-2.7312-1.9044,0-0.9365,0.715-1.9019,1.91-1.9019,0.86125,0,2.1075-0.23925,2.9125-0.44425,1.155-0.27,1.4012-1.2344,1.865-4.148l0.045-0.27488c0.575-4.0284,0.575-12.128,0.575-21.505v-17.68c0-15.542,0-18.341-0.2325-21.482-0.225-3.25-0.6625-4.1806-3.31-4.5459-0.785-0.11325-2.4938-0.2275-3.39-0.2275-0.94375,0-1.905-0.96-1.905-1.9034,0-0.87112,0.47375-1.9072,2.7312-1.9072,3.4938,0,7.9088,0.12888,10.279,0.19775,0.80625,0.0235,1.3475,0.039125,1.5,0.039125,0.13125,0,0.81625-0.018625,1.8062-0.044,2.555-0.067875,7.3125-0.19288,9.6238-0.19288,2.3762,0,2.7275,1.1959,2.7275,1.9072,0,1.0059-1.0225,1.7871-1.9038,1.7871-0.6675,0-2.17,0.11575-3.3088,0.229-2.1825,0.42475-2.6875,1.209-2.9162,4.6529-0.11875,3.1294-0.11875,5.9311-0.11875,21.489v17.905c0,12.473,0.11875,20.159,1.78,21.714,1.435,1.4355,5.4512,2.0654,13.044,2.0654,5.5138,0,9.5738-0.19288,11.661-2.6782,1.07-1.2646,1.885-3.1386,2.24-5.1455,0.22125-1.3486,1.0362-2.1909,2.1225-2.1909,0.66625,0,1.7862,0.33938,1.7862,2.6109,0,1.1489-0.70625,7.2144-1.57,10.305-0.9625,3.1998-2.2162,3.5-7.6375,3.5m57.61,0c-6.41,0-11.52-0.15625-15.628-0.28462l-2.4262-0.07325c-4.3575-0.232-7.0988-0.232-8.5738-0.232-0.51625,0-2.3675,0.008875-4.4212,0.11875-1.9125,0.10838-4.3388,0.23438-6.0638,0.23438-2.375,0-2.7312-1.1939-2.7312-1.9044,0-0.9365,0.715-1.9019,1.9112-1.9019,0.48875,0,1.165-0.13175,1.8188-0.25775,0.4325-0.083,0.855-0.16212,1.2275-0.2085,1.0112-0.18062,1.2675-1.1962,1.7188-4.0479l0.05625-0.353c0.57875-4.0284,0.57875-12.128,0.57875-21.505v-17.68c0-15.541,0-18.341-0.23625-21.48-0.22375-3.2515-0.66125-4.1821-3.3075-4.5474-0.7875-0.11325-2.4938-0.2275-3.3912-0.2275-0.945,0-1.9075-0.96-1.9075-1.9034,0-0.87112,0.475-1.9072,2.735-1.9072,3.495,0,8.0338,0.12888,10.472,0.19775,0.82875,0.0235,1.39,0.039125,1.54,0.039125l1.3588,0.005375c3.0112,0.014125,10.372,0.04825,16.08,0.04825,4.1325,0,6.57-0.018,7.245-0.05175,1.5362-0.09075,2.9988-0.32462,3.9675-0.48038l0.64625-0.099625c0.02875-0.01225,0.1575-0.07625,0.28875-0.13475,0.34375-0.15388,0.7725-0.34425,1.2825-0.34425,0.71625,0,1.5538,0.52925,1.5538,2.0195,0,0.40288-0.10625,0.81588-0.2375,1.3399-0.1925,0.75875-0.45625,1.7998-0.595,3.4648-0.045,0.37062-0.0975,1.1426-0.16375,2.0509-0.1575,2.1791-0.2875,3.9058-0.44125,4.6679-0.24625,0.98538-0.95375,1.9264-2,1.9264-0.4475,0-1.9075-0.1705-1.9075-2.376,0-0.7495-0.13625-2.2002-0.51-3.1294-0.45375-1.0568-0.98625-1.7002-6.5575-2.3946-1.5425-0.2065-11.721-0.32362-14.334-0.34125v27.168c7.0962-0.0025,15.06-0.064,16.722-0.22862l0.2025-0.019c2.33-0.21975,3.4812-0.35788,4.2038-1.082,0.14875-0.14938,0.285-0.2915,0.41125-0.42338,0.64125-0.6655,1.1512-1.1904,1.8875-1.1904,0.82875,0,1.6675,0.58938,1.6675,1.9058,0,0.31588-0.07625,0.67725-0.1925,1.2251-0.19375,0.912-0.48375,2.2919-0.63625,4.3881-0.2375,2.0288-0.47125,5.7636-0.47125,6.4034,0,1.7992-0.79125,2.9634-2.02,2.9634-0.8875,0-1.7838-0.62362-1.7838-2.0225,0-0.88912,0-1.8101-0.40875-2.9244l-0.03125-0.10738c-0.18125-0.71438-0.45125-1.7935-4.3825-2.2564-2.5675-0.31975-12.454-0.45062-15.169-0.46188v7.989c0,0.95988-0.00875,2.5718-0.0175,4.4345-0.03,4.7192-0.06625,11.179,0.015,12.584,0.20125,5.7628,1.1975,6.9946,11.295,6.9946,2.605,0,7.455,0,9.9688-0.98775,2.11-0.9155,3.4675-2.2169,4.0425-6.1035,0.1775-0.89112,0.48875-2.4536,2.1275-2.4536,0.53625,0,1.7838,0.25638,1.7838,2.6138,0,0.80075-0.8375,7.7426-1.4525,9.9462-0.9225,3.3862-2.7688,3.3862-6.8112,3.3862m62.66-0.24c-4.3988,0-9.3412-0.20275-11.719-0.30175-0.73375-0.030375-1.2212-0.051375-1.3575-0.051375-0.13375,0-0.73625,0.028375-1.5975,0.067375-2.3612,0.1075-6.3125,0.28575-8.5325,0.28575-1.8138,0-2.7325-0.63975-2.7325-1.9044,0-0.9365,0.7125-1.9019,1.9025-1.9019,0.6925,0,1.6612-0.15525,2.8012-0.44425,1.175-0.25888,1.99-1.0938,2.2512-4.3409,0.2325-4.0625,0.2325-8.3228,0.2325-9.9234v-8.601c0-5.274-0.67625-7.0958-2.11-9.7369-0.8525-1.5795-14.825-23.762-18.325-29.013-2.4875-3.7856-4.9338-5.9029-6.5488-7.0128-1.3125-0.80662-3.1162-1.2255-3.745-1.2255-1.1612,0-2.1438-0.92688-2.1438-2.023,0-0.53762,0.235-1.7876,2.3812-1.7876,1.3588,0,5.3112,0.107,7.9275,0.17775,1.2438,0.03375,2.1712,0.059125,2.3212,0.059125,0.2025,0,0.7075-0.02,1.4138-0.048875,1.755-0.07025,4.6938-0.188,7.5375-0.188,0.61625,0,2.4938,0,2.4938,1.7876,0,1.105-1.215,1.6499-2.3538,2.0738-0.59,0.25725-0.59,0.44088-0.59,0.63712,0,1.0342,0.52125,1.9854,1.125,3.0845l0.1575,0.28762,17.84,29.551c2.3775-4.2871,7.7462-13.298,11.824-20.14,2.0588-3.4531,3.685-6.1816,4.2638-7.1924,1.0788-1.8658,1.6238-3.4282,1.6238-4.6494,0-1.1954-0.38125-1.4048-0.87875-1.5561-1.4012-0.34775-2.305-1.2002-2.305-2.2105,0-0.50338,0.26625-1.6729,2.7312-1.6729,1.7738,0,3.9025,0.098125,5.4575,0.17,0.81375,0.036625,1.445,0.066875,1.7288,0.066875,0.26125,0,1.4425-0.03225,2.925-0.07375,2.505-0.068375,5.9362-0.16312,7.2088-0.16312,1.4225,0,2.3775,0.67188,2.3775,1.6729,0,1.0288-0.91,2.1378-2.3775,2.1378-1.1338,0-2.9,0.35738-4.2925,1.1548-1.8125,1.0674-2.6825,2.0225-4.8875,4.6982-3.2638,3.8228-17.88,27.339-20.012,31.604-1.3425,2.6758-1.28,5.1572-1.2138,7.7831,0.015,0.58112,0.03,1.1621,0.03,1.7481v8.601c0,1.5958,0,5.8424,0.35,9.9185,0.2425,3.0274,0.93625,3.9951,3.09,4.3286,1.3688,0.228,3.6588,0.46138,4.5525,0.46138,1.1912,0,1.9038,0.96538,1.9038,1.9019,0,0.8775-0.71375,1.9044-2.7288,1.9044m-745.27-68.743c0.03875,0,0.06875,0.00975,0.10625,0.00975,0.03,0,0.06125-0.00975,0.09875-0.00975,13.679,0,24.774,11.084,24.774,24.778,0,7.6591-3.4812,14.507-8.9475,19.048-2.3838,2.2582-5.3612,3.9062-9.0038,4.75-2.1562,0.62738-4.46,0.97262-6.8225,0.97262h-0.20625c-2.3636,0-4.6551-0.34525-6.8265-0.97262-3.6332-0.84375-6.622-2.4918-8.9995-4.75-5.47-4.541-8.95-11.389-8.95-19.048,0-13.694,11.099-24.778,24.776-24.778zm-104.93,99.673c13.309,1.6724,25.126-8.0176,26.385-21.642,0.4165-4.5986-0.44675-9.059-2.2412-13.009-18.651-40.92,73.354-41.854,57.811-3.2275-0.03525,0.05025-0.067875,0.09425-0.10838,0.1635-7.3516,11.75-3.3692,27.027,8.8564,34.095,4.4961,2.5952,9.4678,3.6851,14.333,3.4853,4.865,0.19971,9.8438-0.89014,14.33-3.4853,12.219-7.0674,16.2-22.344,8.8512-34.095-0.03375-0.06925-0.07625-0.11325-0.10875-0.1635-15.538-38.626,76.469-37.692,57.812,3.2275-1.8038,3.9502-2.6525,8.4106-2.2412,13.009,1.26,13.624,13.071,23.314,26.389,21.642,5.9175-0.74609,11.138-3.6099,14.996-7.7588,0,0,6.1975-5.1338,6.095-18.241-0.0875-10.681-6.095-16.598-6.095-16.598-4.8338-4.8911-11.718-7.5781-19.088-6.7905-17.081-0.38725-19.612-13.75-14.792-38.97,1.7688-4.4698,2.5388-9.2638,2.3812-14.052,0.47125-12.891-6.0125-25.604-17.946-32.519-1.4538-0.84125-2.9538-1.5275-4.4725-2.15-0.40625-0.18-0.82625-0.3275-1.24-0.49-0.475-0.16875-0.9325-0.35125-1.41-0.48875-3.7-1.2434-7.67-1.926-11.8-1.881-12.85,0.11875-24.05,6.9862-30.32,17.185-8.6025,9.4326-12.489,15.166-21.334,15.166-8.4059,0-12.74-5.7334-21.34-15.166-6.27-10.198-17.461-17.066-30.315-17.185-4.1368-0.045-8.0962,0.6375-11.809,1.8912-0.477,0.1375-0.94625,0.32-1.4062,0.48875-0.41988,0.1625-0.8305,0.31-1.249,0.49-1.5136,0.6225-3.0185,1.3088-4.4624,2.15-11.947,6.915-18.424,19.628-17.956,32.519-0.15962,4.788,0.62012,9.582,2.3829,14.052,4.8154,25.22,2.2885,38.583-14.783,38.97-8.3648-0.9-14.605,2.5464-20.916,8.8632-6.3198,6.3149-5.7998,23.208,0,30.587,4.2046,5.3599,9.9096,9.0698,16.817,9.9375"/>
 </g>
</svg>
