<svg xmlns="http://www.w3.org/2000/svg" height="140.1375" width="897.1625">
  <g fill="#fff">
    <path d="M391.83125 109.00425c-2.29375 0-13.905-.227125-17.775-.589875-1.65875-.161125-3.92375-.379375-3.92375-2.13725 0-.791.47375-1.46725 1.21125-1.773875.0725-.3135.145-1.084-.02625-2.456125L366.6975 54.76l-23.49875 48.102625c-2.1825 4.48725-2.9525 5.909625-4.6225 5.909625-1.6525 0-2.42125-1.40375-4.48125-5.15625-2.785-5.087875-9.6025-17.910125-12.16-23.264125-.93375-1.9405-2.365-4.857875-3.94875-8.09275C315.2325 66.635 311.95875 59.9515 310.035 55.85675L306.31 97.886c-.11 1.4805-.11 3.335-.11 4.973125 0 .599125.16875 1.436625 1.6375 1.775 1.5575.418375 2.995.563875 3.76125.563875.88125 0 1.90375.776375 1.90375 1.78325 0 .922875-.51375 2.023-2.96375 2.023-2.69125 0-5.81125-.162625-7.87625-.271-.8875-.048875-1.53375-.082125-1.785-.082125-.335 0-1.19375.046375-2.28375.105-1.94625.105-4.6125.248125-6.43625.248125-2.5675 0-2.845-1.416125-2.845-2.023 0-.984875.96-1.78325 2.13875-1.78325.7025 0 1.3175-.097625 2.66375-.309l.23375-.036625c2.205-.379375 2.55625-2.4585 2.98375-6.099625l.11875-.975625 7.535-65.374c.185-1.65475 1.06875-2.726125 2.2525-2.726125.75625 0 2.16125.277375 3.08625 2.1295l30.355 60.251875 29.20625-60.124c.39875-.795375 1.13-2.257375 2.6225-2.257375.97625 0 2.22.634375 2.6 3.655375l7.07375 61.51025c.42375 4.273875 1.26625 8.36325 4.57 9.46425 2.76875.891125 5.3875.891125 6.3725.891125 1.10375 0 1.90375.748125 1.90375 1.78325 0 1.2295-1.255 2.023-3.1975 2.023M440.8175 109.241c-6.4125 0-11.52375-.15625-15.63125-.284625l-2.42125-.07325c-4.3575-.232-7.0975-.232-8.56875-.232-.52 0-2.37375.008875-4.42.11875-1.92.108375-4.34875.234375-6.0675.234375-2.37625 0-2.7325-1.193875-2.7325-1.904375 0-.9365.71375-1.901875 1.9075-1.901875.49125 0 1.17-.13175 1.82625-.25875.43375-.082.8525-.161125 1.22-.2075 1.01625-.180625 1.26875-1.19775 1.7225-4.05425l.05625-.346625c.575-4.028375.575-12.1275.575-21.504875V61.155125c0-15.5415 0-18.341375-.23375-21.4815-.22625-3.25-.66375-4.180625-3.30875-4.545875-.7875-.11325-2.49375-.2275-3.38875-.2275-.94375 0-1.9075-.96-1.9075-1.903375 0-.871125.47375-1.90725 2.73125-1.90725 3.4925 0 8.03125.128875 10.47.19775.8325.0235 1.39625.039125 1.55.039125l1.355.005375c3.005.014125 10.37.04825 16.0775.04825 4.13375 0 6.5725-.018 7.2525-.05175 1.52125-.09025 2.9825-.32375 3.95-.478.2625-.0415.4875-.076125.66625-.102.0225-.01225.14875-.07425.2775-.133875.345-.15325.77375-.345125 1.2875-.345125.715 0 1.55.52925 1.55 2.0195 0 .40325-.105.815875-.2375 1.338875-.19125.75825-.4575 1.79975-.59625 3.46575-.04.3585-.0925 1.103125-.15625 1.984-.15875 2.209375-.29 3.961875-.44375 4.733375-.25.98775-.9575 1.92775-2.00125 1.92775-.44875 0-1.91-.1705-1.91-2.376 0-.747625-.13625-2.19925-.51-3.132375-.4525-1.05375-.985-1.69725-6.55125-2.391625-1.5475-.2065-11.7225-.323625-14.3375-.34125v27.1685c7.0975-.0025 15.06375-.064 16.72125-.228625l.2025-.019c2.32875-.21975 3.48-.357375 4.20375-1.082.15-.150375.2875-.293.41625-.42575.63875-.663625 1.14375-1.188 1.88-1.188.83125 0 1.67125.589375 1.67125 1.90575 0 .315875-.07625.67675-.1925 1.224125-.19375.912625-.4875 2.292-.6375 4.388625-.23875 2.039125-.47125 5.77-.47125 6.403875 0 1.79925-.79125 2.963375-2.01875 2.963375-.89 0-1.785-.623625-1.785-2.0225 0-.889125 0-1.810125-.4075-2.921375l-.03625-.11325c-.165-.671-.44375-1.790625-4.37875-2.2535-2.5675-.31975-12.4525-.450625-15.16625-.461875l-.00125 7.99025c0 .959875-.01 2.57175-.02 4.4345-.0275 4.71925-.065 11.17925.0175 12.5845.20125 5.76275 1.19625 6.994625 11.29125 6.994625 2.60625 0 7.4575 0 9.975-.98775 2.10625-.9155 3.4625-2.21775 4.0375-6.1035.1775-.891125.48875-2.453625 2.13-2.453625.53625 0 1.78375.256375 1.78375 2.61375 0 .796875-.83625 7.73675-1.45 9.944875-.925 3.387625-2.7725 3.387625-6.81625 3.387625M536.2325 109.71075c-1.52 0-2.69625-.96775-8.62125-6.40725-1.01625-.90475-15.96875-15.607875-27.03125-27.147875-10.09375-10.590375-20.17875-21.18075-24.92625-26.287625L476.76 94.23125c.23375 8.23 1.21375 9.9145 3.18875 10.40775 1.7575.440375 3.98625.559 4.92.559 1.0675 0 1.90375.835 1.90375 1.901875 0 .7105-.38375 1.904375-2.96375 1.904375-4.2375 0-7.50875-.17725-9.46375-.28575-.7275-.038-1.23625-.067375-1.49625-.067375-.28125 0-.87875.03325-1.7025.079625-1.87875.101125-5.02375.2735-8.31125.2735-.675 0-2.7275 0-2.7275-1.904375 0-1.066875.83625-1.901875 1.90375-1.901875.75 0 2.535-.116125 3.92125-.544375 1.785-.485875 2.18625-2.626 2.18625-11.455125v-57.374c0-3.191875.3025-6.1475 2.495-6.1475 1.36125 0 2.6925 1.254875 4.29125 2.895125l.4775.482375c.5475.54975 2.51125 2.61375 5.485 5.73875 6.16375 6.482375 16.4825 17.330125 27.27625 28.4395C514.8 74.119 521.7175 81.45775 526.7675 86.817625c1.54375 1.63825 2.89125 3.067875 3.9675 4.204125l-1.00625-47.398875c-.115-6.669-.81375-7.861875-2.99875-8.267125-1.8125-.34075-4.1025-.4555-4.87125-.4555-1.12 0-1.9025-.832125-1.9025-2.023 0-1.787625 2.24-1.787625 3.08625-1.787625 3.1575 0 6.4225.1065 8.58375.17625 1.065.03375 1.86125.060625 2.24875.060625.39625 0 1.05625-.028875 1.91875-.065 1.63875-.068375 4.1175-.171875 6.92-.171875.7325 0 2.9625 0 2.9625 1.787625 0 .9555-.9625 2.023-2.25375 2.023-.44625 0-1.19125 0-2.265.21625-2.445.506875-2.785 1.4355-2.785 7.65725l-.23625 58.67525c0 6.838375 0 8.26175-1.90375 8.26175M581.105 36.905625c-2.06875 0-5.15375.37-5.86.636125-.49625.185625-.59875.22325-.59875.99375V71.993c0 10.6645 0 19.875.11375 21.7255.23125 4.734875.6475 6.197375.95625 6.591875 1.65 2.398375 7.135 3.588875 16.3425 3.588875 9.30875 0 17.445-3.03475 23.53-8.775875 4.80625-4.49325 7.79125-13.309125 7.79125-23.01275 0-12.929625-5.92875-20.7935-9.46125-24.329625-8.9475-9.056625-19.19125-10.875375-32.81375-10.875375zm10.84 72.92375c-3.7925 0-8.33125-.249-12.34-.46875l-2.21125-.121125c-4.53625-.36125-8.01375-.588375-8.425-.588375-.055 0-.19875.007375-.40875.017125-.7175.03425-2.21375.104-3.8325.104-1.975.106-4.52875.232-6.24125.232-2.37125 0-2.7275-1.193875-2.7275-1.904375 0-.9365.71125-1.901875 1.90125-1.901875.86625 0 2.11375-.23925 2.91625-.44425 1.1575-.27 1.4025-1.237875 1.86625-4.15925l.0425-.263625c.5725-4.028375.5725-12.1275.5725-21.504875V61.155125c0-15.541125 0-18.341375-.2325-21.481-.22375-3.2505-.65875-4.181125-3.31-4.546375-.78375-.11325-2.49125-.2275-3.385-.2275-.945 0-1.90625-.96-1.90625-1.903375 0-.871125.4725-1.90725 2.72625-1.90725 3.50125 0 8.03875.128875 10.4825.19775.82625.0235 1.38625.039125 1.53625.039125.35625 0 1.21125-.022 2.39625-.05225 2.70625-.069375 7.2375-.184625 11.50625-.184625.65375 0 3.66625-.016625 4.52-.016625 12.94375 0 27.5675 1.3985 37.83625 11.766625 4.765 4.764625 10.44875 13.184625 10.44875 26.209 0 10.913625-4.1925 21.45075-11.50125 28.911625-7.57625 7.763625-18.7225 11.869125-32.23 11.869125M686.88 109.241c-6.40625 0-11.5175-.15625-15.62625-.284625l-2.42625-.07325c-4.355-.232-6.99375-.232-8.575-.232-.51625 0-2.365.008875-4.415.11875-1.92.108375-4.345.234375-6.065.234375-2.37875 0-2.7325-1.193875-2.7325-1.904375 0-.9365.71375-1.901875 1.90875-1.901875.49125 0 1.16625-.13175 1.81875-.25775.435-.083.855-.162125 1.22625-.2085 1.015-.180625 1.27-1.20025 1.7225-4.059125l.05625-.34175c.5775-4.028375.5775-12.1275.5775-21.504875V61.155125c0-15.541125 0-18.341375-.235-21.4815-.225-3.25-.66125-4.180625-3.31-4.545875-.785-.11325-2.4925-.2275-3.38875-.2275-.9425 0-1.9075-.96-1.9075-1.903375 0-.871125.47375-1.90725 2.73375-1.90725 3.49875 0 8.04375.128875 10.48375.19775.8225.0235 1.38.039125 1.52625.039125l1.365.005375c3.01.014125 10.37.04825 16.07625.04825 4.135 0 6.57125-.018 7.2475-.05175 1.53125-.09025 2.99625-.32375 3.96375-.4795l.65375-.1005c.02375-.01225.15-.07525.28-.134375.345-.15375.77375-.344625 1.285-.344625.7175 0 1.5525.52925 1.5525 2.0195 0 .402875-.10125.8145-.23625 1.335875-.19.76025-.45375 1.800375-.59125 3.467875-.04625.378375-.10125 1.171375-.16875 2.098125-.15625 2.15575-.28875 3.86475-.44 4.620125-.24375.985375-.95 1.92775-2 1.92775-.44875 0-1.9075-.1705-1.9075-2.376 0-.74325-.1375-2.191375-.51375-3.130875-.45125-1.055625-.98375-1.69875-6.55375-2.393125-1.5425-.2065-11.7275-.325125-14.335-.34125v27.1685c7.1-.0025 15.06-.064 16.72-.228625l.20125-.019c2.33125-.21975 3.48375-.357375 4.20375-1.081.1575-.15625.2975-.300875.42875-.435625.6375-.659125 1.14375-1.179125 1.87375-1.179125.83 0 1.66875.589375 1.66875 1.90575 0 .315375-.075.67525-.1925 1.221125-.19375.912625-.485 2.291-.63375 4.390125-.2375 2.026875-.4675 5.76325-.4675 6.405375 0 1.79925-.79375 2.963375-2.02375 2.963375-.88875 0-1.78625-.623625-1.78625-2.0225 0-.889125 0-1.810125-.4075-2.924375l-.03125-.107375c-.16875-.671875-.45-1.7935-4.38-2.256375-2.56875-.31975-12.46-.450625-15.17125-.461875L665.93 78.826c0 .959875-.0075 2.57075-.0175 4.433625-.0275 4.721625-.06375 11.180125.0175 12.586375.2025 5.76175 1.1975 6.993625 11.29625 6.993625 2.60375 0 7.4525 0 9.9675-.98775 2.1125-.9165 3.4675-2.21775 4.0425-6.102125.17875-.8935.49125-2.455 2.1275-2.455.53625 0 1.78375.256375 1.78375 2.61375 0 .808125-.83875 7.75975-1.45125 9.94875-.925 3.38375-2.7725 3.38375-6.81625 3.38375M751.315 109.241c-7.38125 0-13.1275-.11375-18.08125-.357875l-3.37875-.084c-3.13625-.0845-5.61125-.148-7.87625-.148-1.46375 0-2.87.039125-4.1775.11875-2.05625.108375-4.3775.234375-6.07125.234375-2.375 0-2.73125-1.193875-2.73125-1.904375 0-.9365.715-1.901875 1.91-1.901875.86125 0 2.1075-.23925 2.9125-.44425 1.155-.27 1.40125-1.234375 1.865-4.148l.045-.274875c.575-4.028375.575-12.1275.575-21.504875V61.155125c0-15.5415 0-18.341375-.2325-21.4815-.225-3.25-.6625-4.180625-3.31-4.545875-.785-.11325-2.49375-.2275-3.39-.2275-.94375 0-1.905-.96-1.905-1.903375 0-.871125.47375-1.90725 2.73125-1.90725 3.49375 0 7.90875.128875 10.27875.19775.80625.0235 1.3475.039125 1.5.039125.13125 0 .81625-.018625 1.80625-.044 2.555-.067875 7.3125-.192875 9.62375-.192875 2.37625 0 2.7275 1.195875 2.7275 1.90725 0 1.005875-1.0225 1.787125-1.90375 1.787125-.6675 0-2.17.11575-3.30875.229-2.1825.42475-2.6875 1.209-2.91625 4.652875-.11875 3.129375-.11875 5.931125-.11875 21.48925v17.90525c0 12.473125.11875 20.158625 1.78 21.713875 1.435 1.4355 5.45125 2.065375 13.04375 2.065375 5.51375 0 9.57375-.192875 11.66125-2.67825 1.07-1.264625 1.885-3.138625 2.24-5.1455.22125-1.348625 1.03625-2.190875 2.1225-2.190875.66625 0 1.78625.339375 1.78625 2.610875 0 1.148875-.70625 7.214375-1.57 10.305125-.9625 3.19975-2.21625 3.5-7.6375 3.5M808.91375 109.241c-6.41 0-11.52-.15625-15.6275-.284625l-2.42625-.07325c-4.3575-.232-7.09875-.232-8.57375-.232-.51625 0-2.3675.008875-4.42125.11875-1.9125.108375-4.33875.234375-6.06375.234375-2.375 0-2.73125-1.193875-2.73125-1.904375 0-.9365.715-1.901875 1.91125-1.901875.48875 0 1.165-.13175 1.81875-.25775.4325-.083.855-.162125 1.2275-.2085 1.01125-.180625 1.2675-1.19625 1.71875-4.047875l.05625-.353c.57875-4.028375.57875-12.1275.57875-21.504875V61.155125c0-15.541125 0-18.340875-.23625-21.48-.22375-3.2515-.66125-4.182125-3.3075-4.547375-.7875-.11325-2.49375-.2275-3.39125-.2275-.945 0-1.9075-.96-1.9075-1.903375 0-.871125.475-1.90725 2.735-1.90725 3.495 0 8.03375.128875 10.4725.19775.82875.0235 1.39.039125 1.54.039125l1.35875.005375c3.01125.014125 10.3725.04825 16.08.04825 4.1325 0 6.57-.018 7.245-.05175 1.53625-.09075 2.99875-.324625 3.9675-.480375l.64625-.099625c.02875-.01225.1575-.07625.28875-.13475.34375-.153875.7725-.34425 1.2825-.34425.71625 0 1.55375.52925 1.55375 2.0195 0 .402875-.10625.815875-.2375 1.339875-.1925.75875-.45625 1.79975-.595 3.46475-.045.370625-.0975 1.142625-.16375 2.050875-.1575 2.179125-.2875 3.90575-.44125 4.667875-.24625.985375-.95375 1.926375-2 1.926375-.4475 0-1.9075-.1705-1.9075-2.376 0-.7495-.13625-2.20025-.51-3.129375-.45375-1.05675-.98625-1.70025-6.5575-2.394625-1.5425-.2065-11.72125-.323625-14.33375-.34125v27.1685c7.09625-.0025 15.06-.064 16.7225-.228625l.2025-.019c2.33-.21975 3.48125-.357875 4.20375-1.082.14875-.149375.285-.2915.41125-.423375.64125-.6655 1.15125-1.190375 1.8875-1.190375.82875 0 1.6675.589375 1.6675 1.90575 0 .315875-.07625.67725-.1925 1.225125-.19375.912-.48375 2.291875-.63625 4.388125-.2375 2.02875-.47125 5.763625-.47125 6.403375 0 1.79925-.79125 2.963375-2.02 2.963375-.8875 0-1.78375-.623625-1.78375-2.0225 0-.889125 0-1.810125-.40875-2.924375l-.03125-.107375c-.18125-.714375-.45125-1.7935-4.3825-2.256375-2.5675-.31975-12.45375-.450625-15.16875-.461875V78.826c0 .959875-.00875 2.57175-.0175 4.4345-.03 4.71925-.06625 11.17925.015 12.5845.20125 5.76275 1.1975 6.994625 11.295 6.994625 2.605 0 7.455 0 9.96875-.98775 2.11-.9155 3.4675-2.216875 4.0425-6.1035.1775-.891125.48875-2.453625 2.1275-2.453625.53625 0 1.78375.256375 1.78375 2.61375 0 .80075-.8375 7.742625-1.4525 9.94625-.9225 3.38625-2.76875 3.38625-6.81125 3.38625M871.57625 109.00425c-4.39875 0-9.34125-.20275-11.71875-.30175-.73375-.030375-1.22125-.051375-1.3575-.051375-.13375 0-.73625.028375-1.5975.067375-2.36125.1075-6.3125.28575-8.5325.28575-1.81375 0-2.7325-.63975-2.7325-1.904375 0-.9365.7125-1.901875 1.9025-1.901875.6925 0 1.66125-.15525 2.80125-.44425 1.175-.258875 1.99-1.09375 2.25125-4.340875.2325-4.0625.2325-8.32275.2325-9.923375v-8.601c0-5.274-.67625-7.09575-2.11-9.736875-.8525-1.5795-14.825-23.762125-18.325-29.013125-2.4875-3.785625-4.93375-5.902875-6.54875-7.01275-1.3125-.806625-3.11625-1.2255-3.745-1.2255-1.16125 0-2.14375-.926875-2.14375-2.023 0-.537625.235-1.787625 2.38125-1.787625 1.35875 0 5.31125.107 7.9275.17775 1.24375.03375 2.17125.059125 2.32125.059125.2025 0 .7075-.02 1.41375-.048875 1.755-.07025 4.69375-.188 7.5375-.188.61625 0 2.49375 0 2.49375 1.787625 0 1.105-1.215 1.649875-2.35375 2.07375-.59.25725-.59.440875-.59.637125 0 1.03425.52125 1.985375 1.125 3.0845l.1575.287625 17.84 29.55075c2.3775-4.287125 7.74625-13.29825 11.82375-20.140125 2.05875-3.453125 3.685-6.181625 4.26375-7.192375 1.07875-1.86575 1.62375-3.42825 1.62375-4.649375 0-1.195375-.38125-1.40475-.87875-1.556125-1.40125-.34775-2.305-1.20025-2.305-2.2105 0-.503375.26625-1.672875 2.73125-1.672875 1.77375 0 3.9025.098125 5.4575.17.81375.036625 1.445.066875 1.72875.066875.26125 0 1.4425-.03225 2.925-.07375 2.505-.068375 5.93625-.163125 7.20875-.163125 1.4225 0 2.3775.671875 2.3775 1.672875 0 1.02875-.91 2.13775-2.3775 2.13775-1.13375 0-2.9.357375-4.2925 1.15475-1.8125 1.067375-2.6825 2.0225-4.8875 4.69825-3.26375 3.82275-17.88 27.338875-20.0125 31.604-1.3425 2.67575-1.28 5.15725-1.21375 7.783125.015.581125.03 1.162125.03 1.748125v8.601c0 1.59575 0 5.842375.35 9.9185.2425 3.027375.93625 3.995125 3.09 4.328625 1.36875.228 3.65875.461375 4.5525.461375 1.19125 0 1.90375.965375 1.90375 1.901875 0 .8775-.71375 1.904375-2.72875 1.904375M126.29375 40.277125c.03875 0 .06875.00975.10625.00975.03 0 .06125-.00975.09875-.00975 13.67875 0 24.77375 11.084 24.77375 24.777875 0 7.659125-3.48125 14.50725-8.9475 19.047875-2.38375 2.25825-5.36125 3.90625-9.00375 4.75-2.15625.627375-4.46.972625-6.8225.972625H126.29375c-2.363625 0-4.655125-.34525-6.8265-.972625-3.63325-.84375-6.622-2.49175-8.9995-4.75C105 79.56225 101.518125 72.714125 101.518125 65.055c0-13.693875 11.098625-24.777875 24.775625-24.777875zM21.36425 139.95c13.309125 1.6723625 25.1265-8.017575 26.38525-21.641625.4165-4.598625-.44675-9.059-2.24125-13.00925-18.650875-40.9195 73.3545-41.8535 57.811125-3.2275-.03525.05025-.067875.09425-.108375.1635-7.351625 11.7505-3.36925 27.027375 8.856375 34.0947625 4.496125 2.59521 9.46775 3.68505387 14.332625 3.48534625 4.865.19970762 9.84375-.89013625 14.33-3.48534625 12.21875-7.0673875 16.2-22.3442625 8.85125-34.0947625-.03375-.06925-.07625-.11325-.10875-.1635-15.5375-38.626 76.46875-37.692 57.8125 3.2275-1.80375 3.95025-2.6525 8.410625-2.24125 13.00925 1.26 13.62405 13.07125 23.3139875 26.38875 21.641625 5.9175-.74609375 11.1375-3.6098625 14.99625-7.7587875 0 0 6.1975-5.1338375 6.095-18.2407125-.0875-10.681125-6.095-16.598125-6.095-16.598125-4.83375-4.891125-11.7175-7.578125-19.0875-6.7905-17.08125-.38725-19.6125-13.7505-14.7925-38.97025 1.76875-4.46975 2.53875-9.26375 2.38125-14.05175.47125-12.890625-6.0125-25.603625-17.94625-32.518625-1.45375-.84125-2.95375-1.5275-4.4725-2.15-.40625-.18-.82625-.3275-1.24-.49-.475-.16875-.9325-.35125-1.41-.48875C186.1475.63875 182.17875-.04375 178.0475.00125 165.195.12 154.005 6.9875 147.73375 17.185875c-8.6025 9.432625-12.48875 15.166-21.33375 15.166-8.405875 0-12.739875-5.733375-21.3395-15.166C98.7905 6.9875 87.599125.12 74.745125.00125c-4.13675-.045-8.09625.6375-11.808625 1.89125-.477.1375-.94625.32-1.40625.48875-.419875.1625-.8305.31-1.249.49-1.513625.6225-3.0185 1.30875-4.462375 2.15-11.94725 6.915-18.424375 19.628-17.955625 32.518625-.159625 4.788.620125 9.582 2.382875 14.05175 4.815375 25.21975 2.2885 38.583-14.78325 38.97025-8.36475-.9-14.60545 2.546375-20.916 8.86325-6.319825 6.314875-5.7998 23.208 0 30.587375 4.2045875 5.3598625 9.909625 9.06982375 16.817375 9.9375"/>
  </g>
</svg>
