<?xml version="1.0" encoding="UTF-8" standalone="no"?>
<!-- Created with Inkscape (http://www.inkscape.org/) -->
<svg id="svg2" xmlns:rdf="http://www.w3.org/1999/02/22-rdf-syntax-ns#" xmlns="http://www.w3.org/2000/svg" xml:space="preserve" viewBox="0 0 337.55 80.338" version="1.1" xmlns:cc="http://creativecommons.org/ns#" xmlns:dc="http://purl.org/dc/elements/1.1/"><metadata id="metadata8"><rdf:RDF><cc:Work rdf:about=""><dc:format>image/svg+xml</dc:format><dc:type rdf:resource="http://purl.org/dc/dcmitype/StillImage"/><dc:title/></cc:Work></rdf:RDF></metadata><defs id="defs6"><clipPath id="clipPath18" clipPathUnits="userSpaceOnUse"><path id="path20" d="m1560.3,171.38c11.19,0,22.98,1.055,34.03,4.824,6.84,8.055,11.12,18.36,11.12,29.754,0,25.469-20.65,46.133-46.14,46.133s-46.15-20.664-46.15-46.133c0-10.828,3.88-20.652,10.12-28.523,3.61-1.36,7.52-2.59,11.92-3.52,7.58-1.617,16.62-2.535,25.1-2.535z"/></clipPath><radialGradient id="radialGradient22" gradientUnits="userSpaceOnUse" cy="0" cx="0" gradientTransform="matrix(6.1079,0,0,-6.1079,155.94,21.7676)" r="1"><stop id="stop24" stop-color="#ffffff" offset="0"/><stop id="stop26" stop-color="#ffffff" offset="0.56593"/><stop id="stop30" stop-color="#ffffff" offset="1"/></radialGradient><clipPath id="clipPath58" clipPathUnits="userSpaceOnUse"><path id="path60" d="m1576.6,232.57c1.06-0.656,2.45-0.695,3.28,0.235,1.33,1.492,2.07,3.172,2.07,4.929,0,6.465-9.98,11.7-22.31,11.7s-22.32-5.235-22.32-11.7c0-1.757,0.75-3.437,2.09-4.929,0.83-0.93,2.22-0.891,3.27-0.235,4.08,2.508,10.17,4.102,16.96,4.102,6.8,0,12.85-1.594,16.96-4.102z"/></clipPath><linearGradient id="linearGradient62" gradientUnits="userSpaceOnUse" gradientTransform="matrix(2e-8,-1.73438,-1.73438,-2e-8,155.967,24.9434)"><stop id="stop64" stop-color="#ffffff" offset="0"/><stop id="stop66" stop-color="#ffffff" offset="1"/></linearGradient></defs><g id="g10" transform="matrix(1.25,0,0,-1.25,0,80.3375)"><g id="g12" transform="scale(0.1,0.1)"><g id="g14"><g id="g16" clip-path="url(#clipPath18)"><path id="path32" fill-rule="nonzero" fill="url(#radialGradient22)" d="m1560.3,171.38c11.19,0,22.98,1.055,34.03,4.824,6.84,8.055,11.12,18.36,11.12,29.754,0,25.469-20.65,46.133-46.14,46.133s-46.15-20.664-46.15-46.133c0-10.828,3.88-20.652,10.12-28.523,3.61-1.36,7.52-2.59,11.92-3.52,7.58-1.617,16.62-2.535,25.1-2.535"/></g></g><path id="path34" fill-rule="nonzero" fill="#ffffff" d="m420.16,436.98c1.016,30.567,12.852,45.164,33.57,45.332,11.715-0.097,18.891-3.988,24.43-12.324,4.992-7.89,6.785-16.039,6.863-33.008h-64.863zm32.645,98.496c-32.516,0.079-57.746-10.734-77.926-33.417-21.734-24.083-30.859-53.879-30.82-97.239,0-38.269,11.316-70.195,31.722-92.527,20.403-22.344,49.782-34.902,84.957-34.887h0.2c34.316,0,64.222,11.137,92.222,33.969l2.594,2.117-28.371,43.606-3.207-2.637c-18.653-15.43-37.781-22.93-58.313-22.949-29.769,0.351-45.703,17.82-46.652,52.324h138.11v18.183c0.02,50.348-9.918,83.797-32.789,107.17-16.394,16.778-43.367,26.25-71.73,26.289"/><path id="path36" fill-rule="nonzero" fill="#ffffff" d="m702.33,334.19c-11.199-3.293-16.461-4.57-21.367-4.55-10.473,0.058-15.512,1.875-18.563,6.187-3.25,4.418-4.859,13.402-4.796,28.391l-0.02,118.1h39.012l18.699,48.985h-57.773v10.554c0,23.079-1.372,45.524-4.2,59.122l-0.769,3.73-69.863-16.715,1.042-3.703c2.786-10.129,4.368-11.777,4.422-34.172v-17.644h-0.039v-2.11h-23.828v-48.047h23.813v-127.89c-0.024-21.817,0.511-27.559,4.422-38.145,7.863-23.136,35.199-37.441,67.906-37.461,16.836,0,33.711,3.387,52.277,11.024l2.867,1.183-9.418,44.278-3.824-1.114"/><path id="path38" fill-rule="nonzero" fill="#ffffff" d="m2173.6,505.02c-8.45,22.218-35.11,36.543-65.6,36.582-22.22-0.047-46.28-8.106-63.5-21.043,0.23,3.711,0.47,7.988,0.47,11.718v47.602c-0.01,23.066-1.39,45.527-4.29,59.148l-0.81,3.7-71.4-16.7,1.07-3.742c2.61-8.984,4.55-31.469,4.52-53.613v-280.01h70.91v173.32c13.25,11.543,32.2,20.008,45.77,19.911,15.93-0.653,19.73-5.442,20.54-28.973v-164.26h68.58v170.82c0.08,26.993-1.57,32.032-6.26,45.536"/><path id="path40" fill-rule="nonzero" fill="#ffffff" d="m198.81,284.43,53.261,203.84c0.418-10.078,1.039-20.277,1.782-30.949l5.015-172.89h73.36l-24.61,331.81h-90.762l-50.355-198.88h-0.77l-50.359,198.88h-90.762l-24.608-331.81h73.367l5.0078,172.89c0.7461,10.672,1.3594,20.871,1.7773,30.949l53.27-203.84h65.387"/><path id="path42" fill-rule="nonzero" fill="#ffffff" d="m1523.6,290.3,69.95-10.977,0,252.62-69.95,0,0-241.64"/><path id="path44" fill-rule="nonzero" fill="#ffffff" d="m1756.2,334.19c-11.2-3.293-16.46-4.57-21.38-4.55-10.47,0.058-15.51,1.875-18.55,6.187-3.24,4.418-4.88,13.402-4.82,28.391v118.1h38.98l18.74,48.985h-57.78v10.554c-0.02,23.079-1.37,45.524-4.22,59.122l-0.77,3.73-69.84-16.715,1.03-3.703c2.81-10.129,4.35-11.777,4.42-34.172l0.01-17.644h-0.06v-2.11h-23.81v-48.047h23.81v-127.89c-0.04-21.817,0.51-27.559,4.41-38.145,7.85-23.136,35.19-37.441,67.92-37.461,16.84,0,33.72,3.387,52.28,11.024l2.87,1.183-9.42,44.278-3.82-1.114"/><path id="path46" fill-rule="nonzero" fill="#ffffff" d="m1920.1,352.53c-15.12-13.234-27.15-18.644-40.5-18.672-9.56-0.019-19.32,4.668-25.08,12.09-7.46,8.946-11.42,26.922-11.36,57.93-0.04,27.742,3.18,47.363,9.4,59.473,6.31,12.031,14.59,16.953,27.51,17.117,10.17,0.058,23.11-6.375,35.29-17.696l3.03-2.82,34.85,47.195-2.6,2.239c-10.24,8.867-14.92,12.519-24.02,17.265-14.19,6.844-31.44,11.153-47.96,11.172-20.92-0.039-44.68-7.14-61.35-18.398-29.17-19.856-50.7-57.68-50.66-113.69,0-39.32,9.71-71.035,28.24-93.046,18.49-21.985,45.73-33.868,79.39-33.887h0.17c23.45,0,42.9,5.312,60.23,15.457,8.61,5.246,13.33,8.945,22.69,18.312l2.29,2.301-32.85,43.578-6.71-5.918"/><path id="path48" fill-rule="nonzero" fill="#ffffff" d="m1406.9,383.82-33.59,148.09-64.72,0-36.42-149.16-30.45,149.51-69.95-0.754,67.37-245.06,64.12,0,35.37,151.34,35.77-151.34,63.14,0,70.29,245.46-72.42,0-28.51-148.09"/><path id="path50" fill-rule="nonzero" fill="#ffffff" d="m850.75,342.84c-8.617-9.074-19.012-14.153-28.988-14.133-13.707,0.109-23.656,10.41-23.828,27.57,0.113,13.731,3.3,20.879,11.093,25.703,7.836,4.825,21.629,6.981,42.571,6.993l-0.848-46.133zm69.469,20.445,0,4.191,1.402,80.208c0.02,25.73-0.953,33.925-4.387,44.199-10.035,28.633-39.632,44.16-80.531,44.082-22.429,0-43.121-4.367-66.789-14.297-16.773-6.496-23.847-10.039-39.308-19.926l-3.024-1.922,1.824-3.078,28.61-48.199,3.25,2.187c25.363,17.098,48.176,26.504,67.035,26.465,11.09-0.039,16.512-2.14,19.598-6.269,3.25-4.219,4.742-12.403,4.687-25.508v-5.844c-4.066,0.219-6.684,0.219-10.277,0.219-38.465-0.02-67.887-6.535-88.094-20.734-20.262-14.208-30.543-36.278-30.457-65.118-0.027-24.519,7.523-44.406,22.332-57.929,14.789-13.543,36.32-20.481,63.527-20.481,20.192,0.024,37.7,4.789,50.25,13.762,4.067,2.844,5.602,4.199,11.41,9.68,7.247-11.321,19.579-20.715,33.059-26.399l2.477-1.055,37.515,43.332-3.207,2.403c-17.554,13.418-20.574,20.527-20.902,46.031"/><path id="path52" fill-rule="nonzero" fill="#ffffff" d="m1156.1,408.95c-8.7,11.36-20.36,21.399-50.4,28.871l-29,7.481c-21.95,6.023-26.12,10.484-26.31,19.605,0.06,10.688,8.71,18.215,25.55,18.52,16.77-0.02,33.19-4.785,56.78-16.789l4.44-2.254,24.92,51.023-4.36,2.16c-22.08,10.809-48.47,23.008-87.88,22.965-28.77,0-53.13-8.094-70.421-22.691-17.304-14.582-27.238-35.723-27.219-60.434,0.09-16.519,5.286-34.508,14.704-46.168,9.703-11.601,29.576-22.871,46.966-26.086l28.06-5.125c25.01-5.078,32.83-11.484,32.98-24.687-0.02-12.207-11.17-22.129-26.95-22.246-25.38-0.118-58.41,14.961-77.037,26.441l-4.609,2.785-26.957-55.019,4.265-2.227c35.59-18.496,68.638-28.172,99.198-28.172,31.54,0,58.33,8.672,77.38,24.18,19.06,15.449,30.13,37.898,30.1,64.062,0.02,16.797-4.53,31.649-14.2,43.805"/><g id="g54"><g id="g56" clip-path="url(#clipPath58)"><path id="path68" fill-rule="nonzero" fill="url(#linearGradient62)" d="m1576.6,232.57c1.06-0.656,2.45-0.695,3.28,0.235,1.33,1.492,2.07,3.172,2.07,4.929,0,6.465-9.98,11.7-22.31,11.7s-22.32-5.235-22.32-11.7c0-1.757,0.75-3.437,2.09-4.929,0.83-0.93,2.22-0.891,3.27-0.235,4.08,2.508,10.17,4.102,16.96,4.102,6.8,0,12.85-1.594,16.96-4.102"/></g></g><path id="path70" fill-rule="nonzero" fill="#ffffff" d="m1895,156.35c0.2,0.761-0.32,1.836-2.67,7.09l-1.75,3.73c-0.58,1.27-0.95,2.102-1.47,2.57-8.83,15.758-23.83,30.172-45.67,43.907-20.46,12.91-44.29,23.691-70.86,32.109l-1.36,0.496c-1.63,0.645-3.68,1.414-5.66,1.414-1.02,0-1.95-0.211-2.77-0.601l-1.85-1.016,0.07-1.762c0.13-2.301,2.32-3.308,7.47-5.164,6.49-2.488,12.88-5.156,19.17-8.074,12.95-5.957,23.97-12.219,33.71-19.082,18.48-13.117,39.8-34.25,36.48-60.715-2.43-18.934-16.51-36.953-41.91-53.547-18.15-11.824-39.34-21.402-66.73-30.223-45.55-14.551-96.26-22.93-155-25.516-11.65-0.4882-23.3-0.7812-35.01-0.7812-45.03,0-88.66,3.9648-129.71,11.746-27.17,5.1484-51.15,11.621-73.26,19.758-27.04,9.9023-47.28,20.602-63.69,33.672-13.51,10.731-35.26,32.887-29.13,60.204,4.39,19.425,20.25,36.945,48.47,53.632,10.38,6.086,21.86,11.672,35.06,16.926,2.95,1.207,5.89,2.332,8.86,3.438,0.71,0.222,4.36,1.687,3.91,4.48-0.12,0.774-0.74,2.531-4.11,2.57-5.06,0-10.62-2.277-15.49-4.289-1.49-0.617-2.92-1.242-4.27-1.699-28.04-10.168-50.74-21.66-69.41-35.125-23.26-16.797-36.99-34.336-41.94-53.625-5.43-21.074,1.55-43.66,19.68-63.543,30.58-33.488,76.85-50.742,113.76-62.051,43.19-13.164,89.96-21.406,142.96-25.129,19.8-1.4148,40.1-2.157,59.9-2.157,34.58,0,68.97,2.168,102.24,6.4961,53.05,6.7773,98.07,18.035,137.62,34.441,23.53,9.6875,42.55,20.363,58.12,32.492,19.01,14.812,31.21,30.769,36.32,47.48,3.47,11.445,3.36,23.77-0.28,35.438"/><path id="path72" fill-rule="nonzero" fill="#ffffff" d="m1715.5,215.7c-4.26,1.789-8.79,3.449-13.43,5.051-6.88,2.351-9.64,0.332-2.18-2.961,6.34-2.801,12.12-5.867,17.22-9.133,5.33-3.394,9.94-7.105,13.66-11.051,3.87-4.113,6.59-8.332,8.13-12.589,1.63-4.403,1.96-8.934,1.05-13.379-0.99-4.649-3.4-9.286-7.19-13.817-3.95-4.726-9.4-9.297-16.31-13.644-7.15-4.532-15.86-8.758-26.02-12.625-10.46-3.946-22.43-7.461-35.66-10.442-13.56-3.027-28.39-5.41-44.18-7.058-16.04-1.66-32.88-2.52-50.29-2.52-17.43,0-34.3,0.86-50.32,2.52-15.81,1.648-30.62,4.031-44.19,7.058-13.25,2.981-25.18,6.496-35.67,10.442-10.16,3.867-18.87,8.093-26.05,12.625-6.91,4.347-12.34,8.918-16.28,13.644-3.79,4.531-6.19,9.168-7.17,13.817-0.94,4.445-0.61,8.976,1.01,13.379,1.56,4.257,4.26,8.476,8.14,12.589,3.71,3.946,8.31,7.657,13.65,11.051,5.12,3.266,10.91,6.332,17.24,9.133,0.9,0.391,1.83,0.781,2.74,1.145,4.46,1.816,0.05,3.523-4.36,2.011-4.86-1.664-9.57-3.398-14.02-5.246-15-6.308-27.84-13.777-37.05-22.441-10.13-9.578-14.89-19.657-14.07-29.824,0.91-11.239,8.66-22.469,23.31-32.801,16.01-11.27,39.84-21.211,70.45-28.535,32.38-7.7465,70.86-12.231,112.64-12.231,41.76,0,80.2,4.4844,112.58,12.231,30.64,7.324,54.43,17.265,70.42,28.535,14.66,10.332,22.43,21.562,23.35,32.801,0.81,10.167-3.95,20.246-14.11,29.824-9.19,8.664-22.04,16.133-37.04,22.441"/><path id="path74" fill-rule="nonzero" fill="#ffffff" d="m1647.4,197.15c-2.39,1.27-5.05,2.512-7.89,3.653-3.09,1.269-5.8,0.5-2.97-1.465,4.26-3.016,7.34-7.258,8.85-10.457,1.8-3.82,1.1-7.676-1.8-11.281-3.06-3.739-8.46-7.285-15.95-10.313-20.95-8.504-44.94-10.515-67.33-10.515-12.99,0-26.9,1.074-38.49,2.937-11.36,1.836-21.18,4.453-28.89,7.578-7.47,3.028-12.9,6.574-15.96,10.313-2.92,3.605-3.61,7.461-1.79,11.281,1.47,3.144,4.48,7.324,8.63,10.293,2.29,1.629-0.36,2.625-2.7,1.668-2.85-1.16-5.52-2.383-7.91-3.692-6.82-3.671-11.91-7.929-14.57-12.597-2.75-4.949-2.5-9.891,0.5-14.629,3.13-4.981,9.3-9.688,18.06-13.801,9.18-4.293,21.07-7.867,35.11-10.418,14.35-2.605,30.66-4.09,48.01-4.109,17.34,0.019,33.64,1.504,47.99,4.109,14.06,2.551,25.91,6.125,35.08,10.418,8.8,4.113,14.95,8.82,18.09,13.801,3,4.738,3.22,9.68,0.5,14.629-2.66,4.668-7.77,8.926-14.57,12.597"/><path id="path76" fill-rule="nonzero" fill="#ffffff" d="m2142,166.5-42.21,0.098c0.8,20.039,8.57,30.086,22.36,30.105,7.39,0,14.19-3.34,17.47-8.562,2.94-4.66,4.3-11.086,4.49-21.641h-2.11zm-19.07,42.488c-11.74,0-21.35-4.511-29.17-13.699-8.42-9.59-11.74-20.375-11.74-36.789,0.04-32.234,16.24-51.797,43.26-51.844,12.51,0,24.27,4.305,32.86,12.129l-5.83,9.891-0.09-0.059-0.08,0.078c-6.79-6.23-14.39-9.152-23.76-9.152-9.73,0-18.69,3.508-24.12,11.848-3.29,5.078-4.47,12.082-4.47,21.242v2.351l60.64-0.085v0.203l0.09,2.023c-0.38,23.27-2.74,32.481-11.16,41.102-6.45,7.043-15.86,10.761-26.43,10.761"/><path id="path78" fill-rule="nonzero" fill="#ffffff" d="m2046.4,242.48,0-0.449,0.48-72.207c0.19-16.765,1.6-38.328,1.74-40.332-0.12,0.266-0.4,0.969-0.86,2.051-2.07,5.168-7.57,18.078-11.43,25.637l-44.53,85.359-18.64,0.039v-0.098h-0.11v-133.59l16.72-0.078-0.69,77.617c-0.21,13.176-0.77,24.797-1.73,36.035,0.6-1.57,1.38-3.426,2.27-5.43,3.12-7.304,7.9-16.961,12.75-26.347l42.97-81.836,16.88-0.039,0.09,133.67-15.91,0.098v-0.098"/><path id="path80" fill-rule="nonzero" fill="#ffffff" d="m2436.8,132.95c-3.32-9.336-10.88-14.57-20.99-14.59-8.37,0-16.18,3.926-19.65,9.739-3.71,6.004-6.05,18.113-6.05,31.757,0,11.532,1.56,19.325,4.69,25.348,3.48,6.223,11.26,10.5,19.83,10.5,7.97,0,16.52-3.894,20.61-12.43,3.11-6.437,4.48-15.609,4.48-29.277,0-9.562-0.79-15.012-2.92-21.047zm-21.99,75.449c-25.63-0.039-41.44-19.394-41.48-51.054,0.04-32.078,16.04-51.817,42.08-51.856,10.95,0,18.98,2.746,26.61,9.383,10.79,9.399,15.28,21.352,15.28,40.305,0,15.851-2.94,27.383-9,36.191-6.66,9.61-17.24,17.031-33.49,17.031"/><path id="path82" fill-rule="nonzero" fill="#ffffff" d="m2219.8,194.35,4.78,11.972-0.07,0.02,0,0.105-24.6,0c0.07,12.793,2.03,27.395,2.03,27.414l-0.1-0.019,0.01,0.039-4.05-0.899-11.8-2.511-0.27-2.637c-0.99-9.949-1.37-15.41-1.37-20.293v-1.191h-0.61l-12,0.097-0.1-12.011,12.81-0.086-0.1-66.524c0-9.765,2.57-16.066,9.42-19.414,3.74-1.758,7.65-2.754,12.76-2.754,6.84,0,12.33,1.375,17.22,3.934l-2.11,9.875c-0.03-0.012-0.05-0.02-0.08-0.031-0.05-0.02-0.09-0.039-0.14-0.059-2.79-1.211-5.45-1.777-9.63-1.777-9.54,0.019-12.36,3.613-12.41,14.347v62.489l20.41-0.086"/><path id="path84" fill-rule="nonzero" fill="#ffffff" d="m2606.3,128.6-30.14,35.45,3.17,3.484,35.1,38.555-0.13,0,0.07,0.058-7.84,0-11.3,0.098,0-0.105-0.09,0.078-37.09-42.168,44.72-55.207,20.39-0.039-0.07,0.078,0.07,0-16.86,19.718"/><path id="path86" fill-rule="nonzero" fill="#ffffff" d="m2674.4,165.23-12.88,2.746c-5.85,1.172-9.15,2.735-11.28,5.43-1.75,2.125-2.7,5.028-2.7,8.535,0,9.52,7.15,15.918,18.26,15.918,8.56,0,15.76-2.941,24.36-7.043l5.79,11.379-0.08,0.059,0.04,0.078c-8.21,4.695-19.57,7.82-29.72,7.82-20.34-0.039-34.64-12.332-34.68-29.98,0-6.453,2.17-12.352,6.28-17.059,4.5-5.082,9.6-7.832,18.4-9.789l12.11-2.539c11.11-2.34,15.93-7.168,15.94-15.934,0-10.277-7.74-16.671-19.62-16.691-10.74,0-20.86,3.137-30.81,9.172l-0.03-0.09-0.01-0.008-5.95-11.261c0.02-0.02,0.06-0.028,0.09-0.047,0.04-0.02,0.07-0.039,0.11-0.059,10-6.133,23.37-9.805,35.62-9.805,21.92,0.039,36.78,12.93,36.82,31.914,0,14.52-8.46,23.36-26.06,27.254"/><path id="path88" fill-rule="nonzero" fill="#ffffff" d="m2554.5,251.29-15.33-3.633,0.01-0.097-0.09-0.02c0.58-2.547,0.78-3.516,1.34-6.25,0.99-5.848,1.78-15.41,1.78-21.465v-110.94l15.33-0.078,0.08,114.33c0,6.074-0.57,15.644-1.16,20.515-0.39,2.356-0.79,4.133-1.96,7.637"/><path id="path90" fill-rule="nonzero" fill="#ffffff" d="m2361.4,205.96-3.13,0-12.88,0.098-15.52-65.301c-0.78-3.496-2.75-13.106-2.93-13.449l-0.3,0.05c-0.11,0.309-2.44,8.719-3.82,14.168l-17.2,65.235-16.28,0.078-17.67-64.531c-1.98-7.012-3.34-14.063-3.34-14.063l-0.49,0.078c0.09,0.02-1.28,7.207-3.39,16.153l-15.64,64.238-15.36-3.25,0.02-0.098-0.1-0.019,26.97-97.266,14.34-0.051,19.62,69.2c1,3.136,2.18,9.98,2.18,9.98l0.26-0.086,22.56-79.043,14.56-0.051,27.64,97.911h-0.1v0.019"/><path id="path92" fill-rule="nonzero" fill="#ffffff" d="m2497.3,193.05,0,0.539,0.1,0.652c0,6.457-0.98,9.422-3.34,14.492l-15.33-4.031,0.02-0.097-0.11-0.039c2.74-6.243,3.51-10.325,3.51-21.446v-74.23l15.35-0.078,0.09,61.015c0,8.008,1.16,10.879,5.64,15.371,4.48,4.465,10.31,6.993,16.14,6.993,1.73,0,2.3-0.184,4.26-0.774l0.03,0.09h0.01l0.18,0.519,6.15,16.036c-0.05,0.144-2.8,1.121-5.37,1.121-9.96,0-20.28-6.231-27.33-16.133"/></g></g></svg>
