<svg width="200" height="43" viewBox="0 0 200 43" version="1.1" xmlns="http://www.w3.org/2000/svg" xmlns:xlink="http://www.w3.org/1999/xlink" xmlns:figma="http://www.figma.com/figma/ns">
<title>microsoft-logo</title>
<desc>Created using Figma</desc>
<g id="Canvas" transform="translate(0 -203)" figma:type="canvas">
<g id="microsoft-logo" style="mix-blend-mode:normal;" figma:type="frame">
<g id="Group" style="mix-blend-mode:normal;" figma:type="frame">
<g id="Vector" style="mix-blend-mode:normal;" figma:type="vector">
<use xlink:href="#path0_fill" transform="translate(0 203)" fill="#F25022" style="mix-blend-mode:normal;"/>
</g>
<g id="Vector" style="mix-blend-mode:normal;" figma:type="vector">
<use xlink:href="#path1_fill" transform="translate(22.3917 203)" fill="#80BA01" style="mix-blend-mode:normal;"/>
</g>
<g id="Vector" style="mix-blend-mode:normal;" figma:type="vector">
<use xlink:href="#path2_fill" transform="translate(86.9049 210.88)" fill="#777777" style="mix-blend-mode:normal;"/>
</g>
<g id="Vector" style="mix-blend-mode:normal;" figma:type="vector">
<use xlink:href="#path3_fill" transform="translate(55.4606 211.446)" fill="#777777" style="mix-blend-mode:normal;"/>
</g>
<g id="Vector" style="mix-blend-mode:normal;" figma:type="vector">
<use xlink:href="#path4_fill" transform="translate(94.6159 218.174)" fill="#777777" style="mix-blend-mode:normal;"/>
</g>
<g id="Vector" style="mix-blend-mode:normal;" figma:type="vector">
<use xlink:href="#path5_fill" transform="translate(144.039 218.194)" fill="#777777" style="mix-blend-mode:normal;"/>
</g>
<g id="Vector" style="mix-blend-mode:normal;" figma:type="vector">
<use xlink:href="#path6_fill" transform="translate(112.239 218.296)" fill="#777777" style="mix-blend-mode:normal;"/>
</g>
<g id="Vector" style="mix-blend-mode:normal;" figma:type="vector">
<use xlink:href="#path7_fill" transform="translate(87.3093 218.631)" fill="#777777" style="mix-blend-mode:normal;"/>
</g>
<g id="Vector" style="mix-blend-mode:normal;" figma:type="vector">
<use xlink:href="#path8_fill" transform="translate(123.16 218.176)" fill="#777777" style="mix-blend-mode:normal;"/>
</g>
<g id="Vector" style="mix-blend-mode:normal;" figma:type="vector">
<use xlink:href="#path9_fill" transform="translate(158.133 218.184)" fill="#777777" style="mix-blend-mode:normal;"/>
</g>
<g id="Vector" style="mix-blend-mode:normal;" figma:type="vector">
<use xlink:href="#path10_fill" transform="translate(177.376 209.572)" fill="#777777" style="mix-blend-mode:normal;"/>
</g>
<g id="Vector" style="mix-blend-mode:normal;" figma:type="vector">
<use xlink:href="#path11_fill" transform="translate(0 225.161)" fill="#02A4EF" style="mix-blend-mode:normal;"/>
</g>
<g id="Vector" style="mix-blend-mode:normal;" figma:type="vector">
<use xlink:href="#path12_fill" transform="translate(22.3917 225.161)" fill="#FFB902" style="mix-blend-mode:normal;"/>
</g>
</g>
</g>
</g>
<defs>
<path id="path0_fill" d="M 0 0L 20.3173 0C 20.3173 6.7025 20.3173 13.405 20.3173 20.1075C 13.5448 20.1075 6.77242 20.1075 0 20.1075L 0 0Z"/>
<path id="path1_fill" d="M 0 0L 20.3173 0C 20.3173 6.7025 20.3173 13.405 20.3173 20.1075C 13.5448 20.1075 6.77242 20.1075 0 20.1075C 0 13.405 0 6.7025 0 0Z"/>
<path id="path2_fill" d="M 2.23487 0.0306175C 3.12565 -0.102225 4.07746 0.19969 4.66318 0.888055C 5.34652 1.6368 5.48075 2.83239 4.96824 3.71398C 4.40693 4.70426 3.13786 5.16317 2.03963 4.92163C 0.90479 4.71633 -0.047011 3.66567 0.00179927 2.49424C -0.0348084 1.27451 1.01461 0.175537 2.23487 0.0306175Z"/>
<path id="path3_fill" d="M 0 0.00788675C 2.13545 0.00788675 4.25869 0.00788675 6.39414 0.00788675C 8.38316 5.00759 10.3844 9.99522 12.3734 14.9949C 12.8859 16.2509 13.3618 17.5069 13.8865 18.7507C 16.4491 12.5072 19.036 6.27563 21.5863 0.0199631C 23.6364 -0.0162666 25.6864 0.00788675 27.7364 0.00788675C 27.7364 8.4615 27.7364 16.9151 27.7364 25.3687C 26.2599 25.3687 24.7834 25.3808 23.3069 25.3566C 23.3191 19.1251 23.3069 12.8815 23.3191 6.63793C 23.3191 6.36017 23.3069 6.08241 23.2947 5.79257C 23.2093 5.92541 23.1361 6.05826 23.0628 6.20317C 20.5247 12.5917 17.9378 18.956 15.4118 25.3446C 14.3624 25.3808 13.313 25.3446 12.2514 25.3687C 9.62782 18.9802 7.04088 12.5796 4.44173 6.1911C 4.36852 6.05825 4.2953 5.92541 4.22209 5.80465C 4.17328 8.53395 4.20988 11.2753 4.19768 14.0046C 4.19768 17.7846 4.19768 21.5767 4.19768 25.3566C 2.80659 25.3566 1.4033 25.3566 0.0122033 25.3566C 7.44603e-07 16.9151 0 8.4615 0 0.00788675Z"/>
<path id="path4_fill" d="M 6.61651 0.440977C 8.73976 -0.162852 11.0216 -0.1387 13.1449 0.46513C 13.5842 0.585895 13.9991 0.754968 14.4018 0.984423C 14.3773 2.37323 14.4017 3.76204 14.3895 5.13877C 12.974 4.06395 11.1803 3.38766 9.37429 3.61712C 7.94659 3.74996 6.5799 4.47456 5.72572 5.62183C 4.62749 7.03479 4.37124 8.91874 4.56648 10.6578C 4.71291 12.0103 5.27423 13.375 6.33585 14.2687C 7.44629 15.2469 8.99601 15.585 10.4481 15.4763C 11.8758 15.3073 13.2303 14.7155 14.3895 13.8701C 14.4017 15.1865 14.3895 16.4908 14.4018 17.8071C 12.608 18.8698 10.4481 19.1355 8.39809 19.0389C 6.29925 18.9302 4.2004 18.1452 2.67508 16.6719C 1.01554 15.0899 0.12475 12.8436 0.0149269 10.5853C -0.0948961 8.24245 0.393208 5.7909 1.74769 3.8345C 2.88253 2.18 4.6641 0.9965 6.61651 0.440977Z"/>
<path id="path5_fill" d="M 5.18609 0.155752C 7.21172 -0.194469 9.34716 0.0591394 11.263 0.783734C 11.263 2.11216 11.263 3.45266 11.263 4.78108C 9.92068 3.86326 8.27334 3.3802 6.6504 3.42851C 5.83283 3.46474 4.92983 3.80288 4.55155 4.57578C 4.25869 5.33661 4.45394 6.33896 5.18609 6.79787C 6.43075 7.61908 7.91947 7.9693 9.21294 8.71805C 10.2258 9.28565 11.2142 10.0223 11.7267 11.0851C 12.6907 13.0777 12.288 15.7225 10.5796 17.2079C 8.95668 18.7054 6.61379 19.1281 4.46614 19.0435C 2.94082 18.9469 1.4033 18.645 2.97914e-06 18.0291C 0.0122055 16.6282 -0.0122026 15.2273 0.0122026 13.8264C 1.19585 14.6718 2.55033 15.2877 4.00243 15.5292C 5.00304 15.6862 6.10128 15.6983 7.04088 15.2515C 7.93166 14.8167 8.1025 13.5487 7.56559 12.7758C 7.06529 12.184 6.33312 11.858 5.64978 11.5319C 4.35631 10.9522 2.98963 10.4692 1.85479 9.61171C 1.04942 8.99581 0.451492 8.1263 0.207441 7.14809C -0.146434 5.6989 -0.0366107 4.06857 0.817569 2.8126C 1.78157 1.33926 3.46553 0.457666 5.18609 0.155752Z"/>
<path id="path6_fill" d="M 6.58938 0.621167C 7.79744 -0.103428 9.34716 -0.163811 10.665 0.283023C 10.6528 1.73221 10.665 3.1814 10.665 4.63059C 9.79866 4.07507 8.71263 3.83354 7.69982 3.94223C 6.45516 4.08715 5.46675 5.02912 4.95424 6.11601C 4.39293 7.26329 4.2953 8.56756 4.33191 9.82352C 4.33191 12.7219 4.33191 15.6203 4.33191 18.5187C 2.89201 18.5187 1.4399 18.5187 -1.48957e-06 18.5187C -1.48957e-06 12.4683 -1.48957e-06 6.40585 -1.48957e-06 0.355483C 1.4399 0.33133 2.89201 0.343406 4.33191 0.355483C 4.31971 1.39407 4.33191 2.43265 4.33191 3.47124C 4.79561 2.33604 5.49115 1.23707 6.58938 0.621167Z"/>
<path id="path7_fill" d="M 1.38727e-14 0.00788675C 1.4521 0.00788675 2.91641 -0.0162657 4.36852 0.0199641C 4.35631 6.07033 4.36852 12.1328 4.35632 18.1831C 2.90421 18.1831 1.4521 18.1831 1.38727e-14 18.1831C 2.77454e-14 12.1207 1.38727e-14 6.07033 1.38727e-14 0.00788675Z"/>
<path id="path8_fill" d="M 17.9631 4.70169C 17.2066 3.02305 15.8277 1.62216 14.1193 0.861339C 12.1669 -0.0202521 9.93385 -0.141019 7.83501 0.124666C 5.61414 0.402428 3.46648 1.42894 2.06319 3.18004C 0.781921 4.73792 0.159594 6.74263 0.0375679 8.73527C -0.133268 11.0781 0.257216 13.5659 1.64831 15.5223C 2.83196 17.213 4.69895 18.3724 6.72458 18.7951C 8.40853 19.1453 10.1779 19.1453 11.8741 18.7951C 13.8509 18.3965 15.6935 17.3096 16.9137 15.7155C 18.1096 14.206 18.7075 12.3099 18.8417 10.426C 18.9759 8.49374 18.7807 6.48903 17.9631 4.70169ZM 13.7289 13.0466C 13.314 13.9765 12.5452 14.7736 11.569 15.1479C 10.4342 15.5827 9.15288 15.6068 7.98143 15.3049C 6.78558 14.9909 5.77277 14.1456 5.22366 13.0587C 4.51591 11.6578 4.40608 10.0395 4.55252 8.50582C 4.68674 7.11701 5.17485 5.67989 6.24867 4.71377C 7.02964 3.98917 8.09126 3.63895 9.14068 3.57857C 10.4586 3.49403 11.8619 3.86841 12.8137 4.81038C 13.8265 5.80066 14.2169 7.2257 14.3268 8.60243C 14.4244 10.0999 14.3634 11.6578 13.7289 13.0466Z"/>
<path id="path9_fill" d="M 18.1822 5.22519C 17.5111 3.42578 16.1566 1.85582 14.4116 0.998384C 12.4104 -0.00397283 10.0797 -0.148892 7.89545 0.116793C 6.12608 0.346248 4.39333 1.01046 3.03884 2.18189C 1.3915 3.58277 0.427488 5.64787 0.134627 7.76127C -0.133829 9.87467 -0.0484174 12.0968 0.830167 14.0773C 1.65994 16.0217 3.3073 17.5916 5.29632 18.3645C 7.24873 19.1253 9.42078 19.2099 11.483 18.8838C 13.5819 18.5457 15.5831 17.4467 16.8888 15.756C 18.2798 14.0169 18.8778 11.7586 18.8778 9.56068C 18.9022 8.09941 18.7191 6.60192 18.1822 5.22519ZM 14.2164 11.3842C 14.0456 12.3383 13.7161 13.2923 13.0815 14.0532C 12.447 14.814 11.4952 15.2729 10.519 15.4178C 9.46958 15.5748 8.35916 15.5024 7.37075 15.0797C 6.30913 14.6328 5.49156 13.7271 5.05227 12.6764C 4.52756 11.4326 4.42993 10.0437 4.52755 8.71532C 4.62517 7.42313 4.99125 6.0947 5.85763 5.09234C 6.6386 4.15037 7.84664 3.64316 9.0669 3.5707C 10.3116 3.48616 11.6294 3.76392 12.5812 4.59721C 13.4598 5.3218 13.9479 6.39662 14.1676 7.49559C 14.436 8.7757 14.436 10.1041 14.2164 11.3842Z"/>
<path id="path10_fill" d="M 22.6236 12.594L 22.6236 9.06763C 21.1714 9.06763 19.7193 9.05555 18.2794 9.0797C 18.2428 7.26822 18.2794 5.44465 18.2672 3.63316C 16.8151 4.06792 15.3752 4.52683 13.9231 4.93744C 13.8865 6.31417 13.9231 7.6909 13.8987 9.06763C 11.7511 9.06763 9.61563 9.06763 7.46797 9.06763C 7.49238 7.98073 7.39475 6.89384 7.55339 5.80695C 7.68761 4.96159 8.18792 4.10415 9.01769 3.77808C 10.0793 3.3554 11.2508 3.63316 12.2514 4.06792C 12.2392 2.82403 12.2636 1.58015 12.2392 0.336257C 10.1281 -0.243419 7.71202 -0.122653 5.83283 1.08501C 4.62477 1.84583 3.74618 3.07764 3.3557 4.43022C 2.892 5.93979 3.12385 7.52182 3.05064 9.06763C 2.03782 9.05555 1.02501 9.05555 -2.97914e-06 9.06763C 0.0121996 10.227 0.0121996 11.3863 -2.97914e-06 12.5578C 1.02501 12.5819 2.03782 12.5578 3.06284 12.5698C 3.05063 17.4609 3.06284 22.3398 3.06284 27.2308C 4.52714 27.2308 5.99145 27.2308 7.45576 27.2308C 7.45576 22.3398 7.45576 17.4488 7.45576 12.5578C 9.60341 12.5578 11.7389 12.5578 13.8865 12.5578C 13.8987 15.6735 13.8865 18.7893 13.8865 21.905C 13.9109 23.3542 14.155 24.9121 15.1312 26.0594C 15.9732 27.0738 17.3032 27.5327 18.5967 27.6293C 19.9512 27.726 21.3545 27.5569 22.6114 27.0255L 22.6114 23.4629C 21.6473 24.103 20.3173 24.3566 19.2678 23.7769C 18.6455 23.4388 18.4015 22.7021 18.316 22.0379C 18.1818 20.9148 18.2672 19.7916 18.2428 18.6685C 18.2428 16.6396 18.2428 14.6108 18.2428 12.5819C 19.7193 12.5819 21.1714 12.5336 22.6236 12.594Z"/>
<path id="path11_fill" d="M 0 0C 6.77242 0 13.5448 0 20.3173 0C 20.3173 6.7025 20.3173 13.405 20.3173 20.1075L 0 20.1075L 0 0Z"/>
<path id="path12_fill" d="M 0 0C 6.77242 0 13.5448 0 20.3173 0C 20.3173 6.7025 20.3173 13.405 20.3173 20.1075L 0 20.1075C 0 13.405 0 6.7025 0 0Z"/>
</defs>
</svg>
