<?xml version="1.0" encoding="utf-8"?>
<!-- Generator: Adobe Illustrator 18.1.1, SVG Export Plug-In . SVG Version: 6.00 Build 0)  -->
<svg version="1.1" xmlns="http://www.w3.org/2000/svg" xmlns:xlink="http://www.w3.org/1999/xlink" x="0px" y="0px"
	 viewBox="0 0 550 326" enable-background="new 0 0 550 326" xml:space="preserve">
<g id="Layer_1">
	<g display="none">
		<path display="inline" d="M185.9,18.1c3.6,1.6,6.7,3.7,9.2,6.2c2.6,2.6,4.7,5.7,6.2,9.2c1.6,3.6,2.4,7.4,2.4,11.4v141
			c0,1.3-0.5,2.5-1.4,3.4c-0.9,0.9-2,1.4-3.4,1.4h-34.8c-1.3,0-2.4-0.5-3.2-1.4c-0.8-0.9-1.2-2-1.2-3.4V58.3h-28V186
			c0,1.3-0.4,2.5-1.2,3.4c-0.8,0.9-1.9,1.4-3.2,1.4H95.8c-1.3,0-2.5-0.5-3.4-1.4c-0.9-0.9-1.4-2-1.4-3.4V58.3H63V186
			c0,3.2-1.6,4.8-4.8,4.8H23.8c-3.2,0-4.8-1.6-4.8-4.8V20.5c0-3.2,1.6-4.7,4.8-4.7h150.8C178.5,15.8,182.3,16.6,185.9,18.1z"/>
		<path display="inline" d="M356,148.3c1.3,0,2.4,0.5,3.2,1.4c0.8,0.9,1.2,2,1.2,3.4v33c0,1.3-0.4,2.5-1.2,3.4
			c-0.8,0.9-1.9,1.4-3.2,1.4H248c-3.2,0-4.8-1.6-4.8-4.8V20.5c0-3.2,1.6-4.7,4.8-4.7h34.5c3.2,0,4.8,1.6,4.8,4.7v123.3
			c0,1.3,0.5,2.4,1.4,3.2c0.9,0.8,2,1.2,3.4,1.2H356z"/>
		<path display="inline" d="M526.5,15.8c1.3,0,2.5,0.5,3.4,1.4c0.9,0.9,1.4,2,1.4,3.4V186c0,1.3-0.5,2.5-1.4,3.4
			c-0.9,0.9-2,1.4-3.4,1.4h-34.8c-1.3,0-2.5-0.5-3.4-1.4c-0.9-0.9-1.4-2-1.4-3.4v-57.8c0-1.3-0.4-2.4-1.2-3.3
			c-0.8-0.8-1.9-1.2-3.2-1.2h-48.7c-1.3,0-2.5,0.4-3.4,1.2c-0.9,0.8-1.4,1.9-1.4,3.3V186c0,3.2-1.6,4.8-4.8,4.8h-34.5
			c-3.2,0-4.8-1.6-4.8-4.8V20.5c0-3.2,1.6-4.7,4.8-4.7h34.5c3.2,0,4.8,1.6,4.8,4.7v56c0,3.2,1.6,4.8,4.8,4.8h48.7
			c1.3,0,2.4-0.5,3.2-1.4c0.8-0.9,1.2-2,1.2-3.4v-56c0-1.3,0.5-2.5,1.4-3.4c0.9-0.9,2-1.4,3.4-1.4H526.5z"/>
	</g>
	<g id="H">
		<g id="Layer_9">
		</g>
		<g id="Layer_10">
		</g>
		<g id="Layer_11">
		</g>
	</g>
	<g id="L">
		<g id="Layer_6">
		</g>
		<g id="Layer_7">
		</g>
	</g>
	<g id="M">
		<g id="Layer_2">
		</g>
		<g id="Layer_4">
		</g>
	</g>
	<g id="Major_League_Hacking">
		<g>
			<path fill="#313131" d="M526.5,15.3c1.3,0,2.5,0.5,3.4,1.4c0.9,0.9,1.4,2,1.4,3.4v165.5c0,1.3-0.5,2.5-1.4,3.4
				c-0.9,0.9-2,1.4-3.4,1.4h-34.8c-1.3,0-2.5-0.5-3.4-1.4c-0.9-0.9-1.4-2-1.4-3.4v-57.8c0-1.3-0.4-2.4-1.2-3.2
				c-0.8-0.8-1.9-1.2-3.2-1.2h-48.7c-1.3,0-2.5,0.4-3.4,1.2c-0.9,0.8-1.4,1.9-1.4,3.2v57.8c0,3.2-1.6,4.8-4.8,4.8h-34.5
				c-3.2,0-4.8-1.6-4.8-4.8V20c0-3.2,1.6-4.8,4.8-4.8h34.5c3.2,0,4.8,1.6,4.8,4.8v56c0,3.2,1.6,4.8,4.8,4.8h48.7
				c1.3,0,2.4-0.5,3.2-1.4c0.8-0.9,1.2-2,1.2-3.4V20c0-1.3,0.5-2.5,1.4-3.4c0.9-0.9,2-1.4,3.4-1.4H526.5z"/>
			<path fill="#313131" d="M429,127.8v57.7c0,3.2-1.6,4.8-4.8,4.8h-34.5c-3.2,0-4.8-1.6-4.8-4.8V20c0-3.2,1.6-4.8,4.8-4.8h34.5
				c3.2,0,4.8,1.6,4.8,4.8v56C429,79.2,429,126.4,429,127.8z"/>
			<path fill="#313131" d="M526.5,15.3c1.3,0,2.5,0.5,3.4,1.4c0.9,0.9,1.4,2,1.4,3.4v165.5c0,1.3-0.5,2.5-1.4,3.4
				c-0.9,0.9-2,1.4-3.4,1.4h-34.8c-1.3,0-2.5-0.5-3.4-1.4c-0.9-0.9-1.4-2-1.4-3.4v-57.7c0-1.3,0-50.4,0-51.7V20
				c0-1.3,0.5-2.5,1.4-3.4c0.9-0.9,2-1.4,3.4-1.4H526.5z"/>
			<path fill="#313131" d="M356,147.5c1.3,0,2.4,0.5,3.2,1.4c0.8,0.9,1.2,2,1.2,3.4v33c0,1.3-0.4,2.5-1.2,3.4
				c-0.8,0.9-1.9,1.4-3.2,1.4H248c-3.2,0-4.8-1.6-4.8-4.8V19.7c0-3.2,1.6-4.8,4.8-4.8h34.5c3.2,0,4.8,1.6,4.8,4.8V143
				c0,1.3,0.5,2.4,1.4,3.2c0.9,0.8,2,1.2,3.4,1.2H356z"/>
			<path fill="#313131" d="M287,190h-39c-3.2,0-4.8-1.6-4.8-4.8V19.7c0-3.2,1.6-4.8,4.8-4.8h34.5c3.2,0,4.8,1.6,4.8,4.8V143
				C287.3,144.3,287,190,287,190z"/>
			<path fill="#313131" d="M185.9,17.6c3.6,1.6,6.7,3.7,9.2,6.2c2.6,2.6,4.7,5.7,6.2,9.2c1.6,3.6,2.4,7.4,2.4,11.4v141
				c0,1.3-0.5,2.5-1.4,3.4c-0.9,0.9-2,1.4-3.4,1.4h-34.8c-1.3,0-2.4-0.5-3.2-1.4c-0.8-0.9-1.2-2-1.2-3.4V57.8h-28v127.8
				c0,1.3-0.4,2.5-1.2,3.4c-0.8,0.9-1.9,1.4-3.2,1.4H95.8c-1.3,0-2.5-0.5-3.4-1.4c-0.9-0.9-1.4-2-1.4-3.4V57.8H63v127.8
				c0,3.2-1.6,4.8-4.8,4.8H23.8c-3.2,0-4.8-1.6-4.8-4.8V20c0-3.2,1.6-4.8,4.8-4.8h150.8C178.5,15.3,182.3,16.1,185.9,17.6z"/>
			<path fill="#313131" d="M185.9,17.6c3.6,1.6,6.7,3.7,9.2,6.2c2.6,2.6,4.7,5.7,6.2,9.2c1.6,3.6,2.4,7.4,2.4,11.4v13l-44,0.3h-28
				H91H63l-44-0.3V20c0-3.2,1.6-4.8,4.8-4.8h150.8C178.5,15.3,182.3,16.1,185.9,17.6z"/>
			<g>
				<path fill="#313131" d="M43.9,208.2c0.6,0.2,1,0.6,1.4,1c0.4,0.4,0.7,0.9,1,1.4c0.2,0.6,0.4,1.1,0.4,1.8v21.9
					c0,0.2-0.1,0.4-0.2,0.5c-0.1,0.1-0.3,0.2-0.5,0.2h-5.4c-0.2,0-0.4-0.1-0.5-0.2c-0.1-0.1-0.2-0.3-0.2-0.5v-19.8h-4.4v19.8
					c0,0.2-0.1,0.4-0.2,0.5c-0.1,0.1-0.3,0.2-0.5,0.2h-4.9c-0.2,0-0.4-0.1-0.5-0.2c-0.1-0.1-0.2-0.3-0.2-0.5v-19.8h-4.4v19.8
					c0,0.5-0.2,0.7-0.7,0.7h-5.4c-0.5,0-0.7-0.2-0.7-0.7v-25.7c0-0.5,0.2-0.7,0.7-0.7h23.4C42.7,207.8,43.3,207.9,43.9,208.2z"/>
				<path fill="#313131" d="M71,207.8c0.6,0,1.2,0.1,1.8,0.4c0.6,0.2,1,0.6,1.4,1c0.4,0.4,0.7,0.9,1,1.4c0.2,0.6,0.4,1.1,0.4,1.8
					v21.9c0,0.2-0.1,0.4-0.2,0.5c-0.1,0.1-0.3,0.2-0.5,0.2h-5.4c-0.2,0-0.4-0.1-0.5-0.2c-0.1-0.1-0.2-0.3-0.2-0.5v-7
					c0-0.2-0.1-0.4-0.2-0.5c-0.1-0.1-0.3-0.2-0.5-0.2h-7.7c-0.2,0-0.4,0.1-0.5,0.2c-0.1,0.1-0.2,0.3-0.2,0.5v7
					c0,0.5-0.2,0.7-0.7,0.7h-5.4c-0.5,0-0.7-0.2-0.7-0.7v-21.9c0-0.6,0.1-1.2,0.3-1.8c0.2-0.6,0.6-1,1-1.4c0.4-0.4,0.9-0.7,1.5-1
					c0.6-0.2,1.1-0.4,1.8-0.4H71z M68.7,220.8v-6.8h-9.1v6.8H68.7z"/>
				<path fill="#313131" d="M100,208c0.1,0.1,0.2,0.3,0.2,0.5v21.9c0,0.6-0.1,1.2-0.4,1.8c-0.2,0.6-0.6,1-1,1.5
					c-0.4,0.4-0.9,0.7-1.4,1c-0.6,0.2-1.1,0.4-1.8,0.4H84c-0.6,0-1.2-0.1-1.8-0.4c-0.6-0.2-1-0.6-1.5-1c-0.4-0.4-0.7-0.9-1-1.5
					c-0.2-0.6-0.4-1.1-0.4-1.8v-8.3c0-0.5,0.2-0.7,0.7-0.7h5.4c0.5,0,0.7,0.2,0.7,0.7v5.6c0,0.2,0.1,0.4,0.2,0.5
					c0.1,0.1,0.3,0.2,0.5,0.2h5.6c0.2,0,0.4-0.1,0.5-0.2c0.1-0.1,0.2-0.3,0.2-0.5v-19.2c0-0.2,0.1-0.4,0.2-0.5
					c0.1-0.1,0.3-0.2,0.5-0.2h5.4C99.7,207.8,99.9,207.9,100,208z"/>
				<path fill="#313131" d="M124.6,207.8c0.6,0,1.2,0.1,1.8,0.4c0.6,0.2,1,0.6,1.4,1c0.4,0.4,0.7,0.9,1,1.4c0.2,0.6,0.4,1.1,0.4,1.8
					v18.1c0,0.6-0.1,1.2-0.4,1.8c-0.2,0.6-0.6,1-1,1.5c-0.4,0.4-0.9,0.7-1.4,1c-0.6,0.2-1.1,0.4-1.8,0.4h-13.8
					c-0.6,0-1.2-0.1-1.8-0.4c-0.6-0.2-1-0.6-1.5-1c-0.4-0.4-0.7-0.9-1-1.5c-0.2-0.6-0.3-1.1-0.3-1.8v-18.1c0-0.6,0.1-1.2,0.3-1.8
					c0.2-0.6,0.6-1,1-1.4c0.4-0.4,0.9-0.7,1.5-1c0.6-0.2,1.1-0.4,1.8-0.4H124.6z M122.3,214.4h-9.1v14h9.1V214.4z"/>
				<path fill="#313131" d="M158.5,234.4c0.1,0.2,0.1,0.3,0,0.4c-0.1,0.1-0.2,0.2-0.4,0.2H152c-0.2,0-0.4-0.1-0.6-0.2
					c-0.2-0.1-0.4-0.3-0.5-0.4l-4.1-7.4c-0.1-0.1-0.1-0.2-0.3-0.2h-4.6c-0.1,0-0.2,0.1-0.2,0.2v7.2c0,0.5-0.2,0.7-0.7,0.7h-5.4
					c-0.5,0-0.7-0.2-0.7-0.7v-25.7c0-0.5,0.2-0.7,0.7-0.7h17.6c0.6,0,1.2,0.1,1.8,0.4c0.6,0.2,1,0.6,1.4,1c0.4,0.4,0.7,0.9,1,1.4
					c0.2,0.6,0.4,1.1,0.4,1.8v10.2c0,1-0.3,1.9-0.9,2.7c-0.6,0.8-1.3,1.3-2.2,1.6l-0.1,0c-0.2,0.1-0.2,0.1-0.1,0.2l0,0.1
					L158.5,234.4z M150.8,214.2h-9.4v6.6h9.4V214.2z"/>
				<path fill="#313131" d="M195.2,228.4c0.2,0,0.4,0.1,0.5,0.2c0.1,0.1,0.2,0.3,0.2,0.5v5.1c0,0.2-0.1,0.4-0.2,0.5
					c-0.1,0.1-0.3,0.2-0.5,0.2h-16.8c-0.5,0-0.7-0.2-0.7-0.7v-25.7c0-0.5,0.2-0.7,0.7-0.7h5.4c0.5,0,0.7,0.2,0.7,0.7v19.2
					c0,0.2,0.1,0.4,0.2,0.5c0.1,0.1,0.3,0.2,0.5,0.2H195.2z"/>
				<path fill="#313131" d="M206.4,214.3v4.2c0,0.1,0.1,0.2,0.2,0.2h11.1c0.2,0,0.4,0.1,0.5,0.2c0.1,0.1,0.2,0.3,0.2,0.5v3.9
					c0,0.5-0.2,0.7-0.7,0.7h-11.1c-0.1,0-0.2,0.1-0.2,0.2v4.2c0,0.1,0.1,0.2,0.2,0.2h13c0.2,0,0.4,0.1,0.5,0.2
					c0.1,0.1,0.2,0.3,0.2,0.5v4.9c0,0.2-0.1,0.4-0.2,0.5c-0.1,0.1-0.3,0.2-0.5,0.2h-15.5c-0.6,0-1.2-0.1-1.8-0.4
					c-0.6-0.2-1-0.6-1.5-1c-0.4-0.4-0.7-0.9-1-1.5c-0.2-0.6-0.3-1.1-0.3-1.8v-18.1c0-0.6,0.1-1.2,0.3-1.8c0.2-0.6,0.6-1,1-1.4
					c0.4-0.4,0.9-0.7,1.5-1c0.6-0.2,1.1-0.4,1.8-0.4h15.5c0.2,0,0.4,0.1,0.5,0.2c0.1,0.1,0.2,0.3,0.2,0.5v4.9c0,0.2-0.1,0.4-0.2,0.5
					c-0.1,0.1-0.3,0.2-0.5,0.2h-13C206.5,214.2,206.4,214.2,206.4,214.3z"/>
				<path fill="#313131" d="M244.8,207.8c0.6,0,1.2,0.1,1.8,0.4c0.6,0.2,1,0.6,1.4,1c0.4,0.4,0.7,0.9,1,1.4c0.2,0.6,0.4,1.1,0.4,1.8
					v21.9c0,0.2-0.1,0.4-0.2,0.5c-0.1,0.1-0.3,0.2-0.5,0.2h-5.4c-0.2,0-0.4-0.1-0.5-0.2c-0.1-0.1-0.2-0.3-0.2-0.5v-7
					c0-0.2-0.1-0.4-0.2-0.5c-0.1-0.1-0.3-0.2-0.5-0.2H234c-0.2,0-0.4,0.1-0.5,0.2c-0.1,0.1-0.2,0.3-0.2,0.5v7c0,0.5-0.2,0.7-0.7,0.7
					h-5.4c-0.5,0-0.7-0.2-0.7-0.7v-21.9c0-0.6,0.1-1.2,0.3-1.8c0.2-0.6,0.6-1,1-1.4c0.4-0.4,0.9-0.7,1.5-1c0.6-0.2,1.1-0.4,1.8-0.4
					H244.8z M242.4,220.8v-6.8h-9.1v6.8H242.4z"/>
				<path fill="#313131" d="M278,220.4c0.1,0.1,0.2,0.3,0.2,0.5v9.6c0,0.6-0.1,1.2-0.4,1.8c-0.2,0.6-0.6,1-1,1.5
					c-0.4,0.4-0.9,0.7-1.4,1c-0.6,0.2-1.1,0.4-1.8,0.4h-13.7c-0.6,0-1.2-0.1-1.8-0.4c-0.6-0.2-1-0.6-1.5-1c-0.4-0.4-0.7-0.9-1-1.5
					c-0.2-0.6-0.4-1.1-0.4-1.8v-18.1c0-0.6,0.1-1.2,0.4-1.8c0.2-0.6,0.6-1,1-1.4c0.4-0.4,0.9-0.7,1.5-1c0.6-0.2,1.1-0.4,1.8-0.4h16
					c0.2,0,0.4,0.1,0.5,0.2c0.1,0.1,0.2,0.3,0.2,0.5v5.1c0,0.2-0.1,0.4-0.2,0.5c-0.1,0.1-0.3,0.2-0.5,0.2h-13
					c-0.2,0-0.4,0.1-0.5,0.2c-0.1,0.1-0.2,0.3-0.2,0.5v12.6c0,0.2,0.1,0.4,0.2,0.5c0.1,0.1,0.3,0.2,0.5,0.2h7.7
					c0.2,0,0.4-0.1,0.5-0.2c0.1-0.1,0.2-0.3,0.2-0.5v-6.8c0-0.2,0.1-0.4,0.2-0.5c0.1-0.1,0.3-0.2,0.5-0.2h5.4
					C277.7,220.2,277.8,220.2,278,220.4z"/>
				<path fill="#313131" d="M306.7,208c0.1,0.1,0.2,0.3,0.2,0.5v21.9c0,0.6-0.1,1.2-0.4,1.8c-0.2,0.6-0.6,1-1,1.5
					c-0.4,0.4-0.9,0.7-1.4,1c-0.6,0.2-1.1,0.4-1.8,0.4h-13.8c-0.6,0-1.2-0.1-1.8-0.4c-0.6-0.2-1-0.6-1.5-1c-0.4-0.4-0.7-0.9-1-1.5
					c-0.2-0.6-0.3-1.1-0.3-1.8v-21.9c0-0.5,0.2-0.7,0.7-0.7h5.4c0.5,0,0.7,0.2,0.7,0.7v19.2c0,0.2,0.1,0.4,0.2,0.5
					c0.1,0.1,0.3,0.2,0.5,0.2h7.7c0.2,0,0.4-0.1,0.5-0.2c0.1-0.1,0.2-0.3,0.2-0.5v-19.2c0-0.2,0.1-0.4,0.2-0.5
					c0.1-0.1,0.3-0.2,0.5-0.2h5.4C306.3,207.8,306.5,207.9,306.7,208z"/>
				<path fill="#313131" d="M319.7,214.3v4.2c0,0.1,0.1,0.2,0.2,0.2H331c0.2,0,0.4,0.1,0.5,0.2c0.1,0.1,0.2,0.3,0.2,0.5v3.9
					c0,0.5-0.2,0.7-0.7,0.7h-11.1c-0.1,0-0.2,0.1-0.2,0.2v4.2c0,0.1,0.1,0.2,0.2,0.2h13c0.2,0,0.4,0.1,0.5,0.2
					c0.1,0.1,0.2,0.3,0.2,0.5v4.9c0,0.2-0.1,0.4-0.2,0.5c-0.1,0.1-0.3,0.2-0.5,0.2h-15.5c-0.6,0-1.2-0.1-1.8-0.4
					c-0.6-0.2-1-0.6-1.5-1c-0.4-0.4-0.7-0.9-1-1.5c-0.2-0.6-0.3-1.1-0.3-1.8v-18.1c0-0.6,0.1-1.2,0.3-1.8c0.2-0.6,0.6-1,1-1.4
					c0.4-0.4,0.9-0.7,1.5-1c0.6-0.2,1.1-0.4,1.8-0.4h15.5c0.2,0,0.4,0.1,0.5,0.2c0.1,0.1,0.2,0.3,0.2,0.5v4.9c0,0.2-0.1,0.4-0.2,0.5
					c-0.1,0.1-0.3,0.2-0.5,0.2h-13C319.8,214.2,319.7,214.2,319.7,214.3z"/>
				<path fill="#313131" d="M375.2,207.8c0.2,0,0.4,0.1,0.5,0.2c0.1,0.1,0.2,0.3,0.2,0.5v25.7c0,0.2-0.1,0.4-0.2,0.5
					c-0.1,0.1-0.3,0.2-0.5,0.2h-5.4c-0.2,0-0.4-0.1-0.5-0.2c-0.1-0.1-0.2-0.3-0.2-0.5v-9c0-0.2-0.1-0.4-0.2-0.5
					c-0.1-0.1-0.3-0.2-0.5-0.2h-7.7c-0.2,0-0.4,0.1-0.5,0.2c-0.1,0.1-0.2,0.3-0.2,0.5v9c0,0.5-0.2,0.7-0.7,0.7h-5.4
					c-0.5,0-0.7-0.2-0.7-0.7v-25.7c0-0.5,0.2-0.7,0.7-0.7h5.4c0.5,0,0.7,0.2,0.7,0.7v8.7c0,0.5,0.2,0.7,0.7,0.7h7.7
					c0.2,0,0.4-0.1,0.5-0.2c0.1-0.1,0.2-0.3,0.2-0.5v-8.7c0-0.2,0.1-0.4,0.2-0.5c0.1-0.1,0.3-0.2,0.5-0.2H375.2z"/>
				<path fill="#313131" d="M400.3,207.8c0.6,0,1.2,0.1,1.8,0.4c0.6,0.2,1,0.6,1.4,1c0.4,0.4,0.7,0.9,1,1.4c0.2,0.6,0.4,1.1,0.4,1.8
					v21.9c0,0.2-0.1,0.4-0.2,0.5c-0.1,0.1-0.3,0.2-0.5,0.2h-5.4c-0.2,0-0.4-0.1-0.5-0.2c-0.1-0.1-0.2-0.3-0.2-0.5v-7
					c0-0.2-0.1-0.4-0.2-0.5c-0.1-0.1-0.3-0.2-0.5-0.2h-7.7c-0.2,0-0.4,0.1-0.5,0.2c-0.1,0.1-0.2,0.3-0.2,0.5v7
					c0,0.5-0.2,0.7-0.7,0.7h-5.4c-0.5,0-0.7-0.2-0.7-0.7v-21.9c0-0.6,0.1-1.2,0.3-1.8c0.2-0.6,0.6-1,1-1.4c0.4-0.4,0.9-0.7,1.5-1
					c0.6-0.2,1.1-0.4,1.8-0.4H400.3z M398,220.8v-6.8h-9.1v6.8H398z"/>
				<path fill="#313131" d="M417.9,214.6c-0.1,0.1-0.2,0.3-0.2,0.5v12.6c0,0.2,0.1,0.4,0.2,0.5c0.1,0.1,0.3,0.2,0.5,0.2h12.5
					c0.2,0,0.4,0.1,0.5,0.2c0.1,0.1,0.2,0.3,0.2,0.5v5.1c0,0.2-0.1,0.4-0.2,0.5c-0.1,0.1-0.3,0.2-0.5,0.2h-8.1h-6.7h-0.7
					c-0.6,0-1.2-0.1-1.8-0.4c-0.6-0.2-1-0.6-1.5-1c-0.4-0.4-0.7-0.9-1-1.5c-0.2-0.6-0.3-1.1-0.3-1.8v-0.7v-2.8v-9v-2.5v-3
					c0-0.6,0.1-1.2,0.3-1.8c0.2-0.6,0.6-1,1-1.4c0.4-0.4,0.9-0.7,1.5-1c0.6-0.2,1.1-0.4,1.8-0.4h0.7h14.8c0.2,0,0.4,0.1,0.5,0.2
					c0.1,0.1,0.2,0.3,0.2,0.5v5.1c0,0.2-0.1,0.4-0.2,0.5c-0.1,0.1-0.3,0.2-0.5,0.2h-12.5C418.3,214.4,418.1,214.5,417.9,214.6z"/>
				<path fill="#313131" d="M453.3,219.3c-0.1,0.1-0.1,0.2,0,0.3l9.1,14.8c0.1,0.2,0.1,0.3,0,0.4c-0.1,0.1-0.2,0.2-0.4,0.2h-6.4
					c-0.2,0-0.4-0.1-0.6-0.2c-0.2-0.1-0.4-0.3-0.5-0.4l-5.9-10.6c-0.1-0.1-0.1-0.1-0.2,0l-3.2,3.5c-0.1,0.1-0.2,0.3-0.3,0.6
					c-0.1,0.2-0.1,0.5-0.1,0.7v5.7c0,0.5-0.2,0.7-0.7,0.7h-5.4c-0.5,0-0.7-0.2-0.7-0.7v-25.7c0-0.5,0.2-0.7,0.7-0.7h5.4
					c0.5,0,0.7,0.2,0.7,0.7v11.5l10-11.7c0.1-0.2,0.3-0.3,0.5-0.4c0.2-0.1,0.5-0.2,0.7-0.2h6.4c0.2,0,0.3,0.1,0.4,0.2
					c0,0.1,0,0.2-0.1,0.4L453.3,219.3z"/>
				<path fill="#313131" d="M474.2,234.3c0,0.5-0.2,0.7-0.7,0.7h-5.4c-0.5,0-0.7-0.2-0.7-0.7v-25.7c0-0.5,0.2-0.7,0.7-0.7h5.4
					c0.5,0,0.7,0.2,0.7,0.7V234.3z"/>
				<path fill="#313131" d="M500.4,208.2c0.6,0.2,1,0.6,1.4,1c0.4,0.4,0.7,0.9,1,1.4c0.2,0.6,0.4,1.1,0.4,1.8v21.9
					c0,0.2-0.1,0.4-0.2,0.5c-0.1,0.1-0.3,0.2-0.5,0.2H497c-0.2,0-0.4-0.1-0.5-0.2c-0.1-0.1-0.2-0.3-0.2-0.5v-19.1
					c0-0.2-0.1-0.4-0.2-0.5c-0.1-0.1-0.3-0.2-0.5-0.2h-7.7c-0.2,0-0.4,0.1-0.5,0.2c-0.1,0.1-0.2,0.3-0.2,0.5v19.1
					c0,0.5-0.2,0.7-0.7,0.7h-5.4c-0.5,0-0.7-0.2-0.7-0.7v-25.7c0-0.5,0.2-0.7,0.7-0.7h17.6C499.2,207.8,499.8,207.9,500.4,208.2z"/>
				<path fill="#313131" d="M531.9,220.4c0.1,0.1,0.2,0.3,0.2,0.5v9.6c0,0.6-0.1,1.2-0.4,1.8c-0.2,0.6-0.6,1-1,1.5
					c-0.4,0.4-0.9,0.7-1.4,1c-0.6,0.2-1.1,0.4-1.8,0.4h-13.8c-0.6,0-1.2-0.1-1.8-0.4c-0.6-0.2-1-0.6-1.5-1c-0.4-0.4-0.7-0.9-1-1.5
					c-0.2-0.6-0.3-1.1-0.3-1.8v-18.1c0-0.6,0.1-1.2,0.3-1.8c0.2-0.6,0.6-1,1-1.4c0.4-0.4,0.9-0.7,1.5-1c0.6-0.2,1.1-0.4,1.8-0.4h16
					c0.2,0,0.4,0.1,0.5,0.2c0.1,0.1,0.2,0.3,0.2,0.5v5.1c0,0.2-0.1,0.4-0.2,0.5c-0.1,0.1-0.3,0.2-0.5,0.2h-13
					c-0.2,0-0.4,0.1-0.5,0.2c-0.1,0.1-0.2,0.3-0.2,0.5v12.6c0,0.2,0.1,0.4,0.2,0.5c0.1,0.1,0.3,0.2,0.5,0.2h7.7
					c0.2,0,0.4-0.1,0.5-0.2c0.1-0.1,0.2-0.3,0.2-0.5v-6.8c0-0.2,0.1-0.4,0.2-0.5c0.1-0.1,0.3-0.2,0.5-0.2h5.4
					C531.5,220.2,531.7,220.2,531.9,220.4z"/>
			</g>
		</g>
	</g>
</g>
<g id="Layer_14">
	<g>
		<g>
			<path fill="#313131" d="M99.7,285.6c0,2.5-0.9,4.4-2.6,5.8c-1.7,1.3-4.1,2-7.3,2h-4v10.8h-1.8v-26h6.4
				C96.6,278.1,99.7,280.6,99.7,285.6z M85.9,291.8h3.6c2.9,0,5.1-0.5,6.4-1.5s2-2.5,2-4.7c0-2-0.6-3.5-1.9-4.5
				c-1.2-1-3.1-1.5-5.7-1.5h-4.3V291.8z"/>
			<path fill="#313131" d="M127.3,291.1c0,4.1-1,7.4-3.1,9.8s-4.9,3.6-8.5,3.6c-3.6,0-6.5-1.2-8.5-3.6s-3.1-5.7-3.1-9.8
				c0-4.1,1-7.4,3.1-9.8c2.1-2.4,4.9-3.6,8.5-3.6c3.6,0,6.5,1.2,8.5,3.6S127.3,286.9,127.3,291.1z M106,291.1c0,3.7,0.8,6.6,2.5,8.6
				c1.7,2,4,3.1,7.2,3.1c3.1,0,5.5-1,7.2-3c1.7-2,2.5-4.9,2.5-8.7c0-3.8-0.8-6.6-2.5-8.6c-1.7-2-4-3-7.2-3c-3.1,0-5.5,1-7.2,3
				S106,287.4,106,291.1z"/>
			<path fill="#313131" d="M154,304.1h-1.5l-5.7-20.1c-0.5-1.6-0.8-3-1.1-4.1c-0.2,1-0.5,2.2-0.8,3.6c-0.4,1.3-2.3,8.2-5.7,20.6
				h-1.5l-7.2-26h1.9l4.6,16.8c0.2,0.7,0.3,1.3,0.5,1.9c0.2,0.6,0.3,1.1,0.4,1.6c0.1,0.5,0.2,1,0.3,1.5c0.1,0.5,0.2,0.9,0.3,1.4
				c0.3-1.6,0.9-4.1,1.8-7.4l4.5-15.8h2l5.2,18.1c0.6,2.1,1,3.8,1.3,5.1c0.2-0.9,0.4-1.8,0.6-2.7c0.2-1,2.1-7.8,5.5-20.5h1.8
				L154,304.1z"/>
			<path fill="#313131" d="M180.1,304.1h-14.2v-26h14.2v1.7h-12.4v9.8h11.7v1.7h-11.7v11.2h12.4V304.1z"/>
			<path fill="#313131" d="M187.8,292.8v11.3h-1.8v-26h6.2c3.2,0,5.6,0.6,7.2,1.8s2.3,3,2.3,5.4c0,1.7-0.5,3.2-1.4,4.4
				c-0.9,1.2-2.3,2.1-4.2,2.6l7.1,11.9h-2.2l-6.7-11.3H187.8z M187.8,291.2h5c2.2,0,3.9-0.5,5.1-1.5s1.8-2.4,1.8-4.3
				c0-2-0.6-3.4-1.8-4.3c-1.2-0.9-3.1-1.4-5.8-1.4h-4.3V291.2z"/>
			<path fill="#313131" d="M221.8,304.1h-14.2v-26h14.2v1.7h-12.4v9.8h11.7v1.7h-11.7v11.2h12.4V304.1z"/>
			<path fill="#313131" d="M247.5,290.9c0,4.4-1.1,7.7-3.4,9.9c-2.3,2.2-5.7,3.4-10.1,3.4h-6.2v-26h7c4.2,0,7.3,1.1,9.5,3.3
				S247.5,286.7,247.5,290.9z M245.5,290.9c0-3.7-0.9-6.5-2.8-8.4c-1.9-1.9-4.7-2.8-8.3-2.8h-4.8v22.8h4.3
				C241.6,302.5,245.5,298.7,245.5,290.9z"/>
			<path fill="#313131" d="M263,278.1h7.1c3.2,0,5.6,0.5,7.1,1.6c1.5,1.1,2.3,2.7,2.3,5c0,1.5-0.5,2.8-1.4,3.8c-0.9,1-2.3,1.6-4,1.9
				v0.1c2.1,0.3,3.6,1,4.6,2c1,1,1.5,2.4,1.5,4.2c0,2.4-0.8,4.2-2.4,5.5c-1.6,1.3-3.8,1.9-6.8,1.9h-8V278.1z M264.8,289.7h5.7
				c2.4,0,4.2-0.4,5.3-1.2c1.1-0.8,1.7-2.1,1.7-3.8c0-1.7-0.6-3-1.9-3.8c-1.3-0.8-3.1-1.2-5.6-1.2h-5.3V289.7z M264.8,291.3v11.2
				h6.1c4.8,0,7.2-2,7.2-5.9c0-3.6-2.5-5.4-7.6-5.4H264.8z"/>
			<path fill="#313131" d="M291.8,292.3l7.6-14.2h2l-8.7,16v10.1h-1.9v-9.9l-8.7-16.1h2.1L291.8,292.3z"/>
		</g>
		<g>
			<g>
				<polygon fill="#313131" points="399.2,316.5 397.9,316.5 397.9,268.8 399.2,268.8 399.2,316.5 				"/>
				<g>
					<path fill="#313131" d="M358.7,271.4c-5.9,0-11.2,2.4-15,6.2l0,0c-3.8,3.9-6.2,9.2-6.2,15l0,0c0,5.9,2.4,11.2,6.2,15l0,0
						c3.9,3.8,9.2,6.2,15,6.2l0,0c5.9,0,11.2-2.4,15-6.2l0,0c3.8-3.9,6.2-9.2,6.2-15l0,0c0-5.9-2.4-11.2-6.2-15l0,0
						C369.8,273.8,364.5,271.4,358.7,271.4L358.7,271.4 M375.4,275.9L375.4,275.9 M358.7,268.8c13.2,0,23.9,10.7,23.9,23.9l0,0
						c0,13.2-10.7,23.9-23.9,23.9l0,0c-13.2,0-23.9-10.7-23.9-23.9l0,0C334.8,279.5,345.5,268.8,358.7,268.8L358.7,268.8
						 M341.9,275.9L341.9,275.9"/>
					<path fill="#313131" d="M347.4,292.5c0-1.4-0.9-2.2-2.2-2.2h-0.8v4.4h0.8C346.3,294.6,347.4,294,347.4,292.5L347.4,292.5z
						 M361.6,294l-5.9,4.6l-5.4-4.2c-0.8,1.9-2.6,3.2-4.8,3.2h-4.6v-10.3h4.6c2.4,0,4.2,1.5,4.8,3.2l5.4-4.2l2,1.6l-4.9,3.9l0.9,0.7
						l4.9-3.9l2,1.6l-4.9,3.9l0.9,0.7l4.9-3.9v-3.6h3.6v7.3h3.6v3h-7.1V294L361.6,294z M373.3,294.6h3.6v3h-7.1v-10.3h3.6V294.6
						L373.3,294.6z"/>
				</g>
			</g>
			<g>
				<path fill="#313131" d="M440.7,306.8c-10.9,1-22.2-0.6-23.8-9.1c-0.8-4.2,1.1-8.6,3.7-11.4v-1.5c-4.6,4-7,9.1-5.6,15
					c1.8,7.7,11.5,12,26.4,10.6c5.9-0.6,13.6-2.5,18.9-5.4v-4.2C455.4,303.8,447.4,306.2,440.7,306.8z M469.4,284.8
					c-2.6-12.6-27-13.4-42.8-3.8v1.1c15.7-8.1,38.1-8,40.1,3.6c0.7,3.8-1.5,7.8-5.3,10.1v3C466,297.1,470.8,291.6,469.4,284.8z"/>
				<path fill="#313131" d="M459.4,283h-2.9v12.7c0,1.5,0.7,2.8,2.9,3V283z"/>
				<path fill="#313131" d="M425.5,287.6h-2.9l0,8.3c0,1.5,0.7,2.8,2.9,3V287.6z"/>
				<rect x="422.6" y="283.4" fill="#313131" width="2.8" height="2.7"/>
				<path fill="#313131" d="M442.5,298.8c-2.3,0-3.3-1.6-3.3-3.2v-11h2.8v3h2.1v2.3h-2.1v5.5c0,0.6,0.3,1,1,1h1.2v2.4H442.5"/>
				<path fill="#313131" d="M447.7,294.1c0,1.4,0.9,2.5,2.5,2.5c1.3,0,1.9-0.3,2.6-1.1l1.7,1.7c-1.1,1.1-2.3,1.8-4.4,1.8
					c-2.7,0-5.3-1.5-5.3-5.8c0-3.7,2.3-5.8,5.2-5.8c3,0,4.8,2.4,4.8,5.6v1H447.7 M450,289.8c-1,0-1.7,0.5-2,1.2
					c-0.2,0.4-0.3,0.7-0.3,1.2h4.4C452,290.9,451.5,289.8,450,289.8z"/>
				<path fill="#313131" d="M433.2,289.9c0.8,0,1.2,0.4,1.2,1.1v7.8h2.8V291c0-1.6-0.8-3.3-3.3-3.3l-5.8,0v11.2h2.8v-8.9H433.2z"/>
				<g>
					<path fill="#313131" d="M462.5,285.2c-0.6,0-1.1-0.5-1.1-1.1c0-0.6,0.5-1.1,1.1-1.1c0.6,0,1.1,0.5,1.1,1.1
						C463.6,284.7,463.1,285.2,462.5,285.2z M462.5,283.2c-0.5,0-0.9,0.4-0.9,0.9c0,0.5,0.4,0.9,0.9,0.9c0.5,0,0.9-0.4,0.9-0.9
						C463.4,283.6,463,283.2,462.5,283.2z M463,284.8h-0.2c0,0,0,0,0,0l-0.3-0.5c0,0,0,0,0,0c0,0,0,0-0.1,0c0,0,0,0,0,0v0.5
						c0,0,0,0.1,0,0.1H462c0,0,0,0,0-0.1v-1.2c0-0.1,0-0.1,0.1-0.1c0.1,0,0.2,0,0.3,0c0.4,0,0.6,0.1,0.6,0.4v0
						c0,0.2-0.1,0.3-0.3,0.4L463,284.8C463,284.7,463,284.7,463,284.8C463,284.8,463,284.8,463,284.8z M462.7,283.8
						c0-0.1-0.1-0.2-0.3-0.2c0,0-0.1,0-0.1,0c0,0,0,0,0,0v0.4c0,0,0.2,0,0.2,0C462.6,284,462.7,284,462.7,283.8L462.7,283.8z"/>
				</g>
			</g>
		</g>
	</g>
</g>
</svg>
