<svg xmlns="http://www.w3.org/2000/svg" width="658.337" height="97.275">
  <g fill="#fff">
    <path d="M633.82 74.673c-1.133 5.15-4.675 11.94-7.606 13.92-2.582 1.756-5.39 1.98-7.55 1.98-1.04 0-3.247-.37-4.167-.588v6.48c1.17.29 3.936.81 5.658.81 4.036 0 7.39-1.008 10.246-3.08 3.42-2.486 7.253-8.938 9.07-14.488l18.866-58.762h-8.283l-12.5 42.556-14.667-42.555h-8.297l19.23 53.728M600.63 42.9h-28.466c.74-11.093 5.278-16.264 14.303-16.264 9.69 0 14.13 5.163 14.162 16.264zm8.254 6.708v-5.114c0-8.888-2.31-15.438-6.687-19.468-3.73-3.433-9.002-5.097-15.942-5.097-3.61 0-6.884.652-9.732 1.928-2.798 1.26-5.375 3.135-7.307 5.58-3.837 4.806-5.96 11.935-5.96 20.575 0 9.615 2.718 16.957 7.732 21.84 5.277 5.153 12.05 6.244 16.726 6.244 12.134 0 18.08-6.642 20.57-12.647l-6.804-3.26c-1.64 3.652-5.346 9.192-13.766 9.192-4.816 0-8.843-1.918-11.63-5.548-2.7-3.51-4.13-8.428-4.14-14.227h36.94M98.388 69.34c-9.094 0-14.525-7.995-14.525-21.376 0-13.386 5.43-21.377 14.525-21.377 9.094 0 14.508 7.99 14.508 21.377 0 13.38-5.414 21.376-14.508 21.376zm17.33-41.258c-4.2-5.36-10.19-8.202-17.33-8.202-7.132 0-13.125 2.84-17.338 8.202-3.914 4.997-6.063 12.06-6.063 19.882 0 7.822 2.15 14.87 6.063 19.876 4.213 5.373 10.206 8.207 17.338 8.207 7.14 0 13.13-2.833 17.33-8.207 3.915-5.005 6.074-12.054 6.074-19.877 0-7.822-2.16-14.884-6.074-19.88M140.708 21.086h-8.47v54.098h8.47V44.557c2.086-11.132 7.917-16.393 17.998-16.393V20.25c-8.582 0-13.608 3.354-18.002 11.227l.004-10.39M347.933 19.294c.037-3.594 1.21-6.423 3.477-8.372 2.305-1.987 5.61-2.987 9.84-2.987 4.45 0 8.39 1.277 11.413 3.693 2.77 2.2 4.8 5.4 5.72 9.082l7.893-.97C382.823 7.943 374.344.75 361.454.75c-6.37 0-12.14 1.986-16.235 5.588-3.974 3.51-6.176 8.33-6.176 13.57 0 5.775 2.364 10.305 7.232 13.856 4.292 3.13 9.933 5.126 15.397 7.055 9.5 3.377 18.482 6.557 18.482 15.18 0 3.834-1.297 7.046-3.76 9.293-2.712 2.47-6.705 3.717-11.86 3.717-9.04 0-15.61-5.064-19.306-14.802l-8.056 2.164c1.74 3.952 4.695 9.698 9 13.54 4.73 4.235 10.6 6.29 17.95 6.29 8.716 0 15.325-2.285 19.652-6.783 4.494-4.682 5.435-10.653 5.435-14.835 0-6.002-2.49-10.702-7.602-14.357-4.477-3.205-10.317-5.204-15.945-7.133-9.17-3.138-17.825-6.095-17.73-13.802M402.605 27.62h-8.127v-6.707h8.127V3.21h8.47v17.703h9.103v6.706h-9.103v36.97c0 2.47.578 4.75 6.26 4.75.94 0 1.905-.033 2.843-.09v5.955s-3.204.842-5.62.842c-3.817 0-6.7-.61-8.633-1.908-1.79-1.228-3.32-3.19-3.32-6.527V27.62M548.574 64.59c0 2.47.784 4.75 6.464 4.75.937 0 1.892-.033 2.846-.09v5.955s-3.21.842-5.625.842c-3.817 0-6.705-.61-8.63-1.908-1.796-1.228-3.52-3.19-3.52-6.527V.003h8.473l-.01 64.587M281.952 35.028c2.883-3.077 9.29-8.268 15.165-8.268 5.882 0 8.5 2.9 8.5 9.383v39.062h8.47V35.937c0-11.704-8.346-15.875-16.247-15.875-5.514 0-11.14 2.9-15.887 8.276v-7.236h-8.47v54.103h8.47V35.028M250.85 59.453c-.393 4.734-9.2 10.49-16.425 10.08-3.983-.218-7.9-3.372-8.305-8.635-.66-8.788 7.95-13.73 24.73-15.148v13.703zm.05 9.053c.22 2.99 1.29 4.725 3.65 5.967 2.22 1.19 5.88.913 7.446.533v-5.75c-1.887-.09-3.126-.97-3.126-3.294v-26.14l-.03-3.447c0-5.402-2.146-9.764-6.202-12.62-3.342-2.373-7.963-3.674-12.977-3.674-12.01 0-17.74 7.134-20.156 11.595l6.83 3.56c.95-2.553 4.3-8.45 13.43-8.45 7.204 0 10.842 3.204 10.842 9.515l.012 3.1s-5.823.194-11.913 1.565c-5.16 1.162-10.505 3.38-12.768 4.835-5.347 3.436-8.713 8.234-8.713 14.834 0 4.69 2.284 8.68 5.27 11.53 2.775 2.627 6.616 3.96 10.795 4.082 8.895.28 14.768-3.387 17.61-7.74M15.33 1.762H0v73.422h8.47V9.286l20.304 65.898h6.582L55.664 9.286v65.898h8.47V1.762h-15.35l-16.72 58.52L15.33 1.763M493.146 35.028c2.88-3.077 9.288-8.268 15.17-8.268 5.87 0 8.494 2.9 8.494 9.383v39.062h8.47V35.937c0-11.704-8.34-15.875-16.25-15.875-5.514 0-11.14 2.9-15.887 8.276h.003-.004l.004-7.236h-8.466v54.103h8.466V35.028M198.515 59.453c-2.194 6.23-8.412 9.87-12.873 9.87-8.715 0-14.798-5.436-14.798-21.72 0-13.694 5.463-20.885 14.798-20.885 4.774 0 8.915 2.08 12.873 6.99v25.745zm1.904-38.408l-1.806 5.707c-3.11-4.044-7.162-6.74-13.595-6.74-9.546 0-23.055 6.43-23.055 28.01 0 20.955 13.51 28.01 22.64 28.01 5.324 0 10.172-2.92 13.492-7.17l.418-.61v10.682c0 7.216-6.2 11.617-12.873 11.617-6.485 0-12.237-1.23-16.92-3.418v7.326c3.943 1.694 10.365 2.783 15.883 2.783 15.005 0 22.154-8.283 22.154-20.252V21.045h-6.34M462.1 59.453c-.393 4.734-9.2 10.49-16.425 10.08-3.982-.218-7.9-3.372-8.305-8.635-.66-8.788 7.95-13.73 24.73-15.148v13.703zm.05 9.053c.22 2.99 1.292 4.725 3.65 5.967 2.222 1.19 5.88.913 7.447.533v-5.75c-1.888-.09-3.126-.97-3.126-3.294v-26.14l-.03-3.447c0-5.402-2.146-9.764-6.202-12.62-3.34-2.373-7.962-3.674-12.977-3.674-12.008 0-17.74 7.134-20.156 11.595l6.83 3.56c.95-2.553 4.3-8.45 13.432-8.45 7.2 0 10.84 3.204 10.84 9.515l.01 3.1s-5.82.194-11.91 1.565c-5.162 1.162-10.506 3.38-12.767 4.835-5.35 3.436-8.716 8.234-8.716 14.834 0 4.69 2.284 8.68 5.27 11.53 2.776 2.627 6.616 3.96 10.796 4.082 8.896.28 14.767-3.387 17.61-7.74"/>
  </g>
</svg>
