<?xml version="1.0" encoding="UTF-8" standalone="no"?>
<!DOCTYPE svg PUBLIC "-//W3C//DTD SVG 1.1//EN" "http://www.w3.org/Graphics/SVG/1.1/DTD/svg11.dtd">
<svg width="100%" height="100%" viewBox="0 0 5971 1759" version="1.1" xmlns="http://www.w3.org/2000/svg" xmlns:xlink="http://www.w3.org/1999/xlink" xml:space="preserve" style="fill-rule:evenodd;clip-rule:evenodd;stroke-linejoin:round;stroke-miterlimit:1.41421;">
    <g transform="matrix(4.16667,0,0,4.16667,0,0)">
        <path d="M165.568,325.653C165.568,300.602 185.948,280.224 211,280.224C236.05,280.224 256.43,300.602 256.43,325.653C256.43,350.705 236.05,371.083 211,371.083C185.948,371.083 165.568,350.705 165.568,325.653ZM305.587,307.557C297.088,263.059 257.936,229.306 211,229.306C164.061,229.306 124.909,263.061 116.412,307.561C111.509,295.619 108.785,282.561 108.785,268.873C108.785,212.513 154.638,166.658 211,166.658C267.36,166.658 313.213,212.513 313.213,268.873C313.213,282.56 310.489,295.616 305.587,307.557ZM211,50.923C299.271,50.923 371.082,122.733 371.082,211.003C371.082,227.669 368.516,243.746 363.768,258.867C358.591,179.081 292.073,115.74 211,115.74C129.929,115.74 63.41,179.078 58.231,258.861C53.484,243.742 50.917,227.667 50.917,211.003C50.917,122.733 122.73,50.923 211,50.923ZM211,0.005C94.654,0.005 0,94.658 0,211.003C0,327.349 94.654,422.001 211,422.001C327.348,422.001 422,327.349 422,211.003C422,94.658 327.348,0.005 211,0.005Z" style="fill:url(#_Linear1);"/>
        <path d="M482.857,154.316L498.88,154.316L498.88,172.25C498.88,177.512 498.401,181.816 498.401,181.816L498.88,181.816C504.618,165.555 523.749,151.446 542.4,151.446C564.64,151.446 576.119,161.729 579.706,181.577L580.184,181.577C586.641,165.315 604.097,151.446 624.423,151.446C653.597,151.446 664.357,168.425 664.357,198.077L664.357,274.599L648.097,274.599L648.097,202.141C648.097,182.533 644.031,166.272 622.032,166.272C603.618,166.272 588.553,182.533 584.009,200.229C582.336,205.49 581.857,211.228 581.857,217.685L581.857,274.599L565.597,274.599L565.597,202.141C565.597,183.968 562.966,166.272 540.249,166.272C520.64,166.272 505.814,183.251 500.792,201.665C499.597,206.686 499.119,212.185 499.119,217.685L499.119,274.599L482.857,274.599L482.857,154.316Z" style="fill:rgb(88,89,91);fill-rule:nonzero;"/>
        <path d="M681.512,304.728C681.512,304.728 688.207,310.228 695.859,310.228C706.381,310.228 713.794,301.619 718.577,290.62L725.989,273.642L675.772,154.316L693.708,154.316L729.099,242.076C731.49,248.055 733.402,254.752 733.402,254.752L733.881,254.752C733.881,254.752 735.556,248.055 737.946,242.076L772.62,154.316L790.315,154.316L731.012,299.708C724.795,315.012 712.359,324.815 696.338,324.815C683.902,324.815 675.295,317.642 675.295,317.642L681.512,304.728Z" style="fill:rgb(88,89,91);fill-rule:nonzero;"/>
        <path d="M812.871,243.272C812.871,243.272 830.328,261.686 856.871,261.686C875.284,261.686 890.35,250.686 890.35,232.511C890.35,190.186 806.415,200.947 806.415,148.815C806.415,124.665 827.697,103.62 858.784,103.62C887.958,103.62 903.741,119.881 903.741,119.881L895.61,133.75C895.61,133.75 880.784,119.402 858.784,119.402C837.263,119.402 823.394,133.511 823.394,148.339C823.394,188.272 907.328,176.794 907.328,232.034C907.328,257.142 887.958,277.469 856.393,277.469C821.958,277.469 803.067,255.945 803.067,255.945L812.871,243.272Z" style="fill:rgb(88,89,91);fill-rule:nonzero;"/>
        <path d="M933.087,154.316L949.348,154.316L949.348,274.599L933.087,274.599L933.087,154.316ZM932.608,106.49L949.587,106.49L949.587,126.815L932.608,126.815L932.608,106.49Z" style="fill:rgb(88,89,91);fill-rule:nonzero;"/>
        <path d="M981.562,154.316L997.583,154.316L997.583,175.599C997.583,180.859 997.104,185.165 997.104,185.165L997.583,185.165C1003.32,166.99 1016.71,153.121 1035.61,153.121C1038.95,153.121 1042.06,153.838 1042.06,153.838L1042.06,169.86C1042.06,169.86 1039.19,169.382 1036.08,169.382C1019.1,169.382 1006.43,182.772 1001.17,200.469C998.777,208.121 997.822,216.251 997.822,223.904L997.822,274.599L981.562,274.599L981.562,154.316Z" style="fill:rgb(88,89,91);fill-rule:nonzero;"/>
        <path d="M1111.34,151.446C1140.75,151.446 1155.34,168.664 1155.34,168.664L1146.97,180.859C1146.97,180.859 1133.58,166.272 1111.82,166.272C1085.51,166.272 1064.95,185.882 1064.95,214.577C1064.95,242.794 1085.75,262.882 1112.29,262.882C1136.69,262.882 1150.79,245.903 1150.79,245.903L1158.21,258.577C1158.21,258.577 1141.95,277.469 1111.34,277.469C1075.71,277.469 1048.21,251.881 1048.21,214.577C1048.21,177.512 1075.95,151.446 1111.34,151.446Z" style="fill:rgb(88,89,91);fill-rule:nonzero;"/>
        <path d="M1177.87,106.49L1194.13,106.49L1194.13,242.555C1194.13,258.338 1201.3,260.729 1207.52,260.729C1209.67,260.729 1211.59,260.49 1211.59,260.49L1211.59,275.077C1211.59,275.077 1208.72,275.556 1205.61,275.556C1195.56,275.556 1177.87,272.446 1177.87,246.143L1177.87,106.49Z" style="fill:rgb(88,89,91);fill-rule:nonzero;"/>
        <path d="M1314.68,201.902C1313.72,176.794 1298.42,165.076 1280.48,165.076C1260.39,165.076 1242.94,177.751 1239.11,201.902L1314.68,201.902ZM1280.96,151.446C1314.2,151.446 1331.18,177.034 1331.18,206.925C1331.18,209.793 1330.7,215.295 1330.7,215.295L1238.39,215.295C1239.11,246.143 1260.15,262.882 1285.02,262.882C1307.02,262.882 1321.61,248.293 1321.61,248.293L1329.03,260.729C1329.03,260.729 1311.57,277.469 1284.55,277.469C1248.68,277.469 1221.66,251.642 1221.66,214.577C1221.66,175.12 1248.44,151.446 1280.96,151.446Z" style="fill:rgb(88,89,91);fill-rule:nonzero;"/>
        <path d="M1355.67,248.293C1355.67,248.293 1369.06,262.882 1391.54,262.882C1404.45,262.882 1415.69,256.424 1415.69,243.751C1415.69,217.445 1350.89,223.904 1350.89,184.686C1350.89,163.165 1370.26,151.446 1392.02,151.446C1417.37,151.446 1429.08,164.598 1429.08,164.598L1421.67,177.034C1421.67,177.034 1411.39,166.033 1391.54,166.033C1379.34,166.033 1367.63,171.293 1367.63,184.686C1367.63,211.228 1432.43,204.055 1432.43,243.751C1432.43,263.358 1415.45,277.469 1391.3,277.469C1362.13,277.469 1346.82,260.012 1346.82,260.012L1355.67,248.293Z" style="fill:rgb(88,89,91);fill-rule:nonzero;"/>
    </g>
    <defs>
        <linearGradient id="_Linear1" x1="0" y1="0" x2="1" y2="0" gradientUnits="userSpaceOnUse" gradientTransform="matrix(2.58398e-15,-421.995,421.995,2.58398e-15,211,422)"><stop offset="0%" style="stop-color:rgb(133,197,85);stop-opacity:1"/><stop offset="100%" style="stop-color:rgb(88,170,78);stop-opacity:1"/></linearGradient>
    </defs>
</svg>
