<svg width="200" height="105" viewBox="0 0 200 105" version="1.1" xmlns="http://www.w3.org/2000/svg" xmlns:xlink="http://www.w3.org/1999/xlink" xmlns:figma="http://www.figma.com/figma/ns">
<title>origami-energy-logo</title>
<desc>Created using Figma</desc>
<g id="Canvas" transform="translate(0 -369)" figma:type="canvas">
<g id="origami-energy-logo" style="mix-blend-mode:normal;" figma:type="frame">
<g id="Group" style="mix-blend-mode:normal;" figma:type="frame">
<g id="Group" style="mix-blend-mode:normal;" figma:type="frame">
<g id="Vector" style="mix-blend-mode:normal;" figma:type="vector">
<use xlink:href="#path0_fill" transform="translate(0 451.104)" style="mix-blend-mode:normal;"/>
</g>
<g id="Vector" style="mix-blend-mode:normal;" figma:type="vector">
<use xlink:href="#path1_fill" transform="translate(18.6837 451.104)" style="mix-blend-mode:normal;"/>
</g>
<g id="Vector" style="mix-blend-mode:normal;" figma:type="vector">
<use xlink:href="#path2_fill" transform="translate(27.8132 446.433)" style="mix-blend-mode:normal;"/>
</g>
<g id="Vector" style="mix-blend-mode:normal;" figma:type="vector">
<use xlink:href="#path3_fill" transform="translate(33.758 450.892)" style="mix-blend-mode:normal;"/>
</g>
<g id="Vector" style="mix-blend-mode:normal;" figma:type="vector">
<use xlink:href="#path4_fill" transform="translate(52.4416 451.104)" style="mix-blend-mode:normal;"/>
</g>
<g id="Vector" style="mix-blend-mode:normal;" figma:type="vector">
<use xlink:href="#path5_fill" transform="translate(71.3376 451.104)" style="mix-blend-mode:normal;"/>
</g>
<g id="Vector" style="mix-blend-mode:normal;" figma:type="vector">
<use xlink:href="#path6_fill" transform="translate(98.0892 446.433)" style="mix-blend-mode:normal;"/>
</g>
<g id="Vector" style="mix-blend-mode:normal;" figma:type="vector">
<use xlink:href="#path7_fill" transform="translate(104.246 451.104)" fill="#A7A9AC" style="mix-blend-mode:normal;"/>
</g>
<g id="Vector" style="mix-blend-mode:normal;" figma:type="vector">
<use xlink:href="#path8_fill" transform="translate(122.718 451.104)" fill="#A7A9AC" style="mix-blend-mode:normal;"/>
</g>
<g id="Vector" style="mix-blend-mode:normal;" figma:type="vector">
<use xlink:href="#path9_fill" transform="translate(139.066 451.104)" fill="#A7A9AC" style="mix-blend-mode:normal;"/>
</g>
<g id="Vector" style="mix-blend-mode:normal;" figma:type="vector">
<use xlink:href="#path10_fill" transform="translate(157.537 451.104)" fill="#A7A9AC" style="mix-blend-mode:normal;"/>
</g>
<g id="Vector" style="mix-blend-mode:normal;" figma:type="vector">
<use xlink:href="#path11_fill" transform="translate(166.242 450.892)" fill="#A7A9AC" style="mix-blend-mode:normal;"/>
</g>
<g id="Vector" style="mix-blend-mode:normal;" figma:type="vector">
<use xlink:href="#path12_fill" transform="translate(184.076 451.529)" fill="#A7A9AC" style="mix-blend-mode:normal;"/>
</g>
</g>
<g id="Group" style="mix-blend-mode:normal;" figma:type="frame">
<g id="Vector" style="mix-blend-mode:normal;" figma:type="vector">
<use xlink:href="#path13_stroke" transform="translate(82.1656 382.951)" style="mix-blend-mode:normal;"/>
</g>
<g id="Vector" style="mix-blend-mode:normal;" figma:type="vector">
<use xlink:href="#path14_stroke" transform="translate(113.376 389.745)" style="mix-blend-mode:normal;"/>
</g>
<g id="Vector" style="mix-blend-mode:normal;" figma:type="vector">
<use xlink:href="#path15_stroke" transform="translate(130.573 389.745)" style="mix-blend-mode:normal;"/>
</g>
<g id="Vector" style="mix-blend-mode:normal;" figma:type="vector">
<use xlink:href="#path16_stroke" transform="translate(86.8365 370)" style="mix-blend-mode:normal;"/>
</g>
<g id="Vector" style="mix-blend-mode:normal;" figma:type="vector">
<use xlink:href="#path17_stroke" transform="translate(70.913 420.955)" style="mix-blend-mode:normal;"/>
</g>
<g id="Vector" style="mix-blend-mode:normal;" figma:type="vector">
<use xlink:href="#path18_stroke" transform="translate(66.6667 420.955)" style="mix-blend-mode:normal;"/>
</g>
</g>
</g>
</g>
</g>
<defs>
<path id="path0_fill" d="M 16.5605 8.28026C 16.5605 12.9512 12.7389 16.5605 8.28026 16.5605C 3.82166 16.5605 0 12.7389 0 8.28026C 0 3.60934 3.82166 -3.23966e-06 8.49257 -3.23966e-06C 12.9512 -3.23966e-06 16.5605 3.82166 16.5605 8.28026ZM 5.09554 5.09554C 4.24628 5.9448 3.82166 7.00637 3.82166 8.28026C 3.82166 10.828 5.73248 12.9512 8.28026 12.9512C 10.828 12.9512 12.9512 11.0403 12.9512 8.28026C 12.9512 5.73248 11.0403 3.60934 8.28026 3.60934C 7.00637 3.60934 5.73248 4.24628 5.09554 5.09554Z"/>
<path id="path1_fill" d="M 4.04957e-07 0.424627L 3.39703 0.424627L 3.39703 1.91083C 4.24628 0.636943 5.30786 -3.23966e-06 6.79406 -3.23966e-06L 7.00637 -3.23966e-06L 7.00637 3.60934C 6.15711 3.60934 5.30786 3.82165 4.67091 4.24628C 3.60934 5.09554 3.60934 6.36943 3.60934 7.64331L 3.60934 16.1359L 4.04957e-07 16.1359L 4.04957e-07 0.424627Z"/>
<path id="path2_fill" d="M 8.09915e-07 3.23966e-06L 3.82166 3.23966e-06L 3.82166 3.39703L 8.09915e-07 3.39703L 8.09915e-07 3.23966e-06ZM 8.09915e-07 5.09554L 3.82166 5.09554L 3.82166 20.8068L 8.09915e-07 20.8068L 8.09915e-07 5.09554Z"/>
<path id="path3_fill" d="M 16.3482 0.636941L 16.3482 13.8004C 16.3482 16.1359 15.9236 18.0467 14.2251 19.7452C 12.5265 21.4437 10.4034 22.5053 8.06794 22.5053C 4.67091 22.5053 1.4862 20.5945 0.424629 17.4098L 4.67091 17.4098C 5.52017 18.259 7.00637 18.896 8.06794 18.896C 9.34183 18.896 10.6157 18.4713 11.465 17.6221C 12.5265 16.5605 12.7389 15.4989 12.9512 14.0127C 11.6773 15.7113 9.97877 16.7728 7.85563 16.7728C 5.9448 16.7728 3.60934 15.7113 2.33546 14.2251C 0.849257 12.5265 -8.09915e-07 10.4034 -8.09915e-07 8.06794C -8.09915e-07 5.9448 0.849256 4.03397 2.12314 2.54777C 3.60934 0.849259 5.73249 3.01717e-14 8.06794 3.01717e-14C 10.1911 3.01717e-14 12.1019 0.849259 12.9512 2.54777L 12.9512 0.42463L 16.3482 0.42463L 16.3482 0.636941ZM 8.28025 3.82165C 7.00637 3.82165 5.9448 4.4586 5.09554 5.30786C 4.24628 6.15711 3.82166 7.21868 3.82166 8.49257C 3.82166 11.2527 5.73248 13.1635 8.49257 13.1635C 11.0403 13.1635 12.9512 11.0403 12.9512 8.49257C 12.9512 5.9448 10.828 3.82165 8.28025 3.82165Z"/>
<path id="path4_fill" d="M 16.3482 16.1359L 12.9512 16.1359L 12.9512 14.0127C 11.6773 15.7113 9.55414 16.5605 7.64331 16.5605C 5.30785 16.5605 3.18471 15.4989 1.91083 14.0127C 0.636944 12.5265 1.61983e-06 10.4034 1.61983e-06 8.28026C 1.61983e-06 6.15711 0.636944 4.24629 1.91083 2.76009C 3.39703 0.84926 5.52017 -3.23966e-06 7.64331 -3.23966e-06C 9.76645 -3.23966e-06 11.6773 1.06157 12.9512 2.76009C 12.9512 2.76009 12.9512 2.76009 12.9512 0.636946L 16.3482 0.636946L 16.3482 16.1359ZM 8.28026 3.60934C 5.52017 3.60934 3.60934 5.73248 3.60934 8.49257C 3.60934 11.0403 5.73249 12.9512 8.28026 12.9512C 11.0403 12.9512 12.7389 11.0403 12.7389 8.28026C 12.9512 5.52017 11.0403 3.60934 8.28026 3.60934Z"/>
<path id="path5_fill" d="M 0.212316 0.424627L 3.60934 0.424627L 3.60934 1.91083C 4.24628 0.424628 6.15711 -3.23966e-06 7.64331 -3.23966e-06C 9.34183 -3.23966e-06 10.828 0.636943 11.8896 1.91083C 12.1019 2.12314 12.1019 2.12314 12.3142 2.33546C 12.5265 2.12314 12.5265 1.91083 12.7389 1.91083C 13.8004 0.636943 15.7113 -3.23966e-06 17.1975 -3.23966e-06C 19.1083 -3.23966e-06 20.8068 0.636943 21.8684 1.91083C 23.3546 3.39703 23.5669 5.30786 23.5669 7.21868L 23.5669 15.9236L 19.9575 15.9236L 19.9575 7.64331C 19.9575 6.79406 19.9575 5.52017 19.3206 4.67091C 18.896 4.03397 17.8344 3.60934 16.9851 3.60934C 15.9236 3.60934 14.862 4.03397 14.4374 4.88323C 13.8004 5.9448 13.8004 7.431 13.8004 8.49257L 13.8004 15.9236L 9.97877 15.9236L 9.97877 7.64331C 9.97877 6.58174 9.97877 5.73248 9.34183 4.67091C 8.70488 3.82165 7.85563 3.39703 6.79405 3.39703C 3.82165 3.39703 3.82166 6.15711 3.82166 8.49257L 3.82166 15.9236L -3.23966e-06 15.9236L -3.23966e-06 0.424627L 0.212316 0.424627Z"/>
<path id="path6_fill" d="M 1.61983e-06 3.23966e-06L 3.82166 3.23966e-06L 3.82166 3.39703L 1.61983e-06 3.39703L 1.61983e-06 3.23966e-06ZM 1.61983e-06 5.09554L 3.82166 5.09554L 3.82166 20.8068L 1.61983e-06 20.8068L 1.61983e-06 5.09554Z"/>
<path id="path7_fill" d="M 4.03397 9.97877C 4.67091 11.6773 6.15712 12.9512 8.06794 12.9512C 9.55414 12.9512 10.828 12.3142 11.465 11.6773L 15.7113 11.6773C 14.6497 14.4374 11.465 16.7728 8.28026 16.7728C 3.82166 16.7728 -3.23966e-06 13.1635 -3.23966e-06 8.49257C -3.23966e-06 3.82165 3.60934 -3.23966e-06 8.28026 -3.23966e-06C 12.7389 -3.23966e-06 16.3482 3.82166 16.3482 8.28026C 16.3482 8.9172 16.1359 9.55414 16.1359 9.97877L 4.03397 9.97877L 4.03397 9.97877ZM 12.5265 6.58174C 11.8896 4.67092 10.1911 3.60934 8.28026 3.60934C 6.36943 3.60934 4.4586 4.88323 4.03397 6.58174L 12.5265 6.58174Z"/>
<path id="path8_fill" d="M 0.212317 0.424627L 3.60934 0.424627L 3.60934 1.91083C 4.67091 0.636943 6.36943 -3.23966e-06 7.85563 -3.23966e-06C 9.55414 -3.23966e-06 11.2527 0.636943 12.3142 1.91083C 12.5265 2.12314 12.5265 2.12314 12.7389 2.33546C 14.0127 4.03397 14.0127 5.9448 14.0127 8.06794L 14.0127 16.1359L 10.1911 16.1359L 10.1911 8.70489C 10.1911 7.431 10.1911 5.9448 9.55414 4.88323C 8.9172 4.03397 8.06794 3.60934 7.00637 3.60934C 5.9448 3.60934 4.88323 4.24628 4.4586 5.09554C 3.82166 6.15711 3.82165 7.85563 3.82165 9.12952L 3.82165 16.1359L -1.61983e-06 16.1359L -1.61983e-06 0.424627L 0.212317 0.424627Z"/>
<path id="path9_fill" d="M 4.03397 9.97877C 4.67092 11.6773 6.15712 12.9512 8.06795 12.9512C 9.55415 12.9512 10.828 12.3142 11.465 11.6773L 15.7113 11.6773C 14.6497 14.4374 11.465 16.7728 8.28026 16.7728C 3.82166 16.7728 0 13.1635 0 8.49257C 0 3.82165 3.60935 -3.23966e-06 8.28026 -3.23966e-06C 12.7389 -3.23966e-06 16.3482 3.82166 16.3482 8.28026C 16.3482 8.9172 16.1359 9.55414 16.1359 9.97877L 4.03397 9.97877L 4.03397 9.97877ZM 12.5265 6.58174C 11.8896 4.67092 10.1911 3.60934 8.28026 3.60934C 6.36943 3.60934 4.4586 4.88323 4.03397 6.58174L 12.5265 6.58174Z"/>
<path id="path10_fill" d="M 0.212321 0.424627L 3.60935 0.424627L 3.60935 1.91083C 4.4586 0.636943 5.52017 -3.23966e-06 7.00637 -3.23966e-06L 7.21868 -3.23966e-06L 7.21868 3.60934C 6.36942 3.60934 5.52017 3.82165 4.88323 4.24628C 3.82166 5.09554 3.82166 6.36943 3.82166 7.64331L 3.82166 16.1359L -6.47932e-06 16.1359L -6.47932e-06 0.424627L 0.212321 0.424627Z"/>
<path id="path11_fill" d="M 16.3482 0.636941L 16.3482 13.8004C 16.3482 16.1359 15.9236 18.0467 14.2251 19.7452C 12.5265 21.4437 10.4034 22.5053 8.06794 22.5053C 4.67091 22.5053 1.4862 20.5945 0.424628 17.4098L 4.67091 17.4098C 5.52017 18.259 7.00637 18.896 8.06794 18.896C 9.34182 18.896 10.6157 18.4713 11.465 17.6221C 12.5265 16.5605 12.7389 15.4989 12.9512 14.0127C 11.6773 15.7113 9.97877 16.7728 7.85563 16.7728C 5.9448 16.7728 3.60935 15.7113 2.33546 14.2251C 0.84926 12.5265 6.47932e-06 10.4034 6.47932e-06 8.06794C 6.47932e-06 5.9448 0.849263 4.03397 2.12315 2.54777C 3.60935 0.849259 5.73248 3.01717e-14 8.06794 3.01717e-14C 10.1911 3.01717e-14 12.1019 0.849259 12.9512 2.54777L 12.9512 0.42463L 16.3482 0.42463L 16.3482 0.636941ZM 8.06794 3.82165C 6.79405 3.82165 5.73248 4.4586 4.88322 5.30786C 4.03397 6.15711 3.60934 7.21868 3.60934 8.49257C 3.60934 11.2527 5.52016 13.1635 8.28025 13.1635C 10.828 13.1635 12.7389 11.0403 12.7389 8.49257C 12.7389 5.9448 10.828 3.82165 8.06794 3.82165Z"/>
<path id="path12_fill" d="M 5.73249 14.2251L -6.47932e-06 -1.61983e-06L 4.24628 -1.61983e-06L 7.85563 9.97877L 11.6773 -1.61983e-06L 15.9236 -1.61983e-06L 7.00637 20.8068L 2.76008 20.8068L 5.73249 14.2251Z"/>
<path id="path13_stroke" d="M 26.327 0L 26.7027 -0.118087C 26.6547 -0.270674 26.5193 -0.379106 26.3599 -0.392472C 26.2005 -0.405839 26.0488 -0.321485 25.9761 -0.179016L 26.327 0ZM 38.0042 37.155L 38.1441 37.5232C 38.3391 37.4491 38.4425 37.2359 38.38 37.0369L 38.0042 37.155ZM 1.61983e-06 51.5924L -0.350813 51.4133C -0.424834 51.5584 -0.401945 51.7341 -0.293222 51.8553C -0.1845 51.9765 -0.0123689 52.0184 0.139868 51.9605L 1.61983e-06 51.5924ZM 25.9512 0.118087L 37.6285 37.2731L 38.38 37.0369L 26.7027 -0.118087L 25.9512 0.118087ZM 37.8644 36.7868L -0.139865 51.2242L 0.139868 51.9605L 38.1441 37.5232L 37.8644 36.7868ZM 0.350816 51.7714L 26.6778 0.179016L 25.9761 -0.179016L -0.350813 51.4133L 0.350816 51.7714Z"/>
<path id="path14_stroke" d="M 3.23966e-06 8.49257L -0.140206 8.12452C -0.334511 8.19854 -0.437803 8.41086 -0.376113 8.60942L 3.23966e-06 8.49257ZM 22.293 -4.04957e-07L 22.6438 0.179072C 22.7179 0.0339567 22.6949 -0.141792 22.5861 -0.263053C 22.4773 -0.384314 22.305 -0.426051 22.1528 -0.368048L 22.293 -4.04957e-07ZM 6.79405 30.3609L 6.41794 30.4778C 6.46546 30.6307 6.60088 30.7397 6.76046 30.7534C 6.92005 30.767 7.07201 30.6827 7.14484 30.54L 6.79405 30.3609ZM 0.140212 8.86062L 22.4332 0.368048L 22.1528 -0.368048L -0.140206 8.12452L 0.140212 8.86062ZM 21.9422 -0.179073L 6.44327 30.1819L 7.14484 30.54L 22.6438 0.179072L 21.9422 -0.179073ZM 7.17017 30.2441L 0.37612 8.37572L -0.376113 8.60942L 6.41794 30.4778L 7.17017 30.2441Z"/>
<path id="path15_stroke" d="M 5.09554 -4.04957e-07L 5.36269 -0.289403C 5.27257 -0.372582 5.14886 -0.409041 5.02804 -0.388022C 4.90722 -0.367004 4.80309 -0.290907 4.74636 -0.182182L 5.09554 -4.04957e-07ZM 16.1359 10.1911L 16.1255 10.5848C 16.2895 10.5891 16.439 10.4913 16.5008 10.3393C 16.5625 10.1873 16.5236 10.013 16.403 9.90168L 16.1359 10.1911ZM 0 9.76646L -0.349181 9.58427C -0.412028 9.70473 -0.408352 9.84907 -0.339458 9.96617C -0.270563 10.0833 -0.146178 10.1566 -0.0103609 10.1602L 0 9.76646ZM 4.8284 0.289402L 15.8687 10.4805L 16.403 9.90168L 5.36269 -0.289403L 4.8284 0.289402ZM 16.1462 9.79737L 0.0103609 9.37274L -0.0103609 10.1602L 16.1255 10.5848L 16.1462 9.79737ZM 0.349181 9.94864L 5.44473 0.182181L 4.74636 -0.182182L -0.349181 9.58427L 0.349181 9.94864Z"/>
<path id="path16_stroke" d="M 21.656 12.9512L 22.007 13.13C 22.101 12.9454 22.036 12.7195 21.8582 12.6132L 21.656 12.9512ZM 3.23966e-06 1.26549e-08L 0.20215 -0.338016C 0.0628317 -0.421333 -0.113334 -0.410638 -0.24155 -0.311079C -0.369765 -0.211519 -0.423763 -0.0434923 -0.37755 0.112122L 3.23966e-06 1.26549e-08ZM 10.4034 35.0318L 10.0258 35.144C 10.0717 35.2984 10.207 35.4094 10.3675 35.4241C 10.5279 35.4388 10.6811 35.3542 10.7543 35.2107L 10.4034 35.0318ZM 21.8582 12.6132L 0.20215 -0.338016L -0.202143 0.338016L 21.4539 13.2892L 21.8582 12.6132ZM -0.37755 0.112122L 10.0258 35.144L 10.7809 34.9197L 0.377557 -0.112122L -0.37755 0.112122ZM 10.7543 35.2107L 22.007 13.13L 21.3051 12.7723L 10.0525 34.853L 10.7543 35.2107Z"/>
<path id="path17_stroke" d="M 17.4098 1.4862L 17.7608 1.66479C 17.8202 1.54801 17.8177 1.40931 17.754 1.29479C 17.6903 1.18027 17.5738 1.10492 17.4433 1.09378L 17.4098 1.4862ZM 3.23966e-06 -8.09915e-07L 0.0335028 -0.392424C -0.124605 -0.405921 -0.275369 -0.323216 -0.348948 -0.182623C -0.422527 -0.0420304 -0.404546 0.128986 -0.303336 0.251202L 3.23966e-06 -8.09915e-07ZM 11.2527 13.5881L 10.9493 13.8393C 11.0339 13.9415 11.1643 13.9942 11.2961 13.9796C 11.4279 13.9649 11.5435 13.8849 11.6037 13.7667L 11.2527 13.5881ZM 17.4433 1.09378L 0.0335028 -0.392424L -0.0334963 0.392422L 17.3763 1.87862L 17.4433 1.09378ZM -0.303336 0.251202L 10.9493 13.8393L 11.556 13.3369L 0.303343 -0.251204L -0.303336 0.251202ZM 11.6037 13.7667L 17.7608 1.66479L 17.0587 1.30761L 10.9016 13.4095L 11.6037 13.7667Z"/>
<path id="path18_stroke" d="M 4.24629 -8.09915e-07L 4.54885 -0.252137C 4.46003 -0.358719 4.32169 -0.410708 4.18466 -0.389C 4.04763 -0.367291 3.93213 -0.275088 3.88061 -0.146273L 4.24629 -8.09915e-07ZM -8.09915e-07 10.6157L -0.365681 10.4694C -0.425198 10.6182 -0.388627 10.7882 -0.273194 10.8994C -0.15776 11.0106 0.0135151 11.0407 0.159957 10.9756L -8.09915e-07 10.6157ZM 9.55414 6.36943L 9.7141 6.72933C 9.82692 6.67919 9.9097 6.57904 9.93772 6.4588C 9.96574 6.33856 9.93575 6.21214 9.85671 6.11729L 9.55414 6.36943ZM 3.88061 -0.146273L -0.365681 10.4694L 0.36568 10.762L 4.61197 0.146272L 3.88061 -0.146273ZM 0.159957 10.9756L 9.7141 6.72933L 9.39419 6.00952L -0.159958 10.2558L 0.159957 10.9756ZM 9.85671 6.11729L 4.54885 -0.252137L 3.94372 0.252136L 9.25158 6.62156L 9.85671 6.11729Z"/>
</defs>
</svg>
