<?xml version="1.0" encoding="UTF-8" standalone="no"?>
<!-- Created with Inkscape (http://www.inkscape.org/) -->
<svg id="svg2" xmlns:rdf="http://www.w3.org/1999/02/22-rdf-syntax-ns#" xmlns="http://www.w3.org/2000/svg" xml:space="preserve" viewBox="0 0 117.7 61.438" version="1.1" xmlns:cc="http://creativecommons.org/ns#" xmlns:dc="http://purl.org/dc/elements/1.1/"><metadata id="metadata8"><rdf:RDF><cc:Work rdf:about=""><dc:format>image/svg+xml</dc:format><dc:type rdf:resource="http://purl.org/dc/dcmitype/StillImage"/><dc:title/></cc:Work></rdf:RDF></metadata><g id="g10" transform="matrix(1.25,0,0,-1.25,0,61.4375)"><g id="g12" fill="#FFF" transform="scale(0.1,0.1)"><path id="path14" fill-rule="nonzero" d="m23.754,81.727c-4.1211-4.1016-6.1055-9.4141-6.1055-15.254,0-11.797,9.1524-21.758,21.23-21.758,12.48,0,21.629,9.4336,21.629,21.758,0,12.082-9.4297,22.031-21.629,22.031-5.4453,0-11.418-2.793-15.125-6.7773zm54.402-15.254c0-21.758-17.648-39.004-39.277-39.004-21.231,0-38.879,17.637-38.879,39.004,0,22.031,17.648,39.277,39.68,39.277,21.621,0,38.477-17.91,38.477-39.277"/><path id="path16" fill-rule="nonzero" d="m88.082,103.37,16.059,0,0-6.6404c4.105,6.2424,8.754,9.0234,16.054,9.0234h1.332v-17.109c-3.586,0-7.832-1.1914-10.754-3.457-5.046-4.1211-5.168-9.5508-5.046-15.652v-39.68h-17.645v73.515"/><path id="path18" fill-rule="nonzero" d="m130.53,103.37,17.649,0,0-73.515-17.649,0,0,73.515zm0,24.551,17.649,0,0-16.055-17.649,0,0,16.055"/><path id="path20" fill-rule="nonzero" d="m197.67,88.504c-5.715,0-11.156-2.5195-15.008-6.5039-4.105-4.2461-5.828-9.1602-5.828-15,0-12.734,9.414-22.285,22.152-22.285,11.68,0,20.7,10.352,20.7,21.621,0,12.617-9.551,22.168-22.016,22.168zm38.613,14.863,0-62.363c0-11.414-2.402-20.039-10.351-28.398-7.57-7.8356-18.18-12.609-29.2-12.609-15.52,0-31.05,9.4219-36.48,24.285h20.039c3.985-4.2461,10.742-7.0391,16.445-7.0391,5.848,0,12.215,2.1172,16.465,6.1016,5.301,4.9023,5.965,9.9609,7.024,16.719-6.102-7.5586-13.66-12.598-23.754-12.598-9.293,0-19.902,4.9023-26.274,11.543-7.289,7.5586-11.011,18.176-11.011,28.652,0,9.6875,3.722,18.711,9.824,25.617,6.894,7.5667,16.848,12.469,27.863,12.469,9.555,0,18.578-3.984,23.215-12.469v10.086h16.203"/><path id="path22" fill-rule="nonzero" d="m286.41,88.504c-12.996,0.1367-22.031-9.6875-22.031-22.559,0-12.078,9.836-21.367,21.773-21.23,12.739-0.1367,21.489,9.4336,21.489,22.031,0,12.336-8.75,21.894-21.231,21.758zm37.953-58.652-16.179,0,0,9.9531c-5.586-7.5703-15.93-12.336-25.215-12.336-11.418,0-20.707,4.7656-27.082,12.336-5.828,7.0312-9.149,16.59-9.149,26.805s2.657,18.711,9.43,26.406c7.43,8.6254,16.582,12.734,27.324,12.734,10.086,0,18.84-4.512,24.692-12.734v10.351h16.179v-73.515"/><path id="path24" fill-rule="nonzero" d="m337.47,103.37,16.179,0,0-6.7654c3.457,6.6284,12.481,9.1484,19.387,9.1484,7.559,0,14.988-3.184,19.633-9.1484,0.664-0.6758,1.199-1.4649,1.723-2.2578,0.539,0.9296,1.203,1.7187,1.859,2.2578,5.172,6.2384,13.543,9.1484,21.496,9.1484,8.629,0,16.586-2.52,22.438-9.1484,6.765-7.3047,7.546-15.93,7.546-25.48v-41.27h-17.644v39.141c0,4.2578-0.125,10.352-2.649,14.074-2.261,3.4453-6.765,5.4375-11.015,5.4375-4.906,0-9.555-2.1289-12.215-6.3672-3.047-4.7851-2.785-11.953-2.785-17.254v-35.031h-17.645v39.141c0,4.7851,0,9.2969-2.785,13.535-2.523,3.8477-7.031,5.9766-11.539,5.9766-14.074,0-14.34-13.27-14.34-23.621v-35.031h-17.644v73.515"/><path id="path26" fill-rule="nonzero" d="m462.16,103.37,17.645,0,0-73.515-17.645,0,0,73.515zm0,24.551,17.645,0,0-16.055-17.645,0,0,16.055"/><path id="path28" fill-rule="nonzero" d="m549.73,74.441c-2.91,8.75-11.003,14.062-20.019,14.062-8.777,0-17.793-5.5742-20.449-14.062h40.468zm-40.19-15.664c2.637-8.496,10.481-14.062,19.375-14.062,6.621,0,13.008,2.5196,16.445,6.3711h19.512c-4.512-13.148-19.773-23.617-35.301-23.617-21.378,0-38.742,17.246-38.742,38.617,0,21.754,16.973,39.664,39.004,39.664,20.977,0,37.695-18.047,37.695-38.613,0-2.7812-0.535-5.5664-0.937-8.3594h-57.051"/><path id="path30" fill-rule="nonzero" d="m578.91,103.37,16.32,0,0-6.7654c4.637,6.1014,12.606,9.1484,20.293,9.1484,7.696,0,15.665-3.445,20.965-9.1484,0.664-0.6758,1.328-1.3282,1.867-2.1211,5.711-7.9688,5.829-17.129,5.829-26.543v-38.086h-17.645v34.629c0,5.7031,0,13.02-3.039,17.922-2.539,3.8477-7.168,6.1016-11.687,6.1016-4.778,0-9.954-2.5195-12.336-6.5039-3.184-5.0391-2.918-13.008-2.918-18.836v-33.312h-17.649v73.515"/><path id="path32" fill-rule="nonzero" d="m714.24,74.441c-2.929,8.75-11.023,14.062-20.058,14.062-8.75,0-17.774-5.5742-20.43-14.062h40.488zm-40.22-15.664c2.664-8.496,10.488-14.062,19.382-14.062,6.641,0,13,2.5196,16.446,6.3711h19.511c-4.511-13.148-19.765-23.617-35.293-23.617-21.367,0-38.757,17.246-38.757,38.617,0,21.754,16.98,39.664,39.023,39.664,20.965,0,37.676-18.047,37.676-38.613,0-2.7812-0.528-5.5664-0.93-8.3594h-57.058"/><path id="path34" fill-rule="nonzero" d="m743.4,103.37,16.047,0,0-6.6404c4.11,6.2424,8.758,9.0234,16.063,9.0234h1.328v-17.109c-3.594,0-7.832-1.1914-10.762-3.457-5.019-4.1211-5.176-9.5508-5.019-15.652v-39.68h-17.657v73.515"/><path id="path36" fill-rule="nonzero" d="m821.14,88.504c-5.703,0-11.153-2.5195-15-6.5039-4.102-4.2461-5.821-9.1602-5.821-15,0-12.734,9.414-22.285,22.149-22.285,11.68,0,20.703,10.352,20.703,21.621,0,12.617-9.551,22.168-22.031,22.168zm38.625,14.863,0-62.363c0-11.414-2.375-20.039-10.352-28.398-7.57-7.8356-18.18-12.609-29.19-12.609-15.53,0-31.06,9.4219-36.49,24.285h20.027c3.996-4.2461,10.762-7.0391,16.465-7.0391,5.832,0,12.199,2.1172,16.445,6.1016,5.313,4.9023,5.977,9.9609,7.031,16.719-6.093-7.5586-13.652-12.598-23.75-12.598-9.285,0-19.902,4.9023-26.257,11.543-7.317,7.5586-11.016,18.176-11.016,28.652,0,9.6875,3.699,18.711,9.812,25.617,6.895,7.5667,16.848,12.469,27.871,12.469,9.543,0,18.575-3.984,23.223-12.469v10.086h16.184"/><path id="path38" fill-rule="nonzero" d="m893.96,36.746-26.926,66.621,20.031,0,16.844-47.109,17.656,47.109,20.039,0-42.207-98.054-18.964,0,13.527,31.434"/><path id="path40" stroke-linejoin="round" d="M511.41,426.16,566.43,251.78,387.13,183.97,511.41,426.16z" stroke="#231f20" stroke-linecap="butt" stroke-miterlimit="10" stroke-dasharray="none" stroke-width="7.87713999999999981"/><path id="path42" stroke-linejoin="round" d="m534.01,354.94,104.64,39.786-72.218-142.95-32.422,103.16z" stroke="#231f20" stroke-linecap="butt" stroke-miterlimit="10" stroke-dasharray="none" stroke-width="7.87713999999999981"/><path id="path44" stroke-linejoin="round" d="m638.65,394.73,52.059-48.637-75.527,2.082,23.468,46.555z" stroke="#231f20" stroke-linecap="butt" stroke-miterlimit="10" stroke-dasharray="none" stroke-width="7.87713999999999981"/><path id="path46" stroke-linejoin="round" d="m511.41,426.16-102.17,61.41,49.18-164.82,52.992,103.41z" stroke="#231f20" stroke-linecap="butt" stroke-miterlimit="10" stroke-dasharray="none" stroke-width="7.87713999999999981"/><path id="path48" stroke-linejoin="round" d="m416.37,240.72-82.773,7.117,53.539-63.867,29.234,56.75z" stroke="#231f20" stroke-linecap="butt" stroke-miterlimit="10" stroke-dasharray="none" stroke-width="7.87713999999999981"/><path id="path50" stroke-linejoin="round" d="m333.59,247.84-19.16-50.606,44.203,20.645-25.043,29.961z" stroke="#231f20" stroke-linecap="butt" stroke-miterlimit="10" stroke-dasharray="none" stroke-width="7.87713999999999981"/></g></g></svg>
