<?xml version="1.0" encoding="UTF-8" standalone="no"?>
<!-- Created with Inkscape (http://www.inkscape.org/) -->
<svg id="svg2" xmlns:rdf="http://www.w3.org/1999/02/22-rdf-syntax-ns#" xmlns="http://www.w3.org/2000/svg" xml:space="preserve" viewBox="0 0 657.34 157.41" version="1.1" xmlns:cc="http://creativecommons.org/ns#" xmlns:dc="http://purl.org/dc/elements/1.1/"><metadata id="metadata8"><rdf:RDF><cc:Work rdf:about=""><dc:format>image/svg+xml</dc:format><dc:type rdf:resource="http://purl.org/dc/dcmitype/StillImage"/><dc:title/></cc:Work></rdf:RDF></metadata><g id="g10" transform="matrix(1.25,0,0,-1.25,0,157.4125)"><g id="g12" fill-rule="nonzero" fill="#FFF" transform="scale(0.1,0.1)"><path id="path14" d="m1418.3,700.14,160.93,0c89.53,0,226.15,6.64,226.15,166.33,0,153.05-127.29,153.05-197.78,153.05h-189.3v-319.38zm-135.29,428.89,327.34,0c119.09,0,200.47-6.8,266.75-78.48,48.72-50.02,71.66-116.4,71.66-189.39,0-74.453-24.3-138.1-77.02-190.84-51.54-51.367-119.07-84.003-295.14-84.003h-158.3v-434.27h-135.29v976.99"/><path id="path16" d="m2299.6,486.29c-51.47,0-244.89,0-244.89-138.09,0-43.281,26.95-117.72,140.7-117.72,64.94,0,113.66,25.672,144.88,73.071,28.44,45.976,29.72,83.925,32.39,178.67-23.03,2.735-41.92,4.063-73.08,4.063zm87.99-334.25c-9.52,33.731-12.26,66.25-12.26,101.52-60.78-112.44-152.84-123.24-209.77-123.24-155.65,0-239.33,87.969-239.33,200.31,0,54.199,18.76,140.74,119.02,198.93,73.07,40.527,181.35,44.59,235.43,44.59,32.43,0,52.82-1.348,92-4.063,0,83.984,0,120.59-24.26,150.29-25.74,33.887-81.27,44.668-117.89,44.668-128.46,0-135.26-87.988-136.68-115.06h-126.99c3.91,35.098,7.97,82.52,47.19,128.59,51.58,56.817,147.5,73.067,219.22,73.067,98.82,0,204.37-31.036,240.96-100.16,21.8-40.625,23.03-73.086,23.03-104.22l-5.48-324.75c0-10.781,1.48-101.52,10.87-170.48h-115.06"/><path id="path18" d="m2609.4,152.04,127.1,0,0,976.99-127.1,0,0-976.99z"/><path id="path20" d="m3195.8,486.29c-51.46,0-244.9,0-244.9-138.09,0-43.281,27.07-117.72,140.74-117.72,64.99,0,113.66,25.672,144.83,73.071,28.33,45.976,29.67,83.925,32.44,178.67-22.9,2.735-41.92,4.063-73.11,4.063zm88.03-334.25c-9.41,33.731-12.17,66.25-12.17,101.52-60.94-112.44-152.99-123.24-209.66-123.24-155.75,0-239.77,87.969-239.77,200.31,0,54.199,19.07,140.74,119.22,198.93,73.1,40.527,181.25,44.59,235.46,44.59,32.39,0,52.8-1.348,92-4.063,0,83.984,0,120.59-24.33,150.29-25.75,33.887-81.23,44.668-117.71,44.668-128.57,0-135.26-87.988-136.64-115.06h-127.29c4.06,35.098,8.11,82.52,47.36,128.59,51.38,56.817,147.61,73.067,219.23,73.067,98.88,0,204.24-31.036,240.86-100.16,21.66-40.625,22.99-73.086,22.99-104.22l-5.37-324.75c0-10.781,1.36-101.52,10.81-170.48h-114.99"/><path id="path22" d="m3507.4,752.82-1.32,78.594,127.18,0,1.37-109.76c14.83,28.457,63.49,123.26,217.81,123.26,60.77,0,246.37-23.066,246.37-231.43v-461.44h-130v431.66c0,44.688-5.43,85.274-36.53,116.45-32.61,31.113-77.16,45.918-120.39,45.918-92.09,0-177.26-66.329-177.26-202.89v-391.13h-127.23v600.78"/><path id="path24" d="m4138.5,831.41,120.42,0,0,144.78,125.79,40.545,0-185.33,151.55,0,0-93.359-151.55,0,0-404.75c0-33.77,0-90.703,90.73-90.703,25.72,0,49.96,4.097,60.82,6.859v-98.813c-22.99-4.058-59.5-8.007-105.59-8.007-116.33,0-171.75,33.668-171.75,144.65v450.76h-120.42v93.359"/><path id="path26" d="m4639.3,831.41,127.37,0,0-679.37-127.37,0,0,679.37zm-13.55,297.62,152.94,0,0-142.07-152.94,0,0,142.07"/><path id="path28" d="m4883.8,693.34c0,45.957-2.77,93.359-6.91,138.07h128.63l2.72-131.27c24.28,94.648,105.58,125.78,162.39,133.89,37.95,5.43,66.39,4.121,87.98,2.696v-124.47c-6.69,2.617-14.84,4.102-24.37,5.371-9.49,1.387-21.57,1.387-36.52,1.387-150.18,0-185.52-89.278-185.52-205.66v-361.3h-128.4v541.3"/><path id="path30" d="m496.99,452.37c-182.07,0-329.67,147.62-329.67,329.69s147.6,329.66,329.67,329.66c182.08,0,329.69-147.6,329.69-329.66,0-182.07-147.61-329.69-329.69-329.69zm0.02,806.97c-263.34,0-476.83-213.48-476.83-476.82s213.49-476.82,476.83-476.82c263.33,0,476.82,213.48,476.82,476.82s-213.48,476.82-476.82,476.82"/><path id="path32" d="M923.22,347.52,497.01,163.48,70.809,347.52,0,211.8,497.01,0,994.02,211.8,923.22,347.52"/></g></g></svg>
