<svg width="200" height="62" viewBox="0 0 200 62" version="1.1" xmlns="http://www.w3.org/2000/svg" xmlns:xlink="http://www.w3.org/1999/xlink" xmlns:figma="http://www.figma.com/figma/ns">
<title>pusher-logo</title>
<desc>Created using Figma</desc>
<g id="Canvas" transform="translate(-250 0)" figma:type="canvas">
<g id="pusher-logo" style="mix-blend-mode:normal;" figma:type="frame">
<g id="Group" style="mix-blend-mode:normal;" figma:type="frame">
<g id="Vector" style="mix-blend-mode:normal;" figma:type="vector">
<use xlink:href="#path0_fill" transform="translate(270.717 4.32987)" fill="#434343" style="mix-blend-mode:normal;"/>
</g>
<g id="Vector" style="mix-blend-mode:normal;" figma:type="vector">
<use xlink:href="#path1_fill" transform="translate(250 3.8928)" fill="#434343" style="mix-blend-mode:normal;"/>
</g>
<g id="Vector" style="mix-blend-mode:normal;" figma:type="vector">
<use xlink:href="#path2_fill" transform="translate(259.486 -2.66454e-15)" fill="#434343" style="mix-blend-mode:normal;"/>
</g>
<g id="Vector" style="mix-blend-mode:normal;" figma:type="vector">
<use xlink:href="#path3_fill" transform="translate(279.573 11.8058)" fill="#434343" style="mix-blend-mode:normal;"/>
</g>
<g id="Group" style="mix-blend-mode:normal;" figma:type="frame">
<g id="Vector" style="mix-blend-mode:normal;" figma:type="vector">
<use xlink:href="#path4_fill" transform="translate(304.709 14.8435)" fill="#434343" style="mix-blend-mode:normal;"/>
</g>
<g id="Vector" style="mix-blend-mode:normal;" figma:type="vector">
<use xlink:href="#path5_fill" transform="translate(329.16 14.8435)" fill="#434343" style="mix-blend-mode:normal;"/>
</g>
<g id="Vector" style="mix-blend-mode:normal;" figma:type="vector">
<use xlink:href="#path6_fill" transform="translate(354.445 14.2926)" fill="#434343" style="mix-blend-mode:normal;"/>
</g>
<g id="Vector" style="mix-blend-mode:normal;" figma:type="vector">
<use xlink:href="#path7_fill" transform="translate(378.419 14.8435)" fill="#434343" style="mix-blend-mode:normal;"/>
</g>
<g id="Vector" style="mix-blend-mode:normal;" figma:type="vector">
<use xlink:href="#path8_fill" transform="translate(406.757 14.8435)" fill="#434343" style="mix-blend-mode:normal;"/>
</g>
<g id="Vector" style="mix-blend-mode:normal;" figma:type="vector">
<use xlink:href="#path9_fill" transform="translate(429.153 14.8435)" fill="#434343" style="mix-blend-mode:normal;"/>
</g>
</g>
</g>
</g>
</g>
<defs>
<path id="path0_fill" d="M 18.2228 1.05792C 12.2069 -1.83092 6.11647 1.68334 2.91493 5.74856C 0.964215 8.39914 -0.122825 12.8515 0.0260838 19.1802C -0.36108 28.2339 3.68926 41.591 3.68926 41.591L 11.9686 39.402L 7.44177 50.8829L 9.46693 52.2827L 17.1209 33.6988L 10.0924 35.6495C 10.0924 35.6495 6.42918 27.6829 7.82893 16.9167C 8.45435 9.73932 12.1175 5.6741 15.7211 6.37398C 19.3843 7.46101 20.9478 13.5514 17.6718 18.1676C 14.3958 22.7689 9.07977 24.8834 9.07977 24.8834L 9.39248 27.6978C 9.39248 27.6978 25.7874 22.2328 24.7004 8.965C 24.3132 5.89747 22.0498 2.78526 18.2228 1.05792Z"/>
<path id="path1_fill" d="M 13.1785 44.9169C 13.1785 44.9169 8.57717 32.5872 8.26446 20.6298C 7.95175 16.8029 7.71349 4.54763 12.4041 2.43312C 13.2678 1.03337 14.5931 0.00589914 14.5931 0.00589914C 14.5931 0.00589914 2.72504 -0.93223 3.35046 20.8532C 4.52684 35.4463 7.41568 42.1621 7.41568 42.1621L -1.81774e-06 44.1873L 12.017 53.5537L 12.8806 51.5285L 6.4031 46.7634L 13.1785 44.9169Z"/>
<path id="path2_fill" d="M 13.9081 47.6333C 7.74328 26.3244 9.06857 15.5434 12.0319 9.1403C 15.3823 1.96288 20.1474 3.91359 20.1474 3.91359C 20.1474 3.91359 22.0237 3.13926 24.1233 3.13926C 24.2722 2.43939 15.8439 -3.651 7.10297 3.28817C -6.8796 15.4689 5.53943 49.7479 5.53943 49.7479L 0 51.2369L 14.057 61.7797L 21.0111 45.6231L 13.9081 47.6333Z"/>
<path id="path3_fill" d="M 0.312709 8.81543L 3.63548e-06 11.5554C 3.63548e-06 11.5554 7.72839 7.57948 6.09039 -9.0887e-07C 5.22671 0.0744537 3.35046 1.08704 3.05264 1.39975C 3.73763 6.62646 0.312709 8.81543 0.312709 8.81543Z"/>
<path id="path4_fill" d="M 9.05368 4.54435e-07L -7.27096e-06 4.54435e-07L -7.27096e-06 31.2263L 4.52684 31.2263L 4.52684 18.8966L 8.97923 18.8966C 15.1441 18.8966 19.9836 16.0822 19.9836 9.45574C 20.073 2.79949 15.2185 4.54435e-07 9.05368 4.54435e-07ZM 9.05368 14.7569L 4.60129 14.7569L 4.60129 4.21413L 9.05368 4.21413C 12.4935 4.21413 15.5312 5.61388 15.5312 9.53019C 15.5312 13.4316 12.4935 14.7569 9.05368 14.7569Z"/>
<path id="path5_fill" d="M 16.38 20.9962C 16.38 24.7487 14.3548 27.6376 10.4534 27.6376C 6.552 27.6376 4.52685 24.7487 4.52685 20.9962L 4.52685 4.54435e-07L 3.63548e-06 4.54435e-07L 3.63548e-06 21.16C 3.63548e-06 24.1977 0.863677 27.0866 3.20155 29.2011C 5.15226 31.0029 7.80284 31.8517 10.4683 31.8517C 13.1189 31.8517 15.7844 30.988 17.7351 29.2011C 20.073 27.1759 20.9366 24.1977 20.9366 21.16L 20.9366 4.54435e-07L 16.4098 4.54435e-07L 16.4098 20.9962L 16.38 20.9962Z"/>
<path id="path6_fill" d="M 5.46497 8.42826C 5.46497 6.16484 7.34122 4.13968 9.60464 4.13968C 12.3446 4.13968 13.9826 5.94148 13.9826 8.66652L 18.5094 8.66652C 18.5094 3.35046 14.7569 9.0887e-07 9.60464 9.0887e-07C 4.83954 9.0887e-07 0.863674 3.58871 0.863674 8.51761C 0.863674 14.608 4.76509 16.0077 9.60464 17.884C 12.1808 18.8966 14.608 19.6858 14.608 22.9618C 14.608 25.9995 12.7317 28.2779 9.60464 28.2779C 6.32864 28.2779 4.52684 25.7017 4.52684 22.6491L -7.27096e-06 22.6491C -7.27096e-06 28.2779 3.90142 32.492 9.60464 32.492C 15.1441 32.492 19.2093 28.665 19.2093 23.0511C 19.2093 11.0937 5.46497 15.0696 5.46497 8.42826Z"/>
<path id="path7_fill" d="M 17.4075 13.5061L 4.52684 13.5061L 4.52684 4.54435e-07L -7.27096e-06 4.54435e-07L -7.27096e-06 31.2263L 4.52684 31.2263L 4.52684 17.6457L 17.4075 17.6457L 17.4075 31.2263L 21.9343 31.2263L 21.9343 4.54435e-07L 17.4075 4.54435e-07L 17.4075 13.5061Z"/>
<path id="path8_fill" d="M 0 31.2263L 16.7821 31.2263L 16.7821 27.0121L 4.52684 27.0121L 4.52684 17.5564L 16.7821 17.5564L 16.7821 13.3423L 4.52684 13.3423L 4.52684 4.21413L 16.7821 4.21413L 16.7821 4.54435e-07L 0 4.54435e-07L 0 31.2263Z"/>
<path id="path9_fill" d="M 14.9207 18.971C 18.9859 17.5713 20.8473 14.2059 20.8473 9.99181C 20.8473 7.25188 19.9836 4.52684 17.9585 2.57613C 15.7695 0.387165 12.5679 4.54435e-07 9.67909 4.54435e-07L 3.63548e-06 4.54435e-07L 3.63548e-06 31.2263L 4.52685 31.2263L 4.52685 16.7821L 4.6013 16.7821L 14.9058 31.2263L 20.609 31.2263L 11.8681 19.5965C 12.8956 19.5965 13.9826 19.3582 14.9207 18.971ZM 4.54174 16.1566L 4.54174 4.21413L 9.38127 4.21413C 12.97 4.21413 16.3354 6.09039 16.3354 10.0663C 16.3354 15.0696 11.8085 16.1566 7.74328 16.1566L 4.54174 16.1566Z"/>
</defs>
</svg>
