<svg width="200" height="40" viewBox="0 0 200 40" version="1.1" xmlns="http://www.w3.org/2000/svg" xmlns:xlink="http://www.w3.org/1999/xlink" xmlns:figma="http://www.figma.com/figma/ns">
<title>quantumblack-logo</title>
<desc>Created using Figma</desc>
<g id="Canvas" transform="translate(-250 -421)" figma:type="canvas">
<g id="quantumblack-logo" style="mix-blend-mode:normal;" figma:type="frame">
<g id="Layer 4" style="mix-blend-mode:normal;" figma:type="frame">
<g id="Group" style="mix-blend-mode:normal;" figma:type="frame">
<g id="Vector" style="mix-blend-mode:normal;" figma:type="vector">
<use xlink:href="#path0_fill" transform="translate(272.616 448.246)" fill="#001521" style="mix-blend-mode:normal;"/>
</g>
<g id="Vector" style="mix-blend-mode:normal;" figma:type="vector">
<use xlink:href="#path1_fill" transform="translate(250 430.918)" fill="#0071CE" style="mix-blend-mode:normal;"/>
</g>
<g id="Vector" style="mix-blend-mode:normal;" figma:type="vector">
<use xlink:href="#path2_fill" transform="translate(253.212 421)" fill="#001521" style="mix-blend-mode:normal;"/>
</g>
</g>
<g id="Group" style="mix-blend-mode:normal;" figma:type="frame">
<g id="Vector" style="mix-blend-mode:normal;" figma:type="vector">
<use xlink:href="#path3_fill" transform="translate(320.857 432.496)" fill="#001521" style="mix-blend-mode:normal;"/>
</g>
<g id="Vector" style="mix-blend-mode:normal;" figma:type="vector">
<use xlink:href="#path4_fill" transform="translate(335.315 432.496)" fill="#001521" style="mix-blend-mode:normal;"/>
</g>
<g id="Vector" style="mix-blend-mode:normal;" figma:type="vector">
<use xlink:href="#path5_fill" transform="translate(402.044 432.452)" fill="#001521" style="mix-blend-mode:normal;"/>
</g>
<g id="Vector" style="mix-blend-mode:normal;" figma:type="vector">
<use xlink:href="#path6_fill" transform="translate(309.329 432.452)" fill="#001521" style="mix-blend-mode:normal;"/>
</g>
<g id="Vector" style="mix-blend-mode:normal;" figma:type="vector">
<use xlink:href="#path7_fill" transform="translate(296.247 432.364)" fill="#001521" style="mix-blend-mode:normal;"/>
</g>
<g id="Vector" style="mix-blend-mode:normal;" figma:type="vector">
<use xlink:href="#path8_fill" transform="translate(438.425 432.408)" fill="#001521" style="mix-blend-mode:normal;"/>
</g>
<g id="Vector" style="mix-blend-mode:normal;" figma:type="vector">
<use xlink:href="#path9_fill" transform="translate(425.916 432.364)" fill="#001521" style="mix-blend-mode:normal;"/>
</g>
<g id="Vector" style="mix-blend-mode:normal;" figma:type="vector">
<use xlink:href="#path10_fill" transform="translate(412.691 432.496)" fill="#001521" style="mix-blend-mode:normal;"/>
</g>
<g id="Vector" style="mix-blend-mode:normal;" figma:type="vector">
<use xlink:href="#path11_fill" transform="translate(348.265 432.496)" fill="#001521" style="mix-blend-mode:normal;"/>
</g>
<g id="Vector" style="mix-blend-mode:normal;" figma:type="vector">
<use xlink:href="#path12_fill" transform="translate(389.447 432.452)" fill="#001521" style="mix-blend-mode:normal;"/>
</g>
<g id="Vector" style="mix-blend-mode:normal;" figma:type="vector">
<use xlink:href="#path13_fill" transform="translate(360.421 432.452)" fill="#001521" style="mix-blend-mode:normal;"/>
</g>
<g id="Vector" style="mix-blend-mode:normal;" figma:type="vector">
<use xlink:href="#path14_fill" transform="translate(373.723 432.496)" fill="#001521" style="mix-blend-mode:normal;"/>
</g>
</g>
</g>
</g>
</g>
<defs>
<path id="path0_fill" d="M 8.39148 0.237845C 6.45349 2.96864 3.63461 4.99471 0.375275 6.00775C 0.111004 6.09584 -0.0651739 6.36011 0.0229162 6.62438L 0.551455 9.13494L 1.07999 11.6015C 1.12404 11.9098 1.4764 12.086 1.74067 11.9979C 6.62967 10.5884 10.814 7.54932 13.6328 3.45313C 13.809 3.18886 13.7209 2.8365 13.4567 2.70437L 11.2984 1.42706L 9.0962 0.105708C 8.87597 -0.0704721 8.56766 -0.0264257 8.39148 0.237845Z"/>
<path id="path1_fill" d="M 20.3929 21.2659C 20.3488 21.0016 20.0845 20.8254 19.8203 20.8254C 19.3798 20.8695 18.9394 20.9135 18.4989 20.9135C 11.6719 20.9135 6.16631 15.4079 6.16631 8.58092C 6.16631 6.73102 6.56271 4.96922 7.31148 3.42764C 7.44361 3.16337 7.35552 2.8991 7.09125 2.72292L 4.84496 1.40157L 2.68675 0.0802195C 2.42248 -0.0959607 2.07012 0.0361744 1.93798 0.300445C 0.70472 2.76697 6.72074e-07 5.58585 6.72074e-07 8.53687C 6.72074e-07 18.7553 8.28047 27.0358 18.4989 27.0358C 19.3798 27.0358 20.2167 26.9917 21.0535 26.8596C 21.3618 26.8156 21.5821 26.5073 21.494 26.1989L 20.9654 23.7324L 20.3929 21.2659Z"/>
<path id="path2_fill" d="M 4.67234 11.2315C 4.89257 11.3636 5.20089 11.3196 5.37707 11.0994C 6.96269 8.98519 9.25303 7.35552 11.8517 6.60676C 12.116 6.51867 12.3802 6.47462 12.6445 6.43058C 12.9088 6.38653 13.173 6.34249 13.4373 6.29844C 14.0099 6.21035 14.6265 6.16631 15.2432 6.16631C 22.0701 6.16631 27.5758 11.6719 27.5758 18.4989C 27.5758 20.3488 27.1794 22.1106 26.4306 23.6522C 26.2985 23.9165 26.3866 24.1807 26.6508 24.3569L 28.8971 25.6783L 31.0553 26.9556C 31.3196 27.1317 31.672 26.9996 31.8041 26.7353C 33.0374 24.2688 33.7421 21.4499 33.7421 18.4989C 33.7421 8.28047 25.4616 6.72074e-07 15.2432 6.72074e-07C 14.1861 6.72074e-07 13.129 0.0880901 12.116 0.26427C 11.8517 0.308315 11.5874 0.35236 11.3231 0.396405C 11.0589 0.44045 10.7946 0.528541 10.5303 0.572586C 6.25797 1.67371 2.55818 4.31642 0.09166 7.84002C -0.0845202 8.10429 0.00356892 8.45665 0.267839 8.63283L 2.42605 9.91014L 4.67234 11.2315Z"/>
<path id="path3_fill" d="M 7.10297 0.0880904C 7.05892 0.0440454 7.01488 0 6.97084 0L 5.69353 0C 5.60544 0 5.56139 0.0440454 5.56139 0.0880904L 0.0117167 15.1955C -0.0323283 15.2836 0.0557631 15.4158 0.143853 15.4158L 1.77352 15.4158C 1.86161 15.4158 1.90565 15.3717 1.9497 15.3277L 3.13891 11.9803L 9.61354 11.9803L 10.8028 15.3277C 10.8468 15.3717 10.8908 15.4158 10.9789 15.4158L 12.6086 15.4158C 12.7407 15.4158 12.7848 15.2836 12.7407 15.1955L 7.10297 0.0880904ZM 3.62341 10.3506L 6.31016 2.77484L 8.95286 10.3506L 3.62341 10.3506Z"/>
<path id="path4_fill" d="M 11.3196 0L 9.82204 0C 9.73395 0 9.64587 0.0880908 9.64587 0.176181L 9.64587 11.8922L 1.80585 0.0880904C 1.7618 0.0440454 1.71775 0 1.67371 0L 0.17618 0C 0.0880901 0 2.6883e-06 0.0880908 2.6883e-06 0.176181L 2.6883e-06 15.2836C 2.6883e-06 15.3717 0.0880901 15.4598 0.17618 15.4598L 1.67371 15.4598C 1.7618 15.4598 1.84989 15.3717 1.84989 15.2836L 1.84989 3.47956L 9.68991 15.3277C 9.73396 15.3717 9.778 15.4158 9.82204 15.4158L 11.2755 15.4158C 11.3636 15.4158 11.4517 15.3277 11.4517 15.2396L 11.4517 0.132135C 11.4958 0.0440447 11.4077 0 11.3196 0Z"/>
<path id="path5_fill" d="M 9.38159 13.7861L 1.84989 13.7861L 1.84989 0.17618C 1.84989 0.0880898 1.7618 6.72074e-07 1.67371 6.72074e-07L 0.17618 6.72074e-07C 0.0880901 6.72074e-07 2.6883e-06 0.0880898 2.6883e-06 0.17618L 2.6883e-06 15.4598L 8.89709 15.4598C 8.98518 15.4598 9.02924 15.4158 9.02924 15.3717L 9.51374 14.0063C 9.55778 13.9182 9.46968 13.7861 9.38159 13.7861Z"/>
<path id="path6_fill" d="M 10.7029 0.0440451L 9.20542 0.0440451C 9.11733 0.0440451 9.02924 0.132136 9.02924 0.220226L 9.02924 10.2185C 9.02924 12.4647 7.61979 13.9182 5.46159 13.9182C 3.30338 13.9182 1.89393 12.4647 1.89393 10.2185L 1.89393 0.17618C 1.89393 0.0880898 1.80585 6.72074e-07 1.71776 6.72074e-07L 0.17618 6.72074e-07C 0.0880901 6.72074e-07 2.6883e-06 0.0880898 2.6883e-06 0.17618L 2.6883e-06 10.3065C 2.6883e-06 13.3897 2.20225 15.5479 5.41754 15.5479C 8.54474 15.5479 10.8351 13.3457 10.8351 10.3065L 10.8351 0.17618C 10.8791 0.0880898 10.791 0.0440451 10.7029 0.0440451Z"/>
<path id="path7_fill" d="M 9.82204 13.5218C 10.8351 12.2005 10.8351 10.747 10.8351 7.84002C 10.8351 4.58068 10.8351 3.08315 9.38159 1.62967C 8.32451 0.572586 6.95912 3.36037e-07 5.41754 3.36037e-07C 3.87596 3.36037e-07 2.51057 0.572586 1.45349 1.62967C -1.36515e-06 3.08315 -2.6883e-06 4.58068 -2.6883e-06 7.84002C -2.6883e-06 11.0994 -1.36515e-06 12.5969 1.45349 14.0504C 2.51057 15.1075 3.87596 15.68 5.41754 15.68C 6.6508 15.68 7.75193 15.3277 8.67688 14.667L 10.2625 16.2526C 10.3065 16.2967 10.4387 16.2967 10.4827 16.2526L 11.4077 15.3277C 11.4517 15.2836 11.4517 15.1515 11.4077 15.1075L 9.82204 13.5218ZM 7.97215 12.9492C 7.44361 13.4778 6.73889 13.8301 5.99013 13.9623L 5.94608 13.9623C 5.7699 14.0063 5.59372 14.0063 5.46159 14.0063C 4.4926 14.0063 3.56765 13.6099 2.90697 12.9492C 2.55461 12.5969 2.33439 12.2445 2.15821 11.76C 1.89394 10.9672 1.84989 9.86609 1.84989 7.84002C 1.84989 4.58068 1.98203 3.65574 2.90697 2.73079C 3.56765 2.07012 4.4926 1.67371 5.46159 1.67371C 6.43058 1.67371 7.35553 2.07012 8.0162 2.73079C 8.23643 2.95102 8.41261 3.21529 8.54474 3.47956C 8.98519 4.27237 9.02923 5.41754 9.02923 7.84002C 8.98519 11.0553 8.8971 12.0243 7.97215 12.9492Z"/>
<path id="path8_fill" d="M 11.5398 15.2396L 6.16631 6.03417L 10.8351 0.308315C 10.9232 0.220225 10.8351 0.0440457 10.7029 0.0440457L 8.85305 0.0440457C 8.809 0.0440457 8.76496 0.0880901 8.72092 0.0880901L 1.84989 8.54474L 1.84989 0.176181C 1.84989 0.0880904 1.7618 -3.36037e-07 1.67371 -3.36037e-07L 0.176183 -3.36037e-07C 0.0880928 -3.36037e-07 5.37659e-06 0.0880904 5.37659e-06 0.176181L 5.37659e-06 15.2836C 5.37659e-06 15.3717 0.0880928 15.4598 0.176183 15.4598L 1.67371 15.4598C 1.7618 15.4598 1.84989 15.3717 1.84989 15.2836L 1.84989 11.1434L 4.93304 7.44361L 9.46969 15.3717C 9.51374 15.4158 9.55778 15.4598 9.60182 15.4598L 11.4077 15.4598C 11.5398 15.5039 11.6279 15.3717 11.5398 15.2396Z"/>
<path id="path9_fill" d="M 5.46159 1.67371C 7.22339 1.67371 8.54474 2.77484 8.94115 4.66878L 8.94115 4.75687L 10.8351 4.75687L 10.791 4.62473C 10.2625 1.7618 8.23643 3.36037e-07 5.41754 3.36037e-07C 3.92001 3.36037e-07 2.51057 0.572586 1.45349 1.62967C 2.7303e-06 3.08315 -5.37659e-06 4.58068 -5.37659e-06 7.84002C -5.37659e-06 11.0994 2.7303e-06 12.5969 1.45349 14.0504C 2.51057 15.1075 3.92001 15.68 5.41754 15.68C 8.23643 15.68 10.3065 13.9182 10.791 11.0553L 10.8351 10.9232L 8.9852 10.9232L 8.9852 11.0113C 8.58879 12.8612 7.26744 14.0063 5.46159 14.0063C 4.4926 14.0063 3.56765 13.6099 2.90697 12.9933C 1.98202 12.0683 1.84989 11.0994 1.84989 7.84002C 1.84989 4.58068 1.98202 3.65574 2.90697 2.68675C 3.56765 2.02607 4.4926 1.67371 5.46159 1.67371Z"/>
<path id="path10_fill" d="M 7.10297 0.0880904C 7.05892 0.0440454 7.01488 0 6.97084 0L 5.69353 0C 5.60544 0 5.56139 0.0440454 5.56139 0.0880904L 0.01171 15.1955C -0.032335 15.2836 0.0557631 15.4158 0.143853 15.4158L 1.77351 15.4158C 1.8616 15.4158 1.90566 15.3717 1.9497 15.3277L 3.13891 11.9803L 9.61354 11.9803L 10.8027 15.3277C 10.8468 15.3717 10.8908 15.4158 10.9789 15.4158L 12.6086 15.4158C 12.7407 15.4158 12.7848 15.2836 12.7407 15.1955L 7.10297 0.0880904ZM 3.62341 10.3506L 6.31016 2.77484L 8.95286 10.3506L 3.62341 10.3506Z"/>
<path id="path11_fill" d="M 10.4827 0L 0.176178 0C 0.0880874 0 -2.50367e-14 0.0880908 -2.50367e-14 0.176181L -2.50367e-14 1.54158C -2.50367e-14 1.62967 0.0880874 1.71776 0.176178 1.71776L 4.4045 1.71776L 4.4045 15.3277C 4.4045 15.4158 4.49259 15.5039 4.58068 15.5039L 6.07821 15.5039C 6.1663 15.5039 6.2544 15.4158 6.2544 15.3277L 6.2544 1.67371L 10.4827 1.67371C 10.5708 1.67371 10.6589 1.58562 10.6589 1.49753L 10.6589 0.132135C 10.6589 0.0440447 10.6149 0 10.4827 0Z"/>
<path id="path12_fill" d="M 8.36856 7.5317C 9.64587 6.95912 10.4387 5.68181 10.4387 4.18428C 10.4387 1.62967 8.63282 6.72074e-07 5.85799 6.72074e-07L 0.176178 6.72074e-07C 0.0880874 6.72074e-07 -2.50367e-14 0.0880898 -2.50367e-14 0.17618L -2.50367e-14 15.2836C -2.50367e-14 15.3717 0.0880874 15.4598 0.176178 15.4598L 6.03418 15.4598C 8.94115 15.4598 10.6589 13.8301 10.6589 11.1434C 10.703 9.51373 9.82205 8.14833 8.36856 7.5317ZM 1.8499 1.71776L 5.72586 1.71776C 7.57575 1.71776 8.58879 2.6427 8.58879 4.22833C 8.58879 5.81395 7.5317 6.78294 5.72586 6.78294L 1.8499 6.78294L 1.8499 1.71776ZM 5.90203 13.7861L 1.8499 13.7861L 1.8499 8.45665L 5.90203 8.45665C 7.70788 8.45665 8.85306 9.46968 8.85306 11.1434C 8.85306 12.7731 7.70788 13.7861 5.90203 13.7861Z"/>
<path id="path13_fill" d="M 10.7029 0.0440451L 9.20541 0.0440451C 9.11732 0.0440451 9.02924 0.132136 9.02924 0.220226L 9.02924 10.2185C 9.02924 12.4647 7.61979 13.9182 5.46159 13.9182C 3.30338 13.9182 1.89393 12.4647 1.89393 10.2185L 1.89393 0.17618C 1.89393 0.0880898 1.80585 6.72074e-07 1.71776 6.72074e-07L 0.17618 6.72074e-07C 0.0880901 6.72074e-07 2.6883e-06 0.0880898 2.6883e-06 0.17618L 2.6883e-06 10.3065C 2.6883e-06 13.3897 2.20225 15.5479 5.41754 15.5479C 8.54474 15.5479 10.8351 13.3457 10.8351 10.3065L 10.8351 0.17618C 10.8351 0.0880898 10.791 0.0440451 10.7029 0.0440451Z"/>
<path id="path14_fill" d="M 13.1254 3.12959e-15L 11.5839 3.12959e-15C 11.5398 3.12959e-15 11.4517 0.0440454 11.4517 0.0880904L 6.69485 10.6149L 1.84989 0.0880904C 1.80585 0.0440454 1.76181 3.12959e-15 1.71776 3.12959e-15L 0.176186 3.12959e-15C 0.0880955 3.12959e-15 -5.37659e-06 0.0880908 -5.37659e-06 0.176181L -5.37659e-06 15.2836C -5.37659e-06 15.3717 0.0880955 15.4598 0.176186 15.4598L 1.67371 15.4598C 1.7618 15.4598 1.84989 15.3717 1.84989 15.2836L 1.84989 4.27237L 5.85799 12.9492C 5.90204 12.9933 5.94608 13.0373 5.99012 13.0373L 7.31148 13.0373C 7.35552 13.0373 7.44362 12.9933 7.44362 12.9492L 11.3636 4.27237L 11.3636 15.2836C 11.3636 15.3717 11.4517 15.4598 11.5398 15.4598L 13.0373 15.4598C 13.1254 15.4598 13.2135 15.3717 13.2135 15.2836L 13.2135 0.132135C 13.2576 0.0440447 13.2135 3.12959e-15 13.1254 3.12959e-15Z"/>
</defs>
</svg>
