<?xml version="1.0" encoding="utf-8"?>
<!-- Generator: Adobe Illustrator 21.0.0, SVG Export Plug-In . SVG Version: 6.00 Build 0)  -->
<svg version="1.1" id="Layer_1" xmlns="http://www.w3.org/2000/svg" xmlns:xlink="http://www.w3.org/1999/xlink" x="0px" y="0px"
	 viewBox="0 0 606.7 180.6" style="enable-background:new 0 0 606.7 180.6;" xml:space="preserve">
<style type="text/css">
	.st0{fill:#00B2D6;}
</style>
<g>
	<g>
		<path class="st0" d="M217.8,80.3c-0.2,0.8-1.1,1.2-1.9,0.9c-2.4-0.9-5.1-1.6-7.6-1.6c-4.3,0-8.4,1.3-8.4,5.6
			c0,2.3,1.3,3.5,5.5,4.8l3,0.9c6.1,1.9,8.7,4.7,8.7,10c0,9.3-6.5,15.6-18.3,15.6c-4.6,0-8.6-0.7-11.9-1.9c-0.8-0.3-1.2-1.2-1-2
			l1.4-4.8c0.2-0.8,1.1-1.2,1.9-0.9c3,1.2,6.4,2.1,9.4,2.1c5.3,0,9-1.8,9-6.1c0-2.5-1.7-3.5-5.6-4.7l-3.3-1
			c-5.8-1.9-8.4-5.4-8.4-10.9c0-9.4,7.9-14.5,18.3-14.5c3.1,0,6.7,0.7,9.7,1.7c0.8,0.3,1.2,1.2,1,2L217.8,80.3z"/>
		<path class="st0" d="M238.3,55.6c0.8,0,1.4,0.7,1.3,1.5l-6.4,32.9c6-4.4,11.2-9.5,15.9-15.5c0.6-0.8,1.5-1.2,2.5-1.2h6.9
			c0.7,0,1,0.8,0.7,1.3c-4.6,6.4-9.8,12.4-15.3,17.1l8.8,22.1c0.3,0.7-0.2,1.5-1,1.5h-7.4c-0.9,0-1.8-0.6-2.1-1.5l-6-16.5
			c-1.8,1.2-3.5,2.3-5,3l-2.6,13.4c-0.2,0.9-0.9,1.5-1.8,1.5h-6.3c-0.8,0-1.4-0.7-1.3-1.5l11-56.7c0.2-0.9,0.9-1.5,1.9-1.5H238.3z"
			/>
		<path class="st0" d="M270.6,73.4c0.8,0,1.4,0.7,1.3,1.5L267.6,97c-0.3,1.6-0.7,3.7-0.7,5.7c0,2.6,1.5,4.3,4.9,4.3
			c3.4,0,7.4-1.5,10.3-4.2l5.5-27.9c0.2-0.9,1-1.5,1.9-1.5h6.3c0.8,0,1.4,0.7,1.3,1.5l-5.7,29.1c-0.7,3.4-1.5,7.2-2.2,10.2
			c-3.3,13.7-9.5,19.7-22,19.7c-2.7,0-5.5-0.3-7.9-1c-0.9-0.2-1.4-1.1-1.2-2l1.1-4.4c0.2-0.8,1-1.3,1.8-1.1c1.8,0.4,3.8,0.7,5.7,0.7
			c7.4,0,11.7-3.1,13.2-11.6l0.6-3.2c-3.2,2.8-8,4.6-12.5,4.6c-7.3,0-11.2-3.6-11.2-9.4c0-3.5,0.7-7.3,1.5-11.2l3.9-20.4
			c0.2-0.9,1-1.5,1.9-1.5H270.6z"/>
		<path class="st0" d="M327.7,80.4c-0.2,0.8-1.1,1.2-1.9,0.9c-2.4-0.9-5.1-1.6-7.6-1.6c-4.3,0-8.4,1.3-8.4,5.6
			c0,2.3,1.3,3.5,5.4,4.8l3,0.9c6.1,1.9,8.7,4.7,8.7,10c0,9.3-6.5,15.6-18.3,15.6c-4.6,0-8.6-0.7-11.9-1.9c-0.8-0.3-1.2-1.2-1-2
			l1.4-4.8c0.2-0.8,1.1-1.2,1.9-0.9c3,1.2,6.4,2.1,9.4,2.1c5.3,0,9-1.8,9-6.1c0-2.5-1.7-3.5-5.6-4.7l-3.3-1
			c-5.8-1.9-8.4-5.4-8.4-10.9c0-9.4,7.9-14.5,18.3-14.5c3.1,0,6.7,0.7,9.7,1.7c0.8,0.3,1.2,1.2,1,2L327.7,80.4z"/>
		<path class="st0" d="M364.7,81.3c-0.2,0.8-1.1,1.1-1.8,0.8c-2.3-1-4.9-1.6-7.8-1.6c-9.2,0-14.7,7.9-14.7,17.9c0.1,6,2.3,10,9,10
			c3,0.1,6.1-0.5,8.9-1.5c0.7-0.2,1.4,0.2,1.4,1l-0.6,5c-0.1,1-0.8,1.8-1.7,2.1c-3.1,1.1-6.6,1.7-10.4,1.7c-11.3,0-16.5-6.4-16.5-17
			c0-15,8.5-27.8,24.7-27.8c3.9,0,7.3,0.7,10,1.9c0.8,0.4,1.3,1.3,1,2.2L364.7,81.3z"/>
		<path class="st0" d="M371.6,76.5c0-0.9,0.6-1.8,1.5-2.1c4.1-1.4,9.4-2.4,13.9-2.4c8.7,0,14.3,2.6,14.3,10.1c0,1.6-0.3,3.5-0.7,5.5
			l-3.4,17.7c-0.5,2.7-0.3,4.2,0.9,4.7c0.7,0.4,1.3,1,1.1,1.8l-0.5,2.5c-0.2,1-0.9,1.8-1.9,2c-1,0.2-2.1,0.3-3.1,0.3
			c-3.9,0-5.8-1.8-6.1-5h-0.3c-2.9,3.1-7.2,5-12.3,5c-7.4,0-12.1-3.7-12.1-11.2c0-10,8-17.2,25.8-17.2h2.3c0.3-1.3,0.4-2.6,0.4-3.5
			c0-3.5-1.7-5-7.2-5c-3.5,0-7.6,0.8-11.5,2.2c-0.7,0.2-1.4-0.3-1.4-1L371.6,76.5z M388.1,95.1c-8.7,0-15.1,2.9-15.1,9.2
			c0,2.8,1.6,4.5,5.4,4.5c3.5,0,7.3-1.8,9.6-4.2l1.9-9.4H388.1z"/>
		<path class="st0" d="M417.5,73.4c0.8,0,1.5,0.7,1.4,1.6l-0.3,2.9h0.1c4.2-3.5,9.7-5.9,15-5.9c6.6,0,10.9,3.8,10.9,9.9
			c0,2.9-0.4,5.4-0.9,8.1l-4.6,23.8c-0.2,0.9-1,1.5-1.8,1.5H431c-0.8,0-1.4-0.7-1.3-1.5l4.2-21.8c0.4-2.2,0.8-4.6,0.8-6.1
			c0-3.2-1.7-4.8-5.4-4.8c-4,0-8.5,2.1-11.7,5.1l-5.2,27.6c-0.2,0.9-0.9,1.5-1.8,1.5h-6.3c-0.8,0-1.4-0.7-1.3-1.5l7.5-38.9
			c0.2-0.9,0.9-1.5,1.8-1.5H417.5z"/>
		<path class="st0" d="M460.4,73.4c0.8,0,1.5,0.7,1.4,1.6l-0.3,2.9h0.1c4.2-3.5,9.7-5.9,15-5.9c6.6,0,10.9,3.8,10.9,9.9
			c0,2.9-0.4,5.4-1,8.1l-4.6,23.8c-0.2,0.9-0.9,1.5-1.8,1.5h-6.3c-0.8,0-1.4-0.7-1.3-1.5l4.2-21.8c0.4-2.2,0.8-4.6,0.8-6.1
			c0-3.2-1.7-4.8-5.4-4.8c-4,0-8.5,2.1-11.7,5.1l-5.2,27.6c-0.2,0.9-1,1.5-1.8,1.5H447c-0.8,0-1.4-0.7-1.3-1.5l7.5-38.9
			c0.2-0.9,0.9-1.5,1.8-1.5H460.4z"/>
		<path class="st0" d="M500.9,98.4c-0.2,1.3-0.1,2.8,0.1,3.8c0.8,4.2,4.1,6.3,9.6,6.3c3.9,0,7.9-0.6,11.5-1.7c0.7-0.2,1.4,0.3,1.3,1
			l-0.6,4.8c-0.1,0.9-0.7,1.8-1.6,2.1c-3.9,1.4-8.4,2.1-12.5,2.1c-11.9,0-17.7-5.1-17.7-16.7c0-10,3.3-19.3,10.4-24.2
			c3.5-2.5,8-3.8,13.5-3.8c10,0,14.5,5.7,14.5,14.2c0,2.9-0.3,6.8-1.2,10.8c-0.2,0.9-1,1.4-1.9,1.4H500.9z M519,91.6
			c0.4-1.3,0.7-3.2,0.7-5c0-3.9-1.7-6.7-6.1-6.7c-6.4,0-10.3,4.7-11.7,11.7H519z"/>
		<path class="st0" d="M544.8,73.4c0.8,0,1.5,0.7,1.4,1.6l-0.2,3.4h0.2c3.2-3.9,7.9-5.9,12.3-5.9c0.5,0,0.9,0,1.3,0
			c0.8,0.1,1.3,0.9,1,1.7l-1.8,5.6c-0.3,0.9-1.1,1.5-2.1,1.5c-4.4,0.2-8.6,1.4-11.5,3.4l-5.6,29.1c-0.2,0.9-0.9,1.5-1.8,1.5h-6.3
			c-0.8,0-1.4-0.7-1.3-1.5l7.5-38.9c0.2-0.9,0.9-1.5,1.8-1.5H544.8z"/>
	</g>
	<g>
		<path class="st0" d="M115.1,81.8c11.7-11.7,27.1-17.5,42.4-17.5c0,0,0.1,0,0.1,0c1.4,3.2,2.2,6.7,2.4,10.3c-0.8,0-1.6-0.1-2.5-0.1
			c0,0,0,0-0.1,0c0,0,0,0-0.1,0c-13.3,0-25.7,5.2-35.1,14.5c-9.4,9.4-14.5,21.8-14.5,35.1c0,0.1,0,0.1,0,0.2H97.5
			C97.5,109,103.3,93.6,115.1,81.8z M175.9,101.5c0.1-0.8,0.1-1.6,0.1-2.4c0-3.9-0.9-7.6-2.5-11c-5.1-2.2-10.6-3.4-16-3.4
			c-10.1,0-20.3,3.8-28,11.6c-7.8,7.8-11.6,17.9-11.6,28.1h10.3c0-7.5,2.8-15.1,8.5-20.8c5.6-5.6,12.9-8.4,20.2-8.5v0
			c0.2,0,0.3,0,0.5,0c0.2,0,0.3,0,0.5,0v0C164.4,95.1,170.7,97.2,175.9,101.5z M73,89.4C73,89.4,73,89.4,73,89.4
			C73,89.4,73,89.4,73,89.4z M171.5,110.2c-3.7-3.7-8.6-5.7-13.5-5.8v0c-0.2,0-0.3,0-0.5,0c-0.2,0-0.3,0-0.5,0v0
			c-4.9,0.1-9.8,2-13.5,5.8c-3.9,3.9-5.8,9-5.8,14.1h9.9c0.6-3.3,1.2-5,3.1-6.9c1.9-1.9,4.3-2.7,6.8-2.7c2.4,0,4.9,0.9,6.8,2.7
			c0.6,0.6,1.2,1.4,1.6,2.1c2.9-2.1,5.2-4.8,7-8C172.4,111.1,172,110.7,171.5,110.2z M87.8,124.2c0-36.4,27.9-66.2,63.4-69.3
			c-5.5-5.6-13.2-9.1-21.7-9.1c-15.6,0-28.5,11.8-30.3,26.9C96.6,71,93.5,70,90.1,70c-9.5,0-18.2,9.5-17.1,19.4
			c-2.6-1.3-5.5-2.1-8.6-2.1c-10.2,0-18.5,8.3-18.5,18.5c0,9.3,6.9,17,15.8,18.3c0.7,0.1,1.4,0.2,2.2,0.2h23.9
			C87.8,124.3,87.8,124.2,87.8,124.2z M73,89.2c0,0.1,0,0.1,0,0.2C73,89.3,73,89.2,73,89.2z M73,89.2C73,89.1,73,89.1,73,89.2
			L73,89.2z"/>
	</g>
</g>
</svg>
