<?xml version="1.0" encoding="UTF-8" standalone="no"?>
<!-- Generator: Adobe Illustrator 19.1.0, SVG Export Plug-In . SVG Version: 6.00 Build 0)  -->
<svg id="Layer_1" xmlns:rdf="http://www.w3.org/1999/02/22-rdf-syntax-ns#" xmlns="http://www.w3.org/2000/svg" xml:space="preserve" viewBox="0 0 486.21509 83.299998" height="100%" width="100%" version="1.1" y="0px" x="0px" xmlns:cc="http://creativecommons.org/ns#" xmlns:dc="http://purl.org/dc/elements/1.1/"><metadata id="metadata9"><rdf:RDF><cc:Work rdf:about=""><dc:format>image/svg+xml</dc:format><dc:type rdf:resource="http://purl.org/dc/dcmitype/StillImage"/><dc:title/></cc:Work></rdf:RDF></metadata><path id="path3" fill="#FFF" d="m236.1,26h-6c-0.9,0-1.6,0.6-1.8,1.5l-5.2,26.4c-2.8,2.7-6.4,4.1-9.6,4.1-3.4,0-4.7-1.6-4.7-4.1,0-1.8,0.3-3.8,0.6-5.4l4-20.8c0.1-0.8-0.4-1.5-1.3-1.5h0.1v-0.1h-6c-0.9,0-1.6,0.6-1.8,1.5l-3.7,19.2c-0.7,3.7-1.3,7.3-1.3,10.6,0,5.5,3.7,8.9,10.6,8.9,4.2,0,8.8-1.8,11.8-4.4l-0.5,3c-1.5,8-5.6,10.9-12.5,10.9-1.8,0-3.8-0.2-5.5-0.6-0.8-0.2-1.5,0.3-1.6,1.1l-1,4.2c-0.3,0.9,0.3,1.7,1.1,1.9,2.3,0.5,4.9,0.9,7.5,0.9,11.8,0,17.7-5.7,20.8-18.6,0.6-2.8,1.3-6.4,2-9.6l5.3-27.6c0-0.9-0.5-1.5-1.3-1.5zm-49.2,17.5c5.3-4.4,10.1-10,14.5-16.1,0.3-0.6,0-1.3-0.6-1.3h-6.5c-0.9,0-1.8,0.4-2.3,1.1-4.4,5.6-9.4,10.5-15,14.6l6-31.1c0.1-0.8-0.4-1.5-1.3-1.5h-5.9c-0.9,0-1.6,0.6-1.8,1.5l-10.4,53.5c-0.1,0.8,0.4,1.5,1.3,1.5h6c0.9,0,1.6-0.6,1.8-1.5l2.4-12.5c1.4-0.8,3-1.8,4.7-2.9l5.6,15.5c0.3,0.8,1.1,1.3,2,1.3h6.9c0.7,0,1-0.7,0.9-1.3l-8.3-20.8zm-24.3-17.2c-2.8-1-6.3-1.6-9.1-1.6-9.8,0-17.3,4.7-17.3,13.7,0,5.3,2.4,8.6,7.9,10.4l3.1,1c3.7,1.2,5.4,2.2,5.4,4.4,0,4-3.4,5.6-8.4,5.6-2.8,0-5.9-0.8-8.8-1.9-0.8-0.3-1.6,0-1.8,0.8l-1.3,4.6c-0.3,0.8,0.1,1.7,0.9,1.9,3.1,1.1,6.9,1.8,11.3,1.8,11.1,0,17.3-5.9,17.3-14.7,0-5-2.5-7.7-8.2-9.5l-2.9-0.9c-3.8-1.2-5.1-2.3-5.1-4.6,0-4.1,3.8-5.4,7.9-5.4,2.4,0,4.9,0.6,7.2,1.5,0.8,0.3,1.6-0.1,1.8-0.9l1-4.4c0.2-0.6-0.1-1.6-0.9-1.8zm-43.9,34.5c-3.6-3.6-8.2-5.4-12.8-5.5h-0.9c-4.7,0.1-9.2,1.9-12.8,5.5-3.7,3.7-5.5,8.6-5.5,13.4h9.3c0.5-3.1,1.3-4.7,3-6.5s4.1-2.6,6.3-2.6c2.3,0,4.7,0.8,6.3,2.6,0.5,0.5,1.1,1.3,1.5,2,2.7-2,5-4.6,6.5-7.5,0-0.6-0.4-0.9-0.9-1.4zm-19.1-52.2c-5.2-5.4-12.5-8.6-20.5-8.6-14.8,0-26.9,11.1-28.6,25.3-2.6-1.6-5.5-2.4-8.7-2.4-9,0-17.1,9-16.1,18.2-2.4-1.3-5.2-2-8.2-2-9.7,0.1-17.5,7.8-17.5,17.5,0,8.8,6.5,16.1,14.9,17.4,0.6,0.1,1.3,0.2,2,0.2h22.6c0.2-0.1,0.2-0.3,0.2-0.3,0-34.2,26.4-62.4,59.9-65.3zm5.8,18.4h0.3c0.8,0,1.5,0.1,2.3,0.1-0.1-3.4-0.9-6.8-2.3-9.7h-0.1c-14.5,0-29,5.6-40.1,16.6-11.2,11.1-16.6,25.7-16.6,40.1h9.6v-0.1c0-12.7,4.7-24.2,13.7-33.2,8.9-8.8,20.7-13.8,33.2-13.8zm0.1,9.6c-9.6,0-19.2,3.6-26.5,10.9s-10.9,16.9-10.9,26.5h9.6c0-7.2,2.7-14.2,8-19.7,5.2-5.2,12.1-7.9,19-8h0.9c6.3,0.1,12.3,2.2,17.1,6.2,0.1-0.8,0.1-1.6,0.1-2.3,0-3.7-0.9-7.2-2.3-10.4-4.6-2.1-9.9-3.2-15-3.2zm160.9-10.3c-2.8-1-6.1-1.6-9.1-1.6-9.8,0-17.3,4.7-17.3,13.7,0,5.3,2.4,8.6,7.9,10.4l3,1c3.7,1.2,5.4,2.2,5.4,4.4,0,4-3.4,5.6-8.4,5.6-2.8,0-5.9-0.8-8.8-1.9-0.8-0.3-1.6,0-1.8,0.8l-1.3,4.6c-0.3,0.8,0.1,1.7,0.9,1.9,3.1,1.1,6.9,1.8,11.3,1.8,11.1,0,17.3-5.9,17.3-14.7,0-5-2.5-7.7-8.2-9.5l-2.9-0.9c-3.8-1.2-5.1-2.3-5.1-4.6,0-4.1,3.8-5.4,7.9-5.4,2.4,0,4.9,0.6,7.2,1.5,0.8,0.3,1.6-0.1,1.8-0.9l1.1-4.4c0.2-0.6-0.1-1.6-0.9-1.8zm25.6,6.4c2.8,0,5.2,0.6,7.3,1.6,0.7,0.3,1.5-0.2,1.6-0.8l1.8-5c0.3-0.9-0.2-1.8-1-2.2-2.6-1.1-5.8-1.8-9.5-1.8-15.4,0-23.4,12.1-23.4,26.2,0,10,5,16,15.6,16,3.5,0,6.8-0.6,9.7-1.6,0.8-0.3,1.5-1.1,1.6-2l0.5-4.7c0-0.7-0.7-1-1.3-0.9-2.6,0.9-5.6,1.6-8.4,1.5-6.3-0.2-8.3-3.8-8.4-9.5,0-9.3,5.3-16.8,13.9-16.8zm114.8-7.9c-5,0-10.1,2.2-14.1,5.6h-0.2l0.2-2.8c0.1-0.8-0.5-1.5-1.3-1.5l-4.9-0.1c-0.9,0-1.6,0.6-1.8,1.5l-7,36.7c-0.1,0.8,0.4,1.5,1.3,1.5h6c0.9,0,1.6-0.6,1.8-1.5l4.9-26c3-2.8,7.3-4.7,11-4.7,3.4,0,5.1,1.6,5.1,4.6,0,1.3-0.3,3.7-0.8,5.6l-4.1,20.6c-0.1,0.8,0.4,1.5,1.3,1.5h6c0.9,0,1.6-0.6,1.8-1.5l4.4-22.5c0.4-2.6,0.9-4.9,0.9-7.7-0.1-5.8-4.3-9.3-10.5-9.3zm78.3,0.4h-1.3c-4.1,0-8.5,1.8-11.5,5.6h-0.1l0.2-3.2c0.1-0.8-0.5-1.5-1.3-1.5v-0.1h0.1v-0.1h-4.9c-0.9,0-1.6,0.6-1.8,1.5l-7,36.7c-0.1,0.8,0.4,1.5,1.3,1.5h6c0.9,0,1.6-0.6,1.8-1.5l5.2-27.5c2.7-1.9,6.7-3,10.8-3.2,0.9-0.1,1.8-0.6,2-1.5l1.6-5.2c0.1-0.6-0.3-1.5-1.1-1.5zm-42.3-0.5c-5.3,0-9.5,1.3-12.8,3.6-6.6,4.7-9.7,13.5-9.7,22.9,0,11.1,5.6,15.8,16.8,15.8,3.9,0,8.1-0.6,11.8-1.9,0.9-0.3,1.5-1.1,1.6-2l0.5-4.6c0.1-0.6-0.6-1.1-1.3-1-3.4,1.1-7.1,1.6-10.8,1.6-5.3,0-8.2-2-9-6-0.3-1-0.3-2.3-0.1-3.6h0.1v-0.1h23.8c0.9,0,1.6-0.5,1.8-1.3,0.8-3.6,1.1-7.3,1.1-10.1-0.2-7.9-4.4-13.3-13.8-13.3zm4,18.5h-0.1v-0.1h-16.1c1.4-6.6,5-11,11-11,4.2,0,5.8,2.7,5.8,6.3,0,1.8-0.3,3.5-0.6,4.8zm-80.5-18.4c-5,0-10.1,2.2-14.1,5.6h-0.1l0.2-2.8c0.1-0.8-0.5-1.5-1.3-1.5l-5.3-0.1c-0.9,0-1.6,0.6-1.8,1.5l-7,36.7c-0.1,0.8,0.4,1.5,1.3,1.5h6c0.9,0,1.6-0.6,1.8-1.5l5-26c3-2.8,7.3-4.7,11-4.7,3.4,0,5.1,1.6,5.1,4.6,0,1.3-0.3,3.7-0.8,5.6l-4.1,20.6c-0.1,0.8,0.4,1.5,1.3,1.5h6c0.9,0,1.6-0.6,1.8-1.5l4.4-22.5c0.4-2.6,0.9-4.9,0.9-7.7,0-5.8-4-9.3-10.3-9.3zm-44.2-0.1c-4.2,0-9.2,0.9-13.2,2.3-0.9,0.3-1.5,1.1-1.5,2l0.3,4.1c0,0.6,0.7,1.1,1.3,1,3.7-1.1,7.7-2,10.9-2,5.1,0,6.8,1.5,6.8,4.7,0,0.9-0.3,2.1-0.4,3.4h-2.3c-16.8,0-24.4,6.8-24.4,16.3,0,7,4.6,10.6,11.5,10.6,4.7,0,8.9-1.8,11.5-4.7h0.2c0.2,3,2,4.7,5.6,4.7,0.9,0,2-0.2,2.9-0.3,0.9-0.3,1.6-1,1.8-1.9l0.4-2.3c0.2-0.7-0.4-1.3-1.1-1.6-1-0.5-1.3-1.8-0.9-4.4l3.2-16.8c0.4-2,0.6-3.7,0.6-5.2,0.2-7.5-5.1-9.9-13.2-9.9zm0.8,30.6c-2.2,2.3-5.6,4.1-9,4.1-3.5,0-5.1-1.6-5.1-4.2,0-6,6.1-8.7,14.3-8.7h0.1v-0.1h1.5l-1.8,8.9z"/></svg>
