<?xml version="1.0" encoding="UTF-8" standalone="no"?>
<svg width="300" height="70" viewBox="0 0 800.000000 200.000000" version="1.1" xmlns="http://www.w3.org/2000/svg" xmlns:xlink="http://www.w3.org/1999/xlink" xmlns:sketch="http://www.bohemiancoding.com/sketch/ns">
<path d="M268.2 10.6c-7.6 2-10.4 3.7-15.5 9.4-6.7 7.4-7.9 11.8-8.5 29.7l-.4 15.3h-11.9l.3 7.7.3 7.8 5.7.3 5.8.3.2 53.2.3 53.2 11.3.3 11.2.3V81h54.9l.3 45.7.3 45.8 2.5 4.4c5.1 8.8 17 13.8 30.5 12.8 6.7-.5 16-3 17.9-4.7.5-.5.3-3.7-.4-7.5-1-5.5-1.5-6.5-2.9-5.9-.9.4-4.8.9-8.7 1.2-8.4.5-12.4-1.1-15.1-6.1-1.6-2.9-1.8-7.3-2.1-44.4l-.3-41.2 12.3-.3 12.3-.3 2.7-6.5c1.4-3.6 2.7-7.1 2.7-7.8.1-.9-3.5-1.2-14.6-1.2h-14.6l.7-15c.3-8.2.9-16.3 1.2-18 .6-2.7.4-3-1.7-3-1.3.1-6.7 1.1-11.9 2.3l-9.5 2.3-.7 4.5c-.3 2.4-.7 9.5-.7 15.6L322 65h-55.2l.4-13.8c.2-11.5.6-14.2 2.3-17.1 4.6-7.8 12.4-9.8 23.2-6.2 3.4 1.2 6.5 2.1 6.8 2.1.6 0 7.8-14.1 7.3-14.5-1.8-1.5-8.2-3.9-13.6-5.1-8.4-1.7-18.1-1.7-25 .2zM577.2 11.7c-4.3 2.1-7.7 6.6-9.1 12-3.3 12.3 8.9 24.5 21.2 21.2 9.4-2.5 14.2-9.2 13.5-18.9-.7-9.9-7.4-16-17.5-16-2.6 0-6.3.8-8.1 1.7zM49.5 60.1c-20.2 2.5-33.6 14.2-36.4 31.8-1.8 11.1.9 20.9 7.9 28.5 5.8 6.3 12.6 9.2 29.7 12.6 17.3 3.6 22.5 6.1 25.4 12.3 3.8 8.4 1.3 18.4-5.8 23.1-10.4 6.9-27.4 5.3-47.9-4.4-3.6-1.8-6.7-3-6.9-2.8-.1.1-1.9 3.6-3.9 7.6-2.8 5.6-3.4 7.7-2.6 8.7 1.6 1.9 14.6 7.2 23.8 9.7 11.6 3.1 30.3 3.1 39.7 0 18.1-6 28.3-18.3 29.3-35.3.7-11.9-1.5-18-9.2-25.5-7.2-7.1-11.7-9.1-31-13.5-7.1-1.7-14.6-3.9-16.8-5-10.4-5.3-10.5-19.9-.1-27.2 7.4-5.3 21.1-4.7 36.1 1.5 4 1.7 7.5 2.9 7.6 2.7.5-.6 7.6-14.8 7.6-15.2 0-1-12.8-6-19.7-7.7-9.5-2.3-18.8-2.9-26.8-1.9zM159 62c-5.9 1.1-12.4 3.5-17.5 6.4-5 3-13.3 11.6-16.7 17.6-9 15.4-11.7 42.9-6.3 63.4 7.4 28.1 30.7 43.9 58.8 39.8 21.3-3.1 36.6-17.7 42.8-40.9 3-11.2 3.1-31.4.1-43.5-4.3-17.5-14.7-32-27.2-38.1-10-4.9-22.9-6.6-34-4.7zm18.3 18.1c7.9 2.2 14.4 10.6 17.3 22.4 2.2 9 2.5 36.2.5 45.2-2 9.3-6.8 17.2-12.6 20.8-4.4 2.7-5.6 3-13.4 3-9.9 0-14.7-1.9-19.3-7.6-6.3-7.8-9.4-24.3-8.5-45.9.9-23.1 5.8-33.4 17.6-37.6 4.4-1.6 13.3-1.8 18.4-.3zM583.5 63.1c-5.5 1-10.6 2.1-11.3 2.4-1 .3-1.2 13.1-1 61.2l.3 60.8 13.8.3 13.7.3V61l-2.7.1c-1.6.1-7.3 1-12.8 2zM634 63.7c-5.2 1.5-9.7 2.8-9.9 2.9-.2.2.5 3.4 1.5 7.1 1.7 6.2 1.9 11.8 2.2 60.5l.3 53.8H651v-41.6c0-29.1.4-42.9 1.2-45.6 1.5-5.1 7.7-12.1 13.1-14.7 3.1-1.5 6.3-2.1 10.9-2.1h6.6l3.2-8.8c1.7-4.8 3.2-9.8 3.3-11.2.2-2.5.1-2.5-7.8-2.4-10.5.1-15.8 2.6-24.7 11.5l-6.7 6.8-.7-3.7c-1.2-7.4-3.7-15.2-4.8-15.1-.6 0-5.4 1.2-10.6 2.6zM728.8 62.9c-8.4 2.7-13.7 6.2-20.6 13.6-11.1 11.8-15 22.5-15.9 43.5-1.1 26.6 5.9 46 21.1 58.2 16.1 12.9 42.4 14.4 63.4 3.7 4.2-2.1 8.9-4.9 10.4-6.2l2.8-2.3-4.5-6.7-4.6-6.7-3.2 2.4c-4.3 3.2-12.4 7.2-16.6 8.1-1.8.4-6.9.7-11.2.7-19.1-.2-30.7-11.6-31.7-31.5l-.4-8.7h74.5l-.6-14.3c-.6-15.1-2.1-22.8-6.3-31.4-5.2-10.9-16.1-19.7-27.9-22.8-8-2-21.5-1.9-28.7.4zm21.3 16.3c9.6 2.8 16.6 13.7 17.6 27.4l.6 7.4h-50.6l.7-7.6c1.7-20.5 15.3-32.2 31.7-27.2zM398.3 63.9c-5 .9-9.4 1.8-9.7 2.1-.2.3 7.1 27.7 16.2 61l16.8 60.5h21.9l8.2-30c4.5-16.5 10.1-37.8 12.5-47.2 2.3-9.5 4.5-16.7 4.9-16 .4.6 6.1 21.7 12.8 46.7 6.8 25 12.5 45.8 12.7 46.2.3.4 5.3.8 11.2.8h10.8l16.8-60.3c9.3-33.1 17.1-60.8 17.3-61.5.4-.9-2.3-1.2-11.6-1.2-11.7 0-12.1.1-12.6 2.2-4.3 18-15.9 69.9-17.5 78.3-1.1 6-2.4 11.7-2.7 12.5-.3.8-2-4.6-3.7-12-1.8-7.4-7.3-28.7-12.1-47.3l-8.9-33.8-11.9.3-12 .3-10.2 37.2c-5.7 20.4-11.1 41.7-12.1 47.2-1 5.6-1.9 10-2 9.8-.2-.1-1.6-6.6-3.3-14.2-3-14.3-16.4-73-18.2-79.8-1.1-4.2-.5-4.2-13.6-1.8z" style="fill: #FFF;"/>
</svg>
