<svg width="200" height="34" viewBox="0 0 200 34" version="1.1" xmlns="http://www.w3.org/2000/svg" xmlns:xlink="http://www.w3.org/1999/xlink" xmlns:figma="http://www.figma.com/figma/ns">
<title>sophos-logo</title>
<desc>Created using Figma</desc>
<g id="Canvas" transform="translate(-250 -216)" figma:type="canvas">
<g id="sophos-logo" style="mix-blend-mode:normal;" figma:type="frame">
<g id="Group" style="mix-blend-mode:normal;" figma:type="frame">
<g id="Vector" style="mix-blend-mode:normal;" figma:type="vector">
<use xlink:href="#path0_fill" transform="translate(283.669 216.388)" fill="#0068B1" style="mix-blend-mode:normal;"/>
</g>
<g id="Vector" style="mix-blend-mode:normal;" figma:type="vector">
<use xlink:href="#path1_fill" transform="translate(319.96 216.605)" fill="#0068B1" style="mix-blend-mode:normal;"/>
</g>
<g id="Vector" style="mix-blend-mode:normal;" figma:type="vector">
<use xlink:href="#path2_fill" transform="translate(353.024 216.605)" fill="#0068B1" style="mix-blend-mode:normal;"/>
</g>
<g id="Vector" style="mix-blend-mode:normal;" figma:type="vector">
<use xlink:href="#path3_fill" transform="translate(384.073 216.388)" fill="#0068B1" style="mix-blend-mode:normal;"/>
</g>
<g id="Vector" style="mix-blend-mode:normal;" figma:type="vector">
<use xlink:href="#path4_fill" transform="translate(250 216)" fill="#0068B1" style="mix-blend-mode:normal;"/>
</g>
<g id="Vector" style="mix-blend-mode:normal;" figma:type="vector">
<use xlink:href="#path5_fill" transform="translate(418.75 216)" fill="#0068B1" style="mix-blend-mode:normal;"/>
</g>
</g>
</g>
</g>
<defs>
<path id="path0_fill" d="M 29.0323 4.85391C 31.0484 7.47487 32.2581 11.9104 32.2581 16.9507C 32.2581 22.5958 30.4436 27.4346 27.2177 30.0555C 24.7984 32.0716 20.9677 33.0797 16.5323 33.0797C 10.2823 33.0797 5.24194 31.0636 2.82258 27.4346C 1.00807 24.8136 1.53818e-06 21.1846 1.53818e-06 16.7491C 1.53818e-06 10.4991 1.81452 5.66036 5.04032 3.241C 7.66129 1.22487 11.6936 0.0151974 16.129 0.0151974C 21.9758 -0.186415 26.6129 1.6281 29.0323 4.85391ZM 9.07258 8.68455C 8.06452 10.2975 7.45968 12.9184 7.45968 16.3458C 7.45968 24.0071 10.0806 27.4346 15.9274 27.4346C 21.7742 27.4346 24.3952 24.0071 24.3952 16.3458C 24.3952 8.68455 21.7742 5.25713 15.9274 5.25713C 12.9032 5.25713 10.4839 6.46681 9.07258 8.68455Z"/>
<path id="path1_fill" d="M 7.05645 32.6613L 1.53818e-06 32.6613L 1.53818e-06 2.40341e-08L 16.3306 2.40341e-08C 21.9758 2.40341e-08 23.9919 0.604839 26.2097 3.02419C 28.0242 5.04032 29.2339 7.8629 29.2339 10.6855C 29.2339 14.1129 27.8226 17.3387 25.6048 19.1532C 23.7903 20.7661 21.9758 21.1694 18.1452 21.1694L 7.05645 21.1694L 7.05645 32.6613ZM 16.5323 15.5242C 18.3468 15.5242 19.5565 15.3226 20.1613 14.5161C 20.9677 13.7097 21.5726 12.2984 21.5726 10.4839C 21.5726 8.26613 20.7661 6.85484 19.1532 6.25C 18.75 6.04839 17.7419 5.84677 16.7339 5.84677L 7.05645 5.84677L 7.05645 15.5242L 16.5323 15.5242Z"/>
<path id="path2_fill" d="M 26.8145 32.6613L 19.7581 32.6613L 19.7581 19.1532L 7.05645 19.1532L 7.05645 32.6613L -3.07637e-06 32.6613L -3.07637e-06 2.40341e-08L 7.05645 2.40341e-08L 7.05645 13.5081L 19.7581 13.5081L 19.7581 2.40341e-08L 26.8145 2.40341e-08L 26.8145 32.6613Z"/>
<path id="path3_fill" d="M 29.0323 4.85391C 31.0484 7.47487 32.2581 11.9104 32.2581 16.9507C 32.2581 22.5958 30.4435 27.4346 27.2177 30.0555C 24.7984 32.0716 20.9677 33.0797 16.5323 33.0797C 10.2823 33.0797 5.24194 31.0636 2.82258 27.4346C 1.00807 24.8136 0 21.1846 0 16.7491C 0 10.4991 1.81452 5.66036 5.04032 3.241C 7.66129 1.22487 11.6935 0.0151974 16.129 0.0151974C 21.9758 -0.186415 26.6129 1.6281 29.0323 4.85391ZM 9.07258 8.68455C 8.06452 10.2975 7.45967 12.9184 7.45967 16.3458C 7.45967 24.0071 10.0806 27.4346 15.9274 27.4346C 21.7742 27.4346 24.3952 24.0071 24.3952 16.3458C 24.3952 8.68455 21.7742 5.25713 15.9274 5.25713C 12.9032 5.25713 10.4839 6.46681 9.07258 8.68455Z"/>
<path id="path4_fill" d="M 0.806452 27.4194L 17.9435 27.4194C 20.5645 27.4194 21.9758 27.2177 22.9839 26.6129C 23.9919 26.0081 24.5968 24.7984 24.5968 23.5887C 24.5968 21.9758 23.7903 20.7661 22.379 19.9597C 21.7742 19.5565 20.3629 19.3548 18.75 19.3548L 11.4919 19.3548C 7.45968 19.3548 4.83871 18.75 3.22581 17.1371C 1.20968 15.5242 0 12.7016 0 9.87903C 0 5.64516 2.41936 2.01613 5.84677 0.806452C 7.25807 0.201613 9.07258 0 12.9032 0L 30.2419 0L 30.2419 6.04839L 14.5161 6.04839C 11.4919 6.04839 10.0806 6.04839 9.07258 6.25C 7.66129 6.65323 6.85484 7.8629 6.85484 9.67742C 6.85484 11.0887 7.45968 12.2984 8.66936 12.9032C 9.67742 13.3065 11.4919 13.5081 13.9113 13.5081L 19.3548 13.5081C 24.1936 13.5081 26.8145 14.1129 28.8306 16.129C 30.2419 17.5403 31.25 20.5645 31.25 23.3871C 31.25 27.0161 29.6371 30.2419 27.0161 31.8548C 25.4032 32.8629 23.1855 33.2661 18.3468 33.2661L 0.806452 33.2661L 0.806452 27.4194Z"/>
<path id="path5_fill" d="M 0.604839 27.4194L 17.7419 27.4194C 20.3629 27.4194 21.7742 27.2177 22.7823 26.6129C 23.7903 26.0081 24.3952 24.7984 24.3952 23.5887C 24.3952 21.9758 23.5887 20.7661 22.1774 19.9597C 21.5726 19.5565 20.1613 19.3548 18.5484 19.3548L 11.4919 19.3548C 7.45968 19.3548 4.83872 18.75 3.22581 17.1371C 1.20968 15.3226 -6.15274e-06 12.7016 -6.15274e-06 9.87903C -6.15274e-06 5.64516 2.41935 2.01613 5.84677 0.806452C 7.25806 0.201613 9.07258 0 12.9032 0L 30.2419 0L 30.2419 6.04839L 14.5161 6.04839C 11.2903 6.04839 10.0806 6.04839 9.07258 6.25C 7.66129 6.65323 6.85484 7.8629 6.85484 9.67742C 6.85484 11.0887 7.45968 12.2984 8.66936 12.9032C 9.67742 13.3065 11.4919 13.5081 13.9113 13.5081L 19.3548 13.5081C 24.1936 13.5081 26.8145 14.1129 28.8306 16.129C 30.2419 17.5403 31.25 20.5645 31.25 23.3871C 31.25 27.0161 29.6371 30.2419 27.0161 31.8548C 25.4032 32.8629 23.1855 33.2661 18.3468 33.2661L 0.604839 33.2661L 0.604839 27.4194Z"/>
</defs>
</svg>
