<?xml version="1.0" encoding="UTF-8" standalone="no"?>
<!-- Created with Inkscape (http://www.inkscape.org/) -->
<svg id="svg2" xmlns:rdf="http://www.w3.org/1999/02/22-rdf-syntax-ns#" xmlns="http://www.w3.org/2000/svg" viewBox="0 0 220 55" version="1.1" xmlns:cc="http://creativecommons.org/ns#" xmlns:dc="http://purl.org/dc/elements/1.1/">
 <title id="title3166">Square, Inc. logo</title>
 <defs id="defs4"></defs>
 <metadata id="metadata7">
  <rdf:RDF>
   <cc:Work rdf:about="">
    <dc:format>image/svg+xml</dc:format>
    <dc:type rdf:resource="http://purl.org/dc/dcmitype/StillImage"/>
    <dc:title>Square, Inc. logo</dc:title>
    <dc:source>http://www.brandsoftheworld.com</dc:source>
    <dc:description>Converted from Adobe Illustrator to SVG</dc:description>
    <dc:creator>
     <cc:Agent>
      <dc:title>Square, Inc.</dc:title>
     </cc:Agent>
    </dc:creator>
    <dc:publisher>
     <cc:Agent>
      <dc:title>Square, Inc.</dc:title>
     </cc:Agent>
    </dc:publisher>
    <dc:date>2015-07-25</dc:date>
   </cc:Work>
  </rdf:RDF>
 </metadata>
 <g id="layer1" transform="translate(-623.84206,-727.74211)">
  <g id="g3156" fill-rule="nonzero" fill="#FFF" transform="matrix(0.62481102,0,0,0.62481102,275.95426,282.79555)">
   <path id="path3051" d="m629.34,713.57-56.762,0c-7.8038,0-14.192,6.3862-14.192,14.192v56.762c0,7.8025,6.3888,14.188,14.192,14.188h56.762c7.8038,0,14.192-6.385,14.192-14.188v-56.762c0-7.8062-6.3888-14.192-14.192-14.192m-1.29,65.154c0,2.48-2.0312,4.505-4.5138,4.505h-45.159c-2.4812,0-4.5125-2.025-4.5125-4.505v-45.158c0-2.4812,2.0312-4.5125,4.5125-4.5125h45.159c2.4825,0,4.5138,2.0312,4.5138,4.5125v45.158zm-15.478-13.552c0,1.4238-1.1612,2.5812-2.5775,2.5812h-18.06c-1.42,0-2.5775-1.1575-2.5775-2.5812v-18.059c0-1.4188,1.1575-2.5788,2.5775-2.5788h18.06c1.4162,0,2.5775,1.16,2.5775,2.5788v18.059z"/>
   <g id="g3148">
    <path id="path3055" d="m682.94,784.1c-5.0488,0-9.9012-1.945-13.32-5.36-3.0512-3.0438-4.7425-7-4.7425-11.138h5.1138c0,2.7712,1.1475,5.4438,3.24,7.5262,2.4638,2.4525,6.0062,3.865,9.7125,3.865h0.0425c7.135,0,12.931-4.99,12.931-11.122-0.004-4.6012-2.5488-8.2525-14.929-11.119-5.0388-1.1662-8.435-2.7262-10.699-4.9075-2.4062-2.3338-3.585-5.44-3.585-9.4938,0-8.0062,7.1775-14.524,16.001-14.524,4.23,0,8.215,1.455,11.229,4.0988,3.1075,2.7288,4.825,6.4112,4.825,10.366h-5.1138c0-5.1612-4.9038-9.355-10.94-9.355-5.9062,0-10.892,4.3125-10.892,9.4138,0,4.6638,1.6012,7.4038,10.331,9.425,9.3225,2.1538,18.864,5.7562,18.888,16.091,0,4.3988-1.9075,8.51-5.37,11.578-3.3925,3.005-7.8938,4.655-12.672,4.655h-0.05z"/>
    <path id="path3059" d="m743.15,798.64,0-22.381-0.14375,0c-3.3162,5.08-9.0312,7.6925-15.039,7.6925-11.575,0-20.76-8.6925-20.76-20.338,0-11.581,9.4012-20.195,20.76-20.195,6.0075,0,11.722,2.6138,15.039,7.7688h0.14375v-6.7812h4.945v54.234h-4.945zm-15.182-50.771c-9.1812,0-15.809,6.8462-15.809,15.956,0,9.0412,6.7725,15.678,15.809,15.678,8.7612,0,15.468-7.1362,15.468-15.752,0-8.6125-6.7062-15.881-15.468-15.881"/>
    <path id="path3063" d="m834.21,783.03,0-6.7762-0.14375,0c-3.3925,5.0775-9.0375,7.69-15.041,7.69-11.572,0-20.758-8.6825-20.758-20.331,0-11.58,9.3888-20.199,20.758-20.199,6.0762,0,11.724,2.5475,15.041,7.77h0.14375v-6.7762h4.9362v38.622h-4.9362zm-15.185-35.162c-9.1725,0-15.81,6.8462-15.81,15.958,0,9.0362,6.7775,15.678,15.81,15.678,8.7562,0,15.461-7.1375,15.461-15.752,0-8.6125-6.705-15.882-15.461-15.882"/>
    <path id="path3067" d="m853.96,760.43,0,22.599-4.9488,0,0-38.63,4.9488,0,0,5.5788,0.13125,0c2.125-4.9425,5.865-6.215,10.879-6.5675v5.2312c-6.7775,0.5625-11.01,4.8675-11.01,11.789"/>
    <path id="path3071" d="m907.21,765.52-35.162,0c0.355,7.625,7.4212,13.981,14.978,13.981,5.9288,0,11.721-3.3925,13.84-9.1112h5.2175c-2.8162,8.0462-10.441,13.552-18.99,13.552-11.154,0-20.121-9.105-20.121-20.194,0-11.011,8.9675-20.336,20.054-20.336,11.301,0,20.269,9.5362,20.269,20.696,0,0.4875-0.0838,0.9125-0.0838,1.4112m-20.118-17.656c-7.7012,0-13.841,5.6488-15.045,13.205h30.154c-1.2712-7.5562-7.34-13.205-15.109-13.205"/>
    <path id="path3075" d="m786.45,783.08,0-6.035-0.14,0c-2.2725,4.7588-7.3088,6.9588-12.419,6.9588-5.0388,0-10.145-1.7725-13.341-5.815-2.7625-3.4788-3.4-8.1625-3.4-12.486v-21.429h4.9638v21.354c0,8.0175,2.9062,13.91,11.778,13.91,3.26,0,5.815-0.8575,8.23-3.1275,3.4088-3.2562,4.0412-7.0962,4.0412-11.631v-20.505h4.97v38.806h-4.6825z"/>
   </g>
  </g>
 </g>
</svg>
