<svg width="200" height="90" viewBox="0 0 200 90" version="1.1" xmlns="http://www.w3.org/2000/svg" xmlns:xlink="http://www.w3.org/1999/xlink" xmlns:figma="http://www.figma.com/figma/ns">
<title>studio-gobo-logo</title>
<desc>Created using Figma</desc>
<g id="Canvas" figma:type="canvas">
<g id="studio-gobo-logo" style="mix-blend-mode:normal;" figma:type="frame">
<g id="Group" style="mix-blend-mode:normal;" figma:type="frame">
<g id="Group" style="mix-blend-mode:normal;" figma:type="frame">
<g id="Group" style="mix-blend-mode:normal;" figma:type="frame">
<g id="Vector" style="mix-blend-mode:normal;" figma:type="vector">
<use xlink:href="#path0_fill" transform="translate(0 37.4474)" fill="#EF4136" style="mix-blend-mode:normal;"/>
</g>
</g>
<g id="Group" style="mix-blend-mode:normal;" figma:type="frame">
<g id="Vector" style="mix-blend-mode:normal;" figma:type="vector">
<use xlink:href="#path1_fill" transform="translate(18.2151 37.8588)" fill="#EF4136" style="mix-blend-mode:normal;"/>
</g>
</g>
<g id="Group" style="mix-blend-mode:normal;" figma:type="frame">
<g id="Vector" style="mix-blend-mode:normal;" figma:type="vector">
<use xlink:href="#path2_fill" transform="translate(36.0759 37.8359)" fill="#EF4136" style="mix-blend-mode:normal;"/>
</g>
</g>
<g id="Group" style="mix-blend-mode:normal;" figma:type="frame">
<g id="Vector" style="mix-blend-mode:normal;" figma:type="vector">
<use xlink:href="#path3_fill" transform="translate(57.0563 37.7902)" fill="#EF4136" style="mix-blend-mode:normal;"/>
</g>
</g>
<g id="Group" style="mix-blend-mode:normal;" figma:type="frame">
<g id="Vector" style="mix-blend-mode:normal;" figma:type="vector">
<use xlink:href="#path4_fill" transform="translate(77.8882 37.7559)" fill="#EF4136" style="mix-blend-mode:normal;"/>
</g>
</g>
<g id="Group" style="mix-blend-mode:normal;" figma:type="frame">
<g id="Vector" style="mix-blend-mode:normal;" figma:type="vector">
<use xlink:href="#path5_fill" transform="translate(89.3269 37.276)" fill="#EF4136" style="mix-blend-mode:normal;"/>
</g>
</g>
</g>
<g id="Group" style="mix-blend-mode:normal;" figma:type="frame">
<g id="Group" style="mix-blend-mode:normal;" figma:type="frame">
<g id="Vector" style="mix-blend-mode:normal;" figma:type="vector">
<use xlink:href="#path6_fill" transform="translate(110.787 1.42109e-14)" fill="#EF4136" style="mix-blend-mode:normal;"/>
</g>
</g>
<g id="Group" style="mix-blend-mode:normal;" figma:type="frame">
<g id="Vector" style="mix-blend-mode:normal;" figma:type="vector">
<use xlink:href="#path7_fill" transform="translate(116.253 36.8875)" fill="#EF4136" style="mix-blend-mode:normal;"/>
</g>
</g>
<g id="Group" style="mix-blend-mode:normal;" figma:type="frame">
<g id="Vector" style="mix-blend-mode:normal;" figma:type="vector">
<use xlink:href="#path8_fill" transform="translate(159.78 36.7503)" fill="#EF4136" style="mix-blend-mode:normal;"/>
</g>
</g>
<g id="Group" style="mix-blend-mode:normal;" figma:type="frame">
<g id="Vector" style="mix-blend-mode:normal;" figma:type="vector">
<use xlink:href="#path9_fill" transform="translate(133.87 37.6105)" fill="#EF4136" style="mix-blend-mode:normal;"/>
</g>
</g>
<g id="Group" style="mix-blend-mode:normal;" figma:type="frame">
<g id="Vector" style="mix-blend-mode:normal;" figma:type="vector">
<use xlink:href="#path10_fill" transform="translate(177.317 37.4638)" fill="#EF4136" style="mix-blend-mode:normal;"/>
</g>
</g>
</g>
</g>
</g>
</g>
<defs>
<path id="path0_fill" d="M 9.39321 2.04548L 7.80482 3.32533C 7.38201 2.8911 7.00491 2.57113 6.6621 2.35402C 6.31928 2.1369 5.82791 2.03405 5.17655 2.03405C 4.46806 2.03405 3.8967 2.19404 3.46246 2.514C 3.02823 2.83396 2.81111 3.24534 2.81111 3.74814C 2.81111 4.18238 3.00537 4.57091 3.3939 4.9023C 3.78242 5.23369 4.43378 5.59936 5.35939 5.99932C 6.285 6.39927 7.00491 6.76494 7.51914 7.10776C 8.03337 7.45058 8.45618 7.82768 8.78757 8.23906C 9.11896 8.65044 9.37036 9.08468 9.53034 9.54177C 9.69032 9.99886 9.77031 10.4902 9.77031 10.993C 9.77031 12.1929 9.33608 13.2099 8.47903 14.0555C 7.61056 14.9012 6.55925 15.324 5.32511 15.324C 4.12524 15.324 3.06251 15.004 2.1369 14.3412C 1.21129 13.6899 0.5028 12.6957 1.70283e-10 11.3816L 1.96549 10.8216C 2.68541 12.4329 3.78243 13.2442 5.25654 13.2442C 5.97646 13.2442 6.55925 13.0271 7.0392 12.6043C 7.50771 12.1815 7.74769 11.633 7.74769 10.9816C 7.74769 10.5931 7.62199 10.2045 7.37059 9.80459C 7.11919 9.41607 6.81065 9.08468 6.44498 8.83328C 6.07931 8.58188 5.48509 8.28477 4.68518 7.9648C 3.87384 7.63341 3.25677 7.3363 2.82253 7.06205C 2.3883 6.7878 2.0112 6.46783 1.69124 6.0793C 1.37127 5.7022 1.14273 5.32511 0.994172 4.94801C 0.845618 4.57091 0.777054 4.17095 0.765627 3.73672C 0.765627 2.70826 1.17701 1.82836 1.99977 1.09702C 2.82253 0.365671 3.82813 1.39493e-06 5.00514 1.39493e-06C 5.7822 1.39493e-06 6.5821 0.17141 7.38201 0.5028C 8.18192 0.845618 8.85613 1.35985 9.39321 2.04548Z"/>
<path id="path1_fill" d="M 0 0.0228545L 8.78757 -1.39493e-06L 8.78757 1.96549L 5.35939 1.97692L 5.38224 14.3869L 3.43961 14.3869L 3.41675 1.97692L 0 1.98835L 0 0.0228545Z"/>
<path id="path2_fill" d="M -1.39493e-06 0.0342811L 1.96549 0.0342811L 1.98835 8.86756C 1.98835 10.1703 2.30831 11.1873 2.93681 11.8958C 3.56531 12.6043 4.45663 12.9699 5.61079 12.9585C 6.75351 12.9585 7.64484 12.6271 8.27334 11.9643C 8.91327 11.3016 9.2218 10.376 9.2218 9.17609L 9.19895 6.97465e-07L 11.1644 6.97465e-07L 11.1873 9.03897C 11.1873 10.7988 10.6959 12.2043 9.69032 13.2671C 8.68472 14.3184 7.34773 14.8554 5.67935 14.8554C 3.97669 14.8554 2.60542 14.3298 1.57696 13.2671C 0.548509 12.2043 0.0342818 10.6274 0.0228545 8.54759L -1.39493e-06 0.0342811Z"/>
<path id="path3_fill" d="M -6.97465e-07 0.0114259L 3.48532 1.39493e-06C 6.25072 1.39493e-06 8.29619 0.719919 9.64461 2.17118C 10.993 3.62244 11.6672 5.29082 11.6787 7.16489C 11.6787 9.05039 10.993 10.7188 9.59891 12.1815C 8.20478 13.6327 6.19358 14.3641 3.53102 14.3755L 0.0228552 14.3869L -6.97465e-07 0.0114259ZM 1.96549 1.91978L 1.98834 12.4329L 2.10262 12.4329C 3.56531 12.4329 4.66232 12.3643 5.39367 12.2272C 6.12501 12.09 6.83351 11.8044 7.48486 11.3587C 8.14764 10.913 8.6733 10.3188 9.06182 9.58748C 9.45035 8.85613 9.64461 8.04479 9.64461 7.16489C 9.64461 6.05645 9.32465 5.06228 8.70757 4.17095C 8.07907 3.27963 7.3363 2.67398 6.46783 2.36544C 5.59936 2.05691 4.43378 1.90835 2.95966 1.90835L 1.96549 1.91978Z"/>
<path id="path4_fill" d="M 1.39493e-06 -6.97465e-07L 1.94264 -6.97465e-07L 1.96549 14.3755L 0.0228573 14.3755L 1.39493e-06 -6.97465e-07Z"/>
<path id="path5_fill" d="M -1.39493e-06 7.56485C -1.39493e-06 5.48509 0.777056 3.71386 2.33116 2.22832C 3.8967 0.742774 5.77077 1.39493e-06 7.9648 1.39493e-06C 10.1131 1.39493e-06 11.9529 0.742774 13.507 2.22832C 15.0611 3.71386 15.8382 5.48509 15.8382 7.542C 15.8382 9.71318 15.084 11.553 13.5527 13.0499C 12.0215 14.5469 10.1474 15.3011 7.91909 15.3125C 5.72506 15.3125 3.85099 14.5698 2.30831 13.0614C 0.788481 11.5415 0.0114259 9.71318 -1.39493e-06 7.56485ZM 13.7699 7.62199C 13.7699 6.0336 13.1871 4.69661 12.0443 3.62244C 10.9016 2.53685 9.49606 1.99977 7.82768 1.99977C 6.23929 1.99977 4.87944 2.55971 3.74814 3.66815C 2.61684 4.7766 2.05691 6.10216 2.05691 7.64484C 2.05691 9.21038 2.6397 10.5474 3.80528 11.6215C 4.97086 12.7071 6.39927 13.2442 8.07908 13.2442C 9.63318 13.2442 10.9587 12.6843 12.09 11.5758C 13.2099 10.4674 13.7699 9.15324 13.7699 7.62199Z"/>
<path id="path6_fill" d="M 87.7271 51.4115C 83.1334 59.0107 72.0603 59.8334 66.3924 52.9656C 62.7014 57.5023 56.245 59.0678 50.8856 56.6795C 46.1662 54.5769 43.0579 49.7431 43.1151 44.578L 43.1036 44.578L 43.1265 44.3495C 43.1379 43.8467 43.1836 43.3553 43.2522 42.8639L 45.1377 20.5808C 48.5887 21.175 51.0227 24.2261 50.9199 27.2771C 50.8285 30.1111 50.7485 30.591 50.6228 32.8536C 55.9936 30.3054 62.5529 31.7795 66.3353 36.3618C 68.7236 33.4136 72.3689 31.5281 76.4598 31.5167C 77.8311 31.5167 79.2024 31.7223 80.5165 32.1452C 85.076 33.6078 88.1956 37.4017 89.2127 41.7212C 87.6814 18.3639 68.1979 -0.0797316 44.4635 0.000259207C 20.8433 0.0802501 1.56554 18.4553 0.0114287 41.6641C 0.331392 40.3614 0.857046 39.0815 1.61125 37.8702C 6.33071 30.3854 17.3466 29.7226 22.9117 36.6361C 25.3 33.6307 28.9795 31.6881 33.1276 31.6652C 34.1789 31.6652 35.2417 31.7795 36.2701 32.0309C 39.1041 32.7165 41.4581 34.3163 43.1722 36.419L 42.6008 43.1953C 42.5323 43.6753 42.4866 44.1666 42.4752 44.6694L 42.4523 44.898L 42.4637 44.898C 42.4409 47.3091 43.1036 49.6403 44.2921 51.6515C 39.8697 58.7593 29.5052 59.982 23.6316 53.7313C 23.0145 58.5993 20.4548 63.2273 15.8039 65.2042C 13.5984 66.1527 11.0502 66.5984 8.63901 66.427L 7.61055 61.1704L 11.0616 61.1133C 14.5812 60.7133 16.501 58.245 17.198 57.1252C 14.3869 58.1536 11.2787 58.1993 8.45617 57.2394C 4.02239 55.731 1.0056 52.0057 -2.78986e-06 47.7891C 1.58839 71.1007 21.049 89.4757 44.7492 89.3958C 68.335 89.3158 87.59 70.9864 89.2012 47.8348C 88.9041 49.0804 88.4128 50.2802 87.7271 51.4115Z"/>
<path id="path7_fill" d="M 7.51566 15.1983C 10.8639 15.0726 13.7664 12.5586 14.3606 9.25608C 14.7377 7.73626 15.0005 6.19358 15.4119 4.68518C 16.2118 1.79408 17.2631 -1.39493e-06 17.2631 -1.39493e-06L 13.4236 4.20523C 11.5266 1.09702 7.49281 -0.148554 4.17891 1.39413C 1.08212 2.83396 -0.609117 6.36499 0.202219 9.67889C 1.00213 12.9928 4.12176 15.3354 7.51566 15.1983Z"/>
<path id="path8_fill" d="M 4.17891 1.39412C 1.08212 2.83396 -0.609121 6.36499 0.202215 9.67889C 1.00212 12.9814 4.12177 15.324 7.51567 15.1983C 10.9553 15.0726 13.8921 12.4214 14.3949 9.01611C 15.1605 5.69078 15.012 6.02217 15.3776 4.68518C 16.1661 1.79408 17.2288 6.97465e-07 17.2288 6.97465e-07L 13.4121 4.18238C 11.5152 1.07416 7.46996 -0.148556 4.17891 1.39412Z"/>
<path id="path9_fill" d="M 10.1131 14.4181C 16.0096 14.4066 19.4378 7.39029 15.8039 2.72796C 12.2272 -1.8658 4.69661 -0.403106 3.11965 5.20768C 2.58256 6.84178 2.37687 8.55587 1.94263 10.2128C 1.48554 11.9383 0.891324 13.6867 -2.78986e-06 15.2408L 3.91956 10.9442C 5.19941 13.0354 7.49628 14.4295 10.1131 14.4181Z"/>
<path id="path10_fill" d="M 2.83396 6.10861C 2.12547 9.17112 1.5884 12.3022 5.57972e-06 15.0676L 3.78243 10.9195C 5.05085 13.0221 7.35916 14.4277 9.99886 14.4162C 16.101 14.3934 19.4492 6.94281 15.3925 2.3719C 11.4044 -2.13044 3.71386 0.143582 2.83396 6.10861Z"/>
</defs>
</svg>
