<svg xmlns="http://www.w3.org/2000/svg" width="302.3625" height="35.825"><path d="M136.67 25.88115c0 3.2861375-2.705 5.95215-5.99125 5.95215-3.29125 0-5.952125-2.6709-5.952125-5.95215 0-3.28365 2.668375-5.95215 5.952125-5.95215 3.27875 0 5.99125 2.661125 5.99125 5.95215" fill="#00acdf"/><path d="M302.35875 26.2961875c0 4.865725-1.415 6.301275-5.2875 7.4707125-4.2025 1.2719675-11.65375 2.0581-16.0925 2.0581-5.25125 0-11.79625-.3417975-17.3775-1.6211v-5.625h30.805v-7.644025H272.6025c-6.55375 0-8.995-1.80425-8.995-8.205625V9.387c0-5.045875 1.4925-6.566875 5.58875-7.6265 4.1225-1.066875 10.8775-1.755375 15.2875-1.755375 5.355 0 11.78875.4175 17.38875 1.65775v5.627H271.56v6.46475h21.80375c6.55625 0 8.995 1.767625 8.995 8.169v4.3725625M249.8175 34.211225c-6.385 1.267095-12.81375 1.613775-19.03875 1.613775-6.2225 0-12.76875-.34668-19.15375-1.613775V1.662875C218.01.39725 224.47875.005125 230.70375.005125s12.5775.392125 18.96125 1.65775V7.4705H220.82v6.5015h18.7825v6.752875H220.82v7.6806875h28.9975v5.8056625M200.61 34.211225c-5.72875 1.2719775-11.5075 1.613775-17.0575 1.613775-5.5525 0-11.4475-.3417975-17.175-1.613775V.81475h9.19375v27.161125H200.61v6.23535M155.35 34.4163125c-3.0625.8789025-7.11 1.1914025-10.125 1.24511375L131.0675 7.060375h-.79125l-14.155625 28.60105125c-3.017625-.05371125-6.57225-.36621125-9.631375-1.24511375L124.4165.830375h12.78225L155.35 34.4163125M95.40375 34.452925c-2.9355.84473125-6.073625 1.15234875-9.19675 1.20850125V21.069125H63.36425v14.59230125c-3.1225-.0561525-6.25825-.36377-9.194375-1.20850125V1.455375C57.106875.610625 60.24175.303 63.36425.246875v14.0815H86.207V.246875c3.123125.056125 6.258875.36375 9.19675 1.2085v32.99755M41.361375 7.5535h-16.1285v27.52198875h-9.105V7.5535H0V1.68C6.9443375.415375 13.919375.02225 20.703125.02225c6.77 0 13.726625.3955 20.65825 1.65775v5.8735" fill="#252a6e"/></svg>