<?xml version="1.0" encoding="UTF-8" standalone="no"?>
<svg id="svg3025" xmlns:rdf="http://www.w3.org/1999/02/22-rdf-syntax-ns#" xmlns="http://www.w3.org/2000/svg" viewBox="0 0 302.36 35.825" version="1.1" xmlns:cc="http://creativecommons.org/ns#" xmlns:dc="http://purl.org/dc/elements/1.1/">
 <metadata id="metadata3035">
  <rdf:RDF>
   <cc:Work rdf:about="">
    <dc:format>image/svg+xml</dc:format>
    <dc:type rdf:resource="http://purl.org/dc/dcmitype/StillImage"/>
    <dc:title/>
   </cc:Work>
  </rdf:RDF>
 </metadata>
 <path id="path3027" d="M136.67,25.881c0,3.2861-2.705,5.9522-5.9912,5.9522-3.2912,0-5.9521-2.6709-5.9521-5.9522,0-3.2836,2.6684-5.9522,5.9521-5.9522,3.2788,0,5.9912,2.6611,5.9912,5.9522" fill="#FFF"/>
 <path id="path3029" d="M302.36,26.296c0,4.8657-1.415,6.3013-5.2875,7.4707-4.2025,1.272-11.654,2.0581-16.092,2.0581-5.2512,0-11.796-0.3418-17.378-1.6211v-5.625h30.805v-7.644h-21.798c-6.5538,0-8.995-1.8042-8.995-8.2056v-3.342c0-5.0459,1.4925-6.5669,5.5888-7.6265,4.1225-1.0669,10.878-1.7554,15.288-1.7554,5.355,0,11.789,0.4175,17.389,1.6578v5.627h-30.32v6.4648h21.804c6.5562,0,8.995,1.7676,8.995,8.169v4.3726m-52.54,7.914c-6.385,1.2671-12.814,1.6138-19.039,1.6138-6.2225,0-12.769-0.34668-19.154-1.6138v-32.548c6.38-1.2656,12.85-1.6578,19.07-1.6578s12.578,0.39212,18.961,1.6578v5.8076h-28.84v6.5015h18.782v6.7529h-18.78v7.6807h28.998v5.8057m-49.21-0.001c-5.7288,1.272-11.508,1.6138-17.058,1.6138-5.5525,0-11.448-0.3418-17.175-1.6138v-33.396h9.1938v27.161h25.04v6.2354m-45.26,0.205c-3.0625,0.8789-7.11,1.1914-10.125,1.2451l-14.15-28.601h-0.79125l-14.156,28.601c-3.0176-0.053711-6.5722-0.36621-9.6314-1.2451l17.93-33.586h12.782l18.15,33.586m-59.946,0.037c-2.9355,0.84473-6.0736,1.1523-9.1968,1.2085v-14.593h-22.843v14.592c-3.1225-0.056152-6.2582-0.36377-9.1944-1.2085v-32.997c2.937-0.84476,6.072-1.1524,9.194-1.2085v14.082h22.843v-14.081c3.1231,0.056125,6.2589,0.36375,9.1968,1.2085v32.998m-54.043-26.9h-16.128v27.522h-9.105v-27.522h-16.127v-5.8735c6.9443-1.2646,13.919-1.6578,20.703-1.6578,6.77,0,13.727,0.3955,20.658,1.6578v5.8735" fill="#FFF"/>
</svg>
