<?xml version="1.0" encoding="UTF-8" standalone="no"?>
<svg width="299px" height="365px" viewBox="0 0 299 365" version="1.1" xmlns="http://www.w3.org/2000/svg" xmlns:xlink="http://www.w3.org/1999/xlink" xmlns:sketch="http://www.bohemiancoding.com/sketch/ns">
    <!-- Generator: Sketch 3.4.2 (15855) - http://www.bohemiancoding.com/sketch -->
    <title>twosigma-logo</title>
    <desc>Created with Sketch.</desc>
    <defs>
        <path id="path-1" d="M0,0.118604651 L298.442442,0.118604651 L298.442442,364.534884 L0,364.534884 L0,0.118604651 Z"></path>
        <path id="path-3" d="M0,0.118604651 L298.442442,0.118604651 L298.442442,364.534884 L0,364.534884 L0,0.118604651 Z"></path>
    </defs>
    <g id="Logos" stroke="none" stroke-width="1" fill="none" fill-rule="evenodd" sketch:type="MSPage">
        <g id="Artboard-1" sketch:type="MSArtboardGroup" transform="translate(-374.000000, -149.000000)">
            <g id="twosigma-logo" sketch:type="MSLayerGroup" transform="translate(374.000000, 149.000000)">
                <path d="M0,329.317151 L0,334.6125 L11.9703488,334.6125 L11.9703488,363.939244 L17.905814,363.939244 L17.905814,334.6125 L29.8761628,334.6125 L29.8761628,329.317151 L0,329.317151 Z" id="Fill-1" fill="#FEFEFE" sketch:type="MSShapeGroup"></path>
                <path d="M78.4506977,329.317151 L70.437907,355.582849 L70.3419767,355.582849 L62.8716279,329.317151 L57.332093,329.317151 L49.812907,355.582849 L49.7152326,355.582849 L41.7495349,329.317151 L35.4687209,329.317151 L46.3489535,363.939244 L52.7309302,363.939244 L60.0024419,338.56657 L60.1001163,338.56657 L67.3716279,363.939244 L73.7518605,363.939244 L84.6844186,329.317151 L78.4506977,329.317151 Z" id="Fill-2" fill="#FEFEFE" sketch:type="MSShapeGroup"></path>
                <g id="Group-21">
                    <path d="M104.598314,359.39093 C111.126802,359.39093 116.22157,354.545581 116.22157,346.431628 C116.22157,338.61593 111.177384,333.819419 104.598314,333.819419 C98.0192442,333.819419 92.9750581,338.61593 92.9750581,346.431628 C92.9750581,354.545581 98.0698256,359.39093 104.598314,359.39093 M104.598314,328.722907 C114.639593,328.722907 122.256453,335.697907 122.256453,346.431628 C122.256453,357.411279 114.639593,364.534535 104.598314,364.534535 C94.5570349,364.534535 86.889593,357.411279 86.889593,346.431628 C86.889593,335.697907 94.5570349,328.722907 104.598314,328.722907" id="Fill-3" fill="#FEFEFE" sketch:type="MSShapeGroup"></path>
                    <path d="M173.110465,329.317326 L179.044186,329.317326 L179.044186,347.980116 L179.044186,363.941163 L173.110465,363.941163 L173.110465,344.58593 L173.110465,329.317326 Z" id="Fill-5" fill="#FEFEFE" sketch:type="MSShapeGroup"></path>
                    <path d="M204.550116,328.724651 C209.299535,328.724651 213.30593,330.208953 216.816977,332.629884 C216.816977,332.629884 213.417558,336.61186 213.250116,336.507209 C210.628605,334.829302 207.858837,333.866512 204.700116,333.866512 C197.57686,333.866512 192.878023,339.010116 192.878023,346.333953 C192.878023,354.296163 197.280349,359.392674 204.700116,359.392674 C207.271047,359.392674 209.841977,358.74907 211.622791,357.709535 L211.622791,349.496163 L202.917558,349.496163 L202.917558,345.097326 L217.113488,345.097326 L217.113488,360.775814 C213.748953,363.149651 209.350116,364.534535 204.550116,364.534535 C193.716977,364.534535 186.792558,357.214186 186.792558,346.333953 C186.792558,336.144419 193.816395,328.724651 204.550116,328.724651" id="Fill-7" fill="#FEFEFE" sketch:type="MSShapeGroup"></path>
                    <path d="M225.527965,329.317326 L231.514012,329.317326 L242.940174,345.592326 L254.364593,329.317326 L260.301802,329.317326 L260.301802,363.941163 L254.561686,363.941163 L254.561686,338.121977 L242.889593,354.44407 L231.2175,338.121977 L231.2175,363.941163 L225.527965,363.941163 L225.527965,329.317326 Z" id="Fill-9" fill="#FEFEFE" sketch:type="MSShapeGroup"></path>
                    <g id="Group-13">
                        <mask id="mask-2" sketch:name="Clip 12" fill="white">
                            <use xlink:href="#path-1"></use>
                        </mask>
                        <g id="Clip-12"></g>
                        <path d="M276.482442,351.675 L287.760349,351.675 L282.170233,335.55 L282.070814,335.55 L276.482442,351.675 Z M278.657442,329.316279 L285.634186,329.316279 L298.443488,363.94186 L292.063256,363.94186 L289.441744,356.473256 L274.84814,356.473256 L272.278953,363.94186 L265.846395,363.94186 L278.657442,329.316279 Z" id="Fill-11" fill="#FEFEFE" sketch:type="MSShapeGroup" mask="url(#mask-2)"></path>
                    </g>
                    <path d="M142.409128,356.473081 C145.527733,358.163198 148.473663,359.291686 152.282965,359.291686 C156.833547,359.291686 159.109709,357.313779 159.109709,354.544012 C159.109709,346.728314 139.620174,351.870174 139.620174,338.666686 C139.620174,333.125407 144.221337,328.724826 151.986453,328.724826 C156.537035,328.724826 161.115523,329.820174 164.698081,331.913198 L160.815523,335.8725 C157.998663,334.667267 155.596919,333.967849 152.183547,333.967849 C148.178895,333.967849 145.803314,335.996337 145.803314,338.565523 C145.803314,346.334128 165.292849,341.038779 165.292849,354.491686 C165.292849,360.182965 160.988198,364.534709 152.282965,364.534709 C147.189942,364.534709 141.66436,362.729477 138.406221,360.475988 L142.409128,356.473081 Z" id="Fill-14" fill="#FEFEFE" sketch:type="MSShapeGroup"></path>
                    <path d="M189.494651,131.343663 C175.89,131.343663 164.561512,146.641919 164.561512,163.639012 C164.561512,176.952384 170.933023,183.890756 181.69814,183.890756 C195.290581,183.890756 206.488256,168.730291 206.488256,151.73843 C206.488256,138.282035 200.109767,131.343663 189.494651,131.343663" id="Fill-16" fill="#FEFEFE" sketch:type="MSShapeGroup"></path>
                    <g id="Group-20">
                        <mask id="mask-4" sketch:name="Clip 19" fill="white">
                            <use xlink:href="#path-3"></use>
                        </mask>
                        <g id="Clip-19"></g>
                        <path d="M145.900988,0.119302326 L-0.000174418605,146.058837 L145.900988,291.991395 L291.833547,146.058837 L145.900988,0.119302326 Z M139.484128,181.059419 L139.484128,195.079186 L69.1009884,195.079186 L68.9527326,187.423953 C67.8225,140.695465 124.048081,146.782674 124.048081,122.841977 C124.048081,115.057674 117.959128,108.398372 104.363198,108.398372 C94.4492442,108.398372 84.9591279,113.355349 78.0190116,119.725116 L67.6864535,109.390814 C76.5992442,101.037907 90.4829651,94.2390698 105.069593,94.2390698 C128.436453,94.2390698 140.340523,107.269884 140.340523,122.562907 C140.340523,157.828605 85.6672674,151.600116 85.6672674,181.059419 L139.484128,181.059419 Z M223.05157,151.600116 C223.05157,177.373953 204.641686,196.776279 180.137616,196.776279 C161.303895,196.776279 147.992267,184.31407 147.992267,163.774535 C147.992267,137.890814 166.358547,118.50593 190.677733,118.462326 L190.677733,118.458837 L250.403895,118.458837 L237.852733,130.842558 L217.000988,130.842558 C220.84343,136.240814 223.05157,143.233256 223.05157,151.600116 L223.05157,151.600116 Z" id="Fill-18" fill="#FEFEFE" sketch:type="MSShapeGroup" mask="url(#mask-4)"></path>
                    </g>
                </g>
            </g>
        </g>
    </g>
</svg>