<svg xmlns="http://www.w3.org/2000/svg" width="363.113" height="65.875"><path d="M363.11 49.142l-12.066-32.614h-6.57l-12.067 32.614h6.057l2.42-7.036h13.747l2.47 7.036h6.01zm-10.065-11.556h-10.62l5.265-15.188h.09l5.265 15.188zM321.78 49.142h5.404V16.528h-5.594l-10.76 15.33-10.763-15.33h-5.638v32.614h5.36v-24.32l10.992 15.374 10.997-15.374v24.32zm-47.11.56c4.52 0 8.666-1.306 11.834-3.544V31.39h-13.372v4.147h8.2v7.735c-1.678.977-4.1 1.583-6.52 1.583-6.99 0-11.137-4.798-11.137-12.3 0-6.895 4.425-11.74 11.136-11.74 2.977 0 5.585.905 8.054 2.484.158.1 3.36-3.65 3.36-3.65-3.307-2.282-7.083-3.682-11.553-3.682-10.11 0-16.725 6.99-16.725 16.588 0 10.248 6.52 17.145 16.726 17.145m-29.615-.558h5.59V16.528h-5.59v32.614zm-25.72-23.9c0-2.424 2.24-4.334 6.01-4.334 3.215 0 5.476.66 8.13 1.797l3.657-3.734c-3.373-1.97-7.687-3.002-11.973-3.002-7.316 0-11.65 4.147-11.65 9.366 0 12.438 18.36 7.593 18.36 14.957 0 2.608-2.144 4.473-6.43 4.473-3.588 0-6.366-1.067-9.303-2.657l-3.768 3.77c3.067 2.123 8.27 3.825 13.07 3.825 8.2 0 12.25-4.1 12.25-9.46 0-12.67-18.354-7.686-18.354-14.998m-22.18 7.406c0-10.11-7.174-16.68-16.63-16.68-9.46 0-16.68 6.57-16.68 16.68 0 10.343 7.22 17.053 16.68 17.053 9.456 0 16.63-6.71 16.63-17.052m-5.685 0c0 7.643-4.798 12.207-10.945 12.207-6.15 0-10.95-4.564-10.95-12.207 0-7.36 4.75-11.88 10.95-11.88 6.195 0 10.946 4.52 10.946 11.88m-40 16.494l10.297-32.614h-5.87l-7.55 24.74h-.092l-7.033-24.74h-5.218l-7.083 24.74h-.09l-7.504-24.74h-5.915l10.25 32.614h6.007l6.85-23.9h.094l6.85 23.9h6.01zM98.866 21.515h11.274v-4.987H82.002v4.987h11.275v27.627h5.59V21.515" fill="#ffffff"/><path d="M32.714-.305L-.2 32.892l32.914 33.195 32.92-33.195L32.713-.305zm-1.448 41.16v3.188H15.39l-.034-1.742c-.255-10.628 12.428-9.243 12.428-14.69 0-1.77-1.373-3.285-4.44-3.285-2.237 0-4.377 1.128-5.943 2.577l-2.33-2.35c2.01-1.9 5.143-3.448 8.433-3.448 5.27 0 7.956 2.965 7.956 6.444 0 8.02-12.334 6.604-12.334 13.306h12.14zm18.85-6.703c0 5.863-4.152 10.277-9.68 10.277-4.248 0-7.25-2.836-7.25-7.508 0-5.888 4.142-10.298 9.628-10.307h13.473l-2.83 2.816H48.75c.867 1.23 1.365 2.82 1.365 4.722" fill="#ffffff"/><path d="M42.78 29.265c-3.405 0-6.24 3.664-6.24 7.736 0 3.19 1.595 4.852 4.288 4.852 3.4 0 6.202-3.632 6.202-7.702 0-3.224-1.596-4.885-4.25-4.885" fill="#ffffff"/></svg>
