<?xml version="1.0" encoding="UTF-8" standalone="no"?>
<svg
   xmlns:dc="http://purl.org/dc/elements/1.1/"
   xmlns:cc="http://creativecommons.org/ns#"
   xmlns:rdf="http://www.w3.org/1999/02/22-rdf-syntax-ns#"
   xmlns:svg="http://www.w3.org/2000/svg"
   xmlns="http://www.w3.org/2000/svg"
   viewBox="0 0 755.90668 157.08"
   height="157.08"
   width="755.90668"
   xml:space="preserve"
   id="svg2"
   version="1.1"><metadata
     id="metadata8"><rdf:RDF><cc:Work
         rdf:about=""><dc:format>image/svg+xml</dc:format><dc:type
           rdf:resource="http://purl.org/dc/dcmitype/StillImage" /></cc:Work></rdf:RDF></metadata><defs
     id="defs6" /><g
     transform="matrix(1.3333333,0,0,-1.3333333,0,157.08)"
     id="g10"><g
       transform="scale(0.1)"
       id="g12"><path
         id="path14"
         style="fill:#ffffff;fill-opacity:1;fill-rule:nonzero;stroke:none"
         d="m 1599.77,1157.31 c 0,-2.95 0,-11.72 0,-14.65 -2.92,0 -9.58,0 -9.58,0 -14.31,0 -38.25,0 -38.25,-44.61 V 914.887 c 0,-112.051 -48.77,-166.465 -149.13,-166.465 -113.23,0 -165.98,45.137 -165.98,142.09 v 207.538 c 0,44.61 -24.19,44.61 -45.55,44.61 0,0 -2.5,0 -4.5,0 0,2.93 0,11.7 0,14.65 4.26,0 165.09,0 169.38,0 0,-2.95 0,-11.72 0,-14.65 -1.99,0 -4.54,0 -4.54,0 -21.02,0 -47.23,0 -47.23,-44.61 V 899.809 c 0,-85.45 35.71,-126.973 109.11,-126.973 71.38,0 109.15,44.727 109.15,129.277 v 195.937 c 0,44.61 -24.7,44.61 -42.74,44.61 0,0 -6.17,0 -9.04,0 0,2.93 0,11.7 0,14.65 4.23,0 124.68,0 128.9,0" /><path
         id="path16"
         style="fill:#ffffff;fill-opacity:1;fill-rule:nonzero;stroke:none"
         d="m 1782.77,771.742 v -14.648 c 0,0 -138.68,0 -142.9,0 0,2.929 0,11.738 0,14.648 2.3,0 5.66,0 5.66,0 46.83,0 52.86,35.762 52.86,75.957 v 240.511 c 0,38.38 -22.18,54.45 -53.44,54.45 h -5.08 v 14.67 h 112.43 l 243.21,-298.166 v 226.696 c 0,51.29 -35.78,56.8 -51.15,56.8 0,0 -7.16,0 -10.16,0 0,2.93 0,11.72 0,14.67 4.25,0 140.17,0 144.41,0 0,-2.95 0,-11.74 0,-14.67 -2.43,0 -6.24,0 -6.24,0 -25.28,0 -52.3,-5.86 -52.3,-75.92 V 755.102 l -21.23,-0.098 -275.93,333.866 0.08,-240.936 c 0,-40.176 5.76,-76.192 54.19,-76.192" /><path
         id="path18"
         style="fill:#ffffff;fill-opacity:1;fill-rule:nonzero;stroke:none"
         d="m 2549.4,841.957 87.95,245.993 c 15.76,41.9 5.65,54.73 -30.77,54.73 h -7.36 v 14.63 h 113.92 v -14.63 h -2.51 c -12.35,0 -26.92,-3.69 -37.71,-31.21 l -133.4,-355.88 h -25.38 l -144.8,352.6 c -11.51,29.35 -25.08,34.49 -49.35,34.49 0,0 -1.75,0 -3.39,0 0,2.93 0,11.68 0,14.63 4.3,0 161.2,0 165.47,0 0,-2.95 0,-11.7 0,-14.63 -3.05,0 -10.75,0 -10.75,0 -28.31,0 -33.77,-17.73 -25.73,-39.3 L 2549.4,841.957" /><path
         id="path20"
         style="fill:#ffffff;fill-opacity:1;fill-rule:nonzero;stroke:none"
         d="m 3217.23,1138.46 -0.09,-177.147 h 34.27 c 62.33,0 89.8,27.734 89.8,92.737 0,52.83 -33.98,86.95 -85.26,86.95 -11.97,0 -28.37,-0.94 -38.72,-2.54 z m 61.46,18.87 c 88.6,0 132.59,-32.66 132.59,-99.79 0,-56.91 -44.4,-85.759 -79.46,-99.919 l -2.55,-1.055 98.13,-149.453 c 15.7,-24.218 28.52,-33.574 55.56,-35.039 0,-2.656 0,-11.953 0,-14.98 -4.25,0 -102.46,0 -102.46,0 l -119.05,187.89 h -44.31 v -124.55 c 0,-45.196 20.1,-48.692 48.47,-48.692 0,0 5.19,0 7.93,0 0,-2.91 0,-11.719 0,-14.648 -4.32,0 -169.7,0 -174.01,0 0,2.929 0,11.738 0,14.648 2.72,0 7.9,0 7.9,0 19.45,0 42.14,8.828 42.14,33.613 v 290.955 c 0,46.35 -27.43,46.35 -42.14,46.35 0,0 -5.18,0 -7.9,0 0,2.93 0,11.7 0,14.67 4.32,0 179.16,0 179.16,0" /><path
         id="path22"
         style="fill:#ffffff;fill-opacity:1;fill-rule:nonzero;stroke:none"
         d="m 3694.53,833.031 c 0,48.77 -41.82,67.989 -80.86,88.282 -45.64,23.789 -98.26,48.359 -98.26,122.227 0,71.56 54.43,117.73 132.24,117.73 31.78,0 67.91,-6.34 83.68,-9.55 l 5.45,-77.87 -14.99,-2.15 c -6.95,40.98 -28.21,72.41 -74.28,72.41 -43.29,0 -75.35,-26.59 -75.35,-74.46 0,-45.13 41.65,-63.63 80.49,-83.181 47.53,-23.946 102.06,-48.731 102.06,-123.281 0,-82.54 -73.55,-119.493 -141.6,-119.493 -26.97,0 -64.6,5.489 -94.77,22.578 l -9.56,86.661 14.54,2.558 c 11.1,-57.519 47.58,-90.859 95.72,-90.859 46.09,0 75.49,28.105 75.49,68.398" /><path
         id="path24"
         style="fill:#ffffff;fill-opacity:1;fill-rule:nonzero;stroke:none"
         d="m 3979.99,1157.31 c 0,-2.95 0,-11.72 0,-14.65 -2.29,0 -5.63,0 -5.63,0 -22.82,0 -43.86,-4.28 -43.86,-35.33 V 807.094 c 0,-31.074 21.04,-35.352 43.86,-35.352 0,0 3.34,0 5.63,0 0,-2.91 0,-11.699 0,-14.629 -4.28,0 -162.87,0 -167.16,0 0,2.93 0,11.719 0,14.629 2.29,0 5.65,0 5.65,0 22.81,0 43.86,4.278 43.86,35.352 v 300.236 c 0,31.05 -21.05,35.33 -43.86,35.33 0,0 -3.36,0 -5.65,0 0,2.93 0,11.7 0,14.65 4.29,0 162.88,0 167.16,0" /><path
         id="path26"
         style="fill:#ffffff;fill-opacity:1;fill-rule:nonzero;stroke:none"
         d="m 2293.39,1157.31 c 0,-2.95 0,-11.72 0,-14.65 -2.28,0 -5.63,0 -5.63,0 -22.8,0 -43.86,-4.28 -43.86,-35.33 V 807.094 c 0,-31.074 21.06,-35.352 43.86,-35.352 0,0 3.35,0 5.63,0 0,-2.91 0,-11.699 0,-14.629 -4.25,0 -162.84,0 -167.13,0 0,2.93 0,11.719 0,14.629 2.29,0 5.65,0 5.65,0 22.76,0 43.86,4.278 43.86,35.352 v 300.236 c 0,31.05 -21.1,35.33 -43.86,35.33 0,0 -3.36,0 -5.65,0 0,2.93 0,11.7 0,14.65 4.29,0 162.88,0 167.13,0" /><path
         id="path28"
         style="fill:#ffffff;fill-opacity:1;fill-rule:nonzero;stroke:none"
         d="m 5624.59,579.379 1.37,-106.231 c 0,0 -12.89,-3.242 -16.97,-4.355 -3.8,46.426 -14.32,84.336 -88.59,84.336 h -99.79 V 356.781 h 85.66 c 42.02,0 53.44,23.516 58.19,64.063 3.21,0 13.4,0 17.05,0 0,-5.489 0,-164.199 0,-164.199 l -17,-0.254 c -2.63,39.277 -11.87,69.765 -57.89,69.765 h -86.01 V 153.75 c 0,-50.109 43.16,-50.109 88.88,-50.109 82.02,0 120.04,5.129 142.97,88.121 3.34,-0.84 16.82,-3.731 16.82,-3.731 L 5646.31,77.3711 c 0,0 -367.13,0 -372.62,0 0,3.6289 0,14.707 0,18.3789 2.87,0 7.1,0 7.1,0 28.59,0 55.02,5.328 55.02,44.328 v 376.586 c 0,38.965 -26.43,44.356 -55.02,44.356 0,0 -4.23,0 -7.1,0 0,3.632 0,14.648 0,18.359 5.47,0 350.9,0 350.9,0" /><path
         id="path30"
         style="fill:#ffffff;fill-opacity:1;fill-rule:nonzero;stroke:none"
         d="M 3516.84,555.746 3516.8,333.5 h 42.89 c 78.14,0 112.59,34.824 112.59,116.406 0,66.192 -42.66,109.024 -106.91,109.024 -15.05,0 -34.29,-0.879 -48.53,-3.184 z m 77.07,23.633 c 111.14,0 166.31,-40.938 166.31,-125.117 0,-71.407 -55.76,-107.559 -99.67,-125.352 l -3.25,-1.328 123.15,-187.48 c 19.7,-30.391 35.78,-42.1332 69.67,-43.9809 0,-3.3008 0,-14.9805 0,-18.75 -5.28,0 -128.51,0 -128.51,0 L 3572.24,313.109 H 3516.8 V 156.781 c 0,-56.66 25.11,-61.031 60.64,-61.031 0,0 6.55,0 9.95,0 0,-3.6914 0,-14.75 0,-18.3789 -5.39,0 -212.84,0 -218.21,0 0,3.6289 0,14.6875 0,18.3789 3.43,0 9.91,0 9.91,0 24.41,0 52.9,11.012 52.9,42.109 v 364.996 c 0,58.165 -34.39,58.165 -52.9,58.165 0,0 -6.48,0 -9.91,0 0,3.652 0,14.648 0,18.359 5.44,0 224.73,0 224.73,0" /><path
         id="path32"
         style="fill:#ffffff;fill-opacity:1;fill-rule:nonzero;stroke:none"
         d="m 4090.41,579.477 c 0,-3.692 0,-14.688 0,-18.36 -2.91,0 -7.1,0 -7.1,0 -28.59,0 -55.03,-5.41 -55.03,-44.355 V 140.141 c 0,-38.961 26.44,-44.3129 55.03,-44.3129 0,0 4.19,0 7.1,0 0,-3.6797 0,-14.7265 0,-18.3593 -5.34,0 -204.37,0 -209.7,0 0,3.6328 0,14.6796 0,18.3593 2.85,0 7.07,0 7.07,0 28.62,0 55.03,5.3519 55.03,44.3129 v 376.621 c 0,38.945 -26.41,44.355 -55.03,44.355 0,0 -4.22,0 -7.07,0 0,3.672 0,14.668 0,18.36 5.33,0 204.36,0 209.7,0" /><path
         id="path34"
         style="fill:#ffffff;fill-opacity:1;fill-rule:nonzero;stroke:none"
         d="m 4066.95,1157.31 h 264.77 c 13.26,0 30.39,3.36 33.06,20.78 l 12.88,0.04 -10.17,-104.4 -14.19,0.02 c -0.88,24.11 -4.4,59.14 -43.09,59.14 H 4229.4 V 823.91 c 0,-48.144 23.17,-52.168 48.96,-52.168 0,0 5.68,0 8.44,0 0,-2.91 0,-11.699 0,-14.629 -4.27,0 -178.02,0 -182.34,0 0,2.93 0,11.719 0,14.629 2.81,0 8.47,0 8.47,0 30.36,0 48.93,2.481 48.93,51.016 v 310.132 h -81.69 c -41.62,0 -45.59,-18.24 -53.65,-58.69 h -14.37 l 9.2,103.07 c 0,0 9.79,0 11.73,0 5.36,-16.66 19.79,-20 33.87,-19.96" /><path
         id="path36"
         style="fill:#ffffff;fill-opacity:1;fill-rule:nonzero;stroke:none"
         d="m 4787.05,1157.31 v -14.86 c -23.06,-1.25 -36.92,-17.02 -47.36,-31.7 0,-0.02 -101.6,-156.586 -101.6,-156.586 v -127.91 c 0,-50.84 18.48,-54.512 48.91,-54.512 0,0 5.68,0 8.5,0 0,-2.91 0,-11.699 0,-14.629 -4.28,0 -178.1,0 -182.41,0 0,2.93 0,11.719 0,14.629 2.81,0 8.48,0 8.48,0 31.72,0 48.96,7.93 48.96,49.844 v 123.047 l -110.29,157.657 c -16.88,24.32 -29.5,40.37 -56.28,40.37 h -3.35 v 14.65 h 165.33 v -14.65 h -5.1 c -31.72,0 -34.06,-16.82 -20.51,-36.03 l 85.47,-132.485 75.61,119.625 c 17.32,26.1 22.32,48.89 -20.52,48.89 h -6.56 l 0.02,14.65 h 112.7" /><path
         id="path38"
         style="fill:#ffffff;fill-opacity:1;fill-rule:nonzero;stroke:none"
         d="m 4982.72,974.613 c 0,-98.867 43.67,-205.254 139.53,-205.254 87.77,0 130.46,60.879 130.46,186.114 0,91.917 -49.1,189.587 -140.05,189.587 -120.56,0 -129.94,-130.49 -129.94,-170.447 z m -74.3,-20.312 c 0,118.709 90.21,211.719 205.4,211.719 125.56,0 213.2,-81.33 213.2,-197.793 0,-127.364 -88.47,-219.805 -210.4,-219.805 -120.63,0 -208.2,86.562 -208.2,205.879" /><path
         id="path40"
         style="fill:#ffffff;fill-opacity:1;fill-rule:nonzero;stroke:none"
         d="m 5551.09,757.172 c 0,2.969 0,11.66 0,14.59 -2.15,0 -5.06,0 -5.06,0 -26.41,0 -56.24,0 -56.24,35.351 v 148.321 h 71.07 c 41.1,0 46.93,-31.758 47.22,-56.836 2.78,0 10.25,0 13.17,0 v 128.222 c -2.92,0 -10.45,0 -13.2,0 -0.29,-20.84 -5.09,-46.972 -38.2,-46.972 h -80.06 v 156.542 h 91.31 c 47.81,0 55.66,-32.83 58.79,-67.25 3.21,0.9 11.15,2.82 13.46,3.46 l -1.04,84.65 h -279.64 c 0,-2.95 0,-11.66 0,-14.57 2.28,0 5.7,0 5.7,0 22.76,0 43.84,-4.28 43.84,-35.35 V 807.113 c 0,-31.074 -21.08,-35.351 -43.84,-35.351 0,0 -3.42,0 -5.7,0 0,-2.93 0,-11.602 0,-14.59 h 178.42" /><path
         id="path42"
         style="fill:#ffffff;fill-opacity:1;fill-rule:nonzero;stroke:none"
         d="m 1218.48,328.793 c 0,74.629 30.27,147.93 82.41,194.629 48.36,43.359 111.83,67.695 183.52,67.695 64.2,0 117.71,-11.601 170.04,-36.054 l 5.32,-116.192 -16.5,-2.129 c -18.92,67.383 -50.42,129.063 -156.77,129.063 -109.26,0 -177.15,-86.504 -177.15,-225.801 0,-124.004 54.89,-241.254 187.83,-241.254 74.71,0 128,27.988 168.21,79.691 l 13.14,-24.589 c -45.3,-58.5512 -115.26,-89.7622 -194.89,-89.7622 -161.89,0 -265.16,95.5192 -265.16,264.7032" /><path
         id="path44"
         style="fill:#ffffff;fill-opacity:1;fill-rule:nonzero;stroke:none"
         d="m 2300.98,482.309 c 0,0 -16.65,-310.039 -16.65,-310.059 -3.03,-68.648 18.27,-74.6719 64.39,-76.4102 h 4.29 V 77.6016 h -169.22 v 18.2382 h 6.45 c 57.02,2.2696 60.51,33.9882 63.16,80.3402 l 19.66,317.359 c 2.56,43.301 -21.17,67.871 -61.06,67.871 0,0 -3.15,0 -5.81,0 0,3.965 0,14.297 0,18.281 6.17,0 138.05,0 142.09,0 1.7,-4.023 170.5,-380.449 170.5,-380.449 0,0 159.6,376.485 161.3,380.508 4,0 139.31,0 139.31,0 l -0.02,-18.496 h -2.67 c -56.46,0 -66.47,-17.539 -62.21,-88.496 l 19.42,-332.969 c 2.97,-38.961 23.39,-42.4804 61.82,-43.9296 0,-3.8985 0,-14.0977 0,-18.1211 -6.25,0 -202.06,0 -208.31,0 0,4.0234 0,14.3398 0,18.1211 0.58,0.0625 1.37,0.1015 1.37,0.1015 33.92,2.0508 58.44,3.461 58.44,37.5391 l -0.73,36 c 0,0.09 -15.28,321.012 -15.28,321.012 0,0 -171.88,-412.5823 -173.58,-416.5823 -2.76,0 -12.37,0 -15.15,0 -1.72,4.0586 -181.51,408.3793 -181.51,408.3793" /><path
         id="path46"
         style="fill:#ffffff;fill-opacity:1;fill-rule:nonzero;stroke:none"
         d="m 4316.85,555.551 -0.04,-394.199 c 0,-53.223 22.51,-61.8129 76.35,-61.8129 126.84,0 184.58,109.2149 184.58,216.2459 0,166.367 -68.67,242.129 -209.86,242.129 -12.44,0 -39.01,-1.113 -51.03,-2.363 z M 4169.44,77.4688 v 18.3906 h 7.11 c 28.58,0 55.01,5.3596 55.01,44.3596 v 376.543 c 0,38.965 -26.43,44.336 -55.01,44.336 h -7.11 v 18.379 l 224.43,0.195 c 83.42,0 153.3,-20.977 202.11,-66.406 48.08,-44.786 73.54,-108.184 73.54,-183.477 0,-70.332 -28.01,-138.457 -76.81,-186.891 -49.14,-48.6792 -117.9,-65.2964 -187.51,-65.2964 l -235.76,-0.1328" /><path
         id="path48"
         style="fill:#ffffff;fill-opacity:1;fill-rule:nonzero;stroke:none"
         d="m 5096.76,103.289 v 123.063 c 0,26.933 -19.58,41.171 -56.67,41.171 h -5.87 v 17.911 h 192.97 v -17.911 h -5.84 c -26.98,0 -41.25,-14.238 -41.25,-41.171 l -0.08,-136.9926 c -46.06,-14.8203 -107.84,-26.5196 -176.49,-26.5196 -165.69,0 -272.81,107.4222 -272.81,273.6092 0,176.797 141.25,257.344 274.16,257.344 59.53,0 120.73,-11.855 159.52,-24.824 l 7.99,-119.844 -16.83,-1.055 c -20.81,86.309 -59.3,120.157 -145.74,120.157 -116.63,0 -187.33,-85.997 -187.33,-224.375 0,-127.149 59.69,-253.1411 192.98,-253.1411 30.72,-0.6914 62.5,4.0196 81.29,12.5781" /><path
         id="path50"
         style="fill:#ffffff;fill-opacity:1;fill-rule:nonzero;stroke:none"
         d="m 3157.44,350.766 c 63.19,-4.61 96.81,-18.516 125.09,-47.5 21.87,-22.364 33.43,-50.723 33.43,-83.75 0,-78.786 -72.23,-141.9144 -166.13,-141.9144 l -245.93,0.039 v 18.1875 h 9.93 c 24.34,0 52.86,11.6019 52.86,42.7739 v 364.214 c 0,58.145 -34.42,58.145 -52.86,58.145 h -9.93 v 18.359 l 222.86,0.118 c 104.64,0 162.25,-37.93 162.25,-109.786 0,-79.511 -69.97,-108.925 -131.57,-118.886 M 3054.55,560.961 V 359.359 h 37.76 c 69.16,0 107.26,33.536 107.26,97.715 0,70.918 -33.5,103.887 -99.57,103.887 z m 0,-223.535 V 160.789 c 0,-49.07 15.63,-63.1093 66.55,-63.1093 61.15,0 107.29,50.3323 107.29,118.8863 0,77.11 -46.94,120.86 -125.6,120.86 h -48.24" /><path
         id="path52"
         style="fill:#ffffff;fill-opacity:1;fill-rule:nonzero;stroke:none"
         d="m 1892.44,477.094 70.13,-195.547 h -140.45 z m 8.71,102.441 c 0,0 -159.33,-433.285 -159.33,-433.336 -11.82,-30.777 -32.68,-49.7888 -63.59,-49.7888 h -1.71 l -0.06,-18.8321 h 152.78 l -0.05,18.8321 h -6.64 c -36.78,0 -61.81,11.7618 -45.8,59.2378 l 36.46,101.231 h 158.19 l 39.56,-110.348 c 11.35,-34.832 -3.45,-50.6326 -41.24,-50.6326 h -4.41 l 0.02,-18.5078 h 194.36 l 0.05,18.5078 h -1.53 c -25.91,0 -43.64,13.5816 -55.76,48.0116 l -163.49,435.547 -37.81,0.078" /><path
         id="path54"
         style="fill:#ffffff;fill-opacity:1;fill-rule:nonzero;stroke:none"
         d="m 3019.83,1157.35 1.09,-84.65 c 0,0 -10.29,-2.6 -13.51,-3.48 -3.03,37.01 -11.41,67.19 -70.6,67.19 H 2857.3 V 980.004 h 68.25 c 33.48,0 42.59,18.73 46.34,51.036 2.59,0 10.71,0 13.65,0 0,-4.38 0,-130.841 0,-130.841 l -13.6,-0.195 c -2.09,31.269 -9.42,55.586 -46.14,55.586 h -68.5 V 818.227 c 0,-39.981 34.39,-39.981 70.82,-39.981 65.34,0 95.62,4.121 113.93,70.274 2.65,-0.704 13.37,-2.989 13.37,-2.989 l -18.29,-88.203 c 0,0 -292.62,0 -296.96,0 0,2.891 0,11.699 0,14.629 2.28,0 5.66,0 5.66,0 22.76,0 43.87,4.277 43.87,35.352 v 300.081 c 0,31.03 -21.11,35.31 -43.87,35.31 0,0 -3.38,0 -5.66,0 0,2.93 0,11.72 0,14.65 4.33,0 279.66,0 279.66,0" /><path
         id="path56"
         style="fill:#ffffff;fill-opacity:1;fill-rule:nonzero;stroke:none"
         d="M 982.297,756.949 H 604.141 v 385.911 h 378.156 z m -67.617,-35.617 -7.817,9.277 9.867,11.711 9.864,-11.711 -7.805,-9.277 c -0.117,-4.687 -0.41,-45.605 23.711,-60.234 0,0 -8.035,-1.543 -18.828,0.527 0,0 -1.875,-10.652 -6.942,-22.832 -5.07,12.18 -6.945,22.832 -6.945,22.832 -10.781,-2.07 -18.828,-0.527 -18.828,-0.527 24.133,14.629 23.84,55.547 23.723,60.234 z m -61.582,-69.512 -7.817,9.278 9.864,11.718 9.867,-11.718 -7.805,-9.278 c -0.129,-4.687 -0.422,-45.605 23.711,-60.234 0,0 -8.035,-1.543 -18.84,0.547 0,0 -1.875,-10.672 -6.933,-22.852 -5.067,12.18 -6.93,22.852 -6.93,22.852 -10.793,-2.09 -18.84,-0.547 -18.84,-0.547 24.133,14.629 23.84,55.547 23.723,60.234 z m -61.582,69.512 -7.825,9.277 9.872,11.711 9.867,-11.711 -7.817,-9.277 c -0.105,-4.687 -0.41,-45.605 23.723,-60.234 0,0 -8.035,-1.543 -18.84,0.527 0,0 -1.875,-10.652 -6.933,-22.832 -5.067,12.18 -6.93,22.832 -6.93,22.832 -10.805,-2.07 -18.84,-0.527 -18.84,-0.527 24.133,14.629 23.84,55.547 23.723,60.234 z m -61.582,-69.512 -7.825,9.278 9.871,11.718 9.868,-11.718 -7.817,-9.278 c -0.113,-4.687 -0.41,-45.605 23.723,-60.234 0,0 -8.035,-1.543 -18.836,0.547 0,0 -1.875,-10.672 -6.938,-22.852 -5.066,12.18 -6.929,22.852 -6.929,22.852 -10.805,-2.09 -18.84,-0.547 -18.84,-0.547 24.121,14.629 23.828,55.547 23.723,60.234 z m -61.594,69.512 -7.813,9.277 9.864,11.711 9.875,-11.711 -7.817,-9.277 c -0.113,-4.687 -0.406,-45.605 23.723,-60.234 0,0 -8.047,-1.543 -18.836,0.527 0,0 -1.875,-10.652 -6.945,-22.832 -5.071,12.18 -6.934,22.832 -6.934,22.832 -10.789,-2.07 -18.84,-0.527 -18.84,-0.527 24.133,14.629 23.84,55.547 23.723,60.234 z m 93.808,-566.793 c -7.714,-4.187 -88.488,-44.5 -158.007,-79.1171 V 552.66 H 982.246 C 980.098,276.039 838.23,195.902 762.148,154.539 Z m -520.293,0 C 165.762,195.902 23.9063,276.039 21.7461,552.66 H 399.855 V 75.4297 c -69.511,34.6093 -150.292,74.9223 -158,79.1093 z m -156.6402,566.793 -7.8125,9.277 9.8633,11.711 9.875,-11.711 -7.8242,-9.277 c -0.1055,-4.687 -0.4023,-45.605 23.7186,-60.234 0,0 -8.035,-1.543 -18.8358,0.527 0,0 -1.8633,-10.652 -6.9336,-22.832 -5.0586,12.18 -6.9336,22.832 -6.9336,22.832 -10.8007,-2.07 -18.8398,-0.527 -18.8398,-0.527 24.1328,14.629 23.8398,55.547 23.7226,60.234 z m 61.5822,-69.512 -7.813,9.278 9.864,11.718 9.863,-11.718 -7.805,-9.278 c -0.117,-4.687 -0.41,-45.605 23.723,-60.234 0,0 -8.047,-1.543 -18.84,0.547 0,0 -1.883,-10.672 -6.941,-22.852 -5.059,12.18 -6.934,22.852 -6.934,22.852 -10.793,-2.09 -18.84,-0.547 -18.84,-0.547 24.133,14.629 23.84,55.547 23.723,60.234 z m 61.594,69.512 -7.817,9.277 9.856,11.711 9.863,-11.711 -7.805,-9.277 c -0.117,-4.687 -0.41,-45.605 23.723,-60.234 0,0 -8.047,-1.543 -18.84,0.527 0,0 -1.875,-10.652 -6.941,-22.832 -5.059,12.18 -6.922,22.832 -6.922,22.832 -10.805,-2.07 -18.852,-0.527 -18.852,-0.527 24.145,14.629 23.852,55.547 23.735,60.234 z m 61.582,-69.512 -7.825,9.278 9.872,11.718 9.855,-11.718 -7.805,-9.278 c -0.105,-4.687 -0.418,-45.605 23.723,-60.234 0,0 -8.047,-1.543 -18.84,0.547 0,0 -1.875,-10.672 -6.933,-22.852 -5.067,12.18 -6.942,22.852 -6.942,22.852 -10.793,-2.09 -18.828,-0.547 -18.828,-0.547 24.121,14.629 23.828,55.547 23.723,60.234 z m 61.582,69.512 -7.817,9.277 9.867,11.711 9.864,-11.711 -7.817,-9.277 c -0.105,-4.687 -0.41,-45.605 23.723,-60.234 0,0 -8.047,-1.543 -18.84,0.527 0,0 -1.875,-10.652 -6.93,-22.832 -5.058,12.18 -6.945,22.832 -6.945,22.832 -10.793,-2.07 -18.828,-0.527 -18.828,-0.527 24.133,14.629 23.828,55.547 23.723,60.234 z m 234.968,294.808 c 0,0 -1.875,-10.67 -6.945,-22.835 -5.058,12.165 -6.922,22.835 -6.922,22.835 -10.801,-2.08 -18.847,-0.54 -18.847,-0.54 24.14,14.64 23.836,55.56 23.718,60.22 l -7.808,9.3 9.859,11.71 9.875,-11.71 -7.82,-9.3 c -0.11,-4.66 -0.403,-45.58 23.719,-60.22 0,0 -8.039,-1.54 -18.829,0.54 z m -8.996,-149.417 -7.808,9.289 9.859,11.707 9.875,-11.707 -7.82,-9.289 c -0.11,-4.668 -0.403,-45.586 23.719,-60.223 0,0 -8.039,-1.535 -18.829,0.535 0,0 -1.875,-10.664 -6.945,-22.832 -5.058,12.168 -6.922,22.832 -6.922,22.832 -10.801,-2.07 -18.847,-0.535 -18.847,-0.535 24.14,14.637 23.836,55.555 23.718,60.223 z m -57.089,104.55 -7.821,9.297 9.863,11.711 9.864,-11.711 -7.801,-9.297 c -0.129,-4.668 -0.422,-45.585 23.719,-60.222 0,0 -8.047,-1.535 -18.848,0.535 0,0 -1.875,-10.664 -6.934,-22.832 -5.058,12.168 -6.933,22.832 -6.933,22.832 -10.789,-2.07 -18.836,-0.535 -18.836,-0.535 24.129,14.637 23.836,55.554 23.727,60.222 z m -57.75,-104.55 -7.817,9.289 9.863,11.707 9.875,-11.707 -7.824,-9.289 c -0.105,-4.668 -0.398,-45.586 23.723,-60.223 0,0 -8.035,-1.535 -18.836,0.535 0,0 -1.867,-10.664 -6.938,-22.832 -5.054,12.168 -6.929,22.832 -6.929,22.832 -10.793,-2.07 -18.84,-0.535 -18.84,-0.535 24.14,14.637 23.84,55.555 23.723,60.223 z m 0,209.097 -7.817,9.3 9.863,11.71 9.875,-11.71 -7.824,-9.3 c -0.105,-4.66 -0.398,-45.58 23.723,-60.22 0,0 -8.035,-1.54 -18.836,0.54 0,0 -1.867,-10.67 -6.938,-22.835 -5.054,12.165 -6.929,22.835 -6.929,22.835 -10.793,-2.08 -18.84,-0.54 -18.84,-0.54 24.14,14.64 23.84,55.56 23.723,60.22 z M 582.645,575.914 V 512.23 h -36.832 v 63.684 H 452.738 V 512.23 h -36.871 v 64.329 h -31.336 v 165.496 h 33.938 c 3.832,8.078 9.058,11.64 17.152,11.64 8.039,0 13.172,-3.379 17.777,-11.64 h 27.793 c 3.375,7.414 10.02,11.66 18.223,11.66 7.551,0 14.824,-4.91 17.32,-11.66 h 25.864 c 3.894,7.531 9.867,11.66 16.929,11.66 7.196,0 13.036,-3.301 17.309,-9.727 l 1.309,-1.933 H 614.02 V 575.914 Z m -16.122,-245.07 c 0,0 -1.875,-10.664 -6.945,-22.852 -5.058,12.188 -6.922,22.852 -6.922,22.852 -10.801,-2.09 -18.847,-0.547 -18.847,-0.547 24.14,14.629 23.836,55.558 23.718,60.234 l -7.808,9.278 9.859,11.718 9.875,-11.718 -7.82,-9.278 c -0.11,-4.676 -0.403,-45.605 23.719,-60.234 0,0 -8.039,-1.543 -18.829,0.547 z m -8.996,-149.403 -7.808,9.278 9.859,11.707 9.875,-11.707 -7.82,-9.278 c -0.11,-4.679 -0.403,-45.601 23.719,-60.23 0,0 -8.039,-1.551 -18.829,0.527 0,0 -1.875,-10.66 -6.945,-22.8396 -5.058,12.1796 -6.922,22.8396 -6.922,22.8396 -10.801,-2.078 -18.847,-0.527 -18.847,-0.527 24.14,14.629 23.836,55.551 23.718,60.23 z m -57.089,313.641 -7.821,9.277 9.863,11.719 9.864,-11.719 -7.801,-9.277 c -0.129,-4.676 -0.422,-45.586 23.719,-60.215 0,0 -8.047,-1.562 -18.848,0.528 0,0 -1.875,-10.665 -6.934,-22.852 -5.058,12.187 -6.933,22.852 -6.933,22.852 -10.789,-2.09 -18.836,-0.528 -18.836,-0.528 24.129,14.629 23.836,55.539 23.727,60.215 z M 476.711,225.746 c 24.129,14.629 23.836,55.567 23.727,60.234 l -7.821,9.29 9.863,11.707 9.864,-11.707 -7.801,-9.29 c -0.129,-4.667 -0.422,-45.605 23.719,-60.234 0,0 -8.047,-1.543 -18.848,0.547 0,0 -1.875,-10.664 -6.934,-22.84 -5.058,12.176 -6.933,22.84 -6.933,22.84 -10.789,-2.09 -18.836,-0.547 -18.836,-0.547 z m -34.023,-44.305 -7.817,9.278 9.863,11.707 9.875,-11.707 -7.824,-9.278 c -0.105,-4.679 -0.398,-45.601 23.723,-60.23 0,0 -8.035,-1.551 -18.836,0.527 0,0 -1.867,-10.66 -6.938,-22.8396 -5.054,12.1796 -6.929,22.8396 -6.929,22.8396 -10.793,-2.078 -18.84,-0.527 -18.84,-0.527 24.14,14.629 23.84,55.551 23.723,60.23 z m 0,209.09 -7.817,9.278 9.863,11.718 9.875,-11.718 -7.824,-9.278 c -0.105,-4.676 -0.398,-45.605 23.723,-60.234 0,0 -8.035,-1.543 -18.836,0.547 0,0 -1.867,-10.664 -6.938,-22.852 -5.054,12.188 -6.929,22.852 -6.929,22.852 -10.793,-2.09 -18.84,-0.547 -18.84,-0.547 24.14,14.629 23.84,55.558 23.723,60.234 z M 21.6992,1142.86 H 399.855 V 756.949 H 21.6992 Z M 0,1164.55 V 559.008 C 0,261.285 156.348,176.309 231.484,135.469 245.281,127.969 477.156,12.7188 492.012,5.33984 L 502.004,0 511.98,5.33984 C 525.398,12.0117 758.684,127.949 772.512,135.469 847.645,176.309 1004,261.285 1004,559.008 V 1164.55 H 0" /><path
         id="path58"
         style="fill:#ffffff;fill-opacity:1;fill-rule:nonzero;stroke:none"
         d="m 149.262,1024.11 c -2.922,7.22 -4.223,11.6 -4.223,14.25 0,2.43 1.879,4.03 4.781,4.03 1.547,0 3.125,-0.43 4.575,-1.28 2.484,-1.48 3.781,-2.24 3.859,-2.28 l 3.699,-0.33 1.731,0.01 6.742,0.32 5.133,3.24 2.988,-0.71 c 3.539,0 4.398,-1.04 4.398,-4.94 0,-5.7 -3.57,-8.08 -9.972,-24.19 -2.836,-7.08 -3.395,-11.2 -7.602,-11.2 -4.719,0 -8.266,3.81 -11.926,12.83 z m -12.176,53.5 -0.039,0.83 c 0,1.76 0.558,2.42 1.945,2.42 0.856,0 2.446,-0.72 3.551,-1.65 l 8.664,-7.03 5.418,-2.9 c 1.5,-0.79 2.32,-1.83 2.32,-3.08 l -0.382,-2.02 c -0.79,-2.7 -0.161,-5.71 -0.208,-6.83 -0.281,-5.73 -4.628,-5.67 -6.382,-5.67 -1.059,0 -0.504,0.66 -3.012,3.54 l -7.059,8 c -2.172,2.46 -4.058,8.07 -4.816,14.39 z m 35.898,-5.73 c 6.34,2.36 8.348,3.46 10.903,5.76 l 3.531,3.2 0.324,0.1 c 0.934,0 1.606,-1.03 1.606,-2.39 0,-4.09 -4.364,-11.59 -8.887,-19.3 -3.328,-5.63 -4.879,-9.18 -6.227,-9.18 -1.578,0 -3.125,2.47 -3.468,5.42 l -0.653,3.86 -1.601,4.5 -0.453,2.57 c 0,2.64 1.304,4.08 4.925,5.46 z m 183.028,-86.056 c 0,9.922 -5.196,21.156 -13.125,28.356 -4.528,4.04 -9.024,7.07 -10.59,7.07 -0.906,0 -1.621,-0.74 -1.621,-1.7 l 0.324,-4.09 0.023,-0.38 c 0,-1.6 -0.941,-2.85 -2.191,-2.85 -1.625,0 -3.441,2.11 -5.531,6.42 -6.067,12.62 -15.684,20.12 -25.641,20.12 -1.687,0 -2.859,-0.71 -2.859,-1.7 0,-0.66 0.515,-2.23 1.578,-4.64 l 2.559,-5.77 c 0.675,-1.52 1.042,-2.52 1.042,-2.95 0,-0.35 -0.617,-0.71 -1.363,-0.71 -1.484,0 -3.816,1.31 -5.441,3.01 l -4.781,5.14 -4.18,6.42 c -3.356,5.12 -6.027,7.45 -13.152,11.2 -3.969,2.12 -6.532,3.52 -7.688,4.18 -1.477,0.84 -2.84,1.29 -3.984,1.29 -1.145,0 -1.715,-0.54 -1.715,-1.67 0,-1.03 0.445,-2.25 1.226,-3.47 2.368,-3.67 3.289,-5.48 3.289,-6.43 0,-1.01 -0.753,-1.89 -1.656,-1.89 -2.465,0 -7.66,5.04 -12.222,11.84 -3.774,5.65 -5.786,11.93 -5.786,18.01 0,13.78 10.055,24.01 23.672,24.01 7.031,0 15.91,-2.98 24.106,-8.02 l 15.054,-9.31 c 5.239,-3.24 12.938,-5.77 17.528,-5.77 2.035,0 6.261,0.72 9.398,1.61 1.403,0.38 2.699,0.92 3.844,1.59 0.883,0.54 1.512,1.26 1.512,1.81 0,0.64 -0.352,1.22 -0.883,1.4 l -1.914,0.63 -7.047,1.31 c -1.824,0.32 -4.75,1.4 -8.633,3.21 -8.473,3.86 -13.836,6.55 -16.043,8 -5.269,3.45 -8.812,5.48 -10.566,6.07 -2.61,0.88 -4.235,2.05 -4.235,3.05 0,0.96 0.493,1.41 1.442,1.41 0.902,0 2.101,-0.42 3.414,-1.22 4.722,-2.95 8.836,-4.51 11.859,-4.51 l 13.789,-4.8 c 6.844,-2.39 16.817,-4.48 21.317,-4.48 5.812,0 10.523,4.73 10.523,10.59 0,3.76 -2.246,9.41 -5.559,14.06 -0.746,1.05 -1.511,1.64 -2.156,1.64 -1.293,0 -1.992,-0.92 -1.992,-2.57 l 0.293,-2.58 0.504,-3.83 c 0,-4.16 -2.801,-7.42 -6.356,-7.42 -1.304,0 -2.996,0.34 -5.043,1.01 l -20.82,6.7 c -17.472,5.65 -25.535,7.39 -34.297,7.39 -24.922,-0.04 -43.929,-17.14 -43.929,-39.65 0,-25.5 17.914,-41.96 62.191,-57.14 43.566,-14.961 49.688,-18.593 49.688,-29.824 0,-6.426 -6.528,-12.18 -13.801,-12.18 -2.949,0 -5.535,0.247 -7.688,0.645 -1.48,0.312 -8.734,2.023 -21.781,5.117 -13.16,3.164 -25.121,4.512 -39.898,4.512 -31.446,0 -48.875,-5.508 -63.969,-20.215 -3.754,-3.672 -5.028,-4.227 -9.363,-4.227 l -2.157,0.079 -4.488,0.312 -0.578,0.008 c -3.781,0 -6.539,-1.746 -9.039,-5.781 -3.391,-5.418 -5.223,-8.321 -5.453,-8.661 -0.895,-1.21 -2.262,-1.914 -3.66,-1.914 -2.883,0 -4.598,2.176 -7.868,9.922 -1.586,3.778 -3.879,7.059 -6.726,9.649 l -6.414,5.769 c -1.051,0.93 -1.617,1.797 -1.617,2.442 0,0.715 0.453,1.738 1.273,2.988 3.074,4.465 4.137,6.457 4.504,8.359 0.851,4.258 0.98,4.465 2.73,4.465 1.993,0 2.563,-1.972 2.711,-9.308 0.051,-2.118 0.907,-5.059 2.582,-8.641 l 3.532,-7.695 c 0.441,-0.996 1.578,-1.621 2.886,-1.621 3.317,0 7.508,7.793 8.649,16.043 0.918,6.886 1.648,9.003 3.07,9.003 0.598,0 1.113,-0.242 1.406,-0.671 0.324,-0.469 1.309,-2.383 2.879,-5.762 0.848,-1.778 2.262,-3.43 4.176,-4.817 1.844,-1.355 3.148,-2.117 3.844,-2.253 l 0.39,-0.04 c 2.598,0 3.481,1.7 4.098,7.754 l 0.316,3.192 -0.644,4.511 -0.449,3.098 c 0,2.059 0.726,3.301 1.898,3.301 0.707,0 1.563,-0.449 2.399,-1.281 l 3.21,-3.223 c 2.129,-2.109 4.29,-3.191 6.34,-3.191 2.66,0 4.301,1.082 4.301,2.839 0,1.543 -0.594,3.059 -2.965,7.415 l -2.23,4.16 c -2.574,4.832 -4.614,6.742 -7.02,6.742 l -3.238,-0.31 -3.824,-1.6 c -1.18,-0.48 -2.028,-0.74 -2.52,-0.74 -0.605,0 -1.019,0.54 -1.019,1.27 0,2.87 1.867,7.4 5.445,13.06 2.531,4.06 4.285,12.73 5.121,25.17 1.094,16.74 3.336,27.59 5.668,27.59 1.602,0 2.191,-1.35 2.191,-4.92 l -0.16,-4.41 -0.117,-3.06 c 0,-3 0.66,-5.41 1.442,-5.41 2.746,0 6,4.09 8.593,10.72 1.082,2.78 1.657,4.99 1.657,6.53 l -0.36,1.5 -6.398,11.87 -6.418,1.9 c -1.188,0.36 -1.992,0.9 -2.246,1.44 v 7.84 l -0.637,3.87 -1.301,3.2 -1.578,3.52 c -7.031,-3.81 -10.359,-6.31 -12.832,-9.61 -2.508,-3.35 -3.93,-4.64 -5.18,-4.64 -0.832,0 -1.55,0.79 -1.55,1.69 0,0.8 0.316,2.51 0.96,5.21 l 0.2,1.79 c 0,6.9 -4.2,13.68 -11.094,18.06 l -1.914,-2.56 -2.254,-3.2 -3.844,-4.5 c -1.226,-1.42 -2.324,-3.6 -3.219,-6.4 -0.429,-1.36 -0.656,-2.6 -0.656,-3.66 l 0.016,-0.5 0.035,-1.17 c 0,-2.66 -0.289,-3.35 -1.484,-3.35 l -0.797,0.35 -2.246,3.19 -3.508,3.85 -5.449,3.53 -2.879,2.23 c -0.578,-1.26 -1.004,-2.23 -1.285,-2.87 -0.997,-2.23 -1.536,-3.97 -1.594,-5.14 l -0.348,-5.12 -0.312,-5.43 0.039,-0.95 c 0,-2.81 -0.68,-3.89 -2.383,-3.89 -0.567,0 -2.192,0.68 -3.746,1.61 -1.41,0.83 -3.035,1.31 -4.637,1.31 -4.992,0 -8.195,-3.45 -8.195,-8.86 0,-6.39 1.89,-12.54 5.156,-16.8 l 4.145,-5.45 c 1.156,-1.46 3.269,-2.71 3.378,-1.91 l 0.797,6.71 -0.968,5.44 -0.192,2.46 c 0,2.05 0.719,3.34 1.903,3.34 1.816,0 2.902,-1.99 4.062,-7.38 l 2.547,-11.87 2.582,-15.06 c 0.684,-4.05 1.98,-8.35 3.832,-12.82 2.543,-6.04 4.375,-9.8 5.453,-11.21 3.57,-4.58 3.949,-5.19 3.949,-6.21 0,-0.79 -0.64,-1.49 -1.375,-1.49 -0.679,0 -1.675,0.34 -2.886,0.96 -1.11,0.57 -2.391,1.03 -3.848,1.29 l -2.504,0.36 c -5.156,0 -6.199,-4.42 -6.199,-25.813 0,-13.067 2.758,-30.782 6.148,-39.297 l 6.715,-17.004 c 1.074,-2.656 1.602,-5.371 1.602,-7.949 0,-23.379 -30.993,-60.059 -65.0472,-76.981 -12.6719,-6.261 -16.7149,-12.297 -17.625,-26.261 l -0.3165,-4.188 c 5.1563,2.695 7.2696,3.574 10.879,4.492 9.5585,2.489 11.4062,3.692 12.8437,8.348 l 1.2578,4.172 c 0.4961,1.57 1.3008,2.136 8.6641,6.082 2.5311,1.328 4.2971,2.785 5.1411,4.152 1.613,2.703 2.949,4.141 3.808,4.141 0.789,0 1.234,-0.371 1.234,-1.035 l -0.261,-1.145 -3.192,-9.16 -0.386,-2.246 c 0,-6.785 3.714,-12.313 10.648,-15.848 1.137,7.41 1.914,9.949 4.176,13.438 l 5.754,8.984 c 2.144,3.34 3.039,7.383 3.039,13.719 0,3.586 -0.289,7.277 -0.793,10.012 l -0.215,2.539 c 0,1.621 0.848,2.566 2.254,2.566 1.109,0 2.004,-0.391 2.121,-0.945 l 1.301,-6.094 c 0.25,-1.32 1.582,-2.258 3.109,-2.258 3.086,0 7.094,4.016 11.309,11.223 1.547,2.683 2.383,5.605 2.383,8.484 l -0.485,4.348 -0.953,4.785 -0.074,0.937 c 0,2.098 1.172,3.575 2.832,3.575 0.734,0 1.324,-0.274 1.426,-0.625 l 1.902,-7.403 c 0.645,-2.453 2.371,-4.172 4.16,-4.172 2.153,0 5.852,3.711 8.02,8.028 1.941,3.82 2.894,8.156 2.894,13.105 0,6.848 0.707,8.801 3.207,8.801 0.805,0 1.453,-0.285 1.598,-0.762 l 1.281,-4.172 c 0.496,-1.523 1.403,-2.539 2.297,-2.539 1.324,0 4.918,3.879 7.324,8 0.645,1.063 0.981,2.118 0.981,2.977 0,1.379 -0.918,2.754 -2.895,4.406 -3.355,2.762 -3.547,3.192 -3.547,7.371 0,4.024 0.657,6.145 3.547,11.203 1.547,2.743 2.926,5.293 4.16,7.704 4.051,7.929 5.493,9.96 6.973,9.96 1.23,0 2.34,-1.335 2.34,-2.82 0,-0.84 -0.215,-1.75 -0.668,-2.648 -0.867,-1.805 -1.297,-3.086 -1.297,-3.809 0,-1.258 1.063,-2.305 2.379,-2.305 1.476,0 3.434,0.676 5.648,1.926 0.86,0.508 3.86,1.649 8.961,3.535 l 10.602,3.836 c 1.738,0.637 3.91,0.977 6.414,0.977 1.969,0 3.875,-0.215 5.75,-0.645 3.781,-0.859 6.254,-1.308 7.391,-1.308 2.894,0 5.468,2.5 5.468,5.344 0,2.136 -2.207,6.328 -5.156,9.734 -1.098,1.289 -1.648,2.258 -1.648,2.922 l 0.375,1.269 c 0.418,0.789 1.07,1.289 1.703,1.289 2.152,0 7.222,-5.402 11.758,-12.539 27.582,-43.437 37.484,-53.957 56.093,-59.601 18.844,-5.742 23.77,-10.145 23.77,-21.336 0,-6.125 -3.137,-13.254 -9.988,-22.871 -13.957,-19.524 -17.329,-27.414 -17.329,-40.293 l 0.016,-2.375 c 1.578,0.676 2.75,1.211 3.531,1.621 2.61,1.32 4.352,2.101 5.117,2.246 l 8.004,1.594 c 2.407,0.496 4.551,3.582 4.551,6.55 l -0.051,0.813 -0.961,7.059 -0.074,0.937 c 0,2.5 1.246,5.363 2.953,6.77 0.532,0.398 1.094,0.683 1.672,0.683 0.883,0 1.969,-0.84 2.512,-1.984 l 5.121,-10.879 c 2.106,-4.453 4.547,-6.563 11.199,-9.617 -0.867,3.855 -1.179,5.84 -1.179,7.734 l 0.222,2.52 0.957,5.136 0.344,4.141 c 0,4.453 -0.758,7.617 -2.258,9.617 l -3.855,5.137 c -1.25,1.711 -2.375,3.769 -3.192,6.113 -0.441,1.152 -0.656,2.09 -0.656,2.695 0,1.457 0.871,2.356 2.316,2.356 0.864,0 1.204,-0.156 4.106,-1.867 1.242,-0.731 2.328,-1.094 3.133,-1.094 1.902,0 2.965,3.098 2.965,8.535 0,6.184 -0.567,9.629 -1.918,11.164 l -4.828,5.438 -4.161,3.527 c -1.004,0.867 -1.703,1.953 -1.703,2.793 0,1.375 1.063,2.344 2.614,2.344 1.449,0 4.527,-0.696 7.093,-1.621 l 1.465,-0.305 c 1.324,0 1.828,0.762 1.828,2.656 l -0.078,1.172 -0.969,6.75 -1.902,7.039 c -0.633,2.297 -0.988,2.649 -2.434,2.649 l -0.804,-0.098 -7.985,-1.582 -1.285,-0.129 c -10.5,0 -21.605,8.867 -25.004,19.992 l -6.406,20.828 c -1.98,6.438 -6.781,12.539 -15.398,19.582 -2.59,2.118 -4.821,3.321 -6.395,3.485 l -5.789,0.664 c -1.055,0.117 -1.738,0.722 -1.738,1.601 0,1.309 1.234,1.914 3.988,1.914 l 10.57,-0.945 c 3.86,-0.363 9.684,-1.867 17.309,-4.492 9.594,-3.301 16.062,-4.719 21.508,-4.719 16.019,0 25.625,8.672 25.625,23.164" /><path
         id="path60"
         style="fill:#ffffff;fill-opacity:1;fill-rule:nonzero;stroke:none"
         d="m 89.5156,1016.07 c 2.0586,0 5.2539,3.91 6.8555,8.38 0.9805,2.71 1.4531,5.06 1.4531,7.48 0,2.12 -0.5195,4.69 -1.4531,7.25 -1.1602,3.26 -2.9492,5.11 -4.8672,5.11 -2.3398,0 -3.5391,-2.01 -3.7812,-6.41 l -0.6289,-6.08 c -0.7422,-5.68 -0.7891,-6.28 -0.7891,-7.75 0,-4.58 1.3555,-7.98 3.2109,-7.98" /><path
         id="path62"
         style="fill:#ffffff;fill-opacity:1;fill-rule:nonzero;stroke:none"
         d="m 129.082,940.445 -0.629,6.746 -0.656,6.075 -0.645,7.05 c -0.062,1.817 -0.566,2.649 -1.578,2.649 -0.789,0 -2.074,-1.067 -2.894,-2.317 -5.043,-7.683 -8.535,-10.253 -13.918,-10.253 -17.094,0 -30.012,30.058 -30.012,69.805 0,3.46 0.2383,7.86 0.6445,13.21 0.8203,10.17 0.9961,12.72 0.9961,16.51 0,17.25 -3.6054,29.38 -10.9258,36.7 l -4.4882,4.48 -2.8907,3.18 0.0547,-2.76 c 0,-3.98 -0.9609,-8.72 -4.2109,-20.97 -0.6055,-2.26 -0.957,-4.44 -0.957,-5.82 0,-2.15 0.7773,-4.48 2.5586,-7.29 1.0468,-1.65 2.0429,-2.81 2.8984,-3.2 l 3.832,-1.92 0.6289,-4.49 c -0.1523,-1.76 0.1914,-4.16 0.9571,-7.07 0.8828,-3.15 1.3359,-6.39 1.3359,-9.55 0,-2.7 -0.2227,-3.76 -0.8359,-3.76 -1.2032,0 -3.3477,3.3 -5.2774,8.2 -3.1015,7.75 -5.8711,10.62 -10.2461,10.62 -3.5078,0 -5.789,-0.6 -9.9883,-2.61 1.0196,-1.25 1.6524,-2.1 1.9454,-2.57 0.25,-0.38 1.2109,-2.22 2.8984,-5.44 L 52.168,1027 c 3.0976,-6.01 4.9179,-9.41 5.4336,-10.26 1.1718,-1.87 2.6953,-3.4 4.4843,-4.51 0.5547,-0.3 2.2696,-1.27 5.1211,-2.88 1.5743,-0.85 2.6446,-2.07 2.6446,-2.95 0,-1.44 -1.1993,-2.47 -2.7618,-2.47 h -0.1992 l -4.1601,0.62 -2.336,0.26 c -1.2578,0 -1.8515,-1.16 -1.8515,-3.58 0,-8.656 6.9062,-18.695 18.9453,-27.425 1.4258,-1.075 2.5742,-2.598 2.5742,-3.469 0,-1.063 -1.1133,-2.02 -2.3711,-2.02 -0.7578,0 -2.6328,0.594 -4.0586,1.289 -0.918,0.469 -1.6758,0.704 -2.2305,0.704 -1.5781,0 -2.6093,-1.309 -2.6093,-3.282 0,-2.277 1.8359,-6.816 5.8125,-14.414 2.5976,-4.953 6.4492,-8.691 10.8906,-10.547 l 14.4141,-6.113 c 0.7738,-0.305 1.3008,-1.066 1.3008,-1.906 0,-1.152 -0.84,-2.117 -1.9376,-2.254 l -2.9023,-0.305 -2.5586,-0.32 -4.1445,0.32 h -0.6211 c -2.0235,0 -2.8125,-0.39 -2.8125,-1.406 0,-1.609 1.7695,-5.586 4.6914,-10.469 3.4375,-5.742 6.4258,-8.984 8.2851,-8.984 0.75,0 1.5081,0.644 2.0001,1.594 l 3.519,7.39 c 0.59,1.27 3.493,3.508 8.333,6.407 3.058,1.867 6.113,3.078 8.972,3.527 l 5.762,0.984 c 1.523,0.254 2.305,1.27 2.305,3.047 l -0.063,0.774 -0.957,6.093" /><path
         id="path64"
         style="fill:#ffffff;fill-opacity:1;fill-rule:nonzero;stroke:none"
         d="m 77.8086,851.031 c 1.5625,-1.25 3.4219,-1.945 5.2773,-1.945 6.2774,0 11.7344,2.941 20.3481,10.91 -4.477,0.652 -6.5707,1.16 -9.3012,2.254 -0.7578,0.305 -2.7851,1.152 -6.082,2.539 -5.1641,2.207 -9.0313,3.242 -12.2617,3.242 -4.8399,0 -8.7969,-1.64 -13.3594,-5.476 l 2.8711,-2.227 6.4023,-4.492 6.1055,-4.805" /><path
         id="path66"
         style="fill:#ffffff;fill-opacity:1;fill-rule:nonzero;stroke:none"
         d="m 261.738,896.578 c 0,1.231 0.25,2.442 0.668,3.485 l 2.242,5.46 c 0.657,1.532 0.981,3.262 0.981,5.106 0,3.34 -1.098,6.691 -3.223,9.953 -2.562,3.945 -3.961,6.191 -4.176,6.727 -1.886,5.07 -2.859,6.484 -4.437,6.484 l -1.621,-0.391 -2.246,-1.269 -3.543,-1.942 -4.16,-5.148 -4.485,-2.215 c -2.683,-1.348 -5.218,-7.062 -5.218,-11.777 0,-8.332 0.941,-10.625 11.921,-29.59 4.289,-7.316 6.532,-13.652 6.532,-18.32 0,-13.125 -11.758,-22.481 -35.36,-28.137 l -14.734,-3.524 c -10.856,-2.617 -17.258,-10.058 -19.563,-22.773 4.5,2.324 6.266,2.656 14.207,2.656 l 4.715,-0.058 0.742,-0.012 c 4.274,0 4.864,0.293 7.575,4.172 3.179,4.433 6.293,7.07 10.59,8.933 l 5.132,2.266 4.168,2.246 1.274,0.332 c 1.144,0 1.765,-0.469 1.765,-1.316 0,-1.25 -1.171,-3.352 -3.039,-5.43 -3.695,-4.101 -5.129,-7.551 -5.129,-12.414 0,-3.086 0.747,-4.891 3.532,-8.426 1.75,3.985 2.582,5.078 6.414,8.348 8.949,7.687 13.121,13.391 13.121,17.941 v 7.059 c 0,4.113 0.695,5.461 2.84,5.461 0.953,0 1.722,-0.371 1.976,-0.977 l 1.59,-3.82 c 0.375,-0.906 1.449,-1.484 2.707,-1.484 1.223,0 3.078,1.464 4.68,3.73 l 3.215,4.465 c 1.597,2.234 2.316,4.168 2.316,6.258 0,1.25 -0.262,2.492 -0.719,3.691 -0.261,0.617 -1.008,2.317 -2.246,5.11 -0.738,1.648 -1.32,3.855 -1.32,5.019 0,2.098 1.058,3.34 2.875,3.34 0.941,0 1.789,-0.371 2.281,-1.008 l 2.57,-3.172 c 0.555,-0.695 1.461,-1.125 2.434,-1.125 1.172,0 2.535,1.125 3.324,2.707 l 2.567,5.137 c 0.668,1.297 1.011,2.293 1.011,2.859 0,0.996 -1.043,2.032 -2.921,2.903 l -4.172,1.941 c -5.493,2.52 -9.653,11.348 -9.653,20.539" /><path
         id="path68"
         style="fill:#ffffff;fill-opacity:1;fill-rule:nonzero;stroke:none"
         d="m 196.078,842.691 c 3.063,-4.179 3.5,-4.503 6.52,-4.503 1.297,0 2.882,0.226 4.687,0.675 l 2.871,0.625 c 5.293,1.024 7.086,1.797 7.086,3.094 0,0.773 -0.582,1.758 -1.629,2.676 l -3.511,3.195 -3.516,3.223 c -2.273,2.07 -6.746,3.594 -10.578,3.594 -3.86,0 -6.09,-0.782 -11.563,-3.926 3.688,-2.305 7.442,-5.637 9.633,-8.653" /><path
         id="path70"
         style="fill:#ffffff;fill-opacity:1;fill-rule:nonzero;stroke:none"
         d="m 313.367,846.664 c 0,2.199 -2.004,3.418 -5.648,3.418 -8.637,0 -14.059,-4.969 -17.414,-16.055 l 1.914,0.344 2.898,0.313 2.887,-0.313 1.41,-0.098 c 7.117,0 13.953,6.036 13.953,12.391" /><path
         id="path72"
         style="fill:#ffffff;fill-opacity:1;fill-rule:nonzero;stroke:none"
         d="m 159.848,1012.58 c 0.711,-3.7 2.07,-5.14 4.832,-5.14 3.136,0 5.082,2.15 5.433,6.09 l 0.641,7.06 c 0.418,4.68 0.629,7.14 0.629,7.32 0,0.69 -0.352,1.39 -0.957,1.96 -0.465,0.44 -1.047,0.69 -1.613,0.69 l -0.301,-0.04 -5.133,-0.97 h -4.168 c -0.606,0 -1.238,-0.35 -1.606,-0.95 l -0.628,-1.6 1.586,-7.71 1.285,-6.71" /><path
         id="path74"
         style="fill:#ffffff;fill-opacity:1;fill-rule:nonzero;stroke:none"
         d="m 737.055,1080.86 c 0.855,0 2.457,-0.72 3.582,-1.65 l 8.633,-7.03 5.457,-2.9 c 1.527,-0.8 2.421,-2.19 2.421,-3.75 l -0.191,-1.35 -1.586,-5.79 -0.996,-6.41 c -0.102,-0.77 -0.805,-1.31 -1.676,-1.31 l -0.226,0.03 c -1.325,0.4 -4.731,1.84 -6.969,4.41 l -4.84,8.11 c -0.746,0.81 -2.629,3.87 -4.215,8.96 -0.566,1.85 -1.004,3.66 -1.258,5.43 l -0.074,0.93 c 0,1.61 0.574,2.32 1.938,2.32 z m 23.008,-42.36 1.699,0.01 7.062,0.32 4.797,3.24 1.867,0.37 c 3.5,0 7.614,-3.53 7.614,-7.21 0,-3.16 -4.235,-5.03 -5.938,-9.52 l -3.543,-14.44 c -2.605,-6.82 -5.949,-10.23 -10.098,-10.23 -4.828,0 -8.496,3.86 -12.007,12.82 -1.637,4.13 -3.024,7.55 -4.176,10.25 -2.649,6.3 -4.082,10.95 -4.082,13.37 0,3.09 1.762,4.91 4.703,4.91 1.512,0 3.062,-0.43 4.5,-1.28 2.441,-1.45 3.738,-2.23 3.867,-2.28 z m 11.328,33.36 c 4.097,1.48 8.519,3.89 10.578,5.75 l 3.515,3.25 0.352,0.1 c 0.894,0 1.59,-1.05 1.59,-2.4 0,-4.1 -3.758,-10.53 -8.293,-18.26 -3.34,-5.63 -5.461,-10.23 -6.82,-10.23 -1.575,0 -3.129,2.45 -3.489,5.42 l 0.414,2.81 -2.66,5.53 -0.469,2.59 c 0,2.72 1.2,3.97 5.282,5.44 z m -39.743,-21.48 2.555,-15.06 c 0.699,-4.05 1.996,-8.35 3.863,-12.82 2.52,-6.04 4.344,-9.8 5.43,-11.21 3.555,-4.58 3.969,-5.19 3.969,-6.21 0,-0.79 -0.652,-1.49 -1.395,-1.49 -0.683,0 -1.668,0.34 -2.902,0.96 -1.105,0.57 -2.367,1.03 -3.832,1.29 l -2.34,0.35 c -5.312,0 -6.391,-4.27 -6.391,-25.561 0,-13.27 2.754,-30.965 6.165,-39.539 l 6.726,-17.004 c 1.07,-2.656 1.633,-5.371 1.633,-7.969 0,-23.437 -31.711,-60.887 -65.086,-76.961 -12.992,-6.23 -16.84,-12.746 -17.949,-30.449 5.558,2.656 7.789,3.523 11.222,4.492 9.45,2.645 11.481,3.992 12.801,8.348 l 1.285,4.172 c 0.571,1.777 1.77,2.656 8.352,6.082 2.465,1.281 4.23,2.715 5.125,4.152 1.676,2.762 2.953,4.129 3.801,4.129 0.925,0 1.406,-0.613 1.406,-1.66 l -0.074,-0.508 -3.547,-9.16 -0.391,-2.254 c 0,-6.73 3.762,-12.316 10.664,-15.84 0.446,1.688 0.758,2.969 0.95,3.828 1.136,4.903 2.23,8.125 3.203,9.61 l 6.113,8.984 c 2.191,3.242 2.598,5.379 2.598,13.652 l -0.368,10.079 -0.191,2.566 c 0,1.672 0.793,2.57 2.242,2.57 1.11,0 2.039,-0.422 2.117,-0.976 l 0.95,-6.094 c 0.222,-1.301 1.55,-2.258 3.132,-2.258 3.11,0 7.075,3.965 11.313,11.223 1.609,2.832 2.269,5.039 2.269,7.656 0,2.031 -0.418,6.512 -1.011,9.961 l -0.137,1.894 c 0,1.59 0.941,2.598 2.445,2.598 0.809,0 1.438,-0.254 1.547,-0.605 l 2.246,-7.403 c 0.758,-2.461 2.457,-4.172 4.211,-4.172 4.918,0 10.012,10.071 10.535,20.832 0.321,6.766 1.164,9.122 3.231,9.122 0.797,0 1.41,-0.293 1.586,-0.782 l 1.265,-4.172 c 0.473,-1.523 1.395,-2.539 2.297,-2.539 0.813,0 2.438,1.426 4.453,3.829 1.11,1.386 2.098,2.765 2.887,4.171 0.617,1.133 0.949,2.274 0.949,3.379 0,1.621 -0.332,2.059 -2.886,4.004 -2.344,1.766 -3.52,4.031 -3.52,6.719 0,4.648 1.969,9.637 7.676,19.559 5.234,8.996 5.937,10.039 7.211,10.039 1.195,0 2.129,-1.192 2.129,-2.735 0,-0.945 -0.25,-1.914 -0.68,-2.812 -0.855,-1.875 -1.309,-3.145 -1.309,-3.836 0,-1.25 1.145,-2.278 2.543,-2.278 1.567,0 3.547,0.676 5.829,1.926 1.371,0.77 4.273,1.961 8.656,3.535 5.953,2.137 9.59,3.446 10.886,3.836 2.008,0.637 4.297,0.989 6.598,0.989 1.852,0 3.719,-0.227 5.586,-0.657 3.649,-0.859 6.133,-1.308 7.383,-1.308 2.91,0 5.172,2.226 5.172,5.07 0,1.277 -0.875,3.699 -1.985,5.547 -1.648,2.656 -2.617,4.199 -2.871,4.461 -1.414,1.484 -1.965,2.297 -1.965,2.891 l 0.352,1.3 c 0.395,0.789 1.082,1.289 1.801,1.289 2.535,0 7.492,-5.175 11.965,-12.539 25.129,-41.035 37.312,-54.004 55.789,-59.601 19.258,-5.84 23.773,-9.903 23.773,-21.387 0,-6.082 -3.219,-13.445 -10,-22.82 -12.816,-17.793 -17.328,-28.203 -17.328,-40.032 l 0.035,-2.636 c 1.563,0.676 2.746,1.211 3.52,1.621 2.633,1.32 4.336,2.101 5.14,2.246 l 7.981,1.594 c 2.519,0.507 4.535,3.504 4.535,6.726 l -0.039,0.637 -0.613,7.059 -0.075,1.113 c 0,3.976 1.938,7.246 4.336,7.246 0.895,0 1.914,-0.809 2.453,-1.953 l 5.133,-10.879 c 2.082,-4.453 4.528,-6.563 11.215,-9.617 -0.75,2.918 -1.004,4.316 -1.004,5.886 l 0.367,4.368 c 0.789,5.996 1.032,8.867 1.032,12.468 0,2.356 -0.692,4.25 -2.321,6.426 l -3.859,5.137 c -2.504,3.359 -3.5,5.879 -3.5,8.75 0,1.848 0.426,2.473 1.703,2.473 l 1.484,-0.313 c 0.168,-0.098 1.125,-0.637 2.872,-1.613 1.3,-0.731 2.398,-1.094 3.203,-1.094 1.937,0 2.902,3.008 2.902,9.016 0,8.339 -1.562,12.332 -6.402,16.121 l -4.477,3.527 c -0.793,0.625 -1.312,1.668 -1.312,2.617 0,1.543 0.906,2.539 2.355,2.539 0.899,0 2.16,-0.254 3.731,-0.664 l 3.546,-0.976 1.364,-0.305 c 1.09,0 1.586,0.852 1.586,2.715 l -0.067,1.113 -0.957,6.75 c -1.019,6.992 -2.168,9.656 -4.234,9.656 l -0.57,-0.066 -8.329,-1.582 -1.41,-0.129 c -10.011,0 -21.82,9.492 -24.883,19.992 l -6.089,20.828 c -1.813,6.231 -7.25,13.106 -15.403,19.582 -2.66,2.071 -4.984,3.309 -6.722,3.485 l -5.754,0.664 c -1.051,0.117 -1.754,0.754 -1.754,1.574 0,1.328 1.105,1.953 3.476,1.953 8.129,0 16.817,-1.66 28.403,-5.449 10.523,-3.457 16.273,-4.719 21.418,-4.719 16.05,0 25.711,8.371 25.711,22.238 0,6.954 -2.52,15.692 -6.106,21.262 -3.125,4.8 -8.391,9.74 -15.086,14.09 -0.98,0.65 -1.863,1 -2.519,1 -0.911,0 -1.641,-0.71 -1.641,-1.62 l 0.328,-4.17 0.016,-0.38 c 0,-1.57 -0.91,-2.85 -2.043,-2.85 -1.778,0 -3.617,2.08 -5.66,6.42 -5.903,12.52 -15.418,20.08 -25.223,20.08 -2.145,0 -3.363,-0.76 -3.363,-2.07 0,-0.98 0.578,-2.46 1.664,-4.23 1.027,-1.61 1.984,-3.57 2.886,-5.77 0.5,-1.25 0.77,-2.18 0.77,-2.74 0,-0.58 -0.508,-0.92 -1.465,-0.92 -1.433,0 -3.793,1.31 -5.394,3.01 -3.2,3.4 -4.801,5.12 -4.821,5.14 l -4.156,6.42 c -3.234,4.95 -6.797,8.09 -12.809,11.2 l -8.039,4.18 c -1.601,0.84 -3.011,1.29 -4.097,1.29 -0.996,0 -1.5,-0.49 -1.5,-1.46 0,-1.01 0.496,-2.29 1.453,-3.68 1.695,-2.51 2.957,-5.22 2.957,-6.39 0,-1.09 -0.703,-1.93 -1.609,-1.93 -2.25,0 -6.266,4.03 -11.926,11.84 -4.059,5.61 -6.129,11.71 -6.129,18.01 0,13.5 10.402,24.01 23.801,24.01 6.871,0 15.476,-2.88 23.972,-8.02 l 15.399,-9.31 c 5.5,-3.32 12.937,-5.77 17.59,-5.77 2.543,0 3.293,0.14 9.023,1.61 1.68,0.43 3.066,0.96 4.16,1.59 0.695,0.42 1.18,1.17 1.18,1.89 0,1.25 -0.774,1.81 -2.805,1.95 -7.133,0.54 -21.941,6.38 -31.699,12.52 -5.699,3.57 -9.238,5.61 -10.586,6.07 -2.645,0.94 -4.402,2.31 -4.402,3.41 0,0.5 0.539,0.77 1.382,0.77 l 1.868,-0.33 13.968,-5.12 13.45,-4.8 c 6.605,-2.35 16.855,-4.48 21.543,-4.48 6.074,0 10.289,4.2 10.289,10.28 0,3.06 -0.758,6.53 -2.024,8.92 -1.949,3.83 -4.511,7.07 -5.554,7.07 -1.25,0 -1.942,-1.26 -1.942,-3.43 l 0.137,-1.7 0.406,-4.12 c 0,-4.33 -2.383,-7.14 -6.055,-7.14 -1.433,0 -3.199,0.35 -5.246,1.02 l -20.832,6.7 c -18.101,5.85 -25.148,7.39 -34.05,7.39 -25.18,0 -44.172,-17 -44.172,-39.65 0,-25.54 17.527,-41.57 62.519,-57.14 43.649,-15.129 49.328,-18.593 49.328,-30.097 0,-6.614 -6.183,-11.907 -13.937,-11.907 -2.863,0 -5.383,0.247 -7.512,0.645 -1.891,0.391 -9.148,2.09 -21.805,5.117 -13.375,3.242 -24.722,4.512 -39.843,4.512 -31.789,0 -47.094,-4.852 -63.684,-20.215 -3.828,-3.574 -5.379,-4.227 -9.668,-4.227 l -2.168,0.079 -5.055,0.32 c -3.843,0 -6.742,-1.836 -9.058,-5.781 l -5.133,-8.661 c -0.703,-1.191 -2.105,-1.914 -3.668,-1.914 -3.328,0 -5.094,2.196 -8.207,9.922 -1.621,4.11 -3.828,7.41 -6.395,9.649 l -6.742,5.769 c -1.004,0.879 -1.593,1.699 -1.593,2.344 0,0.656 0.574,1.719 1.593,3.086 1.024,1.309 1.985,2.793 2.891,4.473 0.992,1.808 1.516,3.125 1.601,3.886 l 0.313,2.871 c 0.25,0.938 1.184,1.594 2.297,1.594 2.129,0 2.496,-1.418 2.543,-9.308 0,-2.02 0.859,-4.969 2.551,-8.641 l 3.511,-7.695 c 0.481,-0.996 1.59,-1.621 2.903,-1.621 3.34,0 7.535,7.8 8.648,16.043 0.918,6.828 1.649,9.003 3.063,9.003 1.32,0 1.902,-0.828 4.636,-6.433 0.844,-1.731 2.16,-3.379 3.844,-4.817 1.563,-1.308 2.899,-2.109 3.832,-2.253 l 0.352,-0.012 c 2.644,0 3.531,1.652 4.148,7.726 l 0.305,3.192 -0.633,4.511 -0.438,3.098 c 0,2.059 0.719,3.301 1.903,3.301 0.691,0 1.551,-0.449 2.394,-1.281 l 3.2,-3.223 c 2.128,-2.148 4.312,-3.211 6.457,-3.211 2.742,0 4.445,1.199 4.445,3.152 0,1.614 -0.363,2.375 -3.195,7.122 -0.293,0.457 -1.039,1.843 -2.246,4.16 -2.848,5.412 -4.188,6.742 -6.696,6.742 l -3.254,-0.31 -4.168,-1.6 c -1.234,-0.48 -2.093,-0.74 -2.547,-0.74 -0.543,0 -0.984,0.56 -0.984,1.3 0,2.89 1.899,7.44 5.457,13.03 2.195,3.47 4.047,12.09 5.434,25.17 l 1.629,15.06 c 0.964,9.25 1.976,12.53 3.843,12.53 0.676,0 1.211,-0.3 1.286,-0.69 l 0.945,-4.79 v -3.85 c 0,-4.68 0.504,-8.47 1.094,-8.47 1.363,0 3.355,1.6 5.316,4.31 1.387,1.94 2.461,4.09 3.203,6.41 1.063,3.44 1.617,6.26 1.617,8.41 0,7.41 -3.125,10.59 -13.16,13.39 -1.012,0.3 -1.68,0.62 -1.902,0.97 l -0.344,2.89 v 5.42 l -0.652,3.87 -1.246,3.2 -1.629,3.52 -2.551,-1.58 c -6.547,-4.13 -8.141,-5.34 -10.281,-8.03 -2.91,-3.69 -3.918,-4.6 -5.129,-4.6 -0.883,0 -1.578,0.61 -1.578,1.39 l 1.277,5.47 0.109,0.93 c 0,7.02 -3.945,13.82 -11.004,18.92 l -2.242,-2.56 -2.258,-3.2 -3.832,-4.5 c -2.23,-2.61 -3.562,-6.17 -3.562,-9.51 l 0.031,-1.05 0.039,-1.08 c 0,-2.52 -0.386,-3.4 -1.574,-3.4 l -0.703,0.31 -2.567,3.19 -3.195,3.85 -5.777,3.53 -2.879,2.23 c -3.094,-6.72 -3.219,-7.43 -3.219,-16.05 l 0.008,-2.69 c 0,-2.89 -0.949,-4.64 -2.492,-4.64 -0.754,0 -2.106,0.55 -3.906,1.59 -1.45,0.83 -3.165,1.31 -4.766,1.31 -4.664,0 -8.094,-3.95 -8.094,-9.36 0,-5.88 1.266,-9.91 5.156,-16.3 2.512,-4.16 5.836,-7.53 7.36,-7.53 0.176,0 0.594,2.97 0.984,6.88 l -0.984,5.44 -0.211,2.46 c 0,2.05 0.734,3.34 1.937,3.34 1.805,0 2.903,-1.99 4.051,-7.38 l 2.57,-11.87" /><path
         id="path76"
         style="fill:#ffffff;fill-opacity:1;fill-rule:nonzero;stroke:none"
         d="m 687.52,1016.09 c 2.128,0 5.46,3.97 6.953,8.34 0.914,2.71 1.64,6.49 1.64,8.68 0,1.55 -0.398,2.98 -1.64,6.07 -1.446,3.51 -2.918,5.13 -4.711,5.13 -2.75,0 -4.02,-3.52 -4.59,-12.51 l -0.324,-5.14 -0.09,-3.12 c 0,-5.2 0.808,-7.45 2.762,-7.45" /><path
         id="path78"
         style="fill:#ffffff;fill-opacity:1;fill-rule:nonzero;stroke:none"
         d="m 665.297,1009.35 c 1.766,-0.87 2.949,-2.05 2.949,-2.97 0,-1.49 -1.183,-2.48 -2.937,-2.48 -0.68,0 -2.758,0.3 -4.504,0.65 l -2.367,0.23 c -1.231,0 -1.801,-1.14 -1.801,-3.64 0,-8.519 7.258,-18.831 19.261,-27.335 1.586,-1.172 2.559,-2.375 2.559,-3.293 0,-0.489 -0.355,-1.055 -0.973,-1.543 -0.566,-0.41 -1.171,-0.653 -1.714,-0.653 -0.676,0 -2.153,0.528 -3.754,1.289 -0.922,0.508 -1.75,0.723 -2.36,0.723 -1.527,0 -2.508,-1.465 -2.508,-3.75 0,-2.91 2.153,-8.047 5.848,-13.965 3.395,-5.363 7.102,-9.082 10.563,-10.547 l 14.425,-6.113 c 0.778,-0.305 1.293,-1.027 1.293,-1.797 0,-1.152 -0.804,-2.109 -1.914,-2.363 l -2.582,-0.305 -2.879,-0.32 -3.839,0.32 -0.661,0.012 c -1.988,0 -2.785,-0.422 -2.785,-1.445 0,-1.524 1.453,-4.785 4.703,-10.442 3.539,-6.14 6.035,-8.984 7.914,-8.984 0.789,0 1.575,0.644 2.043,1.594 l 3.532,7.39 c 0.461,1.008 3.351,3.215 8.328,6.407 3.027,1.953 6.09,3.164 8.965,3.527 7.691,1.035 8.343,1.387 8.343,4.609 0,1.094 -0.34,3.203 -0.968,6.289 -0.344,1.641 -0.645,3.887 -0.973,6.746 l -0.613,6.075 -0.657,7.05 c -0.078,1.789 -0.593,2.649 -1.589,2.649 -0.672,0 -1.743,-0.988 -2.571,-2.317 -3.793,-6.14 -9.328,-10.281 -13.816,-10.281 -17.91,0 -30.102,28.563 -30.102,70.433 l 0.328,12.61 0.957,15.06 0.164,5.32 c 0,12.91 -4.5,26.25 -11.05,32.83 l -4.504,4.48 -2.875,3.18 0.027,-2.76 c 0,-2.95 -0.883,-8.36 -2.269,-13.57 -1.211,-4.57 -1.856,-7.01 -1.942,-7.4 -0.433,-1.82 -0.64,-3.81 -0.64,-5.8 0,-4.51 2.191,-8.75 5.453,-10.51 l 3.547,-1.92 0.644,-4.49 c -0.191,-1.76 0.16,-4.14 0.942,-7.07 0.871,-3.19 1.328,-6.44 1.328,-9.61 0,-2.68 -0.254,-3.7 -0.825,-3.7 -1.23,0 -3.351,3.3 -5.304,8.2 -3.09,7.75 -5.848,10.62 -10.235,10.62 -3.504,0 -5.773,-0.6 -9.961,-2.61 3.356,-4.33 5.383,-7.95 9.293,-16.66 5.102,-11.36 7.071,-13.66 15.063,-17.65" /><path
         id="path80"
         style="fill:#ffffff;fill-opacity:1;fill-rule:nonzero;stroke:none"
         d="m 675.898,851.031 c 1.547,-1.25 3.454,-1.945 5.372,-1.945 6.289,0 11.582,2.871 20.238,10.91 -6.742,1.141 -7.785,1.473 -15.363,4.793 -5.254,2.336 -8.661,3.254 -12.04,3.254 -5.066,0 -8.972,-1.602 -13.621,-5.488 l 2.871,-2.227 6.43,-4.492 6.113,-4.805" /><path
         id="path82"
         style="fill:#ffffff;fill-opacity:1;fill-rule:nonzero;stroke:none"
         d="m 859.84,895.902 c 0,0.969 0.34,2.375 0.961,4.161 l 1.937,5.46 c 0.641,1.786 0.957,3.602 0.957,5.321 0,3.156 -0.965,6.183 -3.199,9.738 -2.203,3.594 -3.504,5.82 -3.855,6.727 -1.844,4.777 -2.965,6.347 -4.539,6.347 -1.133,0 -2.204,-0.41 -4.11,-1.523 l -3.203,-1.942 -4.496,-5.148 -4.5,-2.215 c -2.68,-1.359 -5.23,-7.16 -5.23,-11.992 0,-6.926 1.523,-10.684 11.972,-29.375 4.434,-7.91 6.52,-13.77 6.52,-18.242 0,-13.047 -13.313,-23.789 -35.047,-28.215 -25.965,-5.332 -31.625,-9.609 -34.613,-26.297 4.492,2.324 6.281,2.656 14.203,2.656 l 4.703,-0.058 0.746,-0.012 c 4.289,0 4.863,0.293 7.598,4.172 3.14,4.433 6.265,7.07 10.582,8.933 l 5.128,2.266 4.161,2.246 1.281,0.332 c 1.164,0 1.777,-0.469 1.777,-1.336 0,-1.105 -1.043,-2.941 -3.058,-5.41 -3.102,-3.762 -4.895,-7.629 -4.895,-10.566 0,-4.289 0.707,-6.446 3.289,-10.274 1.793,3.985 2.61,5.078 6.418,8.348 8.965,7.687 13.137,13.391 13.137,17.941 v 7.059 c 0,4.113 0.676,5.461 2.82,5.461 0.961,0 1.738,-0.371 1.992,-0.977 l 1.602,-3.82 c 0.367,-0.898 1.41,-1.434 2.711,-1.434 2.277,0 3.91,1.641 7.863,8.145 1.676,2.754 2.348,4.531 2.348,6.348 0,1.14 -0.254,2.351 -0.758,3.601 -0.238,0.606 -0.98,2.297 -2.242,5.11 -0.723,1.648 -1.313,3.855 -1.313,5.019 0,2.098 1.071,3.34 2.875,3.34 0.965,0 1.813,-0.371 2.317,-1.008 l 2.531,-3.172 c 0.582,-0.695 0.723,-1.125 1.695,-1.125 1.184,0 3.285,1.125 4.09,2.707 l 2.567,5.137 c 0.648,1.269 0.98,2.293 0.98,2.91 0,1.082 -1.02,2.176 -2.598,2.852 l -4.488,1.941 c -5.254,2.246 -9.617,11.281 -9.617,19.863" /><path
         id="path84"
         style="fill:#ffffff;fill-opacity:1;fill-rule:nonzero;stroke:none"
         d="m 794.141,842.691 c 3.066,-4.179 3.492,-4.503 6.547,-4.503 1.261,0 2.863,0.226 4.671,0.675 l 2.887,0.625 c 5.461,1.035 7.109,1.825 7.109,3.282 0,0.886 -0.5,1.777 -1.347,2.488 l -3.84,3.195 -3.523,3.223 c -2.176,1.961 -6.657,3.554 -10.106,3.554 -3.98,0 -7.238,-1.054 -12.012,-3.886 3.696,-2.305 7.422,-5.637 9.614,-8.653" /><path
         id="path86"
         style="fill:#ffffff;fill-opacity:1;fill-rule:nonzero;stroke:none"
         d="m 910.188,843.031 c 0.828,1.379 1.257,2.629 1.257,3.633 0,2.16 -1.98,3.418 -5.484,3.418 -8.797,0 -14.191,-4.91 -17.598,-16.055 l 1.914,0.344 3.231,0.313 2.562,-0.313 1.739,-0.109 c 3.25,0 4.925,0.351 6.273,1.406 1.992,1.496 4.016,3.918 6.106,7.363" /><path
         id="path88"
         style="fill:#ffffff;fill-opacity:1;fill-rule:nonzero;stroke:none"
         d="m 755.027,1027 1.606,-7.71 1.289,-6.71 c 0.726,-3.7 1.332,-5.14 4.09,-5.14 3.144,0 5.824,2.15 6.164,6.09 l 0.648,7.06 c 0.438,4.68 0.641,7.14 0.641,7.32 0,0.69 -0.356,1.39 -0.945,1.96 -0.485,0.44 -1.063,0.69 -1.657,0.69 l -0.285,-0.04 -5.117,-0.97 h -3.859 c -0.582,0 -1.172,-0.35 -1.602,-0.95 -0.629,-0.9 -0.973,-1.49 -0.973,-1.6" /><path
         id="path90"
         style="fill:#ffffff;fill-opacity:1;fill-rule:nonzero;stroke:none"
         d="m 150.563,432.445 c -1.5,2.864 -2.45,6.309 -2.45,8.918 0,4.043 1.782,6.172 5.184,6.172 1.398,0 2.699,-0.332 3.672,-0.996 l 2.879,-1.934 c 2.523,-1.652 5.371,-2.55 8.16,-2.55 2.004,0 3.93,0.429 5.621,1.269 l 5.125,2.559 c 0.914,0.449 1.73,0.695 2.437,0.695 2.5,0 4.352,-1.848 4.352,-5.215 0,-3.664 -2.863,-8.586 -6.789,-15.644 -4.234,-7.668 -7.422,-12.864 -10.695,-12.864 -4.602,0 -11.145,7.336 -17.496,19.59 z m -7.379,40.703 -1.598,4.786 -0.352,1.418 c 0,0.496 0.602,0.878 1.321,0.878 0.758,0 2.5,-0.89 3.832,-1.945 1.418,-1.14 2.308,-1.055 4.476,-1.629 8.75,-2.265 10.602,-3.867 10.602,-8.086 l -0.344,-5.343 -1.273,-4.832 c -0.539,-2.071 -1.082,-2.774 -2.035,-2.774 -0.7,0 -6.247,4.004 -6.95,5.008 l -3.175,4.504 z m 34.605,1.602 c 3.25,0.578 5.441,1.203 6.426,1.906 3.055,2.188 4.777,3.367 5.121,3.543 l 0.543,0.098 c 0.863,0 1.473,-0.606 1.473,-1.57 l -0.102,-0.442 -2.23,-5.476 -7.047,-7.637 -4.184,-7.422 c -1.012,-1.133 -1.551,-1.73 -1.601,-1.758 l -0.313,-0.051 c -1.703,0 -3.418,3.899 -3.547,7.93 l -0.605,6.379 c 0.496,2.637 2.054,3.809 6.066,4.5 z m 180.934,-90.398 c 0,10.945 -5.211,22.089 -14.586,31.093 -2.551,2.5 -5.324,4.121 -8.008,4.813 l -0.617,0.051 -1.625,-0.539 0.66,-4.629 1.258,-3.231 0.351,-1.34 c 0,-0.683 -0.66,-1.218 -1.511,-1.218 -0.946,0 -1.817,0.488 -2.36,1.296 l -5.762,8.665 c -4.57,6.835 -14.593,12.546 -22.015,12.546 -2.637,0 -4.305,-1.171 -4.305,-3.035 0,-0.91 0.875,-2.558 1.953,-3.75 1.633,-1.855 2.918,-4.074 2.918,-5.117 l -0.355,-1.289 c -0.34,-0.723 -0.809,-1.223 -1.281,-1.281 l -0.317,-0.028 c -1.555,0 -2.308,0.704 -9.293,8.661 -5.707,6.535 -17.367,12.882 -23.625,12.882 -0.89,0 -1.723,-0.39 -2.351,-1.015 -0.391,-0.422 -0.645,-0.891 -0.645,-1.231 0,-0.988 0.844,-2.258 2.258,-3.574 1.98,-1.828 3.562,-3.984 3.562,-4.914 0,-0.633 -0.839,-1.199 -1.8,-1.199 -1.829,0 -5.95,2.656 -13.625,8.679 -11.961,9.387 -17.293,18.262 -17.293,28.536 0,12.402 8.836,22.121 20.179,22.121 6.641,0 15.453,-3.196 21.481,-7.715 l 15.707,-11.836 c 7.183,-5.469 15.996,-8.359 25.219,-8.359 2.007,0 3.898,0.449 5.546,1.296 1.403,0.704 2.258,1.543 2.258,2.149 0,0.383 -1.195,0.949 -2.902,1.387 -5.668,1.347 -10.234,3.312 -13.461,5.761 l -16.02,12.16 c -5.949,4.52 -10.109,7.411 -12.515,8.661 -8.446,4.445 -10.098,5.488 -10.098,6.464 0,0.5 0.805,0.918 1.836,0.918 0.859,0 1.82,-0.214 2.813,-0.644 l 8.343,-3.543 c 2.676,-1.113 7.172,-3.801 13.461,-8.008 17.16,-11.465 25.879,-15.137 35.953,-15.137 9.582,0 16.653,6.797 16.653,16.036 0,1.816 -0.465,3.828 -1.34,5.535 l -1.602,3.183 c -0.558,1.145 -1.593,2.004 -1.914,1.614 l -0.957,-1.282 -0.957,-6.746 c -0.039,-0.254 -0.379,-1.035 -0.98,-2.246 -0.606,-1.262 -1.364,-2.355 -2.223,-3.195 -1.746,-1.707 -3.203,-2.266 -5.887,-2.266 -4.953,0 -10.523,2.656 -25.523,12.219 -15.176,9.656 -28.875,14.707 -39.742,14.707 -23.067,0 -41.668,-18.574 -41.668,-41.582 0,-32.09 19.574,-46.594 81.066,-60 23.403,-5.09 33.676,-11.945 33.676,-22.344 0,-9.504 -7.668,-15.48 -19.856,-15.48 -3.679,0 -6.582,0.215 -8.671,0.636 -2.071,0.43 -13.079,3.418 -33.028,9.004 -13.75,3.809 -29.172,5.965 -42.777,5.965 -24.125,0 -40.375,-7.168 -51.441,-22.656 -1.29,-1.836 -2.559,-2.91 -3.411,-2.91 -0.652,0 -1.609,0.449 -2.683,1.301 l -4.473,3.535 c -3.164,2.468 -8.164,4.383 -11.508,4.383 -2.433,0 -4.738,-0.965 -6.785,-2.801 -1.586,-1.446 -2.769,-2.219 -3.262,-2.219 -1.8,0 -5.089,4.023 -7.609,9.277 -3.602,7.512 -5.477,14.981 -5.477,21.817 0,3.203 1.012,5.429 2.422,5.429 1.11,0 1.953,-0.847 2.411,-2.546 l 2.558,-9.297 c 1.434,-5.207 4.336,-9.297 6.543,-9.297 0.981,0 2.707,1.406 4.66,3.836 1.199,1.465 2.055,2.988 2.586,4.504 2.004,5.867 2.492,6.718 4.07,6.718 1.875,0 2.836,-1.152 4.098,-7.023 0.254,-1.082 0.606,-2.703 2.094,-5.496 1.301,-2.422 2.594,-4.387 3.844,-5.762 0.957,-1.047 2.168,-1.64 3.316,-1.64 2.813,0 5.402,4.707 5.402,9.89 l -0.054,1.367 -0.395,5.95 c 0,2.304 0.363,2.996 1.653,2.996 0.757,0 1.332,-0.399 2.242,-1.563 1.375,-1.765 3.226,-3.301 5.457,-4.48 1.953,-1.067 3.515,-1.614 4.562,-1.614 0.934,0 2.043,0.598 3.114,1.614 0.871,0.808 1.347,1.718 1.347,2.508 0,0.949 -1.144,2.402 -4.551,5.812 -1.808,1.844 -4.007,6.23 -6.41,12.801 -0.898,2.519 -2.109,4.23 -3.015,4.23 -0.25,0 -0.985,-0.234 -2.106,-0.683 l -4.16,-1.582 -2.887,-1.282 -1.093,-0.234 c -1.368,0 -2.461,0.977 -2.461,2.199 0,1.239 2.91,4.688 6.441,7.617 2.531,2.129 4.062,5.282 4.16,8.653 0.203,5.39 1.195,9.636 2.238,9.636 l 0.973,11.211 c 0.453,5.625 2.789,16.262 4.805,22.09 0.39,1.184 0.91,1.973 1.285,1.973 0.894,0 1.699,-2.422 1.699,-5.086 l -0.098,-1.66 -0.183,-3.242 c 0,-4.063 0.652,-6.164 1.914,-6.164 1.394,0 2.973,2.023 4.375,5.558 l 2.867,7.363 c 0.848,2.176 1.289,4.2 1.289,5.985 0,6.23 -3.734,10.762 -8.914,10.762 l -2.32,-0.399 c -1.231,-0.43 -2,-0.644 -2.266,-0.644 -1.687,0 -3.105,1.855 -3.105,4.031 l 0.246,4.621 -0.305,6.414 -1.289,6.719 -0.336,3.222 -2.875,-1.589 -3.543,-2.891 -5.105,-4.152 -4.176,-3.536 c -0.734,-0.632 -1.57,-0.984 -2.375,-0.984 -2.449,0 -2.75,0.664 -2.75,5.652 v 1.25 c 0,4.043 -1.754,7.2 -8.32,14.903 -0.375,0.449 -0.911,1.054 -1.625,1.926 l -1.262,-2.258 -3.531,-5.762 -3.524,-8.965 -0.66,-5.762 c -0.16,-1.648 -0.805,-2.937 -1.445,-2.937 -0.66,0 -1.77,0.84 -3.02,2.293 -4.894,5.605 -6.449,6.621 -13.789,9.277 l -0.629,-2.226 c -1.172,-3.797 -1.816,-6.043 -1.929,-6.758 l -0.34,-6.074 v -2.559 l 0.031,-2.039 c 0,-1.77 -0.656,-2.813 -1.738,-2.813 l -0.207,0.047 c -0.114,0.039 -0.758,0.598 -1.918,1.594 -0.739,0.672 -2.106,0.996 -3.883,0.996 -5.957,0 -9.766,-3.234 -9.766,-8.359 0,-3.84 1.309,-6.699 7.223,-15.695 2.621,-3.993 5.648,-7.129 6.844,-7.129 0.793,0 1.453,2.109 1.453,4.562 L 131,463.227 c -0.609,1.836 -0.91,3.507 -0.91,4.902 0,1.777 0.515,2.766 1.504,2.766 2.883,0 5.855,-8.313 7.105,-19.875 l 1.262,-11.856 c 0.477,-4.219 1.777,-8.543 3.855,-12.82 2.926,-5.977 5.789,-10.051 8.332,-11.848 3.079,-2.156 4.965,-4.285 4.965,-5.469 0,-0.996 -0.812,-1.922 -1.687,-1.922 -0.098,0 -2.281,0.782 -6.481,2.274 l -2.695,0.383 c -6.402,0 -8.547,-3.664 -8.547,-14.68 0,-13.34 8.992,-32.519 18.945,-40.527 l 14.735,-11.875 c 7.488,-5.985 13.148,-15.965 13.148,-23.086 0,-9.375 -10.273,-18.582 -27.883,-24.989 l -10.585,-3.82 c -8.208,-2.996 -11.512,-8.301 -14.739,-23.719 4.188,1.289 6.031,1.622 8.836,1.622 l 1.426,-0.04 4.762,-0.097 c 4.3,0 7.418,2.586 7.418,6.191 v 2.891 c 0,0.867 1.195,2.051 2.882,2.898 2.872,1.399 4.375,2.129 4.473,2.239 l 3.547,2.878 c 0.551,0.45 1.184,0.723 1.785,0.723 0.957,0 1.754,-0.926 1.754,-1.992 0,-0.789 -0.238,-1.797 -0.652,-2.891 -1.102,-2.832 -1.703,-6.699 -1.703,-11.015 0,-7.852 1.25,-12.078 5.218,-17.832 0.368,2.129 0.692,3.507 0.961,4.16 0.649,1.621 2.489,4.523 5.453,8.644 4.84,6.785 8.411,15.059 8.411,19.512 l -0.098,1.356 -0.953,7.355 c 0,1.336 0.594,2.586 1.601,3.523 0.7,0.606 1.477,0.938 2.192,0.938 1.367,0 2.215,-0.809 3.281,-3.184 0.758,-1.785 1.668,-2.879 2.281,-2.879 1.121,0 3.324,2.938 4.742,6.407 1.071,2.539 1.61,4.832 1.61,6.777 0,1.172 -0.324,2.578 -0.957,4.121 -0.653,1.602 -1.02,2.852 -1.02,3.641 0,0.82 0.266,1.222 1.336,2.121 0.528,0.398 1.07,0.652 1.629,0.652 0.613,0 1.27,-0.254 1.899,-0.652 l 2.875,-1.926 c 0.984,-0.644 1.851,-0.984 2.57,-0.984 1.297,0 3.125,1.445 4.5,3.562 2.773,4.278 4.539,7.793 4.539,9.121 0,0.86 -0.527,1.465 -2.309,2.715 -6.375,4.504 -10.574,11.32 -10.574,17.149 0,1.359 0.313,2.89 0.961,4.64 l 3.199,8.66 c 1.614,4.356 2.485,6.621 2.559,6.75 l 0.945,0.352 c 1.098,0 1.754,-0.91 1.754,-2.473 0,-1.054 -0.254,-2.273 -0.758,-3.652 -0.777,-2.109 -1.344,-4.656 -1.344,-6.094 0,-2.305 1.18,-3.543 3.348,-3.543 1.586,0 3.414,0.438 5.356,1.278 9.707,4.199 17.371,6.457 22.007,6.457 4.368,0 7.071,-0.957 11.653,-4.192 1.211,-0.848 2.23,-1.297 2.957,-1.297 0.554,0 1.25,0.489 1.855,1.297 0.403,0.547 0.645,1.113 0.645,1.594 0,1.16 -0.684,2.656 -1.93,4.168 -1.648,2.031 -2.269,3.281 -2.269,4.531 0,1.016 0.668,1.652 1.726,1.652 5.031,0 12.906,-15.91 20.438,-41.125 5.906,-19.902 7.558,-21.914 26.578,-32.703 16.097,-9.082 22.211,-18.086 22.211,-32.726 0,-14.395 -3.985,-32.84 -12.289,-57.012 -2.61,-7.644 -3.758,-12.82 -3.758,-17.078 0,-3.391 0.656,-6.676 3.148,-15.285 1.164,-4.11 1.907,-6.598 2.235,-7.367 0.367,-0.954 1.222,-2.543 2.558,-4.821 l 1.918,3.867 4.5,4.813 c 3.789,4.059 5.832,9.82 5.832,16.566 0,3.301 -0.578,6.864 -1.672,10.36 -0.808,2.558 -1.328,4.746 -1.328,5.656 0,2.031 1.516,3.945 3.071,3.945 0.636,0 1.507,-0.566 2.414,-1.613 l 4.8,-5.43 c 2.989,-3.367 3.985,-3.992 7.704,-4.812 l 0.328,4.48 0.32,5.266 c 0,7.656 -2.805,16.25 -7.063,21.668 -2.543,3.242 -3.707,5.246 -3.707,6.379 0,1.179 0.844,2.273 1.739,2.273 0.316,0 0.781,-0.242 1.324,-0.644 3.09,-2.305 4.687,-3.25 5.531,-3.25 1.555,0 2.949,3.867 2.949,8.093 0,6.075 -2.543,13.067 -6.539,17.911 -2.054,2.48 -3.343,4.074 -3.84,4.796 -0.445,0.614 -0.644,1.219 -0.644,1.836 0,1.375 1.121,2.352 2.773,2.352 1.211,0 1.954,-0.313 3.954,-1.609 0.949,-0.618 1.816,-0.957 2.46,-0.957 2.497,0 3.399,3.515 3.399,13.035 l -0.098,3.945 -0.328,5.781 c -0.363,6.778 -0.961,7.981 -3.832,7.981 h -2.559 c -15.636,0 -22.914,9.902 -26.949,36.57 -2.898,19.27 -10.093,32.961 -18.902,35.91 -5.27,1.746 -7.16,2.899 -7.16,4.297 0,0.887 1.461,1.766 3.047,1.766 1.148,0 3.855,-0.711 6.05,-1.61 12.77,-5.156 23.559,-7.687 32.938,-7.687 15.351,0 27.469,11.301 27.469,25.637" /><path
         id="path92"
         style="fill:#ffffff;fill-opacity:1;fill-rule:nonzero;stroke:none"
         d="m 276.852,290.141 c -0.352,9.023 -0.856,14.922 -1.602,17.629 -0.191,0.605 -2.105,5.195 -5.785,13.757 -1.422,3.399 -2.723,7.219 -3.86,11.543 -0.757,2.961 -1.675,3.868 -3.984,3.868 -8.73,0 -15.297,-7.442 -15.297,-17.274 0,-5.801 2.406,-14.894 6.801,-26.016 6.168,-15.558 7.809,-21.105 7.809,-26.613 0,-11.765 -4.704,-16.894 -20.954,-22.734 -18.363,-6.582 -26.96,-16.043 -30.125,-33.008 1.434,0.566 2.485,0.969 3.204,1.281 2.039,0.84 3.539,1.336 4.461,1.61 l 5.14,1.269 c 4.41,1.086 7.942,3.586 8.649,6.086 l 1.296,4.473 c 0.317,1.101 0.946,1.836 1.93,2.246 l 2.887,1.277 2.887,1.301 0.629,-1.301 -1.27,-4.168 c -0.445,-1.379 -0.66,-3.867 -0.66,-7.472 0,-7.012 1.379,-11.141 5.461,-16.239 1.902,4.442 2.508,5.489 6.074,10.918 5.195,7.821 7.059,11.973 7.059,15.684 v 5.144 c 0,4.825 0.871,7.051 2.789,7.051 0.687,0 1.332,-0.351 1.699,-0.984 l 1.617,-2.551 c 0.488,-0.82 1.348,-1.297 2.25,-1.297 0.945,0 2.676,1.25 3.617,2.684 2.313,3.508 3.739,7.98 3.739,11.437 l -0.333,3.535 -0.316,3.614 c 0,1.941 0.793,2.781 2.633,2.781 1.25,0 1.769,-0.496 2.844,-2.891 0.675,-1.551 1.621,-2.566 2.418,-2.566 0.879,0 1.886,0.711 2.695,1.933 l 2.547,3.848 1.941,2.899 0.477,1.543 c 0,0.878 -0.692,1.699 -2.418,2.941 -5.938,4.277 -8.535,10.859 -8.949,22.762" /><path
         id="path94"
         style="fill:#ffffff;fill-opacity:1;fill-rule:nonzero;stroke:none"
         d="m 134.531,377.281 c 0,3.985 -1.035,6.778 -2.5,6.778 -0.59,0 -1.586,-0.989 -2.633,-2.59 -2.625,-4.051 -7.125,-6.758 -11.21,-6.758 -11.098,0 -24.4614,17.375 -31.0942,40.402 -1.5391,5.332 -2.3516,11.434 -2.3516,17.293 0,6.028 0.8125,12.813 2.3516,19.582 2.1289,9.395 3.3164,14.637 3.5156,15.703 l 0.4179,4.344 c 0,7.949 -7.3203,18.176 -18.6796,26.106 0.4179,-1.789 0.6562,-2.989 0.6562,-3.594 0,-1.008 -0.4453,-3.781 -1.3008,-8.274 l -0.5664,-6.503 c 0,-5.731 1.0196,-11.844 2.8086,-16.895 C 75.5859,458.266 76,456.813 76,455.563 l -0.1094,-1.348 c -0.2968,-1.328 -0.7929,-2.297 -1.2461,-2.297 -0.6289,0 -1.7773,0.715 -3.2656,2.012 -3.6836,3.183 -7.6758,4.836 -11.8398,4.836 -1.3438,0 -3.1993,-0.235 -5.4571,-0.664 l 1.6016,-3.536 4.8008,-11.886 6.7461,-10.235 7.0156,-4.832 c 0.7109,-0.449 1.3477,-1.105 1.9453,-1.894 0.6445,-0.899 0.9727,-1.633 0.9727,-2.121 0,-0.586 -0.5586,-1.055 -1.2735,-1.102 l -6.4258,-0.305 c -0.9882,-0.046 -1.7695,-0.644 -1.7695,-1.355 0,-1.094 0.9336,-4.328 2.7383,-9.543 l 3.2148,-9.305 5.4454,-5.109 5.7539,-4.188 c 1.7031,-1.222 2.7265,-2.609 2.7265,-3.632 0,-0.891 -0.5508,-1.77 -1.125,-1.829 l -3.1953,-0.3 c -1.0508,-0.098 -1.6445,-1.016 -1.6445,-2.578 0,-2.395 2.2461,-6.739 6.4414,-12.481 4.957,-6.758 8.4492,-8.984 14.1052,-8.984 h 4.817 c 2.297,0 3.695,-1.125 3.695,-2.942 0,-1.504 -0.961,-2.382 -3.074,-2.84 -4.442,-0.917 -5.778,-1.816 -5.778,-3.867 0,-0.82 0.571,-2.043 1.618,-3.496 l 2.582,-3.535 c 2.113,-2.93 4.527,-4.855 6.074,-4.855 0.871,0 2.887,0.898 4.68,2.949 2.859,3.301 6.152,5.988 10.382,7.031 11.133,2.824 13.461,3.984 13.461,6.574 0,0.907 -0.425,2.188 -1.273,3.68 -3.551,6.359 -4.809,10.469 -4.809,15.695" /><path
         id="path96"
         style="fill:#ffffff;fill-opacity:1;fill-rule:nonzero;stroke:none"
         d="m 93.7031,426.012 c 0.5157,0 1.168,0.605 1.7266,1.601 l 3.5273,6.434 c 0.6016,1.066 1.16,2.187 2.293,3.918 1.273,1.894 2.223,3.75 2.223,4.754 0,3.801 -3.5121,8.496 -8.0433,10.871 -2.3594,-4.473 -4.5274,-14.512 -4.5274,-20.879 0,-3.742 1.2227,-6.699 2.8008,-6.699" /><path
         id="path98"
         style="fill:#ffffff;fill-opacity:1;fill-rule:nonzero;stroke:none"
         d="m 145.055,297.77 c 2.789,0 8.617,1.589 11.914,3.242 1.386,0.703 2.23,1.562 2.23,2.215 0,0.429 -1.152,1.73 -3.191,3.546 l -3.52,3.231 c -2.683,2.402 -6.644,4.66 -8.527,4.66 -3.672,0 -7.453,-1.633 -13.277,-5.637 0.718,-0.711 1.218,-1.218 1.601,-1.601 1.399,-1.395 2.254,-2.227 2.57,-2.547 6.243,-6.477 7.184,-7.109 10.2,-7.109" /><path
         id="path100"
         style="fill:#ffffff;fill-opacity:1;fill-rule:nonzero;stroke:none"
         d="m 216.57,244.625 c 0.985,-0.422 2.727,-0.645 5.086,-0.645 1.457,0 2.797,0.223 3.891,0.645 l 6.758,2.547 6.406,2.246 c 1.723,0.617 2.894,1.594 2.894,2.48 0,0.461 -1.449,1.165 -3.542,1.692 -1.438,0.371 -3.059,0.887 -4.817,1.59 -7.887,3.195 -9.035,3.633 -11.832,3.633 -6.277,0 -12.605,-3.047 -16.359,-7.793 3.425,-1.434 4.633,-2.012 6.414,-3.211 2.886,-1.887 4.578,-2.95 5.101,-3.184" /><path
         id="path102"
         style="fill:#ffffff;fill-opacity:1;fill-rule:nonzero;stroke:none"
         d="m 312.336,220.004 c -0.406,0 -1.164,-0.371 -2.172,-1.055 -2.305,-1.504 -3.902,-2.461 -4.789,-2.859 l -9.301,-4.152 c -6.207,-2.762 -11.66,-11.055 -11.66,-17.579 0,-2.187 0.43,-4.043 1.731,-7.773 2.125,5.156 3.617,6.035 10.886,6.437 8.235,0.45 16.059,15.184 16.059,25.165 0,0.988 -0.332,1.816 -0.754,1.816" /><path
         id="path104"
         style="fill:#ffffff;fill-opacity:1;fill-rule:nonzero;stroke:none"
         d="m 167.426,417.602 c 2.082,0 3.543,3.945 4.605,10.351 l 0.953,4.797 0.086,0.918 c 0,1.98 -0.59,2.656 -2.203,2.656 l -0.754,-0.051 -3.843,-0.625 -3.543,0.625 -0.532,0.04 c -2.043,0 -3.05,-1.161 -3.05,-3.465 0,-3.243 2.519,-9.219 5.828,-13.887 0.597,-0.852 1.531,-1.359 2.453,-1.359" /><path
         id="path106"
         style="fill:#ffffff;fill-opacity:1;fill-rule:nonzero;stroke:none"
         d="m 733.238,444 c 0,3.387 1.762,5.742 4.297,5.742 1.043,0 2.32,0.254 3.719,-0.617 l 4.801,-3.555 c 1.195,-0.703 2.683,-1.082 4.3,-1.082 1.95,0 4.848,0.77 7.567,2.051 l 4.18,1.902 c 0.961,0.442 1.804,0.684 2.484,0.684 2.57,0 4.59,-2.703 4.59,-6.113 0,-4.735 -3.418,-9.59 -8.375,-16.649 l -3.5,-7.402 c -2.805,-4.004 -4.656,-5.449 -6.946,-5.449 -3.808,0 -5.648,2.168 -11.347,13.496 -4.106,8.094 -5.77,13.055 -5.77,16.992 z m -4.98,37.098 c 0,0.781 0.476,1.242 1.375,1.242 l 0.719,-0.235 4.503,-2.89 c 2.551,-1.633 4.696,-2.813 6.399,-3.508 4.953,-2.039 6.742,-2.762 6.742,-4.668 0,-0.703 -0.203,-2.391 -0.641,-3.652 -0.496,-1.446 -0.808,-2.949 -0.96,-4.5 -0.454,-4.356 -3.098,-5.461 -4.836,-5.461 -2.161,0 -4.426,3.351 -7.996,9.621 -1.59,2.851 -3.879,8.555 -5.118,12.801 z m 28.058,-11.153 c 0,2.11 1.161,3.203 2.832,3.555 l 6.813,1.887 7.023,3.543 c 2.051,0.996 2.68,1.269 3.036,1.269 0.816,0 1.507,-0.847 1.507,-1.855 0,-0.457 -0.246,-1.153 -0.691,-2.012 l -3.215,-5.398 -7.359,-7.414 c -2.61,-3.465 -2.61,-6.465 -3.199,-7.051 -0.497,-0.449 -1.262,-0.809 -2.262,-0.957 l -0.473,-0.039 c -1.867,0 -3.265,1.347 -3.371,3.234 l -0.297,5.449 -0.344,5.469 z M 689.32,285.953 668.813,279.887 c -12.782,-3.797 -19.067,-12.215 -20.825,-27.879 3.282,2.605 4.285,3.015 9.309,3.816 l 6.058,0.957 c 2.583,0.43 4.422,0.989 5.458,1.614 0.578,0.351 1.753,1.55 3.542,3.543 l 5.442,6.066 c 2.058,2.324 3.914,3.633 5.047,3.633 0.754,0 1.375,-0.852 1.375,-1.848 0,-1.172 -0.797,-3.047 -2.262,-5.301 -1.508,-2.363 -2.344,-5.226 -2.344,-8.254 0,-4.082 1.086,-6.679 5.235,-12.578 0.527,1.946 0.953,3.223 1.297,3.86 0.531,1.015 2.132,3.261 4.8,6.718 4.442,5.743 7.629,11.739 7.676,14.442 0.09,4.961 0.527,6.574 1.789,6.574 1.074,0 1.266,-0.246 1.754,-3.059 0.117,-0.691 0.457,-1.367 0.961,-1.941 0.742,-0.812 1.465,-1.281 1.953,-1.281 0.406,0 1.285,0.449 2.551,1.281 2.199,1.484 3.914,2.996 5.101,4.48 1.336,1.661 2.391,3.606 3.2,5.774 1.074,2.812 1.636,4.863 1.636,6.062 l -0.039,4.141 c 0,1.106 0.457,1.992 1.063,1.992 0.758,0 2.394,-1.679 3.441,-3.543 0.707,-1.242 1.149,-1.613 2.055,-1.613 h 0.187 c 1.161,0.129 2.157,0.598 2.875,1.301 3.907,3.816 6.442,8.515 6.442,12.019 l -0.336,5.91 -1.281,4.844 -0.059,0.41 c 0,1.004 0.727,1.844 1.555,1.844 1.441,0 3.035,-2.058 5.226,-6.758 1.024,-2.226 1.969,-3.242 2.922,-3.242 1.528,0 2.723,1.145 5.738,5.5 l 2.883,4.149 c 0.629,0.918 0.961,2.011 0.961,3.234 0,1.113 -0.332,2.226 -0.961,3.164 l -2.582,3.855 c -0.414,0.665 -0.64,1.77 -0.64,3.215 0,4.356 1.582,9.285 4.824,15.047 2.359,4.211 3.762,6.887 4.16,8.028 0.504,1.328 1.063,1.945 1.777,1.945 0.559,0 1.094,-0.774 1.094,-1.613 l -0.297,-3.543 v -5.11 c 0.426,-1.179 1.211,-1.64 2.758,-1.64 0.981,0 2.098,0.246 3.332,0.656 l 8.004,2.89 c 1.91,0.684 4.375,1.895 7.371,3.543 12.559,6.954 16.438,8.399 22.629,8.399 3.687,0 8.441,-1.434 15.199,-4.551 1.387,-0.644 2.508,-0.996 3.301,-0.996 0.937,0 1.941,0.598 2.797,1.613 0.637,0.742 0.945,1.649 0.945,2.442 0,1.172 -0.437,2.547 -1.281,3.972 -1.024,1.77 -1.957,4.004 -1.957,4.785 0,0.872 0.555,1.407 1.473,1.407 0.734,0 1.832,-0.77 2.414,-1.699 0.957,-1.532 3.41,-5.79 7.363,-12.801 5.965,-10.625 13.75,-18.028 20.523,-19.563 l 14.094,-3.222 c 4.363,-0.985 5.473,-2.676 5.473,-8.114 0,-9.953 -4.715,-18.711 -12.832,-23.918 l -11.547,-7.402 c -4.195,-2.656 -7.699,-10.039 -7.699,-16.16 0,-3.965 0.961,-10.957 2.242,-16.504 l 2.246,2.226 5.457,3.211 4.812,4.817 2.563,7.058 2.547,6.418 c 1.262,3.094 2.734,5.125 3.73,5.125 1.117,0 1.746,-1.746 1.746,-4.902 l -0.039,-0.879 -0.008,-1.199 c 0,-4.609 0.622,-6.633 4.184,-13.547 l 1.285,3.527 1.297,4.512 c 0.246,0.809 1.442,2.637 3.52,5.41 3.254,4.285 4.906,9.657 4.906,15.938 0,1.98 -0.504,3.816 -1.699,6.199 -0.629,1.262 -0.977,2.266 -0.977,2.969 0,0.441 0.238,0.949 0.668,1.496 0.395,0.566 0.859,0.898 1.289,0.957 l 0.199,0.039 c 0.821,0 2.207,-0.949 3.301,-2.258 1.363,-1.648 2.559,-2.578 3.27,-2.578 1.449,0 2.961,2.441 3.793,6.086 0.437,1.953 0.644,2.996 0.644,3.211 0,1.555 -1.301,5.578 -2.887,8.976 -0.621,1.289 -0.921,2.383 -0.921,3.25 0,1.145 0.753,2.071 1.765,2.071 0.934,0 2.457,-0.996 4.258,-2.735 0.887,-0.847 1.754,-1.297 2.438,-1.297 2,0 3.453,2.051 4.964,7.059 0.934,3.106 1.286,4.492 1.286,5.012 0,0.937 -0.407,1.484 -1.137,1.484 l -1.117,-0.09 -3.801,-0.398 c -5.852,0 -14.117,4.031 -17.996,8.711 l -8.977,10.898 c -3.457,4.207 -8.297,10.594 -8.004,10.594 l -7.386,4.805 c -1.196,0.793 -1.915,1.758 -1.915,2.609 0,1.211 1.211,2.012 3.051,2.012 1.699,0 6.946,-1.867 16.512,-5.91 9.227,-3.907 23.762,-7.098 32.484,-7.098 15.328,0 27.953,12.402 27.953,27.441 0,8.231 -3.675,15.829 -12.691,26.446 -1.687,1.992 -4.586,3.933 -5.922,3.933 -1.051,0 -1.777,-0.781 -1.777,-1.894 0,-0.879 0.344,-2.117 0.98,-3.614 0.407,-1.003 0.621,-2.019 0.621,-2.937 0,-1.465 -0.543,-2.316 -1.527,-2.316 -2.019,0 -4.121,3.3 -5.836,9.074 -2.117,7.156 -6.305,11.406 -16.051,16.347 -3.707,1.915 -8.566,3.614 -10.132,3.614 -0.629,0 -1.051,-0.559 -1.051,-1.407 0,-1.21 0.449,-2.511 1.265,-3.8 1.414,-2.157 2.313,-4.246 2.586,-6.114 l 0.008,-0.293 c 0,-1.25 -0.64,-1.941 -1.785,-1.941 -2.066,0 -2.52,0.535 -7.207,7.703 -2.414,3.684 -8.863,8.555 -14.434,10.899 -1.754,0.754 -3.609,1.191 -5.449,1.3 l -0.187,0.008 c -1.161,0 -2.055,-0.554 -2.055,-1.258 0,-0.254 0.504,-1.289 1.434,-2.941 l 0.484,-1.805 c 0,-0.988 -0.656,-1.738 -1.512,-1.738 -1.922,0 -7.883,4.883 -12.578,10.273 -5.094,5.879 -8.348,13.329 -8.348,19.188 0,12.258 11.711,23.156 24.817,23.156 3.305,0 6.101,-0.586 8.207,-1.64 l 11.207,-5.762 13.16,-8.684 c 7.563,-4.949 17.926,-8.672 24.188,-8.672 2.343,0 4.097,0.325 10.097,1.993 3.153,0.851 5.094,2.101 5.094,3.242 l -0.125,0.265 -1.113,0.645 -7.059,0.605 c -3.922,0.399 -12.816,4.403 -19.863,9.024 l -14.75,9.59 -13.133,5.468 c -0.996,0.391 -1.645,1.043 -1.645,1.68 0,0.664 0.688,1.219 1.504,1.219 0.012,0 1.246,-0.254 3.645,-0.652 l 12.18,-3.547 c 3.074,-0.868 7.992,-3.125 14.753,-6.719 13.364,-7.109 22.075,-10.254 28.477,-10.254 7.41,0 12.856,5.09 12.856,11.992 0,2.317 -0.516,6.106 -1.258,9.16 -0.391,1.496 -1.047,2.91 -1.946,4.172 -0.558,0.809 -1.156,1.258 -1.57,1.258 -0.926,0 -1.449,-0.965 -1.449,-2.605 l 0.148,-2.2 0.129,-1.863 c 0,-5.918 -2.308,-8 -8.84,-8 -5.332,0 -12.472,2.141 -28.789,8.606 -15.265,6.003 -24.816,8.32 -34.308,8.32 -24.145,0 -45.282,-19.688 -45.282,-42.141 0,-19.383 12.887,-34.226 39.207,-45.047 l 27.223,-11.211 c 22.539,-9.257 30.82,-15.91 30.82,-24.668 0,-7.304 -6.804,-12.003 -17.394,-12.003 -4.574,0 -10.274,1.261 -20.781,4.621 -25.504,8.125 -42.082,11.492 -56.676,11.492 -23.785,0 -40.711,-6.504 -54.223,-20.789 -1.793,-1.887 -2.844,-2.461 -4.414,-2.461 -1.086,0 -2.183,0.429 -4.574,1.824 -2.426,1.418 -5.117,2.305 -7.039,2.305 -2.344,0 -5.984,-2.012 -7.699,-4.239 l -3.203,-4.16 c -0.934,-1.218 -1.977,-1.953 -2.832,-1.953 -2.321,0 -6.43,3.957 -9.02,8.684 -1.582,2.879 -2.656,5.691 -3.195,8.34 -0.418,2.019 -0.664,5.3 -0.664,8.789 l 0.32,5.957 0.973,6.386 c 0.461,3.075 0.808,4.922 0.968,5.457 0.243,0.774 0.864,1.27 1.539,1.27 1.664,0 2.395,-1.512 2.395,-5.02 l -0.09,-2.019 -0.062,-1.445 c 0,-9.122 3.617,-17.481 7.593,-17.481 3.125,0 5.883,5.606 8.176,16.699 0.465,2.227 1.359,3.516 2.449,3.516 1.285,0 2.055,-1.641 3.012,-6.418 0.59,-3.105 2.621,-7.41 4.801,-10.254 1.246,-1.609 2.57,-2.578 3.656,-2.578 2.621,0 4.313,3.937 5.621,13.156 0.531,3.582 1.586,5.809 2.82,5.809 0.524,0 1.012,-0.262 1.348,-0.692 0.231,-0.254 0.973,-1.437 2.262,-3.527 0.777,-1.316 2.004,-2.391 3.515,-3.191 1.598,-0.832 2.887,-1.289 3.719,-1.289 1.02,0 2.094,0.476 3,1.289 1.438,1.277 2.242,2.246 2.242,2.625 0,0.468 -0.656,1.476 -1.914,2.824 -2.105,2.254 -3.73,5.281 -5.761,10.594 -1.348,3.515 -2.297,5.937 -2.871,7.355 -0.504,1.172 -1.059,1.941 -1.618,2.234 l -1.019,0.266 -1.879,-0.266 c -0.363,-0.085 -2.609,-0.73 -6.715,-1.894 l -2.098,-0.332 c -0.906,0 -1.496,0.598 -1.496,1.523 0,0.86 1.149,2.414 2.629,3.586 8.11,6.453 12.938,17.274 14.739,33.016 1.093,9.57 2.332,13.203 6.402,18.918 0.859,1.191 1.601,1.914 2.008,1.914 1.25,0 1.925,-0.969 1.925,-2.824 0,-1.239 -0.355,-2.782 -1.043,-4.551 -0.457,-1.231 -0.699,-2.547 -0.699,-3.887 l 0.055,-1.219 0.644,-1.945 3.532,1.301 3.828,4.461 c 2.293,2.656 4.211,8.691 4.211,13.137 0,3.066 -0.746,5.214 -2.571,7.382 -2.027,2.403 -3.433,3.368 -4.878,3.368 l -2.196,-0.157 -2.269,-0.164 c -2.067,0 -3.102,0.625 -3.102,1.895 l 0.555,2.441 0.34,3.524 -1.914,8 -1.602,3.867 -0.98,3.203 -2.246,-1.602 -4.805,-2.871 c -1.246,-0.754 -2.543,-1.953 -3.86,-3.535 -4.546,-5.527 -4.835,-5.793 -6.664,-5.793 -1.16,0 -1.824,0.422 -1.824,1.223 l 0.176,1.355 c 0.652,2.942 0.957,5.157 0.957,6.653 0,5.586 -4.059,14.011 -8.961,18.66 -6.695,-6.395 -10.289,-13.446 -10.289,-20.203 v -3.848 c 0,-1.465 -0.477,-2.227 -1.457,-2.227 h -0.113 c -0.797,0.118 -1.594,0.731 -2.262,1.61 l -3.832,5.117 c -0.289,0.391 -2.004,1.777 -5.152,4.18 -0.59,0.468 -1.465,1.211 -2.547,2.218 l -1.301,-2.539 c -3.164,-6.359 -4.274,-10.168 -4.473,-15.39 -0.152,-4.278 -0.504,-5.52 -1.504,-5.52 -0.488,0 -1.179,0.235 -2.027,0.723 -4.863,2.715 -5.309,2.902 -7.41,2.902 -5.762,0 -9.707,-4.133 -9.707,-10.195 0,-2.363 1.336,-5.957 3.984,-10.664 2.926,-5.235 7.348,-10.02 9.262,-10.02 0.559,0 0.668,0.379 0.668,1.973 l -0.008,0.664 -0.305,5.449 -0.652,4.188 -0.039,0.547 c 0,1.23 0.477,1.789 1.449,1.789 2.895,0 5.434,-8.489 7.586,-25.422 1.867,-14.891 5.981,-25.164 12.477,-31.102 1.656,-1.515 2.613,-2.754 2.613,-3.468 0,-0.536 -0.566,-1.024 -1.273,-1.024 -0.946,0 -2.399,0.574 -4.211,1.609 -1.172,0.676 -2.348,1.028 -3.481,1.028 -3.203,0 -6.781,-3.742 -7.422,-7.766 l -2.89,-18.25 -2.243,-25.664 c -0.421,-4.855 0.231,-11.359 1.918,-19.219 1.489,-6.914 2.258,-12.011 2.258,-15.175 0,-19.211 -11.965,-34.414 -31.754,-40.274" /><path
         id="path108"
         style="fill:#ffffff;fill-opacity:1;fill-rule:nonzero;stroke:none"
         d="m 818.547,336.84 c -1.145,0 -2.348,-0.36 -3.883,-1.219 -1.172,-0.625 -2.043,-0.949 -2.441,-0.949 -0.575,0 -1.328,0.48 -2.055,1.308 l -2.246,2.54 -1.578,2.57 c -0.641,1.004 -1.653,1.609 -2.688,1.609 -0.144,0 -1.004,-0.203 -2.465,-0.664 l -2.89,-0.293 c -3.324,-0.144 -4.563,-1.336 -4.563,-4.5 l 0.09,-1.906 0.051,-1.445 c 0,-2.801 -2.484,-7.118 -5.82,-10.118 l -6.082,-5.449 c -7.508,-6.668 -13.344,-17.422 -13.344,-24.519 0,-3.047 0.996,-8 2.758,-13.918 2.879,-9.61 3.89,-14.16 3.89,-17.266 0,-15.391 -23.488,-35.652 -67.043,-57.742 -22.082,-11.203 -27.613,-17.852 -27.613,-33.109 L 681,166.09 c 3.898,3.609 4.551,3.89 15.406,6.109 8.762,1.77 12.871,5.762 14.723,14.387 1.387,6.387 2.254,7.578 8.012,10.898 1.855,1.106 3.257,2.168 4.16,3.223 0.722,0.813 1.301,1.262 1.594,1.262 0.636,0 1.144,-0.625 1.144,-1.418 0,-1.082 -0.73,-2.918 -2.07,-5.321 -0.895,-1.496 -1.317,-3.437 -1.317,-6.093 0,-5.168 1.078,-8.664 3.879,-12.797 1.93,4.281 3.016,5.441 8.004,8.988 6.363,4.453 8.778,9.649 9.934,21.16 0.476,4.856 1.433,7.403 2.734,7.403 0.606,0 1.149,-0.399 1.414,-0.985 l 2.25,-4.824 c 0.305,-0.644 1.102,-1.055 2.031,-1.055 0.918,0 2.61,0.965 4.059,2.352 l 4.504,4.133 c 1.902,1.785 3.164,6.191 3.816,13.457 0.282,2.695 1.188,4.5 2.258,4.5 0.68,0 1.32,-0.653 1.602,-1.59 l 1.937,-6.418 c 0.453,-1.543 1.367,-2.566 2.285,-2.566 0.414,0 1.309,0.566 2.52,1.621 1.754,1.472 3.254,3.086 4.488,4.793 1.465,1.992 2.254,4.25 2.254,6.406 v 5.449 c 0,1.211 0.43,2.453 1.266,3.516 0.617,0.8 1.156,1.328 1.406,1.328 0.707,0 1.437,-0.653 1.809,-1.649 l 1.277,-3.496 c 0.562,-1.562 1.758,-2.597 3.016,-2.597 1.691,0 3.394,1.453 5.949,5.136 0.73,1.063 1.386,1.903 1.941,2.578 1.453,1.747 2.246,3.184 2.246,4.043 0,0.438 -0.468,1.258 -1.289,2.364 -4.66,6.054 -7.054,13.386 -7.054,21.746 0,10.664 4.042,19.621 16.332,36.269 7.375,9.934 11.55,19.239 11.55,25.676 0,1.863 -0.843,2.762 -2.523,2.762" /><path
         id="path110"
         style="fill:#ffffff;fill-opacity:1;fill-rule:nonzero;stroke:none"
         d="m 657.934,433.715 c 5.714,-5.164 6.254,-5.82 6.254,-7.676 0,-1.453 -0.997,-2.586 -2.208,-2.586 l -2.125,0.332 -1.261,0.125 c -1.742,0 -3.344,-3.203 -3.344,-6.777 0,-2.051 0.82,-5.301 2.047,-8.086 0.789,-1.883 1.558,-3.192 2.223,-3.867 l 3.214,-3.192 c 0.825,-0.8 1.297,-2.004 1.297,-3.281 0,-1.562 -0.902,-2.863 -1.945,-2.863 -0.648,0 -1.633,0.383 -2.883,1.035 -0.805,0.402 -1.562,0.637 -2.25,0.637 -1.426,0 -2.117,-0.879 -2.117,-2.637 l 0.516,-4.766 1.945,-8.3 c 0.422,-1.875 1.609,-3.958 3.508,-6.125 1.64,-1.856 3.297,-3.145 4.808,-3.836 4.043,-1.75 6.2,-2.735 6.43,-2.891 0.602,-0.449 0.945,-1.398 0.945,-2.559 0,-1.203 -0.945,-2.238 -2.133,-2.238 -0.351,0 -1.464,0.234 -3.316,0.645 l -3.254,0.312 c -3.262,0 -3.48,-0.176 -3.48,-2.695 0,-1.61 0.218,-3.301 0.648,-4.981 l 1.281,-5.125 c 1.368,-5.422 3.118,-8.359 5.043,-8.359 0.414,0 1.227,0.477 2.321,1.297 4.636,3.555 13.957,6.73 19.804,6.73 6.012,0 12.879,-0.734 15.465,-1.601 1.465,-0.508 2.508,-0.782 3.067,-0.782 0.789,0 1.043,0.79 1.093,3.641 l 0.661,5.774 1.281,9.941 0.949,7.371 v 4.18 c -1.18,-0.957 -2.02,-1.719 -2.59,-2.246 -5.441,-5.118 -8.875,-6.719 -14.512,-6.719 -14.746,0 -23.203,16.562 -23.203,45.469 0,11.925 1.754,28.789 5.043,48.125 0.696,4.062 1.008,6.894 1.008,8.886 0,10.539 -6.672,20.84 -18.309,28.282 v -3.211 l 0.04,-4.746 c 0,-1.7 -0.161,-2.903 -0.692,-5.196 -1.027,-4.453 -1.277,-5.988 -1.277,-7.246 0,-6.133 0.851,-9.16 4.472,-15.48 2.004,-3.504 3.305,-7.723 3.305,-10.77 0,-1.289 -0.523,-2.051 -1.406,-2.051 -0.535,0 -1.145,0.321 -1.563,0.926 l -2.558,3.547 c -2.051,2.813 -3.981,3.555 -9.192,3.555 l -5.554,-0.352 c 2.222,-5.469 2.937,-7.551 3.843,-11.211 2.598,-10.469 2.961,-11.23 8.661,-16.359" /><path
         id="path112"
         style="fill:#ffffff;fill-opacity:1;fill-rule:nonzero;stroke:none"
         d="m 687.402,435.953 c 2.399,2.098 4.317,6.563 4.317,9.852 0,1.515 -0.317,2.929 -1.098,4.562 -1.113,2.403 -3.258,4.551 -4.551,4.551 -1.093,0 -2.07,-2.637 -2.496,-6.777 l -0.652,-4.817 -0.949,-4.804 -0.332,-4.805 v -3.203 l 2.879,2.863 2.882,2.578" /><path
         id="path114"
         style="fill:#ffffff;fill-opacity:1;fill-rule:nonzero;stroke:none"
         d="m 660.797,293.648 c 4.445,-5.168 6.906,-6.398 12.808,-6.398 1.594,0 3.11,0.207 4.536,0.617 l 4.132,1.289 3.207,0.985 c 1.532,0.422 2.567,1.105 2.567,1.621 0,0.676 -2.52,2.804 -6.406,5.41 -2.571,1.75 -5.141,3.254 -7.688,4.492 -2.769,1.359 -5.066,1.992 -7.348,1.992 -4.511,0 -8.855,-1.394 -13.171,-4.246 3.289,-1.211 3.972,-1.758 7.363,-5.762" /><path
         id="path116"
         style="fill:#ffffff;fill-opacity:1;fill-rule:nonzero;stroke:none"
         d="m 711.129,212.543 c 5.644,3.156 8.719,4.844 9.301,5.137 5.925,3.144 8.664,5.371 8.664,7.011 0,2.11 -3.61,3.352 -9.813,3.352 -12.402,0 -22.578,-8.496 -22.578,-18.84 l 0.317,-3.699 c 5.66,2.488 7.66,3.484 14.109,7.039" /><path
         id="path118"
         style="fill:#ffffff;fill-opacity:1;fill-rule:nonzero;stroke:none"
         d="m 845.094,291.41 c 1.027,0.801 2.535,1.856 4.484,3.195 6.418,4.375 6.762,4.668 6.762,6.055 0,1.785 -2.602,2.645 -8.004,2.645 -10.098,0 -16.25,-4.735 -21.18,-16.367 4.555,0.929 6.074,2.109 8.332,2.199 l 5.774,-0.293 c 0.707,0.242 2,1.14 3.832,2.566" /><path
         id="path120"
         style="fill:#ffffff;fill-opacity:1;fill-rule:nonzero;stroke:none"
         d="m 745.758,425.355 c 0.137,-2.753 2.441,-5.488 4.656,-5.488 2.953,0 5.059,4.473 6.219,11.25 0.539,3.106 0.73,3.606 0.73,4.453 0,2.356 -0.793,3 -3.816,3 l -1.692,-0.058 h -2.253 l -1.438,0.058 c -2.008,0 -2.777,-1.574 -2.777,-5.644 l 0.051,-1.465 0.32,-6.106" /><path
         id="path122"
         style="fill:#ffffff;fill-opacity:1;fill-rule:nonzero;stroke:none"
         d="m 419.109,678.383 c 4.637,0 8.407,3.769 8.407,8.41 0,4.617 -3.77,8.367 -8.407,8.367 -4.617,0 -8.379,-3.75 -8.379,-8.367 0,-4.641 3.762,-8.41 8.379,-8.41" /><path
         id="path124"
         style="fill:#ffffff;fill-opacity:1;fill-rule:nonzero;stroke:none"
         d="m 579.117,678.383 c 4.629,0 8.395,3.769 8.395,8.41 0,4.617 -3.766,8.367 -8.395,8.367 -4.629,0 -8.394,-3.75 -8.394,-8.367 0,-4.641 3.765,-8.41 8.394,-8.41" /><path
         id="path126"
         style="fill:#ffffff;fill-opacity:1;fill-rule:nonzero;stroke:none"
         d="m 419.465,602.445 c 4.437,0 8.051,3.75 8.051,8.36 0,4.629 -3.77,8.379 -8.407,8.379 -4.617,0 -8.379,-3.75 -8.379,-8.379 0,-4.61 3.918,-8.36 8.735,-8.36" /><path
         id="path128"
         style="fill:#ffffff;fill-opacity:1;fill-rule:nonzero;stroke:none"
         d="m 579.117,602.445 c 4.629,0 8.395,3.75 8.395,8.36 0,4.629 -3.766,8.379 -8.395,8.379 -4.629,0 -8.394,-3.75 -8.394,-8.379 0,-4.61 3.765,-8.36 8.394,-8.36" /><path
         id="path130"
         style="fill:#ffffff;fill-opacity:1;fill-rule:nonzero;stroke:none"
         d="m 459.188,649.926 c 13.542,10.519 24.988,14.883 39.117,14.883 14.254,0 24.898,-4.168 38.8,-15.196 -12.101,-12 -22.73,-16.504 -39.031,-16.504 -14.48,0 -27.664,5.723 -38.886,16.817 z m 87.921,0 c -15.324,15.722 -29.582,22.304 -48.336,22.304 -19.703,0 -37.472,-8.054 -49.269,-22.304 13.141,-16.446 29.719,-24.578 50.215,-24.578 18.972,0 32.039,6.797 47.39,24.578" /><path
         id="path132"
         style="fill:#ffffff;fill-opacity:1;fill-rule:nonzero;stroke:none"
         d="m 498.113,658.668 c -8.062,0 -15.652,-1.855 -22.422,-5.52 8.11,-5.058 14.524,-7.089 22.086,-7.089 8.883,0 16.309,2.226 23.493,7.089 -7.575,3.633 -15.442,5.52 -23.157,5.52" /><path
         id="path134"
         style="fill:#ffffff;fill-opacity:1;fill-rule:nonzero;stroke:none"
         d="m 444.672,714.574 v 15.52 c 0,7.605 -3.113,12.312 -8.09,12.312 -1,0 -2.562,-0.398 -3.894,-1.004 -1.079,-0.5 -1.829,-0.937 -2.258,-1.269 -0.758,-0.676 -1.426,-1.535 -1.93,-2.617 -0.844,-1.731 -1.297,-2.969 -1.297,-3.567 v -23.562 c 0,-4.778 3.731,-8.41 8.621,-8.41 5.645,0 8.848,3.019 8.848,8.41 v 4.187" /><path
         id="path136"
         style="fill:#ffffff;fill-opacity:1;fill-rule:nonzero;stroke:none"
         d="m 507.68,714.574 v 15.52 c 0,7.539 -3.11,12.344 -8.024,12.344 -5.75,0 -9.441,-4.7 -9.441,-12.032 v -20.019 c 0,-4.766 3.754,-8.41 8.617,-8.41 5.648,0 8.848,3.019 8.848,8.41 v 4.187" /><path
         id="path138"
         style="fill:#ffffff;fill-opacity:1;fill-rule:nonzero;stroke:none"
         d="m 568.777,714.574 v 15.52 c 0,7.605 -3.109,12.312 -8.074,12.312 -0.984,0 -2.574,-0.398 -3.887,-1.004 -1.093,-0.5 -1.851,-0.937 -2.265,-1.269 -0.758,-0.676 -1.426,-1.535 -1.946,-2.617 -0.843,-1.731 -1.296,-2.969 -1.296,-3.567 v -23.562 c 0,-4.778 3.746,-8.41 8.625,-8.41 5.648,0 8.843,3.019 8.843,8.41 v 4.187" /><path
         id="path140"
         style="fill:#ffffff;fill-opacity:1;fill-rule:nonzero;stroke:none"
         d="m 422.66,536.832 h 19.0742 v 24.5391 H 422.66 Z" /><path
         id="path142"
         style="fill:#ffffff;fill-opacity:1;fill-rule:nonzero;stroke:none"
         d="m 422.66,523.539 h 19.0742 v 7.75391 H 422.66 Z" /><path
         id="path144"
         style="fill:#ffffff;fill-opacity:1;fill-rule:nonzero;stroke:none"
         d="m 552.605,536.832 h 19.0742 v 24.5391 H 552.605 Z" /><path
         id="path146"
         style="fill:#ffffff;fill-opacity:1;fill-rule:nonzero;stroke:none"
         d="m 552.605,523.539 h 19.0742 v 7.75391 H 552.605 Z" /></g></g></svg>